<?xml version="1.0" encoding="UTF-8" standalone="no"?>
<svg
   xmlns:svg="http://www.w3.org/2000/svg"
   xmlns="http://www.w3.org/2000/svg"
   xmlns:sodipodi="http://sodipodi.sourceforge.net/DTD/sodipodi-0.dtd"
   xmlns:inkscape="http://www.inkscape.org/namespaces/inkscape"
   version="1.1"
   viewBox="0 0 728.66247 610.37801"
   id="svg1565"
   sodipodi:docname="PID.svg"
   inkscape:version="1.1-dev (b530929, 2020-05-03)">
  <defs
     id="defs1569" />
  <sodipodi:namedview
     pagecolor="#ffffff"
     bordercolor="#666666"
     borderopacity="1"
     objecttolerance="10"
     gridtolerance="10"
     guidetolerance="10"
     inkscape:pageopacity="0"
     inkscape:pageshadow="2"
     inkscape:window-width="640"
     inkscape:window-height="480"
     id="namedview1567"
     showgrid="false"
     inkscape:zoom="1.6970903"
     inkscape:cx="391.48024"
     inkscape:cy="273.01471"
     inkscape:current-layer="OutermostWrapperIGuess"
     fit-margin-top="2.5"
     lock-margins="true"
     fit-margin-left="2.5"
     fit-margin-right="2.5"
     fit-margin-bottom="2.5" />
  <g
     transform="translate(2.50925,2.49969)"
     id="OutermostWrapperIGuess">
    <g
       style="stroke:none"
       fill="none"
       id="graphAreas">
      <rect
         style="stroke:none;stroke-width:0.999996"
         id="TemperatureGraphArea"
         x="-0.00024923851"
         y="414.85001"
         width="238.55"
         height="190" />
      <rect
         style="stroke:none;stroke-width:0.999997"
         id="LevelGraphArea"
         x="242.0498"
         y="414.85031"
         width="239.55"
         height="190" />
      <rect
         style="stroke:none;stroke-width:0.999997"
         id="PressureGraphArea"
         x="484.09979"
         y="414.85001"
         width="239.55"
         height="190" />
    </g>
    <g
       fill="none"
       id="inputAreas">
      <rect
         id="SpeedInputArea"
         x="192.25999"
         y="0.28200001"
         width="148.56"
         height="42.52"
         fill="#d7eef4"
         stroke="#000000"
         stroke-miterlimit="8.5042"
         stroke-width="0.56338px" />
      <rect
         id="InletInputArea"
         x="0.28799999"
         y="0.28200001"
         width="190.22"
         height="166.83" />
      <rect
         id="TCInputArea"
         x="0.28799999"
         y="212.88"
         width="190.22"
         height="190.22" />
      <rect
         id="PCInputArea"
         x="531.78998"
         y="0.28200001"
         width="190.22"
         height="190.22" />
      <rect
         id="LCInputArea"
         x="533.90997"
         y="212.88"
         width="190.22"
         height="190.22" />
    </g>
    <g
       id="CenterImage">
      <g
         id="column"
         stroke-miterlimit="3"
         stroke-width="0.27196px"
         style="display:inline">
        <path
           transform="translate(-14.168,-14.173)"
           d="M 411.71,300.41 V 145.19 c 0,0 0.163,-31.045 -38.757,-31.045 -39.119,0 -38.757,31.045 -38.757,31.045 v 155.22 c 0,0 -0.164,31.045 38.757,31.045 38.722,0 38.757,-31.045 38.757,-31.045 z"
           fill="#e6e6e6"
           id="columnPath"
           style="fill:#e6e6e6;stroke:none;stroke-width:0.272;stroke-miterlimit:3;stroke-dasharray:none" />
        <path
           id="liquidSquiggle"
           d="m 320.032,100.18395 h 38.7568 38.7572 v -9.532082 c 0,0 -6.3,-3.22797 -9.651,-2.83291 -3.814,0.44979 -5.882,5.66764 -9.727,5.66491 -3.845,-0.003 -5.855,-5.66491 -9.689,-5.66491 -3.834,0 -5.8562,5.6567 -9.6902,5.66491 -3.853,0.005 -5.8998,-5.6567 -9.7568,-5.66491 -3.88,-0.007 -5.971,5.68589 -9.851,5.66491 -3.81,-0.0201 -5.826,-5.21512 -9.6,-5.66491 -3.317,-0.39506 -9.545,2.83291 -9.545,2.83291 z"
           fill="#deaa87"
           sodipodi:nodetypes="cscccsscccccc"
           style="stroke:#000000;stroke-width:0.271959px" />
        <rect
           style="fill:#deaa87;fill-opacity:1;stroke:none;stroke-width:0.272001;stroke-miterlimit:3;stroke-dasharray:none"
           id="liquidRect"
           width="93.494225"
           height="238.66391"
           x="313.94177"
           y="95.594688" />
        <path
           id="inverseColumnPath"
           style="fill:#ffffff;stroke:none;stroke-width:2.13543"
           d="m 309.00806,81.7923 h 103.565 v 253.913 h -103.565 z M 397.542,286.237 v -155.22 c 0,0 0.163,-31.045 -38.757,-31.045 -39.119,0 -38.757,31.045 -38.757,31.045 v 155.22 c 0,0 -0.164,31.045 38.757,31.045 38.722,0 38.757,-31.045 38.757,-31.045 z"
           sodipodi:nodetypes="cccccccsccsc" />
        <path
           id="columnPathOutline"
           fill="#e6e6e6"
           d="M 411.71,300.41 V 145.19 c 0,0 0.163,-31.045 -38.757,-31.045 -39.119,0 -38.757,31.045 -38.757,31.045 v 155.22 c 0,0 -0.164,31.045 38.757,31.045 38.722,0 38.757,-31.045 38.757,-31.045 z"
           transform="translate(-14.168,-14.173)"
           style="fill:none;stroke:#000000;stroke-width:0.564;stroke-miterlimit:3;stroke-dasharray:none" />
        <rect
           style="stroke:#000000"
           x="397.54001"
           y="263.26999"
           width="9.7919998"
           height="11.326"
           fill="#e6e6e6"
           id="rect870" />
        <rect
           x="310.23999"
           y="221.41"
           width="9.7919998"
           height="11.326"
           fill="#e6e6e6"
           id="rect872"
           style="stroke:#000000" />
        <rect
           style="stroke:#000000"
           x="397.54001"
           y="131.00999"
           width="9.7919998"
           height="11.327"
           fill="#e6e6e6"
           id="rect887" />
      </g>
      <g
         id="pump"
         fill="#cccccc">
        <path
           transform="translate(-14.168,-14.173)"
           d="m 400.03,385.32 h 34.217 l -5.132,-5.27 h -23.949 z"
           stroke="#000000"
           stroke-miterlimit="3"
           stroke-width="0.55663px"
           id="path837" />
        <rect
           x="407.34"
           y="337.57999"
           width="21.988001"
           height="8.2969999"
           id="rect839" />
        <rect
           x="385.35001"
           y="359.62"
           width="21.988001"
           height="8.2969999"
           id="rect841" />
        <ellipse
           cx="407.34"
           cy="352.75"
           rx="15.196"
           ry="15.168"
           id="ellipse843" />
        <g
           stroke="#000000"
           stroke-miterlimit="3"
           stroke-width="0.55663px"
           id="g853">
          <path
             transform="translate(-14.168,-14.173)"
             d="m 435.04,360.03 a 15.169,15.169 0 0 1 -13.541,22.055"
             id="path845" />
          <path
             transform="translate(-14.168,-14.173)"
             d="m 408.09,374.04 a 15.168,15.168 0 0 1 13.414,-22.289"
             id="path847" />
          <path
             transform="translate(-14.168,-14.173)"
             d="m 421.5,351.74 h 21.989 v 8.3 h -8.442"
             id="path849" />
          <path
             transform="translate(-14.168,-14.173)"
             d="m 421.5,382.08 h -21.985 v -8.3 h 8.442"
             id="path851" />
        </g>
      </g>
      <g
         stroke="#000000"
         id="ColumnAccessories">
        <g
           stroke-width="0.5625px"
           id="ArrowsAndLines">
          <path
             d="m 259.262,288.597 11.889,-3.48 v 6.957 z"
             stroke-width="0.5625px"
             id="path898" />
          <path
             sodipodi:nodetypes="ccc"
             transform="translate(-14.168,-14.173)"
             d="m 253.27,273.83806 0,-32.60106 h 71.217"
             fill="none"
             stroke-dasharray="4.50709, 2.25354"
             stroke-width="0.56338px"
             id="path894" />
          <path
             d="m 257.212,268.457 h 85.687 l -13.058,10.069 13.058,10.068 h -76.56"
             fill="none"
             stroke-width="1.1268px"
             id="path892" />
          <g
             stroke-width="0.56338px"
             id="g890" />
          <path
             transform="translate(-14.168,-14.173)"
             d="m 421.6,283.1 h 59.59 v 43.566"
             fill="none"
             stroke-dasharray="4.50709, 2.25354"
             id="path874" />
          <path
             transform="translate(-14.168,-14.173)"
             d="m 372.84,331.45 v 46.772 c 5.361,0.032 24.575,-0.32 29.936,-0.288"
             fill="none"
             stroke="#000000"
             stroke-miterlimit="8.5042"
             stroke-width="0.5625px"
             id="path835" />
          <path
             id="arrowIn"
             transform="translate(-14.168,-14.173)"
             d="m 201.78,189.77 h 132.41 l -14.278,-4.132 v 8.264 l 14.278,-4.132" />
          <path
             id="arrowTop"
             transform="translate(-14.168,-14.173)"
             d="M 372.95,114.14 V 36.582 l -4.132,14.278 h 8.264 L 372.95,36.582" />
          <path
             id="arrowAfterPump"
             transform="translate(-14.168,-14.173)"
             d="m 444.39,355.9 h 83.475 l -14.277,-4.132 v 8.264 l 14.277,-4.132" />
          <path
             transform="translate(-14.168,-14.173)"
             d="m 402.25,83.238 h 71.768 v 67.613 h -52.519"
             fill="none"
             stroke-dasharray="4.50709, 2.25354"
             id="path885" />
        </g>
        <g
           id="ValveAfterPump"
           fill="#f2f2f2"
           stroke-width="0.5625px">
          <path
             transform="translate(-14.168,-14.173)"
             d="m 460.7,345.7 v 20.392 L 503.22,345.7 v 20.392 z"
             id="path865" />
          <path
             transform="translate(-14.168,-14.173)"
             d="m 481.95,355.9 v -19.133 h 15.92 c 0,0 -2.293,-10.095 -15.92,-10.095 -13.627,0 -15.92,10.095 -15.92,10.095 h 15.92"
             id="path867" />
        </g>
        <g
           stroke-width="0.56338px"
           id="ControllerCircles">
          <circle
             id="LCcircle"
             cx="465.92999"
             cy="268.92999"
             r="21.26"
             fill="#f9f9f9" />
          <circle
             id="PCcircle"
             cx="459.85001"
             cy="69.061996"
             r="21.26"
             fill="#f9f9f9" />
          <circle
             cx="239.11"
             cy="279.60999"
             r="21.26"
             fill="#f9f9f9"
             stroke-width="0.56338px"
             id="TCcircle" />
        </g>
        <g
           fill="#f2f2f2"
           stroke-width="0.5625px"
           id="ValveOnTop">
          <path
             transform="translate(-14.168,-14.173)"
             d="m 383.15,61.976 h -20.391 l 20.391,42.517 h -20.391 z"
             id="path879" />
          <path
             transform="translate(-14.168,-14.173)"
             d="m 372.95,83.238 h 19.134 v 15.921 c 0,0 10.095,-2.294 10.095,-15.921 0,-13.627 -10.095,-15.92 -10.095,-15.92 v 15.92"
             id="path881" />
        </g>
      </g>
    </g>
    <g
       stroke="#000000"
       fill="none"
       stroke-width="0.5625px"
       id="labelBubbles">
      <path
         transform="translate(-14.168,-14.173)"
         d="m 14.456,14.455 h 190.22 v 145.48 l 22.3,24.838 -41.079,-3.491 H 14.467 V 14.462"
         stroke-width="0.56338px"
         id="path913" />
      <path
         transform="translate(-14.168,-14.173)"
         d="m 545.95,14.455 h 190.22 v 190.22 H 545.95 V 92.565 L 508.818,81.934 545.95,71.305 Z"
         id="path905" />
      <path
         transform="translate(-14.168,-14.173)"
         d="M 547.32,227.05 H 737.54 V 417.27 H 547.32 V 294.53 l -38.748,-10.629 38.748,-10.63 z"
         id="path907" />
      <path
         sodipodi:nodetypes="cccccccc"
         transform="translate(-14.168,-14.173)"
         d="M 204.66,417.27 H 14.44 V 227.05 h 190.22 l 0,55.89061 21.375,10.62999 -21.375,11.55898 z"
         id="path909" />
    </g>
    <g
       id="PressureTextWrapper"
       class="pv-color">
      <text
         transform="translate(430.52,40.19)"
         font-family="ArialMT, Arial"
         font-size="15px"
         style="isolation:isolate"
         id="text917">70.0 kPa</text>
    </g>
    <g
       transform="translate(0,14)"
       id="TemperatureTextWrapper"
       class="pv-color">
      <text
         transform="translate(218.77,306.94)"
         font-family="ArialMT, Arial"
         font-size="15px"
         style="isolation:isolate"
         id="text920">400 K</text>
    </g>
    <g
       id="LevelTextWrapper"
       class="pv-color">
      <text
         transform="translate(444.52,238.56)"
         font-family="ArialMT, Arial"
         font-size="15px"
         style="isolation:isolate"
         id="text923">10.0%</text>
    </g>
    <rect
       style="fill:none"
       id="csvDownloadArea"
       x="209.65039"
       y="49.522285"
       width="84.803001"
       height="34.418999"
       fill="none" />
    <rect
       fill="none"
       height="34.418999"
       width="84.803001"
       y="89"
       x="209.65039"
       id="directionsArea"
       style="fill:none" />
    <text
       xml:space="preserve"
       style="font-style:normal;font-weight:normal;font-size:14.3319px;line-height:1.25;font-family:sans-serif;display:none;opacity:0;fill:#000000;fill-opacity:1;stroke:none;stroke-width:1"
       x="740.50629"
       y="40.151508"
       id="functionTextOriginal"><tspan
         sodipodi:role="line"
         id="tspan1627"
         x="0"
         y="0"
         style="stroke-width:1">PI(pv, stpt, Kc, bias, TauI, auto) {</tspan><tspan
         sodipodi:role="line"
         x="0"
         y="0"
         id="tspan1629"
         style="stroke-width:1">  if ( auto ) {</tspan><tspan
         sodipodi:role="line"
         x="0"
         y="0"
         id="tspan1631"
         style="stroke-width:1">    float err = stpt - pv;</tspan><tspan
         sodipodi:role="line"
         x="0"
         y="0"
         id="tspan1633"
         style="stroke-width:1">    errs = errs + err;</tspan><tspan
         sodipodi:role="line"
         x="0"
         y="0"
         id="tspan1635"
         style="stroke-width:1">    float dmv =</tspan><tspan
         sodipodi:role="line"
         x="0"
         y="0"
         id="tspan1637"
         style="stroke-width:1">    </tspan><tspan
         sodipodi:role="line"
         x="0"
         y="0"
         id="tspan1639"
         style="stroke-width:1">    mv = bias + dmv;</tspan><tspan
         sodipodi:role="line"
         x="0"
         y="0"
         id="tspan1641"
         style="stroke-width:1">  } else {</tspan><tspan
         sodipodi:role="line"
         x="0"
         y="0"
         id="tspan1643"
         style="stroke-width:1">    mv = stpt;</tspan><tspan
         sodipodi:role="line"
         x="0"
         y="0"
         id="tspan1645"
         style="stroke-width:1">    errs = 0;</tspan><tspan
         sodipodi:role="line"
         x="0"
         y="0"
         id="tspan1647"
         style="stroke-width:1">  }</tspan><tspan
         sodipodi:role="line"
         x="0"
         y="0"
         id="tspan1649"
         style="stroke-width:1">  return [mv, errs];</tspan><tspan
         sodipodi:role="line"
         x="0"
         y="0"
         id="tspan1651"
         style="stroke-width:1">}</tspan></text>
    <text
       id="inlet-label-butanol"
       y="168.89592"
       x="233.91452"
       style="font-style:normal;font-variant:normal;font-weight:normal;font-stretch:normal;font-size:16px;line-height:1.25;font-family:ArialMT, Arial;-inkscape-font-specification:'ArialMT, Arial, Normal';font-variant-ligatures:normal;font-variant-caps:normal;font-variant-numeric:normal;font-variant-east-asian:normal;fill:#000000;fill-opacity:1;stroke:none"
       xml:space="preserve"><tspan
         y="168.89592"
         x="233.91452"
         id="tspan1329"
         sodipodi:role="line">butanol</tspan></text>
    <text
       xml:space="preserve"
       style="font-style:normal;font-variant:normal;font-weight:normal;font-stretch:normal;font-size:16px;line-height:1.25;font-family:ArialMT, Arial;-inkscape-font-specification:'ArialMT, Arial, Normal';font-variant-ligatures:normal;font-variant-caps:normal;font-variant-numeric:normal;font-variant-east-asian:normal;fill:#000000;fill-opacity:1;stroke:none"
       x="233.91452"
       y="150.78093"
       id="inlet-label-aniline"><tspan
         sodipodi:role="line"
         id="tspan1335"
         x="233.91452"
         y="150.78093">aniline</tspan></text>
    <g
       id="PC-text">
      <path
         id="path932"
         d="m 461.72,90.723 v -15.03 h 5.671 a 13.667,13.667 0 0 1 2.286,0.144 4.533,4.533 0 0 1 1.856,0.7 3.692,3.692 0 0 1 1.205,1.451 4.892,4.892 0 0 1 -0.764,5.3 q -1.221,1.329 -4.409,1.328 h -3.855 v 6.111 z m 1.99,-7.885 h 3.885 a 4.128,4.128 0 0 0 2.739,-0.718 2.558,2.558 0 0 0 0.81,-2.02 2.718,2.718 0 0 0 -0.477,-1.615 2.237,2.237 0 0 0 -1.257,-0.887 8.542,8.542 0 0 0 -1.855,-0.133 h -3.845 z"
         transform="translate(-14.168,-14.173)" />
      <path
         id="path934"
         d="m 486.45,85.45 1.989,0.5 a 6.689,6.689 0 0 1 -2.25,3.737 6.2,6.2 0 0 1 -3.975,1.287 7.132,7.132 0 0 1 -3.953,-0.989 6.176,6.176 0 0 1 -2.317,-2.866 10.231,10.231 0 0 1 -0.795,-4.03 8.871,8.871 0 0 1 0.9,-4.1 6.146,6.146 0 0 1 2.547,-2.649 7.46,7.46 0 0 1 3.645,-0.908 6.167,6.167 0 0 1 3.794,1.149 5.966,5.966 0 0 1 2.143,3.23 l -1.959,0.461 a 4.647,4.647 0 0 0 -1.517,-2.389 4.041,4.041 0 0 0 -2.5,-0.75 4.868,4.868 0 0 0 -2.9,0.83 4.386,4.386 0 0 0 -1.635,2.231 8.94,8.94 0 0 0 -0.472,2.887 9.157,9.157 0 0 0 0.559,3.347 4.17,4.17 0 0 0 1.737,2.138 4.87,4.87 0 0 0 2.55,0.708 4.27,4.27 0 0 0 2.83,-0.965 4.926,4.926 0 0 0 1.574,-2.859 z"
         transform="translate(-14.168,-14.173)" />
    </g>
    <g
       id="LC-text">
      <path
         id="path936"
         d="m 468.69,289.97 v -15.031 h 1.989 v 13.263 h 7.4 v 1.772 z"
         transform="translate(-14.168,-14.173)" />
      <path
         id="path938"
         d="m 491.19,284.7 1.989,0.5 a 6.7,6.7 0 0 1 -2.25,3.738 6.2,6.2 0 0 1 -3.975,1.287 7.138,7.138 0 0 1 -3.952,-0.99 6.172,6.172 0 0 1 -2.318,-2.866 10.231,10.231 0 0 1 -0.8,-4.03 8.867,8.867 0 0 1 0.9,-4.1 6.152,6.152 0 0 1 2.55,-2.656 7.449,7.449 0 0 1 3.645,-0.907 6.163,6.163 0 0 1 3.795,1.148 5.97,5.97 0 0 1 2.142,3.23 l -1.958,0.461 a 4.646,4.646 0 0 0 -1.518,-2.388 4.041,4.041 0 0 0 -2.5,-0.75 4.849,4.849 0 0 0 -2.9,0.83 4.38,4.38 0 0 0 -1.636,2.23 8.965,8.965 0 0 0 -0.471,2.886 9.161,9.161 0 0 0 0.558,3.348 4.165,4.165 0 0 0 1.738,2.139 4.878,4.878 0 0 0 2.55,0.707 4.284,4.284 0 0 0 2.831,-0.964 4.936,4.936 0 0 0 1.58,-2.853 z"
         transform="translate(-14.168,-14.173)" />
    </g>
    <g
       transform="translate(0,14)"
       id="TC-text">
      <path
         id="path940"
         d="M 245.37,286.66 V 273.4 h -4.95 v -1.775 h 11.916 v 1.775 h -4.974 v 13.26 z"
         transform="translate(-14.168,-14.173)" />
      <path
         id="path942"
         d="m 265.1,281.39 1.99,0.5 a 6.7,6.7 0 0 1 -2.25,3.737 6.206,6.206 0 0 1 -3.975,1.287 7.152,7.152 0 0 1 -3.954,-0.989 6.184,6.184 0 0 1 -2.317,-2.867 10.212,10.212 0 0 1 -0.794,-4.03 8.839,8.839 0 0 1 0.9,-4.1 6.148,6.148 0 0 1 2.553,-2.656 7.459,7.459 0 0 1 3.645,-0.907 6.155,6.155 0 0 1 3.794,1.149 5.96,5.96 0 0 1 2.143,3.229 l -1.958,0.462 a 4.645,4.645 0 0 0 -1.518,-2.389 4.041,4.041 0 0 0 -2.5,-0.75 4.849,4.849 0 0 0 -2.9,0.83 4.38,4.38 0 0 0 -1.636,2.23 8.995,8.995 0 0 0 -0.472,2.887 9.162,9.162 0 0 0 0.559,3.348 4.167,4.167 0 0 0 1.738,2.138 4.888,4.888 0 0 0 2.55,0.708 4.285,4.285 0 0 0 2.831,-0.965 4.934,4.934 0 0 0 1.569,-2.859 z"
         transform="translate(-14.168,-14.173)" />
    </g>
  </g>
</svg>
