<?xml version="1.0" encoding="UTF-8" standalone="no"?>
<svg
   xmlns:svg="http://www.w3.org/2000/svg"
   xmlns="http://www.w3.org/2000/svg"
   xmlns:sodipodi="http://sodipodi.sourceforge.net/DTD/sodipodi-0.dtd"
   xmlns:inkscape="http://www.inkscape.org/namespaces/inkscape"
   version="1.1"
   viewBox="0 0 998.26 621.24"
   id="svg1565"
   sodipodi:docname="PID.svg"
   inkscape:version="1.1-dev (b530929, 2020-05-03)">
  <defs
     id="defs1569" />
  <sodipodi:namedview
     pagecolor="#ffffff"
     bordercolor="#666666"
     borderopacity="1"
     objecttolerance="10"
     gridtolerance="10"
     guidetolerance="10"
     inkscape:pageopacity="0"
     inkscape:pageshadow="2"
     inkscape:window-width="640"
     inkscape:window-height="480"
     id="namedview1567"
     showgrid="false"
     inkscape:zoom="1.8373181"
     inkscape:cx="262.27108"
     inkscape:cy="271.50541"
     inkscape:current-layer="OutermostWrapperIGuess" />
  <g
     transform="translate(2.5002 2.4997)"
     id="OutermostWrapperIGuess">
    <g
       style="stroke:none"
       fill="none"
       id="graphAreas">
      <rect
         style="stroke:none"
         id="TemperatureGraphArea"
         x="-0.00024923851"
         y="414.85001"
         width="327.29999"
         height="190" />
      <rect
         style="stroke:none"
         id="LevelGraphArea"
         x="332.2998"
         y="414.85001"
         width="327.29999"
         height="190" />
      <rect
         style="stroke:none"
         id="PressureGraphArea"
         x="665.59979"
         y="414.85001"
         width="327.29999"
         height="190" />
    </g>
    <g
       fill="none"
       id="inputAreas">
      <rect
         id="SpeedInputArea"
         x="202.26"
         y=".282"
         width="128.56"
         height="42.52"
         fill="#d7eef4"
         stroke="#000"
         stroke-miterlimit="8.5042"
         stroke-width=".56338px" />
      <rect
         id="InletInputArea"
         x=".288"
         y=".282"
         width="190.22"
         height="166.83" />
      <rect
         id="TCInputArea"
         x=".288"
         y="212.88"
         width="190.22"
         height="190.22" />
      <rect
         id="PCInputArea"
         x="531.79"
         y=".282"
         width="190.22"
         height="190.22" />
      <rect
         id="LCInputArea"
         x="533.91"
         y="212.88"
         width="190.22"
         height="190.22" />
    </g>
    <g
       id="CenterImage">
      <g
         id="column"
         stroke-miterlimit="3"
         stroke-width="0.27196px"
         style="display:inline">
        <path
           transform="translate(-14.168,-14.173)"
           d="M 411.71,300.41 V 145.19 c 0,0 0.163,-31.045 -38.757,-31.045 -39.119,0 -38.757,31.045 -38.757,31.045 v 155.22 c 0,0 -0.164,31.045 38.757,31.045 38.722,0 38.757,-31.045 38.757,-31.045 z"
           fill="#e6e6e6"
           id="columnPath"
           style="fill:#e6e6e6;stroke:none;stroke-width:0.272;stroke-miterlimit:3;stroke-dasharray:none" />
        <path
           id="liquidSquiggle"
           d="m 320.032,100.18395 h 38.7568 38.7572 v -9.532082 c 0,0 -6.3,-3.22797 -9.651,-2.83291 -3.814,0.44979 -5.882,5.66764 -9.727,5.66491 -3.845,-0.003 -5.855,-5.66491 -9.689,-5.66491 -3.834,0 -5.8562,5.6567 -9.6902,5.66491 -3.853,0.005 -5.8998,-5.6567 -9.7568,-5.66491 -3.88,-0.007 -5.971,5.68589 -9.851,5.66491 -3.81,-0.0201 -5.826,-5.21512 -9.6,-5.66491 -3.317,-0.39506 -9.545,2.83291 -9.545,2.83291 z"
           fill="#deaa87"
           sodipodi:nodetypes="cscccsscccccc"
           style="stroke-width:0.271959px;stroke:#000000" />
        <rect
           style="fill:#deaa87;fill-opacity:1;stroke:none;stroke-width:0.272001;stroke-miterlimit:3;stroke-dasharray:none"
           id="liquidRect"
           width="93.494225"
           height="238.66391"
           x="313.94177"
           y="95.594688" />
        <path
           id="inverseColumnPath"
           style="fill:#ffffff;stroke:none;stroke-width:2.13543"
           d="m 309.00806,81.7923 h 103.565 v 253.913 h -103.565 z M 397.542,286.237 v -155.22 c 0,0 0.163,-31.045 -38.757,-31.045 -39.119,0 -38.757,31.045 -38.757,31.045 v 155.22 c 0,0 -0.164,31.045 38.757,31.045 38.722,0 38.757,-31.045 38.757,-31.045 z"
           sodipodi:nodetypes="cccccccsccsc" />
        <path
           id="columnPathOutline"
           fill="#e6e6e6"
           d="M 411.71,300.41 V 145.19 c 0,0 0.163,-31.045 -38.757,-31.045 -39.119,0 -38.757,31.045 -38.757,31.045 v 155.22 c 0,0 -0.164,31.045 38.757,31.045 38.722,0 38.757,-31.045 38.757,-31.045 z"
           transform="translate(-14.168,-14.173)"
           style="fill:none;stroke:#000000;stroke-width:0.564;stroke-miterlimit:3;stroke-dasharray:none" />
        <rect
           style="stroke:#000000"
           x="397.54"
           y="263.27"
           width="9.792"
           height="11.326"
           fill="#e6e6e6"
           id="rect870" />
        <rect
           x="310.24"
           y="221.41"
           width="9.792"
           height="11.326"
           fill="#e6e6e6"
           id="rect872"
           style="stroke:#000000" />
        <rect
           style="stroke:#000000"
           x="397.54"
           y="131.01"
           width="9.792"
           height="11.327"
           fill="#e6e6e6"
           id="rect887" />
      </g>
      <g
         id="pump"
         fill="#ccc">
        <path
           transform="translate(-14.168,-14.173)"
           d="m400.03 385.32h34.217l-5.132-5.27h-23.949z"
           stroke="#000"
           stroke-miterlimit="3"
           stroke-width=".55663px"
           id="path837" />
        <rect
           x="407.34"
           y="337.58"
           width="21.988"
           height="8.297"
           id="rect839" />
        <rect
           x="385.35"
           y="359.62"
           width="21.988"
           height="8.297"
           id="rect841" />
        <ellipse
           cx="407.34"
           cy="352.75"
           rx="15.196"
           ry="15.168"
           id="ellipse843" />
        <g
           stroke="#000"
           stroke-miterlimit="3"
           stroke-width=".55663px"
           id="g853">
          <path
             transform="translate(-14.168,-14.173)"
             d="m435.04 360.03a15.169 15.169 0 0 1-13.541 22.055"
             id="path845" />
          <path
             transform="translate(-14.168,-14.173)"
             d="m408.09 374.04a15.168 15.168 0 0 1 13.414-22.289"
             id="path847" />
          <path
             transform="translate(-14.168,-14.173)"
             d="m421.5 351.74h21.989v8.3h-8.442"
             id="path849" />
          <path
             transform="translate(-14.168,-14.173)"
             d="m421.5 382.08h-21.985v-8.3h8.442"
             id="path851" />
        </g>
      </g>
      <g
         stroke="#000"
         id="ColumnAccessories">
        <g
           stroke-width=".5625px"
           id="ArrowsAndLines">
          <path
             transform="translate(-14.168,-14.173)"
             d="m273.43 288.77 11.889-3.48v6.957z"
             stroke-width=".5625px"
             id="path898" />
          <path
             transform="translate(-14.168,-14.173)"
             d="m253.27 258.51v-17.273h71.217"
             fill="none"
             stroke-dasharray="4.50709, 2.25354"
             stroke-width=".56338px"
             id="path894" />
          <path
             transform="translate(-14.168,-14.173)"
             d="m271.38 268.63h85.687l-13.058 10.069 13.058 10.068h-76.56"
             fill="none"
             stroke-width="1.1268px"
             id="path892" />
          <g
             stroke-width=".56338px"
             id="g890" />
          <path
             transform="translate(-14.168,-14.173)"
             d="m421.6 283.1h59.59v43.566"
             fill="none"
             stroke-dasharray="4.50709, 2.25354"
             id="path874" />
          <path
             transform="translate(-14.168,-14.173)"
             d="m372.84 331.45v46.772c5.361 0.032 24.575-0.32 29.936-0.288"
             fill="none"
             stroke="#000"
             stroke-miterlimit="8.5042"
             stroke-width=".5625px"
             id="path835" />
          <path
             id="arrowIn"
             transform="translate(-14.168,-14.173)"
             d="m201.78 189.77h132.41l-14.278-4.132v8.264l14.278-4.132" />
          <path
             id="arrowTop"
             transform="translate(-14.168,-14.173)"
             d="m372.95 114.14v-77.558l-4.132 14.278h8.264l-4.132-14.278" />
          <path
             id="arrowAfterPump"
             transform="translate(-14.168,-14.173)"
             d="m444.39 355.9h83.475l-14.277-4.132v8.264l14.277-4.132" />
          <path
             transform="translate(-14.168,-14.173)"
             d="m402.25 83.238h71.768v67.613h-52.519"
             fill="none"
             stroke-dasharray="4.50709, 2.25354"
             id="path885" />
        </g>
        <g
           id="ValveAfterPump"
           fill="#f2f2f2"
           stroke-width=".5625px">
          <path
             transform="translate(-14.168,-14.173)"
             d="m460.7 345.7v20.392l42.52-20.392v20.392z"
             id="path865" />
          <path
             transform="translate(-14.168,-14.173)"
             d="m481.95 355.9v-19.133h15.92s-2.293-10.095-15.92-10.095-15.92 10.095-15.92 10.095h15.92"
             id="path867" />
        </g>
        <g
           stroke-width=".56338px"
           id="ControllerCircles">
          <circle
             id="LCcircle"
             cx="465.93"
             cy="268.93"
             r="21.26"
             fill="#f9f9f9" />
          <circle
             id="PCcircle"
             cx="459.85"
             cy="69.062"
             r="21.26"
             fill="#f9f9f9" />
          <circle
             cx="239.11"
             cy="265.61"
             r="21.26"
             fill="#f9f9f9"
             stroke-width=".56338px"
             id="TCcircle" />
        </g>
        <g
           fill="#f2f2f2"
           stroke-width=".5625px"
           id="ValveOnTop">
          <path
             transform="translate(-14.168,-14.173)"
             d="m383.15 61.976h-20.391l20.391 42.517h-20.391z"
             id="path879" />
          <path
             transform="translate(-14.168,-14.173)"
             d="m372.95 83.238h19.134v15.921s10.095-2.294 10.095-15.921-10.095-15.92-10.095-15.92v15.92"
             id="path881" />
        </g>
      </g>
    </g>
    <g
       stroke="#000"
       fill="none"
       stroke-width=".5625px"
       id="labelBubbles">
      <path
         transform="translate(-14.168,-14.173)"
         d="m14.456 14.455h190.22v145.48l22.3 24.838-41.079-3.491h-171.43v-166.82"
         stroke-width=".56338px"
         id="path913" />
      <path
         transform="translate(-14.168,-14.173)"
         d="m545.95 14.455h190.22v190.22h-190.22v-112.11l-37.132-10.631 37.132-10.629z"
         id="path905" />
      <path
         transform="translate(-14.168,-14.173)"
         d="m547.32 227.05h190.22v190.22h-190.22v-122.74l-38.748-10.629 38.748-10.63z"
         id="path907" />
      <path
         transform="translate(-14.168,-14.173)"
         d="m204.66 417.27h-190.22v-190.22h190.22v41.956l21.375 10.63-21.375 10.63z"
         id="path909" />
    </g>
    <g
       id="PressureTextWrapper">
      <text
         transform="translate(430.52 40.19)"
         font-family="ArialMT, Arial"
         font-size="15px"
         style="isolation:isolate"
         id="text917">70.0 kPa</text>
    </g>
    <g
       id="TemperatureTextWrapper">
      <text
         transform="translate(218.77 306.94)"
         font-family="ArialMT, Arial"
         font-size="15px"
         style="isolation:isolate"
         id="text920">400 K</text>
    </g>
    <g
       id="LevelTextWrapper">
      <text
         transform="translate(444.52 238.56)"
         font-family="ArialMT, Arial"
         font-size="15px"
         style="isolation:isolate"
         id="text923">10.0%</text>
    </g>
    <rect
       style="fill:none"
       id="csvDownloadArea"
       x="209.65039"
       y="49.522285"
       width="84.803001"
       height="44.418999"
       fill="none" />
    <g
       transform="translate(-4,2)"
       id="functionAreaLabel">
      <text
         transform="translate(748.27,12.972)"
         font-family="ArialMT, Arial"
         font-size="15px"
         style="isolation:isolate"
         id="text927">complete the function to use auto:</text>
    </g>
    <rect
       id="CodeBlockWrapper"
       x="734.46002"
       y="23.667"
       width="257.39001"
       height="245.46489"
       fill="#f2f2f2"
       stroke="#808080"
       stroke-miterlimit="8.5042"
       stroke-width="1" />
    <g
       style="font-style:normal;font-weight:normal;font-size:14.3319px;line-height:1.25;font-family:sans-serif;fill:#000000;fill-opacity:1;stroke:none;stroke-width:1"
       id="functionText"
       aria-label="PI(pv, stpt, Kc, bias, TauI, auto) {
  if ( auto ) {
    float err = stpt - pv;
    errs = errs + err;
    float dmv =
    
    mv = bias + dmv;
  } else {
    mv = stpt;
    errs = 0;
  }
  return [mv, errs];
}">
      <path
         id="path1655"
         style="stroke-width:1"
         d="m 748.72194,32.880589 q 0,0.692801 -0.24493,1.287631 -0.23794,0.587832 -0.67181,1.021708 -0.53885,0.538846 -1.27364,0.811768 -0.73479,0.265924 -1.85447,0.265924 h -1.3856 v 3.883888 h -1.3856 V 29.731489 h 2.82719 q 0.93773,0 1.58854,0.160954 0.65082,0.153956 1.15467,0.48986 0.59483,0.398886 0.91674,0.993716 0.32891,0.59483 0.32891,1.50457 z m -1.44159,0.03499 q 0,-0.538846 -0.18895,-0.937732 -0.18894,-0.398886 -0.57383,-0.650814 -0.33591,-0.216938 -0.76978,-0.307912 -0.42688,-0.09797 -1.08469,-0.09797 h -1.37161 v 4.163809 h 1.16867 q 0.83976,0 1.36461,-0.146958 0.52484,-0.153956 0.85375,-0.482862 0.32891,-0.335904 0.46187,-0.706798 0.13996,-0.370894 0.13996,-0.832761 z" />
      <path
         id="path1657"
         style="stroke-width:1"
         d="m 754.22936,40.151508 h -4.11482 v -1.063695 h 1.36461 v -8.292628 h -1.36461 v -1.063696 h 4.11482 v 1.063696 h -1.36461 v 8.292628 h 1.36461 z" />
      <path
         id="path1659"
         style="stroke-width:1"
         d="m 760.68151,43.034683 h -1.60254 q -1.23864,-1.420593 -1.92445,-3.100113 -0.6858,-1.679519 -0.6858,-3.785916 0,-2.106398 0.6858,-3.785917 0.68581,-1.67952 1.92445,-3.100113 h 1.60254 v 0.06998 q -0.56683,0.510853 -1.08468,1.182661 -0.51086,0.66481 -0.95173,1.553556 -0.41988,0.860754 -0.68581,1.896457 -0.25892,1.035704 -0.25892,2.183376 0,1.196657 0.25193,2.190373 0.25892,0.993716 0.6928,1.889459 0.41988,0.860754 0.95872,1.553556 0.53885,0.6998 1.07769,1.182661 z" />
      <path
         id="path1661"
         style="stroke-width:1"
         d="m 769.89788,36.148654 q 0,0.951727 -0.27292,1.742501 -0.27293,0.783776 -0.76978,1.32962 -0.46187,0.517851 -1.09169,0.804769 -0.62282,0.27992 -1.32262,0.27992 -0.60883,0 -1.10569,-0.132962 -0.48986,-0.132962 -1.00071,-0.412882 v 3.275063 h -1.31562 V 32.334745 h 1.31562 v 0.818765 q 0.52485,-0.440873 1.17566,-0.734789 0.65782,-0.300914 1.3996,-0.300914 1.4136,0 2.19737,1.070693 0.79078,1.063696 0.79078,2.960154 z m -1.35761,0.03499 q 0,-1.413596 -0.48287,-2.113396 -0.48286,-0.6998 -1.48357,-0.6998 -0.56684,0 -1.14067,0.24493 -0.57384,0.24493 -1.09869,0.643816 v 4.429733 q 0.55984,0.251928 0.95873,0.342902 0.40588,0.09097 0.91673,0.09097 1.09869,0 1.71451,-0.741788 0.61583,-0.741788 0.61583,-2.197371 z" />
      <path
         id="path1663"
         style="stroke-width:1"
         d="m 778.70836,32.334745 -3.1631,7.816763 h -1.32262 l -3.1421,-7.816763 h 1.42759 l 2.42131,6.22122 2.40031,-6.22122 z" />
      <path
         id="path1665"
         style="stroke-width:1"
         d="m 781.89944,38.157079 -1.97343,4.583689 h -1.02171 l 1.21765,-4.583689 z" />
      <path
         id="path1667"
         style="stroke-width:1"
         d="m 794.9997,37.898153 q 0,1.070694 -0.88875,1.756497 -0.88175,0.685804 -2.41431,0.685804 -0.86775,0 -1.59554,-0.202942 -0.72079,-0.20994 -1.21065,-0.45487 v -1.476577 h 0.07 q 0.62282,0.468866 1.3856,0.748786 0.76278,0.272922 1.46258,0.272922 0.86775,0 1.35761,-0.27992 0.48986,-0.27992 0.48986,-0.881748 0,-0.461868 -0.26592,-0.6998 -0.26593,-0.237932 -1.02171,-0.405884 -0.27992,-0.06298 -0.73479,-0.146958 -0.44787,-0.08398 -0.81876,-0.181948 -1.02871,-0.272922 -1.46259,-0.797771 -0.42687,-0.531848 -0.42687,-1.301628 0,-0.482862 0.19594,-0.90974 0.20294,-0.426878 0.60883,-0.762781 0.39188,-0.328906 0.99371,-0.517852 0.60883,-0.195944 1.35761,-0.195944 0.6998,0 1.4136,0.17495 0.72079,0.167952 1.19666,0.412882 v 1.406597 h -0.07 q -0.50386,-0.370894 -1.22465,-0.622822 -0.7208,-0.258926 -1.4136,-0.258926 -0.72079,0 -1.21765,0.27992 -0.49686,0.272922 -0.49686,0.818766 0,0.482862 0.30092,0.727792 0.29391,0.24493 0.95172,0.398886 0.3639,0.08398 0.81177,0.167952 0.45487,0.08398 0.75578,0.153956 0.91674,0.20994 1.4136,0.720793 0.49686,0.517852 0.49686,1.371608 z" />
      <path
         id="path1669"
         style="stroke-width:1"
         d="m 800.948,40.081528 q -0.3709,0.09797 -0.81177,0.160954 -0.43388,0.06298 -0.77678,0.06298 -1.19666,0 -1.81948,-0.643816 -0.62282,-0.643815 -0.62282,-2.064409 v -4.156811 h -0.88875 v -1.105683 h 0.88875 v -2.246358 h 1.31562 v 2.246358 h 2.71523 v 1.105683 h -2.71523 v 3.561981 q 0,0.615824 0.028,0.965724 0.028,0.342902 0.19594,0.643816 0.15396,0.27992 0.41988,0.412882 0.27292,0.125964 0.82576,0.125964 0.32191,0 0.67181,-0.09097 0.3499,-0.09797 0.50386,-0.160954 h 0.07 z" />
      <path
         id="path1671"
         style="stroke-width:1"
         d="m 809.42257,36.148654 q 0,0.951727 -0.27292,1.742501 -0.27292,0.783776 -0.76978,1.32962 -0.46187,0.517851 -1.09169,0.804769 -0.62282,0.27992 -1.32262,0.27992 -0.60883,0 -1.10568,-0.132962 -0.48986,-0.132962 -1.00072,-0.412882 v 3.275063 h -1.31562 V 32.334745 h 1.31562 v 0.818765 q 0.52485,-0.440873 1.17567,-0.734789 0.65781,-0.300914 1.3996,-0.300914 1.41359,0 2.19737,1.070693 0.79077,1.063696 0.79077,2.960154 z m -1.35761,0.03499 q 0,-1.413596 -0.48286,-2.113396 -0.48286,-0.6998 -1.48358,-0.6998 -0.56684,0 -1.14067,0.24493 -0.57384,0.24493 -1.09869,0.643816 v 4.429733 q 0.55984,0.251928 0.95873,0.342902 0.40588,0.09097 0.91674,0.09097 1.09868,0 1.71451,-0.741788 0.61582,-0.741788 0.61582,-2.197371 z" />
      <path
         id="path1673"
         style="stroke-width:1"
         d="m 815.53182,40.081528 q -0.37089,0.09797 -0.81177,0.160954 -0.43387,0.06298 -0.77677,0.06298 -1.19666,0 -1.81948,-0.643816 -0.62283,-0.643815 -0.62283,-2.064409 v -4.156811 h -0.88874 v -1.105683 h 0.88874 v -2.246358 h 1.31563 v 2.246358 h 2.71522 v 1.105683 h -2.71522 v 3.561981 q 0,0.615824 0.028,0.965724 0.028,0.342902 0.19594,0.643816 0.15396,0.27992 0.41988,0.412882 0.27293,0.125964 0.82577,0.125964 0.32191,0 0.6718,-0.09097 0.3499,-0.09797 0.50386,-0.160954 h 0.07 z" />
      <path
         id="path1675"
         style="stroke-width:1"
         d="m 819.85658,38.157079 -1.97343,4.583689 h -1.02171 l 1.21765,-4.583689 z" />
      <path
         id="path1677"
         style="stroke-width:1"
         d="m 835.85401,40.151508 h -1.79849 l -4.12182,-4.639672 -1.0357,1.105683 v 3.533989 h -1.38561 V 29.731489 h 1.38561 v 5.437445 l 5.05955,-5.437445 h 1.67952 l -4.65367,4.898599 z" />
      <path
         id="path1679"
         style="stroke-width:1"
         d="m 843.08994,39.661648 q -0.65781,0.31491 -1.25264,0.48986 -0.58784,0.17495 -1.25265,0.17495 -0.84675,0 -1.55355,-0.24493 -0.7068,-0.251928 -1.21066,-0.755783 -0.51085,-0.503856 -0.79077,-1.273636 -0.27992,-0.76978 -0.27992,-1.798485 0,-1.917452 1.0497,-3.00914 1.0567,-1.091687 2.7852,-1.091687 0.67181,0 1.31563,0.188946 0.65081,0.188946 1.18966,0.461868 v 1.462581 h -0.07 q -0.60183,-0.468866 -1.24565,-0.720794 -0.63681,-0.251928 -1.24564,-0.251928 -1.11968,0 -1.77049,0.755784 -0.64382,0.748786 -0.64382,2.20437 0,1.413595 0.62982,2.176377 0.63682,0.755784 1.78449,0.755784 0.39889,0 0.81177,-0.10497 0.41288,-0.10497 0.74179,-0.272922 0.28691,-0.146958 0.53884,-0.307912 0.25193,-0.167952 0.39889,-0.286918 h 0.07 z" />
      <path
         id="path1681"
         style="stroke-width:1"
         d="m 847.51267,38.157079 -1.97343,4.583689 h -1.02171 l 1.21765,-4.583689 z" />
      <path
         id="path1683"
         style="stroke-width:1"
         d="m 861.90756,36.183644 q 0,0.979719 -0.27992,1.763495 -0.27293,0.783776 -0.74179,1.315624 -0.49686,0.552841 -1.09169,0.832761 -0.59483,0.272922 -1.30863,0.272922 -0.6648,0 -1.16166,-0.160954 -0.49686,-0.153956 -0.97972,-0.41988 l -0.084,0.363896 h -1.23165 V 29.262624 h 1.31563 v 3.890886 q 0.55284,-0.454869 1.17566,-0.741787 0.62282,-0.293916 1.3996,-0.293916 1.3856,0 2.18338,1.063695 0.80477,1.063696 0.80477,3.002142 z m -1.35762,0.03499 q 0,-1.3996 -0.46186,-2.120394 -0.46187,-0.727792 -1.49058,-0.727792 -0.57383,0 -1.16166,0.251928 -0.58784,0.24493 -1.09169,0.636818 v 4.478719 q 0.55984,0.251928 0.95872,0.3499 0.40589,0.09797 0.91674,0.09797 1.09169,0 1.70751,-0.713796 0.62282,-0.720794 0.62282,-2.253355 z" />
      <path
         id="path1685"
         style="stroke-width:1"
         d="m 865.37156,31.026119 h -1.48357 V 29.66151 h 1.48357 z m -0.084,9.125389 h -1.31563 v -7.816763 h 1.31563 z" />
      <path
         id="path1687"
         style="stroke-width:1"
         d="m 873.9791,40.151508 h -1.30863 v -0.832761 q -0.17495,0.118966 -0.47586,0.335903 -0.29392,0.20994 -0.57384,0.335904 -0.3289,0.160954 -0.75578,0.265924 -0.42688,0.111968 -1.00071,0.111968 -1.0567,0 -1.79149,-0.6998 -0.73479,-0.699799 -0.73479,-1.784489 0,-0.888746 0.37789,-1.43459 0.38489,-0.552841 1.09169,-0.867751 0.71379,-0.31491 1.71451,-0.426878 1.00071,-0.111968 2.14838,-0.167952 v -0.202942 q 0,-0.447872 -0.16095,-0.741788 -0.15396,-0.293916 -0.44787,-0.461868 -0.27992,-0.160954 -0.67181,-0.216938 -0.39189,-0.05598 -0.81877,-0.05598 -0.51785,0 -1.15467,0.13996 -0.63681,0.132962 -1.31562,0.391888 h -0.07 v -1.336617 q 0.38489,-0.10497 1.11268,-0.230934 0.72779,-0.125964 1.43459,-0.125964 0.82577,0 1.43459,0.13996 0.61582,0.132962 1.0637,0.461868 0.44087,0.321907 0.6718,0.832761 0.23094,0.510854 0.23094,1.266638 z m -1.30863,-1.924449 v -2.176377 q -0.60183,0.03499 -1.42059,0.10497 -0.81177,0.06998 -1.28763,0.202941 -0.56684,0.160954 -0.91674,0.503856 -0.3499,0.335904 -0.3499,0.930734 0,0.671808 0.40588,1.01471 0.40589,0.335904 1.23865,0.335904 0.6928,0 1.26664,-0.265924 0.57383,-0.272922 1.06369,-0.650814 z" />
      <path
         id="path1689"
         style="stroke-width:1"
         d="m 882.11077,37.898153 q 0,1.070694 -0.88875,1.756497 -0.88175,0.685804 -2.41431,0.685804 -0.86775,0 -1.59554,-0.202942 -0.7208,-0.20994 -1.21066,-0.45487 v -1.476577 h 0.07 q 0.62283,0.468866 1.38561,0.748786 0.76278,0.272922 1.46258,0.272922 0.86775,0 1.35761,-0.27992 0.48986,-0.27992 0.48986,-0.881748 0,-0.461868 -0.26592,-0.6998 -0.26593,-0.237932 -1.02171,-0.405884 -0.27992,-0.06298 -0.73479,-0.146958 -0.44787,-0.08398 -0.81877,-0.181948 -1.0287,-0.272922 -1.46258,-0.797771 -0.42688,-0.531848 -0.42688,-1.301628 0,-0.482862 0.19595,-0.90974 0.20294,-0.426878 0.60882,-0.762781 0.39189,-0.328906 0.99372,-0.517852 0.60883,-0.195944 1.35761,-0.195944 0.6998,0 1.4136,0.17495 0.72079,0.167952 1.19666,0.412882 v 1.406597 h -0.07 q -0.50386,-0.370894 -1.22465,-0.622822 -0.7208,-0.258926 -1.4136,-0.258926 -0.72079,0 -1.21765,0.27992 -0.49686,0.272922 -0.49686,0.818766 0,0.482862 0.30091,0.727792 0.29392,0.24493 0.95173,0.398886 0.3639,0.08398 0.81177,0.167952 0.45487,0.08398 0.75578,0.153956 0.91674,0.20994 1.4136,0.720793 0.49686,0.517852 0.49686,1.371608 z" />
      <path
         id="path1691"
         style="stroke-width:1"
         d="m 886.72945,38.157079 -1.97344,4.583689 h -1.02171 l 1.21765,-4.583689 z" />
      <path
         id="path1693"
         style="stroke-width:1"
         d="m 901.78214,30.963137 h -3.72293 v 9.188371 h -1.38561 v -9.188371 h -3.72293 v -1.231648 h 8.83147 z" />
      <path
         id="path1695"
         style="stroke-width:1"
         d="m 907.48551,40.151508 h -1.30862 v -0.832761 q -0.17495,0.118966 -0.47586,0.335903 -0.29392,0.20994 -0.57384,0.335904 -0.32891,0.160954 -0.75578,0.265924 -0.42688,0.111968 -1.00072,0.111968 -1.0567,0 -1.79149,-0.6998 -0.73479,-0.699799 -0.73479,-1.784489 0,-0.888746 0.3779,-1.43459 0.38489,-0.552841 1.09168,-0.867751 0.7138,-0.31491 1.71451,-0.426878 1.00072,-0.111968 2.14839,-0.167952 v -0.202942 q 0,-0.447872 -0.16095,-0.741788 -0.15396,-0.293916 -0.44788,-0.461868 -0.27992,-0.160954 -0.6718,-0.216938 -0.39189,-0.05598 -0.81877,-0.05598 -0.51785,0 -1.15467,0.13996 -0.63682,0.132962 -1.31562,0.391888 h -0.07 v -1.336617 q 0.38489,-0.10497 1.11268,-0.230934 0.72779,-0.125964 1.43459,-0.125964 0.82576,0 1.43459,0.13996 0.61582,0.132962 1.06369,0.461868 0.44088,0.321907 0.67181,0.832761 0.23093,0.510854 0.23093,1.266638 z m -1.30862,-1.924449 v -2.176377 q -0.60183,0.03499 -1.42059,0.10497 -0.81177,0.06998 -1.28764,0.202941 -0.56683,0.160954 -0.91673,0.503856 -0.3499,0.335904 -0.3499,0.930734 0,0.671808 0.40588,1.01471 0.40588,0.335904 1.23865,0.335904 0.6928,0 1.26663,-0.265924 0.57384,-0.272922 1.0637,-0.650814 z" />
      <path
         id="path1697"
         style="stroke-width:1"
         d="m 916.51293,40.151508 h -1.31562 v -0.867751 q -0.66481,0.524849 -1.27363,0.804769 -0.60883,0.27992 -1.34362,0.27992 -1.23165,0 -1.91745,-0.748786 -0.68581,-0.755783 -0.68581,-2.211367 v -5.073548 h 1.31563 v 4.450726 q 0,0.59483 0.056,1.021708 0.056,0.41988 0.23793,0.720794 0.18895,0.307912 0.48986,0.447872 0.30092,0.13996 0.87475,0.13996 0.51086,0 1.11269,-0.265924 0.60882,-0.265924 1.13367,-0.678806 v -5.83633 h 1.31562 z" />
      <path
         id="path1699"
         style="stroke-width:1"
         d="m 922.8811,40.151508 h -4.11482 v -1.063695 h 1.36461 v -8.292628 h -1.36461 v -1.063696 h 4.11482 v 1.063696 h -1.3646 v 8.292628 h 1.3646 z" />
      <path
         id="path1701"
         style="stroke-width:1"
         d="m 927.87768,38.157079 -1.97343,4.583689 h -1.02171 l 1.21765,-4.583689 z" />
      <path
         id="path1703"
         style="stroke-width:1"
         d="m 941.4678,40.151508 h -1.30863 v -0.832761 q -0.17495,0.118966 -0.47586,0.335903 -0.29392,0.20994 -0.57384,0.335904 -0.3289,0.160954 -0.75578,0.265924 -0.42688,0.111968 -1.00071,0.111968 -1.0567,0 -1.79149,-0.6998 -0.73479,-0.699799 -0.73479,-1.784489 0,-0.888746 0.37789,-1.43459 0.38489,-0.552841 1.09169,-0.867751 0.71379,-0.31491 1.71451,-0.426878 1.00071,-0.111968 2.14838,-0.167952 v -0.202942 q 0,-0.447872 -0.16095,-0.741788 -0.15396,-0.293916 -0.44787,-0.461868 -0.27992,-0.160954 -0.67181,-0.216938 -0.39189,-0.05598 -0.81877,-0.05598 -0.51785,0 -1.15467,0.13996 -0.63681,0.132962 -1.31562,0.391888 h -0.07 v -1.336617 q 0.38489,-0.10497 1.11268,-0.230934 0.72779,-0.125964 1.43459,-0.125964 0.82577,0 1.43459,0.13996 0.61583,0.132962 1.0637,0.461868 0.44087,0.321907 0.67181,0.832761 0.23093,0.510854 0.23093,1.266638 z m -1.30863,-1.924449 v -2.176377 q -0.60182,0.03499 -1.42059,0.10497 -0.81177,0.06998 -1.28763,0.202941 -0.56684,0.160954 -0.91674,0.503856 -0.3499,0.335904 -0.3499,0.930734 0,0.671808 0.40588,1.01471 0.40589,0.335904 1.23865,0.335904 0.6928,0 1.26664,-0.265924 0.57383,-0.272922 1.06369,-0.650814 z" />
      <path
         id="path1705"
         style="stroke-width:1"
         d="m 950.4952,40.151508 h -1.31562 v -0.867751 q -0.66481,0.524849 -1.27364,0.804769 -0.60882,0.27992 -1.34361,0.27992 -1.23165,0 -1.91745,-0.748786 -0.68581,-0.755783 -0.68581,-2.211367 v -5.073548 h 1.31563 v 4.450726 q 0,0.59483 0.056,1.021708 0.056,0.41988 0.23793,0.720794 0.18895,0.307912 0.48986,0.447872 0.30092,0.13996 0.87475,0.13996 0.51086,0 1.11268,-0.265924 0.60883,-0.265924 1.13368,-0.678806 v -5.83633 h 1.31562 z" />
      <path
         id="path1707"
         style="stroke-width:1"
         d="m 957.14331,40.081528 q -0.37089,0.09797 -0.81177,0.160954 -0.43387,0.06298 -0.77678,0.06298 -1.19665,0 -1.81948,-0.643816 -0.62282,-0.643815 -0.62282,-2.064409 v -4.156811 h -0.88874 v -1.105683 h 0.88874 v -2.246358 h 1.31563 v 2.246358 h 2.71522 v 1.105683 h -2.71522 v 3.561981 q 0,0.615824 0.028,0.965724 0.028,0.342902 0.19594,0.643816 0.15396,0.27992 0.41988,0.412882 0.27292,0.125964 0.82577,0.125964 0.3219,0 0.6718,-0.09097 0.3499,-0.09797 0.50386,-0.160954 h 0.07 z" />
      <path
         id="path1709"
         style="stroke-width:1"
         d="m 965.40095,36.246626 q 0,1.910453 -0.97972,3.016137 -0.97972,1.105683 -2.62425,1.105683 -1.65852,0 -2.63824,-1.105683 -0.97272,-1.105684 -0.97272,-3.016137 0,-1.910454 0.97272,-3.016138 0.97972,-1.112681 2.63824,-1.112681 1.64453,0 2.62425,1.112681 0.97972,1.105684 0.97972,3.016138 z m -1.35761,0 q 0,-1.518566 -0.59483,-2.253356 -0.59483,-0.741788 -1.65153,-0.741788 -1.07069,0 -1.66552,0.741788 -0.58783,0.73479 -0.58783,2.253356 0,1.469579 0.59483,2.232361 0.59483,0.755784 1.65852,0.755784 1.0497,0 1.64453,-0.748786 0.60183,-0.755784 0.60183,-2.239359 z" />
      <path
         id="path1711"
         style="stroke-width:1"
         d="m 971.39123,36.148654 q 0,2.106397 -0.6858,3.785916 -0.6858,1.67952 -1.92445,3.100113 h -1.60254 v -0.06998 q 0.53885,-0.482861 1.07769,-1.182661 0.54585,-0.692802 0.95873,-1.553556 0.43387,-0.895743 0.6858,-1.889459 0.25893,-0.993716 0.25893,-2.190373 0,-1.147672 -0.25893,-2.183376 -0.25892,-1.035703 -0.6858,-1.896457 -0.44088,-0.888746 -0.95873,-1.553556 -0.51085,-0.671808 -1.07769,-1.182661 v -0.06998 h 1.60254 q 1.23865,1.420593 1.92445,3.100113 0.6858,1.679519 0.6858,3.785917 z" />
      <path
         id="path1713"
         style="stroke-width:1"
         d="m 985.49919,42.894723 h -1.0497 q -1.25264,0 -2.03642,-0.699799 -0.77677,-0.692802 -0.77677,-2.008426 v -1.042701 q 0,-1.182662 -0.58084,-1.847472 -0.58083,-0.671808 -1.77749,-0.671808 h -0.3569 V 35.53283 h 0.3569 q 1.19666,0 1.77749,-0.66481 0.58084,-0.671808 0.58084,-1.854469 v -1.042702 q 0,-1.315624 0.77677,-2.008426 0.78378,-0.699799 2.03642,-0.699799 h 1.0497 v 0.965723 h -0.79777 q -0.95173,0 -1.38561,0.440874 -0.42687,0.440874 -0.42687,1.420594 v 1.224649 q 0,0.972722 -0.53885,1.637532 -0.53884,0.657812 -1.49757,1.042702 v 0.167952 q 0.95873,0.384889 1.49757,1.049699 0.53885,0.657812 0.53885,1.630534 v 1.224649 q 0,0.97972 0.42687,1.420594 0.43388,0.440874 1.38561,0.440874 h 0.79777 z" />
      <path
         id="path1715"
         style="stroke-width:1"
         d="m 753.29163,48.940994 h -1.48358 v -1.36461 h 1.48358 z m -0.084,9.125389 h -1.31562 v -7.816764 h 1.31562 z" />
      <path
         id="path1717"
         style="stroke-width:1"
         d="m 760.0307,48.451134 h -0.07 q -0.21694,-0.06298 -0.56684,-0.125964 -0.3499,-0.06998 -0.61582,-0.06998 -0.84676,0 -1.23165,0.377892 -0.37789,0.370894 -0.37789,1.350613 v 0.265924 h 2.37232 v 1.105684 h -2.33033 v 6.71108 h -1.31563 v -6.71108 h -0.88874 v -1.105684 h 0.88874 v -0.258926 q 0,-1.392601 0.69281,-2.134389 0.6928,-0.748786 2.00142,-0.748786 0.44088,0 0.79078,0.04199 0.35689,0.04199 0.65081,0.09797 z" />
      <path
         id="path1719"
         style="stroke-width:1"
         d="m 770.08682,60.949558 h -1.60254 q -1.23864,-1.420594 -1.92445,-3.100113 -0.6858,-1.67952 -0.6858,-3.785917 0,-2.106397 0.6858,-3.785917 0.68581,-1.679519 1.92445,-3.100113 h 1.60254 v 0.06998 q -0.56683,0.510854 -1.08469,1.182662 -0.51085,0.66481 -0.95172,1.553555 -0.41988,0.860754 -0.68581,1.896458 -0.25892,1.035703 -0.25892,2.183375 0,1.196658 0.25192,2.190373 0.25893,0.993716 0.69281,1.88946 0.41988,0.860754 0.95872,1.553555 0.53885,0.6998 1.07769,1.182662 z" />
      <path
         id="path1721"
         style="stroke-width:1"
         d="m 783.53697,58.066383 h -1.30862 v -0.832762 q -0.17495,0.118966 -0.47586,0.335904 -0.29392,0.20994 -0.57384,0.335904 -0.32891,0.160954 -0.75578,0.265924 -0.42688,0.111968 -1.00072,0.111968 -1.0567,0 -1.79149,-0.6998 -0.73479,-0.6998 -0.73479,-1.784489 0,-0.888746 0.3779,-1.43459 0.38489,-0.552842 1.09168,-0.867752 0.7138,-0.31491 1.71451,-0.426878 1.00072,-0.111968 2.14839,-0.167952 v -0.202941 q 0,-0.447872 -0.16095,-0.741788 -0.15396,-0.293916 -0.44788,-0.461868 -0.27992,-0.160954 -0.6718,-0.216938 -0.39189,-0.05598 -0.81877,-0.05598 -0.51785,0 -1.15467,0.13996 -0.63682,0.132962 -1.31562,0.391888 h -0.07 v -1.336618 q 0.38489,-0.10497 1.11268,-0.230934 0.72779,-0.125964 1.43459,-0.125964 0.82576,0 1.43459,0.13996 0.61582,0.132962 1.06369,0.461868 0.44088,0.321908 0.67181,0.832762 0.23093,0.510854 0.23093,1.266637 z m -1.30862,-1.92445 v -2.176377 q -0.60183,0.03499 -1.42059,0.10497 -0.81177,0.06998 -1.28764,0.202942 -0.56683,0.160954 -0.91673,0.503856 -0.3499,0.335904 -0.3499,0.930734 0,0.671807 0.40588,1.014709 0.40588,0.335904 1.23865,0.335904 0.6928,0 1.26663,-0.265924 0.57384,-0.272922 1.0637,-0.650814 z" />
      <path
         id="path1723"
         style="stroke-width:1"
         d="m 792.56439,58.066383 h -1.31562 v -0.867752 q -0.66481,0.52485 -1.27364,0.80477 -0.60882,0.27992 -1.34361,0.27992 -1.23165,0 -1.91745,-0.748786 -0.68581,-0.755784 -0.68581,-2.211367 v -5.073549 h 1.31562 v 4.450727 q 0,0.59483 0.056,1.021708 0.056,0.419879 0.23793,0.720793 0.18895,0.307912 0.48986,0.447872 0.30091,0.13996 0.87475,0.13996 0.51085,0 1.11268,-0.265924 0.60883,-0.265924 1.13368,-0.678806 v -5.83633 h 1.31562 z" />
      <path
         id="path1725"
         style="stroke-width:1"
         d="m 799.21249,57.996403 q -0.37089,0.09797 -0.81177,0.160954 -0.43387,0.06298 -0.77677,0.06298 -1.19666,0 -1.81948,-0.643816 -0.62282,-0.643816 -0.62282,-2.064409 v -4.156811 h -0.88875 v -1.105684 h 0.88875 v -2.246357 h 1.31562 v 2.246357 h 2.71522 v 1.105684 h -2.71522 v 3.561981 q 0,0.615824 0.028,0.965724 0.028,0.342901 0.19595,0.643815 0.15395,0.27992 0.41988,0.412882 0.27292,0.125964 0.82576,0.125964 0.32191,0 0.67181,-0.09097 0.3499,-0.09797 0.50385,-0.160954 h 0.07 z" />
      <path
         id="path1727"
         style="stroke-width:1"
         d="m 807.47013,54.1615 q 0,1.910453 -0.97972,3.016137 -0.97972,1.105684 -2.62425,1.105684 -1.65853,0 -2.63825,-1.105684 -0.97272,-1.105684 -0.97272,-3.016137 0,-1.910453 0.97272,-3.016137 0.97972,-1.112682 2.63825,-1.112682 1.64453,0 2.62425,1.112682 0.97972,1.105684 0.97972,3.016137 z m -1.35761,0 q 0,-1.518565 -0.59483,-2.253355 -0.59483,-0.741788 -1.65153,-0.741788 -1.07069,0 -1.66552,0.741788 -0.58784,0.73479 -0.58784,2.253355 0,1.46958 0.59483,2.232361 0.59483,0.755784 1.65853,0.755784 1.0497,0 1.64453,-0.748786 0.60183,-0.755783 0.60183,-2.239359 z" />
      <path
         id="path1729"
         style="stroke-width:1"
         d="m 818.49897,54.063528 q 0,2.106397 -0.6858,3.785917 -0.68581,1.679519 -1.92445,3.100113 h -1.60255 v -0.06998 q 0.53885,-0.482862 1.0777,-1.182662 0.54584,-0.692801 0.95872,-1.553555 0.43388,-0.895744 0.68581,-1.88946 0.25892,-0.993715 0.25892,-2.190373 0,-1.147672 -0.25892,-2.183375 -0.25893,-1.035704 -0.68581,-1.896458 -0.44087,-0.888745 -0.95872,-1.553555 -0.51086,-0.671808 -1.0777,-1.182662 v -0.06998 h 1.60255 q 1.23864,1.420594 1.92445,3.100113 0.6858,1.67952 0.6858,3.785917 z" />
      <path
         id="path1731"
         style="stroke-width:1"
         d="m 832.60693,60.809598 h -1.0497 q -1.25264,0 -2.03641,-0.6998 -0.77678,-0.692802 -0.77678,-2.008425 v -1.042702 q 0,-1.182661 -0.58084,-1.847471 -0.58083,-0.671808 -1.77749,-0.671808 h -0.3569 v -1.091688 h 0.3569 q 1.19666,0 1.77749,-0.66481 0.58084,-0.671807 0.58084,-1.854469 v -1.042702 q 0,-1.315623 0.77678,-2.008425 0.78377,-0.6998 2.03641,-0.6998 h 1.0497 v 0.965724 h -0.79777 q -0.95173,0 -1.3856,0.440874 -0.42688,0.440874 -0.42688,1.420593 v 1.22465 q 0,0.972722 -0.53885,1.637531 -0.53884,0.657812 -1.49757,1.042702 v 0.167952 q 0.95873,0.38489 1.49757,1.0497 0.53885,0.657812 0.53885,1.630533 v 1.22465 q 0,0.97972 0.42688,1.420593 0.43387,0.440874 1.3856,0.440874 h 0.79777 z" />
      <path
         id="path1733"
         style="stroke-width:1"
         d="m 766.16095,66.366008 h -0.07 q -0.21694,-0.06298 -0.56684,-0.125964 -0.3499,-0.06998 -0.61582,-0.06998 -0.84676,0 -1.23165,0.377892 -0.37789,0.370894 -0.37789,1.350614 v 0.265924 h 2.37232 v 1.105683 h -2.33034 v 6.71108 h -1.31562 v -6.71108 h -0.88875 v -1.105683 h 0.88875 v -0.258926 q 0,-1.392602 0.6928,-2.134389 0.6928,-0.748786 2.00143,-0.748786 0.44087,0 0.79077,0.04199 0.3569,0.04199 0.65082,0.09797 z" />
      <path
         id="path1735"
         style="stroke-width:1"
         d="m 768.32333,75.981257 h -1.31562 V 65.092373 h 1.31562 z" />
      <path
         id="path1737"
         style="stroke-width:1"
         d="m 777.60267,72.076375 q 0,1.910453 -0.97972,3.016137 -0.97972,1.105683 -2.62425,1.105683 -1.65852,0 -2.63824,-1.105683 -0.97272,-1.105684 -0.97272,-3.016137 0,-1.910454 0.97272,-3.016137 0.97972,-1.112682 2.63824,-1.112682 1.64453,0 2.62425,1.112682 0.97972,1.105683 0.97972,3.016137 z m -1.35761,0 q 0,-1.518566 -0.59483,-2.253356 -0.59483,-0.741787 -1.65153,-0.741787 -1.07069,0 -1.66552,0.741787 -0.58783,0.73479 -0.58783,2.253356 0,1.469579 0.59483,2.232361 0.59483,0.755784 1.65852,0.755784 1.0497,0 1.64453,-0.748786 0.60183,-0.755784 0.60183,-2.239359 z" />
      <path
         id="path1739"
         style="stroke-width:1"
         d="m 785.72035,75.981257 h -1.30862 v -0.832761 q -0.17495,0.118966 -0.47587,0.335904 -0.29391,0.20994 -0.57383,0.335903 -0.32891,0.160954 -0.75579,0.265924 -0.42688,0.111968 -1.00071,0.111968 -1.0567,0 -1.79149,-0.699799 -0.73479,-0.6998 -0.73479,-1.78449 0,-0.888746 0.37789,-1.434589 0.38489,-0.552842 1.09169,-0.867752 0.7138,-0.31491 1.71451,-0.426878 1.00071,-0.111968 2.14839,-0.167952 v -0.202942 q 0,-0.447872 -0.16096,-0.741788 -0.15395,-0.293916 -0.44787,-0.461868 -0.27992,-0.160954 -0.67181,-0.216937 -0.39189,-0.05598 -0.81876,-0.05598 -0.51786,0 -1.15467,0.139959 -0.63682,0.132962 -1.31563,0.391888 h -0.07 v -1.336617 q 0.38489,-0.10497 1.11268,-0.230934 0.7278,-0.125964 1.43459,-0.125964 0.82577,0 1.43459,0.13996 0.61583,0.132962 1.0637,0.461868 0.44087,0.321908 0.67181,0.832761 0.23093,0.510854 0.23093,1.266638 z m -1.30862,-1.924449 v -2.176377 q -0.60183,0.03499 -1.4206,0.10497 -0.81177,0.06998 -1.28763,0.202942 -0.56684,0.160954 -0.91674,0.503855 -0.3499,0.335904 -0.3499,0.930734 0,0.671808 0.40589,1.01471 0.40588,0.335904 1.23864,0.335904 0.6928,0 1.26664,-0.265924 0.57384,-0.272922 1.0637,-0.650814 z" />
      <path
         id="path1741"
         style="stroke-width:1"
         d="m 792.32646,75.911277 q -0.37089,0.09797 -0.81177,0.160954 -0.43387,0.06298 -0.77678,0.06298 -1.19665,0 -1.81947,-0.643815 -0.62283,-0.643816 -0.62283,-2.06441 v -4.156811 h -0.88874 v -1.105683 h 0.88874 v -2.246358 h 1.31563 v 2.246358 h 2.71522 v 1.105683 h -2.71522 v 3.561981 q 0,0.615824 0.028,0.965724 0.028,0.342902 0.19594,0.643816 0.15396,0.27992 0.41988,0.412882 0.27292,0.125964 0.82577,0.125964 0.3219,0 0.6718,-0.09097 0.3499,-0.09797 0.50386,-0.160954 h 0.07 z" />
      <path
         id="path1743"
         style="stroke-width:1"
         d="m 805.50369,72.209337 h -5.75935 q 0,0.720793 0.21694,1.259639 0.21693,0.531848 0.59482,0.87475 0.3639,0.335904 0.86076,0.503856 0.50385,0.167952 1.10568,0.167952 0.79777,0 1.60254,-0.31491 0.81177,-0.321908 1.15467,-0.62982 h 0.07 v 1.43459 q -0.66481,0.279919 -1.35761,0.468865 -0.6928,0.188946 -1.45558,0.188946 -1.94545,0 -3.03713,-1.049699 -1.09169,-1.056698 -1.09169,-2.995143 0,-1.917452 1.0427,-3.044129 1.0497,-1.126678 2.75721,-1.126678 1.58155,0 2.43531,0.923736 0.86075,0.923735 0.86075,2.624249 z m -1.28063,-1.007712 q -0.007,-1.035704 -0.52485,-1.602542 -0.51086,-0.566837 -1.56056,-0.566837 -1.0567,0 -1.68652,0.622821 -0.62282,0.622822 -0.70679,1.546558 z" />
      <path
         id="path1745"
         style="stroke-width:1"
         d="m 812.37573,69.599083 h -0.07 q -0.29392,-0.06998 -0.57384,-0.09797 -0.27292,-0.03499 -0.65081,-0.03499 -0.60883,0 -1.17567,0.272922 -0.56684,0.265924 -1.09169,0.692802 v 5.549412 h -1.31562 v -7.816763 h 1.31562 v 1.154669 q 0.78378,-0.629819 1.37861,-0.888745 0.60183,-0.265924 1.22465,-0.265924 0.3429,0 0.49686,0.02099 0.15395,0.014 0.46187,0.06298 z" />
      <path
         id="path1747"
         style="stroke-width:1"
         d="m 818.50597,69.599083 h -0.07 q -0.29391,-0.06998 -0.57383,-0.09797 -0.27292,-0.03499 -0.65082,-0.03499 -0.60882,0 -1.17566,0.272922 -0.56684,0.265924 -1.09169,0.692802 v 5.549412 h -1.31562 v -7.816763 h 1.31562 v 1.154669 q 0.78378,-0.629819 1.37861,-0.888745 0.60183,-0.265924 1.22465,-0.265924 0.3429,0 0.49686,0.02099 0.15395,0.014 0.46186,0.06298 z" />
      <path
         id="path1749"
         style="stroke-width:1"
         d="m 833.51668,70.508823 h -8.29963 v -1.11968 h 8.29963 z m 0,2.939159 h -8.29963 v -1.119679 h 8.29963 z" />
      <path
         id="path1751"
         style="stroke-width:1"
         d="m 847.14878,73.727902 q 0,1.070694 -0.88875,1.756498 -0.88175,0.685803 -2.41431,0.685803 -0.86775,0 -1.59554,-0.202942 -0.7208,-0.209939 -1.21066,-0.454869 v -1.476578 h 0.07 q 0.62283,0.468866 1.38561,0.748786 0.76278,0.272922 1.46258,0.272922 0.86775,0 1.35761,-0.27992 0.48986,-0.27992 0.48986,-0.881748 0,-0.461868 -0.26592,-0.6998 -0.26593,-0.237932 -1.02171,-0.405884 -0.27992,-0.06298 -0.73479,-0.146958 -0.44787,-0.08398 -0.81877,-0.181947 -1.0287,-0.272922 -1.46258,-0.797772 -0.42688,-0.531848 -0.42688,-1.301628 0,-0.482862 0.19595,-0.90974 0.20294,-0.426877 0.60882,-0.762781 0.39189,-0.328906 0.99372,-0.517852 0.60883,-0.195944 1.35761,-0.195944 0.6998,0 1.4136,0.17495 0.72079,0.167952 1.19665,0.412882 v 1.406597 h -0.07 q -0.50385,-0.370894 -1.22464,-0.622822 -0.7208,-0.258925 -1.4136,-0.258925 -0.72079,0 -1.21765,0.279919 -0.49686,0.272922 -0.49686,0.818766 0,0.482862 0.30091,0.727792 0.29392,0.24493 0.95173,0.398886 0.3639,0.08398 0.81177,0.167952 0.45487,0.08398 0.75578,0.153956 0.91674,0.20994 1.4136,0.720794 0.49686,0.517851 0.49686,1.371607 z" />
      <path
         id="path1753"
         style="stroke-width:1"
         d="m 853.09707,75.911277 q -0.37089,0.09797 -0.81176,0.160954 -0.43388,0.06298 -0.77678,0.06298 -1.19666,0 -1.81948,-0.643815 -0.62282,-0.643816 -0.62282,-2.06441 v -4.156811 h -0.88875 v -1.105683 h 0.88875 v -2.246358 h 1.31562 v 2.246358 h 2.71522 v 1.105683 h -2.71522 v 3.561981 q 0,0.615824 0.028,0.965724 0.028,0.342902 0.19595,0.643816 0.15395,0.27992 0.41988,0.412882 0.27292,0.125964 0.82576,0.125964 0.32191,0 0.67181,-0.09097 0.3499,-0.09797 0.50385,-0.160954 h 0.07 z" />
      <path
         id="path1755"
         style="stroke-width:1"
         d="m 861.57165,71.978403 q 0,0.951727 -0.27292,1.742501 -0.27292,0.783776 -0.76978,1.32962 -0.46187,0.517852 -1.09169,0.804769 -0.62282,0.27992 -1.32262,0.27992 -0.60883,0 -1.10569,-0.132962 -0.48986,-0.132962 -1.00071,-0.412881 v 3.275063 h -1.31562 V 68.164494 h 1.31562 v 0.818766 q 0.52485,-0.440874 1.17566,-0.73479 0.65782,-0.300914 1.3996,-0.300914 1.4136,0 2.19738,1.070694 0.79077,1.063695 0.79077,2.960153 z m -1.35761,0.03499 q 0,-1.413596 -0.48286,-2.113396 -0.48287,-0.699799 -1.48358,-0.699799 -0.56684,0 -1.14067,0.244929 -0.57384,0.24493 -1.09869,0.643816 v 4.429733 q 0.55984,0.251928 0.95873,0.342902 0.40588,0.09097 0.91673,0.09097 1.09869,0 1.71451,-0.741788 0.61583,-0.741788 0.61583,-2.197371 z" />
      <path
         id="path1757"
         style="stroke-width:1"
         d="m 867.6809,75.911277 q -0.37089,0.09797 -0.81177,0.160954 -0.43387,0.06298 -0.77678,0.06298 -1.19665,0 -1.81948,-0.643815 -0.62282,-0.643816 -0.62282,-2.06441 v -4.156811 h -0.88874 v -1.105683 h 0.88874 v -2.246358 h 1.31563 v 2.246358 h 2.71522 v 1.105683 h -2.71522 v 3.561981 q 0,0.615824 0.028,0.965724 0.028,0.342902 0.19594,0.643816 0.15396,0.27992 0.41988,0.412882 0.27292,0.125964 0.82577,0.125964 0.3219,0 0.6718,-0.09097 0.3499,-0.09797 0.50386,-0.160954 h 0.07 z" />
      <path
         id="path1759"
         style="stroke-width:1"
         d="m 878.45781,72.055381 h -4.36675 v -1.266638 h 4.36675 z" />
      <path
         id="path1761"
         style="stroke-width:1"
         d="m 892.75473,71.978403 q 0,0.951727 -0.27292,1.742501 -0.27292,0.783776 -0.76978,1.32962 -0.46187,0.517852 -1.09169,0.804769 -0.62282,0.27992 -1.32262,0.27992 -0.60883,0 -1.10568,-0.132962 -0.48986,-0.132962 -1.00072,-0.412881 v 3.275063 H 885.8757 V 68.164494 h 1.31562 v 0.818766 q 0.52485,-0.440874 1.17567,-0.73479 0.65781,-0.300914 1.3996,-0.300914 1.41359,0 2.19737,1.070694 0.79077,1.063695 0.79077,2.960153 z m -1.35761,0.03499 q 0,-1.413596 -0.48286,-2.113396 -0.48286,-0.699799 -1.48358,-0.699799 -0.56684,0 -1.14067,0.244929 -0.57384,0.24493 -1.09869,0.643816 v 4.429733 q 0.55984,0.251928 0.95873,0.342902 0.40588,0.09097 0.91674,0.09097 1.09868,0 1.71451,-0.741788 0.61582,-0.741788 0.61582,-2.197371 z" />
      <path
         id="path1763"
         style="stroke-width:1"
         d="m 901.56521,68.164494 -3.1631,7.816763 h -1.32262 l -3.1421,-7.816763 h 1.42759 l 2.42131,6.22122 2.40031,-6.22122 z" />
      <path
         id="path1765"
         style="stroke-width:1"
         d="m 906.08591,70.158923 h -1.67252 v -1.994429 h 1.67252 z m 0.51085,3.827905 -1.97343,4.583689 h -1.02171 l 1.21765,-4.583689 z" />
      <path
         id="path1767"
         style="stroke-width:1"
         d="m 768.49828,90.124211 h -5.75935 q 0,0.720794 0.21693,1.25964 0.21694,0.531848 0.59483,0.874749 0.3639,0.335904 0.86076,0.503856 0.50385,0.167952 1.10568,0.167952 0.79777,0 1.60254,-0.31491 0.81177,-0.321908 1.15467,-0.629819 h 0.07 v 1.434589 q -0.66481,0.27992 -1.35761,0.468866 -0.6928,0.188946 -1.45558,0.188946 -1.94545,0 -3.03713,-1.0497 -1.09169,-1.056697 -1.09169,-2.995143 0,-1.917451 1.0427,-3.044129 1.0497,-1.126678 2.75721,-1.126678 1.58155,0 2.4353,0.923736 0.86076,0.923736 0.86076,2.624249 z m -1.28064,-1.007712 q -0.007,-1.035703 -0.52485,-1.602541 -0.51085,-0.566838 -1.56055,-0.566838 -1.0567,0 -1.68652,0.622822 -0.62282,0.622822 -0.70679,1.546557 z" />
      <path
         id="path1769"
         style="stroke-width:1"
         d="m 775.37031,87.513958 h -0.07 q -0.29391,-0.06998 -0.57383,-0.09797 -0.27293,-0.03499 -0.65082,-0.03499 -0.60882,0 -1.17566,0.272922 -0.56684,0.265924 -1.09169,0.692802 v 5.549412 h -1.31562 v -7.816764 h 1.31562 v 1.15467 q 0.78378,-0.62982 1.37861,-0.888746 0.60182,-0.265924 1.22465,-0.265924 0.3429,0 0.49685,0.02099 0.15396,0.014 0.46187,0.06298 z" />
      <path
         id="path1771"
         style="stroke-width:1"
         d="m 781.50056,87.513958 h -0.07 q -0.29392,-0.06998 -0.57384,-0.09797 -0.27292,-0.03499 -0.65081,-0.03499 -0.60883,0 -1.17567,0.272922 -0.56683,0.265924 -1.09168,0.692802 v 5.549412 h -1.31563 v -7.816764 h 1.31563 v 1.15467 q 0.78377,-0.62982 1.3786,-0.888746 0.60183,-0.265924 1.22465,-0.265924 0.3429,0 0.49686,0.02099 0.15396,0.014 0.46187,0.06298 z" />
      <path
         id="path1773"
         style="stroke-width:1"
         d="m 788.3376,91.642777 q 0,1.070693 -0.88874,1.756497 -0.88175,0.685804 -2.41431,0.685804 -0.86775,0 -1.59554,-0.202942 -0.7208,-0.20994 -1.21066,-0.45487 v -1.476577 h 0.07 q 0.62282,0.468865 1.38561,0.748785 0.76278,0.272922 1.46258,0.272922 0.86775,0 1.35761,-0.27992 0.48986,-0.27992 0.48986,-0.881747 0,-0.461868 -0.26593,-0.6998 -0.26592,-0.237932 -1.0217,-0.405884 -0.27992,-0.06298 -0.73479,-0.146958 -0.44787,-0.08398 -0.81877,-0.181948 -1.0287,-0.272922 -1.46258,-0.797772 -0.42688,-0.531848 -0.42688,-1.301627 0,-0.482862 0.19595,-0.90974 0.20294,-0.426878 0.60882,-0.762782 0.39189,-0.328906 0.99372,-0.517852 0.60882,-0.195944 1.35761,-0.195944 0.6998,0 1.41359,0.17495 0.7208,0.167952 1.19666,0.412882 v 1.406598 h -0.07 q -0.50385,-0.370894 -1.22465,-0.622822 -0.72079,-0.258926 -1.41359,-0.258926 -0.7208,0 -1.21765,0.27992 -0.49686,0.272922 -0.49686,0.818766 0,0.482862 0.30091,0.727792 0.29392,0.244929 0.95173,0.398885 0.3639,0.08398 0.81177,0.167952 0.45487,0.08398 0.75578,0.153956 0.91674,0.20994 1.4136,0.720794 0.49685,0.517852 0.49685,1.371608 z" />
      <path
         id="path1775"
         style="stroke-width:1"
         d="m 803.98512,88.423698 h -8.29962 v -1.11968 h 8.29962 z m 0,2.939159 h -8.29962 v -1.11968 h 8.29962 z" />
      <path
         id="path1777"
         style="stroke-width:1"
         d="m 818.57595,90.124211 h -5.75935 q 0,0.720794 0.21693,1.25964 0.21694,0.531848 0.59483,0.874749 0.3639,0.335904 0.86076,0.503856 0.50385,0.167952 1.10568,0.167952 0.79777,0 1.60254,-0.31491 0.81177,-0.321908 1.15467,-0.629819 h 0.07 v 1.434589 q -0.66481,0.27992 -1.35761,0.468866 -0.6928,0.188946 -1.45558,0.188946 -1.94545,0 -3.03713,-1.0497 -1.09169,-1.056697 -1.09169,-2.995143 0,-1.917451 1.0427,-3.044129 1.0497,-1.126678 2.75721,-1.126678 1.58155,0 2.4353,0.923736 0.86076,0.923736 0.86076,2.624249 z m -1.28064,-1.007712 q -0.007,-1.035703 -0.52485,-1.602541 -0.51085,-0.566838 -1.56055,-0.566838 -1.0567,0 -1.68652,0.622822 -0.62282,0.622822 -0.70679,1.546557 z" />
      <path
         id="path1779"
         style="stroke-width:1"
         d="m 825.44798,87.513958 h -0.07 q -0.29391,-0.06998 -0.57383,-0.09797 -0.27292,-0.03499 -0.65082,-0.03499 -0.60882,0 -1.17566,0.272922 -0.56684,0.265924 -1.09169,0.692802 v 5.549412 h -1.31562 v -7.816764 h 1.31562 v 1.15467 q 0.78378,-0.62982 1.37861,-0.888746 0.60183,-0.265924 1.22465,-0.265924 0.3429,0 0.49686,0.02099 0.15395,0.014 0.46186,0.06298 z" />
      <path
         id="path1781"
         style="stroke-width:1"
         d="m 831.57823,87.513958 h -0.07 q -0.29391,-0.06998 -0.57383,-0.09797 -0.27293,-0.03499 -0.65082,-0.03499 -0.60882,0 -1.17566,0.272922 -0.56684,0.265924 -1.09169,0.692802 v 5.549412 h -1.31562 v -7.816764 h 1.31562 v 1.15467 q 0.78378,-0.62982 1.37861,-0.888746 0.60182,-0.265924 1.22465,-0.265924 0.3429,0 0.49685,0.02099 0.15396,0.014 0.46187,0.06298 z" />
      <path
         id="path1783"
         style="stroke-width:1"
         d="m 838.41527,91.642777 q 0,1.070693 -0.88874,1.756497 -0.88175,0.685804 -2.41431,0.685804 -0.86776,0 -1.59555,-0.202942 -0.72079,-0.20994 -1.21065,-0.45487 v -1.476577 h 0.07 q 0.62282,0.468865 1.3856,0.748785 0.76278,0.272922 1.46258,0.272922 0.86776,0 1.35762,-0.27992 0.48986,-0.27992 0.48986,-0.881747 0,-0.461868 -0.26593,-0.6998 -0.26592,-0.237932 -1.02171,-0.405884 -0.27992,-0.06298 -0.73479,-0.146958 -0.44787,-0.08398 -0.81876,-0.181948 -1.02871,-0.272922 -1.46258,-0.797772 -0.42688,-0.531848 -0.42688,-1.301627 0,-0.482862 0.19594,-0.90974 0.20295,-0.426878 0.60883,-0.762782 0.39189,-0.328906 0.99371,-0.517852 0.60883,-0.195944 1.35762,-0.195944 0.6998,0 1.41359,0.17495 0.7208,0.167952 1.19666,0.412882 v 1.406598 h -0.07 q -0.50386,-0.370894 -1.22465,-0.622822 -0.72079,-0.258926 -1.4136,-0.258926 -0.72079,0 -1.21765,0.27992 -0.49686,0.272922 -0.49686,0.818766 0,0.482862 0.30092,0.727792 0.29391,0.244929 0.95173,0.398885 0.36389,0.08398 0.81176,0.167952 0.45487,0.08398 0.75579,0.153956 0.91674,0.20994 1.41359,0.720794 0.49686,0.517852 0.49686,1.371608 z" />
      <path
         id="path1785"
         style="stroke-width:1"
         d="m 854.30773,89.893277 h -3.81391 v 3.813909 h -1.16167 v -3.813909 h -3.81391 v -1.119679 h 3.81391 v -3.813909 h 1.16167 v 3.813909 h 3.81391 z" />
      <path
         id="path1787"
         style="stroke-width:1"
         d="m 868.65362,90.124211 h -5.75935 q 0,0.720794 0.21694,1.25964 0.21694,0.531848 0.59483,0.874749 0.36389,0.335904 0.86075,0.503856 0.50386,0.167952 1.10569,0.167952 0.79777,0 1.60254,-0.31491 0.81176,-0.321908 1.15467,-0.629819 h 0.07 v 1.434589 q -0.66481,0.27992 -1.35762,0.468866 -0.6928,0.188946 -1.45558,0.188946 -1.94544,0 -3.03713,-1.0497 -1.09169,-1.056697 -1.09169,-2.995143 0,-1.917451 1.0427,-3.044129 1.0497,-1.126678 2.75722,-1.126678 1.58154,0 2.4353,0.923736 0.86075,0.923736 0.86075,2.624249 z m -1.28063,-1.007712 q -0.007,-1.035703 -0.52485,-1.602541 -0.51086,-0.566838 -1.56055,-0.566838 -1.0567,0 -1.68652,0.622822 -0.62282,0.622822 -0.7068,1.546557 z" />
      <path
         id="path1789"
         style="stroke-width:1"
         d="m 875.52566,87.513958 h -0.07 q -0.29392,-0.06998 -0.57384,-0.09797 -0.27292,-0.03499 -0.65081,-0.03499 -0.60883,0 -1.17567,0.272922 -0.56683,0.265924 -1.09168,0.692802 v 5.549412 h -1.31563 v -7.816764 h 1.31563 v 1.15467 q 0.78377,-0.62982 1.3786,-0.888746 0.60183,-0.265924 1.22465,-0.265924 0.3429,0 0.49686,0.02099 0.15396,0.014 0.46187,0.06298 z" />
      <path
         id="path1791"
         style="stroke-width:1"
         d="m 881.65591,87.513958 h -0.07 q -0.29392,-0.06998 -0.57384,-0.09797 -0.27292,-0.03499 -0.65081,-0.03499 -0.60883,0 -1.17567,0.272922 -0.56683,0.265924 -1.09168,0.692802 v 5.549412 h -1.31563 v -7.816764 h 1.31563 v 1.15467 q 0.78377,-0.62982 1.3786,-0.888746 0.60183,-0.265924 1.22465,-0.265924 0.3429,0 0.49686,0.02099 0.15396,0.014 0.46187,0.06298 z" />
      <path
         id="path1793"
         style="stroke-width:1"
         d="m 885.70775,88.073798 h -1.67252 v -1.99443 h 1.67252 z m 0.51085,3.827905 -1.97343,4.583688 h -1.02171 l 1.21765,-4.583688 z" />
      <path
         id="path1795"
         style="stroke-width:1"
         d="m 766.16095,102.19576 h -0.07 q -0.21694,-0.063 -0.56684,-0.12597 -0.3499,-0.07 -0.61582,-0.07 -0.84676,0 -1.23165,0.3779 -0.37789,0.37089 -0.37789,1.35061 v 0.26592 h 2.37232 v 1.10569 h -2.33034 v 6.71108 h -1.31562 v -6.71108 h -0.88875 v -1.10569 h 0.88875 v -0.25892 q 0,-1.3926 0.6928,-2.13439 0.6928,-0.74879 2.00143,-0.74879 0.44087,0 0.79077,0.042 0.3569,0.042 0.65082,0.098 z" />
      <path
         id="path1797"
         style="stroke-width:1"
         d="m 768.32333,111.81101 h -1.31562 v -10.88889 h 1.31562 z" />
      <path
         id="path1799"
         style="stroke-width:1"
         d="m 777.60267,107.90612 q 0,1.91046 -0.97972,3.01614 -0.97972,1.10568 -2.62425,1.10568 -1.65852,0 -2.63824,-1.10568 -0.97272,-1.10568 -0.97272,-3.01614 0,-1.91045 0.97272,-3.01613 0.97972,-1.11269 2.63824,-1.11269 1.64453,0 2.62425,1.11269 0.97972,1.10568 0.97972,3.01613 z m -1.35761,0 q 0,-1.51856 -0.59483,-2.25335 -0.59483,-0.74179 -1.65153,-0.74179 -1.07069,0 -1.66552,0.74179 -0.58783,0.73479 -0.58783,2.25335 0,1.46958 0.59483,2.23237 0.59483,0.75578 1.65852,0.75578 1.0497,0 1.64453,-0.74879 0.60183,-0.75578 0.60183,-2.23936 z" />
      <path
         id="path1801"
         style="stroke-width:1"
         d="m 785.72035,111.81101 h -1.30862 v -0.83277 q -0.17495,0.11897 -0.47587,0.33591 -0.29391,0.20994 -0.57383,0.3359 -0.32891,0.16096 -0.75579,0.26593 -0.42688,0.11196 -1.00071,0.11196 -1.0567,0 -1.79149,-0.6998 -0.73479,-0.6998 -0.73479,-1.78448 0,-0.88875 0.37789,-1.43459 0.38489,-0.55285 1.09169,-0.86776 0.7138,-0.31491 1.71451,-0.42687 1.00071,-0.11197 2.14839,-0.16796 v -0.20294 q 0,-0.44787 -0.16096,-0.74179 -0.15395,-0.29391 -0.44787,-0.46186 -0.27992,-0.16096 -0.67181,-0.21694 -0.39189,-0.056 -0.81876,-0.056 -0.51786,0 -1.15467,0.13996 -0.63682,0.13297 -1.31563,0.39189 h -0.07 v -1.33662 q 0.38489,-0.10497 1.11268,-0.23093 0.7278,-0.12596 1.43459,-0.12596 0.82577,0 1.43459,0.13996 0.61583,0.13296 1.0637,0.46186 0.44087,0.32191 0.67181,0.83277 0.23093,0.51085 0.23093,1.26663 z m -1.30862,-1.92445 v -2.17638 q -0.60183,0.035 -1.4206,0.10497 -0.81177,0.07 -1.28763,0.20294 -0.56684,0.16096 -0.91674,0.50386 -0.3499,0.3359 -0.3499,0.93073 0,0.67181 0.40589,1.01471 0.40588,0.3359 1.23864,0.3359 0.6928,0 1.26664,-0.26592 0.57384,-0.27292 1.0637,-0.65081 z" />
      <path
         id="path1803"
         style="stroke-width:1"
         d="m 792.32646,111.74103 q -0.37089,0.098 -0.81177,0.16095 -0.43387,0.063 -0.77678,0.063 -1.19665,0 -1.81947,-0.64381 -0.62283,-0.64382 -0.62283,-2.06441 v -4.15681 h -0.88874 v -1.10569 h 0.88874 v -2.24635 h 1.31563 v 2.24635 h 2.71522 v 1.10569 h -2.71522 v 3.56198 q 0,0.61582 0.028,0.96572 0.028,0.3429 0.19594,0.64382 0.15396,0.27992 0.41988,0.41288 0.27292,0.12596 0.82577,0.12596 0.3219,0 0.6718,-0.091 0.3499,-0.098 0.50386,-0.16096 h 0.07 z" />
      <path
         id="path1805"
         style="stroke-width:1"
         d="m 805.30075,111.81101 h -1.31563 v -0.81877 q -0.56683,0.48986 -1.18266,0.76278 -0.61582,0.27292 -1.33662,0.27292 -1.3996,0 -2.22536,-1.07769 -0.81876,-1.07769 -0.81876,-2.98814 0,-0.99372 0.27992,-1.7705 0.28691,-0.77677 0.76978,-1.32262 0.47586,-0.53185 1.10568,-0.81177 0.63682,-0.27992 1.31562,-0.27992 0.61583,0 1.09169,0.13297 0.47586,0.12596 1.00071,0.39888 v -3.38703 h 1.31563 z m -1.31563,-1.92445 v -4.48572 q -0.53184,-0.23793 -0.95172,-0.32891 -0.41988,-0.091 -0.91674,-0.091 -1.10569,0 -1.72151,0.76978 -0.61582,0.76978 -0.61582,2.18338 0,1.3926 0.47586,2.12039 0.47586,0.72079 1.52556,0.72079 0.55984,0 1.13368,-0.24493 0.57384,-0.25192 1.07069,-0.64381 z" />
      <path
         id="path1807"
         style="stroke-width:1"
         d="m 819.29674,111.81101 h -1.31562 v -4.45073 q 0,-0.50386 -0.049,-0.97272 -0.042,-0.46887 -0.18894,-0.74879 -0.16096,-0.30091 -0.46187,-0.45487 -0.30092,-0.15395 -0.86775,-0.15395 -0.55285,0 -1.10569,0.27992 -0.55284,0.27292 -1.10568,0.6998 0.021,0.16095 0.035,0.37789 0.014,0.20994 0.014,0.41988 v 5.00357 h -1.31562 v -4.45073 q 0,-0.51785 -0.049,-0.97972 -0.042,-0.46887 -0.18895,-0.74879 -0.16095,-0.30091 -0.46187,-0.44787 -0.30091,-0.15395 -0.86775,-0.15395 -0.53885,0 -1.08469,0.26592 -0.53885,0.26592 -1.07769,0.67881 v 5.83633 H 807.89 v -7.81677 h 1.31563 v 0.86775 q 0.61582,-0.51085 1.22465,-0.79777 0.61582,-0.28692 1.30862,-0.28692 0.79778,0 1.35062,0.33591 0.55984,0.3359 0.83276,0.93073 0.79777,-0.67181 1.45558,-0.96572 0.65781,-0.30092 1.4066,-0.30092 1.28763,0 1.89646,0.78378 0.61582,0.77678 0.61582,2.17638 z" />
      <path
         id="path1809"
         style="stroke-width:1"
         d="m 828.45013,103.99424 -3.1631,7.81677 h -1.32262 l -3.1421,-7.81677 h 1.42759 l 2.42131,6.22122 2.40031,-6.22122 z" />
      <path
         id="path1811"
         style="stroke-width:1"
         d="m 843.92969,106.33857 h -8.29962 v -1.11968 h 8.29962 z m 0,2.93916 h -8.29962 v -1.11968 h 8.29962 z" />
      <path
         id="path1813"
         style="stroke-width:1"
         d="m 773.36189,147.64076 h -1.31563 v -4.45073 q 0,-0.50386 -0.049,-0.97272 -0.042,-0.46887 -0.18895,-0.74879 -0.16095,-0.30091 -0.46187,-0.45487 -0.30091,-0.15395 -0.86775,-0.15395 -0.55284,0 -1.10568,0.27992 -0.55284,0.27292 -1.10569,0.6998 0.021,0.16095 0.035,0.37789 0.014,0.20994 0.014,0.41988 v 5.00357 h -1.31562 v -4.45073 q 0,-0.51785 -0.049,-0.97972 -0.042,-0.46887 -0.18895,-0.74879 -0.16095,-0.30091 -0.46186,-0.44787 -0.30092,-0.15395 -0.86775,-0.15395 -0.53885,0 -1.08469,0.26592 -0.53885,0.26592 -1.0777,0.67881 v 5.83633 h -1.31562 v -7.81677 h 1.31562 v 0.86775 q 0.61583,-0.51085 1.22465,-0.79777 0.61583,-0.28692 1.30863,-0.28692 0.79777,0 1.35061,0.33591 0.55984,0.3359 0.83276,0.93073 0.79778,-0.67181 1.45559,-0.96572 0.65781,-0.30092 1.4066,-0.30092 1.28763,0 1.89645,0.78378 0.61583,0.77678 0.61583,2.17638 z" />
      <path
         id="path1815"
         style="stroke-width:1"
         d="m 782.51527,139.82399 -3.1631,7.81677 h -1.32262 l -3.1421,-7.81677 h 1.42759 l 2.42131,6.22122 2.40031,-6.22122 z" />
      <path
         id="path1817"
         style="stroke-width:1"
         d="m 797.99484,142.16832 h -8.29963 v -1.11968 h 8.29963 z m 0,2.93916 h -8.29963 v -1.11968 h 8.29963 z" />
      <path
         id="path1819"
         style="stroke-width:1"
         d="m 812.92157,143.67289 q 0,0.97972 -0.27992,1.7635 -0.27292,0.78377 -0.74179,1.31562 -0.49685,0.55284 -1.09168,0.83276 -0.59483,0.27292 -1.30863,0.27292 -0.66481,0 -1.16167,-0.16095 -0.49686,-0.15396 -0.97972,-0.41988 l -0.084,0.3639 h -1.23165 v -10.88889 h 1.31562 v 3.89089 q 0.55284,-0.45487 1.17567,-0.74179 0.62282,-0.29392 1.3996,-0.29392 1.3856,0 2.18337,1.0637 0.80477,1.0637 0.80477,3.00214 z m -1.35761,0.035 q 0,-1.3996 -0.46187,-2.12039 -0.46187,-0.72779 -1.49057,-0.72779 -0.57384,0 -1.16167,0.25192 -0.58783,0.24493 -1.09169,0.63682 v 4.47872 q 0.55984,0.25193 0.95873,0.3499 0.40588,0.098 0.91674,0.098 1.09168,0 1.70751,-0.71379 0.62282,-0.7208 0.62282,-2.25336 z" />
      <path
         id="path1821"
         style="stroke-width:1"
         d="M 816.38558,138.51537 H 814.902 v -1.36461 h 1.48358 z m -0.084,9.12539 h -1.31562 v -7.81677 h 1.31562 z" />
      <path
         id="path1823"
         style="stroke-width:1"
         d="m 824.99311,147.64076 h -1.30862 v -0.83277 q -0.17495,0.11897 -0.47587,0.33591 -0.29391,0.20994 -0.57383,0.3359 -0.32891,0.16096 -0.75579,0.26593 -0.42687,0.11196 -1.00071,0.11196 -1.0567,0 -1.79149,-0.6998 -0.73479,-0.6998 -0.73479,-1.78449 0,-0.88874 0.3779,-1.43459 0.38489,-0.55284 1.09168,-0.86775 0.7138,-0.31491 1.71451,-0.42687 1.00072,-0.11197 2.14839,-0.16796 v -0.20294 q 0,-0.44787 -0.16096,-0.74179 -0.15395,-0.29391 -0.44787,-0.46186 -0.27992,-0.16096 -0.67181,-0.21694 -0.39188,-0.056 -0.81876,-0.056 -0.51785,0 -1.15467,0.13996 -0.63682,0.13297 -1.31562,0.39189 h -0.07 v -1.33662 q 0.38489,-0.10497 1.11268,-0.23093 0.72779,-0.12596 1.43459,-0.12596 0.82576,0 1.43459,0.13996 0.61582,0.13296 1.06369,0.46186 0.44088,0.32191 0.67181,0.83277 0.23093,0.51085 0.23093,1.26663 z m -1.30862,-1.92445 v -2.17638 q -0.60183,0.035 -1.4206,0.10497 -0.81176,0.07 -1.28763,0.20294 -0.56684,0.16095 -0.91673,0.50386 -0.3499,0.3359 -0.3499,0.93073 0,0.67181 0.40588,1.01471 0.40588,0.3359 1.23864,0.3359 0.69281,0 1.26664,-0.26592 0.57384,-0.27292 1.0637,-0.65081 z" />
      <path
         id="path1825"
         style="stroke-width:1"
         d="m 833.12479,145.3874 q 0,1.07069 -0.88875,1.7565 -0.88174,0.6858 -2.41431,0.6858 -0.86775,0 -1.59554,-0.20294 -0.72079,-0.20994 -1.21065,-0.45487 v -1.47658 h 0.07 q 0.62282,0.46887 1.3856,0.74879 0.76278,0.27292 1.46258,0.27292 0.86775,0 1.35761,-0.27992 0.48986,-0.27992 0.48986,-0.88175 0,-0.46187 -0.26592,-0.6998 -0.26592,-0.23793 -1.02171,-0.40588 -0.27992,-0.063 -0.73479,-0.14696 -0.44787,-0.084 -0.81876,-0.18195 -1.02871,-0.27292 -1.46258,-0.79777 -0.42688,-0.53185 -0.42688,-1.30163 0,-0.48286 0.19594,-0.90974 0.20294,-0.42687 0.60883,-0.76278 0.39189,-0.3289 0.99371,-0.51785 0.60883,-0.19594 1.35761,-0.19594 0.6998,0 1.4136,0.17495 0.72079,0.16795 1.19666,0.41288 v 1.4066 h -0.07 q -0.50386,-0.3709 -1.22465,-0.62283 -0.7208,-0.25892 -1.4136,-0.25892 -0.72079,0 -1.21765,0.27992 -0.49686,0.27292 -0.49686,0.81876 0,0.48287 0.30092,0.7278 0.29391,0.24493 0.95173,0.39888 0.36389,0.084 0.81176,0.16795 0.45487,0.084 0.75579,0.15396 0.91673,0.20994 1.41359,0.72079 0.49686,0.51785 0.49686,1.37161 z" />
      <path
         id="path1827"
         style="stroke-width:1"
         d="m 849.01724,143.6379 h -3.81391 v 3.81391 h -1.16166 v -3.81391 h -3.81391 v -1.11968 h 3.81391 v -3.81391 h 1.16166 v 3.81391 h 3.81391 z" />
      <path
         id="path1829"
         style="stroke-width:1"
         d="m 863.16019,147.64076 h -1.31562 v -0.81877 q -0.56684,0.48986 -1.18266,0.76278 -0.61583,0.27292 -1.33662,0.27292 -1.3996,0 -2.22537,-1.07769 -0.81876,-1.07769 -0.81876,-2.98814 0,-0.99372 0.27992,-1.7705 0.28692,-0.77677 0.76978,-1.32262 0.47586,-0.53185 1.10568,-0.81177 0.63682,-0.27992 1.31563,-0.27992 0.61582,0 1.09168,0.13297 0.47587,0.12596 1.00072,0.39888 v -3.38703 h 1.31562 z m -1.31562,-1.92445 v -4.48572 q -0.53185,-0.23793 -0.95173,-0.32891 -0.41988,-0.091 -0.91674,-0.091 -1.10568,0 -1.72151,0.76978 -0.61582,0.76978 -0.61582,2.18337 0,1.39261 0.47586,2.1204 0.47587,0.72079 1.52557,0.72079 0.55984,0 1.13367,-0.24493 0.57384,-0.25193 1.0707,-0.64381 z" />
      <path
         id="path1831"
         style="stroke-width:1"
         d="m 877.15619,147.64076 h -1.31562 v -4.45073 q 0,-0.50386 -0.049,-0.97272 -0.042,-0.46887 -0.18894,-0.74879 -0.16096,-0.30091 -0.46187,-0.45487 -0.30091,-0.15395 -0.86775,-0.15395 -0.55284,0 -1.10569,0.27992 -0.55284,0.27292 -1.10568,0.6998 0.021,0.16095 0.035,0.37789 0.014,0.20994 0.014,0.41988 v 5.00357 h -1.31563 v -4.45073 q 0,-0.51785 -0.049,-0.97972 -0.042,-0.46887 -0.18895,-0.74879 -0.16095,-0.30091 -0.46187,-0.44787 -0.30091,-0.15395 -0.86775,-0.15395 -0.53884,0 -1.08469,0.26592 -0.53884,0.26592 -1.07769,0.67881 v 5.83633 h -1.31562 v -7.81677 h 1.31562 v 0.86775 q 0.61582,-0.51085 1.22465,-0.79777 0.61582,-0.28692 1.30862,-0.28692 0.79778,0 1.35062,0.33591 0.55984,0.3359 0.83276,0.93073 0.79777,-0.67181 1.45558,-0.96572 0.65782,-0.30092 1.4066,-0.30092 1.28763,0 1.89646,0.78378 0.61582,0.77678 0.61582,2.17638 z" />
      <path
         id="path1833"
         style="stroke-width:1"
         d="m 886.30958,139.82399 -3.1631,7.81677 h -1.32262 l -3.1421,-7.81677 h 1.42759 l 2.42131,6.22122 2.40031,-6.22122 z" />
      <path
         id="path1835"
         style="stroke-width:1"
         d="m 890.83028,141.81842 h -1.67252 v -1.99443 h 1.67252 z m 0.51085,3.82791 -1.97343,4.58368 h -1.02171 l 1.21765,-4.58368 z" />
      <path
         id="path1837"
         style="stroke-width:1"
         d="m 758.47015,162.02864 h -0.3569 q -1.19666,0 -1.77749,0.67181 -0.58084,0.66481 -0.58084,1.84747 v 1.0427 q 0,1.31562 -0.78377,2.00843 -0.77678,0.6998 -2.02942,0.6998 h -1.0497 v -0.96573 h 0.79777 q 0.95173,0 1.37861,-0.44087 0.43387,-0.44088 0.43387,-1.4206 V 164.247 q 0,-0.97272 0.53885,-1.63053 0.53884,-0.66481 1.49757,-1.0497 v -0.16795 q -0.95873,-0.38489 -1.49757,-1.0427 -0.53885,-0.66481 -0.53885,-1.63753 v -1.22465 q 0,-0.97972 -0.43387,-1.4206 -0.42688,-0.44087 -1.37861,-0.44087 h -0.79777 v -0.96572 h 1.0497 q 1.25264,0 2.02942,0.6998 0.78377,0.6928 0.78377,2.00842 v 1.0427 q 0,1.18266 0.58084,1.85447 0.58083,0.66481 1.77749,0.66481 h 0.3569 z" />
      <path
         id="path1839"
         style="stroke-width:1"
         d="m 772.55712,161.78371 h -5.75936 q 0,0.72079 0.21694,1.25964 0.21694,0.53185 0.59483,0.87475 0.3639,0.3359 0.86076,0.50385 0.50385,0.16796 1.10568,0.16796 0.79777,0 1.60254,-0.31491 0.81177,-0.32191 1.15467,-0.62982 h 0.07 v 1.43459 q -0.66481,0.27992 -1.35761,0.46886 -0.6928,0.18895 -1.45559,0.18895 -1.94544,0 -3.03713,-1.0497 -1.09168,-1.0567 -1.09168,-2.99514 0,-1.91746 1.0427,-3.04413 1.0497,-1.12668 2.75721,-1.12668 1.58155,0 2.4353,0.92373 0.86076,0.92374 0.86076,2.62425 z m -1.28064,-1.00771 q -0.007,-1.03571 -0.52485,-1.60254 -0.51085,-0.56684 -1.56055,-0.56684 -1.0567,0 -1.68652,0.62282 -0.62282,0.62282 -0.7068,1.54656 z" />
      <path
         id="path1841"
         style="stroke-width:1"
         d="m 775.88117,165.55563 h -1.31563 v -10.88888 h 1.31563 z" />
      <path
         id="path1843"
         style="stroke-width:1"
         d="m 784.08282,163.30227 q 0,1.0707 -0.88875,1.7565 -0.88174,0.68581 -2.4143,0.68581 -0.86776,0 -1.59555,-0.20295 -0.72079,-0.20994 -1.21065,-0.45487 v -1.47657 h 0.07 q 0.62282,0.46886 1.3856,0.74878 0.76278,0.27292 1.46258,0.27292 0.86776,0 1.35762,-0.27992 0.48986,-0.27992 0.48986,-0.88174 0,-0.46187 -0.26593,-0.6998 -0.26592,-0.23793 -1.02171,-0.40589 -0.27992,-0.063 -0.73479,-0.14695 -0.44787,-0.084 -0.81876,-0.18195 -1.02871,-0.27292 -1.46258,-0.79777 -0.42688,-0.53185 -0.42688,-1.30163 0,-0.48286 0.19594,-0.90974 0.20294,-0.42688 0.60883,-0.76278 0.39189,-0.32891 0.99371,-0.51786 0.60883,-0.19594 1.35762,-0.19594 0.6998,0 1.41359,0.17495 0.72079,0.16795 1.19666,0.41288 v 1.4066 h -0.07 q -0.50386,-0.37089 -1.22465,-0.62282 -0.72079,-0.25893 -1.4136,-0.25893 -0.72079,0 -1.21765,0.27992 -0.49686,0.27292 -0.49686,0.81877 0,0.48286 0.30092,0.72779 0.29391,0.24493 0.95173,0.39889 0.36389,0.084 0.81176,0.16795 0.45487,0.084 0.75579,0.15395 0.91673,0.20994 1.41359,0.7208 0.49686,0.51785 0.49686,1.3716 z" />
      <path
         id="path1845"
         style="stroke-width:1"
         d="m 792.51541,161.78371 h -5.75935 q 0,0.72079 0.21693,1.25964 0.21694,0.53185 0.59483,0.87475 0.3639,0.3359 0.86076,0.50385 0.50385,0.16796 1.10568,0.16796 0.79777,0 1.60254,-0.31491 0.81177,-0.32191 1.15467,-0.62982 h 0.07 v 1.43459 q -0.66481,0.27992 -1.35761,0.46886 -0.6928,0.18895 -1.45558,0.18895 -1.94545,0 -3.03713,-1.0497 -1.09169,-1.0567 -1.09169,-2.99514 0,-1.91746 1.0427,-3.04413 1.0497,-1.12668 2.75721,-1.12668 1.58155,0 2.4353,0.92373 0.86076,0.92374 0.86076,2.62425 z m -1.28064,-1.00771 q -0.007,-1.03571 -0.52485,-1.60254 -0.51085,-0.56684 -1.56055,-0.56684 -1.0567,0 -1.68652,0.62282 -0.62282,0.62282 -0.70679,1.54656 z" />
      <path
         id="path1847"
         style="stroke-width:1"
         d="m 806.04254,168.29885 h -1.0497 q -1.25264,0 -2.03642,-0.6998 -0.77678,-0.69281 -0.77678,-2.00843 v -1.0427 q 0,-1.18266 -0.58083,-1.84747 -0.58084,-0.67181 -1.77749,-0.67181 h -0.3569 v -1.09169 h 0.3569 q 1.19665,0 1.77749,-0.66481 0.58083,-0.67181 0.58083,-1.85447 v -1.0427 q 0,-1.31562 0.77678,-2.00842 0.78378,-0.6998 2.03642,-0.6998 h 1.0497 v 0.96572 h -0.79778 q -0.95172,0 -1.3856,0.44087 -0.42688,0.44088 -0.42688,1.4206 v 1.22465 q 0,0.97272 -0.53884,1.63753 -0.53885,0.65781 -1.49757,1.0427 v 0.16795 q 0.95872,0.38489 1.49757,1.0497 0.53884,0.65781 0.53884,1.63053 v 1.22465 q 0,0.97972 0.42688,1.4206 0.43388,0.44087 1.3856,0.44087 h 0.79778 z" />
      <path
         id="path1849"
         style="stroke-width:1"
         d="m 773.36189,183.4705 h -1.31563 v -4.45072 q 0,-0.50386 -0.049,-0.97272 -0.042,-0.46887 -0.18895,-0.74879 -0.16095,-0.30091 -0.46187,-0.45487 -0.30091,-0.15396 -0.86775,-0.15396 -0.55284,0 -1.10568,0.27992 -0.55284,0.27293 -1.10569,0.6998 0.021,0.16096 0.035,0.3779 0.014,0.20994 0.014,0.41988 v 5.00356 h -1.31562 v -4.45072 q 0,-0.51785 -0.049,-0.97972 -0.042,-0.46887 -0.18895,-0.74879 -0.16095,-0.30091 -0.46186,-0.44787 -0.30092,-0.15396 -0.86775,-0.15396 -0.53885,0 -1.08469,0.26593 -0.53885,0.26592 -1.0777,0.6788 v 5.83633 h -1.31562 v -7.81676 h 1.31562 v 0.86775 q 0.61583,-0.51085 1.22465,-0.79777 0.61583,-0.28692 1.30863,-0.28692 0.79777,0 1.35061,0.33591 0.55984,0.3359 0.83276,0.93073 0.79778,-0.67181 1.45559,-0.96572 0.65781,-0.30092 1.4066,-0.30092 1.28763,0 1.89645,0.78378 0.61583,0.77678 0.61583,2.17638 z" />
      <path
         id="path1851"
         style="stroke-width:1"
         d="m 782.51527,175.65374 -3.1631,7.81676 h -1.32262 l -3.1421,-7.81676 h 1.42759 l 2.42131,6.22122 2.40031,-6.22122 z" />
      <path
         id="path1853"
         style="stroke-width:1"
         d="m 797.99484,177.99807 h -8.29963 v -1.11968 h 8.29963 z m 0,2.93916 h -8.29963 v -1.11968 h 8.29963 z" />
      <path
         id="path1855"
         style="stroke-width:1"
         d="m 811.62694,181.21715 q 0,1.07069 -0.88874,1.7565 -0.88175,0.6858 -2.41431,0.6858 -0.86776,0 -1.59555,-0.20294 -0.72079,-0.20994 -1.21065,-0.45487 v -1.47658 h 0.07 q 0.62282,0.46887 1.3856,0.74879 0.76278,0.27292 1.46258,0.27292 0.86776,0 1.35762,-0.27992 0.48986,-0.27992 0.48986,-0.88175 0,-0.46187 -0.26593,-0.6998 -0.26592,-0.23793 -1.02171,-0.40588 -0.27992,-0.063 -0.73479,-0.14696 -0.44787,-0.084 -0.81876,-0.18195 -1.02871,-0.27292 -1.46258,-0.79777 -0.42688,-0.53185 -0.42688,-1.30163 0,-0.48286 0.19594,-0.90974 0.20295,-0.42688 0.60883,-0.76278 0.39189,-0.3289 0.99371,-0.51785 0.60883,-0.19594 1.35762,-0.19594 0.6998,0 1.41359,0.17495 0.7208,0.16795 1.19666,0.41288 v 1.40659 h -0.07 q -0.50386,-0.37089 -1.22465,-0.62282 -0.72079,-0.25892 -1.4136,-0.25892 -0.72079,0 -1.21765,0.27992 -0.49686,0.27292 -0.49686,0.81876 0,0.48286 0.30092,0.72779 0.29391,0.24493 0.95173,0.39889 0.36389,0.084 0.81176,0.16795 0.45487,0.084 0.75579,0.15396 0.91674,0.20994 1.41359,0.72079 0.49686,0.51785 0.49686,1.37161 z" />
      <path
         id="path1857"
         style="stroke-width:1"
         d="m 817.57524,183.40052 q -0.37089,0.098 -0.81177,0.16096 -0.43387,0.063 -0.77678,0.063 -1.19665,0 -1.81948,-0.64382 -0.62282,-0.64381 -0.62282,-2.0644 v -4.15682 h -0.88874 v -1.10568 h 0.88874 v -2.24636 h 1.31563 v 2.24636 h 2.71522 v 1.10568 h -2.71522 v 3.56199 q 0,0.61582 0.028,0.96572 0.028,0.3429 0.19594,0.64382 0.15396,0.27992 0.41988,0.41288 0.27292,0.12596 0.82577,0.12596 0.3219,0 0.6718,-0.091 0.3499,-0.098 0.50386,-0.16096 h 0.07 z" />
      <path
         id="path1859"
         style="stroke-width:1"
         d="m 826.04981,179.46765 q 0,0.95173 -0.27292,1.7425 -0.27292,0.78378 -0.76978,1.32962 -0.46187,0.51785 -1.09169,0.80477 -0.62282,0.27992 -1.32262,0.27992 -0.60882,0 -1.10568,-0.13296 -0.48986,-0.13296 -1.00071,-0.41288 v 3.27506 h -1.31563 v -10.69994 h 1.31563 v 0.81877 q 0.52485,-0.44088 1.17566,-0.73479 0.65781,-0.30092 1.3996,-0.30092 1.41359,0 2.19737,1.0707 0.79077,1.06369 0.79077,2.96015 z m -1.35761,0.035 q 0,-1.4136 -0.48286,-2.1134 -0.48286,-0.6998 -1.48358,-0.6998 -0.56683,0 -1.14067,0.24493 -0.57383,0.24493 -1.09868,0.64382 v 4.42973 q 0.55984,0.25193 0.95872,0.34291 0.40588,0.091 0.91674,0.091 1.09868,0 1.71451,-0.74179 0.61582,-0.74179 0.61582,-2.19737 z" />
      <path
         id="path1861"
         style="stroke-width:1"
         d="m 832.15906,183.40052 q -0.37089,0.098 -0.81176,0.16096 -0.43388,0.063 -0.77678,0.063 -1.19666,0 -1.81948,-0.64382 -0.62282,-0.64381 -0.62282,-2.0644 v -4.15682 h -0.88875 v -1.10568 h 0.88875 v -2.24636 h 1.31562 v 2.24636 h 2.71522 v 1.10568 h -2.71522 v 3.56199 q 0,0.61582 0.028,0.96572 0.028,0.3429 0.19595,0.64382 0.15395,0.27992 0.41988,0.41288 0.27292,0.12596 0.82576,0.12596 0.32191,0 0.67181,-0.091 0.3499,-0.098 0.50385,-0.16096 h 0.07 z" />
      <path
         id="path1863"
         style="stroke-width:1"
         d="m 836.5538,177.64817 h -1.67252 v -1.99443 h 1.67252 z m 0.51086,3.82791 -1.97344,4.58368 h -1.0217 l 1.21765,-4.58368 z" />
      <path
         id="path1865"
         style="stroke-width:1"
         d="m 768.49828,197.61346 h -5.75935 q 0,0.72079 0.21693,1.25964 0.21694,0.53185 0.59483,0.87475 0.3639,0.3359 0.86076,0.50385 0.50385,0.16796 1.10568,0.16796 0.79777,0 1.60254,-0.31491 0.81177,-0.32191 1.15467,-0.62982 h 0.07 v 1.43459 q -0.66481,0.27992 -1.35761,0.46886 -0.6928,0.18895 -1.45558,0.18895 -1.94545,0 -3.03713,-1.0497 -1.09169,-1.0567 -1.09169,-2.99515 0,-1.91745 1.0427,-3.04412 1.0497,-1.12668 2.75721,-1.12668 1.58155,0 2.4353,0.92373 0.86076,0.92374 0.86076,2.62425 z m -1.28064,-1.00771 q -0.007,-1.03571 -0.52485,-1.60254 -0.51085,-0.56684 -1.56055,-0.56684 -1.0567,0 -1.68652,0.62282 -0.62282,0.62282 -0.70679,1.54656 z" />
      <path
         id="path1867"
         style="stroke-width:1"
         d="m 775.37031,195.00321 h -0.07 q -0.29391,-0.07 -0.57383,-0.098 -0.27293,-0.035 -0.65082,-0.035 -0.60882,0 -1.17566,0.27293 -0.56684,0.26592 -1.09169,0.6928 v 5.54941 h -1.31562 v -7.81676 h 1.31562 v 1.15467 q 0.78378,-0.62982 1.37861,-0.88875 0.60182,-0.26592 1.22465,-0.26592 0.3429,0 0.49685,0.021 0.15396,0.014 0.46187,0.063 z" />
      <path
         id="path1869"
         style="stroke-width:1"
         d="m 781.50056,195.00321 h -0.07 q -0.29392,-0.07 -0.57384,-0.098 -0.27292,-0.035 -0.65081,-0.035 -0.60883,0 -1.17567,0.27293 -0.56683,0.26592 -1.09168,0.6928 v 5.54941 h -1.31563 v -7.81676 h 1.31563 v 1.15467 q 0.78377,-0.62982 1.3786,-0.88875 0.60183,-0.26592 1.22465,-0.26592 0.3429,0 0.49686,0.021 0.15396,0.014 0.46187,0.063 z" />
      <path
         id="path1871"
         style="stroke-width:1"
         d="m 788.3376,199.13202 q 0,1.0707 -0.88874,1.7565 -0.88175,0.68581 -2.41431,0.68581 -0.86775,0 -1.59554,-0.20295 -0.7208,-0.20994 -1.21066,-0.45487 v -1.47657 h 0.07 q 0.62282,0.46886 1.38561,0.74878 0.76278,0.27292 1.46258,0.27292 0.86775,0 1.35761,-0.27992 0.48986,-0.27992 0.48986,-0.88174 0,-0.46187 -0.26593,-0.6998 -0.26592,-0.23794 -1.0217,-0.40589 -0.27992,-0.063 -0.73479,-0.14696 -0.44787,-0.084 -0.81877,-0.18194 -1.0287,-0.27293 -1.46258,-0.79778 -0.42688,-0.53184 -0.42688,-1.30162 0,-0.48286 0.19595,-0.90974 0.20294,-0.42688 0.60882,-0.76278 0.39189,-0.32891 0.99372,-0.51786 0.60882,-0.19594 1.35761,-0.19594 0.6998,0 1.41359,0.17495 0.7208,0.16795 1.19666,0.41288 v 1.4066 h -0.07 q -0.50385,-0.37089 -1.22465,-0.62282 -0.72079,-0.25893 -1.41359,-0.25893 -0.7208,0 -1.21765,0.27992 -0.49686,0.27292 -0.49686,0.81877 0,0.48286 0.30091,0.72779 0.29392,0.24493 0.95173,0.39888 0.3639,0.084 0.81177,0.16796 0.45487,0.084 0.75578,0.15395 0.91674,0.20994 1.4136,0.7208 0.49685,0.51785 0.49685,1.3716 z" />
      <path
         id="path1873"
         style="stroke-width:1"
         d="m 803.98512,195.91294 h -8.29962 v -1.11967 h 8.29962 z m 0,2.93916 h -8.29962 v -1.11968 h 8.29962 z" />
      <path
         id="path1875"
         style="stroke-width:1"
         d="m 818.90485,196.17187 q 0,2.8062 -0.88174,4.12182 -0.87475,1.30863 -2.72223,1.30863 -1.87546,0 -2.74321,-1.32962 -0.86075,-1.32962 -0.86075,-4.08683 0,-2.77821 0.87475,-4.10083 0.87474,-1.32962 2.72921,-1.32962 1.87547,0 2.73622,1.35061 0.86775,1.34362 0.86775,4.06584 z m -1.84047,3.17709 q 0.24493,-0.56684 0.32891,-1.32962 0.091,-0.76978 0.091,-1.84747 0,-1.06369 -0.091,-1.84747 -0.084,-0.78378 -0.33591,-1.32962 -0.24493,-0.53885 -0.67181,-0.81177 -0.41988,-0.27292 -1.08469,-0.27292 -0.65781,0 -1.09168,0.27292 -0.42688,0.27292 -0.67881,0.82577 -0.23793,0.51785 -0.32891,1.35061 -0.084,0.83276 -0.084,1.82648 0,1.09168 0.077,1.82647 0.077,0.73479 0.3289,1.31563 0.23094,0.54584 0.65082,0.83276 0.42687,0.28692 1.12667,0.28692 0.65782,0 1.09169,-0.27292 0.43388,-0.27293 0.67181,-0.82577 z" />
      <path
         id="path1877"
         style="stroke-width:1"
         d="m 823.95742,195.56305 h -1.67253 v -1.99443 h 1.67253 z m 0.51085,3.8279 -1.97344,4.58369 h -1.0217 l 1.21765,-4.58369 z" />
      <path
         id="path1879"
         style="stroke-width:1"
         d="m 758.47015,215.77326 h -0.3569 q -1.19666,0 -1.77749,0.67181 -0.58084,0.66481 -0.58084,1.84747 v 1.0427 q 0,1.31563 -0.78377,2.00843 -0.77678,0.6998 -2.02942,0.6998 h -1.0497 v -0.96572 h 0.79777 q 0.95173,0 1.37861,-0.44088 0.43387,-0.44087 0.43387,-1.42059 v -1.22465 q 0,-0.97272 0.53885,-1.63054 0.53884,-0.66481 1.49757,-1.04969 v -0.16796 q -0.95873,-0.38489 -1.49757,-1.0427 -0.53885,-0.66481 -0.53885,-1.63753 v -1.22465 q 0,-0.97972 -0.43387,-1.42059 -0.42688,-0.44088 -1.37861,-0.44088 h -0.79777 v -0.96572 h 1.0497 q 1.25264,0 2.02942,0.6998 0.78377,0.6928 0.78377,2.00842 v 1.04271 q 0,1.18266 0.58084,1.85447 0.58083,0.66481 1.77749,0.66481 h 0.3569 z" />
      <path
         id="path1881"
         style="stroke-width:1"
         d="m 756.75564,230.83295 h -0.07 q -0.29392,-0.07 -0.57384,-0.098 -0.27292,-0.035 -0.65081,-0.035 -0.60883,0 -1.17567,0.27292 -0.56683,0.26593 -1.09168,0.69281 v 5.54941 h -1.31563 v -7.81677 h 1.31563 v 1.15467 q 0.78377,-0.62982 1.3786,-0.88874 0.60183,-0.26593 1.22465,-0.26593 0.3429,0 0.49686,0.021 0.15396,0.014 0.46187,0.063 z" />
      <path
         id="path1883"
         style="stroke-width:1"
         d="m 764.55141,233.44321 h -5.75935 q 0,0.72079 0.21693,1.25964 0.21694,0.53185 0.59483,0.87475 0.3639,0.3359 0.86076,0.50385 0.50385,0.16795 1.10568,0.16795 0.79777,0 1.60254,-0.31491 0.81177,-0.3219 1.15467,-0.62981 h 0.07 v 1.43458 q -0.66481,0.27992 -1.35761,0.46887 -0.6928,0.18895 -1.45558,0.18895 -1.94545,0 -3.03713,-1.0497 -1.09169,-1.0567 -1.09169,-2.99515 0,-1.91745 1.0427,-3.04413 1.0497,-1.12667 2.75721,-1.12667 1.58155,0 2.4353,0.92373 0.86076,0.92374 0.86076,2.62425 z m -1.28064,-1.00771 q -0.007,-1.03571 -0.52485,-1.60255 -0.51085,-0.56683 -1.56055,-0.56683 -1.0567,0 -1.68652,0.62282 -0.62282,0.62282 -0.70679,1.54656 z" />
      <path
         id="path1885"
         style="stroke-width:1"
         d="m 770.60468,237.14515 q -0.3709,0.098 -0.81177,0.16095 -0.43388,0.063 -0.77678,0.063 -1.19666,0 -1.81948,-0.64381 -0.62282,-0.64382 -0.62282,-2.06441 v -4.15681 h -0.88875 v -1.10569 h 0.88875 v -2.24635 h 1.31562 v 2.24635 h 2.71523 v 1.10569 h -2.71523 v 3.56198 q 0,0.61582 0.028,0.96572 0.028,0.3429 0.19595,0.64382 0.15395,0.27992 0.41988,0.41288 0.27292,0.12596 0.82576,0.12596 0.32191,0 0.67181,-0.091 0.3499,-0.098 0.50386,-0.16095 h 0.07 z" />
      <path
         id="path1887"
         style="stroke-width:1"
         d="m 778.68037,237.21513 h -1.31563 v -0.86775 q -0.66481,0.52485 -1.27363,0.80477 -0.60883,0.27992 -1.34362,0.27992 -1.23165,0 -1.91745,-0.74879 -0.6858,-0.75578 -0.6858,-2.21137 v -5.07355 h 1.31562 v 4.45073 q 0,0.59483 0.056,1.02171 0.056,0.41988 0.23794,0.72079 0.18894,0.30791 0.48986,0.44787 0.30091,0.13996 0.87474,0.13996 0.51086,0 1.11269,-0.26592 0.60882,-0.26592 1.13367,-0.6788 v -5.83634 h 1.31563 z" />
      <path
         id="path1889"
         style="stroke-width:1"
         d="m 786.14723,230.83295 h -0.07 q -0.29392,-0.07 -0.57384,-0.098 -0.27292,-0.035 -0.65081,-0.035 -0.60883,0 -1.17566,0.27292 -0.56684,0.26593 -1.09169,0.69281 v 5.54941 h -1.31563 v -7.81677 h 1.31563 v 1.15467 q 0.78377,-0.62982 1.3786,-0.88874 0.60183,-0.26593 1.22465,-0.26593 0.3429,0 0.49686,0.021 0.15396,0.014 0.46187,0.063 z" />
      <path
         id="path1891"
         style="stroke-width:1"
         d="m 793.936,237.21513 h -1.31562 v -4.45073 q 0,-0.53884 -0.063,-1.00771 -0.063,-0.47586 -0.23093,-0.74179 -0.17495,-0.29391 -0.50386,-0.43387 -0.3289,-0.14696 -0.85375,-0.14696 -0.53885,0 -1.12668,0.26592 -0.58783,0.26593 -1.12668,0.67881 v 5.83633 h -1.31562 v -7.81677 h 1.31562 v 0.86776 q 0.61583,-0.51086 1.27364,-0.79778 0.65781,-0.28691 1.35061,-0.28691 1.26664,0 1.93145,0.76278 0.66481,0.76278 0.66481,2.19737 z" />
      <path
         id="path1893"
         style="stroke-width:1"
         d="m 805.52468,239.95834 h -3.63896 v -13.6321 h 3.63896 v 1.00072 h -2.4213 v 11.63067 h 2.4213 z" />
      <path
         id="path1895"
         style="stroke-width:1"
         d="m 819.4367,237.21513 h -1.31562 v -4.45073 q 0,-0.50385 -0.049,-0.97272 -0.042,-0.46887 -0.18894,-0.74879 -0.16096,-0.30091 -0.46187,-0.45487 -0.30091,-0.15395 -0.86775,-0.15395 -0.55284,0 -1.10569,0.27992 -0.55284,0.27292 -1.10568,0.6998 0.021,0.16095 0.035,0.37789 0.014,0.20994 0.014,0.41988 v 5.00357 h -1.31563 v -4.45073 q 0,-0.51785 -0.049,-0.97972 -0.042,-0.46886 -0.18895,-0.74878 -0.16095,-0.30092 -0.46187,-0.44788 -0.30091,-0.15395 -0.86775,-0.15395 -0.53884,0 -1.08469,0.26592 -0.53884,0.26593 -1.07769,0.67881 v 5.83633 h -1.31562 v -7.81677 h 1.31562 v 0.86776 q 0.61582,-0.51086 1.22465,-0.79778 0.61582,-0.28691 1.30862,-0.28691 0.79778,0 1.35062,0.3359 0.55984,0.3359 0.83276,0.93073 0.79777,-0.6718 1.45558,-0.96572 0.65782,-0.30091 1.4066,-0.30091 1.28763,0 1.89646,0.78377 0.61582,0.77678 0.61582,2.17638 z" />
      <path
         id="path1897"
         style="stroke-width:1"
         d="m 828.59009,229.39836 -3.1631,7.81677 h -1.32262 l -3.1421,-7.81677 h 1.42759 l 2.42131,6.22122 2.40031,-6.22122 z" />
      <path
         id="path1899"
         style="stroke-width:1"
         d="m 831.78117,235.2207 -1.97343,4.58369 h -1.02171 l 1.21765,-4.58369 z" />
      <path
         id="path1901"
         style="stroke-width:1"
         d="m 845.84015,233.44321 h -5.75935 q 0,0.72079 0.21694,1.25964 0.21694,0.53185 0.59483,0.87475 0.36389,0.3359 0.86075,0.50385 0.50386,0.16795 1.10569,0.16795 0.79777,0 1.60254,-0.31491 0.81177,-0.3219 1.15467,-0.62981 h 0.07 v 1.43458 q -0.66481,0.27992 -1.35761,0.46887 -0.69281,0.18895 -1.45559,0.18895 -1.94544,0 -3.03713,-1.0497 -1.09169,-1.0567 -1.09169,-2.99515 0,-1.91745 1.04271,-3.04413 1.04969,-1.12667 2.75721,-1.12667 1.58154,0 2.4353,0.92373 0.86075,0.92374 0.86075,2.62425 z m -1.28063,-1.00771 q -0.007,-1.03571 -0.52485,-1.60255 -0.51085,-0.56683 -1.56055,-0.56683 -1.0567,0 -1.68652,0.62282 -0.62282,0.62282 -0.7068,1.54656 z" />
      <path
         id="path1903"
         style="stroke-width:1"
         d="m 852.71218,230.83295 h -0.07 q -0.29391,-0.07 -0.57383,-0.098 -0.27293,-0.035 -0.65082,-0.035 -0.60882,0 -1.17566,0.27292 -0.56684,0.26593 -1.09169,0.69281 v 5.54941 h -1.31562 v -7.81677 h 1.31562 v 1.15467 q 0.78378,-0.62982 1.37861,-0.88874 0.60182,-0.26593 1.22465,-0.26593 0.3429,0 0.49685,0.021 0.15396,0.014 0.46187,0.063 z" />
      <path
         id="path1905"
         style="stroke-width:1"
         d="m 858.84243,230.83295 h -0.07 q -0.29392,-0.07 -0.57384,-0.098 -0.27292,-0.035 -0.65081,-0.035 -0.60882,0 -1.17566,0.27292 -0.56684,0.26593 -1.09169,0.69281 v 5.54941 h -1.31562 v -7.81677 h 1.31562 v 1.15467 q 0.78378,-0.62982 1.37861,-0.88874 0.60182,-0.26593 1.22464,-0.26593 0.34291,0 0.49686,0.021 0.15396,0.014 0.46187,0.063 z" />
      <path
         id="path1907"
         style="stroke-width:1"
         d="m 865.67948,234.96177 q 0,1.0707 -0.88875,1.7565 -0.88175,0.6858 -2.41431,0.6858 -0.86775,0 -1.59554,-0.20294 -0.72079,-0.20994 -1.21065,-0.45487 v -1.47657 h 0.07 q 0.62282,0.46886 1.3856,0.74878 0.76278,0.27292 1.46258,0.27292 0.86775,0 1.35761,-0.27992 0.48986,-0.27992 0.48986,-0.88174 0,-0.46187 -0.26592,-0.6998 -0.26593,-0.23794 -1.02171,-0.40589 -0.27992,-0.063 -0.73479,-0.14696 -0.44787,-0.084 -0.81877,-0.18194 -1.0287,-0.27293 -1.46258,-0.79778 -0.42687,-0.53184 -0.42687,-1.30162 0,-0.48287 0.19594,-0.90974 0.20294,-0.42688 0.60883,-0.76279 0.39188,-0.3289 0.99371,-0.51785 0.60883,-0.19594 1.35761,-0.19594 0.6998,0 1.4136,0.17495 0.72079,0.16795 1.19666,0.41288 v 1.4066 h -0.07 q -0.50386,-0.3709 -1.22465,-0.62282 -0.7208,-0.25893 -1.4136,-0.25893 -0.72079,0 -1.21765,0.27992 -0.49686,0.27292 -0.49686,0.81877 0,0.48286 0.30091,0.72779 0.29392,0.24493 0.95173,0.39888 0.3639,0.084 0.81177,0.16796 0.45487,0.084 0.75578,0.15395 0.91674,0.20994 1.4136,0.7208 0.49686,0.51785 0.49686,1.3716 z" />
      <path
         id="path1909"
         style="stroke-width:1"
         d="m 871.10992,239.95834 h -3.63896 v -1.00071 h 2.42131 v -11.63067 h -2.42131 v -1.00072 h 3.63896 z" />
      <path
         id="path1911"
         style="stroke-width:1"
         d="m 876.89026,231.39279 h -1.67252 v -1.99443 h 1.67252 z m 0.51086,3.82791 -1.97344,4.58369 h -1.02171 l 1.21765,-4.58369 z" />
      <path
         id="path1913"
         style="stroke-width:1"
         d="m 748.39303,251.60301 h -0.3569 q -1.19666,0 -1.77749,0.67181 -0.58083,0.66481 -0.58083,1.84747 v 1.0427 q 0,1.31563 -0.78378,2.00843 -0.77678,0.6998 -2.02942,0.6998 h -1.0497 v -0.96573 h 0.79777 q 0.95173,0 1.37861,-0.44087 0.43388,-0.44087 0.43388,-1.42059 v -1.22465 q 0,-0.97272 0.53884,-1.63054 0.53885,-0.66481 1.49757,-1.0497 v -0.16795 q -0.95872,-0.38489 -1.49757,-1.0427 -0.53884,-0.66481 -0.53884,-1.63753 v -1.22465 q 0,-0.97972 -0.43388,-1.42059 -0.42688,-0.44088 -1.37861,-0.44088 h -0.79777 v -0.96572 h 1.0497 q 1.25264,0 2.02942,0.6998 0.78378,0.6928 0.78378,2.00842 v 1.04271 q 0,1.18266 0.58083,1.85446 0.58083,0.66481 1.77749,0.66481 h 0.3569 z" />
    </g>
    <text
       xml:space="preserve"
       style="font-style:normal;font-weight:normal;font-size:14.3319px;line-height:1.25;font-family:sans-serif;fill:#000000;fill-opacity:1;stroke:none;stroke-width:1;display:none;opacity:0;"
       x="740.50629"
       y="40.151508"
       id="functionTextOriginal"><tspan
         sodipodi:role="line"
         id="tspan1627"
         x="740.50629"
         y="40.151508"
         style="stroke-width:1">PI(pv, stpt, Kc, bias, TauI, auto) {</tspan><tspan
         sodipodi:role="line"
         x="740.50629"
         y="58.066437"
         id="tspan1629"
         style="stroke-width:1">  if ( auto ) {</tspan><tspan
         sodipodi:role="line"
         x="740.50629"
         y="75.981361"
         id="tspan1631"
         style="stroke-width:1">    float err = stpt - pv;</tspan><tspan
         sodipodi:role="line"
         x="740.50629"
         y="93.896286"
         id="tspan1633"
         style="stroke-width:1">    errs = errs + err;</tspan><tspan
         sodipodi:role="line"
         x="740.50629"
         y="111.81122"
         id="tspan1635"
         style="stroke-width:1">    float dmv =</tspan><tspan
         sodipodi:role="line"
         x="740.50629"
         y="129.72614"
         id="tspan1637"
         style="stroke-width:1">    </tspan><tspan
         sodipodi:role="line"
         x="740.50629"
         y="147.64107"
         id="tspan1639"
         style="stroke-width:1">    mv = bias + dmv;</tspan><tspan
         sodipodi:role="line"
         x="740.50629"
         y="165.55598"
         id="tspan1641"
         style="stroke-width:1">  } else {</tspan><tspan
         sodipodi:role="line"
         x="740.50629"
         y="183.47093"
         id="tspan1643"
         style="stroke-width:1">    mv = stpt;</tspan><tspan
         sodipodi:role="line"
         x="740.50629"
         y="201.38585"
         id="tspan1645"
         style="stroke-width:1">    errs = 0;</tspan><tspan
         sodipodi:role="line"
         x="740.50629"
         y="219.30078"
         id="tspan1647"
         style="stroke-width:1">  }</tspan><tspan
         sodipodi:role="line"
         x="740.50629"
         y="237.2157"
         id="tspan1649"
         style="stroke-width:1">  return [mv, errs];</tspan><tspan
         sodipodi:role="line"
         x="740.50629"
         y="255.13062"
         id="tspan1651"
         style="stroke-width:1">}</tspan></text>
    <rect
       id="CodeEntryArea"
       x="847.26355"
       y="99.488373"
       width="140.96001"
       height="36.290001"
       fill="#f2f2f2" />
    <g
       id="PC-text">
      <path
         id="path932"
         d="m461.72 90.723v-15.03h5.671a13.667 13.667 0 0 1 2.286 0.144 4.533 4.533 0 0 1 1.856 0.7 3.692 3.692 0 0 1 1.205 1.451 4.892 4.892 0 0 1-0.764 5.3q-1.221 1.329-4.409 1.328h-3.855v6.111zm1.99-7.885h3.885a4.128 4.128 0 0 0 2.739-0.718 2.558 2.558 0 0 0 0.81-2.02 2.718 2.718 0 0 0-0.477-1.615 2.237 2.237 0 0 0-1.257-0.887 8.542 8.542 0 0 0-1.855-0.133h-3.845z"
         transform="translate(-14.168,-14.173)" />
      <path
         id="path934"
         d="m486.45 85.45 1.989 0.5a6.689 6.689 0 0 1-2.25 3.737 6.2 6.2 0 0 1-3.975 1.287 7.132 7.132 0 0 1-3.953-0.989 6.176 6.176 0 0 1-2.317-2.866 10.231 10.231 0 0 1-0.795-4.03 8.871 8.871 0 0 1 0.9-4.1 6.146 6.146 0 0 1 2.547-2.649 7.46 7.46 0 0 1 3.645-0.908 6.167 6.167 0 0 1 3.794 1.149 5.966 5.966 0 0 1 2.143 3.23l-1.959 0.461a4.647 4.647 0 0 0-1.517-2.389 4.041 4.041 0 0 0-2.5-0.75 4.868 4.868 0 0 0-2.9 0.83 4.386 4.386 0 0 0-1.635 2.231 8.94 8.94 0 0 0-0.472 2.887 9.157 9.157 0 0 0 0.559 3.347 4.17 4.17 0 0 0 1.737 2.138 4.87 4.87 0 0 0 2.55 0.708 4.27 4.27 0 0 0 2.83-0.965 4.926 4.926 0 0 0 1.574-2.859z"
         transform="translate(-14.168,-14.173)" />
    </g>
    <g
       id="LC-text">
      <path
         id="path936"
         d="m468.69 289.97v-15.031h1.989v13.263h7.4v1.772z"
         transform="translate(-14.168,-14.173)" />
      <path
         id="path938"
         d="m491.19 284.7 1.989 0.5a6.7 6.7 0 0 1-2.25 3.738 6.2 6.2 0 0 1-3.975 1.287 7.138 7.138 0 0 1-3.952-0.99 6.172 6.172 0 0 1-2.318-2.866 10.231 10.231 0 0 1-0.8-4.03 8.867 8.867 0 0 1 0.9-4.1 6.152 6.152 0 0 1 2.55-2.656 7.449 7.449 0 0 1 3.645-0.907 6.163 6.163 0 0 1 3.795 1.148 5.97 5.97 0 0 1 2.142 3.23l-1.958 0.461a4.646 4.646 0 0 0-1.518-2.388 4.041 4.041 0 0 0-2.5-0.75 4.849 4.849 0 0 0-2.9 0.83 4.38 4.38 0 0 0-1.636 2.23 8.965 8.965 0 0 0-0.471 2.886 9.161 9.161 0 0 0 0.558 3.348 4.165 4.165 0 0 0 1.738 2.139 4.878 4.878 0 0 0 2.55 0.707 4.284 4.284 0 0 0 2.831-0.964 4.936 4.936 0 0 0 1.58-2.853z"
         transform="translate(-14.168,-14.173)" />
    </g>
    <g
       id="TC-text">
      <path
         id="path940"
         d="m245.37 286.66v-13.26h-4.95v-1.775h11.916v1.775h-4.974v13.26z"
         transform="translate(-14.168,-14.173)" />
      <path
         id="path942"
         d="m265.1 281.39 1.99 0.5a6.7 6.7 0 0 1-2.25 3.737 6.206 6.206 0 0 1-3.975 1.287 7.152 7.152 0 0 1-3.954-0.989 6.184 6.184 0 0 1-2.317-2.867 10.212 10.212 0 0 1-0.794-4.03 8.839 8.839 0 0 1 0.9-4.1 6.148 6.148 0 0 1 2.553-2.656 7.459 7.459 0 0 1 3.645-0.907 6.155 6.155 0 0 1 3.794 1.149 5.96 5.96 0 0 1 2.143 3.229l-1.958 0.462a4.645 4.645 0 0 0-1.518-2.389 4.041 4.041 0 0 0-2.5-0.75 4.849 4.849 0 0 0-2.9 0.83 4.38 4.38 0 0 0-1.636 2.23 8.995 8.995 0 0 0-0.472 2.887 9.162 9.162 0 0 0 0.559 3.348 4.167 4.167 0 0 0 1.738 2.138 4.888 4.888 0 0 0 2.55 0.708 4.285 4.285 0 0 0 2.831-0.965 4.934 4.934 0 0 0 1.569-2.859z"
         transform="translate(-14.168,-14.173)" />
    </g>
    <rect
       id="TerminalOutputWrapper"
       x="734.17999"
       y="275.75134"
       width="257.95001"
       height="127.22418"
       fill="#333333"
       stroke="#000000"
       stroke-miterlimit="3"
       stroke-width="2.25px" />
  </g>
</svg>
