<svg xmlns="http://www.w3.org/2000/svg" width="320" height="320" viewBox="0 0 320 320"><rect width="320" height="320" style="fill:#fff"/><path d="M68.44,84.72q0,9.06-1,12.88a2.17,2.17,0,0,1-2.27,1.88q-4.79,0-14.37-.55t-14.36-.55q-4.53,0-13.53.19t-13.53.2A1.43,1.43,0,0,1,7.8,97.15q0-7.05.48-21.29T8.77,54.5Q8.77,47,8.09,32T7.41,9.52C7.41,8.57,8,8.1,9,8.1c.77,0,2,.06,3.56.19s2.8.19,3.62.19,2-.06,3.62-.19,2.85-.19,3.63-.19c1,0,1.55.41,1.55,1.23q0,6.86-.52,20.64T24,50.68V60.91q-.07,6.86-.07,10.22,0,14.37,1.17,14.37,23.88,0,36.05-1.16c.38,0,1.38-.2,3-.46a16.46,16.46,0,0,1,3-.39C68,83.49,68.44,83.9,68.44,84.72Z"/><path d="M130.63,64c0,3.2-1.38,5.33-4.14,6.41q-2.77,1-40.06,3.82.84,5.7,6.28,9.71a18.43,18.43,0,0,0,11.13,3.82,30,30,0,0,0,18.77-6.61l2.07-1.68a1.18,1.18,0,0,1,.68.13c.11.09.91,1.59,2.43,4.5a40.52,40.52,0,0,1,2.26,4.69c0,.26-.35.76-1,1.49q-9.53,10.09-24.4,10.1t-24-9q-8.92-9-8.93-23.91a34.5,34.5,0,0,1,8.54-23.24Q89.28,34,102.35,34a26.36,26.36,0,0,1,20.32,8.94A30,30,0,0,1,130.63,64Zm-15.4-3.94A12.92,12.92,0,0,0,111,50.55a13.35,13.35,0,0,0-9.55-4.14A14.35,14.35,0,0,0,90.86,51.2a15.1,15.1,0,0,0-4.62,10.74c0,.91.77,1.36,2.33,1.36a163.14,163.14,0,0,0,22.91-1.94C114,61,115.23,60.58,115.23,60.07Z"/><path d="M202.6,40.2a7.22,7.22,0,0,1-.19,1.16,154.72,154.72,0,0,0-2.53,25.57q0,.64,1.62,29.05l.06.91c.05,1.25-.52,1.88-1.71,1.88a50.65,50.65,0,0,0-5.37.42,51,51,0,0,1-5.34.42q-1.23,0-1.88-4.53T186,90.55q-.39,0-3.49,2.52a38.51,38.51,0,0,1-7.12,4.73,22.56,22.56,0,0,1-10.23,2.59q-12.56,0-21.16-10A33.34,33.34,0,0,1,135.88,68q0-14.37,8.21-23.76,8.61-9.77,22.66-9.77A24.58,24.58,0,0,1,184,41.36q1.09,1.3,3.43,3.76a.53.53,0,0,0,.38.19q.39,0,1.11-4.08c.47-2.72,1.07-4.07,1.81-4.07a39.81,39.81,0,0,1,6.53,1Q202.6,39.28,202.6,40.2ZM186.1,67.25a20.71,20.71,0,0,0-4.73-13.66,15.7,15.7,0,0,0-12.75-6.14,16.29,16.29,0,0,0-12.94,6.08,20.44,20.44,0,0,0-5,13.72,20.11,20.11,0,0,0,5,13.59,16.38,16.38,0,0,0,12.94,6,15.87,15.87,0,0,0,12.69-6.15A20.43,20.43,0,0,0,186.1,67.25Z"/><path d="M250.17,38a79.86,79.86,0,0,1-1,12.94c-.13,1-.56,1.49-1.3,1.49-.9,0-2.27-.1-4.11-.29a41,41,0,0,0-4.17-.29q-8.16,0-10.42,4.59-1.37,2.79-1.36,11.59v7.12q0,3.61.29,11c.2,4.92.29,8.58.29,11,0,1.16-.49,1.75-1.49,1.75q-2,0-6.08-.07t-6.08-.06c-1,0-1.49-.54-1.49-1.62q0-5.25.16-15.79t.16-15.86q0-16-3-25.69a3.34,3.34,0,0,1-.13-.78,1.13,1.13,0,0,1,.84-1.1c1.59-.17,3.84-.43,6.73-.77,4.66-.87,6.81-1.3,6.47-1.3.69,0,1.14,1.27,1.36,3.82s.6,3.82,1.16,3.82a.61.61,0,0,0,.33-.13l5.3-3.37a24.67,24.67,0,0,1,6-2.59,22.75,22.75,0,0,1,6.47-.77Q250.18,36.64,250.17,38Z"/><path d="M314.3,97.47c0,1-.43,1.43-1.29,1.43-1.42,0-3.55,0-6.37-.07s-5-.06-6.38-.06c-.78,0-1.16-.63-1.16-1.88,0-2.11.06-5.33.19-9.64s.19-7.55.19-9.71c0-1.73,0-4.3-.06-7.73s-.06-6-.06-7.74q0-7.38-2.14-10.42Q294.63,48,287.64,48q-3.24,0-9,3.62-6.09,3.83-6.09,6.8V97.28q0,1.62-1.23,1.62-2.07,0-6.21-.07t-6.21-.06c-.91,0-1.36-.5-1.36-1.49q0-5.11.16-15.34t.16-15.4A104.9,104.9,0,0,0,255,41.1a3.16,3.16,0,0,1-.2-.84c0-.43.28-.73.85-.9l7.41-1.2c4.63-.76,7.06-1.13,7.28-1.13s.43.34.51,1a42.36,42.36,0,0,0,1.49,8.09q3.38-2.65,8.87-6.6a25.27,25.27,0,0,1,13.14-4.14q12.17,0,16.63,7.05,3.3,5.17,3.3,16.76,0,2-.1,6.15c-.06,2.76-.09,4.84-.09,6.22q0,4.34.13,12.94T314.3,97.47Z"/><path d="M77.83,190.68a4.07,4.07,0,0,1-1.22,2.18Q64.15,207.31,45.74,207.3q-19.17,0-30.68-14-10.74-13-10.74-32.59T15.25,128Q26.89,113.79,46,113.79q19.36,0,30,13.1a4.09,4.09,0,0,1,1,2.24c0,.72-1.13,2.87-3.39,6.42s-3.62,5.34-4.09,5.34-1.86-1-3.9-3.13a34.1,34.1,0,0,0-7.1-5.75,24.06,24.06,0,0,0-12.14-3.14q-12.66,0-19.69,9.66-6.26,8.63-6.26,21.73t6.2,21.92q7,9.91,19.62,9.91A25.24,25.24,0,0,0,58.33,189a36.17,36.17,0,0,0,7.8-5.82Q69.46,180,69.77,180T74,185.09Q77.83,190.18,77.83,190.68Z"/><path d="M140.59,203.21c0,1.58-.44,2.37-1.34,2.37-1.32,0-3.32,0-6-.07s-4.68-.06-6-.06c-1.07,0-1.6-.71-1.6-2.11q0-3.08.22-9.27t.22-9.33q0-2.94-.22-8.92c-.15-4-.22-7-.22-9q0-11.51-10.87-11.5-3.51,0-9.2,3.51-6.07,3.78-6.07,6.9v38q0,1.86-1.35,1.86c-1.32,0-3.3,0-5.94-.07s-4.63-.06-5.95-.06c-1,0-1.47-.58-1.47-1.73V172.85q0-7.54-.83-32.09-.12-7.6-1.08-22.5a7.13,7.13,0,0,1-.13-1c0-.72.25-1.17.77-1.34.72-.26,3.13-.38,7.22-.38a25.25,25.25,0,0,0,4-.48,24.85,24.85,0,0,1,3.89-.48c.56,0,.84.4.84,1.21q0,6-.48,18.06t-.48,18c0,1,.17,1.5.51,1.54q3.26-2.74,8.43-6.65a24.66,24.66,0,0,1,13.24-3.9q12,0,16.55,7.16,3.25,5.25,3.26,16.62,0,2-.1,6.1t-.09,6.11c0,2.72,0,6.8.13,12.21S140.59,200.53,140.59,203.21Z"/><path d="M207,171.12q0,4.74-4.09,6.33-2.74,1-39.56,3.77.83,5.63,6.2,9.59a18.12,18.12,0,0,0,11,3.77,29.64,29.64,0,0,0,18.54-6.52l2-1.66a1.12,1.12,0,0,1,.67.13q.17.12,2.4,4.44a39.67,39.67,0,0,1,2.24,4.63q0,.39-1,1.47-9.41,10-24.1,10t-23.65-8.85q-8.82-8.85-8.82-23.61a34,34,0,0,1,8.44-23q8.88-10.17,21.79-10.16a26.06,26.06,0,0,1,20.07,8.82A29.69,29.69,0,0,1,207,171.12Zm-15.21-3.9a12.78,12.78,0,0,0-4.18-9.39,13.18,13.18,0,0,0-9.43-4.09,14.16,14.16,0,0,0-10.45,4.73,14.89,14.89,0,0,0-4.57,10.61c0,.89.76,1.34,2.3,1.34a160.11,160.11,0,0,0,22.62-1.92C190.56,168.16,191.79,167.74,191.79,167.22Z"/><path d="M313.11,203.08c0,1.66-.49,2.5-1.47,2.5-.64,0-1.61-.07-2.91-.2s-2.29-.19-3-.19-1.81,0-3.26.13-2.54.13-3.26.13c-.9,0-1.34-1-1.34-3s.07-4.89.22-8.79.22-6.82.22-8.78q0-16.17-.13-18c-.34-4.39-1.23-7.41-2.68-9.08-1.66-1.78-4.62-2.68-8.88-2.68q-4,0-9.08,3.84c-3.49,2.68-5.31,5.32-5.43,7.92q-.25,5-.26,18.22,0,3.13.26,9.39t.25,9.4c0,1.15-.38,1.73-1.15,1.73s-1.88-.07-3.35-.2-2.59-.19-3.36-.19-1.68,0-3,.13-2.33.13-3,.13c-.85,0-1.28-.62-1.28-1.86q0-3.06.2-9.23c.12-4.11.19-7.19.19-9.24v-15.4q0-7.23-1.73-10.29-2.43-4.35-9.27-4.35-4,0-9.58,3.39-6.13,3.71-6.14,7.48v18.66c0,2.13,0,5.31.06,9.52s.07,7.38.07,9.46q0,1.86-1.47,1.86H217.68c-.85,0-1.28-.58-1.28-1.73q0-5.17.06-15.56t.07-15.57A111.26,111.26,0,0,0,214,149.26a6.19,6.19,0,0,1-.2-1.34c0-.55.2-.87.58-1q2.37-.26,6.9-1a63.69,63.69,0,0,1,6.33-1.4l.51-.07c.51,0,1,1.51,1.44,4.51s.84,4.51,1.18,4.51l3.2-2.82a37.61,37.61,0,0,1,7.54-5.17,23.39,23.39,0,0,1,10.87-2.82q14.7,0,18.72,12a32.74,32.74,0,0,1,9.85-8.44,24.9,24.9,0,0,1,12.4-3.58q11.82,0,16.36,6.91,3.25,5.11,3.26,16.17c0,1.4,0,3.58-.13,6.52s-.13,5.11-.13,6.52q0,4,.2,12.11T313.11,203.08Z"/><path d="M316.74,296.58a12.31,12.31,0,0,1-.51,2.94c-.39,1.62-.62,2.6-.7,2.94q-.19,2.31-.9,6.72a1.53,1.53,0,0,1-1.66,1.15,21.32,21.32,0,0,1-2.43-.26q-7.86-1.15-24.35-1.15-4.67,0-14.06.26t-14.07.25c-1.4,0-2.11-.62-2.11-1.85q0-7.15.8-21.51t.8-21.51q0-7.29-.76-27.16-.14-5.11-.71-15.28l-.06-.89c0-1,.51-1.47,1.66-1.47q4.47,0,13.42.25t13.43.26q4.28,0,12.81-.26t12.82-.25c2,0,3.09.61,3.26,1.85a98.41,98.41,0,0,1,1.34,10.48q0,1.47-1.41,1.47-5.43,0-16.46-.61t-16.58-.6c-3.5,0-5.7.47-6.62,1.4s-1.37,3.26-1.37,7v9.52a27.19,27.19,0,0,0,.19,4.54c.38,1.32,1.49,2,3.32,2,.51,0,1.24,0,2.18-.06h2.17q12.52,0,22.5-.45c2.6-.08,5.66-.29,9.2-.64.9-.08,1.34.3,1.34,1.15,0,1.37-.16,3.45-.47,6.27a61.27,61.27,0,0,0-.48,6.33c0,.76-.64,1.15-1.92,1.15q-.77,0-5.69-.45-3.59-.39-16.11-.39-10.55,0-13.36.26a2.91,2.91,0,0,0-2.94,2.69c0-.3.07,1.34.07,4.92V287q0,6.64,2,8.31,1.61,1.33,8,1.34l7-.07q4.49,0,25.12-1.53l1-.06C316.31,294.9,316.74,295.43,316.74,296.58Z"/></svg>