<svg width="241" height="178" viewBox="0 0 241 178" fill="none" xmlns="http://www.w3.org/2000/svg">
<g id="Fluidized-bed Graphics">
<rect width="241" height="178" fill="white"/>
<g id="Tube Fill" filter="url(#filter0_d_15_243)">
<g id="tubes-upper">
<rect id="Rectangle 16" x="152" y="27" width="31" height="3" fill="#5EB9F1"/>
<rect id="Rectangle 17" x="189" y="33" width="133" height="3" transform="rotate(90 189 33)" fill="#5EB9F1"/>
<g id="Tube Bend">
<path id="Tube Bend_2" fill-rule="evenodd" clip-rule="evenodd" d="M83 27C79.6863 27 77 29.6863 77 33H80C80 31.3431 81.3431 30 83 30V27Z" fill="#5EB9F1"/>
</g>
<g id="Tube Bend_3">
<path id="Tube Bend_4" fill-rule="evenodd" clip-rule="evenodd" d="M189 33C189 29.6863 186.314 27 183 27V30C184.657 30 186 31.3431 186 33H189Z" fill="#5EB9F1"/>
</g>
<rect id="Rectangle 14" x="83" y="27" width="51" height="3" fill="#5EB9F1"/>
<rect id="Rectangle 15" x="144" y="37" width="126" height="3" transform="rotate(90 144 37)" fill="#5EB9F1"/>
<g id="3-way">
<g id="Group 12">
<path id="Rectangle 8" d="M134 26.8017H140.261V30.8103H134V26.8017Z" fill="#D9D9D9"/>
<rect id="Rectangle 9" x="134.783" y="26" width="4.69565" height="5.61207" fill="#FFE786"/>
</g>
<g id="Group 13">
<path id="Rectangle 8_2" d="M146 26.8017H152.261V30.8103H146V26.8017Z" fill="#D9D9D9"/>
<rect id="Rectangle 9_2" x="146.783" y="26" width="4.69565" height="5.61207" fill="#FFE786"/>
<g id="Group 12_2">
<path id="Rectangle 8_3" d="M146 26.8017H152.261V30.8103H146V26.8017Z" fill="#D9D9D9"/>
<rect id="Rectangle 9_3" x="146.783" y="26" width="4.69565" height="5.61207" fill="#FFE786"/>
</g>
</g>
<g id="Group 14">
<path id="Rectangle 8_4" d="M144.81 32V38.2609H140.802V32H144.81Z" fill="#D9D9D9"/>
<rect id="Rectangle 9_4" x="145.612" y="32.7826" width="4.69565" height="5.61207" transform="rotate(90 145.612 32.7826)" fill="#FFE786"/>
<g id="Group 12_3">
<path id="Rectangle 8_5" d="M144.81 32V38.2609H140.802V32H144.81Z" fill="#D9D9D9"/>
<rect id="Rectangle 9_5" x="145.612" y="32.7826" width="4.69565" height="5.61207" transform="rotate(90 145.612 32.7826)" fill="#FFE786"/>
</g>
</g>
<g id="Rectangle 19" filter="url(#filter1_d_15_243)">
<rect x="140" y="26" width="6" height="6" rx="1" fill="#F8F8F8"/>
</g>
</g>
</g>
<g id="Tubes-lower">
<g id="Tube Bend_5">
<path id="Tube Bend_6" fill-rule="evenodd" clip-rule="evenodd" d="M77 147C77 150.314 79.6863 153 83 153V150C81.3431 150 80 148.657 80 147H77Z" fill="#5EB9F1"/>
<rect id="Rectangle 13" x="83" y="150" width="10" height="3" fill="#5EB9F1"/>
<rect id="Rectangle 14_2" x="99" y="87" width="60" height="3" transform="rotate(90 99 87)" fill="#5EB9F1"/>
</g>
<g id="Tube Bend_7">
<path id="Tube Bend_8" fill-rule="evenodd" clip-rule="evenodd" d="M102 81C98.6863 81 96 83.6863 96 87H99C99 85.3431 100.343 84 102 84V81Z" fill="#5EB9F1"/>
</g>
<g id="Tube Bend_9">
<path id="Tube Bend_10" fill-rule="evenodd" clip-rule="evenodd" d="M93 153C96.3137 153 99 150.314 99 147H96C96 148.657 94.6569 150 93 150V153Z" fill="#5EB9F1"/>
</g>
<rect id="Rectangle 13_2" x="102" y="81" width="17" height="3" fill="#5EB9F1"/>
</g>
</g>
<g id="Tubes" filter="url(#filter2_d_15_243)">
<g id="tubes-upper_2">
<rect id="Rectangle 16_2" x="152" y="27" width="31" height="3" fill="#D9D9D9" fill-opacity="0.5"/>
<rect id="Rectangle 17_2" x="189" y="33" width="133" height="3" transform="rotate(90 189 33)" fill="#D9D9D9" fill-opacity="0.5"/>
<g id="Tube Bend_11">
<path id="Tube Bend_12" fill-rule="evenodd" clip-rule="evenodd" d="M83 27C79.6863 27 77 29.6863 77 33H80C80 31.3431 81.3431 30 83 30V27Z" fill="#D9D9D9" fill-opacity="0.5"/>
</g>
<g id="Tube Bend_13">
<path id="Tube Bend_14" fill-rule="evenodd" clip-rule="evenodd" d="M189 33C189 29.6863 186.314 27 183 27V30C184.657 30 186 31.3431 186 33H189Z" fill="#D9D9D9" fill-opacity="0.5"/>
</g>
<rect id="Rectangle 14_3" x="83" y="27" width="51" height="3" fill="#D9D9D9" fill-opacity="0.5"/>
<rect id="Rectangle 15_2" x="144" y="37" width="126" height="3" transform="rotate(90 144 37)" fill="#D9D9D9" fill-opacity="0.5"/>
<g id="3-way_2">
<g id="Group 12_4">
<path id="Rectangle 8_6" d="M134 26.8017H140.261V30.8103H134V26.8017Z" fill="#D9D9D9"/>
<rect id="Rectangle 9_6" x="134.783" y="26" width="4.69565" height="5.61207" fill="#FFE786"/>
</g>
<g id="Group 13_2">
<path id="Rectangle 8_7" d="M146 26.8017H152.261V30.8103H146V26.8017Z" fill="#D9D9D9"/>
<rect id="Rectangle 9_7" x="146.783" y="26" width="4.69565" height="5.61207" fill="#FFE786"/>
<g id="Group 12_5">
<path id="Rectangle 8_8" d="M146 26.8017H152.261V30.8103H146V26.8017Z" fill="#D9D9D9"/>
<rect id="Rectangle 9_8" x="146.783" y="26" width="4.69565" height="5.61207" fill="#FFE786"/>
</g>
</g>
<g id="Group 14_2">
<path id="Rectangle 8_9" d="M144.81 32V38.2609H140.802V32H144.81Z" fill="#D9D9D9"/>
<rect id="Rectangle 9_9" x="145.612" y="32.7826" width="4.69565" height="5.61207" transform="rotate(90 145.612 32.7826)" fill="#FFE786"/>
<g id="Group 12_6">
<path id="Rectangle 8_10" d="M144.81 32V38.2609H140.802V32H144.81Z" fill="#D9D9D9"/>
<rect id="Rectangle 9_10" x="145.612" y="32.7826" width="4.69565" height="5.61207" transform="rotate(90 145.612 32.7826)" fill="#FFE786"/>
</g>
</g>
<g id="Rectangle 19_2" filter="url(#filter3_d_15_243)">
<rect x="140" y="26" width="6" height="6" rx="1" fill="#F8F8F8"/>
</g>
</g>
</g>
<g id="Tubes-lower_2">
<g id="Tube Bend_15">
<path id="Tube Bend_16" fill-rule="evenodd" clip-rule="evenodd" d="M77 147C77 150.314 79.6863 153 83 153V150C81.3431 150 80 148.657 80 147H77Z" fill="#D9D9D9" fill-opacity="0.5"/>
<rect id="Rectangle 13_3" x="83" y="150" width="10" height="3" fill="#D9D9D9" fill-opacity="0.5"/>
<rect id="Rectangle 14_4" x="99" y="87" width="60" height="3" transform="rotate(90 99 87)" fill="#D9D9D9" fill-opacity="0.5"/>
</g>
<g id="Tube Bend_17">
<path id="Tube Bend_18" fill-rule="evenodd" clip-rule="evenodd" d="M102 81C98.6863 81 96 83.6863 96 87H99C99 85.3431 100.343 84 102 84V81Z" fill="#D9D9D9" fill-opacity="0.5"/>
</g>
<g id="Tube Bend_19">
<path id="Tube Bend_20" fill-rule="evenodd" clip-rule="evenodd" d="M93 153C96.3137 153 99 150.314 99 147H96C96 148.657 94.6569 150 93 150V153Z" fill="#D9D9D9" fill-opacity="0.5"/>
</g>
<rect id="Rectangle 13_4" x="102" y="81" width="17" height="3" fill="#D9D9D9" fill-opacity="0.5"/>
</g>
</g>
<g id="Pump Body" filter="url(#filter4_d_15_243)">
<rect id="Rectangle 16_3" x="126.435" y="91" width="5" height="66" fill="#D9D9D9"/>
<g id="Group 11">
<path id="Rectangle 8_11" d="M119 80.8017H125.261V84.8103H119V80.8017Z" fill="#D9D9D9"/>
<rect id="Rectangle 9_11" x="119.783" y="80" width="4.69565" height="5.61207" fill="#FFE786"/>
</g>
<rect id="Rectangle 17_3" x="122.435" y="157" width="13" height="10" rx="1" fill="#473B3B"/>
<g id="Rectangle 18" filter="url(#filter5_d_15_243)">
<rect x="125.435" y="80" width="7" height="11" rx="1" fill="#EEEEEE"/>
</g>
</g>
<rect id="Beaker Fill" x="121" y="92" width="44" height="75" fill="#638FFE" fill-opacity="0.7"/>
<rect id="Beaker Fill_2" x="183" y="92" width="44" height="75" fill="#638FFE" fill-opacity="0.7"/>
<g id="Aperatus" filter="url(#filter6_d_15_243)">
<g id="Venturi Fill">
<g id="Tube">
<rect id="Tube_2" x="62" y="57" width="59" height="3" transform="rotate(90 62 57)" fill="#638FFE" fill-opacity="0.7"/>
</g>
<g id="Tube_3">
<rect id="Tube_4" x="29" y="116" width="8" height="3" transform="rotate(90 29 116)" fill="#638FFE" fill-opacity="0.7"/>
</g>
<g id="Tube_5">
<rect id="Tube_6" x="29" y="36" width="80" height="3" transform="rotate(90 29 36)" fill="#638FFE" fill-opacity="0.7"/>
</g>
<g id="Tube_7">
<rect id="Tube_8" x="65" y="130" width="33" height="3" transform="rotate(180 65 130)" fill="#638FFE" fill-opacity="0.7"/>
</g>
<g id="Tube_9">
<rect id="Tube_10" x="56" y="122" width="16" height="3" transform="rotate(180 56 122)" fill="#638FFE" fill-opacity="0.7"/>
</g>
<g id="Tube Bend_21">
<path id="Tube Bend_22" fill-rule="evenodd" clip-rule="evenodd" d="M65 51C61.6863 51 59 53.6863 59 57H62C62 55.3431 63.3431 54 65 54V51Z" fill="#638FFE" fill-opacity="0.7"/>
</g>
<g id="Tube Bend_23">
<path id="Tube Bend_24" fill-rule="evenodd" clip-rule="evenodd" d="M56 122C59.3137 122 62 119.314 62 116H59C59 117.657 57.6569 119 56 119V122Z" fill="#638FFE" fill-opacity="0.7"/>
</g>
<g id="Tube Bend_25">
<path id="Tube Bend_26" fill-rule="evenodd" clip-rule="evenodd" d="M34 116C34 119.314 36.6863 122 40 122V119C38.3431 119 37 117.657 37 116H34Z" fill="#638FFE" fill-opacity="0.7"/>
</g>
<g id="Tube Bend_27">
<path id="Tube Bend_28" fill-rule="evenodd" clip-rule="evenodd" d="M26 124C26 127.314 28.6863 130 32 130V127C30.3431 127 29 125.657 29 124H26Z" fill="#638FFE" fill-opacity="0.7"/>
</g>
</g>
<g id="Group 12_7">
<g id="Group 6">
<rect id="Rectangle 5" x="73.9167" y="58" width="9.16667" height="64" fill="#D9D9D9" fill-opacity="0.5"/>
<rect id="Rectangle 6" x="73" y="122" width="11" height="17" fill="#7C7C7C"/>
<path id="Rectangle 7" d="M73 43C73 41.8954 73.8954 41 75 41H82C83.1046 41 84 41.8954 84 43V58H73V43Z" fill="#7C7C7C"/>
</g>
<g id="Group 7">
<rect id="Rectangle 8_12" x="65" y="50" width="8" height="5" fill="#D9D9D9"/>
<rect id="Rectangle 9_12" x="66" y="49" width="6" height="7" fill="#FFE786"/>
</g>
<g id="Group 8">
<rect id="Rectangle 8_13" x="65" y="126" width="8" height="5" fill="#D9D9D9"/>
<rect id="Rectangle 9_13" x="66" y="125" width="6" height="7" fill="#FFE786"/>
</g>
<g id="Group 9">
<rect id="Rectangle 8_14" x="81" y="139" width="8" height="5" transform="rotate(90 81 139)" fill="#D9D9D9"/>
<rect id="Rectangle 9_14" x="82" y="140" width="6" height="7" transform="rotate(90 82 140)" fill="#FFE786"/>
</g>
<g id="Group 10">
<rect id="Rectangle 8_15" x="81" y="33" width="8" height="5" transform="rotate(90 81 33)" fill="#D9D9D9"/>
<rect id="Rectangle 9_15" x="82" y="34" width="6" height="7" transform="rotate(90 82 34)" fill="#FFE786"/>
</g>
</g>
<g id="Tube_11">
<rect id="Tube_12" x="62" y="57" width="59" height="3" transform="rotate(90 62 57)" fill="#D9D9D9" fill-opacity="0.5"/>
</g>
<g id="Tube_13">
<g id="Tube_14">
<rect id="Tube_15" x="37" y="36" width="80" height="3" transform="rotate(90 37 36)" fill="#638FFE" fill-opacity="0.7"/>
</g>
<rect id="Tube_16" x="37" y="20" width="96" height="3" transform="rotate(90 37 20)" fill="#D9D9D9" fill-opacity="0.5"/>
</g>
<g id="Tube_17">
<rect id="Tube_18" x="29" y="20" width="104" height="3" transform="rotate(90 29 20)" fill="#D9D9D9" fill-opacity="0.5"/>
</g>
<g id="Tube_19">
<rect id="Tube_20" x="65" y="130" width="33" height="3" transform="rotate(180 65 130)" fill="#D9D9D9" fill-opacity="0.5"/>
</g>
<g id="Tube_21">
<rect id="Tube_22" x="56" y="122" width="16" height="3" transform="rotate(180 56 122)" fill="#D9D9D9" fill-opacity="0.5"/>
</g>
<g id="Tube Bend_29">
<path id="Tube Bend_30" fill-rule="evenodd" clip-rule="evenodd" d="M65 51C61.6863 51 59 53.6863 59 57H62C62 55.3431 63.3431 54 65 54V51Z" fill="#D9D9D9" fill-opacity="0.5"/>
</g>
<g id="Tube Bend_31">
<path id="Tube Bend_32" fill-rule="evenodd" clip-rule="evenodd" d="M56 122C59.3137 122 62 119.314 62 116H59C59 117.657 57.6569 119 56 119V122Z" fill="#D9D9D9" fill-opacity="0.5"/>
</g>
<g id="Tube Bend_33">
<path id="Tube Bend_34" fill-rule="evenodd" clip-rule="evenodd" d="M34 116C34 119.314 36.6863 122 40 122V119C38.3431 119 37 117.657 37 116H34Z" fill="#D9D9D9" fill-opacity="0.5"/>
</g>
<g id="Tube Bend_35">
<path id="Tube Bend_36" fill-rule="evenodd" clip-rule="evenodd" d="M26 124C26 127.314 28.6863 130 32 130V127C30.3431 127 29 125.657 29 124H26Z" fill="#D9D9D9" fill-opacity="0.5"/>
</g>
<g id="Venturi Ticks">
<g id="Venturi Ticks Left">
<g id="Tick Group">
<line id="Line 8" y1="-0.25" x2="4" y2="-0.25" transform="matrix(-1 0 0 1 25 116)" stroke="black" stroke-width="0.5"/>
<line id="Line 9" y1="-0.25" x2="2" y2="-0.25" transform="matrix(-1 0 0 1 25 114)" stroke="black" stroke-width="0.5"/>
<line id="Line 10" y1="-0.25" x2="2" y2="-0.25" transform="matrix(-1 0 0 1 25 112)" stroke="black" stroke-width="0.5"/>
<line id="Line 11" y1="-0.25" x2="2" y2="-0.25" transform="matrix(-1 0 0 1 25 110)" stroke="black" stroke-width="0.5"/>
<line id="Line 12" y1="-0.25" x2="2" y2="-0.25" transform="matrix(-1 0 0 1 25 108)" stroke="black" stroke-width="0.5"/>
</g>
<g id="Tick Group_2">
<line id="Line 8_2" y1="-0.25" x2="4" y2="-0.25" transform="matrix(-1 0 0 1 25 106)" stroke="black" stroke-width="0.5"/>
<line id="Line 9_2" y1="-0.25" x2="2" y2="-0.25" transform="matrix(-1 0 0 1 25 104)" stroke="black" stroke-width="0.5"/>
<line id="Line 10_2" y1="-0.25" x2="2" y2="-0.25" transform="matrix(-1 0 0 1 25 102)" stroke="black" stroke-width="0.5"/>
<line id="Line 11_2" y1="-0.25" x2="2" y2="-0.25" transform="matrix(-1 0 0 1 25 100)" stroke="black" stroke-width="0.5"/>
<line id="Line 12_2" y1="-0.25" x2="2" y2="-0.25" transform="matrix(-1 0 0 1 25 98)" stroke="black" stroke-width="0.5"/>
</g>
<g id="Tick Group_3">
<line id="Line 8_3" y1="-0.25" x2="4" y2="-0.25" transform="matrix(-1 0 0 1 25 96)" stroke="black" stroke-width="0.5"/>
<line id="Line 9_3" y1="-0.25" x2="2" y2="-0.25" transform="matrix(-1 0 0 1 25 94)" stroke="black" stroke-width="0.5"/>
<line id="Line 10_3" y1="-0.25" x2="2" y2="-0.25" transform="matrix(-1 0 0 1 25 92)" stroke="black" stroke-width="0.5"/>
<line id="Line 11_3" y1="-0.25" x2="2" y2="-0.25" transform="matrix(-1 0 0 1 25 90)" stroke="black" stroke-width="0.5"/>
<line id="Line 12_3" y1="-0.25" x2="2" y2="-0.25" transform="matrix(-1 0 0 1 25 88)" stroke="black" stroke-width="0.5"/>
</g>
<g id="Tick Group_4">
<line id="Line 8_4" y1="-0.25" x2="4" y2="-0.25" transform="matrix(-1 0 0 1 25 86)" stroke="black" stroke-width="0.5"/>
<line id="Line 9_4" y1="-0.25" x2="2" y2="-0.25" transform="matrix(-1 0 0 1 25 84)" stroke="black" stroke-width="0.5"/>
<line id="Line 10_4" y1="-0.25" x2="2" y2="-0.25" transform="matrix(-1 0 0 1 25 82)" stroke="black" stroke-width="0.5"/>
<line id="Line 11_4" y1="-0.25" x2="2" y2="-0.25" transform="matrix(-1 0 0 1 25 80)" stroke="black" stroke-width="0.5"/>
<line id="Line 12_4" y1="-0.25" x2="2" y2="-0.25" transform="matrix(-1 0 0 1 25 78)" stroke="black" stroke-width="0.5"/>
</g>
<g id="Tick Group_5">
<line id="Line 8_5" y1="-0.25" x2="4" y2="-0.25" transform="matrix(-1 0 0 1 25 76)" stroke="black" stroke-width="0.5"/>
<line id="Line 9_5" y1="-0.25" x2="2" y2="-0.25" transform="matrix(-1 0 0 1 25 74)" stroke="black" stroke-width="0.5"/>
<line id="Line 10_5" y1="-0.25" x2="2" y2="-0.25" transform="matrix(-1 0 0 1 25 72)" stroke="black" stroke-width="0.5"/>
<line id="Line 11_5" y1="-0.25" x2="2" y2="-0.25" transform="matrix(-1 0 0 1 25 70)" stroke="black" stroke-width="0.5"/>
<line id="Line 12_5" y1="-0.25" x2="2" y2="-0.25" transform="matrix(-1 0 0 1 25 68)" stroke="black" stroke-width="0.5"/>
</g>
<g id="Tick Group_6">
<line id="Line 8_6" y1="-0.25" x2="4" y2="-0.25" transform="matrix(-1 0 0 1 25 66)" stroke="black" stroke-width="0.5"/>
<line id="Line 9_6" y1="-0.25" x2="2" y2="-0.25" transform="matrix(-1 0 0 1 25 64)" stroke="black" stroke-width="0.5"/>
<line id="Line 10_6" y1="-0.25" x2="2" y2="-0.25" transform="matrix(-1 0 0 1 25 62)" stroke="black" stroke-width="0.5"/>
<line id="Line 11_6" y1="-0.25" x2="2" y2="-0.25" transform="matrix(-1 0 0 1 25 60)" stroke="black" stroke-width="0.5"/>
<line id="Line 12_6" y1="-0.25" x2="2" y2="-0.25" transform="matrix(-1 0 0 1 25 58)" stroke="black" stroke-width="0.5"/>
</g>
<g id="Tick Group_7">
<line id="Line 8_7" y1="-0.25" x2="4" y2="-0.25" transform="matrix(-1 0 0 1 25 56)" stroke="black" stroke-width="0.5"/>
<line id="Line 9_7" y1="-0.25" x2="2" y2="-0.25" transform="matrix(-1 0 0 1 25 54)" stroke="black" stroke-width="0.5"/>
<line id="Line 10_7" y1="-0.25" x2="2" y2="-0.25" transform="matrix(-1 0 0 1 25 52)" stroke="black" stroke-width="0.5"/>
<line id="Line 11_7" y1="-0.25" x2="2" y2="-0.25" transform="matrix(-1 0 0 1 25 50)" stroke="black" stroke-width="0.5"/>
<line id="Line 12_7" y1="-0.25" x2="2" y2="-0.25" transform="matrix(-1 0 0 1 25 48)" stroke="black" stroke-width="0.5"/>
</g>
<g id="Tick Group_8">
<line id="Line 8_8" y1="-0.25" x2="4" y2="-0.25" transform="matrix(-1 0 0 1 25 46)" stroke="black" stroke-width="0.5"/>
<line id="Line 13" y1="-0.25" x2="4" y2="-0.25" transform="matrix(-1 0 0 1 25 36)" stroke="black" stroke-width="0.5"/>
<line id="Line 9_8" y1="-0.25" x2="2" y2="-0.25" transform="matrix(-1 0 0 1 25 44)" stroke="black" stroke-width="0.5"/>
<line id="Line 10_8" y1="-0.25" x2="2" y2="-0.25" transform="matrix(-1 0 0 1 25 42)" stroke="black" stroke-width="0.5"/>
<line id="Line 11_8" y1="-0.25" x2="2" y2="-0.25" transform="matrix(-1 0 0 1 25 40)" stroke="black" stroke-width="0.5"/>
<line id="Line 12_8" y1="-0.25" x2="2" y2="-0.25" transform="matrix(-1 0 0 1 25 38)" stroke="black" stroke-width="0.5"/>
</g>
</g>
<g id="Venturi Ticks Right">
<g id="Tick Group_9">
<line id="Line 8_9" x1="38" y1="115.75" x2="42" y2="115.75" stroke="black" stroke-width="0.5"/>
<line id="Line 9_9" x1="38" y1="113.75" x2="40" y2="113.75" stroke="black" stroke-width="0.5"/>
<line id="Line 10_9" x1="38" y1="111.75" x2="40" y2="111.75" stroke="black" stroke-width="0.5"/>
<line id="Line 11_9" x1="38" y1="109.75" x2="40" y2="109.75" stroke="black" stroke-width="0.5"/>
<line id="Line 12_9" x1="38" y1="107.75" x2="40" y2="107.75" stroke="black" stroke-width="0.5"/>
</g>
<g id="Tick Group_10">
<line id="Line 8_10" x1="38" y1="105.75" x2="42" y2="105.75" stroke="black" stroke-width="0.5"/>
<line id="Line 9_10" x1="38" y1="103.75" x2="40" y2="103.75" stroke="black" stroke-width="0.5"/>
<line id="Line 10_10" x1="38" y1="101.75" x2="40" y2="101.75" stroke="black" stroke-width="0.5"/>
<line id="Line 11_10" x1="38" y1="99.75" x2="40" y2="99.75" stroke="black" stroke-width="0.5"/>
<line id="Line 12_10" x1="38" y1="97.75" x2="40" y2="97.75" stroke="black" stroke-width="0.5"/>
</g>
<g id="Tick Group_11">
<line id="Line 8_11" x1="38" y1="95.75" x2="42" y2="95.75" stroke="black" stroke-width="0.5"/>
<line id="Line 9_11" x1="38" y1="93.75" x2="40" y2="93.75" stroke="black" stroke-width="0.5"/>
<line id="Line 10_11" x1="38" y1="91.75" x2="40" y2="91.75" stroke="black" stroke-width="0.5"/>
<line id="Line 11_11" x1="38" y1="89.75" x2="40" y2="89.75" stroke="black" stroke-width="0.5"/>
<line id="Line 12_11" x1="38" y1="87.75" x2="40" y2="87.75" stroke="black" stroke-width="0.5"/>
</g>
<g id="Tick Group_12">
<line id="Line 8_12" x1="38" y1="85.75" x2="42" y2="85.75" stroke="black" stroke-width="0.5"/>
<line id="Line 9_12" x1="38" y1="83.75" x2="40" y2="83.75" stroke="black" stroke-width="0.5"/>
<line id="Line 10_12" x1="38" y1="81.75" x2="40" y2="81.75" stroke="black" stroke-width="0.5"/>
<line id="Line 11_12" x1="38" y1="79.75" x2="40" y2="79.75" stroke="black" stroke-width="0.5"/>
<line id="Line 12_12" x1="38" y1="77.75" x2="40" y2="77.75" stroke="black" stroke-width="0.5"/>
</g>
<g id="Tick Group_13">
<line id="Line 8_13" x1="38" y1="75.75" x2="42" y2="75.75" stroke="black" stroke-width="0.5"/>
<line id="Line 9_13" x1="38" y1="73.75" x2="40" y2="73.75" stroke="black" stroke-width="0.5"/>
<line id="Line 10_13" x1="38" y1="71.75" x2="40" y2="71.75" stroke="black" stroke-width="0.5"/>
<line id="Line 11_13" x1="38" y1="69.75" x2="40" y2="69.75" stroke="black" stroke-width="0.5"/>
<line id="Line 12_13" x1="38" y1="67.75" x2="40" y2="67.75" stroke="black" stroke-width="0.5"/>
</g>
<g id="Tick Group_14">
<line id="Line 8_14" x1="38" y1="65.75" x2="42" y2="65.75" stroke="black" stroke-width="0.5"/>
<line id="Line 9_14" x1="38" y1="63.75" x2="40" y2="63.75" stroke="black" stroke-width="0.5"/>
<line id="Line 10_14" x1="38" y1="61.75" x2="40" y2="61.75" stroke="black" stroke-width="0.5"/>
<line id="Line 11_14" x1="38" y1="59.75" x2="40" y2="59.75" stroke="black" stroke-width="0.5"/>
<line id="Line 12_14" x1="38" y1="57.75" x2="40" y2="57.75" stroke="black" stroke-width="0.5"/>
</g>
<g id="Tick Group_15">
<line id="Line 8_15" x1="38" y1="55.75" x2="42" y2="55.75" stroke="black" stroke-width="0.5"/>
<line id="Line 9_15" x1="38" y1="53.75" x2="40" y2="53.75" stroke="black" stroke-width="0.5"/>
<line id="Line 10_15" x1="38" y1="51.75" x2="40" y2="51.75" stroke="black" stroke-width="0.5"/>
<line id="Line 11_15" x1="38" y1="49.75" x2="40" y2="49.75" stroke="black" stroke-width="0.5"/>
<line id="Line 12_15" x1="38" y1="47.75" x2="40" y2="47.75" stroke="black" stroke-width="0.5"/>
</g>
<g id="Tick Group_16">
<line id="Line 8_16" x1="38" y1="45.75" x2="42" y2="45.75" stroke="black" stroke-width="0.5"/>
<line id="Line 13_2" x1="38" y1="35.75" x2="42" y2="35.75" stroke="black" stroke-width="0.5"/>
<line id="Line 9_16" x1="38" y1="43.75" x2="40" y2="43.75" stroke="black" stroke-width="0.5"/>
<line id="Line 10_16" x1="38" y1="41.75" x2="40" y2="41.75" stroke="black" stroke-width="0.5"/>
<line id="Line 11_16" x1="38" y1="39.75" x2="40" y2="39.75" stroke="black" stroke-width="0.5"/>
<line id="Line 12_16" x1="38" y1="37.75" x2="40" y2="37.75" stroke="black" stroke-width="0.5"/>
</g>
</g>
</g>
</g>
<g id="Beaker Walls" filter="url(#filter7_d_15_243)">
<path id="Beaker Walls_2" fill-rule="evenodd" clip-rule="evenodd" d="M117 90C117 89.4477 117.448 89 118 89H120H121V166C121 166.552 121.448 167 122 167H164C164.552 167 165 166.552 165 166V89H166H168C168.552 89 169 89.4477 169 90V100.5C169 101.052 168.552 101.5 168 101.5H167V168C167 168.552 166.552 169 166 169H120C119.448 169 119 168.552 119 168V101.5H118C117.448 101.5 117 101.052 117 100.5V90Z" fill="#B0B0B0"/>
</g>
<g id="Beaker Walls_3" filter="url(#filter8_d_15_243)">
<path id="Beaker Walls_4" fill-rule="evenodd" clip-rule="evenodd" d="M179 90C179 89.4477 179.448 89 180 89H182H183V166C183 166.552 183.448 167 184 167H226C226.552 167 227 166.552 227 166V89H228H230C230.552 89 231 89.4477 231 90V100.5C231 101.052 230.552 101.5 230 101.5H229V168C229 168.552 228.552 169 228 169H182C181.448 169 181 168.552 181 168V101.5H180C179.448 101.5 179 101.052 179 100.5V90Z" fill="#B0B0B0"/>
</g>
<g id="Valve">
<path id="Ellipse 1" d="M132.875 82.9375C132.875 85.0412 131.142 86.75 129 86.75C126.858 86.75 125.125 85.0412 125.125 82.9375C125.125 80.8338 126.858 79.125 129 79.125C131.142 79.125 132.875 80.8338 132.875 82.9375Z" fill="#5EB9F1" stroke="#0034DE" stroke-width="0.25"/>
<g id="Rectangle 15_3" filter="url(#filter9_d_15_243)">
<path d="M127.286 80C127.286 79.4477 127.733 79 128.286 79H129.714C130.267 79 130.714 79.4477 130.714 80V87C130.714 87.5523 130.267 88 129.714 88H128.286C127.733 88 127.286 87.5523 127.286 87V80Z" fill="#5EB9F1"/>
<path d="M128.286 79.125H129.714C130.198 79.125 130.589 79.5168 130.589 80V87C130.589 87.4832 130.198 87.875 129.714 87.875H128.286C127.802 87.875 127.411 87.4832 127.411 87V80C127.411 79.5168 127.802 79.125 128.286 79.125Z" stroke="#0034DE" stroke-width="0.25"/>
</g>
</g>
<g id="Valve_2">
<path id="Ellipse 1_2" d="M146.875 28.9375C146.875 31.0412 145.142 32.75 143 32.75C140.858 32.75 139.125 31.0412 139.125 28.9375C139.125 26.8338 140.858 25.125 143 25.125C145.142 25.125 146.875 26.8338 146.875 28.9375Z" fill="#5EB9F1" stroke="#0034DE" stroke-width="0.25"/>
<g id="Rectangle 15_4" filter="url(#filter10_d_15_243)">
<path d="M141.286 26C141.286 25.4477 141.733 25 142.286 25H143.714C144.267 25 144.714 25.4477 144.714 26V33C144.714 33.5523 144.267 34 143.714 34H142.286C141.733 34 141.286 33.5523 141.286 33V26Z" fill="#5EB9F1"/>
<path d="M142.286 25.125H143.714C144.198 25.125 144.589 25.5168 144.589 26V33C144.589 33.4832 144.198 33.875 143.714 33.875H142.286C141.802 33.875 141.411 33.4832 141.411 33V26C141.411 25.5168 141.802 25.125 142.286 25.125Z" stroke="#0034DE" stroke-width="0.25"/>
</g>
</g>
<g id="Beaker Face">
<path id="Beaker Front" fill-rule="evenodd" clip-rule="evenodd" d="M180 89C179.448 89 179 89.4477 179 90V100.5C179 101.052 179.448 101.5 180 101.5H181V168C181 168.552 181.448 169 182 169H228C228.552 169 229 168.552 229 168V101.5H230C230.552 101.5 231 101.052 231 100.5V90C231 89.4477 230.552 89 230 89H229H181H180Z" fill="#D9D9D9" fill-opacity="0.5"/>
<g id="Ticks">
<g id="Group 1">
<line id="Line 1" x1="207" y1="152.5" x2="211" y2="152.5" stroke="black"/>
<line id="Line 2" x1="207" y1="149.5" x2="209" y2="149.5" stroke="black"/>
<line id="Line 3" x1="207" y1="146.5" x2="209" y2="146.5" stroke="black"/>
<line id="Line 4" x1="207" y1="143.5" x2="209" y2="143.5" stroke="black"/>
<line id="Line 5" x1="207" y1="140.5" x2="209" y2="140.5" stroke="black"/>
<line id="Line 6" x1="206.5" y1="138" x2="206.5" y2="153" stroke="black"/>
</g>
<g id="Group 3">
<line id="Line 1_2" x1="207" y1="122.5" x2="211" y2="122.5" stroke="black"/>
<line id="Line 2_2" x1="207" y1="119.5" x2="209" y2="119.5" stroke="black"/>
<line id="Line 3_2" x1="207" y1="116.5" x2="209" y2="116.5" stroke="black"/>
<line id="Line 4_2" x1="207" y1="113.5" x2="209" y2="113.5" stroke="black"/>
<line id="Line 5_2" x1="207" y1="110.5" x2="209" y2="110.5" stroke="black"/>
<line id="Line 6_2" x1="206.5" y1="108" x2="206.5" y2="123" stroke="black"/>
</g>
<g id="Group 2">
<line id="Line 1_3" x1="207" y1="137.5" x2="211" y2="137.5" stroke="black"/>
<line id="Line 2_3" x1="207" y1="134.5" x2="209" y2="134.5" stroke="black"/>
<line id="Line 3_3" x1="207" y1="131.5" x2="209" y2="131.5" stroke="black"/>
<line id="Line 4_3" x1="207" y1="128.5" x2="209" y2="128.5" stroke="black"/>
<line id="Line 5_3" x1="207" y1="125.5" x2="209" y2="125.5" stroke="black"/>
<line id="Line 6_3" x1="206.5" y1="123" x2="206.5" y2="138" stroke="black"/>
</g>
<g id="Group 4">
<line id="Line 1_4" x1="207" y1="107.5" x2="211" y2="107.5" stroke="black"/>
<line id="Line 2_4" x1="207" y1="104.5" x2="209" y2="104.5" stroke="black"/>
<line id="Line 3_4" x1="207" y1="101.5" x2="209" y2="101.5" stroke="black"/>
<line id="Line 4_4" x1="207" y1="98.5" x2="209" y2="98.5" stroke="black"/>
<line id="Line 5_4" x1="207" y1="95.5" x2="209" y2="95.5" stroke="black"/>
<line id="Line 6_4" x1="206.5" y1="93" x2="206.5" y2="108" stroke="black"/>
</g>
<g id="Group 5">
<line id="Line 1_5" x1="207" y1="167.5" x2="211" y2="167.5" stroke="black"/>
<line id="Line 2_5" x1="207" y1="164.5" x2="209" y2="164.5" stroke="black"/>
<line id="Line 3_5" x1="207" y1="161.5" x2="209" y2="161.5" stroke="black"/>
<line id="Line 4_5" x1="207" y1="158.5" x2="209" y2="158.5" stroke="black"/>
<line id="Line 5_5" x1="207" y1="155.5" x2="209" y2="155.5" stroke="black"/>
<line id="Line 6_5" x1="206.5" y1="153" x2="206.5" y2="168" stroke="black"/>
</g>
<line id="Line 7" x1="206" y1="92.5" x2="211" y2="92.5" stroke="black"/>
</g>
</g>
<g id="Beaker Face_2">
<path id="Beaker Front_2" fill-rule="evenodd" clip-rule="evenodd" d="M118 89C117.448 89 117 89.4477 117 90V100.5C117 101.052 117.448 101.5 118 101.5H119V168C119 168.552 119.448 169 120 169H166C166.552 169 167 168.552 167 168V101.5H168C168.552 101.5 169 101.052 169 100.5V90C169 89.4477 168.552 89 168 89H167H119H118Z" fill="#D9D9D9" fill-opacity="0.5"/>
<g id="Ticks_2">
<g id="Group 1_2">
<line id="Line 1_6" x1="145" y1="152.5" x2="149" y2="152.5" stroke="black"/>
<line id="Line 2_6" x1="145" y1="149.5" x2="147" y2="149.5" stroke="black"/>
<line id="Line 3_6" x1="145" y1="146.5" x2="147" y2="146.5" stroke="black"/>
<line id="Line 4_6" x1="145" y1="143.5" x2="147" y2="143.5" stroke="black"/>
<line id="Line 5_6" x1="145" y1="140.5" x2="147" y2="140.5" stroke="black"/>
<line id="Line 6_6" x1="144.5" y1="138" x2="144.5" y2="153" stroke="black"/>
</g>
<g id="Group 3_2">
<line id="Line 1_7" x1="145" y1="122.5" x2="149" y2="122.5" stroke="black"/>
<line id="Line 2_7" x1="145" y1="119.5" x2="147" y2="119.5" stroke="black"/>
<line id="Line 3_7" x1="145" y1="116.5" x2="147" y2="116.5" stroke="black"/>
<line id="Line 4_7" x1="145" y1="113.5" x2="147" y2="113.5" stroke="black"/>
<line id="Line 5_7" x1="145" y1="110.5" x2="147" y2="110.5" stroke="black"/>
<line id="Line 6_7" x1="144.5" y1="108" x2="144.5" y2="123" stroke="black"/>
</g>
<g id="Group 2_2">
<line id="Line 1_8" x1="145" y1="137.5" x2="149" y2="137.5" stroke="black"/>
<line id="Line 2_8" x1="145" y1="134.5" x2="147" y2="134.5" stroke="black"/>
<line id="Line 3_8" x1="145" y1="131.5" x2="147" y2="131.5" stroke="black"/>
<line id="Line 4_8" x1="145" y1="128.5" x2="147" y2="128.5" stroke="black"/>
<line id="Line 5_8" x1="145" y1="125.5" x2="147" y2="125.5" stroke="black"/>
<line id="Line 6_8" x1="144.5" y1="123" x2="144.5" y2="138" stroke="black"/>
</g>
<g id="Group 4_2">
<line id="Line 1_9" x1="145" y1="107.5" x2="149" y2="107.5" stroke="black"/>
<line id="Line 2_9" x1="145" y1="104.5" x2="147" y2="104.5" stroke="black"/>
<line id="Line 3_9" x1="145" y1="101.5" x2="147" y2="101.5" stroke="black"/>
<line id="Line 4_9" x1="145" y1="98.5" x2="147" y2="98.5" stroke="black"/>
<line id="Line 5_9" x1="145" y1="95.5" x2="147" y2="95.5" stroke="black"/>
<line id="Line 6_9" x1="144.5" y1="93" x2="144.5" y2="108" stroke="black"/>
</g>
<g id="Group 5_2">
<line id="Line 1_10" x1="145" y1="167.5" x2="149" y2="167.5" stroke="black"/>
<line id="Line 2_10" x1="145" y1="164.5" x2="147" y2="164.5" stroke="black"/>
<line id="Line 3_10" x1="145" y1="161.5" x2="147" y2="161.5" stroke="black"/>
<line id="Line 4_10" x1="145" y1="158.5" x2="147" y2="158.5" stroke="black"/>
<line id="Line 5_10" x1="145" y1="155.5" x2="147" y2="155.5" stroke="black"/>
<line id="Line 6_10" x1="144.5" y1="153" x2="144.5" y2="168" stroke="black"/>
</g>
<line id="Line 7_2" x1="144" y1="92.5" x2="149" y2="92.5" stroke="black"/>
</g>
</g>
</g>
<defs>
<filter id="filter0_d_15_243" x="73" y="23" width="120" height="148" filterUnits="userSpaceOnUse" color-interpolation-filters="sRGB">
<feFlood flood-opacity="0" result="BackgroundImageFix"/>
<feColorMatrix in="SourceAlpha" type="matrix" values="0 0 0 0 0 0 0 0 0 0 0 0 0 0 0 0 0 0 127 0" result="hardAlpha"/>
<feOffset dy="1"/>
<feGaussianBlur stdDeviation="2"/>
<feComposite in2="hardAlpha" operator="out"/>
<feColorMatrix type="matrix" values="0 0 0 0 0 0 0 0 0 0 0 0 0 0 0 0 0 0 0.25 0"/>
<feBlend mode="normal" in2="BackgroundImageFix" result="effect1_dropShadow_15_243"/>
<feBlend mode="normal" in="SourceGraphic" in2="effect1_dropShadow_15_243" result="shape"/>
</filter>
<filter id="filter1_d_15_243" x="136" y="26" width="14" height="14" filterUnits="userSpaceOnUse" color-interpolation-filters="sRGB">
<feFlood flood-opacity="0" result="BackgroundImageFix"/>
<feColorMatrix in="SourceAlpha" type="matrix" values="0 0 0 0 0 0 0 0 0 0 0 0 0 0 0 0 0 0 127 0" result="hardAlpha"/>
<feOffset dy="4"/>
<feGaussianBlur stdDeviation="2"/>
<feComposite in2="hardAlpha" operator="out"/>
<feColorMatrix type="matrix" values="0 0 0 0 0 0 0 0 0 0 0 0 0 0 0 0 0 0 0.25 0"/>
<feBlend mode="normal" in2="BackgroundImageFix" result="effect1_dropShadow_15_243"/>
<feBlend mode="normal" in="SourceGraphic" in2="effect1_dropShadow_15_243" result="shape"/>
</filter>
<filter id="filter2_d_15_243" x="73" y="23" width="120" height="148" filterUnits="userSpaceOnUse" color-interpolation-filters="sRGB">
<feFlood flood-opacity="0" result="BackgroundImageFix"/>
<feColorMatrix in="SourceAlpha" type="matrix" values="0 0 0 0 0 0 0 0 0 0 0 0 0 0 0 0 0 0 127 0" result="hardAlpha"/>
<feOffset dy="1"/>
<feGaussianBlur stdDeviation="2"/>
<feComposite in2="hardAlpha" operator="out"/>
<feColorMatrix type="matrix" values="0 0 0 0 0 0 0 0 0 0 0 0 0 0 0 0 0 0 0.25 0"/>
<feBlend mode="normal" in2="BackgroundImageFix" result="effect1_dropShadow_15_243"/>
<feBlend mode="normal" in="SourceGraphic" in2="effect1_dropShadow_15_243" result="shape"/>
</filter>
<filter id="filter3_d_15_243" x="136" y="26" width="14" height="14" filterUnits="userSpaceOnUse" color-interpolation-filters="sRGB">
<feFlood flood-opacity="0" result="BackgroundImageFix"/>
<feColorMatrix in="SourceAlpha" type="matrix" values="0 0 0 0 0 0 0 0 0 0 0 0 0 0 0 0 0 0 127 0" result="hardAlpha"/>
<feOffset dy="4"/>
<feGaussianBlur stdDeviation="2"/>
<feComposite in2="hardAlpha" operator="out"/>
<feColorMatrix type="matrix" values="0 0 0 0 0 0 0 0 0 0 0 0 0 0 0 0 0 0 0.25 0"/>
<feBlend mode="normal" in2="BackgroundImageFix" result="effect1_dropShadow_15_243"/>
<feBlend mode="normal" in="SourceGraphic" in2="effect1_dropShadow_15_243" result="shape"/>
</filter>
<filter id="filter4_d_15_243" x="115" y="77" width="24.4348" height="95" filterUnits="userSpaceOnUse" color-interpolation-filters="sRGB">
<feFlood flood-opacity="0" result="BackgroundImageFix"/>
<feColorMatrix in="SourceAlpha" type="matrix" values="0 0 0 0 0 0 0 0 0 0 0 0 0 0 0 0 0 0 127 0" result="hardAlpha"/>
<feOffset dy="1"/>
<feGaussianBlur stdDeviation="2"/>
<feComposite in2="hardAlpha" operator="out"/>
<feColorMatrix type="matrix" values="0 0 0 0 0 0 0 0 0 0 0 0 0 0 0 0 0 0 0.25 0"/>
<feBlend mode="normal" in2="BackgroundImageFix" result="effect1_dropShadow_15_243"/>
<feBlend mode="normal" in="SourceGraphic" in2="effect1_dropShadow_15_243" result="shape"/>
</filter>
<filter id="filter5_d_15_243" x="124.435" y="80" width="9" height="13" filterUnits="userSpaceOnUse" color-interpolation-filters="sRGB">
<feFlood flood-opacity="0" result="BackgroundImageFix"/>
<feColorMatrix in="SourceAlpha" type="matrix" values="0 0 0 0 0 0 0 0 0 0 0 0 0 0 0 0 0 0 127 0" result="hardAlpha"/>
<feOffset dy="1"/>
<feGaussianBlur stdDeviation="0.5"/>
<feComposite in2="hardAlpha" operator="out"/>
<feColorMatrix type="matrix" values="0 0 0 0 0 0 0 0 0 0 0 0 0 0 0 0 0 0 0.25 0"/>
<feBlend mode="normal" in2="BackgroundImageFix" result="effect1_dropShadow_15_243"/>
<feBlend mode="normal" in="SourceGraphic" in2="effect1_dropShadow_15_243" result="shape"/>
</filter>
<filter id="filter6_d_15_243" x="17" y="17" width="71" height="135" filterUnits="userSpaceOnUse" color-interpolation-filters="sRGB">
<feFlood flood-opacity="0" result="BackgroundImageFix"/>
<feColorMatrix in="SourceAlpha" type="matrix" values="0 0 0 0 0 0 0 0 0 0 0 0 0 0 0 0 0 0 127 0" result="hardAlpha"/>
<feOffset dy="1"/>
<feGaussianBlur stdDeviation="2"/>
<feComposite in2="hardAlpha" operator="out"/>
<feColorMatrix type="matrix" values="0 0 0 0 0 0 0 0 0 0 0 0 0 0 0 0 0 0 0.25 0"/>
<feBlend mode="normal" in2="BackgroundImageFix" result="effect1_dropShadow_15_243"/>
<feBlend mode="normal" in="SourceGraphic" in2="effect1_dropShadow_15_243" result="shape"/>
</filter>
<filter id="filter7_d_15_243" x="113" y="86" width="60" height="88" filterUnits="userSpaceOnUse" color-interpolation-filters="sRGB">
<feFlood flood-opacity="0" result="BackgroundImageFix"/>
<feColorMatrix in="SourceAlpha" type="matrix" values="0 0 0 0 0 0 0 0 0 0 0 0 0 0 0 0 0 0 127 0" result="hardAlpha"/>
<feOffset dy="1"/>
<feGaussianBlur stdDeviation="2"/>
<feComposite in2="hardAlpha" operator="out"/>
<feColorMatrix type="matrix" values="0 0 0 0 0 0 0 0 0 0 0 0 0 0 0 0 0 0 0.25 0"/>
<feBlend mode="normal" in2="BackgroundImageFix" result="effect1_dropShadow_15_243"/>
<feBlend mode="normal" in="SourceGraphic" in2="effect1_dropShadow_15_243" result="shape"/>
</filter>
<filter id="filter8_d_15_243" x="175" y="86" width="60" height="88" filterUnits="userSpaceOnUse" color-interpolation-filters="sRGB">
<feFlood flood-opacity="0" result="BackgroundImageFix"/>
<feColorMatrix in="SourceAlpha" type="matrix" values="0 0 0 0 0 0 0 0 0 0 0 0 0 0 0 0 0 0 127 0" result="hardAlpha"/>
<feOffset dy="1"/>
<feGaussianBlur stdDeviation="2"/>
<feComposite in2="hardAlpha" operator="out"/>
<feColorMatrix type="matrix" values="0 0 0 0 0 0 0 0 0 0 0 0 0 0 0 0 0 0 0.25 0"/>
<feBlend mode="normal" in2="BackgroundImageFix" result="effect1_dropShadow_15_243"/>
<feBlend mode="normal" in="SourceGraphic" in2="effect1_dropShadow_15_243" result="shape"/>
</filter>
<filter id="filter9_d_15_243" x="124.286" y="76" width="11.4286" height="17" filterUnits="userSpaceOnUse" color-interpolation-filters="sRGB">
<feFlood flood-opacity="0" result="BackgroundImageFix"/>
<feColorMatrix in="SourceAlpha" type="matrix" values="0 0 0 0 0 0 0 0 0 0 0 0 0 0 0 0 0 0 127 0" result="hardAlpha"/>
<feOffset dx="1" dy="1"/>
<feGaussianBlur stdDeviation="2"/>
<feComposite in2="hardAlpha" operator="out"/>
<feColorMatrix type="matrix" values="0 0 0 0 0 0 0 0 0 0 0 0 0 0 0 0 0 0 0.25 0"/>
<feBlend mode="normal" in2="BackgroundImageFix" result="effect1_dropShadow_15_243"/>
<feBlend mode="normal" in="SourceGraphic" in2="effect1_dropShadow_15_243" result="shape"/>
</filter>
<filter id="filter10_d_15_243" x="138.286" y="22" width="11.4286" height="17" filterUnits="userSpaceOnUse" color-interpolation-filters="sRGB">
<feFlood flood-opacity="0" result="BackgroundImageFix"/>
<feColorMatrix in="SourceAlpha" type="matrix" values="0 0 0 0 0 0 0 0 0 0 0 0 0 0 0 0 0 0 127 0" result="hardAlpha"/>
<feOffset dx="1" dy="1"/>
<feGaussianBlur stdDeviation="2"/>
<feComposite in2="hardAlpha" operator="out"/>
<feColorMatrix type="matrix" values="0 0 0 0 0 0 0 0 0 0 0 0 0 0 0 0 0 0 0.25 0"/>
<feBlend mode="normal" in2="BackgroundImageFix" result="effect1_dropShadow_15_243"/>
<feBlend mode="normal" in="SourceGraphic" in2="effect1_dropShadow_15_243" result="shape"/>
</filter>
</defs>
</svg>
