<svg width="537" height="306" viewBox="0 0 537 306" fill="none" xmlns="http://www.w3.org/2000/svg">
<g id="Evaporator" clip-path="url(#clip0_27_145)">
<g id="catch">
<g id="concentrateScale">
<path id="Rectangle 27" d="M347.846 257.5H398.154C398.359 257.5 398.543 257.625 398.619 257.815L403.263 269.5H342.737L347.381 257.815C347.457 257.625 347.641 257.5 347.846 257.5Z" fill="#CECECE" stroke="black"/>
<rect id="Rectangle 29" x="342.5" y="269.5" width="61" height="3" rx="0.5" fill="#CECECE" stroke="black"/>
<rect id="Rectangle 28" x="342.5" y="272.5" width="61" height="17" rx="1.5" fill="#888888" stroke="black"/>
<rect id="concentrateScreen" x="344.5" y="274.5" width="42" height="13" rx="1.5" fill="#141414" stroke="black"/>
<g id="bottomsTareBtn">
<rect id="upBtnbase" x="389" y="275.5" width="11.4" height="11" rx="0.5" fill="#D51F1F" stroke="black"/>
</g>
</g>
<g id="bucket">
<path id="Ellipse 1" d="M373 258.5C378.494 258.5 383.451 259.057 387.021 259.949C388.809 260.396 390.221 260.921 391.174 261.484C392.16 262.067 392.5 262.596 392.5 263C392.5 263.404 392.16 263.933 391.174 264.516C390.221 265.079 388.809 265.604 387.021 266.051C383.451 266.943 378.494 267.5 373 267.5C367.506 267.5 362.549 266.943 358.979 266.051C357.191 265.604 355.779 265.079 354.826 264.516C353.84 263.933 353.5 263.404 353.5 263C353.5 262.596 353.84 262.067 354.826 261.484C355.779 260.921 357.191 260.396 358.979 259.949C362.549 259.057 367.506 258.5 373 258.5Z" fill="#EE6300" stroke="black"/>
<path id="Ellipse 3" d="M373 217.5C378.769 217.5 383.975 218.113 387.723 219.095C389.6 219.587 391.085 220.163 392.087 220.784C393.116 221.422 393.5 222.015 393.5 222.5C393.5 222.985 393.116 223.578 392.087 224.216C391.085 224.837 389.6 225.413 387.723 225.905C383.975 226.887 378.769 227.5 373 227.5C367.231 227.5 362.025 226.887 358.277 225.905C356.4 225.413 354.915 224.837 353.913 224.216C352.884 223.578 352.5 222.985 352.5 222.5C352.5 222.015 352.884 221.422 353.913 220.784C354.915 220.163 356.4 219.587 358.277 219.095C362.025 218.113 367.231 217.5 373 217.5Z" fill="#EE6300" stroke="black"/>
<g id="Rectangle 30">
<mask id="path-8-inside-1_27_145" fill="white">
<path d="M353 219H393V263H353V219Z"/>
</mask>
<path d="M353 219H393V263H353V219Z" fill="#EE6300"/>
<path d="M393 219H392V263H393H394V219H393ZM353 263H354V219H353H352V263H353Z" fill="black" mask="url(#path-8-inside-1_27_145)"/>
</g>
<path id="Vector" d="M393.5 226C393.5 226.392 393.15 226.922 392.104 227.511C391.1 228.076 389.613 228.601 387.733 229.049C383.981 229.942 378.772 230.5 373 230.5C367.228 230.5 362.019 229.942 358.267 229.049C356.387 228.601 354.9 228.076 353.896 227.511C352.85 226.922 352.5 226.392 352.5 226V223.771C352.767 223.991 353.074 224.195 353.405 224.382C354.526 225.013 356.115 225.564 358.035 226.021C361.883 226.938 367.174 227.5 373 227.5C378.826 227.5 384.117 226.938 387.965 226.021C389.885 225.564 391.474 225.013 392.595 224.382C392.926 224.195 393.233 223.991 393.5 223.771V226Z" fill="#EE6300" stroke="black"/>
<path id="Vector_2" d="M393.5 219C393.5 219.392 393.15 219.922 392.104 220.511C391.1 221.076 389.613 221.601 387.733 222.049C383.981 222.942 378.772 223.5 373 223.5C367.228 223.5 362.019 222.942 358.267 222.049C356.387 221.601 354.9 221.076 353.896 220.511C352.85 219.922 352.5 219.392 352.5 219V216.771C352.767 216.991 353.074 217.195 353.405 217.382C354.526 218.013 356.115 218.564 358.035 219.021C361.883 219.938 367.174 220.5 373 220.5C378.826 220.5 384.117 219.938 387.965 219.021C389.885 218.564 391.474 218.013 392.595 217.382C392.926 217.195 393.233 216.991 393.5 216.771V219Z" fill="#EE6300" stroke="black"/>
<path id="Ellipse 2" d="M373 210.5C378.769 210.5 383.975 211.113 387.723 212.095C389.6 212.587 391.085 213.163 392.087 213.784C393.116 214.422 393.5 215.015 393.5 215.5C393.5 215.985 393.116 216.578 392.087 217.216C391.085 217.837 389.6 218.413 387.723 218.905C383.975 219.887 378.769 220.5 373 220.5C367.231 220.5 362.025 219.887 358.277 218.905C356.4 218.413 354.915 217.837 353.913 217.216C352.884 216.578 352.5 215.985 352.5 215.5C352.5 215.015 352.884 214.422 353.913 213.784C354.915 213.163 356.4 212.587 358.277 212.095C362.025 211.113 367.231 210.5 373 210.5Z" fill="#5A2600" stroke="black"/>
</g>
</g>
<g id="catch_2">
<g id="condensateScale">
<path id="Rectangle 27_2" d="M467.846 256.5H518.154C518.359 256.5 518.543 256.625 518.619 256.815L523.263 268.5H462.737L467.381 256.815C467.457 256.625 467.641 256.5 467.846 256.5Z" fill="#CECECE" stroke="black"/>
<rect id="Rectangle 29_2" x="462.5" y="268.5" width="61" height="3" rx="0.5" fill="#CECECE" stroke="black"/>
<rect id="Rectangle 28_2" x="462.5" y="271.5" width="61" height="17" rx="1.5" fill="#888888" stroke="black"/>
<rect id="condensateScreen" x="464.5" y="273.5" width="42" height="13" rx="1.5" fill="#141414" stroke="black"/>
<g id="condensateTareBtn">
<rect id="upBtnbase_2" x="509" y="274.5" width="11.4" height="11" rx="0.5" fill="#D51F1F" stroke="black"/>
</g>
</g>
<g id="bucket_2">
<path id="Ellipse 1_2" d="M493 257.5C498.494 257.5 503.451 258.057 507.021 258.949C508.809 259.396 510.221 259.921 511.174 260.484C512.16 261.067 512.5 261.596 512.5 262C512.5 262.404 512.16 262.933 511.174 263.516C510.221 264.079 508.809 264.604 507.021 265.051C503.451 265.943 498.494 266.5 493 266.5C487.506 266.5 482.549 265.943 478.979 265.051C477.191 264.604 475.779 264.079 474.826 263.516C473.84 262.933 473.5 262.404 473.5 262C473.5 261.596 473.84 261.067 474.826 260.484C475.779 259.921 477.191 259.396 478.979 258.949C482.549 258.057 487.506 257.5 493 257.5Z" fill="#EE6300" stroke="black"/>
<path id="Ellipse 3_2" d="M493 216.5C498.769 216.5 503.975 217.113 507.723 218.095C509.6 218.587 511.085 219.163 512.087 219.784C513.116 220.422 513.5 221.015 513.5 221.5C513.5 221.985 513.116 222.578 512.087 223.216C511.085 223.837 509.6 224.413 507.723 224.905C503.975 225.887 498.769 226.5 493 226.5C487.231 226.5 482.025 225.887 478.277 224.905C476.4 224.413 474.915 223.837 473.913 223.216C472.884 222.578 472.5 221.985 472.5 221.5C472.5 221.015 472.884 220.422 473.913 219.784C474.915 219.163 476.4 218.587 478.277 218.095C482.025 217.113 487.231 216.5 493 216.5Z" fill="#EE6300" stroke="black"/>
<g id="Rectangle 30_2">
<mask id="path-20-inside-2_27_145" fill="white">
<path d="M473 218H513V262H473V218Z"/>
</mask>
<path d="M473 218H513V262H473V218Z" fill="#EE6300"/>
<path d="M513 218H512V262H513H514V218H513ZM473 262H474V218H473H472V262H473Z" fill="black" mask="url(#path-20-inside-2_27_145)"/>
</g>
<path id="Vector_3" d="M513.5 225C513.5 225.392 513.15 225.922 512.104 226.511C511.1 227.076 509.613 227.601 507.733 228.049C503.981 228.942 498.772 229.5 493 229.5C487.228 229.5 482.019 228.942 478.267 228.049C476.387 227.601 474.9 227.076 473.896 226.511C472.85 225.922 472.5 225.392 472.5 225V222.771C472.767 222.991 473.074 223.195 473.405 223.382C474.526 224.013 476.115 224.564 478.035 225.021C481.883 225.938 487.174 226.5 493 226.5C498.826 226.5 504.117 225.938 507.965 225.021C509.885 224.564 511.474 224.013 512.595 223.382C512.926 223.195 513.233 222.991 513.5 222.771V225Z" fill="#EE6300" stroke="black"/>
<path id="Vector_4" d="M513.5 218C513.5 218.392 513.15 218.922 512.104 219.511C511.1 220.076 509.613 220.601 507.733 221.049C503.981 221.942 498.772 222.5 493 222.5C487.228 222.5 482.019 221.942 478.267 221.049C476.387 220.601 474.9 220.076 473.896 219.511C472.85 218.922 472.5 218.392 472.5 218V215.771C472.767 215.991 473.074 216.195 473.405 216.382C474.526 217.013 476.115 217.564 478.035 218.021C481.883 218.938 487.174 219.5 493 219.5C498.826 219.5 504.117 218.938 507.965 218.021C509.885 217.564 511.474 217.013 512.595 216.382C512.926 216.195 513.233 215.991 513.5 215.771V218Z" fill="#EE6300" stroke="black"/>
<path id="Ellipse 2_2" d="M493 209.5C498.769 209.5 503.975 210.113 507.723 211.095C509.6 211.587 511.085 212.163 512.087 212.784C513.116 213.422 513.5 214.015 513.5 214.5C513.5 214.985 513.116 215.578 512.087 216.216C511.085 216.837 509.6 217.413 507.723 217.905C503.975 218.887 498.769 219.5 493 219.5C487.231 219.5 482.025 218.887 478.277 217.905C476.4 217.413 474.915 216.837 473.913 216.216C472.884 215.578 472.5 214.985 472.5 214.5C472.5 214.015 472.884 213.422 473.913 212.784C474.915 212.163 476.4 211.587 478.277 211.095C482.025 210.113 487.231 209.5 493 209.5Z" fill="#5A2600" stroke="black"/>
</g>
</g>
<path id="wire" d="M166 40.5C184.5 40.5 216.826 98 181.5 98" stroke="black"/>
<g id="piping">
<g id="elbow">
<rect id="Rectangle 36" x="0.5" y="0.5" width="4" height="9" rx="0.5" transform="matrix(0 1 1 0 59 266)" fill="url(#paint0_linear_27_145)" stroke="black"/>
<rect id="Rectangle 37" x="0.5" y="-0.5" width="4" height="9" rx="0.5" transform="matrix(1 0 0 -1 69 280)" fill="url(#paint1_linear_27_145)" stroke="black"/>
<path id="Vector 1" d="M69.5 272.5C68.5 272.5 67.5 271.5 67.5 270.5H60.5C60.5 277.5 62.5 279.5 69.5 279.5V272.5Z" fill="url(#paint2_linear_27_145)" stroke="black"/>
</g>
<g id="elbow_2">
<rect id="Rectangle 36_2" x="0.5" y="0.5" width="4" height="9" rx="0.5" transform="matrix(0 1 1 0 238 257)" fill="url(#paint3_linear_27_145)" stroke="black"/>
<rect id="Rectangle 37_2" x="0.5" y="-0.5" width="4" height="9" rx="0.5" transform="matrix(1 0 0 -1 248 271)" fill="url(#paint4_linear_27_145)" stroke="black"/>
<path id="Vector 1_2" d="M248.5 263.5C247.5 263.5 246.5 262.5 246.5 261.5H239.5C239.5 268.5 241.5 270.5 248.5 270.5V263.5Z" fill="url(#paint5_linear_27_145)" stroke="black"/>
</g>
<g id="elbow_3">
<rect id="Rectangle 36_3" x="0.5" y="-0.5" width="4" height="9" rx="0.5" transform="matrix(1 0 0 -1 302 205)" fill="url(#paint6_linear_27_145)" stroke="black"/>
<rect id="Rectangle 37_3" x="-0.5" y="-0.5" width="4" height="9" rx="0.5" transform="matrix(0 -1 -1 0 316 195)" fill="url(#paint7_linear_27_145)" stroke="black"/>
<path id="Vector 1_3" d="M308.5 195.5C308.5 196.5 307.5 197.5 306.5 197.5V204.5C313.5 204.5 315.5 202.5 315.5 195.5H308.5Z" fill="url(#paint8_linear_27_145)" stroke="black"/>
</g>
<g id="elbow_4">
<rect id="Rectangle 36_4" x="0.5" y="-0.5" width="4" height="9" rx="0.5" transform="matrix(1 0 0 -1 320 271)" fill="url(#paint9_linear_27_145)" stroke="black"/>
<rect id="Rectangle 37_4" x="-0.5" y="-0.5" width="4" height="9" rx="0.5" transform="matrix(0 -1 -1 0 334 261)" fill="url(#paint10_linear_27_145)" stroke="black"/>
<path id="Vector 1_4" d="M326.5 261.5C326.5 262.5 325.5 263.5 324.5 263.5V270.5C331.5 270.5 333.5 268.5 333.5 261.5H326.5Z" fill="url(#paint11_linear_27_145)" stroke="black"/>
</g>
<g id="elbow_5">
<rect id="Rectangle 36_5" x="0.5" y="-0.5" width="4" height="9" rx="0.5" transform="matrix(1 0 0 -1 127 280)" fill="url(#paint12_linear_27_145)" stroke="black"/>
<rect id="Rectangle 37_5" x="-0.5" y="-0.5" width="4" height="9" rx="0.5" transform="matrix(0 -1 -1 0 141 270)" fill="url(#paint13_linear_27_145)" stroke="black"/>
<path id="Vector 1_5" d="M133.5 270.5C133.5 271.5 132.5 272.5 131.5 272.5V279.5C138.5 279.5 140.5 277.5 140.5 270.5H133.5Z" fill="url(#paint14_linear_27_145)" stroke="black"/>
</g>
<g id="elbow_6">
<rect id="Rectangle 36_6" x="132.5" y="126.5" width="4" height="9" rx="0.5" transform="matrix(0 -1 1 0 6 259)" fill="url(#paint15_linear_27_145)" stroke="black"/>
<rect id="Rectangle 37_6" x="142.5" y="112.5" width="4" height="9" rx="0.5" fill="url(#paint16_linear_27_145)" stroke="black"/>
<path id="Vector 1_6" d="M142.5 120.5C141.5 120.5 140.5 121.5 140.5 122.5H133.5C133.5 115.5 135.5 113.5 142.5 113.5V120.5Z" fill="url(#paint17_linear_27_145)" stroke="black"/>
</g>
<g id="elbow_7">
<rect id="Rectangle 36_7" x="307.5" y="79.5" width="4" height="9" rx="0.5" transform="rotate(-90 307.5 79.5)" fill="url(#paint18_linear_27_145)" stroke="black"/>
<rect id="Rectangle 37_7" x="317.5" y="65.5" width="4" height="9" rx="0.5" fill="url(#paint19_linear_27_145)" stroke="black"/>
<path id="Vector 1_7" d="M317.5 73.5C316.5 73.5 315.5 74.5 315.5 75.5H308.5C308.5 68.5 310.5 66.5 317.5 66.5V73.5Z" fill="url(#paint20_linear_27_145)" stroke="black"/>
</g>
<g id="elbow_8">
<rect id="Rectangle 36_8" x="325.5" y="118.5" width="4" height="9" rx="0.5" transform="rotate(-90 325.5 118.5)" fill="url(#paint21_linear_27_145)" stroke="black"/>
<rect id="Rectangle 37_8" x="335.5" y="104.5" width="4" height="9" rx="0.5" fill="url(#paint22_linear_27_145)" stroke="black"/>
<path id="Vector 1_8" d="M335.5 112.5C334.5 112.5 333.5 113.5 333.5 114.5H326.5C326.5 107.5 328.5 105.5 335.5 105.5V112.5Z" fill="url(#paint23_linear_27_145)" stroke="black"/>
</g>
<g id="elbow_9">
<rect id="Rectangle 36_9" x="368.5" y="182.5" width="4" height="9" rx="0.5" transform="rotate(-90 368.5 182.5)" fill="url(#paint24_linear_27_145)" stroke="black"/>
<rect id="Rectangle 37_9" x="378.5" y="168.5" width="4" height="9" rx="0.5" fill="url(#paint25_linear_27_145)" stroke="black"/>
<path id="Vector 1_9" d="M378.5 176.5C377.5 176.5 376.5 177.5 376.5 178.5H369.5C369.5 171.5 371.5 169.5 378.5 169.5V176.5Z" fill="url(#paint26_linear_27_145)" stroke="black"/>
</g>
<g id="elbow_10">
<rect id="Rectangle 36_10" x="0.5" y="0.5" width="4" height="9" rx="0.5" transform="matrix(0 1 1 0 97 128)" fill="url(#paint27_linear_27_145)" stroke="black"/>
<rect id="Rectangle 37_10" x="0.5" y="-0.5" width="4" height="9" rx="0.5" transform="matrix(1 0 0 -1 107 142)" fill="url(#paint28_linear_27_145)" stroke="black"/>
<path id="Vector 1_10" d="M107.5 134.5C106.5 134.5 105.5 133.5 105.5 132.5H98.5C98.5 139.5 100.5 141.5 107.5 141.5V134.5Z" fill="url(#paint29_linear_27_145)" stroke="black"/>
</g>
<g id="elbow_11">
<rect id="Rectangle 36_11" x="0.5" y="0.5" width="4" height="9" rx="0.5" transform="matrix(0 1 1 0 403 198)" fill="url(#paint30_linear_27_145)" stroke="black"/>
<rect id="Rectangle 37_11" x="0.5" y="-0.5" width="4" height="9" rx="0.5" transform="matrix(1 0 0 -1 413 212)" fill="url(#paint31_linear_27_145)" stroke="black"/>
<path id="Vector 1_11" d="M413.5 204.5C412.5 204.5 411.5 203.5 411.5 202.5H404.5C404.5 209.5 406.5 211.5 413.5 211.5V204.5Z" fill="url(#paint32_linear_27_145)" stroke="black"/>
</g>
<g id="elbow_12">
<rect id="Rectangle 36_12" x="-0.5" y="-0.5" width="4" height="9" rx="0.5" transform="matrix(0 -1 -1 0 387 79)" fill="url(#paint33_linear_27_145)" stroke="black"/>
<rect id="Rectangle 37_12" x="-0.5" y="0.5" width="4" height="9" rx="0.5" transform="matrix(-1 0 0 1 377 65)" fill="url(#paint34_linear_27_145)" stroke="black"/>
<path id="Vector 1_12" d="M377.5 73.5C378.5 73.5 379.5 74.5 379.5 75.5H386.5C386.5 68.5 384.5 66.5 377.5 66.5V73.5Z" fill="url(#paint35_linear_27_145)" stroke="black"/>
</g>
<g id="elbow_13">
<rect id="Rectangle 36_13" x="-0.5" y="-0.5" width="4" height="9" rx="0.5" transform="matrix(0 -1 -1 0 358 118)" fill="url(#paint36_linear_27_145)" stroke="black"/>
<rect id="Rectangle 37_13" x="-0.5" y="0.5" width="4" height="9" rx="0.5" transform="matrix(-1 0 0 1 348 104)" fill="url(#paint37_linear_27_145)" stroke="black"/>
<path id="Vector 1_13" d="M348.5 112.5C349.5 112.5 350.5 113.5 350.5 114.5H357.5C357.5 107.5 355.5 105.5 348.5 105.5V112.5Z" fill="url(#paint38_linear_27_145)" stroke="black"/>
</g>
<g id="elbow_14">
<rect id="Rectangle 36_14" x="-0.5" y="-0.5" width="4" height="9" rx="0.5" transform="matrix(0 -1 -1 0 431 217)" fill="url(#paint39_linear_27_145)" stroke="black"/>
<rect id="Rectangle 37_14" x="-0.5" y="0.5" width="4" height="9" rx="0.5" transform="matrix(-1 0 0 1 421 203)" fill="url(#paint40_linear_27_145)" stroke="black"/>
<path id="Vector 1_14" d="M421.5 211.5C422.5 211.5 423.5 212.5 423.5 213.5H430.5C430.5 206.5 428.5 204.5 421.5 204.5V211.5Z" fill="url(#paint41_linear_27_145)" stroke="black"/>
</g>
<g id="elbow_15">
<rect id="Rectangle 36_15" x="-0.5" y="-0.5" width="4" height="9" rx="0.5" transform="matrix(0 -1 -1 0 497 182)" fill="url(#paint42_linear_27_145)" stroke="black"/>
<rect id="Rectangle 37_15" x="-0.5" y="0.5" width="4" height="9" rx="0.5" transform="matrix(-1 0 0 1 487 168)" fill="url(#paint43_linear_27_145)" stroke="black"/>
<path id="Vector 1_15" d="M487.5 176.5C488.5 176.5 489.5 177.5 489.5 178.5H496.5C496.5 171.5 494.5 169.5 487.5 169.5V176.5Z" fill="url(#paint44_linear_27_145)" stroke="black"/>
</g>
<rect id="Rectangle 41" x="111.5" y="134.5" width="86" height="7" fill="url(#paint45_linear_27_145)" stroke="black"/>
<rect id="Rectangle 43" x="288.5" y="197.5" width="14" height="7" fill="url(#paint46_linear_27_145)" stroke="black"/>
<rect id="Rectangle 46" x="339.5" y="105.5" width="5" height="7" fill="url(#paint47_linear_27_145)" stroke="black"/>
<rect id="Rectangle 47" x="321.5" y="66.5" width="52" height="7" fill="url(#paint48_linear_27_145)" stroke="black"/>
<rect id="Rectangle 45" x="252.5" y="263.5" width="68" height="7" fill="url(#paint49_linear_27_145)" stroke="black"/>
<rect id="Rectangle 48" x="382.5" y="169.5" width="16" height="7" fill="url(#paint50_linear_27_145)" stroke="black"/>
<rect id="Rectangle 50" x="446.5" y="169.5" width="37" height="7" fill="url(#paint51_linear_27_145)" stroke="black"/>
<rect id="Rectangle 38" x="73.5" y="272.5" width="54" height="7" fill="url(#paint52_linear_27_145)" stroke="black"/>
<rect id="Rectangle 40" x="146.5" y="113.5" width="51" height="7" fill="url(#paint53_linear_27_145)" stroke="black"/>
<rect id="Rectangle 39" x="140.5" y="126.5" width="140" height="7" transform="rotate(90 140.5 126.5)" fill="url(#paint54_linear_27_145)" stroke="black"/>
<rect id="Rectangle 42" x="105.5" y="-5.5" width="134" height="7" transform="rotate(90 105.5 -5.5)" fill="url(#paint55_linear_27_145)" stroke="black"/>
<rect id="Rectangle 44" x="246.5" y="-3.5" width="73" height="7" transform="rotate(90 246.5 -3.5)" fill="url(#paint56_linear_27_145)" stroke="black"/>
<rect id="Rectangle 42_2" x="315.5" y="79.5" width="112" height="7" transform="rotate(90 315.5 79.5)" fill="url(#paint57_linear_27_145)" stroke="black"/>
<rect id="Rectangle 43_2" x="333.5" y="118.5" width="139" height="7" transform="rotate(90 333.5 118.5)" fill="url(#paint58_linear_27_145)" stroke="black"/>
<rect id="Rectangle 44_2" x="440.5" y="111.5" width="156" height="7" transform="rotate(90 440.5 111.5)" fill="url(#paint59_linear_27_145)" stroke="black"/>
<rect id="Rectangle 49" x="430.5" y="217.5" width="50" height="7" transform="rotate(90 430.5 217.5)" fill="url(#paint60_linear_27_145)" stroke="black"/>
<rect id="Rectangle 45_2" x="411.5" y="150.5" width="48" height="7" transform="rotate(90 411.5 150.5)" fill="url(#paint61_linear_27_145)" stroke="black"/>
<rect id="Rectangle 46_2" x="376.5" y="182.5" width="31" height="7" transform="rotate(90 376.5 182.5)" fill="url(#paint62_linear_27_145)" stroke="black"/>
<rect id="Rectangle 51" x="496.5" y="182.5" width="31" height="7" transform="rotate(90 496.5 182.5)" fill="url(#paint63_linear_27_145)" stroke="black"/>
</g>
<g id="evapInterior">
<rect id="Rectangle 19" x="249.5" y="251.5" width="6" height="13" rx="1.5" transform="rotate(90 249.5 251.5)" fill="url(#paint64_linear_27_145)" stroke="black"/>
<rect id="Rectangle 2" x="209.5" y="239.5" width="9" height="49" rx="1.5" fill="url(#paint65_linear_27_145)" stroke="black"/>
<rect id="Rectangle 3" x="267.5" y="239.5" width="9" height="49" rx="1.5" fill="url(#paint66_linear_27_145)" stroke="black"/>
<path id="evapExterior" d="M213 75.5H273C278.247 75.5 282.5 79.7533 282.5 85V232.416C282.5 236.035 280.454 239.332 277.193 240.884C272.314 243.206 264.982 246.618 258.242 249.449C254.872 250.865 251.655 252.132 248.972 253.045C246.263 253.966 244.167 254.5 243 254.5C241.833 254.5 239.737 253.966 237.028 253.045C234.345 252.132 231.128 250.865 227.758 249.449C221.018 246.618 213.686 243.206 208.807 240.884C205.546 239.332 203.5 236.035 203.5 232.416V85C203.5 79.7533 207.753 75.5 213 75.5Z" fill="url(#paint67_linear_27_145)" stroke="black"/>
<rect id="Rectangle 16" x="197.5" y="110.5" width="6" height="13" rx="1.5" fill="url(#paint68_linear_27_145)" stroke="black"/>
<rect id="Rectangle 20" x="236.5" y="75.5" width="6" height="13" rx="1.5" transform="rotate(-90 236.5 75.5)" fill="url(#paint69_linear_27_145)" stroke="black"/>
<rect id="Rectangle 17" x="197.5" y="131.5" width="6" height="13" rx="1.5" fill="url(#paint70_linear_27_145)" stroke="black"/>
<rect id="Rectangle 18" x="282.5" y="194.5" width="6" height="13" rx="1.5" fill="url(#paint71_linear_27_145)" stroke="black"/>
<g id="steamChest">
<mask id="path-98-inside-3_27_145" fill="white">
<path d="M267 131C270.314 131 273 133.686 273 137V195H283V207H270.316C269.366 207.631 268.226 208 267 208H219C215.686 208 213 205.314 213 202V144H203V132H215.684C216.634 131.369 217.774 131 219 131H267ZM223 144C221.895 144 221 144.895 221 146V194C221 195.105 221.895 196 223 196C224.105 196 225 195.105 225 194V146C225 144.895 224.105 144 223 144ZM231 144C229.895 144 229 144.895 229 146V194C229 195.105 229.895 196 231 196C232.105 196 233 195.105 233 194V146C233 144.895 232.105 144 231 144ZM239 144C237.895 144 237 144.895 237 146V194C237 195.105 237.895 196 239 196C240.105 196 241 195.105 241 194V146C241 144.895 240.105 144 239 144ZM247 144C245.895 144 245 144.895 245 146V194C245 195.105 245.895 196 247 196C248.105 196 249 195.105 249 194V146C249 144.895 248.105 144 247 144ZM255 144C253.895 144 253 144.895 253 146V194C253 195.105 253.895 196 255 196C256.105 196 257 195.105 257 194V146C257 144.895 256.105 144 255 144ZM263 144C261.895 144 261 144.895 261 146V194C261 195.105 261.895 196 263 196C264.105 196 265 195.105 265 194V146C265 144.895 264.105 144 263 144Z"/>
</mask>
<path d="M267 131C270.314 131 273 133.686 273 137V195H283V207H270.316C269.366 207.631 268.226 208 267 208H219C215.686 208 213 205.314 213 202V144H203V132H215.684C216.634 131.369 217.774 131 219 131H267ZM223 144C221.895 144 221 144.895 221 146V194C221 195.105 221.895 196 223 196C224.105 196 225 195.105 225 194V146C225 144.895 224.105 144 223 144ZM231 144C229.895 144 229 144.895 229 146V194C229 195.105 229.895 196 231 196C232.105 196 233 195.105 233 194V146C233 144.895 232.105 144 231 144ZM239 144C237.895 144 237 144.895 237 146V194C237 195.105 237.895 196 239 196C240.105 196 241 195.105 241 194V146C241 144.895 240.105 144 239 144ZM247 144C245.895 144 245 144.895 245 146V194C245 195.105 245.895 196 247 196C248.105 196 249 195.105 249 194V146C249 144.895 248.105 144 247 144ZM255 144C253.895 144 253 144.895 253 146V194C253 195.105 253.895 196 255 196C256.105 196 257 195.105 257 194V146C257 144.895 256.105 144 255 144ZM263 144C261.895 144 261 144.895 261 146V194C261 195.105 261.895 196 263 196C264.105 196 265 195.105 265 194V146C265 144.895 264.105 144 263 144Z" fill="#93B9FF"/>
<path d="M267 131V130V131ZM273 195H272V196H273V195ZM283 195H284V194H283V195ZM283 207V208H284V207H283ZM270.316 207V206H270.014L269.763 206.167L270.316 207ZM267 208V209V208ZM219 208V209V208ZM213 144H214V143H213V144ZM203 144H202V145H203V144ZM203 132V131H202V132H203ZM215.684 132V133H215.986L216.237 132.833L215.684 132ZM219 131V130V131ZM221 146L220 146V146H221ZM221 194H220H221ZM225 194H226H225ZM225 146H226H225ZM229 146L228 146V146H229ZM229 194H228H229ZM233 194H234H233ZM233 146H234H233ZM237 146L236 146V146H237ZM237 194H236H237ZM241 194H242H241ZM241 146H242H241ZM245 146L244 146V146H245ZM245 194H244H245ZM249 194H250H249ZM249 146H250H249ZM253 146L252 146V146H253ZM253 194H252H253ZM257 194H258H257ZM257 146H258H257ZM261 146L260 146V146H261ZM261 194H260H261ZM265 194H266H265ZM265 146H266H265ZM267 131V132C269.761 132 272 134.239 272 137H273H274C274 133.134 270.866 130 267 130V131ZM273 137H272V195H273H274V137H273ZM273 195V196H283V195V194H273V195ZM283 195H282V207H283H284V195H283ZM283 207V206H270.316V207V208H283V207ZM270.316 207L269.763 206.167C268.971 206.693 268.023 207 267 207V208V209C268.43 209 269.761 208.57 270.87 207.833L270.316 207ZM267 208V207H219V208V209H267V208ZM219 208V207C216.239 207 214 204.761 214 202H213H212C212 205.866 215.134 209 219 209V208ZM213 202H214V144H213H212V202H213ZM213 144V143H203V144V145H213V144ZM203 144H204V132H203H202V144H203ZM203 132V133H215.684V132V131H203V132ZM215.684 132L216.237 132.833C217.029 132.307 217.977 132 219 132V131V130C217.57 130 216.239 130.43 215.13 131.167L215.684 132ZM219 131V132H267V131V130H219V131ZM223 144V143C221.343 143 220 144.343 220 146L221 146L222 146C222 145.448 222.448 145 223 145V144ZM221 146H220V194H221H222V146H221ZM221 194H220C220 195.657 221.343 197 223 197V196V195C222.448 195 222 194.552 222 194H221ZM223 196V197C224.657 197 226 195.657 226 194H225H224C224 194.552 223.552 195 223 195V196ZM225 194H226V146H225H224V194H225ZM225 146H226C226 144.343 224.657 143 223 143V144V145C223.552 145 224 145.448 224 146H225ZM231 144V143C229.343 143 228 144.343 228 146L229 146L230 146C230 145.448 230.448 145 231 145V144ZM229 146H228V194H229H230V146H229ZM229 194H228C228 195.657 229.343 197 231 197V196V195C230.448 195 230 194.552 230 194H229ZM231 196V197C232.657 197 234 195.657 234 194H233H232C232 194.552 231.552 195 231 195V196ZM233 194H234V146H233H232V194H233ZM233 146H234C234 144.343 232.657 143 231 143V144V145C231.552 145 232 145.448 232 146H233ZM239 144V143C237.343 143 236 144.343 236 146L237 146L238 146C238 145.448 238.448 145 239 145V144ZM237 146H236V194H237H238V146H237ZM237 194H236C236 195.657 237.343 197 239 197V196V195C238.448 195 238 194.552 238 194H237ZM239 196V197C240.657 197 242 195.657 242 194H241H240C240 194.552 239.552 195 239 195V196ZM241 194H242V146H241H240V194H241ZM241 146H242C242 144.343 240.657 143 239 143V144V145C239.552 145 240 145.448 240 146H241ZM247 144V143C245.343 143 244 144.343 244 146L245 146L246 146C246 145.448 246.448 145 247 145V144ZM245 146H244V194H245H246V146H245ZM245 194H244C244 195.657 245.343 197 247 197V196V195C246.448 195 246 194.552 246 194H245ZM247 196V197C248.657 197 250 195.657 250 194H249H248C248 194.552 247.552 195 247 195V196ZM249 194H250V146H249H248V194H249ZM249 146H250C250 144.343 248.657 143 247 143V144V145C247.552 145 248 145.448 248 146H249ZM255 144V143C253.343 143 252 144.343 252 146L253 146L254 146C254 145.448 254.448 145 255 145V144ZM253 146H252V194H253H254V146H253ZM253 194H252C252 195.657 253.343 197 255 197V196V195C254.448 195 254 194.552 254 194H253ZM255 196V197C256.657 197 258 195.657 258 194H257H256C256 194.552 255.552 195 255 195V196ZM257 194H258V146H257H256V194H257ZM257 146H258C258 144.343 256.657 143 255 143V144V145C255.552 145 256 145.448 256 146H257ZM263 144V143C261.343 143 260 144.343 260 146L261 146L262 146C262 145.448 262.448 145 263 145V144ZM261 146H260V194H261H262V146H261ZM261 194H260C260 195.657 261.343 197 263 197V196V195C262.448 195 262 194.552 262 194H261ZM263 196V197C264.657 197 266 195.657 266 194H265H264C264 194.552 263.552 195 263 195V196ZM265 194H266V146H265H264V194H265ZM265 146H266C266 144.343 264.657 143 263 143V144V145C263.552 145 264 145.448 264 146H265Z" fill="black" mask="url(#path-98-inside-3_27_145)"/>
</g>
</g>
<g id="jacketedTank">
<g id="motor">
<rect id="Rectangle 7" x="68.5" y="125.5" width="24" height="10" rx="3.5" transform="rotate(90 68.5 125.5)" fill="#5B8BF3" stroke="black"/>
<line id="Line 1" x1="60.5" y1="129.5" x2="60.5" y2="145.5" stroke="#2F3B55" stroke-linecap="round"/>
<line id="Line 2" x1="62.5" y1="129.5" x2="62.5" y2="145.5" stroke="#2F3B55" stroke-linecap="round"/>
<line id="Line 3" x1="64.5" y1="129.5" x2="64.5" y2="145.5" stroke="#2F3B55" stroke-linecap="round"/>
<line id="Line 4" x1="66.5" y1="129.5" x2="66.5" y2="145.5" stroke="#2F3B55" stroke-linecap="round"/>
</g>
<rect id="Rectangle 2_2" x="20.5" y="239.5" width="9" height="49" rx="1.5" fill="url(#paint72_linear_27_145)" stroke="black"/>
<rect id="Rectangle 3_2" x="98.5" y="239.5" width="9" height="49" rx="1.5" fill="url(#paint73_linear_27_145)" stroke="black"/>
<rect id="Rectangle 4" x="24.5" y="150.5" width="79" height="7" fill="url(#paint74_linear_27_145)" stroke="black"/>
<rect id="Rectangle 5" x="20.5" y="148.5" width="89" height="3" rx="1.5" fill="url(#paint75_linear_27_145)" stroke="black"/>
<path id="Rectangle 1" d="M24 157.5H104C109.247 157.5 113.5 161.753 113.5 167V236.471C113.5 237.941 113.169 239.361 112.412 240.577C108.434 246.973 93.8467 266.5 64 266.5C34.1533 266.5 19.5657 246.973 15.5879 240.577C14.8312 239.361 14.5 237.941 14.5 236.471V167C14.5 161.753 18.7533 157.5 24 157.5Z" fill="url(#paint76_linear_27_145)" stroke="black"/>
</g>
<g id="pneumaticValve">
<rect id="Rectangle 14" x="159.5" y="112.5" width="23" height="9" fill="url(#paint77_linear_27_145)" stroke="black"/>
<rect id="Rectangle 12" x="166.5" y="109.5" width="9" height="3" rx="0.5" fill="#4B0000" stroke="black"/>
<rect id="Rectangle 6" x="169.5" y="87.5" width="3" height="19" fill="url(#paint78_linear_27_145)" stroke="black"/>
<rect id="Rectangle 11" x="167.5" y="95.5" width="7" height="2" rx="0.5" fill="url(#paint79_linear_27_145)" stroke="black"/>
<g id="Subtract">
<path d="M181 106C181 108.209 179.209 110 177 110H165C162.791 110 161 108.209 161 106V85H181V106ZM166 88C164.895 88 164 88.8954 164 90V104C164 105.105 164.895 106 166 106H176C177.105 106 178 105.105 178 104V90C178 88.8954 177.105 88 176 88H166Z" fill="#C82D2D"/>
<path d="M181 106H181.5H181ZM177 110V110.5V110ZM161 85V84.5H160.5V85H161ZM181 85H181.5V84.5H181V85ZM166 88V87.5V88ZM164 104H163.5H164ZM176 106V106.5V106ZM178 90H178.5H178ZM181 106H180.5C180.5 107.933 178.933 109.5 177 109.5V110V110.5C179.485 110.5 181.5 108.485 181.5 106H181ZM177 110V109.5H165V110V110.5H177V110ZM165 110V109.5C163.067 109.5 161.5 107.933 161.5 106H161H160.5C160.5 108.485 162.515 110.5 165 110.5V110ZM161 106H161.5V85H161H160.5V106H161ZM161 85V85.5H181V85V84.5H161V85ZM181 85H180.5V106H181H181.5V85H181ZM166 88V87.5C164.619 87.5 163.5 88.6193 163.5 90H164H164.5C164.5 89.1716 165.172 88.5 166 88.5V88ZM164 90H163.5V104H164H164.5V90H164ZM164 104H163.5C163.5 105.381 164.619 106.5 166 106.5V106V105.5C165.172 105.5 164.5 104.828 164.5 104H164ZM166 106V106.5H176V106V105.5H166V106ZM176 106V106.5C177.381 106.5 178.5 105.381 178.5 104H178H177.5C177.5 104.828 176.828 105.5 176 105.5V106ZM178 104H178.5V90H178H177.5V104H178ZM178 90H178.5C178.5 88.6193 177.381 87.5 176 87.5V88V88.5C176.828 88.5 177.5 89.1716 177.5 90H178ZM176 88V87.5H166V88V88.5H176V88Z" fill="black"/>
</g>
<rect id="Rectangle 8" x="151.5" y="71.5" width="39" height="14" rx="7" fill="#C82D2D" stroke="black"/>
<rect id="Rectangle 10" x="167.5" y="69.5" width="8" height="2" rx="0.5" fill="#C82D2D" stroke="black"/>
<g id="screws">
<rect id="Rectangle 11_2" x="150.25" y="75.25" width="2.5" height="6.5" rx="0.75" fill="#C82D2D" stroke="black" stroke-width="0.5"/>
<rect id="Rectangle 11_3" x="160.25" y="75.25" width="2.5" height="6.5" rx="0.75" fill="#C82D2D" stroke="black" stroke-width="0.5"/>
<rect id="Rectangle 11_4" x="170.25" y="75.25" width="2.5" height="6.5" rx="0.75" fill="#C82D2D" stroke="black" stroke-width="0.5"/>
<rect id="Rectangle 11_5" x="180.25" y="75.25" width="2.5" height="6.5" rx="0.75" fill="#C82D2D" stroke="black" stroke-width="0.5"/>
<rect id="Rectangle 11_6" x="190.25" y="75.25" width="2.5" height="6.5" rx="0.75" fill="#C82D2D" stroke="black" stroke-width="0.5"/>
</g>
<rect id="Rectangle 9" x="146.5" y="76.5" width="49" height="4" rx="2" fill="#C82D2D" stroke="black"/>
<line id="Line 5" x1="147" y1="78.5" x2="195" y2="78.5" stroke="black"/>
<rect id="Rectangle 13" x="154.5" y="110.5" width="5" height="13" rx="1.5" fill="url(#paint80_linear_27_145)" stroke="black"/>
<rect id="Rectangle 15" x="182.5" y="110.5" width="5" height="13" rx="1.5" fill="url(#paint81_linear_27_145)" stroke="black"/>
</g>
<g id="tempSp">
<rect id="body" x="60.5" y="188.5" width="36" height="46" rx="1.5" fill="#888888" stroke="black"/>
<rect id="body_2" x="62.5" y="203.5" width="32" height="29" rx="1.5" fill="#CECECE" stroke="black"/>
<rect id="screen" x="64.5" y="205.5" width="28" height="13" rx="1.5" fill="#141414" stroke="black"/>
<g id="tempDownBtn">
<rect id="downBtn" x="80.5" y="221.5" width="11" height="9" rx="0.5" fill="#D51F1F" stroke="black"/>
<path id="Polygon 2" d="M86.4326 227.75C86.2522 228.062 85.8186 228.082 85.6064 227.809L85.5674 227.75L83.835 224.75C83.6426 224.417 83.8829 224 84.2676 224H87.7324C88.093 224 88.3268 224.366 88.1963 224.687L88.165 224.75L86.4326 227.75Z" fill="#590F0F" stroke="#310000"/>
</g>
<g id="tempUpBtn">
<rect id="upBtnbase_3" x="65.5" y="221.5" width="11" height="9" rx="0.5" fill="#D51F1F" stroke="black"/>
<path id="Polygon 1" d="M70.5674 224.25C70.7478 223.938 71.1814 223.918 71.3936 224.191L71.4326 224.25L73.165 227.25C73.3574 227.583 73.1171 228 72.7324 228H69.2676C68.907 228 68.6732 227.634 68.8037 227.313L68.835 227.25L70.5674 224.25Z" fill="#590F0F" stroke="#310000"/>
</g>
<rect id="body_3" x="62.5" y="190.5" width="32" height="11" rx="1.5" fill="#CECECE" stroke="black"/>
<path id="&#194;&#176;C" d="M74.8182 195.75C74.5777 195.75 74.358 195.691 74.1591 195.574C73.9621 195.456 73.8049 195.299 73.6875 195.102C73.5701 194.903 73.5114 194.684 73.5114 194.443C73.5114 194.203 73.5701 193.984 73.6875 193.787C73.8049 193.588 73.9621 193.43 74.1591 193.312C74.358 193.195 74.5777 193.136 74.8182 193.136C75.0587 193.136 75.2775 193.195 75.4744 193.312C75.6733 193.43 75.8314 193.588 75.9489 193.787C76.0663 193.984 76.125 194.203 76.125 194.443C76.125 194.684 76.0663 194.903 75.9489 195.102C75.8314 195.299 75.6733 195.456 75.4744 195.574C75.2775 195.691 75.0587 195.75 74.8182 195.75ZM74.8182 195.182C74.9545 195.182 75.0786 195.149 75.1903 195.082C75.3021 195.016 75.3911 194.927 75.4574 194.815C75.5237 194.704 75.5568 194.58 75.5568 194.443C75.5568 194.307 75.5237 194.183 75.4574 194.071C75.3911 193.959 75.3021 193.87 75.1903 193.804C75.0786 193.738 74.9545 193.705 74.8182 193.705C74.6818 193.705 74.5578 193.738 74.446 193.804C74.3343 193.87 74.2453 193.959 74.179 194.071C74.1127 194.183 74.0795 194.307 74.0795 194.443C74.0795 194.58 74.1127 194.704 74.179 194.815C74.2453 194.927 74.3343 195.016 74.446 195.082C74.5578 195.149 74.6818 195.182 74.8182 195.182ZM81.9254 195H81.2209C81.1792 194.797 81.1063 194.619 81.0021 194.466C80.8999 194.312 80.7749 194.184 80.6271 194.08C80.4813 193.973 80.3194 193.894 80.1413 193.841C79.9633 193.788 79.7777 193.761 79.5845 193.761C79.2322 193.761 78.9131 193.85 78.6271 194.028C78.343 194.206 78.1167 194.469 77.9482 194.815C77.7815 195.162 77.6982 195.587 77.6982 196.091C77.6982 196.595 77.7815 197.02 77.9482 197.366C78.1167 197.713 78.343 197.975 78.6271 198.153C78.9131 198.331 79.2322 198.42 79.5845 198.42C79.7777 198.42 79.9633 198.394 80.1413 198.341C80.3194 198.288 80.4813 198.209 80.6271 198.105C80.7749 197.999 80.8999 197.869 81.0021 197.716C81.1063 197.561 81.1792 197.383 81.2209 197.182H81.9254C81.8724 197.479 81.7758 197.745 81.6357 197.98C81.4955 198.215 81.3213 198.415 81.1129 198.58C80.9046 198.742 80.6707 198.866 80.4112 198.952C80.1536 199.037 79.8781 199.08 79.5845 199.08C79.0883 199.08 78.647 198.958 78.2607 198.716C77.8743 198.473 77.5703 198.129 77.3487 197.682C77.1271 197.235 77.0163 196.705 77.0163 196.091C77.0163 195.477 77.1271 194.947 77.3487 194.5C77.5703 194.053 77.8743 193.708 78.2607 193.466C78.647 193.223 79.0883 193.102 79.5845 193.102C79.8781 193.102 80.1536 193.145 80.4112 193.23C80.6707 193.315 80.9046 193.44 81.1129 193.605C81.3213 193.768 81.4955 193.967 81.6357 194.202C81.7758 194.435 81.8724 194.701 81.9254 195Z" fill="black"/>
</g>
<g id="flowSp">
<rect id="body_4" x="129.5" y="14.5" width="36" height="46" rx="1.5" fill="#888888" stroke="black"/>
<rect id="body_5" x="131.5" y="29.5" width="32" height="29" rx="1.5" fill="#CECECE" stroke="black"/>
<rect id="screen_2" x="133.5" y="31.5" width="28" height="13" rx="1.5" fill="#141414" stroke="black"/>
<g id="flowDownBtn">
<rect id="downBtn_2" x="149.5" y="47.5" width="11" height="9" rx="0.5" fill="#D51F1F" stroke="black"/>
<path id="Polygon 2_2" d="M155.433 53.75C155.252 54.0623 154.819 54.0819 154.606 53.8086L154.567 53.75L152.835 50.75C152.643 50.4168 152.883 50.0003 153.268 50H156.732C157.093 50.0003 157.327 50.3662 157.196 50.6865L157.165 50.75L155.433 53.75Z" fill="#590F0F" stroke="#310000"/>
</g>
<g id="flowUpBtn">
<rect id="upBtnbase_4" x="134.5" y="47.5" width="11" height="9" rx="0.5" fill="#D51F1F" stroke="black"/>
<path id="Polygon 1_2" d="M139.567 50.25C139.748 49.9377 140.181 49.9181 140.394 50.1914L140.433 50.25L142.165 53.25C142.357 53.5832 142.117 53.9997 141.732 54H138.268C137.907 53.9997 137.673 53.6338 137.804 53.3135L137.835 53.25L139.567 50.25Z" fill="#590F0F" stroke="#310000"/>
</g>
<rect id="body_6" x="131.5" y="16.5" width="32" height="11" rx="1.5" fill="#CECECE" stroke="black"/>
<path id="kg/min" d="M136.239 23.4091L136.227 22.5795H136.364L138.273 20.6364H139.102L137.068 22.6932H137.011L136.239 23.4091ZM135.614 25V19.1818H136.284V25H135.614ZM138.386 25L136.682 22.8409L137.159 22.375L139.239 25H138.386ZM141.547 26.7273C141.223 26.7273 140.945 26.6856 140.712 26.6023C140.479 26.5208 140.285 26.4129 140.129 26.2784C139.976 26.1458 139.854 26.0038 139.763 25.8523L140.297 25.4773C140.357 25.5568 140.434 25.6477 140.527 25.75C140.62 25.8542 140.747 25.9441 140.908 26.0199C141.071 26.0975 141.284 26.1364 141.547 26.1364C141.899 26.1364 142.19 26.0511 142.419 25.8807C142.648 25.7102 142.763 25.4432 142.763 25.0795V24.1932H142.706C142.657 24.2727 142.587 24.3712 142.496 24.4886C142.407 24.6042 142.278 24.7074 142.109 24.7983C141.943 24.8873 141.717 24.9318 141.433 24.9318C141.081 24.9318 140.765 24.8485 140.484 24.6818C140.206 24.5152 139.985 24.2727 139.822 23.9545C139.661 23.6364 139.581 23.25 139.581 22.7955C139.581 22.3485 139.66 21.9593 139.817 21.6278C139.974 21.2945 140.193 21.0369 140.473 20.8551C140.753 20.6714 141.077 20.5795 141.445 20.5795C141.729 20.5795 141.954 20.6269 142.121 20.7216C142.289 20.8144 142.418 20.9205 142.507 21.0398C142.598 21.1572 142.668 21.2538 142.717 21.3295H142.786V20.6364H143.433V25.125C143.433 25.5 143.348 25.8049 143.178 26.0398C143.009 26.2765 142.782 26.4498 142.496 26.5597C142.212 26.6714 141.895 26.7273 141.547 26.7273ZM141.524 24.3295C141.793 24.3295 142.02 24.268 142.206 24.1449C142.392 24.0218 142.533 23.8447 142.629 23.6136C142.726 23.3826 142.774 23.1061 142.774 22.7841C142.774 22.4697 142.727 22.1922 142.632 21.9517C142.537 21.7112 142.397 21.5227 142.212 21.3864C142.026 21.25 141.797 21.1818 141.524 21.1818C141.24 21.1818 141.003 21.2538 140.814 21.3977C140.626 21.5417 140.485 21.7348 140.391 21.9773C140.298 22.2197 140.251 22.4886 140.251 22.7841C140.251 23.0871 140.299 23.3551 140.393 23.5881C140.49 23.8191 140.632 24.0009 140.82 24.1335C141.009 24.2642 141.244 24.3295 141.524 24.3295ZM146.717 18.9091L144.842 25.875H144.229L146.104 18.9091H146.717ZM147.512 25V20.6364H148.16V21.3182H148.217C148.308 21.0852 148.454 20.9044 148.657 20.7756C148.86 20.6449 149.103 20.5795 149.387 20.5795C149.675 20.5795 149.915 20.6449 150.106 20.7756C150.299 20.9044 150.45 21.0852 150.558 21.3182H150.603C150.715 21.0928 150.882 20.9138 151.106 20.7812C151.329 20.6468 151.597 20.5795 151.91 20.5795C152.3 20.5795 152.619 20.7017 152.867 20.946C153.115 21.1884 153.239 21.5663 153.239 22.0795V25H152.569V22.0795C152.569 21.7576 152.481 21.5275 152.305 21.3892C152.129 21.2509 151.921 21.1818 151.683 21.1818C151.376 21.1818 151.138 21.2746 150.969 21.4602C150.801 21.6439 150.717 21.8769 150.717 22.1591V25H150.035V22.0114C150.035 21.7633 149.954 21.5634 149.793 21.4119C149.632 21.2585 149.425 21.1818 149.171 21.1818C148.997 21.1818 148.834 21.2282 148.683 21.321C148.533 21.4138 148.412 21.5426 148.319 21.7074C148.228 21.8703 148.183 22.0587 148.183 22.2727V25H147.512ZM154.465 25V20.6364H155.136V25H154.465ZM154.806 19.9091C154.675 19.9091 154.563 19.8646 154.468 19.7756C154.375 19.6866 154.329 19.5795 154.329 19.4545C154.329 19.3295 154.375 19.2225 154.468 19.1335C154.563 19.0445 154.675 19 154.806 19C154.937 19 155.049 19.0445 155.141 19.1335C155.236 19.2225 155.283 19.3295 155.283 19.4545C155.283 19.5795 155.236 19.6866 155.141 19.7756C155.049 19.8646 154.937 19.9091 154.806 19.9091ZM157.034 22.375V25H156.364V20.6364H157.011V21.3182H157.068C157.17 21.0966 157.326 20.9186 157.534 20.7841C157.742 20.6477 158.011 20.5795 158.341 20.5795C158.636 20.5795 158.895 20.6402 159.116 20.7614C159.338 20.8807 159.51 21.0625 159.634 21.3068C159.757 21.5492 159.818 21.8561 159.818 22.2273V25H159.148V22.2727C159.148 21.9299 159.059 21.6629 158.881 21.4716C158.703 21.2784 158.458 21.1818 158.148 21.1818C157.934 21.1818 157.742 21.2282 157.574 21.321C157.407 21.4138 157.276 21.5492 157.179 21.7273C157.082 21.9053 157.034 22.1212 157.034 22.375Z" fill="black"/>
</g>
<g id="rotameter">
<rect id="Rectangle 16_2" x="238.5" y="50.5" width="23" height="9" transform="rotate(-90 238.5 50.5)" fill="url(#paint82_linear_27_145)" stroke="black"/>
<rect id="Rectangle 17_2" x="236.5" y="55.5" width="5" height="13" rx="1.5" transform="rotate(-90 236.5 55.5)" fill="url(#paint83_linear_27_145)" stroke="black"/>
<rect id="Rectangle 18_2" x="236.5" y="27.5" width="5" height="13" rx="1.5" transform="rotate(-90 236.5 27.5)" fill="url(#paint84_linear_27_145)" stroke="black"/>
<rect id="Rectangle 19_2" x="247.5" y="43.5" width="9" height="5" rx="0.5" transform="rotate(-90 247.5 43.5)" fill="url(#paint85_linear_27_145)" stroke="black"/>
<g id="Group 1">
<circle id="Ellipse 4" cx="266" cy="38" r="15.5" fill="#5B8BF3" stroke="black"/>
<circle id="Ellipse 5" cx="266" cy="38" r="12.5" fill="#CECECE" stroke="black"/>
<g id="majorTicks">
<path id="Line 7" d="M263.041 49.4142L263.922 48.2006" stroke="black" stroke-width="0.25"/>
<path id="Line 7_2" d="M261.305 47.9314L262.365 46.8707" stroke="black" stroke-width="0.25"/>
<path id="Line 7_3" d="M259.822 46.1952L261.035 45.3135" stroke="black" stroke-width="0.25"/>
<path id="Line 7_4" d="M258.629 44.2485L259.965 43.5675" stroke="black" stroke-width="0.25"/>
<path id="Line 7_5" d="M257.755 42.1392L259.182 41.6756" stroke="black" stroke-width="0.25"/>
<path id="Line 7_6" d="M257.222 39.9191L258.704 39.6844" stroke="black" stroke-width="0.25"/>
<path id="Line 7_7" d="M257.043 37.6429L258.543 37.6429" stroke="black" stroke-width="0.25"/>
<path id="Line 7_8" d="M257.222 35.3668L258.704 35.6015" stroke="black" stroke-width="0.25"/>
<path id="Line 7_9" d="M257.755 33.1468L259.182 33.6103" stroke="black" stroke-width="0.25"/>
<path id="Line 7_10" d="M258.629 31.0374L259.965 31.7184" stroke="black" stroke-width="0.25"/>
<path id="Line 7_11" d="M259.822 29.0907L261.035 29.9723" stroke="black" stroke-width="0.25"/>
<path id="Line 7_12" d="M261.305 27.3546L262.365 28.4152" stroke="black" stroke-width="0.25"/>
</g>
<g id="minorTicks">
<path id="Line 7_13" d="M262.176 48.6188L262.825 47.8584" stroke="black" stroke-width="0.25"/>
<path id="Line 7_14" d="M260.567 47.0099L261.327 46.3605" stroke="black" stroke-width="0.25"/>
<path id="Line 7_15" d="M259.23 45.1692L260.082 44.6467" stroke="black" stroke-width="0.25"/>
<path id="Line 7_16" d="M258.197 43.1418L259.121 42.7592" stroke="black" stroke-width="0.25"/>
<path id="Line 7_17" d="M257.494 40.9779L258.466 40.7445" stroke="black" stroke-width="0.25"/>
<path id="Line 7_18" d="M257.138 38.7306L258.135 38.6521" stroke="black" stroke-width="0.25"/>
<path id="Line 7_19" d="M257.138 36.4553L258.135 36.5338" stroke="black" stroke-width="0.25"/>
<path id="Line 7_20" d="M257.494 34.208L258.466 34.4414" stroke="black" stroke-width="0.25"/>
<path id="Line 7_21" d="M258.197 32.044L259.121 32.4267" stroke="black" stroke-width="0.25"/>
<path id="Line 7_22" d="M259.23 30.0167L260.082 30.5392" stroke="black" stroke-width="0.25"/>
<path id="Line 7_23" d="M260.567 28.1759L261.327 28.8254" stroke="black" stroke-width="0.25"/>
</g>
<path id="Line 8" d="M275.99 39.0932C275.997 39.0311 276.003 38.9689 276.01 38.9068C275.695 38.8527 275.381 38.8007 275.066 38.7508C273.806 38.5512 272.543 38.3847 271.276 38.2514C266.843 37.7847 262.405 37.3632 257.962 36.9867C257.645 36.9598 257.327 36.9332 257.01 36.9068C257.003 36.9689 256.997 37.0311 256.99 37.0932C257.306 37.1335 257.622 37.1735 257.938 37.2133C262.362 37.7702 266.79 38.282 271.224 38.7486C272.49 38.882 273.761 38.9821 275.034 39.0492C275.353 39.0659 275.671 39.0806 275.99 39.0932Z" fill="#DD0000"/>
</g>
</g>
<g id="steamTrap">
<path id="Rectangle 31" d="M347 63.5C347.828 63.5 348.5 64.1716 348.5 65V86C348.5 86.8284 347.828 87.5 347 87.5H337C333.962 87.5 331.5 85.0376 331.5 82V63.5H347Z" fill="#364C7C" stroke="black"/>
<path id="Rectangle 33" d="M356.5 64.5V75.5H350.5V64.5H356.5Z" fill="#364C7C" stroke="black"/>
<rect id="Rectangle 21" x="332.5" y="76.5" width="6" height="13" rx="1.5" transform="rotate(180 332.5 76.5)" fill="#364C7C" stroke="black"/>
<rect id="Rectangle 34" x="356.5" y="63.5" width="25" height="4" rx="1.5" transform="rotate(180 356.5 63.5)" fill="#364C7C" stroke="black"/>
<path id="Rectangle 32" d="M344 83.5C340.736 83.5 338.355 82.6244 337.153 82.0557C336.751 81.8653 336.5 81.4372 336.5 80.9297V65C336.5 64.1716 337.172 63.5 338 63.5H350C350.828 63.5 351.5 64.1716 351.5 65V80.9297C351.5 81.4372 351.249 81.8653 350.847 82.0557C349.645 82.6244 347.264 83.5 344 83.5Z" fill="#364C7C" stroke="black"/>
<rect id="Rectangle 22" x="0.5" y="-0.5" width="6" height="13" rx="1.5" transform="matrix(1 0 0 -1 355 76)" fill="#364C7C" stroke="black"/>
<rect id="Rectangle 35" x="339.5" y="57.5" width="9" height="2" rx="0.5" fill="#364C7C" stroke="black"/>
</g>
<g id="hex">
<rect id="Rectangle 21_2" x="376.5" y="85.5" width="6" height="13" rx="1.5" transform="rotate(-90 376.5 85.5)" fill="url(#paint86_linear_27_145)" stroke="black"/>
<rect id="Rectangle 26" x="443.5" y="105.5" width="6" height="13" rx="1.5" transform="rotate(90 443.5 105.5)" fill="url(#paint87_linear_27_145)" stroke="black"/>
<rect id="Rectangle 24" x="367.5" y="88.5" width="2" height="5" rx="0.5" fill="url(#paint88_linear_27_145)" stroke="black"/>
<rect id="Rectangle 25" x="367.5" y="98.5" width="2" height="5" rx="0.5" fill="url(#paint89_linear_27_145)" stroke="black"/>
<rect id="Rectangle 23" x="369.5" y="84.5" width="6" height="23" rx="1.5" fill="url(#paint90_linear_27_145)" stroke="black"/>
<path id="Rectangle 22_2" d="M375.5 104V87C375.5 86.1716 376.172 85.5 377 85.5H444.5C450.023 85.5 454.5 89.9772 454.5 95.5C454.5 101.023 450.023 105.5 444.5 105.5H377C376.172 105.5 375.5 104.828 375.5 104Z" fill="url(#paint91_linear_27_145)" stroke="black"/>
<line id="Line 6" x1="372.5" y1="85" x2="372.5" y2="107" stroke="black"/>
</g>
<g id="hex_2">
<rect id="Rectangle 21_3" x="347.5" y="124.5" width="6" height="13" rx="1.5" transform="rotate(-90 347.5 124.5)" fill="url(#paint92_linear_27_145)" stroke="black"/>
<rect id="Rectangle 26_2" x="414.5" y="144.5" width="6" height="13" rx="1.5" transform="rotate(90 414.5 144.5)" fill="url(#paint93_linear_27_145)" stroke="black"/>
<rect id="Rectangle 24_2" x="338.5" y="127.5" width="2" height="5" rx="0.5" fill="url(#paint94_linear_27_145)" stroke="black"/>
<rect id="Rectangle 25_2" x="338.5" y="137.5" width="2" height="5" rx="0.5" fill="url(#paint95_linear_27_145)" stroke="black"/>
<rect id="Rectangle 23_2" x="340.5" y="123.5" width="6" height="23" rx="1.5" fill="url(#paint96_linear_27_145)" stroke="black"/>
<path id="Rectangle 22_3" d="M346.5 143V126C346.5 125.172 347.172 124.5 348 124.5H415.5C421.023 124.5 425.5 128.977 425.5 134.5C425.5 140.023 421.023 144.5 415.5 144.5H348C347.172 144.5 346.5 143.828 346.5 143Z" fill="url(#paint97_linear_27_145)" stroke="black"/>
<line id="Line 6_2" x1="343.5" y1="124" x2="343.5" y2="146" stroke="black"/>
</g>
<g id="drain">
<path id="Rectangle 30_3" d="M418.443 269.5H445.557C445.8 269.5 446.008 269.675 446.05 269.915L449.307 288.915C449.359 289.22 449.124 289.5 448.814 289.5H415.186C414.876 289.5 414.641 289.22 414.693 288.915L417.95 269.915C417.986 269.705 418.15 269.545 418.354 269.508L418.443 269.5Z" fill="#888888" stroke="black"/>
<path id="Rectangle 31_2" d="M419.729 271.5H444.056C444.297 271.5 444.503 271.673 444.547 271.91L447.292 286.91C447.348 287.217 447.113 287.5 446.801 287.5H417.184C416.874 287.5 416.64 287.221 416.691 286.916L419.236 271.916C419.272 271.706 419.436 271.545 419.64 271.508L419.729 271.5Z" fill="#CECECE" stroke="black"/>
<path id="Line 9" d="M433 274L433.5 285" stroke="black" stroke-width="2" stroke-linecap="round"/>
<path id="Line 10" d="M429 274L428.5 285" stroke="black" stroke-width="2" stroke-linecap="round"/>
<path id="Line 11" d="M425 274L424 285" stroke="black" stroke-width="2" stroke-linecap="round"/>
<path id="Line 12" d="M421 274L419.5 285" stroke="black" stroke-width="2" stroke-linecap="round"/>
<path id="Rectangle 45_3" d="M435.666 275.153C435.576 273.992 436.495 273 437.66 273H441.284C442.271 273 443.111 273.72 443.261 274.696L444.646 283.696C444.832 284.907 443.895 286 442.669 286H438.352C437.307 286 436.438 285.195 436.358 284.153L435.666 275.153Z" fill="black"/>
</g>
<g id="threeValve">
<g id="body_7">
<g id="Union">
<mask id="path-203-inside-4_27_145" fill="white">
<path d="M403 177C402.448 177 402 176.552 402 176V170C402 169.448 402.448 169 403 169C403.552 169 404 168.552 404 168C404 167.448 404.448 167 405 167H411C411.552 167 412 167.448 412 168V178C412 178.552 411.552 179 411 179H405C404.448 179 404 178.552 404 178C404 177.448 403.552 177 403 177Z"/>
</mask>
<path d="M403 177C402.448 177 402 176.552 402 176V170C402 169.448 402.448 169 403 169C403.552 169 404 168.552 404 168C404 167.448 404.448 167 405 167H411C411.552 167 412 167.448 412 168V178C412 178.552 411.552 179 411 179H405C404.448 179 404 178.552 404 178C404 177.448 403.552 177 403 177Z" fill="url(#paint98_linear_27_145)"/>
<path d="M402 176H403V170H402H401V176H402ZM405 167V168H411V167V166H405V167ZM412 168H411V178H412H413V168H412ZM411 179V178H405V179V180H411V179ZM404 178H405C405 176.895 404.105 176 403 176V177V178H404ZM405 179V178H404H403C403 179.105 403.895 180 405 180V179ZM412 178H411V179V180C412.105 180 413 179.105 413 178H412ZM411 167V168H412H413C413 166.895 412.105 166 411 166V167ZM404 168H405V167V166C403.895 166 403 166.895 403 168H404ZM403 169V170C404.105 170 405 169.105 405 168H404H403V169ZM402 170H403V169V168C401.895 168 401 168.895 401 170H402ZM402 176H401C401 177.105 401.895 178 403 178V177V176H402Z" fill="black" mask="url(#path-203-inside-4_27_145)"/>
</g>
<rect id="Rectangle 49_2" x="412.5" y="178.5" width="4" height="9" rx="0.5" transform="rotate(90 412.5 178.5)" fill="url(#paint99_linear_27_145)" stroke="black"/>
<path id="Rectangle 51_2" d="M402 177.5H399C398.724 177.5 398.5 177.276 398.5 177V169C398.5 168.724 398.724 168.5 399 168.5H402C402.276 168.5 402.5 168.724 402.5 169V177C402.5 177.276 402.276 177.5 402 177.5Z" fill="url(#paint100_linear_27_145)" stroke="black"/>
<rect id="Rectangle 50_2" x="412.5" y="163.5" width="4" height="9" rx="0.5" transform="rotate(90 412.5 163.5)" fill="url(#paint101_linear_27_145)" stroke="black"/>
</g>
<g id="bottomsValve">
<rect id="Rectangle 51_3" x="404.5" y="174.5" width="3" height="5" rx="0.5" transform="rotate(-90 404.5 174.5)" fill="#D9D9D9" stroke="black"/>
<path id="Polygon 3" d="M408.741 172.571V173.428L408 173.855L407.259 173.428V172.571L408 172.144L408.741 172.571Z" fill="#CECECE" stroke="black" stroke-width="0.25"/>
<rect id="Rectangle 52" x="386.5" y="175.5" width="5" height="18" rx="1.5" transform="rotate(-90 386.5 175.5)" fill="#EE6300" stroke="black"/>
</g>
</g>
<g id="threeValve_2">
<g id="body_8">
<g id="Union_2">
<mask id="path-211-inside-5_27_145" fill="white">
<path d="M442 169C442.552 169 443 169.448 443 170V176C443 176.552 442.552 177 442 177C441.448 177 441 177.448 441 178C441 178.552 440.552 179 440 179H434C433.448 179 433 178.552 433 178V168C433 167.448 433.448 167 434 167H440C440.552 167 441 167.448 441 168C441 168.552 441.448 169 442 169Z"/>
</mask>
<path d="M442 169C442.552 169 443 169.448 443 170V176C443 176.552 442.552 177 442 177C441.448 177 441 177.448 441 178C441 178.552 440.552 179 440 179H434C433.448 179 433 178.552 433 178V168C433 167.448 433.448 167 434 167H440C440.552 167 441 167.448 441 168C441 168.552 441.448 169 442 169Z" fill="url(#paint102_linear_27_145)"/>
<path d="M443 170H442V176H443H444V170H443ZM440 179V178H434V179V180H440V179ZM433 178H434V168H433H432V178H433ZM434 167V168H440V167V166H434V167ZM441 168H440C440 169.105 440.895 170 442 170V169V168H441ZM440 167V168H441H442C442 166.895 441.105 166 440 166V167ZM433 168H434V167V166C432.895 166 432 166.895 432 168H433ZM434 179V178H433H432C432 179.105 432.895 180 434 180V179ZM441 178H440V179V180C441.105 180 442 179.105 442 178H441ZM442 177V176C440.895 176 440 176.895 440 178H441H442V177ZM443 176H442V177V178C443.105 178 444 177.105 444 176H443ZM443 170H444C444 168.895 443.105 168 442 168V169V170H443Z" fill="black" mask="url(#path-211-inside-5_27_145)"/>
</g>
<rect id="Rectangle 49_3" x="432.5" y="167.5" width="4" height="9" rx="0.5" transform="rotate(-90 432.5 167.5)" fill="url(#paint103_linear_27_145)" stroke="black"/>
<path id="Rectangle 51_4" d="M443 168.5H446C446.276 168.5 446.5 168.724 446.5 169V177C446.5 177.276 446.276 177.5 446 177.5H443C442.724 177.5 442.5 177.276 442.5 177V169C442.5 168.724 442.724 168.5 443 168.5Z" fill="url(#paint104_linear_27_145)" stroke="black"/>
<rect id="Rectangle 50_3" x="432.5" y="182.5" width="4" height="9" rx="0.5" transform="rotate(-90 432.5 182.5)" fill="url(#paint105_linear_27_145)" stroke="black"/>
</g>
<g id="condensateValve">
<rect id="Rectangle 51_5" x="440.5" y="171.5" width="3" height="5" rx="0.5" transform="rotate(90 440.5 171.5)" fill="#D9D9D9" stroke="black"/>
<path id="Polygon 3_2" d="M436.259 173.429V172.572L437 172.145L437.741 172.572V173.429L437 173.856L436.259 173.429Z" fill="#CECECE" stroke="black" stroke-width="0.25"/>
<rect id="Rectangle 52_2" x="458.5" y="170.5" width="5" height="18" rx="1.5" transform="rotate(90 458.5 170.5)" fill="#EE6300" stroke="black"/>
</g>
</g>
<g id="pressureGuage">
<rect id="Rectangle 27_3" x="216.5" y="75.5" width="4" height="5" transform="rotate(-90 216.5 75.5)" fill="#878E95" stroke="black"/>
<g id="guageBase">
<circle id="Ellipse 4_2" cx="219" cy="61" r="11" fill="#EE6300" stroke="black"/>
<circle id="Ellipse 5_2" cx="219" cy="61" r="8.5" fill="#CECECE" stroke="black"/>
</g>
<g id="minorTicks_2">
<path id="Line 13" d="M212.932 65.4084L213.337 65.1146" stroke="black" stroke-width="0.25"/>
<path id="Line 13_2" d="M212.317 64.405L212.763 64.178" stroke="black" stroke-width="0.25"/>
<path id="Line 13_3" d="M211.867 63.3177L212.343 63.1632" stroke="black" stroke-width="0.25"/>
<path id="Line 13_4" d="M211.592 62.1733L212.086 62.0951" stroke="black" stroke-width="0.25"/>
<path id="Line 13_5" d="M211.592 59.8268L212.086 59.905" stroke="black" stroke-width="0.25"/>
<path id="Line 13_6" d="M211.867 58.6824L212.343 58.8369" stroke="black" stroke-width="0.25"/>
<path id="Line 13_7" d="M212.317 57.5951L212.763 57.8221" stroke="black" stroke-width="0.25"/>
<path id="Line 13_8" d="M212.932 56.5917L213.337 56.8856" stroke="black" stroke-width="0.25"/>
<path id="Line 13_9" d="M214.592 54.9324L214.886 55.3369" stroke="black" stroke-width="0.25"/>
<path id="Line 13_10" d="M215.595 54.3175L215.822 54.763" stroke="black" stroke-width="0.25"/>
<path id="Line 13_11" d="M216.682 53.8671L216.837 54.3427" stroke="black" stroke-width="0.25"/>
<path id="Line 13_12" d="M217.827 53.5924L217.905 54.0863" stroke="black" stroke-width="0.25"/>
<path id="Line 13_13" d="M220.173 53.5924L220.095 54.0863" stroke="black" stroke-width="0.25"/>
<path id="Line 13_14" d="M221.318 53.8671L221.163 54.3427" stroke="black" stroke-width="0.25"/>
<path id="Line 13_15" d="M222.405 54.3175L222.178 54.763" stroke="black" stroke-width="0.25"/>
<path id="Line 13_16" d="M223.408 54.9324L223.115 55.3369" stroke="black" stroke-width="0.25"/>
<path id="Line 13_17" d="M225.068 56.5917L224.663 56.8856" stroke="black" stroke-width="0.25"/>
<path id="Line 13_18" d="M225.683 57.5951L225.237 57.8221" stroke="black" stroke-width="0.25"/>
<path id="Line 13_19" d="M226.133 58.6824L225.657 58.8369" stroke="black" stroke-width="0.25"/>
<path id="Line 13_20" d="M226.408 59.8268L225.914 59.905" stroke="black" stroke-width="0.25"/>
<path id="Line 13_21" d="M226.408 62.1733L225.914 62.0951" stroke="black" stroke-width="0.25"/>
<path id="Line 13_22" d="M226.133 63.3177L225.657 63.1632" stroke="black" stroke-width="0.25"/>
<path id="Line 13_23" d="M225.683 64.405L225.237 64.178" stroke="black" stroke-width="0.25"/>
<path id="Line 13_24" d="M225.068 65.4084L224.663 65.1146" stroke="black" stroke-width="0.25"/>
</g>
<g id="majorTicks_2">
<path id="Line 14" d="M213.697 66.3033L214.404 65.5962" stroke="black" stroke-width="0.25"/>
<path id="Line 14_2" d="M211.5 61H212.5" stroke="black" stroke-width="0.25"/>
<path id="Line 14_3" d="M213.697 55.6967L214.404 56.4038" stroke="black" stroke-width="0.25"/>
<path id="Line 14_4" d="M219 53.5V54.5" stroke="black" stroke-width="0.25"/>
<path id="Line 14_5" d="M224.303 55.6967L223.596 56.4038" stroke="black" stroke-width="0.25"/>
<path id="Line 14_6" d="M226.5 61L225.5 61" stroke="black" stroke-width="0.25"/>
<path id="Line 14_7" d="M224.303 66.3033L223.596 65.5962" stroke="black" stroke-width="0.25"/>
</g>
<path id="needle" d="M213.5 66.5C213.6 66.4162 213.699 66.3321 213.798 66.2478C215.184 65.0671 216.518 63.8351 217.802 62.5518C218.168 62.1851 218.505 61.7883 218.811 61.3613C218.888 61.2545 218.963 61.1459 219.035 61.0354C219.012 61.0118 218.988 60.9882 218.965 60.9646C218.854 61.0375 218.745 61.1122 218.639 61.1887C218.212 61.4951 217.815 61.8316 217.448 62.1982C216.165 63.4816 214.933 64.8162 213.752 66.2022C213.668 66.3012 213.584 66.4005 213.5 66.5Z" fill="#D50000"/>
</g>
<g id="steamFlowGauge">
<rect id="Rectangle 27_4" x="94.5" y="96.5" width="4" height="5" fill="#878E95" stroke="black"/>
<g id="guageBase_2">
<circle id="Ellipse 4_3" cx="76" cy="99" r="19" fill="#5B8BF3" stroke="black"/>
<circle id="Ellipse 5_3" cx="76" cy="99" r="16.2647" fill="#CECECE" stroke="black"/>
</g>
<rect id="steamFlowScreen" x="62" y="93" width="28" height="12" rx="1" fill="#141414"/>
</g>
<g id="feedFlowGauge">
<rect id="Rectangle 27_5" x="140.5" y="163.5" width="4" height="5" fill="#878E95" stroke="black"/>
<g id="guageBase_3">
<circle id="Ellipse 4_4" cx="163" cy="166" r="19" fill="#5B8BF3" stroke="black"/>
<circle id="Ellipse 5_4" cx="163" cy="166" r="16.2647" fill="#CECECE" stroke="black"/>
</g>
<rect id="feedFlowScreen" x="149" y="160" width="28" height="12" rx="1" fill="#141414"/>
</g>
<g id="evapTempGauge">
<rect id="Rectangle 27_6" x="281.5" y="129.5" width="4" height="5" fill="#878E95" stroke="black"/>
<g id="guageBase_4">
<circle id="Ellipse 4_5" cx="304" cy="132" r="19" fill="#5B8BF3" stroke="black"/>
<circle id="Ellipse 5_5" cx="304" cy="132" r="16.2647" fill="#CECECE" stroke="black"/>
</g>
<rect id="evapTempScreen" x="290" y="126" width="28" height="12" rx="1" fill="#141414"/>
</g>
<g id="feedTempGauge">
<rect id="Rectangle 27_7" x="140.5" y="204.5" width="4" height="5" fill="#878E95" stroke="black"/>
<g id="guageBase_5">
<circle id="Ellipse 4_6" cx="163" cy="207" r="19" fill="#5B8BF3" stroke="black"/>
<circle id="Ellipse 5_6" cx="163" cy="207" r="16.2647" fill="#CECECE" stroke="black"/>
</g>
<rect id="feedTempScreen" x="149" y="201" width="28" height="12" rx="1" fill="#141414"/>
</g>
<path id="kg/min_2" d="M68.7741 110.006L68.767 109.487H68.8523L70.0455 108.273H70.5639L69.2926 109.558H69.2571L68.7741 110.006ZM68.3835 111V107.364H68.8026V111H68.3835ZM70.1165 111L69.0511 109.651L69.3494 109.359L70.6491 111H70.1165ZM72.0918 112.08C71.8894 112.08 71.7154 112.054 71.5698 112.001C71.4242 111.951 71.3029 111.883 71.2058 111.799C71.1099 111.716 71.0336 111.627 70.9767 111.533L71.3105 111.298C71.3484 111.348 71.3964 111.405 71.4544 111.469C71.5124 111.534 71.5917 111.59 71.6923 111.637C71.7941 111.686 71.9273 111.71 72.0918 111.71C72.312 111.71 72.4937 111.657 72.6369 111.55C72.7801 111.444 72.8517 111.277 72.8517 111.05V110.496H72.8162C72.7855 110.545 72.7417 110.607 72.6848 110.68C72.6292 110.753 72.5487 110.817 72.4434 110.874C72.3392 110.93 72.1983 110.957 72.0208 110.957C71.8006 110.957 71.6029 110.905 71.4277 110.801C71.2537 110.697 71.1158 110.545 71.014 110.347C70.9134 110.148 70.8631 109.906 70.8631 109.622C70.8631 109.343 70.9122 109.1 71.0105 108.892C71.1087 108.684 71.2454 108.523 71.4206 108.409C71.5958 108.295 71.7982 108.237 72.0279 108.237C72.2054 108.237 72.3463 108.267 72.4505 108.326C72.5558 108.384 72.6363 108.45 72.6919 108.525C72.7488 108.598 72.7926 108.659 72.8233 108.706H72.8659V108.273H73.2708V111.078C73.2708 111.312 73.2175 111.503 73.111 111.65C73.0056 111.798 72.8636 111.906 72.6848 111.975C72.5073 112.045 72.3096 112.08 72.0918 112.08ZM72.0776 110.581C72.2457 110.581 72.3877 110.542 72.5037 110.466C72.6197 110.389 72.7079 110.278 72.7683 110.134C72.8287 109.989 72.8588 109.816 72.8588 109.615C72.8588 109.419 72.8292 109.245 72.7701 109.095C72.7109 108.944 72.6233 108.827 72.5073 108.741C72.3913 108.656 72.248 108.614 72.0776 108.614C71.9 108.614 71.7521 108.659 71.6337 108.749C71.5165 108.839 71.4283 108.959 71.3691 109.111C71.3111 109.262 71.2821 109.43 71.2821 109.615C71.2821 109.804 71.3117 109.972 71.3709 110.118C71.4313 110.262 71.5201 110.376 71.6373 110.458C71.7556 110.54 71.9024 110.581 72.0776 110.581ZM75.3233 107.193L74.1515 111.547H73.7679L74.9398 107.193H75.3233ZM75.82 111V108.273H76.2249V108.699H76.2604C76.3172 108.553 76.4089 108.44 76.5356 108.36C76.6623 108.278 76.8144 108.237 76.9919 108.237C77.1718 108.237 77.3216 108.278 77.4411 108.36C77.5619 108.44 77.656 108.553 77.7235 108.699H77.7519C77.8217 108.558 77.9265 108.446 78.0661 108.363C78.2058 108.279 78.3733 108.237 78.5686 108.237C78.8125 108.237 79.0119 108.314 79.167 108.466C79.3221 108.618 79.3996 108.854 79.3996 109.175V111H78.9806V109.175C78.9806 108.973 78.9255 108.83 78.8154 108.743C78.7053 108.657 78.5757 108.614 78.4266 108.614C78.2348 108.614 78.0863 108.672 77.9809 108.788C77.8756 108.902 77.8229 109.048 77.8229 109.224V111H77.3968V109.132C77.3968 108.977 77.3464 108.852 77.2458 108.757C77.1452 108.662 77.0156 108.614 76.857 108.614C76.7481 108.614 76.6463 108.643 76.5516 108.701C76.4581 108.759 76.3823 108.839 76.3243 108.942C76.2675 109.044 76.2391 109.162 76.2391 109.295V111H75.82ZM80.1657 111V108.273H80.5848V111H80.1657ZM80.3788 107.818C80.2971 107.818 80.2267 107.79 80.1675 107.735C80.1095 107.679 80.0805 107.612 80.0805 107.534C80.0805 107.456 80.1095 107.389 80.1675 107.333C80.2267 107.278 80.2971 107.25 80.3788 107.25C80.4605 107.25 80.5303 107.278 80.5883 107.333C80.6475 107.389 80.6771 107.456 80.6771 107.534C80.6771 107.612 80.6475 107.679 80.5883 107.735C80.5303 107.79 80.4605 107.818 80.3788 107.818ZM81.7713 109.359V111H81.3523V108.273H81.7571V108.699H81.7926C81.8565 108.56 81.9536 108.449 82.0838 108.365C82.214 108.28 82.3821 108.237 82.5881 108.237C82.7727 108.237 82.9343 108.275 83.0728 108.351C83.2113 108.425 83.319 108.539 83.396 108.692C83.4729 108.843 83.5114 109.035 83.5114 109.267V111H83.0923V109.295C83.0923 109.081 83.0367 108.914 82.9254 108.795C82.8142 108.674 82.6615 108.614 82.4673 108.614C82.3336 108.614 82.214 108.643 82.1087 108.701C82.0045 108.759 81.9222 108.843 81.8619 108.955C81.8015 109.066 81.7713 109.201 81.7713 109.359Z" fill="black"/>
<path id="kg/min_3" d="M155.774 177.006L155.767 176.487H155.852L157.045 175.273H157.564L156.293 176.558H156.257L155.774 177.006ZM155.384 178V174.364H155.803V178H155.384ZM157.116 178L156.051 176.651L156.349 176.359L157.649 178H157.116ZM159.092 179.08C158.889 179.08 158.715 179.054 158.57 179.001C158.424 178.951 158.303 178.883 158.206 178.799C158.11 178.716 158.034 178.627 157.977 178.533L158.311 178.298C158.348 178.348 158.396 178.405 158.454 178.469C158.512 178.534 158.592 178.59 158.692 178.637C158.794 178.686 158.927 178.71 159.092 178.71C159.312 178.71 159.494 178.657 159.637 178.55C159.78 178.444 159.852 178.277 159.852 178.05V177.496H159.816C159.785 177.545 159.742 177.607 159.685 177.68C159.629 177.753 159.549 177.817 159.443 177.874C159.339 177.93 159.198 177.957 159.021 177.957C158.801 177.957 158.603 177.905 158.428 177.801C158.254 177.697 158.116 177.545 158.014 177.347C157.913 177.148 157.863 176.906 157.863 176.622C157.863 176.343 157.912 176.1 158.01 175.892C158.109 175.684 158.245 175.523 158.421 175.409C158.596 175.295 158.798 175.237 159.028 175.237C159.205 175.237 159.346 175.267 159.45 175.326C159.556 175.384 159.636 175.45 159.692 175.525C159.749 175.598 159.793 175.659 159.823 175.706H159.866V175.273H160.271V178.078C160.271 178.312 160.218 178.503 160.111 178.65C160.006 178.798 159.864 178.906 159.685 178.975C159.507 179.045 159.31 179.08 159.092 179.08ZM159.078 177.581C159.246 177.581 159.388 177.542 159.504 177.466C159.62 177.389 159.708 177.278 159.768 177.134C159.829 176.989 159.859 176.816 159.859 176.615C159.859 176.419 159.829 176.245 159.77 176.095C159.711 175.944 159.623 175.827 159.507 175.741C159.391 175.656 159.248 175.614 159.078 175.614C158.9 175.614 158.752 175.659 158.634 175.749C158.517 175.839 158.428 175.959 158.369 176.111C158.311 176.262 158.282 176.43 158.282 176.615C158.282 176.804 158.312 176.972 158.371 177.118C158.431 177.262 158.52 177.376 158.637 177.458C158.756 177.54 158.902 177.581 159.078 177.581ZM162.323 174.193L161.151 178.547H160.768L161.94 174.193H162.323ZM162.82 178V175.273H163.225V175.699H163.26C163.317 175.553 163.409 175.44 163.536 175.36C163.662 175.278 163.814 175.237 163.992 175.237C164.172 175.237 164.322 175.278 164.441 175.36C164.562 175.44 164.656 175.553 164.723 175.699H164.752C164.822 175.558 164.926 175.446 165.066 175.363C165.206 175.279 165.373 175.237 165.569 175.237C165.812 175.237 166.012 175.314 166.167 175.466C166.322 175.618 166.4 175.854 166.4 176.175V178H165.981V176.175C165.981 175.973 165.926 175.83 165.815 175.743C165.705 175.657 165.576 175.614 165.427 175.614C165.235 175.614 165.086 175.672 164.981 175.788C164.876 175.902 164.823 176.048 164.823 176.224V178H164.397V176.132C164.397 175.977 164.346 175.852 164.246 175.757C164.145 175.662 164.016 175.614 163.857 175.614C163.748 175.614 163.646 175.643 163.552 175.701C163.458 175.759 163.382 175.839 163.324 175.942C163.267 176.044 163.239 176.162 163.239 176.295V178H162.82ZM167.166 178V175.273H167.585V178H167.166ZM167.379 174.818C167.297 174.818 167.227 174.79 167.168 174.735C167.11 174.679 167.081 174.612 167.081 174.534C167.081 174.456 167.11 174.389 167.168 174.333C167.227 174.278 167.297 174.25 167.379 174.25C167.46 174.25 167.53 174.278 167.588 174.333C167.648 174.389 167.677 174.456 167.677 174.534C167.677 174.612 167.648 174.679 167.588 174.735C167.53 174.79 167.46 174.818 167.379 174.818ZM168.771 176.359V178H168.352V175.273H168.757V175.699H168.793C168.857 175.56 168.954 175.449 169.084 175.365C169.214 175.28 169.382 175.237 169.588 175.237C169.773 175.237 169.934 175.275 170.073 175.351C170.211 175.425 170.319 175.539 170.396 175.692C170.473 175.843 170.511 176.035 170.511 176.267V178H170.092V176.295C170.092 176.081 170.037 175.914 169.925 175.795C169.814 175.674 169.661 175.614 169.467 175.614C169.334 175.614 169.214 175.643 169.109 175.701C169.004 175.759 168.922 175.843 168.862 175.955C168.801 176.066 168.771 176.201 168.771 176.359Z" fill="black"/>
<path id="&#194;&#176;C_2" d="M302.136 141.969C301.986 141.969 301.849 141.932 301.724 141.859C301.601 141.785 301.503 141.687 301.43 141.564C301.356 141.44 301.32 141.302 301.32 141.152C301.32 141.002 301.356 140.865 301.43 140.742C301.503 140.618 301.601 140.519 301.724 140.445C301.849 140.372 301.986 140.335 302.136 140.335C302.287 140.335 302.423 140.372 302.547 140.445C302.671 140.519 302.77 140.618 302.843 140.742C302.916 140.865 302.953 141.002 302.953 141.152C302.953 141.302 302.916 141.44 302.843 141.564C302.77 141.687 302.671 141.785 302.547 141.859C302.423 141.932 302.287 141.969 302.136 141.969ZM302.136 141.614C302.222 141.614 302.299 141.593 302.369 141.551C302.439 141.51 302.494 141.454 302.536 141.385C302.577 141.315 302.598 141.237 302.598 141.152C302.598 141.067 302.577 140.989 302.536 140.919C302.494 140.85 302.439 140.794 302.369 140.752C302.299 140.711 302.222 140.69 302.136 140.69C302.051 140.69 301.974 140.711 301.904 140.752C301.834 140.794 301.778 140.85 301.737 140.919C301.695 140.989 301.675 141.067 301.675 141.152C301.675 141.237 301.695 141.315 301.737 141.385C301.778 141.454 301.834 141.51 301.904 141.551C301.974 141.593 302.051 141.614 302.136 141.614ZM306.578 141.5H306.138C306.112 141.373 306.066 141.262 306.001 141.166C305.937 141.07 305.859 140.99 305.767 140.925C305.676 140.858 305.575 140.809 305.463 140.776C305.352 140.742 305.236 140.726 305.115 140.726C304.895 140.726 304.696 140.781 304.517 140.893C304.339 141.004 304.198 141.168 304.093 141.385C303.988 141.601 303.936 141.867 303.936 142.182C303.936 142.497 303.988 142.762 304.093 142.979C304.198 143.196 304.339 143.36 304.517 143.471C304.696 143.582 304.895 143.638 305.115 143.638C305.236 143.638 305.352 143.621 305.463 143.588C305.575 143.555 305.676 143.506 305.767 143.441C305.859 143.374 305.937 143.293 306.001 143.197C306.066 143.1 306.112 142.989 306.138 142.864H306.578C306.545 143.049 306.485 143.216 306.397 143.363C306.31 143.509 306.201 143.634 306.071 143.737C305.94 143.839 305.794 143.917 305.632 143.97C305.471 144.023 305.299 144.05 305.115 144.05C304.805 144.05 304.529 143.974 304.288 143.822C304.046 143.671 303.856 143.455 303.718 143.176C303.579 142.897 303.51 142.565 303.51 142.182C303.51 141.798 303.579 141.467 303.718 141.188C303.856 140.908 304.046 140.693 304.288 140.541C304.529 140.39 304.805 140.314 305.115 140.314C305.299 140.314 305.471 140.341 305.632 140.394C305.794 140.447 305.94 140.525 306.071 140.628C306.201 140.73 306.31 140.854 306.397 141.001C306.485 141.147 306.545 141.313 306.578 141.5Z" fill="black"/>
<path id="&#194;&#176;C_3" d="M161.136 216.969C160.986 216.969 160.849 216.932 160.724 216.859C160.601 216.785 160.503 216.687 160.43 216.564C160.356 216.44 160.32 216.302 160.32 216.152C160.32 216.002 160.356 215.865 160.43 215.742C160.503 215.618 160.601 215.519 160.724 215.445C160.849 215.372 160.986 215.335 161.136 215.335C161.287 215.335 161.423 215.372 161.547 215.445C161.671 215.519 161.77 215.618 161.843 215.742C161.916 215.865 161.953 216.002 161.953 216.152C161.953 216.302 161.916 216.44 161.843 216.564C161.77 216.687 161.671 216.785 161.547 216.859C161.423 216.932 161.287 216.969 161.136 216.969ZM161.136 216.614C161.222 216.614 161.299 216.593 161.369 216.551C161.439 216.51 161.494 216.454 161.536 216.385C161.577 216.315 161.598 216.237 161.598 216.152C161.598 216.067 161.577 215.989 161.536 215.919C161.494 215.85 161.439 215.794 161.369 215.752C161.299 215.711 161.222 215.69 161.136 215.69C161.051 215.69 160.974 215.711 160.904 215.752C160.834 215.794 160.778 215.85 160.737 215.919C160.695 215.989 160.675 216.067 160.675 216.152C160.675 216.237 160.695 216.315 160.737 216.385C160.778 216.454 160.834 216.51 160.904 216.551C160.974 216.593 161.051 216.614 161.136 216.614ZM165.578 216.5H165.138C165.112 216.373 165.066 216.262 165.001 216.166C164.937 216.07 164.859 215.99 164.767 215.925C164.676 215.858 164.575 215.809 164.463 215.776C164.352 215.742 164.236 215.726 164.115 215.726C163.895 215.726 163.696 215.781 163.517 215.893C163.339 216.004 163.198 216.168 163.093 216.385C162.988 216.601 162.936 216.867 162.936 217.182C162.936 217.497 162.988 217.762 163.093 217.979C163.198 218.196 163.339 218.36 163.517 218.471C163.696 218.582 163.895 218.638 164.115 218.638C164.236 218.638 164.352 218.621 164.463 218.588C164.575 218.555 164.676 218.506 164.767 218.441C164.859 218.374 164.937 218.293 165.001 218.197C165.066 218.1 165.112 217.989 165.138 217.864H165.578C165.545 218.049 165.485 218.216 165.397 218.363C165.31 218.509 165.201 218.634 165.071 218.737C164.94 218.839 164.794 218.917 164.632 218.97C164.471 219.023 164.299 219.05 164.115 219.05C163.805 219.05 163.529 218.974 163.288 218.822C163.046 218.671 162.856 218.455 162.718 218.176C162.579 217.897 162.51 217.565 162.51 217.182C162.51 216.798 162.579 216.467 162.718 216.188C162.856 215.908 163.046 215.693 163.288 215.541C163.529 215.39 163.805 215.314 164.115 215.314C164.299 215.314 164.471 215.341 164.632 215.394C164.794 215.447 164.94 215.525 165.071 215.628C165.201 215.73 165.31 215.854 165.397 216.001C165.485 216.147 165.545 216.313 165.578 216.5Z" fill="black"/>
<path id="evapExterior_2" d="M213 75.5H273C278.247 75.5 282.5 79.7533 282.5 85V232.416C282.5 236.035 280.454 239.332 277.193 240.884C272.314 243.206 264.982 246.618 258.242 249.449C254.872 250.865 251.655 252.132 248.972 253.045C246.263 253.966 244.167 254.5 243 254.5C241.833 254.5 239.737 253.966 237.028 253.045C234.345 252.132 231.128 250.865 227.758 249.449C221.018 246.618 213.686 243.206 208.807 240.884C205.546 239.332 203.5 236.035 203.5 232.416V85C203.5 79.7533 207.753 75.5 213 75.5Z" fill="url(#paint106_linear_27_145)" stroke="black"/>
</g>
<defs>
<linearGradient id="paint0_linear_27_145" x1="0" y1="5" x2="5" y2="5" gradientUnits="userSpaceOnUse">
<stop stop-color="#585C61"/>
<stop offset="1" stop-color="#B4BDC7"/>
</linearGradient>
<linearGradient id="paint1_linear_27_145" x1="0" y1="5" x2="5" y2="5" gradientUnits="userSpaceOnUse">
<stop stop-color="#585C61"/>
<stop offset="1" stop-color="#B4BDC7"/>
</linearGradient>
<linearGradient id="paint2_linear_27_145" x1="60.5" y1="275" x2="69.5" y2="275" gradientUnits="userSpaceOnUse">
<stop stop-color="#585C61"/>
<stop offset="1" stop-color="#B4BDC7"/>
</linearGradient>
<linearGradient id="paint3_linear_27_145" x1="0" y1="5" x2="5" y2="5" gradientUnits="userSpaceOnUse">
<stop stop-color="#585C61"/>
<stop offset="1" stop-color="#B4BDC7"/>
</linearGradient>
<linearGradient id="paint4_linear_27_145" x1="0" y1="5" x2="5" y2="5" gradientUnits="userSpaceOnUse">
<stop stop-color="#585C61"/>
<stop offset="1" stop-color="#B4BDC7"/>
</linearGradient>
<linearGradient id="paint5_linear_27_145" x1="239.5" y1="266" x2="248.5" y2="266" gradientUnits="userSpaceOnUse">
<stop stop-color="#585C61"/>
<stop offset="1" stop-color="#B4BDC7"/>
</linearGradient>
<linearGradient id="paint6_linear_27_145" x1="0" y1="5" x2="5" y2="5" gradientUnits="userSpaceOnUse">
<stop stop-color="#585C61"/>
<stop offset="1" stop-color="#B4BDC7"/>
</linearGradient>
<linearGradient id="paint7_linear_27_145" x1="0" y1="5" x2="5" y2="5" gradientUnits="userSpaceOnUse">
<stop stop-color="#585C61"/>
<stop offset="1" stop-color="#B4BDC7"/>
</linearGradient>
<linearGradient id="paint8_linear_27_145" x1="311" y1="204.5" x2="311" y2="195.5" gradientUnits="userSpaceOnUse">
<stop stop-color="#585C61"/>
<stop offset="1" stop-color="#B4BDC7"/>
</linearGradient>
<linearGradient id="paint9_linear_27_145" x1="0" y1="5" x2="5" y2="5" gradientUnits="userSpaceOnUse">
<stop stop-color="#585C61"/>
<stop offset="1" stop-color="#B4BDC7"/>
</linearGradient>
<linearGradient id="paint10_linear_27_145" x1="0" y1="5" x2="5" y2="5" gradientUnits="userSpaceOnUse">
<stop stop-color="#585C61"/>
<stop offset="1" stop-color="#B4BDC7"/>
</linearGradient>
<linearGradient id="paint11_linear_27_145" x1="329" y1="270.5" x2="329" y2="261.5" gradientUnits="userSpaceOnUse">
<stop stop-color="#585C61"/>
<stop offset="1" stop-color="#B4BDC7"/>
</linearGradient>
<linearGradient id="paint12_linear_27_145" x1="0" y1="5" x2="5" y2="5" gradientUnits="userSpaceOnUse">
<stop stop-color="#585C61"/>
<stop offset="1" stop-color="#B4BDC7"/>
</linearGradient>
<linearGradient id="paint13_linear_27_145" x1="0" y1="5" x2="5" y2="5" gradientUnits="userSpaceOnUse">
<stop stop-color="#585C61"/>
<stop offset="1" stop-color="#B4BDC7"/>
</linearGradient>
<linearGradient id="paint14_linear_27_145" x1="136" y1="279.5" x2="136" y2="270.5" gradientUnits="userSpaceOnUse">
<stop stop-color="#585C61"/>
<stop offset="1" stop-color="#B4BDC7"/>
</linearGradient>
<linearGradient id="paint15_linear_27_145" x1="132" y1="132" x2="137" y2="132" gradientUnits="userSpaceOnUse">
<stop stop-color="#585C61"/>
<stop offset="1" stop-color="#B4BDC7"/>
</linearGradient>
<linearGradient id="paint16_linear_27_145" x1="142" y1="117" x2="147" y2="117" gradientUnits="userSpaceOnUse">
<stop stop-color="#585C61"/>
<stop offset="1" stop-color="#B4BDC7"/>
</linearGradient>
<linearGradient id="paint17_linear_27_145" x1="133.5" y1="118" x2="142.5" y2="118" gradientUnits="userSpaceOnUse">
<stop stop-color="#585C61"/>
<stop offset="1" stop-color="#B4BDC7"/>
</linearGradient>
<linearGradient id="paint18_linear_27_145" x1="307" y1="85" x2="312" y2="85" gradientUnits="userSpaceOnUse">
<stop stop-color="#585C61"/>
<stop offset="1" stop-color="#B4BDC7"/>
</linearGradient>
<linearGradient id="paint19_linear_27_145" x1="317" y1="70" x2="322" y2="70" gradientUnits="userSpaceOnUse">
<stop stop-color="#585C61"/>
<stop offset="1" stop-color="#B4BDC7"/>
</linearGradient>
<linearGradient id="paint20_linear_27_145" x1="308.5" y1="71" x2="317.5" y2="71" gradientUnits="userSpaceOnUse">
<stop stop-color="#585C61"/>
<stop offset="1" stop-color="#B4BDC7"/>
</linearGradient>
<linearGradient id="paint21_linear_27_145" x1="325" y1="124" x2="330" y2="124" gradientUnits="userSpaceOnUse">
<stop stop-color="#585C61"/>
<stop offset="1" stop-color="#B4BDC7"/>
</linearGradient>
<linearGradient id="paint22_linear_27_145" x1="335" y1="109" x2="340" y2="109" gradientUnits="userSpaceOnUse">
<stop stop-color="#585C61"/>
<stop offset="1" stop-color="#B4BDC7"/>
</linearGradient>
<linearGradient id="paint23_linear_27_145" x1="326.5" y1="110" x2="335.5" y2="110" gradientUnits="userSpaceOnUse">
<stop stop-color="#585C61"/>
<stop offset="1" stop-color="#B4BDC7"/>
</linearGradient>
<linearGradient id="paint24_linear_27_145" x1="368" y1="188" x2="373" y2="188" gradientUnits="userSpaceOnUse">
<stop stop-color="#585C61"/>
<stop offset="1" stop-color="#B4BDC7"/>
</linearGradient>
<linearGradient id="paint25_linear_27_145" x1="378" y1="173" x2="383" y2="173" gradientUnits="userSpaceOnUse">
<stop stop-color="#585C61"/>
<stop offset="1" stop-color="#B4BDC7"/>
</linearGradient>
<linearGradient id="paint26_linear_27_145" x1="369.5" y1="174" x2="378.5" y2="174" gradientUnits="userSpaceOnUse">
<stop stop-color="#585C61"/>
<stop offset="1" stop-color="#B4BDC7"/>
</linearGradient>
<linearGradient id="paint27_linear_27_145" x1="0" y1="5" x2="5" y2="5" gradientUnits="userSpaceOnUse">
<stop stop-color="#585C61"/>
<stop offset="1" stop-color="#B4BDC7"/>
</linearGradient>
<linearGradient id="paint28_linear_27_145" x1="0" y1="5" x2="5" y2="5" gradientUnits="userSpaceOnUse">
<stop stop-color="#585C61"/>
<stop offset="1" stop-color="#B4BDC7"/>
</linearGradient>
<linearGradient id="paint29_linear_27_145" x1="98.5" y1="137" x2="107.5" y2="137" gradientUnits="userSpaceOnUse">
<stop stop-color="#585C61"/>
<stop offset="1" stop-color="#B4BDC7"/>
</linearGradient>
<linearGradient id="paint30_linear_27_145" x1="0" y1="5" x2="5" y2="5" gradientUnits="userSpaceOnUse">
<stop stop-color="#585C61"/>
<stop offset="1" stop-color="#B4BDC7"/>
</linearGradient>
<linearGradient id="paint31_linear_27_145" x1="0" y1="5" x2="5" y2="5" gradientUnits="userSpaceOnUse">
<stop stop-color="#585C61"/>
<stop offset="1" stop-color="#B4BDC7"/>
</linearGradient>
<linearGradient id="paint32_linear_27_145" x1="404.5" y1="207" x2="413.5" y2="207" gradientUnits="userSpaceOnUse">
<stop stop-color="#585C61"/>
<stop offset="1" stop-color="#B4BDC7"/>
</linearGradient>
<linearGradient id="paint33_linear_27_145" x1="0" y1="5" x2="5" y2="5" gradientUnits="userSpaceOnUse">
<stop stop-color="#585C61"/>
<stop offset="1" stop-color="#B4BDC7"/>
</linearGradient>
<linearGradient id="paint34_linear_27_145" x1="5" y1="5" x2="5.96046e-07" y2="5" gradientUnits="userSpaceOnUse">
<stop stop-color="#585C61"/>
<stop offset="1" stop-color="#B4BDC7"/>
</linearGradient>
<linearGradient id="paint35_linear_27_145" x1="377.5" y1="71" x2="386.5" y2="71" gradientUnits="userSpaceOnUse">
<stop stop-color="#585C61"/>
<stop offset="1" stop-color="#B4BDC7"/>
</linearGradient>
<linearGradient id="paint36_linear_27_145" x1="0" y1="5" x2="5" y2="5" gradientUnits="userSpaceOnUse">
<stop stop-color="#585C61"/>
<stop offset="1" stop-color="#B4BDC7"/>
</linearGradient>
<linearGradient id="paint37_linear_27_145" x1="0" y1="5" x2="5" y2="5" gradientUnits="userSpaceOnUse">
<stop stop-color="#585C61"/>
<stop offset="1" stop-color="#B4BDC7"/>
</linearGradient>
<linearGradient id="paint38_linear_27_145" x1="348.5" y1="110" x2="357.5" y2="110" gradientUnits="userSpaceOnUse">
<stop stop-color="#585C61"/>
<stop offset="1" stop-color="#B4BDC7"/>
</linearGradient>
<linearGradient id="paint39_linear_27_145" x1="0" y1="5" x2="5" y2="5" gradientUnits="userSpaceOnUse">
<stop stop-color="#585C61"/>
<stop offset="1" stop-color="#B4BDC7"/>
</linearGradient>
<linearGradient id="paint40_linear_27_145" x1="0" y1="5" x2="5" y2="5" gradientUnits="userSpaceOnUse">
<stop stop-color="#585C61"/>
<stop offset="1" stop-color="#B4BDC7"/>
</linearGradient>
<linearGradient id="paint41_linear_27_145" x1="421.5" y1="209" x2="430.5" y2="209" gradientUnits="userSpaceOnUse">
<stop stop-color="#585C61"/>
<stop offset="1" stop-color="#B4BDC7"/>
</linearGradient>
<linearGradient id="paint42_linear_27_145" x1="0" y1="5" x2="5" y2="5" gradientUnits="userSpaceOnUse">
<stop stop-color="#585C61"/>
<stop offset="1" stop-color="#B4BDC7"/>
</linearGradient>
<linearGradient id="paint43_linear_27_145" x1="0" y1="5" x2="5" y2="5" gradientUnits="userSpaceOnUse">
<stop stop-color="#585C61"/>
<stop offset="1" stop-color="#B4BDC7"/>
</linearGradient>
<linearGradient id="paint44_linear_27_145" x1="487.5" y1="174" x2="496.5" y2="174" gradientUnits="userSpaceOnUse">
<stop stop-color="#585C61"/>
<stop offset="1" stop-color="#B4BDC7"/>
</linearGradient>
<linearGradient id="paint45_linear_27_145" x1="154.5" y1="142" x2="154.5" y2="134" gradientUnits="userSpaceOnUse">
<stop stop-color="#585C61"/>
<stop offset="1" stop-color="#B4BDC7"/>
</linearGradient>
<linearGradient id="paint46_linear_27_145" x1="295.5" y1="205" x2="295.5" y2="197" gradientUnits="userSpaceOnUse">
<stop stop-color="#585C61"/>
<stop offset="1" stop-color="#B4BDC7"/>
</linearGradient>
<linearGradient id="paint47_linear_27_145" x1="342" y1="113" x2="342" y2="105" gradientUnits="userSpaceOnUse">
<stop stop-color="#585C61"/>
<stop offset="1" stop-color="#B4BDC7"/>
</linearGradient>
<linearGradient id="paint48_linear_27_145" x1="347.5" y1="74" x2="347.5" y2="66" gradientUnits="userSpaceOnUse">
<stop stop-color="#585C61"/>
<stop offset="1" stop-color="#B4BDC7"/>
</linearGradient>
<linearGradient id="paint49_linear_27_145" x1="286.5" y1="271" x2="286.5" y2="263" gradientUnits="userSpaceOnUse">
<stop stop-color="#585C61"/>
<stop offset="1" stop-color="#B4BDC7"/>
</linearGradient>
<linearGradient id="paint50_linear_27_145" x1="390.5" y1="177" x2="390.5" y2="169" gradientUnits="userSpaceOnUse">
<stop stop-color="#585C61"/>
<stop offset="1" stop-color="#B4BDC7"/>
</linearGradient>
<linearGradient id="paint51_linear_27_145" x1="465" y1="177" x2="465" y2="169" gradientUnits="userSpaceOnUse">
<stop stop-color="#585C61"/>
<stop offset="1" stop-color="#B4BDC7"/>
</linearGradient>
<linearGradient id="paint52_linear_27_145" x1="100.5" y1="280" x2="100.5" y2="272" gradientUnits="userSpaceOnUse">
<stop stop-color="#585C61"/>
<stop offset="1" stop-color="#B4BDC7"/>
</linearGradient>
<linearGradient id="paint53_linear_27_145" x1="172" y1="121" x2="172" y2="113" gradientUnits="userSpaceOnUse">
<stop stop-color="#585C61"/>
<stop offset="1" stop-color="#B4BDC7"/>
</linearGradient>
<linearGradient id="paint54_linear_27_145" x1="211.5" y1="134" x2="211.5" y2="126" gradientUnits="userSpaceOnUse">
<stop stop-color="#585C61"/>
<stop offset="1" stop-color="#B4BDC7"/>
</linearGradient>
<linearGradient id="paint55_linear_27_145" x1="173.5" y1="2" x2="173.5" y2="-6" gradientUnits="userSpaceOnUse">
<stop stop-color="#585C61"/>
<stop offset="1" stop-color="#B4BDC7"/>
</linearGradient>
<linearGradient id="paint56_linear_27_145" x1="284" y1="4" x2="284" y2="-4" gradientUnits="userSpaceOnUse">
<stop stop-color="#585C61"/>
<stop offset="1" stop-color="#B4BDC7"/>
</linearGradient>
<linearGradient id="paint57_linear_27_145" x1="372.5" y1="87" x2="372.5" y2="79" gradientUnits="userSpaceOnUse">
<stop stop-color="#585C61"/>
<stop offset="1" stop-color="#B4BDC7"/>
</linearGradient>
<linearGradient id="paint58_linear_27_145" x1="404" y1="126" x2="404" y2="118" gradientUnits="userSpaceOnUse">
<stop stop-color="#585C61"/>
<stop offset="1" stop-color="#B4BDC7"/>
</linearGradient>
<linearGradient id="paint59_linear_27_145" x1="519.5" y1="119" x2="519.5" y2="111" gradientUnits="userSpaceOnUse">
<stop stop-color="#585C61"/>
<stop offset="1" stop-color="#B4BDC7"/>
</linearGradient>
<linearGradient id="paint60_linear_27_145" x1="456.5" y1="225" x2="456.5" y2="217" gradientUnits="userSpaceOnUse">
<stop stop-color="#585C61"/>
<stop offset="1" stop-color="#B4BDC7"/>
</linearGradient>
<linearGradient id="paint61_linear_27_145" x1="436.5" y1="158" x2="436.5" y2="150" gradientUnits="userSpaceOnUse">
<stop stop-color="#585C61"/>
<stop offset="1" stop-color="#B4BDC7"/>
</linearGradient>
<linearGradient id="paint62_linear_27_145" x1="393" y1="190" x2="393" y2="182" gradientUnits="userSpaceOnUse">
<stop stop-color="#585C61"/>
<stop offset="1" stop-color="#B4BDC7"/>
</linearGradient>
<linearGradient id="paint63_linear_27_145" x1="513" y1="190" x2="513" y2="182" gradientUnits="userSpaceOnUse">
<stop stop-color="#585C61"/>
<stop offset="1" stop-color="#B4BDC7"/>
</linearGradient>
<linearGradient id="paint64_linear_27_145" x1="250" y1="258" x2="257" y2="258" gradientUnits="userSpaceOnUse">
<stop stop-color="#585C61"/>
<stop offset="1" stop-color="#B4BDC7"/>
</linearGradient>
<linearGradient id="paint65_linear_27_145" x1="209" y1="264" x2="219" y2="264" gradientUnits="userSpaceOnUse">
<stop stop-color="#585C61"/>
<stop offset="1" stop-color="#B4BDC7"/>
</linearGradient>
<linearGradient id="paint66_linear_27_145" x1="267" y1="264" x2="277" y2="264" gradientUnits="userSpaceOnUse">
<stop stop-color="#585C61"/>
<stop offset="1" stop-color="#B4BDC7"/>
</linearGradient>
<linearGradient id="paint67_linear_27_145" x1="203" y1="165" x2="283" y2="165" gradientUnits="userSpaceOnUse">
<stop stop-color="#ADB6BF"/>
<stop offset="0.149038" stop-color="#EDF5FF"/>
<stop offset="0.807692" stop-color="#CFDDEF"/>
<stop offset="1" stop-color="#ADB6BF"/>
</linearGradient>
<linearGradient id="paint68_linear_27_145" x1="197" y1="117" x2="204" y2="117" gradientUnits="userSpaceOnUse">
<stop stop-color="#585C61"/>
<stop offset="1" stop-color="#B4BDC7"/>
</linearGradient>
<linearGradient id="paint69_linear_27_145" x1="236" y1="83" x2="243" y2="83" gradientUnits="userSpaceOnUse">
<stop stop-color="#585C61"/>
<stop offset="1" stop-color="#B4BDC7"/>
</linearGradient>
<linearGradient id="paint70_linear_27_145" x1="197" y1="138" x2="204" y2="138" gradientUnits="userSpaceOnUse">
<stop stop-color="#585C61"/>
<stop offset="1" stop-color="#B4BDC7"/>
</linearGradient>
<linearGradient id="paint71_linear_27_145" x1="282" y1="201" x2="289" y2="201" gradientUnits="userSpaceOnUse">
<stop stop-color="#585C61"/>
<stop offset="1" stop-color="#B4BDC7"/>
</linearGradient>
<linearGradient id="paint72_linear_27_145" x1="20" y1="264" x2="30" y2="264" gradientUnits="userSpaceOnUse">
<stop stop-color="#585C61"/>
<stop offset="1" stop-color="#B4BDC7"/>
</linearGradient>
<linearGradient id="paint73_linear_27_145" x1="98" y1="264" x2="108" y2="264" gradientUnits="userSpaceOnUse">
<stop stop-color="#585C61"/>
<stop offset="1" stop-color="#B4BDC7"/>
</linearGradient>
<linearGradient id="paint74_linear_27_145" x1="24" y1="154" x2="104" y2="154" gradientUnits="userSpaceOnUse">
<stop stop-color="#585C61"/>
<stop offset="0.697115" stop-color="#E4E9EF"/>
<stop offset="1" stop-color="#8A8A97"/>
</linearGradient>
<linearGradient id="paint75_linear_27_145" x1="20" y1="150" x2="110" y2="150" gradientUnits="userSpaceOnUse">
<stop stop-color="#585C61"/>
<stop offset="0.697115" stop-color="#E4E9EF"/>
<stop offset="1" stop-color="#8A8A97"/>
</linearGradient>
<linearGradient id="paint76_linear_27_145" x1="14" y1="212" x2="114" y2="212" gradientUnits="userSpaceOnUse">
<stop stop-color="#585C61"/>
<stop offset="0.697115" stop-color="#E4E9EF"/>
<stop offset="1" stop-color="#8A8A97"/>
</linearGradient>
<linearGradient id="paint77_linear_27_145" x1="171" y1="122" x2="171" y2="112" gradientUnits="userSpaceOnUse">
<stop stop-color="#585C61"/>
<stop offset="1" stop-color="#B4BDC7"/>
</linearGradient>
<linearGradient id="paint78_linear_27_145" x1="169" y1="97" x2="173" y2="97" gradientUnits="userSpaceOnUse">
<stop stop-color="#585C61"/>
<stop offset="1" stop-color="#B4BDC7"/>
</linearGradient>
<linearGradient id="paint79_linear_27_145" x1="167" y1="96.5" x2="175" y2="96.5" gradientUnits="userSpaceOnUse">
<stop stop-color="#585C61"/>
<stop offset="1" stop-color="#B4BDC7"/>
</linearGradient>
<linearGradient id="paint80_linear_27_145" x1="154" y1="117" x2="160" y2="117" gradientUnits="userSpaceOnUse">
<stop stop-color="#585C61"/>
<stop offset="1" stop-color="#B4BDC7"/>
</linearGradient>
<linearGradient id="paint81_linear_27_145" x1="182" y1="117" x2="188" y2="117" gradientUnits="userSpaceOnUse">
<stop stop-color="#585C61"/>
<stop offset="1" stop-color="#B4BDC7"/>
</linearGradient>
<linearGradient id="paint82_linear_27_145" x1="250" y1="51" x2="250" y2="61" gradientUnits="userSpaceOnUse">
<stop stop-color="#585C61"/>
<stop offset="1" stop-color="#B4BDC7"/>
</linearGradient>
<linearGradient id="paint83_linear_27_145" x1="236" y1="63" x2="242" y2="63" gradientUnits="userSpaceOnUse">
<stop stop-color="#585C61"/>
<stop offset="1" stop-color="#B4BDC7"/>
</linearGradient>
<linearGradient id="paint84_linear_27_145" x1="236" y1="35" x2="242" y2="35" gradientUnits="userSpaceOnUse">
<stop stop-color="#585C61"/>
<stop offset="1" stop-color="#B4BDC7"/>
</linearGradient>
<linearGradient id="paint85_linear_27_145" x1="247" y1="47" x2="257" y2="47" gradientUnits="userSpaceOnUse">
<stop stop-color="#585C61"/>
<stop offset="1" stop-color="#B4BDC7"/>
</linearGradient>
<linearGradient id="paint86_linear_27_145" x1="376" y1="93" x2="383" y2="93" gradientUnits="userSpaceOnUse">
<stop stop-color="#585C61"/>
<stop offset="1" stop-color="#B4BDC7"/>
</linearGradient>
<linearGradient id="paint87_linear_27_145" x1="444" y1="112" x2="451" y2="112" gradientUnits="userSpaceOnUse">
<stop stop-color="#585C61"/>
<stop offset="1" stop-color="#B4BDC7"/>
</linearGradient>
<linearGradient id="paint88_linear_27_145" x1="367" y1="91" x2="370" y2="91" gradientUnits="userSpaceOnUse">
<stop stop-color="#585C61"/>
<stop offset="1" stop-color="#B4BDC7"/>
</linearGradient>
<linearGradient id="paint89_linear_27_145" x1="367" y1="101" x2="370" y2="101" gradientUnits="userSpaceOnUse">
<stop stop-color="#585C61"/>
<stop offset="1" stop-color="#B4BDC7"/>
</linearGradient>
<linearGradient id="paint90_linear_27_145" x1="369" y1="96" x2="376" y2="96" gradientUnits="userSpaceOnUse">
<stop stop-color="#585C61"/>
<stop offset="1" stop-color="#B4BDC7"/>
</linearGradient>
<linearGradient id="paint91_linear_27_145" x1="415" y1="106" x2="415" y2="85" gradientUnits="userSpaceOnUse">
<stop stop-color="#585C61"/>
<stop offset="1" stop-color="#B4BDC7"/>
</linearGradient>
<linearGradient id="paint92_linear_27_145" x1="347" y1="132" x2="354" y2="132" gradientUnits="userSpaceOnUse">
<stop stop-color="#585C61"/>
<stop offset="1" stop-color="#B4BDC7"/>
</linearGradient>
<linearGradient id="paint93_linear_27_145" x1="415" y1="151" x2="422" y2="151" gradientUnits="userSpaceOnUse">
<stop stop-color="#585C61"/>
<stop offset="1" stop-color="#B4BDC7"/>
</linearGradient>
<linearGradient id="paint94_linear_27_145" x1="338" y1="130" x2="341" y2="130" gradientUnits="userSpaceOnUse">
<stop stop-color="#585C61"/>
<stop offset="1" stop-color="#B4BDC7"/>
</linearGradient>
<linearGradient id="paint95_linear_27_145" x1="338" y1="140" x2="341" y2="140" gradientUnits="userSpaceOnUse">
<stop stop-color="#585C61"/>
<stop offset="1" stop-color="#B4BDC7"/>
</linearGradient>
<linearGradient id="paint96_linear_27_145" x1="340" y1="135" x2="347" y2="135" gradientUnits="userSpaceOnUse">
<stop stop-color="#585C61"/>
<stop offset="1" stop-color="#B4BDC7"/>
</linearGradient>
<linearGradient id="paint97_linear_27_145" x1="386" y1="145" x2="386" y2="124" gradientUnits="userSpaceOnUse">
<stop stop-color="#585C61"/>
<stop offset="1" stop-color="#B4BDC7"/>
</linearGradient>
<linearGradient id="paint98_linear_27_145" x1="402" y1="173" x2="412" y2="173" gradientUnits="userSpaceOnUse">
<stop stop-color="#585C61"/>
<stop offset="1" stop-color="#B4BDC7"/>
</linearGradient>
<linearGradient id="paint99_linear_27_145" x1="415.5" y1="188" x2="415.5" y2="178" gradientUnits="userSpaceOnUse">
<stop stop-color="#585C61"/>
<stop offset="1" stop-color="#B4BDC7"/>
</linearGradient>
<linearGradient id="paint100_linear_27_145" x1="404" y1="166.5" x2="404" y2="176.5" gradientUnits="userSpaceOnUse">
<stop stop-color="#585C61"/>
<stop offset="1" stop-color="#B4BDC7"/>
</linearGradient>
<linearGradient id="paint101_linear_27_145" x1="415.5" y1="173" x2="415.5" y2="163" gradientUnits="userSpaceOnUse">
<stop stop-color="#585C61"/>
<stop offset="1" stop-color="#B4BDC7"/>
</linearGradient>
<linearGradient id="paint102_linear_27_145" x1="443" y1="173" x2="433" y2="173" gradientUnits="userSpaceOnUse">
<stop stop-color="#585C61"/>
<stop offset="1" stop-color="#B4BDC7"/>
</linearGradient>
<linearGradient id="paint103_linear_27_145" x1="434.5" y1="178" x2="434.5" y2="168" gradientUnits="userSpaceOnUse">
<stop stop-color="#585C61"/>
<stop offset="1" stop-color="#B4BDC7"/>
</linearGradient>
<linearGradient id="paint104_linear_27_145" x1="441" y1="179.5" x2="441" y2="169.5" gradientUnits="userSpaceOnUse">
<stop stop-color="#585C61"/>
<stop offset="1" stop-color="#B4BDC7"/>
</linearGradient>
<linearGradient id="paint105_linear_27_145" x1="434.5" y1="193" x2="434.5" y2="183" gradientUnits="userSpaceOnUse">
<stop stop-color="#585C61"/>
<stop offset="1" stop-color="#B4BDC7"/>
</linearGradient>
<linearGradient id="paint106_linear_27_145" x1="203" y1="165" x2="283" y2="165" gradientUnits="userSpaceOnUse">
<stop stop-color="#585C61"/>
<stop offset="0.697115" stop-color="#E4E9EF"/>
<stop offset="1" stop-color="#8A8A97"/>
</linearGradient>
<clipPath id="clip0_27_145">
<rect width="537" height="306" fill="white"/>
</clipPath>
</defs>
</svg>
