<svg width="800" height="600" viewBox="0 0 800 600" fill="none" xmlns="http://www.w3.org/2000/svg" xmlns:xlink="http://www.w3.org/1999/xlink">
<rect width="800" height="600" fill="white"/>
<path d="M652 399.5C679.599 399.5 704.575 401.01 722.644 403.449C731.681 404.669 738.97 406.12 743.989 407.722C746.502 408.524 748.417 409.354 749.693 410.196C750.994 411.054 751.5 411.834 751.5 412.5C751.5 413.166 750.994 413.946 749.693 414.804C748.417 415.646 746.502 416.476 743.989 417.278C738.97 418.88 731.681 420.331 722.644 421.551C704.575 423.99 679.599 425.5 652 425.5C624.401 425.5 599.425 423.99 581.356 421.551C572.319 420.331 565.03 418.88 560.011 417.278C557.498 416.476 555.583 415.646 554.307 414.804C553.006 413.946 552.5 413.166 552.5 412.5C552.5 411.834 553.006 411.054 554.307 410.196C555.583 409.354 557.498 408.524 560.011 407.722C565.03 406.12 572.319 404.669 581.356 403.449C599.425 401.01 624.401 399.5 652 399.5Z" fill="#B7B7B7" stroke="black"/>
<mask id="path-2-inside-1_1_2" fill="white">
<path d="M552 396H752V413H552V396Z"/>
</mask>
<path d="M552 396H752V413H552V396Z" fill="#B7B7B7"/>
<path d="M752 396H751V413H752H753V396H752ZM552 413H553V396H552H551V413H552Z" fill="black" mask="url(#path-2-inside-1_1_2)"/>
<path d="M652 384.5C679.599 384.5 704.575 386.01 722.644 388.449C731.681 389.669 738.97 391.12 743.989 392.722C746.502 393.524 748.417 394.354 749.693 395.196C750.994 396.054 751.5 396.834 751.5 397.5C751.5 398.166 750.994 398.946 749.693 399.804C748.417 400.646 746.502 401.476 743.989 402.278C738.97 403.88 731.681 405.331 722.644 406.551C704.575 408.99 679.599 410.5 652 410.5C624.401 410.5 599.425 408.99 581.356 406.551C572.319 405.331 565.03 403.88 560.011 402.278C557.498 401.476 555.583 400.646 554.307 399.804C553.006 398.946 552.5 398.166 552.5 397.5C552.5 396.834 553.006 396.054 554.307 395.196C555.583 394.354 557.498 393.524 560.011 392.722C565.03 391.12 572.319 389.669 581.356 388.449C599.425 386.01 624.401 384.5 652 384.5Z" fill="#B7B7B7" stroke="black"/>
<mask id="path-5-inside-2_1_2" fill="white">
<path d="M552 286H752V398H552V286Z"/>
</mask>
<path d="M752 286H751V398H752H753V286H752ZM552 398H553V286H552H551V398H552Z" fill="black" mask="url(#path-5-inside-2_1_2)"/>
<path d="M708 394.5C709.872 394.5 711.543 394.881 712.727 395.473C713.94 396.079 714.5 396.825 714.5 397.5C714.5 398.175 713.94 398.921 712.727 399.527C711.543 400.119 709.872 400.5 708 400.5C706.128 400.5 704.457 400.119 703.273 399.527C702.06 398.921 701.5 398.175 701.5 397.5C701.5 396.825 702.06 396.079 703.273 395.473C704.457 394.881 706.128 394.5 708 394.5Z" fill="#707070" stroke="black"/>
<path d="M708 396.5C709.06 396.5 709.999 396.662 710.653 396.907C710.982 397.031 711.213 397.166 711.354 397.29C711.494 397.415 711.5 397.487 711.5 397.5C711.5 397.513 711.494 397.585 711.354 397.71C711.213 397.834 710.982 397.969 710.653 398.093C709.999 398.338 709.06 398.5 708 398.5C706.94 398.5 706.001 398.338 705.347 398.093C705.018 397.969 704.787 397.834 704.646 397.71C704.506 397.585 704.5 397.513 704.5 397.5C704.5 397.487 704.506 397.415 704.646 397.29C704.787 397.166 705.018 397.031 705.347 396.907C706.001 396.662 706.94 396.5 708 396.5Z" fill="#222222" stroke="black"/>
<path d="M750.934 397C750.977 397.166 751 397.333 751 397.5C751 403.5 711 410 651.932 410C590.5 410 553 403 553 397.5C553 397.333 553.023 397.166 553.066 397H750.934Z" fill="#2F7CEF" fill-opacity="0.6"/>
<path d="M751 397H553V338.415C559.891 344.964 601.589 350 652 350C702.411 350 744.109 344.964 751 338.415V397Z" fill="#2F7CEF" fill-opacity="0.6"/>
<path d="M652 324.5C679.599 324.5 704.575 326.01 722.644 328.449C731.681 329.669 738.97 331.12 743.989 332.722C746.502 333.524 748.417 334.354 749.693 335.196C750.994 336.054 751.5 336.834 751.5 337.5C751.5 338.166 750.994 338.946 749.693 339.804C748.417 340.646 746.502 341.476 743.989 342.278C738.97 343.88 731.681 345.331 722.644 346.551C704.575 348.99 679.599 350.5 652 350.5C624.401 350.5 599.425 348.99 581.356 346.551C572.319 345.331 565.03 343.88 560.011 342.278C557.498 341.476 555.583 340.646 554.307 339.804C553.006 338.946 552.5 338.166 552.5 337.5C552.5 336.834 553.006 336.054 554.307 335.196C555.583 334.354 557.498 333.524 560.011 332.722C565.03 331.12 572.319 329.669 581.356 328.449C599.425 326.01 624.401 324.5 652 324.5Z" fill="#2F7CEF" fill-opacity="0.6" stroke="black"/>
<path d="M570.5 288.5C567.833 288.5 565.167 288.5 562.5 288.5C562.655 289.317 562.855 290.133 563.058 290.95C563.509 292.763 563.974 294.576 564 296.389C564.185 309.276 564.317 322.163 564.47 335.05C564.48 335.867 564.49 336.683 564.5 337.5C565.833 337.5 567.167 337.5 568.5 337.5C568.51 336.683 568.52 335.867 568.53 335.05C568.683 322.163 568.815 309.276 569 296.389C569.026 294.576 569.491 292.763 569.942 290.95C570.145 290.133 570.345 289.317 570.5 288.5Z" fill="#2F7CEF" fill-opacity="0.6"/>
<path d="M652 273.5C679.599 273.5 704.575 275.01 722.644 277.449C731.681 278.669 738.97 280.12 743.989 281.722C746.502 282.524 748.417 283.354 749.693 284.196C750.994 285.054 751.5 285.834 751.5 286.5C751.5 287.166 750.994 287.946 749.693 288.804C748.417 289.646 746.502 290.476 743.989 291.278C738.97 292.88 731.681 294.331 722.644 295.551C704.575 297.99 679.599 299.5 652 299.5C624.401 299.5 599.425 297.99 581.356 295.551C572.319 294.331 565.03 292.88 560.011 291.278C557.498 290.476 555.583 289.646 554.307 288.804C553.006 287.946 552.5 287.166 552.5 286.5C552.5 285.834 553.006 285.054 554.307 284.196C555.583 283.354 557.498 282.524 560.011 281.722C565.03 280.12 572.319 278.669 581.356 277.449C599.425 275.01 624.401 273.5 652 273.5Z" stroke="black"/>
<path d="M422 253C467.949 253 566.5 217.5 566.5 288.5" stroke="#2F7CEF" stroke-opacity="0.6" stroke-width="8"/>
<path d="M422 253C467.949 253 566.5 217.5 566.5 288.5" stroke="#AEAEAE" stroke-opacity="0.5" stroke-width="12"/>
<path d="M372 353H272C327.228 353 372 308.228 372 253C372 197.772 327.228 153 272 153C216.772 153 172 197.772 172 253C172 308.228 216.772 353 272 353H172V153H372V353Z" fill="#121212"/>
<circle cx="272" cy="253" r="80" stroke="#121212" stroke-width="4"/>
<circle cx="272" cy="253" r="50" stroke="#121212" stroke-width="4"/>
<circle cx="272" cy="253" r="25" fill="#121212"/>
<path d="M286.495 198.328C282.11 212.672 278.874 228.369 281.831 230.842L268.125 230.879C263.624 221.66 253.715 208.174 253.024 188.095C252.443 171.186 257.361 157.122 266.517 154.052C274.673 151.317 288.792 153.02 305.097 158.005C298.739 164.949 290.004 186.852 286.495 198.328Z" fill="#121212"/>
<path d="M326.585 238.22C311.97 241.594 296.758 246.641 296.095 250.437L289.21 238.587C294.943 230.079 301.668 214.755 318.712 204.117C333.065 195.158 347.704 192.386 354.94 198.78C361.387 204.476 366.972 217.555 370.807 234.168C361.614 232.134 338.278 235.52 326.585 238.22Z" fill="#121212"/>
<path d="M312.083 292.885C301.853 281.914 289.877 271.264 286.258 272.588L293.078 260.7C303.312 261.411 319.946 259.573 337.681 269.015C352.615 276.965 362.335 288.257 360.416 297.721C358.707 306.152 350.173 317.528 337.703 329.156C334.868 320.178 320.267 301.661 312.083 292.885Z" fill="#121212"/>
<path d="M257.491 307.658C261.876 293.313 265.111 277.617 262.155 275.144L275.861 275.107C280.362 284.325 290.271 297.812 290.961 317.891C291.543 334.8 286.624 348.864 277.469 351.934C269.313 354.669 255.194 352.966 238.889 347.981C245.247 341.037 253.982 319.134 257.491 307.658Z" fill="#121212"/>
<path d="M217.4 267.766C232.016 264.392 247.227 259.345 247.89 255.549L254.776 267.399C249.043 275.907 242.318 291.231 225.274 301.869C210.921 310.827 196.282 313.599 189.046 307.206C182.599 301.51 177.014 288.431 173.178 271.818C182.372 273.852 205.708 270.466 217.4 267.766Z" fill="#121212"/>
<path d="M231.903 213.101C242.133 224.071 254.109 234.722 257.728 233.398L250.908 245.286C240.674 244.574 224.04 246.412 206.305 236.971C191.371 229.02 181.651 217.729 183.57 208.265C185.279 199.834 193.813 188.458 206.283 176.83C209.118 185.808 223.719 204.325 231.903 213.101Z" fill="#121212"/>
<rect x="741.5" y="444.5" width="75" height="40" rx="9.5" transform="rotate(180 741.5 444.5)" fill="#3F3E3E" stroke="black"/>
<rect x="736.4" y="441.095" width="64.8" height="33.1905" rx="10" transform="rotate(180 736.4 441.095)" fill="#5B5B5B"/>
<rect x="677.5" y="411.5" width="53" height="26" rx="3.5" fill="#7D7D7D" stroke="black"/>
<rect x="679" y="414" width="50" height="21" rx="4" fill="#989898"/>
<rect x="700" y="413" width="19" height="8" fill="#F6F6F6"/>
<path d="M701.528 419V414.636H703.003C703.345 414.636 703.625 414.698 703.842 414.822C704.061 414.944 704.223 415.109 704.328 415.318C704.433 415.527 704.486 415.76 704.486 416.017C704.486 416.274 704.433 416.508 704.328 416.718C704.224 416.928 704.064 417.096 703.847 417.221C703.629 417.344 703.351 417.406 703.011 417.406H701.955V416.938H702.994C703.229 416.938 703.417 416.897 703.559 416.816C703.701 416.735 703.804 416.626 703.868 416.488C703.933 416.349 703.966 416.192 703.966 416.017C703.966 415.842 703.933 415.686 703.868 415.548C703.804 415.411 703.7 415.303 703.557 415.224C703.413 415.145 703.223 415.105 702.986 415.105H702.057V419H701.528ZM707.331 417.662V415.727H707.834V419H707.331V418.446H707.297C707.221 418.612 707.101 418.754 706.939 418.87C706.777 418.985 706.573 419.043 706.326 419.043C706.121 419.043 705.939 418.998 705.78 418.908C705.621 418.817 705.496 418.681 705.405 418.499C705.314 418.316 705.269 418.085 705.269 417.807V415.727H705.772V417.773C705.772 418.011 705.838 418.202 705.972 418.344C706.107 418.486 706.279 418.557 706.488 418.557C706.613 418.557 706.74 418.525 706.869 418.461C707 418.397 707.109 418.299 707.197 418.167C707.287 418.035 707.331 417.866 707.331 417.662ZM708.755 419V415.727H709.241V416.239H709.284C709.352 416.064 709.462 415.928 709.614 415.832C709.766 415.734 709.948 415.685 710.161 415.685C710.377 415.685 710.557 415.734 710.7 415.832C710.845 415.928 710.958 416.064 711.039 416.239H711.073C711.157 416.07 711.283 415.935 711.45 415.836C711.618 415.735 711.819 415.685 712.053 415.685C712.346 415.685 712.585 415.776 712.771 415.96C712.958 416.141 713.051 416.425 713.051 416.81V419H712.548V416.81C712.548 416.568 712.482 416.396 712.35 416.292C712.218 416.188 712.062 416.136 711.883 416.136C711.653 416.136 711.475 416.206 711.348 416.345C711.222 416.483 711.159 416.658 711.159 416.869V419H710.647V416.759C710.647 416.572 710.587 416.423 710.466 416.309C710.345 416.194 710.19 416.136 709.999 416.136C709.869 416.136 709.747 416.171 709.633 416.241C709.521 416.31 709.43 416.407 709.36 416.531C709.292 416.653 709.258 416.794 709.258 416.955V419H708.755ZM713.97 420.227V415.727H714.456V416.247H714.515C714.552 416.19 714.604 416.118 714.669 416.03C714.736 415.94 714.831 415.861 714.954 415.791C715.079 415.72 715.248 415.685 715.461 415.685C715.737 415.685 715.98 415.754 716.19 415.891C716.4 416.029 716.564 416.224 716.682 416.477C716.8 416.73 716.859 417.028 716.859 417.372C716.859 417.719 716.8 418.019 716.682 418.273C716.564 418.526 716.401 418.722 716.192 418.862C715.983 418.999 715.743 419.068 715.47 419.068C715.26 419.068 715.091 419.033 714.965 418.964C714.839 418.893 714.741 418.812 714.673 418.723C714.605 418.632 714.552 418.557 714.515 418.497H714.473V420.227H713.97ZM714.464 417.364C714.464 417.611 714.501 417.829 714.573 418.018C714.645 418.205 714.751 418.352 714.89 418.459C715.03 418.564 715.2 418.616 715.402 418.616C715.612 418.616 715.787 418.561 715.928 418.45C716.07 418.338 716.177 418.187 716.248 417.999C716.32 417.808 716.356 417.597 716.356 417.364C716.356 417.134 716.321 416.926 716.25 416.741C716.18 416.555 716.074 416.408 715.932 416.3C715.792 416.191 715.615 416.136 715.402 416.136C715.197 416.136 715.025 416.188 714.886 416.292C714.747 416.394 714.642 416.538 714.571 416.722C714.5 416.906 714.464 417.119 714.464 417.364Z" fill="black"/>
<rect x="698.5" y="423.5" width="23" height="10" rx="0.5" fill="#1C1C1C" stroke="black"/>
<rect x="699" y="424" width="11" height="9" fill="#D90000"/>
<rect x="710" y="424" width="11" height="9" fill="#7B0101"/>
<circle cx="716.5" cy="428.5" r="3" stroke="#EED5D5"/>
<line x1="703.5" y1="425" x2="703.5" y2="432" stroke="#EED5D5"/>
<circle cx="689" cy="425" r="7.5" transform="rotate(180 689 425)" fill="#222222" stroke="black"/>
<path d="M682.086 423.905L683.074 424.061" stroke="white" stroke-width="0.25"/>
<path d="M682.343 422.837L683.294 423.146" stroke="white" stroke-width="0.25"/>
<path d="M682.763 421.822L683.654 422.276" stroke="white" stroke-width="0.25"/>
<path d="M683.337 420.885L684.146 421.473" stroke="white" stroke-width="0.25"/>
<path d="M684.885 419.337L685.473 420.146" stroke="white" stroke-width="0.25"/>
<path d="M685.822 418.763L686.276 419.654" stroke="white" stroke-width="0.25"/>
<path d="M686.837 418.343L687.146 419.294" stroke="white" stroke-width="0.25"/>
<path d="M687.905 418.086L688.061 419.074" stroke="white" stroke-width="0.25"/>
<path d="M690.095 418.086L689.939 419.074" stroke="white" stroke-width="0.25"/>
<path d="M691.163 418.343L690.854 419.294" stroke="white" stroke-width="0.25"/>
<path d="M692.178 418.763L691.724 419.654" stroke="white" stroke-width="0.25"/>
<path d="M693.115 419.337L692.527 420.146" stroke="white" stroke-width="0.25"/>
<path d="M694.663 420.885L693.854 421.473" stroke="white" stroke-width="0.25"/>
<path d="M695.237 421.822L694.346 422.276" stroke="white" stroke-width="0.25"/>
<path d="M695.657 422.837L694.706 423.146" stroke="white" stroke-width="0.25"/>
<path d="M695.914 423.905L694.926 424.061" stroke="white" stroke-width="0.25"/>
<path d="M695.914 426.095L694.926 425.939" stroke="white" stroke-width="0.25"/>
<path d="M695.657 427.163L694.706 426.854" stroke="white" stroke-width="0.25"/>
<path d="M695.237 428.178L694.346 427.724" stroke="white" stroke-width="0.25"/>
<path d="M694.663 429.115L693.854 428.527" stroke="white" stroke-width="0.25"/>
<path d="M693.115 430.663L692.527 429.854" stroke="white" stroke-width="0.25"/>
<path d="M692.178 431.237L691.724 430.346" stroke="white" stroke-width="0.25"/>
<path d="M691.163 431.657L690.854 430.706" stroke="white" stroke-width="0.25"/>
<path d="M690.095 431.914L689.939 430.926" stroke="white" stroke-width="0.25"/>
<path d="M689 432V430.5" stroke="white" stroke-width="0.25"/>
<path d="M682.003 425.003L683.503 425.003" stroke="white" stroke-width="0.25"/>
<path d="M684.052 420.055L685.113 421.115" stroke="white" stroke-width="0.25"/>
<path d="M689 418.005L689 419.505" stroke="white" stroke-width="0.25"/>
<path d="M693.948 420.055L692.887 421.115" stroke="white" stroke-width="0.25"/>
<path d="M695.997 425.003L694.497 425.003" stroke="white" stroke-width="0.25"/>
<path d="M693.948 429.95L692.887 428.89" stroke="white" stroke-width="0.25"/>
<path d="M659 414.5H665.5V435.5H659C657.067 435.5 655.5 433.933 655.5 432V418C655.5 416.067 657.067 414.5 659 414.5Z" fill="#2F2F2F" stroke="black"/>
<path d="M155.673 360.687C156.744 356.181 160.77 353 165.402 353H378.341C383.09 353 387.184 356.34 388.138 360.993L396.539 401.993C397.81 408.193 393.073 414 386.743 414H155.656C149.198 414 144.433 407.97 145.927 401.687L155.673 360.687Z" fill="#474747"/>
<g id="fins_inner" data-figma-trr="l16u1-0f">
<g filter="url(#filter0_i_1_2)">
<line x1="172" y1="164" x2="372" y2="164" stroke="#7B7B7B" stroke-width="3"/>
</g>
<path d="M172 162C173 162 173 157 173 157.5C173 158 173 153 174 153C174.8 153 175 156.833 175 157.5C175 158.167 175.2 162 176 162" stroke="#252525" stroke-width="1.5"/>
<path d="M176 162C177 162 177 157 177 157.5C177 158 177 153 178 153C178.8 153 179 156.833 179 157.5C179 158.167 179.2 162 180 162" stroke="#252525" stroke-width="1.5"/>
<path d="M180 162C181 162 181 157 181 157.5C181 158 181 153 182 153C182.8 153 183 156.833 183 157.5C183 158.167 183.2 162 184 162" stroke="#252525" stroke-width="1.5"/>
<path d="M184 162C185 162 185 157 185 157.5C185 158 185 153 186 153C186.8 153 187 156.833 187 157.5C187 158.167 187.2 162 188 162" stroke="#252525" stroke-width="1.5"/>
<path d="M188 162C189 162 189 157 189 157.5C189 158 189 153 190 153C190.8 153 191 156.833 191 157.5C191 158.167 191.2 162 192 162" stroke="#252525" stroke-width="1.5"/>
<path d="M192 162C193 162 193 157 193 157.5C193 158 193 153 194 153C194.8 153 195 156.833 195 157.5C195 158.167 195.2 162 196 162" stroke="#252525" stroke-width="1.5"/>
<path d="M196 162C197 162 197 157 197 157.5C197 158 197 153 198 153C198.8 153 199 156.833 199 157.5C199 158.167 199.2 162 200 162" stroke="#252525" stroke-width="1.5"/>
<path d="M200 162C201 162 201 157 201 157.5C201 158 201 153 202 153C202.8 153 203 156.833 203 157.5C203 158.167 203.2 162 204 162" stroke="#252525" stroke-width="1.5"/>
<path d="M204 162C205 162 205 157 205 157.5C205 158 205 153 206 153C206.8 153 207 156.833 207 157.5C207 158.167 207.2 162 208 162" stroke="#252525" stroke-width="1.5"/>
<path d="M208 162C209 162 209 157 209 157.5C209 158 209 153 210 153C210.8 153 211 156.833 211 157.5C211 158.167 211.2 162 212 162" stroke="#252525" stroke-width="1.5"/>
<path d="M212 162C213 162 213 157 213 157.5C213 158 213 153 214 153C214.8 153 215 156.833 215 157.5C215 158.167 215.2 162 216 162" stroke="#252525" stroke-width="1.5"/>
<path d="M216 162C217 162 217 157 217 157.5C217 158 217 153 218 153C218.8 153 219 156.833 219 157.5C219 158.167 219.2 162 220 162" stroke="#252525" stroke-width="1.5"/>
<path d="M220 162C221 162 221 157 221 157.5C221 158 221 153 222 153C222.8 153 223 156.833 223 157.5C223 158.167 223.2 162 224 162" stroke="#252525" stroke-width="1.5"/>
<path d="M224 162C225 162 225 157 225 157.5C225 158 225 153 226 153C226.8 153 227 156.833 227 157.5C227 158.167 227.2 162 228 162" stroke="#252525" stroke-width="1.5"/>
<path d="M228 162C229 162 229 157 229 157.5C229 158 229 153 230 153C230.8 153 231 156.833 231 157.5C231 158.167 231.2 162 232 162" stroke="#252525" stroke-width="1.5"/>
<path d="M232 162C233 162 233 157 233 157.5C233 158 233 153 234 153C234.8 153 235 156.833 235 157.5C235 158.167 235.2 162 236 162" stroke="#252525" stroke-width="1.5"/>
<path d="M236 162C237 162 237 157 237 157.5C237 158 237 153 238 153C238.8 153 239 156.833 239 157.5C239 158.167 239.2 162 240 162" stroke="#252525" stroke-width="1.5"/>
<path d="M240 162C241 162 241 157 241 157.5C241 158 241 153 242 153C242.8 153 243 156.833 243 157.5C243 158.167 243.2 162 244 162" stroke="#252525" stroke-width="1.5"/>
<path d="M244 162C245 162 245 157 245 157.5C245 158 245 153 246 153C246.8 153 247 156.833 247 157.5C247 158.167 247.2 162 248 162" stroke="#252525" stroke-width="1.5"/>
<path d="M248 162C249 162 249 157 249 157.5C249 158 249 153 250 153C250.8 153 251 156.833 251 157.5C251 158.167 251.2 162 252 162" stroke="#252525" stroke-width="1.5"/>
<path d="M252 162C253 162 253 157 253 157.5C253 158 253 153 254 153C254.8 153 255 156.833 255 157.5C255 158.167 255.2 162 256 162" stroke="#252525" stroke-width="1.5"/>
<path d="M256 162C257 162 257 157 257 157.5C257 158 257 153 258 153C258.8 153 259 156.833 259 157.5C259 158.167 259.2 162 260 162" stroke="#252525" stroke-width="1.5"/>
<path d="M260 162C261 162 261 157 261 157.5C261 158 261 153 262 153C262.8 153 263 156.833 263 157.5C263 158.167 263.2 162 264 162" stroke="#252525" stroke-width="1.5"/>
<path d="M264 162C265 162 265 157 265 157.5C265 158 265 153 266 153C266.8 153 267 156.833 267 157.5C267 158.167 267.2 162 268 162" stroke="#252525" stroke-width="1.5"/>
<path d="M268 162C269 162 269 157 269 157.5C269 158 269 153 270 153C270.8 153 271 156.833 271 157.5C271 158.167 271.2 162 272 162" stroke="#252525" stroke-width="1.5"/>
<path d="M272 162C273 162 273 157 273 157.5C273 158 273 153 274 153C274.8 153 275 156.833 275 157.5C275 158.167 275.2 162 276 162" stroke="#252525" stroke-width="1.5"/>
<path d="M276 162C277 162 277 157 277 157.5C277 158 277 153 278 153C278.8 153 279 156.833 279 157.5C279 158.167 279.2 162 280 162" stroke="#252525" stroke-width="1.5"/>
<path d="M280 162C281 162 281 157 281 157.5C281 158 281 153 282 153C282.8 153 283 156.833 283 157.5C283 158.167 283.2 162 284 162" stroke="#252525" stroke-width="1.5"/>
<path d="M284 162C285 162 285 157 285 157.5C285 158 285 153 286 153C286.8 153 287 156.833 287 157.5C287 158.167 287.2 162 288 162" stroke="#252525" stroke-width="1.5"/>
<path d="M288 162C289 162 289 157 289 157.5C289 158 289 153 290 153C290.8 153 291 156.833 291 157.5C291 158.167 291.2 162 292 162" stroke="#252525" stroke-width="1.5"/>
<path d="M292 162C293 162 293 157 293 157.5C293 158 293 153 294 153C294.8 153 295 156.833 295 157.5C295 158.167 295.2 162 296 162" stroke="#252525" stroke-width="1.5"/>
<path d="M296 162C297 162 297 157 297 157.5C297 158 297 153 298 153C298.8 153 299 156.833 299 157.5C299 158.167 299.2 162 300 162" stroke="#252525" stroke-width="1.5"/>
<path d="M300 162C301 162 301 157 301 157.5C301 158 301 153 302 153C302.8 153 303 156.833 303 157.5C303 158.167 303.2 162 304 162" stroke="#252525" stroke-width="1.5"/>
<path d="M304 162C305 162 305 157 305 157.5C305 158 305 153 306 153C306.8 153 307 156.833 307 157.5C307 158.167 307.2 162 308 162" stroke="#252525" stroke-width="1.5"/>
<path d="M308 162C309 162 309 157 309 157.5C309 158 309 153 310 153C310.8 153 311 156.833 311 157.5C311 158.167 311.2 162 312 162" stroke="#252525" stroke-width="1.5"/>
<path d="M312 162C313 162 313 157 313 157.5C313 158 313 153 314 153C314.8 153 315 156.833 315 157.5C315 158.167 315.2 162 316 162" stroke="#252525" stroke-width="1.5"/>
<path d="M316 162C317 162 317 157 317 157.5C317 158 317 153 318 153C318.8 153 319 156.833 319 157.5C319 158.167 319.2 162 320 162" stroke="#252525" stroke-width="1.5"/>
<path d="M320 162C321 162 321 157 321 157.5C321 158 321 153 322 153C322.8 153 323 156.833 323 157.5C323 158.167 323.2 162 324 162" stroke="#252525" stroke-width="1.5"/>
<path d="M324 162C325 162 325 157 325 157.5C325 158 325 153 326 153C326.8 153 327 156.833 327 157.5C327 158.167 327.2 162 328 162" stroke="#252525" stroke-width="1.5"/>
<path d="M328 162C329 162 329 157 329 157.5C329 158 329 153 330 153C330.8 153 331 156.833 331 157.5C331 158.167 331.2 162 332 162" stroke="#252525" stroke-width="1.5"/>
<g id="Repeat group 1_inner" data-figma-trr="l10u1-0f">
<path d="M332 162C333 162 333 157 333 157.5C333 158 333 153 334 153C334.8 153 335 156.833 335 157.5C335 158.167 335.2 162 336 162" stroke="#252525" stroke-width="1.5"/>
</g>
<use xlink:href="#Repeat%20group%201_inner" transform="translate(4)"/>
<use xlink:href="#Repeat%20group%201_inner" transform="translate(8)"/>
<use xlink:href="#Repeat%20group%201_inner" transform="translate(12)"/>
<use xlink:href="#Repeat%20group%201_inner" transform="translate(16)"/>
<use xlink:href="#Repeat%20group%201_inner" transform="translate(20)"/>
<use xlink:href="#Repeat%20group%201_inner" transform="translate(24)"/>
<use xlink:href="#Repeat%20group%201_inner" transform="translate(28)"/>
<use xlink:href="#Repeat%20group%201_inner" transform="translate(32)"/>
<use xlink:href="#Repeat%20group%201_inner" transform="translate(36)"/>
</g>
<use xlink:href="#fins_inner" transform="translate(0 12.5)"/>
<use xlink:href="#fins_inner" transform="translate(0 25)"/>
<use xlink:href="#fins_inner" transform="translate(0 37.5)"/>
<use xlink:href="#fins_inner" transform="translate(0 50)"/>
<use xlink:href="#fins_inner" transform="translate(0 62.5)"/>
<use xlink:href="#fins_inner" transform="translate(0 75)"/>
<use xlink:href="#fins_inner" transform="translate(0 87.5)"/>
<use xlink:href="#fins_inner" transform="translate(0 100)"/>
<use xlink:href="#fins_inner" transform="translate(0 112.5)"/>
<use xlink:href="#fins_inner" transform="translate(0 125)"/>
<use xlink:href="#fins_inner" transform="translate(0 137.5)"/>
<use xlink:href="#fins_inner" transform="translate(0 150)"/>
<use xlink:href="#fins_inner" transform="translate(0 162.5)"/>
<use xlink:href="#fins_inner" transform="translate(0 175)"/>
<use xlink:href="#fins_inner" transform="translate(0 187.5)"/>
<mask id="path-113-inside-3_1_2" fill="white">
<path d="M363 138C376.255 138 387 148.745 387 162V344C387 357.255 376.255 368 363 368H181C167.745 368 157 357.255 157 344V162C157 148.745 167.745 138 181 138H363ZM187 153C178.716 153 172 159.716 172 168V338C172 346.284 178.716 353 187 353H357C365.284 353 372 346.284 372 338V168C372 159.716 365.284 153 357 153H187Z"/>
</mask>
<path d="M363 138C376.255 138 387 148.745 387 162V344C387 357.255 376.255 368 363 368H181C167.745 368 157 357.255 157 344V162C157 148.745 167.745 138 181 138H363ZM187 153C178.716 153 172 159.716 172 168V338C172 346.284 178.716 353 187 353H357C365.284 353 372 346.284 372 338V168C372 159.716 365.284 153 357 153H187Z" fill="#2F2F2F"/>
<path d="M187 153V152V153ZM172 338H171H172ZM357 353V354V353ZM372 168H373H372ZM363 138V139C375.703 139 386 149.297 386 162H387H388C388 148.193 376.807 137 363 137V138ZM387 162H386V344H387H388V162H387ZM387 344H386C386 356.703 375.703 367 363 367V368V369C376.807 369 388 357.807 388 344H387ZM363 368V367H181V368V369H363V368ZM181 368V367C168.297 367 158 356.703 158 344H157H156C156 357.807 167.193 369 181 369V368ZM157 344H158V162H157H156V344H157ZM157 162H158C158 149.297 168.297 139 181 139V138V137C167.193 137 156 148.193 156 162H157ZM181 138V139H363V138V137H181V138ZM187 153V152C178.163 152 171 159.163 171 168H172H173C173 160.268 179.268 154 187 154V153ZM172 168H171V338H172H173V168H172ZM172 338H171C171 346.837 178.163 354 187 354V353V352C179.268 352 173 345.732 173 338H172ZM187 353V354H357V353V352H187V353ZM357 353V354C365.837 354 373 346.837 373 338H372H371C371 345.732 364.732 352 357 352V353ZM372 338H373V168H372H371V338H372ZM372 168H373C373 159.163 365.837 152 357 152V153V154C364.732 154 371 160.268 371 168H372ZM357 153V152H187V153V154H357V153Z" fill="black" mask="url(#path-113-inside-3_1_2)"/>
<path d="M156.5 333.16L139.522 323.965C135.812 321.955 133.5 318.073 133.5 313.853V191.147C133.5 186.927 135.812 183.045 139.522 181.035L156.5 171.839V333.16Z" fill="#2F2F2F" stroke="black"/>
<path d="M387.5 333.16L404.478 323.965C408.188 321.955 410.5 318.073 410.5 313.853V191.147C410.5 186.927 408.188 183.045 404.478 181.035L387.5 171.839V333.16Z" fill="#2F2F2F" stroke="black"/>
<path d="M122 238.5H132.5V267.5H122C120.067 267.5 118.5 265.933 118.5 264V242C118.5 240.067 120.067 238.5 122 238.5Z" fill="#2F2F2F" stroke="black"/>
<path d="M422 238.5H411.5V267.5H422C423.933 267.5 425.5 265.933 425.5 264V242C425.5 240.067 423.933 238.5 422 238.5Z" fill="#2F2F2F" stroke="black"/>
<path d="M655 425C530.954 425 49 555.791 49 331.5C49 297 67 251.5 117.5 251.5" stroke="#2F7CEF" stroke-opacity="0.6" stroke-width="8"/>
<path d="M655 425C530.954 425 49 555.791 49 331.5C49 297 67 251.5 117.5 251.5" stroke="#AEAEAE" stroke-opacity="0.5" stroke-width="12"/>
<rect x="251.5" y="375.5" width="40" height="26" rx="3.5" fill="#7D7D7D" stroke="black"/>
<rect x="252.519" y="378" width="37.963" height="21" rx="4" fill="#989898"/>
<rect x="263" y="377" width="19" height="8" fill="#F6F6F6"/>
<path d="M264.528 383V378.636H267.145V379.105H265.057V380.58H266.949V381.048H265.057V383H264.528ZM268.945 383.077C268.737 383.077 268.549 383.038 268.38 382.96C268.211 382.88 268.077 382.766 267.977 382.616C267.878 382.466 267.828 382.284 267.828 382.071C267.828 381.884 267.865 381.732 267.939 381.615C268.013 381.497 268.112 381.405 268.235 381.338C268.359 381.271 268.495 381.222 268.644 381.189C268.795 381.155 268.946 381.128 269.098 381.108C269.297 381.082 269.458 381.063 269.582 381.05C269.707 381.036 269.798 381.013 269.855 380.98C269.913 380.947 269.942 380.891 269.942 380.81V380.793C269.942 380.582 269.884 380.419 269.769 380.303C269.656 380.186 269.483 380.128 269.252 380.128C269.012 380.128 268.823 380.18 268.687 380.286C268.551 380.391 268.455 380.503 268.399 380.622L267.922 380.452C268.007 380.253 268.121 380.098 268.263 379.987C268.406 379.875 268.563 379.797 268.732 379.753C268.902 379.707 269.07 379.685 269.235 379.685C269.34 379.685 269.46 379.697 269.597 379.723C269.735 379.747 269.867 379.798 269.995 379.874C270.124 379.951 270.232 380.067 270.317 380.222C270.402 380.376 270.445 380.584 270.445 380.844V383H269.942V382.557H269.916C269.882 382.628 269.825 382.704 269.746 382.785C269.666 382.866 269.561 382.935 269.428 382.991C269.296 383.048 269.135 383.077 268.945 383.077ZM269.021 382.625C269.22 382.625 269.388 382.586 269.524 382.508C269.662 382.43 269.766 382.329 269.835 382.205C269.906 382.082 269.942 381.952 269.942 381.815V381.355C269.921 381.381 269.874 381.404 269.801 381.425C269.73 381.445 269.648 381.463 269.554 381.479C269.462 381.493 269.372 381.506 269.284 381.517C269.197 381.527 269.127 381.536 269.073 381.543C268.942 381.56 268.82 381.587 268.706 381.626C268.594 381.663 268.503 381.719 268.433 381.794C268.365 381.868 268.331 381.969 268.331 382.097C268.331 382.271 268.396 382.403 268.525 382.493C268.656 382.581 268.821 382.625 269.021 382.625ZM271.865 381.031V383H271.363V379.727H271.848V380.239H271.891C271.968 380.072 272.084 379.939 272.24 379.838C272.397 379.736 272.598 379.685 272.846 379.685C273.067 379.685 273.261 379.73 273.427 379.821C273.593 379.911 273.723 380.047 273.815 380.23C273.907 380.412 273.953 380.642 273.953 380.92V383H273.451V380.955C273.451 380.697 273.384 380.497 273.25 380.354C273.117 380.209 272.934 380.136 272.701 380.136C272.54 380.136 272.397 380.171 272.27 380.241C272.145 380.31 272.047 380.412 271.974 380.545C271.902 380.679 271.865 380.841 271.865 381.031Z" fill="black"/>
<rect x="260.5" y="387.5" width="23" height="10" rx="0.5" fill="#1C1C1C" stroke="black"/>
<rect x="261" y="388" width="11" height="9" fill="#D90000"/>
<rect x="272" y="388" width="11" height="9" fill="#7B0101"/>
<circle cx="278.5" cy="392.5" r="3" stroke="#EED5D5"/>
<line x1="265.5" y1="389" x2="265.5" y2="396" stroke="#EED5D5"/>
<defs>
<filter id="filter0_i_1_2" x="172" y="162.5" width="200" height="3" filterUnits="userSpaceOnUse" color-interpolation-filters="sRGB">
<feFlood flood-opacity="0" result="BackgroundImageFix"/>
<feBlend mode="normal" in="SourceGraphic" in2="BackgroundImageFix" result="shape"/>
<feColorMatrix in="SourceAlpha" type="matrix" values="0 0 0 0 0 0 0 0 0 0 0 0 0 0 0 0 0 0 127 0" result="hardAlpha"/>
<feOffset/>
<feGaussianBlur stdDeviation="1.5"/>
<feComposite in2="hardAlpha" operator="arithmetic" k2="-1" k3="1"/>
<feColorMatrix type="matrix" values="0 0 0 0 0 0 0 0 0 0 0 0 0 0 0 0 0 0 1 0"/>
<feBlend mode="normal" in2="shape" result="effect1_innerShadow_1_2"/>
</filter>
</defs>
</svg>
