<svg width="800" height="600" viewBox="0 0 800 600" fill="none" xmlns="http://www.w3.org/2000/svg" xmlns:xlink="http://www.w3.org/1999/xlink">
<g id="crossExchanger">
<rect width="800" height="600" fill="white"/>
<g id="Tank">
<g id="tankBackground">
<path id="Ellipse 3" d="M652 399.5C679.599 399.5 704.575 401.01 722.644 403.449C731.681 404.669 738.97 406.12 743.989 407.722C746.502 408.524 748.417 409.354 749.693 410.196C750.994 411.054 751.5 411.834 751.5 412.5C751.5 413.166 750.994 413.946 749.693 414.804C748.417 415.646 746.502 416.476 743.989 417.278C738.97 418.88 731.681 420.331 722.644 421.551C704.575 423.99 679.599 425.5 652 425.5C624.401 425.5 599.425 423.99 581.356 421.551C572.319 420.331 565.03 418.88 560.011 417.278C557.498 416.476 555.583 415.646 554.307 414.804C553.006 413.946 552.5 413.166 552.5 412.5C552.5 411.834 553.006 411.054 554.307 410.196C555.583 409.354 557.498 408.524 560.011 407.722C565.03 406.12 572.319 404.669 581.356 403.449C599.425 401.01 624.401 399.5 652 399.5Z" fill="#B7B7B7" stroke="black"/>
<g id="Rectangle 2">
<mask id="path-2-inside-1_1_2" fill="white">
<path d="M552 396H752V413H552V396Z"/>
</mask>
<path d="M552 396H752V413H552V396Z" fill="#B7B7B7"/>
<path d="M752 396H751V413H752H753V396H752ZM552 413H553V396H552H551V413H552Z" fill="black" mask="url(#path-2-inside-1_1_2)"/>
</g>
<path id="Ellipse 2" d="M652 384.5C679.599 384.5 704.575 386.01 722.644 388.449C731.681 389.669 738.97 391.12 743.989 392.722C746.502 393.524 748.417 394.354 749.693 395.196C750.994 396.054 751.5 396.834 751.5 397.5C751.5 398.166 750.994 398.946 749.693 399.804C748.417 400.646 746.502 401.476 743.989 402.278C738.97 403.88 731.681 405.331 722.644 406.551C704.575 408.99 679.599 410.5 652 410.5C624.401 410.5 599.425 408.99 581.356 406.551C572.319 405.331 565.03 403.88 560.011 402.278C557.498 401.476 555.583 400.646 554.307 399.804C553.006 398.946 552.5 398.166 552.5 397.5C552.5 396.834 553.006 396.054 554.307 395.196C555.583 394.354 557.498 393.524 560.011 392.722C565.03 391.12 572.319 389.669 581.356 388.449C599.425 386.01 624.401 384.5 652 384.5Z" fill="#B7B7B7" stroke="black"/>
<g id="Rectangle 1">
<mask id="path-5-inside-2_1_2" fill="white">
<path d="M552 286H752V398H552V286Z"/>
</mask>
<path d="M752 286H751V398H752H753V286H752ZM552 398H553V286H552H551V398H552Z" fill="black" mask="url(#path-5-inside-2_1_2)"/>
</g>
<g id="ioHole">
<path id="Ellipse 4" d="M708 394.5C709.872 394.5 711.543 394.881 712.727 395.473C713.94 396.079 714.5 396.825 714.5 397.5C714.5 398.175 713.94 398.921 712.727 399.527C711.543 400.119 709.872 400.5 708 400.5C706.128 400.5 704.457 400.119 703.273 399.527C702.06 398.921 701.5 398.175 701.5 397.5C701.5 396.825 702.06 396.079 703.273 395.473C704.457 394.881 706.128 394.5 708 394.5Z" fill="#707070" stroke="black"/>
<path id="Ellipse 5" d="M708 396.5C709.06 396.5 709.999 396.662 710.653 396.907C710.982 397.031 711.213 397.166 711.354 397.29C711.494 397.415 711.5 397.487 711.5 397.5C711.5 397.513 711.494 397.585 711.354 397.71C711.213 397.834 710.982 397.969 710.653 398.093C709.999 398.338 709.06 398.5 708 398.5C706.94 398.5 706.001 398.338 705.347 398.093C705.018 397.969 704.787 397.834 704.646 397.71C704.506 397.585 704.5 397.513 704.5 397.5C704.5 397.487 704.506 397.415 704.646 397.29C704.787 397.166 705.018 397.031 705.347 396.907C706.001 396.662 706.94 396.5 708 396.5Z" fill="#222222" stroke="black"/>
</g>
</g>
<path id="waterBottom" d="M750.934 397C750.977 397.166 751 397.333 751 397.5C751 403.5 711 410 651.932 410C590.5 410 553 403 553 397.5C553 397.333 553.023 397.166 553.066 397H750.934Z" fill="#2F7CEF" fill-opacity="0.6"/>
<path id="waterBody" d="M751 397H553V338.415C559.891 344.964 601.589 350 652 350C702.411 350 744.109 344.964 751 338.415V397Z" fill="#2F7CEF" fill-opacity="0.6"/>
<path id="waterTop" d="M652 324.5C679.599 324.5 704.575 326.01 722.644 328.449C731.681 329.669 738.97 331.12 743.989 332.722C746.502 333.524 748.417 334.354 749.693 335.196C750.994 336.054 751.5 336.834 751.5 337.5C751.5 338.166 750.994 338.946 749.693 339.804C748.417 340.646 746.502 341.476 743.989 342.278C738.97 343.88 731.681 345.331 722.644 346.551C704.575 348.99 679.599 350.5 652 350.5C624.401 350.5 599.425 348.99 581.356 346.551C572.319 345.331 565.03 343.88 560.011 342.278C557.498 341.476 555.583 340.646 554.307 339.804C553.006 338.946 552.5 338.166 552.5 337.5C552.5 336.834 553.006 336.054 554.307 335.196C555.583 334.354 557.498 333.524 560.011 332.722C565.03 331.12 572.319 329.669 581.356 328.449C599.425 326.01 624.401 324.5 652 324.5Z" fill="#2F7CEF" fill-opacity="0.6" stroke="black"/>
<path id="ouletStream" d="M570.5 288.5C567.833 288.5 565.167 288.5 562.5 288.5C562.655 289.317 562.855 290.133 563.058 290.95C563.509 292.763 563.974 294.576 564 296.389C564.185 309.276 564.317 322.163 564.47 335.05C564.48 335.867 564.49 336.683 564.5 337.5C565.833 337.5 567.167 337.5 568.5 337.5C568.51 336.683 568.52 335.867 568.53 335.05C568.683 322.163 568.815 309.276 569 296.389C569.026 294.576 569.491 292.763 569.942 290.95C570.145 290.133 570.345 289.317 570.5 288.5Z" fill="#2F7CEF" fill-opacity="0.6"/>
<path id="tankRimOutline" d="M652 273.5C679.599 273.5 704.575 275.01 722.644 277.449C731.681 278.669 738.97 280.12 743.989 281.722C746.502 282.524 748.417 283.354 749.693 284.196C750.994 285.054 751.5 285.834 751.5 286.5C751.5 287.166 750.994 287.946 749.693 288.804C748.417 289.646 746.502 290.476 743.989 291.278C738.97 292.88 731.681 294.331 722.644 295.551C704.575 297.99 679.599 299.5 652 299.5C624.401 299.5 599.425 297.99 581.356 295.551C572.319 294.331 565.03 292.88 560.011 291.278C557.498 290.476 555.583 289.646 554.307 288.804C553.006 287.946 552.5 287.166 552.5 286.5C552.5 285.834 553.006 285.054 554.307 284.196C555.583 283.354 557.498 282.524 560.011 281.722C565.03 280.12 572.319 278.669 581.356 277.449C599.425 275.01 624.401 273.5 652 273.5Z" stroke="black"/>
</g>
<path id="outTubeFill" d="M422 253C467.949 253 566.5 217.5 566.5 288.5" stroke="#2F7CEF" stroke-opacity="0.6" stroke-width="8"/>
<path id="outTube" d="M422 253C467.949 253 566.5 217.5 566.5 288.5" stroke="#AEAEAE" stroke-opacity="0.5" stroke-width="12"/>
<g id="fan">
<g id="fanBackground">
<path id="Subtract" d="M372 353H272C327.228 353 372 308.228 372 253C372 197.772 327.228 153 272 153C216.772 153 172 197.772 172 253C172 308.228 216.772 353 272 353H172V153H372V353Z" fill="#121212"/>
<circle id="Ellipse 8" cx="272" cy="253" r="80" stroke="#121212" stroke-width="4"/>
<circle id="Ellipse 9" cx="272" cy="253" r="50" stroke="#121212" stroke-width="4"/>
<circle id="Ellipse 10" cx="272" cy="253" r="25" fill="#121212"/>
</g>
<g id="fanRotate">
<path id="blade" d="M286.495 198.328C282.11 212.672 278.874 228.369 281.831 230.842L268.125 230.879C263.624 221.66 253.715 208.174 253.024 188.095C252.443 171.186 257.361 157.122 266.517 154.052C274.673 151.317 288.792 153.02 305.097 158.005C298.739 164.949 290.004 186.852 286.495 198.328Z" fill="#121212"/>
<path id="blade_2" d="M326.585 238.22C311.97 241.594 296.758 246.641 296.095 250.437L289.21 238.587C294.943 230.079 301.668 214.755 318.712 204.117C333.065 195.158 347.704 192.386 354.94 198.78C361.387 204.476 366.972 217.555 370.807 234.168C361.614 232.134 338.278 235.52 326.585 238.22Z" fill="#121212"/>
<path id="blade_3" d="M312.083 292.885C301.853 281.914 289.877 271.264 286.258 272.588L293.078 260.7C303.312 261.411 319.946 259.573 337.681 269.015C352.615 276.965 362.335 288.257 360.416 297.721C358.707 306.152 350.173 317.528 337.703 329.156C334.868 320.178 320.267 301.661 312.083 292.885Z" fill="#121212"/>
<path id="blade_4" d="M257.491 307.658C261.876 293.313 265.111 277.617 262.155 275.144L275.861 275.107C280.362 284.325 290.271 297.812 290.961 317.891C291.543 334.8 286.624 348.864 277.469 351.934C269.313 354.669 255.194 352.966 238.889 347.981C245.247 341.037 253.982 319.134 257.491 307.658Z" fill="#121212"/>
<path id="blade_5" d="M217.4 267.766C232.016 264.392 247.227 259.345 247.89 255.549L254.776 267.399C249.043 275.907 242.318 291.231 225.274 301.869C210.921 310.827 196.282 313.599 189.046 307.206C182.599 301.51 177.014 288.431 173.178 271.818C182.372 273.852 205.708 270.466 217.4 267.766Z" fill="#121212"/>
<path id="blade_6" d="M231.903 213.101C242.133 224.071 254.109 234.722 257.728 233.398L250.908 245.286C240.674 244.574 224.04 246.412 206.305 236.971C191.371 229.02 181.651 217.729 183.57 208.265C185.279 199.834 193.813 188.458 206.283 176.83C209.118 185.808 223.719 204.325 231.903 213.101Z" fill="#121212"/>
</g>
</g>
<g id="pump">
<g id="pumpBody">
<rect id="Rectangle 8" x="778.622" y="462.501" width="112.122" height="60.0263" rx="9.5" transform="rotate(180 778.622 462.501)" fill="#3F3E3E" stroke="black"/>
<rect id="Rectangle 9" x="770.787" y="457.189" width="96.4514" height="49.4023" rx="10" transform="rotate(180 770.787 457.189)" fill="#5B5B5B"/>
</g>
<g id="pumpCtrl">
<g id="ctrlBase">
<rect id="Rectangle 5" x="674.5" y="409.501" width="95.3557" height="44.4999" rx="3.5" fill="#7D7D7D" stroke="black"/>
<rect id="Rectangle 6" x="677.569" y="414.056" width="89.2182" height="35.3888" rx="4" fill="#989898"/>
</g>
<g id="pumpLabel">
<rect id="Rectangle 7" x="724" y="412.593" width="40.0165" height="15.5658" fill="#F6F6F6"/>
<path id="Pump" d="M727.109 422.198V413.471H730.058C730.742 413.471 731.302 413.594 731.737 413.841C732.174 414.086 732.498 414.417 732.708 414.834C732.919 415.252 733.024 415.718 733.024 416.232C733.024 416.746 732.919 417.214 732.708 417.634C732.501 418.054 732.18 418.39 731.745 418.64C731.311 418.887 730.754 419.01 730.075 419.01H727.961V418.073H730.041C730.51 418.073 730.886 417.992 731.17 417.83C731.454 417.668 731.66 417.449 731.788 417.174C731.919 416.895 731.984 416.581 731.984 416.232C731.984 415.883 731.919 415.57 731.788 415.294C731.66 415.019 731.453 414.803 731.166 414.647C730.879 414.488 730.498 414.408 730.024 414.408H728.166V422.198H727.109ZM738.715 419.522V415.652H739.72V422.198H738.715V421.09H738.647C738.493 421.422 738.255 421.705 737.931 421.938C737.607 422.168 737.198 422.283 736.703 422.283C736.294 422.283 735.931 422.194 735.612 422.015C735.294 421.833 735.044 421.56 734.862 421.196C734.681 420.83 734.59 420.368 734.59 419.812V415.652H735.595V419.743C735.595 420.221 735.729 420.601 735.996 420.885C736.266 421.169 736.61 421.312 737.027 421.312C737.277 421.312 737.532 421.248 737.79 421.12C738.051 420.992 738.27 420.796 738.446 420.532C738.625 420.268 738.715 419.931 738.715 419.522ZM741.562 422.198V415.652H742.534V416.675H742.619C742.756 416.326 742.976 416.054 743.28 415.861C743.584 415.665 743.949 415.567 744.375 415.567C744.807 415.567 745.166 415.665 745.453 415.861C745.743 416.054 745.969 416.326 746.131 416.675H746.199C746.366 416.337 746.618 416.069 746.953 415.87C747.288 415.668 747.69 415.567 748.159 415.567C748.744 415.567 749.223 415.75 749.595 416.117C749.967 416.481 750.153 417.047 750.153 417.817V422.198H749.148V417.817C749.148 417.334 749.016 416.989 748.751 416.782C748.487 416.574 748.176 416.471 747.818 416.471C747.358 416.471 747.001 416.61 746.749 416.888C746.496 417.164 746.369 417.513 746.369 417.937V422.198H745.347V417.715C745.347 417.343 745.226 417.043 744.984 416.816C744.743 416.586 744.432 416.471 744.051 416.471C743.79 416.471 743.545 416.54 743.318 416.679C743.094 416.819 742.912 417.012 742.773 417.259C742.636 417.503 742.568 417.786 742.568 418.107V422.198H741.562ZM751.992 424.652V415.652H752.964V416.692H753.083C753.157 416.579 753.259 416.434 753.39 416.258C753.523 416.079 753.714 415.919 753.961 415.78C754.211 415.638 754.549 415.567 754.975 415.567C755.526 415.567 756.012 415.705 756.432 415.981C756.853 416.256 757.181 416.647 757.417 417.152C757.653 417.658 757.771 418.255 757.771 418.942C757.771 419.635 757.653 420.236 757.417 420.745C757.181 421.25 756.854 421.643 756.437 421.921C756.019 422.196 755.538 422.334 754.992 422.334C754.572 422.334 754.235 422.265 753.982 422.125C753.729 421.983 753.535 421.823 753.398 421.644C753.262 421.462 753.157 421.312 753.083 421.192H752.998V424.652H751.992ZM752.981 418.925C752.981 419.419 753.053 419.856 753.198 420.233C753.343 420.608 753.555 420.902 753.833 421.116C754.111 421.326 754.452 421.431 754.856 421.431C755.276 421.431 755.627 421.32 755.908 421.098C756.192 420.874 756.405 420.573 756.548 420.195C756.692 419.814 756.765 419.391 756.765 418.925C756.765 418.465 756.694 418.05 756.552 417.681C756.413 417.309 756.201 417.015 755.917 416.799C755.636 416.58 755.282 416.471 754.856 416.471C754.447 416.471 754.103 416.574 753.824 416.782C753.546 416.986 753.336 417.273 753.194 417.643C753.052 418.009 752.981 418.437 752.981 418.925Z" fill="black"/>
</g>
<g id="Switch">
<rect id="switchBack" x="722.5" y="430.501" width="41.8247" height="17.537" rx="0.5" fill="#1C1C1C" stroke="black"/>
<rect id="switchOn" x="723.784" y="431.686" width="19.628" height="15.1666" fill="#D90000"/>
<rect id="switchOff" x="743.412" y="431.686" width="19.628" height="15.1666" fill="#7B0101"/>
<path id="Ellipse 6" d="M755.011 434.556C757.723 434.556 759.972 436.64 759.972 439.269C759.972 441.898 757.723 443.982 755.011 443.982C752.298 443.982 750.05 441.898 750.05 439.269C750.05 436.64 752.298 434.556 755.011 434.556Z" stroke="#EED5D5"/>
<line id="Line 1" x1="731.422" y1="433.371" x2="731.422" y2="445.167" stroke="#EED5D5"/>
</g>
<g id="flowDial">
<circle id="dialBody" cx="699" cy="432" r="17.5" fill="#222222" stroke="black"/>
<g id="minorTicks">
<path id="Line 4" d="M682.703 429.419L684.678 429.732" stroke="white" stroke-width="0.25"/>
<path id="Line 4_2" d="M683.307 426.901L685.21 427.519" stroke="white" stroke-width="0.25"/>
<path id="Line 4_3" d="M684.298 424.509L686.08 425.417" stroke="white" stroke-width="0.25"/>
<path id="Line 4_4" d="M685.651 422.302L687.269 423.477" stroke="white" stroke-width="0.25"/>
<path id="Line 4_5" d="M689.301 418.651L690.477 420.269" stroke="white" stroke-width="0.25"/>
<path id="Line 4_6" d="M691.509 417.298L692.417 419.08" stroke="white" stroke-width="0.25"/>
<path id="Line 4_7" d="M693.901 416.308L694.519 418.21" stroke="white" stroke-width="0.25"/>
<path id="Line 4_8" d="M696.419 415.703L696.732 417.679" stroke="white" stroke-width="0.25"/>
<path id="Line 4_9" d="M701.581 415.703L701.268 417.679" stroke="white" stroke-width="0.25"/>
<path id="Line 4_10" d="M704.099 416.308L703.481 418.21" stroke="white" stroke-width="0.25"/>
<path id="Line 4_11" d="M706.491 417.298L705.583 419.08" stroke="white" stroke-width="0.25"/>
<path id="Line 4_12" d="M708.698 418.651L707.523 420.269" stroke="white" stroke-width="0.25"/>
<path id="Line 4_13" d="M712.349 422.302L710.731 423.477" stroke="white" stroke-width="0.25"/>
<path id="Line 4_14" d="M713.701 424.509L711.919 425.417" stroke="white" stroke-width="0.25"/>
<path id="Line 4_15" d="M714.692 426.901L712.79 427.519" stroke="white" stroke-width="0.25"/>
<path id="Line 4_16" d="M715.297 429.419L713.321 429.732" stroke="white" stroke-width="0.25"/>
<path id="Line 4_17" d="M715.297 434.581L713.321 434.268" stroke="white" stroke-width="0.25"/>
<path id="Line 4_18" d="M714.692 437.099L712.79 436.481" stroke="white" stroke-width="0.25"/>
<path id="Line 4_19" d="M713.701 439.491L711.919 438.583" stroke="white" stroke-width="0.25"/>
<path id="Line 4_20" d="M712.349 441.698L710.731 440.523" stroke="white" stroke-width="0.25"/>
<path id="Line 4_21" d="M708.698 445.349L707.523 443.731" stroke="white" stroke-width="0.25"/>
<path id="Line 4_22" d="M706.491 446.702L705.583 444.92" stroke="white" stroke-width="0.25"/>
<path id="Line 4_23" d="M704.099 447.692L703.481 445.79" stroke="white" stroke-width="0.25"/>
<path id="Line 4_24" d="M701.581 448.297L701.268 446.321" stroke="white" stroke-width="0.25"/>
</g>
<g id="majorTicks">
<path id="Line 5" d="M699 448.5V445.5" stroke="white" stroke-width="0.25"/>
<path id="Line 5_2" d="M682.5 432L685.5 432" stroke="white" stroke-width="0.25"/>
<path id="Line 5_3" d="M687.333 420.333L689.454 422.454" stroke="white" stroke-width="0.25"/>
<path id="Line 5_4" d="M699 415.5L699 418.5" stroke="white" stroke-width="0.25"/>
<path id="Line 5_5" d="M710.667 420.333L708.546 422.454" stroke="white" stroke-width="0.25"/>
<path id="Line 5_6" d="M715.5 432L712.5 432" stroke="white" stroke-width="0.25"/>
<path id="Line 5_7" d="M710.667 443.667L708.546 441.546" stroke="white" stroke-width="0.25"/>
</g>
</g>
</g>
<path id="pumpNozzle" d="M659 414.501H665.5V435.501H659C657.067 435.501 655.5 433.934 655.5 432.001V418.001C655.5 416.068 657.067 414.501 659 414.501Z" fill="#2F2F2F" stroke="black"/>
</g>
<g id="heatExchanger">
<path id="Rectangle 17" d="M155.884 361.026C156.824 356.358 160.925 353 165.687 353H378.087C382.949 353 387.107 356.498 387.939 361.289L396.967 413.289C398.029 419.405 393.321 425 387.114 425H155.215C148.899 425 144.165 419.217 145.411 413.026L155.884 361.026Z" fill="#474747"/>
<g id="fins">
<g id="fins_inner" data-figma-trr="l16u1-0f">
<g id="finArray">
<g id="hexTube" filter="url(#filter0_i_1_2)">
<line x1="172" y1="164" x2="372" y2="164" stroke="#7B7B7B" stroke-width="3"/>
</g>
<g id="fins_2">
<path id="Vector 1" d="M172 162C173 162 173 157 173 157.5C173 158 173 153 174 153C174.8 153 175 156.833 175 157.5C175 158.167 175.2 162 176 162" stroke="#252525" stroke-width="1.5"/>
<path id="Vector 1_2" d="M176 162C177 162 177 157 177 157.5C177 158 177 153 178 153C178.8 153 179 156.833 179 157.5C179 158.167 179.2 162 180 162" stroke="#252525" stroke-width="1.5"/>
<path id="Vector 1_3" d="M180 162C181 162 181 157 181 157.5C181 158 181 153 182 153C182.8 153 183 156.833 183 157.5C183 158.167 183.2 162 184 162" stroke="#252525" stroke-width="1.5"/>
<path id="Vector 1_4" d="M184 162C185 162 185 157 185 157.5C185 158 185 153 186 153C186.8 153 187 156.833 187 157.5C187 158.167 187.2 162 188 162" stroke="#252525" stroke-width="1.5"/>
<path id="Vector 1_5" d="M188 162C189 162 189 157 189 157.5C189 158 189 153 190 153C190.8 153 191 156.833 191 157.5C191 158.167 191.2 162 192 162" stroke="#252525" stroke-width="1.5"/>
<path id="Vector 1_6" d="M192 162C193 162 193 157 193 157.5C193 158 193 153 194 153C194.8 153 195 156.833 195 157.5C195 158.167 195.2 162 196 162" stroke="#252525" stroke-width="1.5"/>
<path id="Vector 1_7" d="M196 162C197 162 197 157 197 157.5C197 158 197 153 198 153C198.8 153 199 156.833 199 157.5C199 158.167 199.2 162 200 162" stroke="#252525" stroke-width="1.5"/>
<path id="Vector 1_8" d="M200 162C201 162 201 157 201 157.5C201 158 201 153 202 153C202.8 153 203 156.833 203 157.5C203 158.167 203.2 162 204 162" stroke="#252525" stroke-width="1.5"/>
<path id="Vector 1_9" d="M204 162C205 162 205 157 205 157.5C205 158 205 153 206 153C206.8 153 207 156.833 207 157.5C207 158.167 207.2 162 208 162" stroke="#252525" stroke-width="1.5"/>
<path id="Vector 1_10" d="M208 162C209 162 209 157 209 157.5C209 158 209 153 210 153C210.8 153 211 156.833 211 157.5C211 158.167 211.2 162 212 162" stroke="#252525" stroke-width="1.5"/>
<path id="Vector 1_11" d="M212 162C213 162 213 157 213 157.5C213 158 213 153 214 153C214.8 153 215 156.833 215 157.5C215 158.167 215.2 162 216 162" stroke="#252525" stroke-width="1.5"/>
<path id="Vector 1_12" d="M216 162C217 162 217 157 217 157.5C217 158 217 153 218 153C218.8 153 219 156.833 219 157.5C219 158.167 219.2 162 220 162" stroke="#252525" stroke-width="1.5"/>
<path id="Vector 1_13" d="M220 162C221 162 221 157 221 157.5C221 158 221 153 222 153C222.8 153 223 156.833 223 157.5C223 158.167 223.2 162 224 162" stroke="#252525" stroke-width="1.5"/>
<path id="Vector 1_14" d="M224 162C225 162 225 157 225 157.5C225 158 225 153 226 153C226.8 153 227 156.833 227 157.5C227 158.167 227.2 162 228 162" stroke="#252525" stroke-width="1.5"/>
<path id="Vector 1_15" d="M228 162C229 162 229 157 229 157.5C229 158 229 153 230 153C230.8 153 231 156.833 231 157.5C231 158.167 231.2 162 232 162" stroke="#252525" stroke-width="1.5"/>
<path id="Vector 1_16" d="M232 162C233 162 233 157 233 157.5C233 158 233 153 234 153C234.8 153 235 156.833 235 157.5C235 158.167 235.2 162 236 162" stroke="#252525" stroke-width="1.5"/>
<path id="Vector 1_17" d="M236 162C237 162 237 157 237 157.5C237 158 237 153 238 153C238.8 153 239 156.833 239 157.5C239 158.167 239.2 162 240 162" stroke="#252525" stroke-width="1.5"/>
<path id="Vector 1_18" d="M240 162C241 162 241 157 241 157.5C241 158 241 153 242 153C242.8 153 243 156.833 243 157.5C243 158.167 243.2 162 244 162" stroke="#252525" stroke-width="1.5"/>
<path id="Vector 1_19" d="M244 162C245 162 245 157 245 157.5C245 158 245 153 246 153C246.8 153 247 156.833 247 157.5C247 158.167 247.2 162 248 162" stroke="#252525" stroke-width="1.5"/>
<path id="Vector 1_20" d="M248 162C249 162 249 157 249 157.5C249 158 249 153 250 153C250.8 153 251 156.833 251 157.5C251 158.167 251.2 162 252 162" stroke="#252525" stroke-width="1.5"/>
<path id="Vector 1_21" d="M252 162C253 162 253 157 253 157.5C253 158 253 153 254 153C254.8 153 255 156.833 255 157.5C255 158.167 255.2 162 256 162" stroke="#252525" stroke-width="1.5"/>
<path id="Vector 1_22" d="M256 162C257 162 257 157 257 157.5C257 158 257 153 258 153C258.8 153 259 156.833 259 157.5C259 158.167 259.2 162 260 162" stroke="#252525" stroke-width="1.5"/>
<path id="Vector 1_23" d="M260 162C261 162 261 157 261 157.5C261 158 261 153 262 153C262.8 153 263 156.833 263 157.5C263 158.167 263.2 162 264 162" stroke="#252525" stroke-width="1.5"/>
<path id="Vector 1_24" d="M264 162C265 162 265 157 265 157.5C265 158 265 153 266 153C266.8 153 267 156.833 267 157.5C267 158.167 267.2 162 268 162" stroke="#252525" stroke-width="1.5"/>
<path id="Vector 1_25" d="M268 162C269 162 269 157 269 157.5C269 158 269 153 270 153C270.8 153 271 156.833 271 157.5C271 158.167 271.2 162 272 162" stroke="#252525" stroke-width="1.5"/>
<path id="Vector 1_26" d="M272 162C273 162 273 157 273 157.5C273 158 273 153 274 153C274.8 153 275 156.833 275 157.5C275 158.167 275.2 162 276 162" stroke="#252525" stroke-width="1.5"/>
<path id="Vector 1_27" d="M276 162C277 162 277 157 277 157.5C277 158 277 153 278 153C278.8 153 279 156.833 279 157.5C279 158.167 279.2 162 280 162" stroke="#252525" stroke-width="1.5"/>
<path id="Vector 1_28" d="M280 162C281 162 281 157 281 157.5C281 158 281 153 282 153C282.8 153 283 156.833 283 157.5C283 158.167 283.2 162 284 162" stroke="#252525" stroke-width="1.5"/>
<path id="Vector 1_29" d="M284 162C285 162 285 157 285 157.5C285 158 285 153 286 153C286.8 153 287 156.833 287 157.5C287 158.167 287.2 162 288 162" stroke="#252525" stroke-width="1.5"/>
<path id="Vector 1_30" d="M288 162C289 162 289 157 289 157.5C289 158 289 153 290 153C290.8 153 291 156.833 291 157.5C291 158.167 291.2 162 292 162" stroke="#252525" stroke-width="1.5"/>
<path id="Vector 1_31" d="M292 162C293 162 293 157 293 157.5C293 158 293 153 294 153C294.8 153 295 156.833 295 157.5C295 158.167 295.2 162 296 162" stroke="#252525" stroke-width="1.5"/>
<path id="Vector 1_32" d="M296 162C297 162 297 157 297 157.5C297 158 297 153 298 153C298.8 153 299 156.833 299 157.5C299 158.167 299.2 162 300 162" stroke="#252525" stroke-width="1.5"/>
<path id="Vector 1_33" d="M300 162C301 162 301 157 301 157.5C301 158 301 153 302 153C302.8 153 303 156.833 303 157.5C303 158.167 303.2 162 304 162" stroke="#252525" stroke-width="1.5"/>
<path id="Vector 1_34" d="M304 162C305 162 305 157 305 157.5C305 158 305 153 306 153C306.8 153 307 156.833 307 157.5C307 158.167 307.2 162 308 162" stroke="#252525" stroke-width="1.5"/>
<path id="Vector 1_35" d="M308 162C309 162 309 157 309 157.5C309 158 309 153 310 153C310.8 153 311 156.833 311 157.5C311 158.167 311.2 162 312 162" stroke="#252525" stroke-width="1.5"/>
<path id="Vector 1_36" d="M312 162C313 162 313 157 313 157.5C313 158 313 153 314 153C314.8 153 315 156.833 315 157.5C315 158.167 315.2 162 316 162" stroke="#252525" stroke-width="1.5"/>
<path id="Vector 1_37" d="M316 162C317 162 317 157 317 157.5C317 158 317 153 318 153C318.8 153 319 156.833 319 157.5C319 158.167 319.2 162 320 162" stroke="#252525" stroke-width="1.5"/>
<path id="Vector 1_38" d="M320 162C321 162 321 157 321 157.5C321 158 321 153 322 153C322.8 153 323 156.833 323 157.5C323 158.167 323.2 162 324 162" stroke="#252525" stroke-width="1.5"/>
<path id="Vector 1_39" d="M324 162C325 162 325 157 325 157.5C325 158 325 153 326 153C326.8 153 327 156.833 327 157.5C327 158.167 327.2 162 328 162" stroke="#252525" stroke-width="1.5"/>
<path id="Vector 1_40" d="M328 162C329 162 329 157 329 157.5C329 158 329 153 330 153C330.8 153 331 156.833 331 157.5C331 158.167 331.2 162 332 162" stroke="#252525" stroke-width="1.5"/>
<g id="Repeat group 1">
<g id="Repeat group 1_inner" data-figma-trr="l10u1-0f">
<path id="Vector 2" d="M332 162C333 162 333 157 333 157.5C333 158 333 153 334 153C334.8 153 335 156.833 335 157.5C335 158.167 335.2 162 336 162" stroke="#252525" stroke-width="1.5"/>
</g>
<use xlink:href="#Repeat%20group%201_inner" transform="translate(4)"/>
<use xlink:href="#Repeat%20group%201_inner" transform="translate(8)"/>
<use xlink:href="#Repeat%20group%201_inner" transform="translate(12)"/>
<use xlink:href="#Repeat%20group%201_inner" transform="translate(16)"/>
<use xlink:href="#Repeat%20group%201_inner" transform="translate(20)"/>
<use xlink:href="#Repeat%20group%201_inner" transform="translate(24)"/>
<use xlink:href="#Repeat%20group%201_inner" transform="translate(28)"/>
<use xlink:href="#Repeat%20group%201_inner" transform="translate(32)"/>
<use xlink:href="#Repeat%20group%201_inner" transform="translate(36)"/>
</g>
</g>
</g>
</g>
<use xlink:href="#fins_inner" transform="translate(0 12.5)"/>
<use xlink:href="#fins_inner" transform="translate(0 25)"/>
<use xlink:href="#fins_inner" transform="translate(0 37.5)"/>
<use xlink:href="#fins_inner" transform="translate(0 50)"/>
<use xlink:href="#fins_inner" transform="translate(0 62.5)"/>
<use xlink:href="#fins_inner" transform="translate(0 75)"/>
<use xlink:href="#fins_inner" transform="translate(0 87.5)"/>
<use xlink:href="#fins_inner" transform="translate(0 100)"/>
<use xlink:href="#fins_inner" transform="translate(0 112.5)"/>
<use xlink:href="#fins_inner" transform="translate(0 125)"/>
<use xlink:href="#fins_inner" transform="translate(0 137.5)"/>
<use xlink:href="#fins_inner" transform="translate(0 150)"/>
<use xlink:href="#fins_inner" transform="translate(0 162.5)"/>
<use xlink:href="#fins_inner" transform="translate(0 175)"/>
<use xlink:href="#fins_inner" transform="translate(0 187.5)"/>
</g>
<g id="outerHex">
<mask id="path-113-inside-3_1_2" fill="white">
<path d="M363 138C376.255 138 387 148.745 387 162V344C387 357.255 376.255 368 363 368H181C167.745 368 157 357.255 157 344V162C157 148.745 167.745 138 181 138H363ZM187 153C178.716 153 172 159.716 172 168V338C172 346.284 178.716 353 187 353H357C365.284 353 372 346.284 372 338V168C372 159.716 365.284 153 357 153H187Z"/>
</mask>
<path d="M363 138C376.255 138 387 148.745 387 162V344C387 357.255 376.255 368 363 368H181C167.745 368 157 357.255 157 344V162C157 148.745 167.745 138 181 138H363ZM187 153C178.716 153 172 159.716 172 168V338C172 346.284 178.716 353 187 353H357C365.284 353 372 346.284 372 338V168C372 159.716 365.284 153 357 153H187Z" fill="#2F2F2F"/>
<path d="M187 153V152V153ZM172 338H171H172ZM357 353V354V353ZM372 168H373H372ZM363 138V139C375.703 139 386 149.297 386 162H387H388C388 148.193 376.807 137 363 137V138ZM387 162H386V344H387H388V162H387ZM387 344H386C386 356.703 375.703 367 363 367V368V369C376.807 369 388 357.807 388 344H387ZM363 368V367H181V368V369H363V368ZM181 368V367C168.297 367 158 356.703 158 344H157H156C156 357.807 167.193 369 181 369V368ZM157 344H158V162H157H156V344H157ZM157 162H158C158 149.297 168.297 139 181 139V138V137C167.193 137 156 148.193 156 162H157ZM181 138V139H363V138V137H181V138ZM187 153V152C178.163 152 171 159.163 171 168H172H173C173 160.268 179.268 154 187 154V153ZM172 168H171V338H172H173V168H172ZM172 338H171C171 346.837 178.163 354 187 354V353V352C179.268 352 173 345.732 173 338H172ZM187 353V354H357V353V352H187V353ZM357 353V354C365.837 354 373 346.837 373 338H372H371C371 345.732 364.732 352 357 352V353ZM372 338H373V168H372H371V338H372ZM372 168H373C373 159.163 365.837 152 357 152V153V154C364.732 154 371 160.268 371 168H372ZM357 153V152H187V153V154H357V153Z" fill="black" mask="url(#path-113-inside-3_1_2)"/>
</g>
<path id="Rectangle 12" d="M156.5 333.16L139.522 323.965C135.812 321.955 133.5 318.073 133.5 313.853V191.147C133.5 186.927 135.812 183.045 139.522 181.035L156.5 171.839V333.16Z" fill="#2F2F2F" stroke="black"/>
<path id="Rectangle 13" d="M387.5 333.16L404.478 323.965C408.188 321.955 410.5 318.073 410.5 313.853V191.147C410.5 186.927 408.188 183.045 404.478 181.035L387.5 171.839V333.16Z" fill="#2F2F2F" stroke="black"/>
<path id="Rectangle 14" d="M122 238.5H132.5V267.5H122C120.067 267.5 118.5 265.933 118.5 264V242C118.5 240.067 120.067 238.5 122 238.5Z" fill="#2F2F2F" stroke="black"/>
<path id="Rectangle 15" d="M422 238.5H411.5V267.5H422C423.933 267.5 425.5 265.933 425.5 264V242C425.5 240.067 423.933 238.5 422 238.5Z" fill="#2F2F2F" stroke="black"/>
</g>
<path id="inTubeFill" d="M655 425C530.954 425 49 555.791 49 331.5C49 297 67 251.5 117.5 251.5" stroke="#2F7CEF" stroke-opacity="0.6" stroke-width="8"/>
<path id="inTube" d="M655 425C530.954 425 49 555.791 49 331.5C49 297 67 251.5 117.5 251.5" stroke="#AEAEAE" stroke-opacity="0.5" stroke-width="12"/>
<g id="fanCtrl">
<g id="fanCtrlBase">
<rect id="Rectangle 5_2" x="248.5" y="371.5" width="55" height="42" rx="3.5" fill="#7D7D7D" stroke="black"/>
<rect id="Rectangle 6_2" x="250.074" y="375.778" width="51.8519" height="33.4444" rx="4" fill="#989898"/>
</g>
<g id="fanLabel">
<rect id="Rectangle 7_2" x="261" y="374" width="30" height="14" fill="#F6F6F6"/>
<path id="Fan" d="M263.057 385V376.273H268.29V377.21H264.114V380.159H267.898V381.097H264.114V385H263.057ZM271.89 385.153C271.475 385.153 271.098 385.075 270.76 384.919C270.422 384.76 270.154 384.531 269.955 384.233C269.756 383.932 269.657 383.568 269.657 383.142C269.657 382.767 269.73 382.463 269.878 382.23C270.026 381.994 270.223 381.81 270.471 381.676C270.718 381.543 270.99 381.443 271.289 381.378C271.59 381.31 271.892 381.256 272.196 381.216C272.594 381.165 272.917 381.126 273.164 381.101C273.414 381.072 273.596 381.026 273.709 380.96C273.826 380.895 273.884 380.781 273.884 380.619V380.585C273.884 380.165 273.769 379.838 273.539 379.605C273.311 379.372 272.966 379.256 272.503 379.256C272.023 379.256 271.647 379.361 271.374 379.571C271.101 379.781 270.909 380.006 270.799 380.244L269.844 379.903C270.015 379.506 270.242 379.196 270.526 378.974C270.813 378.75 271.125 378.594 271.463 378.506C271.804 378.415 272.14 378.369 272.469 378.369C272.679 378.369 272.921 378.395 273.194 378.446C273.469 378.494 273.735 378.595 273.99 378.749C274.249 378.902 274.463 379.134 274.634 379.443C274.804 379.753 274.89 380.168 274.89 380.688V385H273.884V384.114H273.833C273.765 384.256 273.651 384.408 273.492 384.57C273.333 384.732 273.121 384.869 272.857 384.983C272.593 385.097 272.27 385.153 271.89 385.153ZM272.043 384.25C272.441 384.25 272.776 384.172 273.049 384.016C273.324 383.859 273.532 383.658 273.671 383.411C273.813 383.163 273.884 382.903 273.884 382.631V381.71C273.841 381.761 273.748 381.808 273.603 381.851C273.461 381.891 273.296 381.926 273.108 381.957C272.924 381.986 272.743 382.011 272.567 382.034C272.394 382.054 272.253 382.071 272.145 382.085C271.884 382.119 271.64 382.175 271.412 382.251C271.188 382.325 271.006 382.437 270.867 382.588C270.73 382.736 270.662 382.937 270.662 383.193C270.662 383.543 270.792 383.807 271.05 383.986C271.311 384.162 271.642 384.25 272.043 384.25ZM277.731 381.062V385H276.725V378.455H277.697V379.477H277.782C277.935 379.145 278.168 378.878 278.481 378.676C278.793 378.472 279.197 378.369 279.691 378.369C280.134 378.369 280.522 378.46 280.854 378.642C281.187 378.821 281.445 379.094 281.63 379.46C281.815 379.824 281.907 380.284 281.907 380.841V385H280.901V380.909C280.901 380.395 280.768 379.994 280.501 379.707C280.234 379.418 279.867 379.273 279.401 379.273C279.08 379.273 278.793 379.342 278.54 379.482C278.29 379.621 278.093 379.824 277.948 380.091C277.803 380.358 277.731 380.682 277.731 381.062Z" fill="black"/>
</g>
<g id="fanSwitch">
<rect id="fanSwitchBack" x="256.833" y="390.611" width="37.2222" height="16.5185" rx="0.5" fill="#1C1C1C" stroke="black"/>
<rect id="fanSwitchOn" x="257.926" y="391.704" width="17.5185" height="14.3333" fill="#D90000"/>
<rect id="fanSwitchOff" x="275.444" y="391.704" width="17.5185" height="14.3333" fill="#7B0101"/>
<circle id="Ellipse 6_2" cx="285.796" cy="398.87" r="4.48148" stroke="#EED5D5"/>
<line id="Line 1_2" x1="264.796" y1="393.296" x2="264.796" y2="404.444" stroke="#EED5D5"/>
</g>
</g>
</g>
<defs>
<filter id="filter0_i_1_2" x="172" y="162.5" width="200" height="3" filterUnits="userSpaceOnUse" color-interpolation-filters="sRGB">
<feFlood flood-opacity="0" result="BackgroundImageFix"/>
<feBlend mode="normal" in="SourceGraphic" in2="BackgroundImageFix" result="shape"/>
<feColorMatrix in="SourceAlpha" type="matrix" values="0 0 0 0 0 0 0 0 0 0 0 0 0 0 0 0 0 0 127 0" result="hardAlpha"/>
<feOffset/>
<feGaussianBlur stdDeviation="1.5"/>
<feComposite in2="hardAlpha" operator="arithmetic" k2="-1" k3="1"/>
<feColorMatrix type="matrix" values="0 0 0 0 0 0 0 0 0 0 0 0 0 0 0 0 0 0 1 0"/>
<feBlend mode="normal" in2="shape" result="effect1_innerShadow_1_2"/>
</filter>
</defs>
</svg>
