<svg width="922" height="357" viewBox="0 0 922 357" fill="none" xmlns="http://www.w3.org/2000/svg" xmlns:xlink="http://www.w3.org/1999/xlink">
<g id="crossExchanger">
<rect width="922" height="357" fill="white"/>
<g id="pump">
<path id="pumpBack" d="M525.5 216.5H734.5C739.747 216.5 744 220.753 744 226V254C744 259.247 739.747 263.5 734.5 263.5H525.5C520.253 263.5 516 259.247 516 254V226C516 220.753 520.253 216.5 525.5 216.5Z" fill="#474747" stroke="black"/>
<path id="pumpFace" d="M525.5 241.5H734.5C739.747 241.5 744 245.753 744 251V303C744 308.247 739.747 312.5 734.5 312.5H525.5C520.253 312.5 516 308.247 516 303V251C516 245.753 520.253 241.5 525.5 241.5Z" fill="#656565" stroke="black"/>
<g id="pumpBody">
<rect id="Rectangle 8" x="740.5" y="306.5" width="221" height="60" rx="9.5" transform="rotate(180 740.5 306.5)" fill="#3F3E3E" stroke="black"/>
<rect id="Rectangle 9" x="739" y="301" width="104" height="49" rx="10" transform="rotate(180 739 301)" fill="#5B5B5B"/>
<rect id="displayScreen" x="527.5" y="260.5" width="102" height="33" rx="1.5" fill="#3C412C" stroke="black"/>
</g>
<g id="pumpCtrl">
<g id="ctrlBase">
<rect id="Rectangle 5" x="639.5" y="254.5" width="95.3557" height="44.4999" rx="3.5" fill="#7D7D7D" stroke="black"/>
<rect id="Rectangle 6" x="642.569" y="259.056" width="89.2182" height="35.3888" rx="4" fill="#989898"/>
</g>
<g id="pumpLabel">
<rect id="Rectangle 7" x="689" y="257.592" width="40.0165" height="15.5658" fill="#F6F6F6"/>
<path id="Pump" d="M692.959 269V260.273H696.07C696.749 260.273 697.311 260.396 697.757 260.643C698.203 260.891 698.537 261.229 698.759 261.658C698.98 262.084 699.091 262.564 699.091 263.098C699.091 263.635 698.979 264.118 698.754 264.547C698.533 264.973 698.197 265.311 697.749 265.561C697.303 265.808 696.741 265.932 696.065 265.932H693.926V264.815H695.946C696.375 264.815 696.723 264.741 696.99 264.594C697.257 264.443 697.453 264.239 697.578 263.98C697.703 263.722 697.766 263.428 697.766 263.098C697.766 262.768 697.703 262.476 697.578 262.22C697.453 261.964 697.256 261.764 696.986 261.619C696.719 261.474 696.366 261.402 695.929 261.402H694.276V269H692.959ZM704.679 266.286V262.455H705.957V269H704.704V267.866H704.636C704.485 268.216 704.244 268.507 703.912 268.74C703.582 268.97 703.172 269.085 702.68 269.085C702.26 269.085 701.887 268.993 701.564 268.808C701.243 268.621 700.99 268.344 700.805 267.977C700.623 267.611 700.532 267.158 700.532 266.618V262.455H701.806V266.464C701.806 266.911 701.93 267.266 702.177 267.53C702.424 267.794 702.745 267.926 703.14 267.926C703.379 267.926 703.616 267.866 703.852 267.747C704.091 267.628 704.288 267.447 704.444 267.206C704.603 266.964 704.681 266.658 704.679 266.286ZM707.669 269V262.455H708.892V263.52H708.973C709.109 263.159 709.332 262.878 709.642 262.676C709.952 262.472 710.322 262.369 710.754 262.369C711.192 262.369 711.558 262.472 711.854 262.676C712.152 262.881 712.372 263.162 712.514 263.52H712.582C712.739 263.17 712.987 262.892 713.328 262.685C713.669 262.474 714.075 262.369 714.547 262.369C715.141 262.369 715.625 262.555 716 262.928C716.378 263.3 716.567 263.861 716.567 264.611V269H715.293V264.73C715.293 264.287 715.172 263.966 714.93 263.767C714.689 263.568 714.401 263.469 714.065 263.469C713.651 263.469 713.328 263.597 713.098 263.852C712.868 264.105 712.753 264.43 712.753 264.828V269H711.483V264.649C711.483 264.294 711.372 264.009 711.151 263.793C710.929 263.577 710.641 263.469 710.286 263.469C710.044 263.469 709.821 263.533 709.616 263.661C709.415 263.786 709.251 263.96 709.126 264.185C709.004 264.409 708.943 264.669 708.943 264.964V269H707.669ZM718.275 271.455V262.455H719.519V263.516H719.625C719.699 263.379 719.806 263.222 719.945 263.043C720.084 262.864 720.277 262.707 720.525 262.574C720.772 262.438 721.098 262.369 721.505 262.369C722.033 262.369 722.505 262.503 722.919 262.77C723.334 263.037 723.659 263.422 723.895 263.925C724.134 264.428 724.253 265.033 724.253 265.74C724.253 266.447 724.135 267.054 723.9 267.56C723.664 268.062 723.34 268.45 722.928 268.723C722.516 268.993 722.046 269.128 721.517 269.128C721.12 269.128 720.794 269.061 720.542 268.928C720.292 268.794 720.096 268.638 719.953 268.459C719.811 268.28 719.702 268.121 719.625 267.982H719.549V271.455H718.275ZM719.523 265.727C719.523 266.187 719.59 266.591 719.723 266.938C719.857 267.284 720.05 267.555 720.303 267.751C720.556 267.945 720.865 268.041 721.232 268.041C721.613 268.041 721.931 267.94 722.186 267.739C722.442 267.534 722.635 267.257 722.766 266.908C722.9 266.558 722.966 266.165 722.966 265.727C722.966 265.295 722.901 264.908 722.77 264.564C722.642 264.22 722.449 263.949 722.191 263.75C721.935 263.551 721.615 263.452 721.232 263.452C720.863 263.452 720.55 263.547 720.294 263.737C720.042 263.928 719.85 264.193 719.719 264.534C719.588 264.875 719.523 265.273 719.523 265.727Z" fill="black"/>
</g>
<path id="Polygon 1" d="M662.047 295.481L662.991 297.845C663.03 297.943 662.958 298.05 662.853 298.05H661.147C661.042 298.05 660.97 297.943 661.009 297.845L661.953 295.481L662 295.365L662.047 295.481Z" fill="black" stroke="white" stroke-width="0.1"/>
</g>
<path id="pumpNozzle" d="M508.5 266.5H515V287.5H508.5C506.567 287.5 505 285.933 505 284V270C505 268.067 506.567 266.5 508.5 266.5Z" fill="#2F2F2F" stroke="black"/>
</g>
<g id="fanThermIn">
<path id="Rectangle 20" d="M133.145 73.8792L234.903 132.629C235.62 133.043 235.866 133.961 235.452 134.678C235.037 135.396 234.12 135.641 233.403 135.227L131.645 76.4772L133.145 73.8792Z" fill="#D9D9D9" stroke="black"/>
<path id="Rectangle 21" d="M80.433 45.1782C82.5041 41.591 87.091 40.3619 90.6782 42.433L132.247 66.433C133.921 67.3995 134.495 69.5401 133.529 71.2141L129.529 78.1423C128.562 79.8163 126.421 80.3899 124.747 79.4234L83.1782 55.4234C79.591 53.3523 78.3619 48.7654 80.433 45.1782Z" fill="#636363" stroke="black"/>
<rect id="Rectangle 24" x="129.778" y="77.7093" width="7" height="5" rx="0.5" transform="rotate(-60 129.778 77.7093)" fill="#FEC530" stroke="black"/>
<g id="label">
<circle id="Ellipse 11" cx="87" cy="49" r="7.5" fill="#FEC530" stroke="black"/>
<g id="1">
<mask id="path-16-outside-1_1_2" maskUnits="userSpaceOnUse" x="83" y="43" width="6" height="11" fill="black">
<rect fill="white" x="83" y="43" width="6" height="11"/>
<path d="M86.7 53L86.7 45.344L86.952 45.404C86.856 45.62 86.672 45.836 86.4 46.052C86.128 46.268 85.812 46.456 85.452 46.616C85.1 46.776 84.736 46.884 84.36 46.94L84.36 46.016C84.736 45.952 85.096 45.84 85.44 45.68C85.784 45.52 86.088 45.328 86.352 45.104C86.624 44.872 86.824 44.624 86.952 44.36L87.66 44.36L87.66 53L86.7 53Z"/>
</mask>
<path d="M86.7 53L86.7 45.344L86.952 45.404C86.856 45.62 86.672 45.836 86.4 46.052C86.128 46.268 85.812 46.456 85.452 46.616C85.1 46.776 84.736 46.884 84.36 46.94L84.36 46.016C84.736 45.952 85.096 45.84 85.44 45.68C85.784 45.52 86.088 45.328 86.352 45.104C86.624 44.872 86.824 44.624 86.952 44.36L87.66 44.36L87.66 53L86.7 53Z" fill="#82B0F5"/>
<path d="M86.7 53L85.7 53C85.7 53.5523 86.1477 54 86.7 54L86.7 53ZM86.7 45.344L86.9316 44.3712C86.634 44.3003 86.3203 44.3696 86.0802 44.5593C85.8401 44.7489 85.7 45.038 85.7 45.344L86.7 45.344ZM86.952 45.404L87.8658 45.8101C87.9866 45.5384 87.9802 45.2271 87.8483 44.9606C87.7165 44.6941 87.4729 44.5001 87.1836 44.4312L86.952 45.404ZM86.4 46.052L85.7781 45.2689L85.7781 45.2689L86.4 46.052ZM85.452 46.616L85.0458 45.7022L85.0382 45.7056L85.452 46.616ZM84.36 46.94L83.36 46.94C83.36 47.2309 83.4867 47.5074 83.707 47.6974C83.9274 47.8874 84.2196 47.9719 84.5073 47.9291L84.36 46.94ZM84.36 46.016L84.1922 45.0302C83.7116 45.112 83.36 45.5285 83.36 46.016L84.36 46.016ZM85.44 45.68L85.8617 46.5867L85.8617 46.5867L85.44 45.68ZM86.352 45.104L86.999 45.8665L87.0009 45.8648L86.352 45.104ZM86.952 44.36L86.952 43.36C86.5688 43.36 86.2194 43.5789 86.0522 43.9237L86.952 44.36ZM87.66 44.36L88.66 44.36C88.66 43.8077 88.2123 43.36 87.66 43.36L87.66 44.36ZM87.66 53L87.66 54C88.2123 54 88.66 53.5523 88.66 53L87.66 53ZM86.7 53L87.7 53L87.7 45.344L86.7 45.344L85.7 45.344L85.7 53L86.7 53ZM86.7 45.344L86.4684 46.3168L86.7204 46.3768L86.952 45.404L87.1836 44.4312L86.9316 44.3712L86.7 45.344ZM86.952 45.404L86.0382 44.9979C86.0312 45.0136 85.9787 45.1096 85.7781 45.2689L86.4 46.052L87.0219 46.8351C87.3653 46.5624 87.6808 46.2264 87.8658 45.8101L86.952 45.404ZM86.4 46.052L85.7781 45.2689C85.5804 45.4259 85.3388 45.572 85.0459 45.7022L85.452 46.616L85.8581 47.5298C86.2852 47.34 86.6756 47.1101 87.0219 46.8351L86.4 46.052ZM85.452 46.616L85.0382 45.7056C84.7695 45.8278 84.495 45.9089 84.2127 45.9509L84.36 46.94L84.5073 47.9291C84.977 47.8591 85.4305 47.7242 85.8658 47.5264L85.452 46.616ZM84.36 46.94L85.36 46.94L85.36 46.016L84.36 46.016L83.36 46.016L83.36 46.94L84.36 46.94ZM84.36 46.016L84.5278 47.0018C84.9911 46.923 85.4366 46.7845 85.8617 46.5867L85.44 45.68L85.0183 44.7733C84.7554 44.8955 84.4809 44.981 84.1922 45.0302L84.36 46.016ZM85.44 45.68L85.8617 46.5867C86.2792 46.3925 86.6605 46.1537 86.999 45.8665L86.352 45.104L85.705 44.3415C85.5155 44.5023 85.2888 44.6475 85.0183 44.7733L85.44 45.68ZM86.352 45.104L87.0009 45.8648C87.3557 45.5623 87.6519 45.2087 87.8518 44.7963L86.952 44.36L86.0522 43.9237C85.9961 44.0393 85.8923 44.1817 85.7031 44.3432L86.352 45.104ZM86.952 44.36L86.952 45.36L87.66 45.36L87.66 44.36L87.66 43.36L86.952 43.36L86.952 44.36ZM87.66 44.36L86.66 44.36L86.66 53L87.66 53L88.66 53L88.66 44.36L87.66 44.36ZM87.66 53L87.66 52L86.7 52L86.7 53L86.7 54L87.66 54L87.66 53Z" fill="black" mask="url(#path-16-outside-1_1_2)"/>
</g>
</g>
</g>
<g id="Tank">
<g id="back">
<g id="tankBackground">
<path id="Ellipse 3" d="M628.5 212.5C656.099 212.5 681.075 214.01 699.143 216.449C708.181 217.669 715.47 219.12 720.489 220.722C723.002 221.524 724.917 222.354 726.193 223.196C727.494 224.054 728 224.834 728 225.5C728 226.166 727.494 226.946 726.193 227.804C724.917 228.646 723.002 229.476 720.489 230.278C715.47 231.88 708.181 233.331 699.143 234.551C681.075 236.99 656.099 238.5 628.5 238.5C600.901 238.5 575.924 236.99 557.856 234.551C548.819 233.331 541.53 231.88 536.511 230.278C533.998 229.476 532.083 228.646 530.807 227.804C529.506 226.946 529 226.166 529 225.5C529 224.834 529.506 224.054 530.807 223.196C532.083 222.354 533.998 221.524 536.511 220.722C541.53 219.12 548.819 217.669 557.856 216.449C575.924 214.01 600.901 212.5 628.5 212.5Z" fill="#B7B7B7" stroke="black"/>
<g id="Rectangle 2">
<mask id="path-19-inside-2_1_2" fill="white">
<path d="M528.5 209H728.5V226H528.5V209Z"/>
</mask>
<path d="M528.5 209H728.5V226H528.5V209Z" fill="#B7B7B7"/>
<path d="M728.5 209H727.5V226H728.5H729.5V209H728.5ZM528.5 226H529.5V209H528.5H527.5V226H528.5Z" fill="black" mask="url(#path-19-inside-2_1_2)"/>
</g>
<path id="Ellipse 2" d="M628.5 197.5C656.099 197.5 681.075 199.01 699.143 201.449C708.181 202.669 715.47 204.12 720.489 205.722C723.002 206.524 724.917 207.354 726.193 208.196C727.494 209.054 728 209.834 728 210.5C728 211.166 727.494 211.946 726.193 212.804C724.917 213.646 723.002 214.476 720.489 215.278C715.47 216.88 708.181 218.331 699.143 219.551C681.075 221.99 656.099 223.5 628.5 223.5C600.901 223.5 575.924 221.99 557.856 219.551C548.819 218.331 541.53 216.88 536.511 215.278C533.998 214.476 532.083 213.646 530.807 212.804C529.506 211.946 529 211.166 529 210.5C529 209.834 529.506 209.054 530.807 208.196C532.083 207.354 533.998 206.524 536.511 205.722C541.53 204.12 548.819 202.669 557.856 201.449C575.924 199.01 600.901 197.5 628.5 197.5Z" fill="#B7B7B7" stroke="black"/>
<g id="Rectangle 1">
<mask id="path-22-inside-3_1_2" fill="white">
<path d="M528.5 99H728.5V211H528.5V99Z"/>
</mask>
<path d="M728.5 99H727.5V211H728.5H729.5V99H728.5ZM528.5 211H529.5V99H528.5H527.5V211H528.5Z" fill="black" mask="url(#path-22-inside-3_1_2)"/>
</g>
<g id="ioHole">
<path id="Ellipse 4" d="M684.5 207.5C686.372 207.5 688.043 207.881 689.227 208.473C690.44 209.079 691 209.825 691 210.5C691 211.175 690.44 211.921 689.227 212.527C688.043 213.119 686.372 213.5 684.5 213.5C682.628 213.5 680.957 213.119 679.773 212.527C678.56 211.921 678 211.175 678 210.5C678 209.825 678.56 209.079 679.773 208.473C680.957 207.881 682.628 207.5 684.5 207.5Z" fill="#707070" stroke="black"/>
<path id="Ellipse 5" d="M684.5 209.5C685.56 209.5 686.499 209.662 687.153 209.907C687.482 210.031 687.713 210.166 687.853 210.29C687.994 210.415 688 210.487 688 210.5C688 210.513 687.994 210.585 687.853 210.71C687.713 210.834 687.482 210.969 687.153 211.093C686.499 211.338 685.56 211.5 684.5 211.5C683.439 211.5 682.501 211.338 681.847 211.093C681.518 210.969 681.287 210.834 681.146 210.71C681.005 210.585 681 210.513 681 210.5C681 210.487 681.005 210.415 681.146 210.29C681.287 210.166 681.518 210.031 681.847 209.907C682.501 209.662 683.439 209.5 684.5 209.5Z" fill="#222222" stroke="black"/>
</g>
</g>
<path id="tankWaterTopBack" d="M628.5 135C683.728 135 728.5 141.044 728.5 148.5C728.5 148.667 728.476 148.834 728.432 149H528.568C528.524 148.834 528.5 148.667 528.5 148.5C528.5 141.044 573.271 135 628.5 135Z" fill="#2F7CEF" fill-opacity="0.6"/>
<path id="tankRimOutlineBack" d="M628.5 86.5C656.099 86.5 681.075 88.01 699.143 90.4492C708.181 91.6693 715.47 93.1197 720.489 94.7217C723.002 95.5238 724.917 96.3544 726.193 97.1963C727.494 98.0542 728 98.834 728 99.5C728 100.166 727.494 100.946 726.193 101.804C724.917 102.646 723.002 103.476 720.489 104.278C715.47 105.88 708.181 107.331 699.143 108.551C681.075 110.99 656.099 112.5 628.5 112.5C600.901 112.5 575.924 110.99 557.856 108.551C548.819 107.331 541.53 105.88 536.511 104.278C533.998 103.476 532.083 102.646 530.807 101.804C529.506 100.946 529 100.166 529 99.5C529 98.834 529.506 98.0542 530.807 97.1963C532.083 96.3544 533.998 95.5238 536.511 94.7217C541.53 93.1197 548.819 91.6693 557.856 90.4492C575.924 88.01 600.901 86.5 628.5 86.5Z" stroke="black"/>
<path id="waterTopOutlineBack" d="M628.5 135.5C656.099 135.5 681.075 137.01 699.143 139.449C708.181 140.669 715.47 142.12 720.489 143.722C723.002 144.524 724.917 145.354 726.193 146.196C727.494 147.054 728 147.834 728 148.5C728 149.166 727.494 149.946 726.193 150.804C724.917 151.646 723.002 152.476 720.489 153.278C715.47 154.88 708.181 156.331 699.143 157.551C681.075 159.99 656.099 161.5 628.5 161.5C600.901 161.5 575.924 159.99 557.856 157.551C548.819 156.331 541.53 154.88 536.511 153.278C533.998 152.476 532.083 151.646 530.807 150.804C529.506 149.946 529 149.166 529 148.5C529 147.834 529.506 147.054 530.807 146.196C532.083 145.354 533.998 144.524 536.511 143.722C541.53 142.12 548.819 140.669 557.856 139.449C575.924 137.01 600.901 135.5 628.5 135.5Z" stroke="black"/>
</g>
<g id="thermStick">
<path id="Rectangle 20_2" d="M706.5 87.5L706.5 205C706.5 205.828 705.828 206.5 705 206.5C704.172 206.5 703.5 205.828 703.5 205L703.5 87.5L706.5 87.5Z" fill="#D9D9D9" stroke="black"/>
<path id="Rectangle 21_2" d="M705 27.5C709.142 27.5 712.5 30.8579 712.5 35L712.5 83C712.5 84.933 710.933 86.5 709 86.5L701 86.5C699.067 86.5 697.5 84.933 697.5 83L697.5 35C697.5 30.8579 700.858 27.5 705 27.5Z" fill="#636363" stroke="black"/>
<rect id="Rectangle 24_2" x="701.5" y="86.5" width="7" height="5" rx="0.5" fill="#FEC530" stroke="black"/>
<g id="label_2">
<circle id="Ellipse 11_2" cx="705" cy="35" r="7.5" fill="#FEC530" stroke="black"/>
<g id="2">
<mask id="path-33-outside-4_1_2" maskUnits="userSpaceOnUse" x="701" y="29" width="9" height="11" fill="black">
<rect fill="white" x="701" y="29" width="9" height="11"/>
<path d="M702.48 39V38.16C703.344 37.448 704.064 36.824 704.64 36.288C705.224 35.752 705.688 35.276 706.032 34.86C706.384 34.444 706.632 34.064 706.776 33.72C706.928 33.368 707.004 33.024 707.004 32.688C707.004 32.192 706.856 31.804 706.56 31.524C706.264 31.244 705.856 31.104 705.336 31.104C704.8 31.104 704.368 31.256 704.04 31.56C703.712 31.864 703.512 32.3 703.44 32.868H702.408C702.488 32.084 702.788 31.452 703.308 30.972C703.836 30.484 704.536 30.24 705.408 30.24C706.216 30.24 706.86 30.456 707.34 30.888C707.82 31.32 708.06 31.912 708.06 32.664C708.06 33.072 707.98 33.48 707.82 33.888C707.668 34.296 707.412 34.724 707.052 35.172C706.7 35.62 706.232 36.116 705.648 36.66C705.072 37.196 704.356 37.804 703.5 38.484L703.272 38.136H708.204V39H702.48Z"/>
</mask>
<path d="M702.48 39V38.16C703.344 37.448 704.064 36.824 704.64 36.288C705.224 35.752 705.688 35.276 706.032 34.86C706.384 34.444 706.632 34.064 706.776 33.72C706.928 33.368 707.004 33.024 707.004 32.688C707.004 32.192 706.856 31.804 706.56 31.524C706.264 31.244 705.856 31.104 705.336 31.104C704.8 31.104 704.368 31.256 704.04 31.56C703.712 31.864 703.512 32.3 703.44 32.868H702.408C702.488 32.084 702.788 31.452 703.308 30.972C703.836 30.484 704.536 30.24 705.408 30.24C706.216 30.24 706.86 30.456 707.34 30.888C707.82 31.32 708.06 31.912 708.06 32.664C708.06 33.072 707.98 33.48 707.82 33.888C707.668 34.296 707.412 34.724 707.052 35.172C706.7 35.62 706.232 36.116 705.648 36.66C705.072 37.196 704.356 37.804 703.5 38.484L703.272 38.136H708.204V39H702.48Z" fill="#82B0F5"/>
<path d="M702.48 39H701.48C701.48 39.5523 701.928 40 702.48 40V39ZM702.48 38.16L701.844 37.3883C701.614 37.5782 701.48 37.8613 701.48 38.16H702.48ZM704.64 36.288L703.964 35.5512L703.959 35.5559L704.64 36.288ZM706.032 34.86L705.269 34.214L705.261 34.2227L706.032 34.86ZM706.776 33.72L705.858 33.3235L705.854 33.3339L706.776 33.72ZM704.04 31.56L704.72 32.2934L704.72 32.2934L704.04 31.56ZM703.44 32.868V33.868C703.944 33.868 704.369 33.4934 704.432 32.9938L703.44 32.868ZM702.408 32.868L701.413 32.7665C701.384 33.0479 701.476 33.3283 701.666 33.5383C701.855 33.7482 702.125 33.868 702.408 33.868V32.868ZM703.308 30.972L703.986 31.7068L703.987 31.7064L703.308 30.972ZM707.34 30.888L708.009 30.1447L708.009 30.1447L707.34 30.888ZM707.82 33.888L706.889 33.5229C706.887 33.5282 706.885 33.5335 706.883 33.5389L707.82 33.888ZM707.052 35.172L706.272 34.5456L706.266 34.5542L707.052 35.172ZM705.648 36.66L706.329 37.3921L706.33 37.3917L705.648 36.66ZM703.5 38.484L702.664 39.032C702.818 39.2671 703.063 39.4266 703.341 39.4713C703.618 39.516 703.902 39.4418 704.122 39.267L703.5 38.484ZM703.272 38.136V37.136C702.905 37.136 702.567 37.3374 702.392 37.6606C702.218 37.9838 702.234 38.3767 702.436 38.684L703.272 38.136ZM708.204 38.136H709.204C709.204 37.5837 708.756 37.136 708.204 37.136V38.136ZM708.204 39V40C708.756 40 709.204 39.5523 709.204 39H708.204ZM702.48 39H703.48V38.16H702.48H701.48V39H702.48ZM702.48 38.16L703.116 38.9317C703.99 38.2118 704.726 37.5741 705.321 37.0201L704.64 36.288L703.959 35.5559C703.402 36.0739 702.698 36.6842 701.844 37.3883L702.48 38.16ZM704.64 36.288L705.316 37.0247C705.92 36.4707 706.419 35.9607 706.803 35.4973L706.032 34.86L705.261 34.2227C704.957 34.5913 704.528 35.0333 703.964 35.5513L704.64 36.288ZM706.032 34.86L706.795 35.5059C707.186 35.0445 707.501 34.5769 707.698 34.1061L706.776 33.72L705.854 33.3339C705.763 33.5511 705.582 33.8435 705.269 34.2141L706.032 34.86ZM706.776 33.72L707.694 34.1164C707.893 33.6568 708.004 33.1783 708.004 32.688H707.004H706.004C706.004 32.8697 705.963 33.0792 705.858 33.3236L706.776 33.72ZM707.004 32.688H708.004C708.004 31.9814 707.785 31.3064 707.247 30.7975L706.56 31.524L705.873 32.2505C705.927 32.3016 706.004 32.4026 706.004 32.688H707.004ZM706.56 31.524L707.247 30.7975C706.718 30.2972 706.038 30.104 705.336 30.104V31.104V32.104C705.674 32.104 705.81 32.1908 705.873 32.2505L706.56 31.524ZM705.336 31.104V30.104C704.601 30.104 703.909 30.3183 703.36 30.8266L704.04 31.56L704.72 32.2934C704.827 32.1937 704.999 32.104 705.336 32.104V31.104ZM704.04 31.56L703.36 30.8266C702.816 31.3306 702.541 32.008 702.448 32.7422L703.44 32.868L704.432 32.9938C704.483 32.592 704.608 32.3974 704.72 32.2934L704.04 31.56ZM703.44 32.868V31.868H702.408V32.868V33.868H703.44V32.868ZM702.408 32.868L703.403 32.9695C703.461 32.3985 703.666 32.0022 703.986 31.7068L703.308 30.972L702.63 30.2372C701.91 30.9018 701.515 31.7695 701.413 32.7665L702.408 32.868ZM703.308 30.972L703.987 31.7064C704.292 31.4239 704.731 31.24 705.408 31.24V30.24V29.24C704.341 29.24 703.38 29.5441 702.629 30.2376L703.308 30.972ZM705.408 30.24V31.24C706.033 31.24 706.418 31.4031 706.671 31.6313L707.34 30.888L708.009 30.1447C707.302 29.5089 706.399 29.24 705.408 29.24V30.24ZM707.34 30.888L706.671 31.6313C706.905 31.8419 707.06 32.1442 707.06 32.664H708.06H709.06C709.06 31.6798 708.735 30.7981 708.009 30.1447L707.34 30.888ZM708.06 32.664H707.06C707.06 32.9381 707.007 33.2225 706.889 33.5229L707.82 33.888L708.751 34.2531C708.953 33.7375 709.06 33.2059 709.06 32.664H708.06ZM707.82 33.888L706.883 33.5389C706.778 33.8204 706.586 34.1559 706.272 34.5456L707.052 35.172L707.832 35.7984C708.238 35.2921 708.558 34.7716 708.757 34.2371L707.82 33.888ZM707.052 35.172L706.266 34.5542C705.955 34.9491 705.526 35.4067 704.966 35.9283L705.648 36.66L706.33 37.3917C706.938 36.8253 707.445 36.2909 707.838 35.7898L707.052 35.172ZM705.648 36.66L704.967 35.9279C704.416 36.4409 703.721 37.0315 702.878 37.701L703.5 38.484L704.122 39.267C704.991 38.5765 705.728 37.9511 706.329 37.3921L705.648 36.66ZM703.5 38.484L704.336 37.936L704.108 37.588L703.272 38.136L702.436 38.684L702.664 39.032L703.5 38.484ZM703.272 38.136V39.136H708.204V38.136V37.136H703.272V38.136ZM708.204 38.136H707.204V39H708.204H709.204V38.136H708.204ZM708.204 39V38H702.48V39V40H708.204V39Z" fill="black" mask="url(#path-33-outside-4_1_2)"/>
</g>
</g>
</g>
<path id="ouletStream" d="M547 101.5C544.333 101.5 541.667 101.5 539 101.5C539.155 102.317 539.355 103.133 539.558 103.95C540.008 105.763 540.474 107.576 540.5 109.389C540.684 122.276 540.817 135.163 540.97 148.05C540.98 148.867 540.99 149.683 541 150.5C542.333 150.5 543.667 150.5 545 150.5C545.01 149.683 545.02 148.867 545.029 148.05C545.183 135.163 545.315 122.276 545.5 109.389C545.526 107.576 545.991 105.763 546.442 103.95C546.645 103.133 546.845 102.317 547 101.5Z" fill="#2F7CEF" fill-opacity="0.6"/>
<g id="front">
<path id="waterBottom" d="M727.434 210C727.477 210.166 727.5 210.333 727.5 210.5C727.5 216.5 687.5 223 628.432 223C567 223 529.5 216 529.5 210.5C529.5 210.333 529.523 210.166 529.566 210H727.434Z" fill="#2F7CEF" fill-opacity="0.6"/>
<rect id="tankWaterRect" x="529.5" y="149" width="198" height="61" fill="#2F7CEF" fill-opacity="0.6"/>
<path id="tankTopRim" d="M728.432 99C728.476 99.166 728.5 99.3325 728.5 99.5C728.5 106.956 683.728 113 628.5 113C573.271 113 528.5 106.956 528.5 99.5C528.5 99.3325 528.524 99.166 528.568 99H529.64C529.538 99.1949 529.5 99.3619 529.5 99.5C529.5 99.9 529.814 100.549 531.082 101.386C532.302 102.191 534.166 103.005 536.662 103.802C541.64 105.391 548.896 106.836 557.923 108.055C575.963 110.49 600.916 112 628.5 112C656.084 112 681.037 110.49 699.077 108.055C708.104 106.836 715.36 105.391 720.338 103.802C722.834 103.005 724.698 102.191 725.918 101.386C727.186 100.549 727.5 99.9 727.5 99.5C727.5 99.3619 727.461 99.1949 727.36 99H728.432Z" fill="black"/>
<path id="waterTopOutlineFront" d="M728.432 148C728.476 148.166 728.5 148.333 728.5 148.5C728.5 155.956 683.728 162 628.5 162C573.271 162 528.5 155.956 528.5 148.5C528.5 148.333 528.524 148.166 528.568 148H529.64C529.538 148.195 529.5 148.362 529.5 148.5C529.5 148.9 529.814 149.549 531.082 150.386C532.302 151.191 534.166 152.005 536.662 152.802C541.64 154.391 548.896 155.836 557.923 157.055C575.963 159.49 600.916 161 628.5 161C656.084 161 681.037 159.49 699.077 157.055C708.104 155.836 715.36 154.391 720.338 152.802C722.834 152.005 724.698 151.191 725.918 150.386C727.186 149.549 727.5 148.9 727.5 148.5C727.5 148.362 727.461 148.195 727.36 148H728.432Z" fill="black"/>
</g>
</g>
<g id="fan">
<g id="fanBackground">
<path id="Subtract" d="M349.5 241H249.5C304.729 241 349.5 196.228 349.5 141C349.5 85.7715 304.729 41 249.5 41C194.272 41 149.5 85.7715 149.5 141C149.5 196.228 194.272 241 249.5 241H149.5V41H349.5V241Z" fill="#121212"/>
<circle id="Ellipse 8" cx="249.5" cy="141" r="80" stroke="#121212" stroke-width="4"/>
<circle id="Ellipse 9" cx="249.5" cy="141" r="50" stroke="#121212" stroke-width="4"/>
<circle id="Ellipse 10" cx="249.5" cy="141" r="25" fill="#121212"/>
</g>
<g id="fanRotate">
<path id="blade" d="M234.991 86.3278C239.376 100.672 242.612 116.369 239.655 118.842L253.361 118.879C257.862 109.66 267.771 96.1741 268.461 76.0948C269.043 59.1858 264.124 45.1222 254.969 42.0521C246.813 39.3172 232.694 41.0196 216.389 46.0046C222.747 52.9491 231.482 74.8521 234.991 86.3278Z" fill="#121212"/>
<path id="blade_2" d="M194.9 126.22C209.516 129.594 224.728 134.641 225.39 138.437L232.276 126.587C226.543 118.079 219.818 102.755 202.774 92.1167C188.421 83.1584 173.782 80.3864 166.546 86.7803C160.099 92.4761 154.514 105.555 150.678 122.168C159.872 120.134 183.208 123.52 194.9 126.22Z" fill="#121212"/>
<path id="blade_3" d="M209.403 180.885C219.633 169.914 231.609 159.264 235.228 160.588L228.408 148.7C218.174 149.411 201.54 147.573 183.805 157.015C168.871 164.965 159.151 176.257 161.07 185.721C162.779 194.152 171.313 205.528 183.783 217.156C186.618 208.178 201.219 189.661 209.403 180.885Z" fill="#121212"/>
<path id="blade_4" d="M263.995 195.658C259.61 181.313 256.374 165.617 259.331 163.144L245.625 163.107C241.124 172.325 231.215 185.812 230.524 205.891C229.943 222.8 234.862 236.864 244.017 239.934C252.173 242.669 266.292 240.966 282.597 235.981C276.239 229.037 267.504 207.134 263.995 195.658Z" fill="#121212"/>
<path id="blade_5" d="M304.085 155.766C289.47 152.392 274.258 147.345 273.595 143.549L266.71 155.399C272.443 163.907 279.168 179.231 296.212 189.869C310.565 198.827 325.204 201.599 332.44 195.206C338.887 189.51 344.472 176.431 348.307 159.818C339.114 161.852 315.778 158.466 304.085 155.766Z" fill="#121212"/>
<path id="blade_6" d="M289.583 101.101C279.353 112.071 267.377 122.722 263.758 121.398L270.578 133.286C280.812 132.574 297.446 134.412 315.181 124.971C330.115 117.02 339.835 105.729 337.916 96.2647C336.207 87.834 327.673 76.4576 315.203 64.8295C312.368 73.8082 297.767 92.3248 289.583 101.101Z" fill="#121212"/>
</g>
</g>
<g id="heatExchanger">
<g id="fins">
<g id="fins_inner" data-figma-trr="l16u1-0f">
<g id="finArray">
<g id="hexTube" filter="url(#filter0_i_1_2)">
<line x1="149.5" y1="52" x2="349.5" y2="52" stroke="#7B7B7B" stroke-width="3"/>
</g>
<g id="fins_2">
<path id="Vector 1" d="M149.5 50C150.5 50 150.5 45 150.5 45.5C150.5 46 150.5 41 151.5 41C152.3 41 152.5 44.8333 152.5 45.5C152.5 46.1667 152.7 50 153.5 50" stroke="#252525" stroke-width="1.5"/>
<path id="Vector 1_2" d="M153.5 50C154.5 50 154.5 45 154.5 45.5C154.5 46 154.5 41 155.5 41C156.3 41 156.5 44.8333 156.5 45.5C156.5 46.1667 156.7 50 157.5 50" stroke="#252525" stroke-width="1.5"/>
<path id="Vector 1_3" d="M157.5 50C158.5 50 158.5 45 158.5 45.5C158.5 46 158.5 41 159.5 41C160.3 41 160.5 44.8333 160.5 45.5C160.5 46.1667 160.7 50 161.5 50" stroke="#252525" stroke-width="1.5"/>
<path id="Vector 1_4" d="M161.5 50C162.5 50 162.5 45 162.5 45.5C162.5 46 162.5 41 163.5 41C164.3 41 164.5 44.8333 164.5 45.5C164.5 46.1667 164.7 50 165.5 50" stroke="#252525" stroke-width="1.5"/>
<path id="Vector 1_5" d="M165.5 50C166.5 50 166.5 45 166.5 45.5C166.5 46 166.5 41 167.5 41C168.3 41 168.5 44.8333 168.5 45.5C168.5 46.1667 168.7 50 169.5 50" stroke="#252525" stroke-width="1.5"/>
<path id="Vector 1_6" d="M169.5 50C170.5 50 170.5 45 170.5 45.5C170.5 46 170.5 41 171.5 41C172.3 41 172.5 44.8333 172.5 45.5C172.5 46.1667 172.7 50 173.5 50" stroke="#252525" stroke-width="1.5"/>
<path id="Vector 1_7" d="M173.5 50C174.5 50 174.5 45 174.5 45.5C174.5 46 174.5 41 175.5 41C176.3 41 176.5 44.8333 176.5 45.5C176.5 46.1667 176.7 50 177.5 50" stroke="#252525" stroke-width="1.5"/>
<path id="Vector 1_8" d="M177.5 50C178.5 50 178.5 45 178.5 45.5C178.5 46 178.5 41 179.5 41C180.3 41 180.5 44.8333 180.5 45.5C180.5 46.1667 180.7 50 181.5 50" stroke="#252525" stroke-width="1.5"/>
<path id="Vector 1_9" d="M181.5 50C182.5 50 182.5 45 182.5 45.5C182.5 46 182.5 41 183.5 41C184.3 41 184.5 44.8333 184.5 45.5C184.5 46.1667 184.7 50 185.5 50" stroke="#252525" stroke-width="1.5"/>
<path id="Vector 1_10" d="M185.5 50C186.5 50 186.5 45 186.5 45.5C186.5 46 186.5 41 187.5 41C188.3 41 188.5 44.8333 188.5 45.5C188.5 46.1667 188.7 50 189.5 50" stroke="#252525" stroke-width="1.5"/>
<path id="Vector 1_11" d="M189.5 50C190.5 50 190.5 45 190.5 45.5C190.5 46 190.5 41 191.5 41C192.3 41 192.5 44.8333 192.5 45.5C192.5 46.1667 192.7 50 193.5 50" stroke="#252525" stroke-width="1.5"/>
<path id="Vector 1_12" d="M193.5 50C194.5 50 194.5 45 194.5 45.5C194.5 46 194.5 41 195.5 41C196.3 41 196.5 44.8333 196.5 45.5C196.5 46.1667 196.7 50 197.5 50" stroke="#252525" stroke-width="1.5"/>
<path id="Vector 1_13" d="M197.5 50C198.5 50 198.5 45 198.5 45.5C198.5 46 198.5 41 199.5 41C200.3 41 200.5 44.8333 200.5 45.5C200.5 46.1667 200.7 50 201.5 50" stroke="#252525" stroke-width="1.5"/>
<path id="Vector 1_14" d="M201.5 50C202.5 50 202.5 45 202.5 45.5C202.5 46 202.5 41 203.5 41C204.3 41 204.5 44.8333 204.5 45.5C204.5 46.1667 204.7 50 205.5 50" stroke="#252525" stroke-width="1.5"/>
<path id="Vector 1_15" d="M205.5 50C206.5 50 206.5 45 206.5 45.5C206.5 46 206.5 41 207.5 41C208.3 41 208.5 44.8333 208.5 45.5C208.5 46.1667 208.7 50 209.5 50" stroke="#252525" stroke-width="1.5"/>
<path id="Vector 1_16" d="M209.5 50C210.5 50 210.5 45 210.5 45.5C210.5 46 210.5 41 211.5 41C212.3 41 212.5 44.8333 212.5 45.5C212.5 46.1667 212.7 50 213.5 50" stroke="#252525" stroke-width="1.5"/>
<path id="Vector 1_17" d="M213.5 50C214.5 50 214.5 45 214.5 45.5C214.5 46 214.5 41 215.5 41C216.3 41 216.5 44.8333 216.5 45.5C216.5 46.1667 216.7 50 217.5 50" stroke="#252525" stroke-width="1.5"/>
<path id="Vector 1_18" d="M217.5 50C218.5 50 218.5 45 218.5 45.5C218.5 46 218.5 41 219.5 41C220.3 41 220.5 44.8333 220.5 45.5C220.5 46.1667 220.7 50 221.5 50" stroke="#252525" stroke-width="1.5"/>
<path id="Vector 1_19" d="M221.5 50C222.5 50 222.5 45 222.5 45.5C222.5 46 222.5 41 223.5 41C224.3 41 224.5 44.8333 224.5 45.5C224.5 46.1667 224.7 50 225.5 50" stroke="#252525" stroke-width="1.5"/>
<path id="Vector 1_20" d="M225.5 50C226.5 50 226.5 45 226.5 45.5C226.5 46 226.5 41 227.5 41C228.3 41 228.5 44.8333 228.5 45.5C228.5 46.1667 228.7 50 229.5 50" stroke="#252525" stroke-width="1.5"/>
<path id="Vector 1_21" d="M229.5 50C230.5 50 230.5 45 230.5 45.5C230.5 46 230.5 41 231.5 41C232.3 41 232.5 44.8333 232.5 45.5C232.5 46.1667 232.7 50 233.5 50" stroke="#252525" stroke-width="1.5"/>
<path id="Vector 1_22" d="M233.5 50C234.5 50 234.5 45 234.5 45.5C234.5 46 234.5 41 235.5 41C236.3 41 236.5 44.8333 236.5 45.5C236.5 46.1667 236.7 50 237.5 50" stroke="#252525" stroke-width="1.5"/>
<path id="Vector 1_23" d="M237.5 50C238.5 50 238.5 45 238.5 45.5C238.5 46 238.5 41 239.5 41C240.3 41 240.5 44.8333 240.5 45.5C240.5 46.1667 240.7 50 241.5 50" stroke="#252525" stroke-width="1.5"/>
<path id="Vector 1_24" d="M241.5 50C242.5 50 242.5 45 242.5 45.5C242.5 46 242.5 41 243.5 41C244.3 41 244.5 44.8333 244.5 45.5C244.5 46.1667 244.7 50 245.5 50" stroke="#252525" stroke-width="1.5"/>
<path id="Vector 1_25" d="M245.5 50C246.5 50 246.5 45 246.5 45.5C246.5 46 246.5 41 247.5 41C248.3 41 248.5 44.8333 248.5 45.5C248.5 46.1667 248.7 50 249.5 50" stroke="#252525" stroke-width="1.5"/>
<path id="Vector 1_26" d="M249.5 50C250.5 50 250.5 45 250.5 45.5C250.5 46 250.5 41 251.5 41C252.3 41 252.5 44.8333 252.5 45.5C252.5 46.1667 252.7 50 253.5 50" stroke="#252525" stroke-width="1.5"/>
<path id="Vector 1_27" d="M253.5 50C254.5 50 254.5 45 254.5 45.5C254.5 46 254.5 41 255.5 41C256.3 41 256.5 44.8333 256.5 45.5C256.5 46.1667 256.7 50 257.5 50" stroke="#252525" stroke-width="1.5"/>
<path id="Vector 1_28" d="M257.5 50C258.5 50 258.5 45 258.5 45.5C258.5 46 258.5 41 259.5 41C260.3 41 260.5 44.8333 260.5 45.5C260.5 46.1667 260.7 50 261.5 50" stroke="#252525" stroke-width="1.5"/>
<path id="Vector 1_29" d="M261.5 50C262.5 50 262.5 45 262.5 45.5C262.5 46 262.5 41 263.5 41C264.3 41 264.5 44.8333 264.5 45.5C264.5 46.1667 264.7 50 265.5 50" stroke="#252525" stroke-width="1.5"/>
<path id="Vector 1_30" d="M265.5 50C266.5 50 266.5 45 266.5 45.5C266.5 46 266.5 41 267.5 41C268.3 41 268.5 44.8333 268.5 45.5C268.5 46.1667 268.7 50 269.5 50" stroke="#252525" stroke-width="1.5"/>
<path id="Vector 1_31" d="M269.5 50C270.5 50 270.5 45 270.5 45.5C270.5 46 270.5 41 271.5 41C272.3 41 272.5 44.8333 272.5 45.5C272.5 46.1667 272.7 50 273.5 50" stroke="#252525" stroke-width="1.5"/>
<path id="Vector 1_32" d="M273.5 50C274.5 50 274.5 45 274.5 45.5C274.5 46 274.5 41 275.5 41C276.3 41 276.5 44.8333 276.5 45.5C276.5 46.1667 276.7 50 277.5 50" stroke="#252525" stroke-width="1.5"/>
<path id="Vector 1_33" d="M277.5 50C278.5 50 278.5 45 278.5 45.5C278.5 46 278.5 41 279.5 41C280.3 41 280.5 44.8333 280.5 45.5C280.5 46.1667 280.7 50 281.5 50" stroke="#252525" stroke-width="1.5"/>
<path id="Vector 1_34" d="M281.5 50C282.5 50 282.5 45 282.5 45.5C282.5 46 282.5 41 283.5 41C284.3 41 284.5 44.8333 284.5 45.5C284.5 46.1667 284.7 50 285.5 50" stroke="#252525" stroke-width="1.5"/>
<path id="Vector 1_35" d="M285.5 50C286.5 50 286.5 45 286.5 45.5C286.5 46 286.5 41 287.5 41C288.3 41 288.5 44.8333 288.5 45.5C288.5 46.1667 288.7 50 289.5 50" stroke="#252525" stroke-width="1.5"/>
<path id="Vector 1_36" d="M289.5 50C290.5 50 290.5 45 290.5 45.5C290.5 46 290.5 41 291.5 41C292.3 41 292.5 44.8333 292.5 45.5C292.5 46.1667 292.7 50 293.5 50" stroke="#252525" stroke-width="1.5"/>
<path id="Vector 1_37" d="M293.5 50C294.5 50 294.5 45 294.5 45.5C294.5 46 294.5 41 295.5 41C296.3 41 296.5 44.8333 296.5 45.5C296.5 46.1667 296.7 50 297.5 50" stroke="#252525" stroke-width="1.5"/>
<path id="Vector 1_38" d="M297.5 50C298.5 50 298.5 45 298.5 45.5C298.5 46 298.5 41 299.5 41C300.3 41 300.5 44.8333 300.5 45.5C300.5 46.1667 300.7 50 301.5 50" stroke="#252525" stroke-width="1.5"/>
<path id="Vector 1_39" d="M301.5 50C302.5 50 302.5 45 302.5 45.5C302.5 46 302.5 41 303.5 41C304.3 41 304.5 44.8333 304.5 45.5C304.5 46.1667 304.7 50 305.5 50" stroke="#252525" stroke-width="1.5"/>
<path id="Vector 1_40" d="M305.5 50C306.5 50 306.5 45 306.5 45.5C306.5 46 306.5 41 307.5 41C308.3 41 308.5 44.8333 308.5 45.5C308.5 46.1667 308.7 50 309.5 50" stroke="#252525" stroke-width="1.5"/>
<g id="Repeat group 1">
<g id="Repeat group 1_inner" data-figma-trr="l10u1-0f">
<path id="Vector 2" d="M309.5 50C310.5 50 310.5 45 310.5 45.5C310.5 46 310.5 41 311.5 41C312.3 41 312.5 44.8333 312.5 45.5C312.5 46.1667 312.7 50 313.5 50" stroke="#252525" stroke-width="1.5"/>
</g>
<use xlink:href="#Repeat%20group%201_inner" transform="translate(4)"/>
<use xlink:href="#Repeat%20group%201_inner" transform="translate(8)"/>
<use xlink:href="#Repeat%20group%201_inner" transform="translate(12)"/>
<use xlink:href="#Repeat%20group%201_inner" transform="translate(16)"/>
<use xlink:href="#Repeat%20group%201_inner" transform="translate(20)"/>
<use xlink:href="#Repeat%20group%201_inner" transform="translate(24)"/>
<use xlink:href="#Repeat%20group%201_inner" transform="translate(28)"/>
<use xlink:href="#Repeat%20group%201_inner" transform="translate(32)"/>
<use xlink:href="#Repeat%20group%201_inner" transform="translate(36)"/>
</g>
</g>
</g>
</g>
<use xlink:href="#fins_inner" transform="translate(0 12.5)"/>
<use xlink:href="#fins_inner" transform="translate(0 25)"/>
<use xlink:href="#fins_inner" transform="translate(0 37.5)"/>
<use xlink:href="#fins_inner" transform="translate(0 50)"/>
<use xlink:href="#fins_inner" transform="translate(0 62.5)"/>
<use xlink:href="#fins_inner" transform="translate(0 75)"/>
<use xlink:href="#fins_inner" transform="translate(0 87.5)"/>
<use xlink:href="#fins_inner" transform="translate(0 100)"/>
<use xlink:href="#fins_inner" transform="translate(0 112.5)"/>
<use xlink:href="#fins_inner" transform="translate(0 125)"/>
<use xlink:href="#fins_inner" transform="translate(0 137.5)"/>
<use xlink:href="#fins_inner" transform="translate(0 150)"/>
<use xlink:href="#fins_inner" transform="translate(0 162.5)"/>
<use xlink:href="#fins_inner" transform="translate(0 175)"/>
<use xlink:href="#fins_inner" transform="translate(0 187.5)"/>
</g>
<path id="hexBase" d="M143.187 241.5H355.587C360.207 241.5 364.156 244.823 364.946 249.375L373.975 301.375C374.983 307.184 370.511 312.5 364.614 312.5H132.715C126.715 312.5 122.217 307.006 123.401 301.124L133.874 249.124C134.739 244.828 138.423 241.701 142.765 241.51L143.187 241.5Z" fill="#474747" stroke="black"/>
<g id="outerHex">
<mask id="path-93-inside-5_1_2" fill="white">
<path d="M340.5 26C353.755 26 364.5 36.7452 364.5 50V232C364.5 245.255 353.755 256 340.5 256H158.5C145.245 256 134.5 245.255 134.5 232V50C134.5 36.7452 145.245 26 158.5 26H340.5ZM164.5 41C156.216 41 149.5 47.7157 149.5 56V226C149.5 234.284 156.216 241 164.5 241H334.5C342.784 241 349.5 234.284 349.5 226V56C349.5 47.7157 342.784 41 334.5 41H164.5Z"/>
</mask>
<path d="M340.5 26C353.755 26 364.5 36.7452 364.5 50V232C364.5 245.255 353.755 256 340.5 256H158.5C145.245 256 134.5 245.255 134.5 232V50C134.5 36.7452 145.245 26 158.5 26H340.5ZM164.5 41C156.216 41 149.5 47.7157 149.5 56V226C149.5 234.284 156.216 241 164.5 241H334.5C342.784 241 349.5 234.284 349.5 226V56C349.5 47.7157 342.784 41 334.5 41H164.5Z" fill="#2F2F2F"/>
<path d="M164.5 41V40V41ZM349.5 56H350.5H349.5ZM340.5 26V27C353.203 27 363.5 37.2975 363.5 50H364.5H365.5C365.5 36.1929 354.307 25 340.5 25V26ZM364.5 50H363.5V232H364.5H365.5V50H364.5ZM364.5 232H363.5C363.5 244.703 353.203 255 340.5 255V256V257C354.307 257 365.5 245.807 365.5 232H364.5ZM340.5 256V255H158.5V256V257H340.5V256ZM158.5 256V255C145.797 255 135.5 244.703 135.5 232H134.5H133.5C133.5 245.807 144.693 257 158.5 257V256ZM134.5 232H135.5V50H134.5H133.5V232H134.5ZM134.5 50H135.5C135.5 37.2975 145.797 27 158.5 27V26V25C144.693 25 133.5 36.1929 133.5 50H134.5ZM158.5 26V27H340.5V26V25H158.5V26ZM164.5 41V40C155.663 40 148.5 47.1634 148.5 56H149.5H150.5C150.5 48.268 156.768 42 164.5 42V41ZM149.5 56H148.5V226H149.5H150.5V56H149.5ZM149.5 226H148.5C148.5 234.837 155.663 242 164.5 242V241V240C156.768 240 150.5 233.732 150.5 226H149.5ZM164.5 241V242H334.5V241V240H164.5V241ZM334.5 241V242C343.337 242 350.5 234.837 350.5 226H349.5H348.5C348.5 233.732 342.232 240 334.5 240V241ZM349.5 226H350.5V56H349.5H348.5V226H349.5ZM349.5 56H350.5C350.5 47.1634 343.337 40 334.5 40V41V42C342.232 42 348.5 48.268 348.5 56H349.5ZM334.5 41V40H164.5V41V42H334.5V41Z" fill="black" mask="url(#path-93-inside-5_1_2)"/>
</g>
<path id="Rectangle 12" d="M134 221.16L117.022 211.965C113.312 209.955 111 206.073 111 201.853V79.1475C111 74.9271 113.312 71.0453 117.022 69.0352L134 59.8389V221.16Z" fill="#2F2F2F" stroke="black"/>
<path id="Rectangle 13" d="M365 221.16L381.978 211.965C385.688 209.955 388 206.073 388 201.853V79.1475C388 74.9271 385.688 71.0453 381.978 69.0352L365 59.8389V221.16Z" fill="#2F2F2F" stroke="black"/>
<path id="Rectangle 14" d="M99.5 126.5H110V155.5H99.5C97.567 155.5 96 153.933 96 152V130C96 128.067 97.567 126.5 99.5 126.5Z" fill="#2F2F2F" stroke="black"/>
<path id="Rectangle 15" d="M399.5 126.5H389V155.5H399.5C401.433 155.5 403 153.933 403 152V130C403 128.067 401.433 126.5 399.5 126.5Z" fill="#2F2F2F" stroke="black"/>
</g>
<path id="inTubeFill" d="M504.5 277C380.455 277 27 445.291 27 221C27 186.5 45 141 95.5 141" stroke="#2F7CEF" stroke-opacity="0.6" stroke-width="8"/>
<path id="inTube" d="M504.5 277C380.455 277 27 445.291 27 221C27 186.5 45 141 95.5 141" stroke="#AEAEAE" stroke-opacity="0.5" stroke-width="12"/>
<g id="fanCtrl">
<g id="fanCtrlBase">
<rect id="Rectangle 5_2" x="226" y="259.5" width="55" height="42" rx="3.5" fill="#7D7D7D" stroke="black"/>
<rect id="Rectangle 6_2" x="227.574" y="263.778" width="51.8519" height="33.4444" rx="4" fill="#989898"/>
</g>
<g id="fanLabel">
<rect id="Rectangle 7_2" x="238.5" y="262" width="30" height="14" fill="#F6F6F6"/>
<path id="Fan" d="M242.959 273V264.273H248.371V265.406H244.276V268.065H247.983V269.195H244.276V273H242.959ZM251.769 273.145C251.354 273.145 250.979 273.068 250.644 272.915C250.309 272.759 250.043 272.533 249.847 272.237C249.654 271.942 249.558 271.58 249.558 271.151C249.558 270.781 249.629 270.477 249.771 270.239C249.913 270 250.104 269.811 250.346 269.672C250.587 269.533 250.857 269.428 251.156 269.357C251.454 269.286 251.758 269.232 252.067 269.195C252.46 269.149 252.778 269.112 253.022 269.084C253.266 269.053 253.444 269.003 253.555 268.935C253.665 268.866 253.721 268.756 253.721 268.602V268.572C253.721 268.2 253.616 267.912 253.406 267.707C253.198 267.503 252.888 267.401 252.477 267.401C252.048 267.401 251.71 267.496 251.462 267.686C251.218 267.874 251.049 268.082 250.955 268.312L249.758 268.04C249.9 267.642 250.107 267.321 250.38 267.077C250.656 266.83 250.972 266.651 251.33 266.54C251.688 266.426 252.065 266.369 252.46 266.369C252.721 266.369 252.998 266.401 253.29 266.463C253.586 266.523 253.862 266.634 254.117 266.795C254.376 266.957 254.587 267.189 254.752 267.49C254.917 267.788 254.999 268.176 254.999 268.653V273H253.755V272.105H253.704C253.621 272.27 253.498 272.432 253.333 272.591C253.168 272.75 252.957 272.882 252.698 272.987C252.44 273.092 252.13 273.145 251.769 273.145ZM252.046 272.122C252.398 272.122 252.7 272.053 252.95 271.913C253.202 271.774 253.394 271.592 253.525 271.368C253.658 271.141 253.725 270.898 253.725 270.639V269.795C253.68 269.841 253.592 269.884 253.461 269.923C253.333 269.96 253.187 269.993 253.022 270.021C252.857 270.047 252.697 270.071 252.54 270.094C252.384 270.114 252.254 270.131 252.148 270.145C251.901 270.176 251.675 270.229 251.471 270.303C251.269 270.376 251.107 270.483 250.985 270.622C250.866 270.759 250.806 270.94 250.806 271.168C250.806 271.483 250.923 271.722 251.156 271.884C251.388 272.043 251.685 272.122 252.046 272.122ZM257.971 269.114V273H256.696V266.455H257.919V267.52H258C258.151 267.173 258.387 266.895 258.708 266.685C259.032 266.474 259.439 266.369 259.931 266.369C260.377 266.369 260.767 266.463 261.103 266.651C261.438 266.835 261.698 267.111 261.882 267.477C262.067 267.844 262.159 268.297 262.159 268.837V273H260.885V268.99C260.885 268.516 260.762 268.145 260.515 267.878C260.267 267.608 259.928 267.473 259.496 267.473C259.201 267.473 258.938 267.537 258.708 267.665C258.48 267.793 258.3 267.98 258.167 268.227C258.036 268.472 257.971 268.767 257.971 269.114Z" fill="black"/>
</g>
</g>
<path id="outTubeFill" d="M403.5 142.5C473.911 142.5 454.246 80.3542 505.5 79.5C529.5 79.1 543 88.5001 543 101.5" stroke="#2F7CEF" stroke-opacity="0.6" stroke-width="8"/>
<path id="outTube" d="M403.5 142.5C473.911 142.5 454.246 80.3542 505.5 79.5C529.5 79.1 543 88.5001 543 101.5" stroke="#AEAEAE" stroke-opacity="0.5" stroke-width="12"/>
<g id="fanThermOut">
<path id="Rectangle 20_3" d="M133.145 73.8792L234.903 132.629C235.62 133.043 235.866 133.961 235.452 134.678C235.037 135.396 234.12 135.641 233.403 135.227L131.645 76.4772L133.145 73.8792Z" fill="#D9D9D9" stroke="black"/>
<path id="Rectangle 21_3" d="M80.433 45.1782C82.5041 41.591 87.091 40.3619 90.6782 42.433L132.247 66.433C133.921 67.3995 134.495 69.5401 133.529 71.2141L129.529 78.1423C128.562 79.8163 126.421 80.3899 124.747 79.4234L83.1782 55.4234C79.591 53.3523 78.3619 48.7654 80.433 45.1782Z" fill="#636363" stroke="black"/>
<rect id="Rectangle 24_3" x="129.778" y="77.7093" width="7" height="5" rx="0.5" transform="rotate(-60 129.778 77.7093)" fill="#FEC530" stroke="black"/>
<g id="label_3">
<circle id="Ellipse 11_3" cx="87" cy="49" r="7.5" fill="#FEC530" stroke="black"/>
<g id="1_2">
<mask id="path-111-outside-6_1_2" maskUnits="userSpaceOnUse" x="83" y="43" width="6" height="11" fill="black">
<rect fill="white" x="83" y="43" width="6" height="11"/>
<path d="M86.7 53L86.7 45.344L86.952 45.404C86.856 45.62 86.672 45.836 86.4 46.052C86.128 46.268 85.812 46.456 85.452 46.616C85.1 46.776 84.736 46.884 84.36 46.94L84.36 46.016C84.736 45.952 85.096 45.84 85.44 45.68C85.784 45.52 86.088 45.328 86.352 45.104C86.624 44.872 86.824 44.624 86.952 44.36L87.66 44.36L87.66 53L86.7 53Z"/>
</mask>
<path d="M86.7 53L86.7 45.344L86.952 45.404C86.856 45.62 86.672 45.836 86.4 46.052C86.128 46.268 85.812 46.456 85.452 46.616C85.1 46.776 84.736 46.884 84.36 46.94L84.36 46.016C84.736 45.952 85.096 45.84 85.44 45.68C85.784 45.52 86.088 45.328 86.352 45.104C86.624 44.872 86.824 44.624 86.952 44.36L87.66 44.36L87.66 53L86.7 53Z" fill="#82B0F5"/>
<path d="M86.7 53L85.7 53C85.7 53.5523 86.1477 54 86.7 54L86.7 53ZM86.7 45.344L86.9316 44.3712C86.634 44.3003 86.3203 44.3696 86.0802 44.5593C85.8401 44.7489 85.7 45.038 85.7 45.344L86.7 45.344ZM86.952 45.404L87.8658 45.8101C87.9866 45.5384 87.9802 45.2271 87.8483 44.9606C87.7165 44.6941 87.4729 44.5001 87.1836 44.4312L86.952 45.404ZM86.4 46.052L85.7781 45.2689L85.7781 45.2689L86.4 46.052ZM85.452 46.616L85.0458 45.7022L85.0382 45.7056L85.452 46.616ZM84.36 46.94L83.36 46.94C83.36 47.2309 83.4867 47.5074 83.707 47.6974C83.9274 47.8874 84.2196 47.9719 84.5073 47.9291L84.36 46.94ZM84.36 46.016L84.1922 45.0302C83.7116 45.112 83.36 45.5285 83.36 46.016L84.36 46.016ZM85.44 45.68L85.8617 46.5867L85.8617 46.5867L85.44 45.68ZM86.352 45.104L86.999 45.8665L87.0009 45.8648L86.352 45.104ZM86.952 44.36L86.952 43.36C86.5688 43.36 86.2194 43.5789 86.0522 43.9237L86.952 44.36ZM87.66 44.36L88.66 44.36C88.66 43.8077 88.2123 43.36 87.66 43.36L87.66 44.36ZM87.66 53L87.66 54C88.2123 54 88.66 53.5523 88.66 53L87.66 53ZM86.7 53L87.7 53L87.7 45.344L86.7 45.344L85.7 45.344L85.7 53L86.7 53ZM86.7 45.344L86.4684 46.3168L86.7204 46.3768L86.952 45.404L87.1836 44.4312L86.9316 44.3712L86.7 45.344ZM86.952 45.404L86.0382 44.9979C86.0312 45.0136 85.9787 45.1096 85.7781 45.2689L86.4 46.052L87.0219 46.8351C87.3653 46.5624 87.6808 46.2264 87.8658 45.8101L86.952 45.404ZM86.4 46.052L85.7781 45.2689C85.5804 45.4259 85.3388 45.572 85.0459 45.7022L85.452 46.616L85.8581 47.5298C86.2852 47.34 86.6756 47.1101 87.0219 46.8351L86.4 46.052ZM85.452 46.616L85.0382 45.7056C84.7695 45.8278 84.495 45.9089 84.2127 45.9509L84.36 46.94L84.5073 47.9291C84.977 47.8591 85.4305 47.7242 85.8658 47.5264L85.452 46.616ZM84.36 46.94L85.36 46.94L85.36 46.016L84.36 46.016L83.36 46.016L83.36 46.94L84.36 46.94ZM84.36 46.016L84.5278 47.0018C84.9911 46.923 85.4366 46.7845 85.8617 46.5867L85.44 45.68L85.0183 44.7733C84.7554 44.8955 84.4809 44.981 84.1922 45.0302L84.36 46.016ZM85.44 45.68L85.8617 46.5867C86.2792 46.3925 86.6605 46.1537 86.999 45.8665L86.352 45.104L85.705 44.3415C85.5155 44.5023 85.2888 44.6475 85.0183 44.7733L85.44 45.68ZM86.352 45.104L87.0009 45.8648C87.3557 45.5623 87.6519 45.2087 87.8518 44.7963L86.952 44.36L86.0522 43.9237C85.9961 44.0393 85.8923 44.1817 85.7031 44.3432L86.352 45.104ZM86.952 44.36L86.952 45.36L87.66 45.36L87.66 44.36L87.66 43.36L86.952 43.36L86.952 44.36ZM87.66 44.36L86.66 44.36L86.66 53L87.66 53L88.66 53L88.66 44.36L87.66 44.36ZM87.66 53L87.66 52L86.7 52L86.7 53L86.7 54L87.66 54L87.66 53Z" fill="black" mask="url(#path-111-outside-6_1_2)"/>
</g>
</g>
</g>
<g id="thermoBody">
<path id="Rectangle 17" d="M833 57.5C860.787 57.5 882.14 59.1893 894.812 60.5469C902.063 61.3236 907.259 67.6337 906.962 74.9463L898.003 295.176C897.702 302.561 893.214 309.003 886.118 310.79C875.659 313.424 858.077 316.5 833 316.5C807.923 316.5 790.341 313.424 779.882 310.79C772.785 309.003 768.298 302.56 767.997 295.175L759.038 74.9463C758.741 67.6337 763.937 61.3236 771.188 60.5469C783.86 59.1893 805.213 57.5 833 57.5Z" fill="#FEC530" stroke="black"/>
<path id="Rectangle 18" d="M831 89.5C863.049 89.5 880.387 92.3114 888.6 94.2803C892.22 95.1483 894.426 98.4728 894.324 102.27L889.716 274.686C889.596 279.16 886.38 282.899 881.967 283.481C872.514 284.73 855.122 286.5 832.5 286.5C809.878 286.5 792.486 284.73 783.033 283.481C778.62 282.899 775.404 279.16 775.284 274.686L770.658 101.61C770.566 98.1396 772.438 95.1071 775.701 94.2393C783.083 92.2761 799.153 89.5 831 89.5Z" fill="#636363" stroke="black"/>
<rect id="Rectangle 19" x="777.5" y="98.5" width="111" height="89" rx="3.5" fill="#2A2A24" stroke="black"/>
<rect id="thermScreen" x="783.5" y="103.5" width="99" height="79" rx="3.5" fill="#C3C2BA" stroke="black"/>
<path id="Thermometer" d="M784.4 82V71.872H780.512V70.48H789.984V71.872H786.096V82H784.4ZM791.668 82V70.48H793.332V82H791.668ZM797.46 82V76.752C797.46 76.1867 797.316 75.7653 797.028 75.488C796.751 75.2107 796.335 75.072 795.78 75.072C795.3 75.072 794.873 75.1787 794.5 75.392C794.137 75.6053 793.849 75.8987 793.636 76.272C793.433 76.6453 793.332 77.088 793.332 77.6L793.124 75.648C793.391 75.04 793.801 74.56 794.356 74.208C794.911 73.856 795.556 73.68 796.292 73.68C797.167 73.68 797.855 73.9253 798.356 74.416C798.857 74.9067 799.108 75.5573 799.108 76.368V82H797.46ZM804.891 82.16C804.07 82.16 803.344 81.9787 802.715 81.616C802.096 81.2533 801.611 80.752 801.259 80.112C800.907 79.472 800.731 78.736 800.731 77.904C800.731 77.0613 800.902 76.3253 801.243 75.696C801.595 75.056 802.086 74.56 802.715 74.208C803.344 73.856 804.064 73.68 804.875 73.68C805.664 73.68 806.347 73.8507 806.923 74.192C807.51 74.5227 807.958 74.9867 808.267 75.584C808.587 76.1813 808.747 76.8907 808.747 77.712C808.747 77.84 808.742 77.9627 808.731 78.08C808.731 78.1867 808.72 78.2987 808.699 78.416H801.851V77.168H807.531L807.115 77.664C807.115 76.7893 806.918 76.1227 806.523 75.664C806.128 75.2053 805.579 74.976 804.875 74.976C804.118 74.976 803.515 75.2373 803.067 75.76C802.63 76.272 802.411 76.9867 802.411 77.904C802.411 78.832 802.63 79.5573 803.067 80.08C803.515 80.6027 804.134 80.864 804.923 80.864C805.403 80.864 805.819 80.768 806.171 80.576C806.523 80.3733 806.784 80.08 806.955 79.696H808.523C808.256 80.464 807.803 81.0667 807.163 81.504C806.534 81.9413 805.776 82.16 804.891 82.16ZM810.449 82V73.84H812.033V75.872H812.113V82H810.449ZM812.113 77.744L811.905 75.808C812.097 75.1147 812.428 74.5867 812.897 74.224C813.367 73.8613 813.927 73.68 814.577 73.68C814.823 73.68 814.993 73.7013 815.089 73.744V75.312C815.036 75.2907 814.961 75.28 814.865 75.28C814.769 75.2693 814.652 75.264 814.513 75.264C813.713 75.264 813.111 75.472 812.705 75.888C812.311 76.304 812.113 76.9227 812.113 77.744ZM816.574 82V73.84H818.158V75.76H818.238V82H816.574ZM822.078 82V76.672C822.078 76.1173 821.95 75.712 821.694 75.456C821.438 75.2 821.07 75.072 820.59 75.072C820.142 75.072 819.737 75.1787 819.374 75.392C819.022 75.5947 818.745 75.8827 818.542 76.256C818.34 76.6187 818.238 77.0507 818.238 77.552L818.03 75.648C818.297 75.04 818.697 74.56 819.23 74.208C819.774 73.856 820.382 73.68 821.054 73.68C821.865 73.68 822.51 73.9147 822.99 74.384C823.481 74.8533 823.726 75.472 823.726 76.24V82H822.078ZM827.582 82V76.672C827.582 76.1173 827.449 75.712 827.182 75.456C826.926 75.2 826.558 75.072 826.078 75.072C825.641 75.072 825.241 75.1787 824.878 75.392C824.526 75.5947 824.244 75.8827 824.03 76.256C823.828 76.6187 823.726 77.0507 823.726 77.552L823.39 75.648C823.668 75.04 824.084 74.56 824.638 74.208C825.204 73.856 825.833 73.68 826.526 73.68C827.348 73.68 828.004 73.92 828.494 74.4C828.985 74.8693 829.23 75.4987 829.23 76.288V82H827.582ZM835.017 82.16C834.185 82.16 833.454 81.9787 832.825 81.616C832.196 81.2427 831.705 80.736 831.353 80.096C831.001 79.4453 830.825 78.7093 830.825 77.888C830.825 77.056 831.001 76.3253 831.353 75.696C831.716 75.0667 832.206 74.576 832.825 74.224C833.454 73.8613 834.185 73.68 835.017 73.68C835.86 73.68 836.596 73.8613 837.225 74.224C837.854 74.576 838.34 75.0667 838.681 75.696C839.033 76.3253 839.209 77.056 839.209 77.888C839.209 78.7093 839.033 79.4453 838.681 80.096C838.34 80.736 837.854 81.2427 837.225 81.616C836.596 81.9787 835.86 82.16 835.017 82.16ZM835.017 80.8C835.518 80.8 835.95 80.6773 836.313 80.432C836.686 80.1867 836.98 79.8453 837.193 79.408C837.406 78.9707 837.513 78.4587 837.513 77.872C837.513 76.9973 837.278 76.3093 836.809 75.808C836.35 75.296 835.753 75.04 835.017 75.04C834.292 75.04 833.694 75.296 833.225 75.808C832.766 76.32 832.537 77.008 832.537 77.872C832.537 78.4587 832.638 78.9707 832.841 79.408C833.054 79.8453 833.348 80.1867 833.721 80.432C834.105 80.6773 834.537 80.8 835.017 80.8ZM840.918 82V73.84H842.502V75.76H842.582V82H840.918ZM846.422 82V76.672C846.422 76.1173 846.294 75.712 846.038 75.456C845.782 75.2 845.414 75.072 844.934 75.072C844.486 75.072 844.081 75.1787 843.718 75.392C843.366 75.5947 843.089 75.8827 842.886 76.256C842.683 76.6187 842.582 77.0507 842.582 77.552L842.374 75.648C842.641 75.04 843.041 74.56 843.574 74.208C844.118 73.856 844.726 73.68 845.398 73.68C846.209 73.68 846.854 73.9147 847.334 74.384C847.825 74.8533 848.07 75.472 848.07 76.24V82H846.422ZM851.926 82V76.672C851.926 76.1173 851.793 75.712 851.526 75.456C851.27 75.2 850.902 75.072 850.422 75.072C849.985 75.072 849.585 75.1787 849.222 75.392C848.87 75.5947 848.587 75.8827 848.374 76.256C848.171 76.6187 848.07 77.0507 848.07 77.552L847.734 75.648C848.011 75.04 848.427 74.56 848.982 74.208C849.547 73.856 850.177 73.68 850.87 73.68C851.691 73.68 852.347 73.92 852.838 74.4C853.329 74.8693 853.574 75.4987 853.574 76.288V82H851.926ZM859.329 82.16C858.507 82.16 857.782 81.9787 857.153 81.616C856.534 81.2533 856.049 80.752 855.697 80.112C855.345 79.472 855.169 78.736 855.169 77.904C855.169 77.0613 855.339 76.3253 855.681 75.696C856.033 75.056 856.523 74.56 857.153 74.208C857.782 73.856 858.502 73.68 859.313 73.68C860.102 73.68 860.785 73.8507 861.361 74.192C861.947 74.5227 862.395 74.9867 862.705 75.584C863.025 76.1813 863.185 76.8907 863.185 77.712C863.185 77.84 863.179 77.9627 863.169 78.08C863.169 78.1867 863.158 78.2987 863.137 78.416H856.289V77.168H861.969L861.553 77.664C861.553 76.7893 861.355 76.1227 860.961 75.664C860.566 75.2053 860.017 74.976 859.313 74.976C858.555 74.976 857.953 75.2373 857.505 75.76C857.067 76.272 856.849 76.9867 856.849 77.904C856.849 78.832 857.067 79.5573 857.505 80.08C857.953 80.6027 858.571 80.864 859.361 80.864C859.841 80.864 860.257 80.768 860.609 80.576C860.961 80.3733 861.222 80.08 861.393 79.696H862.961C862.694 80.464 862.241 81.0667 861.601 81.504C860.971 81.9413 860.214 82.16 859.329 82.16ZM868.218 82.16C867.269 82.16 866.57 81.9413 866.122 81.504C865.685 81.056 865.466 80.4 865.466 79.536V71.968L867.114 71.344V79.552C867.114 79.9787 867.226 80.2933 867.45 80.496C867.674 80.6987 868.037 80.8 868.538 80.8C868.73 80.8 868.901 80.784 869.05 80.752C869.199 80.72 869.327 80.6827 869.434 80.64V81.984C869.317 82.0373 869.151 82.08 868.938 82.112C868.725 82.144 868.485 82.16 868.218 82.16ZM863.834 75.168V73.84H869.434V75.168H863.834ZM874.329 82.16C873.507 82.16 872.782 81.9787 872.153 81.616C871.534 81.2533 871.049 80.752 870.697 80.112C870.345 79.472 870.169 78.736 870.169 77.904C870.169 77.0613 870.339 76.3253 870.681 75.696C871.033 75.056 871.523 74.56 872.153 74.208C872.782 73.856 873.502 73.68 874.313 73.68C875.102 73.68 875.785 73.8507 876.361 74.192C876.947 74.5227 877.395 74.9867 877.705 75.584C878.025 76.1813 878.185 76.8907 878.185 77.712C878.185 77.84 878.179 77.9627 878.169 78.08C878.169 78.1867 878.158 78.2987 878.137 78.416H871.289V77.168H876.969L876.553 77.664C876.553 76.7893 876.355 76.1227 875.961 75.664C875.566 75.2053 875.017 74.976 874.313 74.976C873.555 74.976 872.953 75.2373 872.505 75.76C872.067 76.272 871.849 76.9867 871.849 77.904C871.849 78.832 872.067 79.5573 872.505 80.08C872.953 80.6027 873.571 80.864 874.361 80.864C874.841 80.864 875.257 80.768 875.609 80.576C875.961 80.3733 876.222 80.08 876.393 79.696H877.961C877.694 80.464 877.241 81.0667 876.601 81.504C875.971 81.9413 875.214 82.16 874.329 82.16ZM879.887 82V73.84H881.471V75.872H881.551V82H879.887ZM881.551 77.744L881.343 75.808C881.535 75.1147 881.865 74.5867 882.335 74.224C882.804 73.8613 883.364 73.68 884.015 73.68C884.26 73.68 884.431 73.7013 884.527 73.744V75.312C884.473 75.2907 884.399 75.28 884.303 75.28C884.207 75.2693 884.089 75.264 883.951 75.264C883.151 75.264 882.548 75.472 882.143 75.888C881.748 76.304 881.551 76.9227 881.551 77.744Z" fill="black"/>
</g>
<g id="flowDial">
<circle id="dialBody" cx="662" cy="275" r="19.5" fill="#222222" stroke="black"/>
<g id="minorTicks">
<path id="Line 4" d="M643.892 272.132L646.087 272.48" stroke="white" stroke-width="0.66"/>
<path id="Line 4_2" d="M644.564 269.335L646.677 270.021" stroke="white" stroke-width="0.66"/>
<path id="Line 4_3" d="M645.665 266.677L647.645 267.686" stroke="white" stroke-width="0.66"/>
<path id="Line 4_4" d="M647.168 264.224L648.966 265.53" stroke="white" stroke-width="0.66"/>
<path id="Line 4_5" d="M651.224 260.168L652.53 261.966" stroke="white" stroke-width="0.66"/>
<path id="Line 4_6" d="M653.677 258.665L654.686 260.645" stroke="white" stroke-width="0.66"/>
<path id="Line 4_7" d="M656.335 257.564L657.021 259.677" stroke="white" stroke-width="0.66"/>
<path id="Line 4_8" d="M659.132 256.892L659.48 259.087" stroke="white" stroke-width="0.66"/>
<path id="Line 4_9" d="M664.868 256.892L664.52 259.087" stroke="white" stroke-width="0.66"/>
<path id="Line 4_10" d="M667.665 257.564L666.978 259.677" stroke="white" stroke-width="0.66"/>
<path id="Line 4_11" d="M670.323 258.665L669.314 260.645" stroke="white" stroke-width="0.66"/>
<path id="Line 4_12" d="M672.776 260.168L671.47 261.966" stroke="white" stroke-width="0.66"/>
<path id="Line 4_13" d="M676.832 264.224L675.034 265.53" stroke="white" stroke-width="0.66"/>
<path id="Line 4_14" d="M678.335 266.677L676.355 267.686" stroke="white" stroke-width="0.66"/>
<path id="Line 4_15" d="M679.436 269.335L677.322 270.021" stroke="white" stroke-width="0.66"/>
<path id="Line 4_16" d="M680.107 272.132L677.913 272.48" stroke="white" stroke-width="0.66"/>
<path id="Line 4_17" d="M680.107 277.868L677.913 277.52" stroke="white" stroke-width="0.66"/>
<path id="Line 4_18" d="M679.436 280.665L677.322 279.979" stroke="white" stroke-width="0.66"/>
<path id="Line 4_19" d="M678.335 283.323L676.355 282.314" stroke="white" stroke-width="0.66"/>
<path id="Line 4_20" d="M676.832 285.776L675.034 284.47" stroke="white" stroke-width="0.66"/>
<path id="Line 4_21" d="M672.776 289.832L671.47 288.034" stroke="white" stroke-width="0.66"/>
<path id="Line 4_22" d="M670.323 291.335L669.314 289.355" stroke="white" stroke-width="0.66"/>
<path id="Line 4_23" d="M667.665 292.436L666.978 290.323" stroke="white" stroke-width="0.66"/>
<path id="Line 4_24" d="M664.868 293.108L664.52 290.913" stroke="white" stroke-width="0.66"/>
</g>
<g id="majorTicks">
<path id="Line 5" d="M662 293.333V290" stroke="white" stroke-width="0.66"/>
<path id="Line 5_2" d="M643.667 275L647 275" stroke="white" stroke-width="0.66"/>
<path id="0" d="M662 287.828C661.732 287.828 661.505 287.755 661.316 287.609C661.128 287.462 660.984 287.25 660.885 286.972C660.786 286.692 660.736 286.355 660.736 285.96C660.736 285.567 660.786 285.231 660.885 284.953C660.986 284.674 661.13 284.46 661.318 284.314C661.508 284.166 661.735 284.092 662 284.092C662.265 284.092 662.492 284.166 662.68 284.314C662.869 284.46 663.014 284.674 663.113 284.953C663.214 285.231 663.264 285.567 663.264 285.96C663.264 286.355 663.214 286.692 663.115 286.972C663.016 287.25 662.872 287.462 662.684 287.609C662.495 287.755 662.268 287.828 662 287.828ZM662 287.437C662.265 287.437 662.471 287.309 662.618 287.053C662.765 286.798 662.838 286.433 662.838 285.96C662.838 285.645 662.804 285.377 662.737 285.155C662.671 284.934 662.575 284.765 662.449 284.649C662.325 284.533 662.175 284.475 662 284.475C661.737 284.475 661.532 284.605 661.384 284.864C661.236 285.122 661.162 285.487 661.162 285.96C661.162 286.274 661.195 286.542 661.261 286.762C661.328 286.982 661.423 287.15 661.547 287.265C661.673 287.379 661.824 287.437 662 287.437Z" fill="white"/>
<path id="max" d="M649.222 270.452H651.95V270.857H651.523V270.892C651.669 270.949 651.782 271.041 651.862 271.167C651.944 271.294 651.985 271.446 651.985 271.624C651.985 271.804 651.944 271.953 651.862 272.073C651.782 272.194 651.669 272.288 651.523 272.355V272.384C651.664 272.454 651.776 272.558 651.859 272.698C651.943 272.838 651.985 273.005 651.985 273.2C651.985 273.444 651.909 273.644 651.756 273.799C651.604 273.954 651.368 274.031 651.048 274.031H649.222V273.612H651.048C651.249 273.612 651.393 273.557 651.479 273.447C651.565 273.337 651.609 273.208 651.609 273.058C651.609 272.867 651.551 272.718 651.435 272.613C651.32 272.507 651.174 272.455 650.998 272.455H649.222V272.029H651.09C651.245 272.029 651.37 271.978 651.465 271.878C651.561 271.777 651.609 271.647 651.609 271.489C651.609 271.38 651.58 271.278 651.522 271.183C651.464 271.09 651.383 271.014 651.28 270.956C651.178 270.899 651.061 270.871 650.927 270.871H649.222V270.452ZM649.158 275.6C649.158 275.427 649.191 275.27 649.256 275.13C649.322 274.989 649.418 274.877 649.542 274.794C649.667 274.711 649.819 274.67 649.996 274.67C650.153 274.67 650.279 274.701 650.376 274.762C650.475 274.824 650.552 274.906 650.607 275.009C650.663 275.112 650.704 275.226 650.731 275.35C650.76 275.475 650.782 275.601 650.799 275.728C650.82 275.894 650.836 276.028 650.847 276.131C650.859 276.235 650.878 276.311 650.905 276.358C650.933 276.407 650.98 276.431 651.048 276.431H651.062C651.237 276.431 651.373 276.383 651.47 276.287C651.567 276.193 651.616 276.049 651.616 275.856C651.616 275.656 651.572 275.499 651.484 275.385C651.397 275.272 651.303 275.192 651.204 275.146L651.346 274.748C651.512 274.819 651.641 274.914 651.733 275.032C651.826 275.152 651.891 275.282 651.928 275.423C651.966 275.565 651.985 275.704 651.985 275.842C651.985 275.929 651.974 276.03 651.953 276.143C651.933 276.258 651.891 276.369 651.827 276.476C651.763 276.583 651.667 276.673 651.538 276.744C651.409 276.815 651.236 276.85 651.019 276.85H649.222V276.431H649.592V276.41C649.532 276.381 649.469 276.334 649.402 276.268C649.334 276.201 649.277 276.113 649.229 276.003C649.182 275.893 649.158 275.759 649.158 275.6ZM649.535 275.664C649.535 275.83 649.567 275.969 649.632 276.083C649.697 276.198 649.782 276.284 649.885 276.342C649.987 276.402 650.096 276.431 650.209 276.431H650.593C650.572 276.413 650.552 276.374 650.534 276.314C650.518 276.255 650.503 276.186 650.49 276.108C650.478 276.031 650.467 275.956 650.458 275.882C650.45 275.81 650.443 275.752 650.437 275.707C650.423 275.598 650.399 275.496 650.367 275.401C650.337 275.308 650.29 275.232 650.227 275.174C650.166 275.117 650.082 275.089 649.975 275.089C649.829 275.089 649.719 275.143 649.645 275.25C649.571 275.359 649.535 275.497 649.535 275.664ZM651.95 277.927L650.834 278.581L651.95 279.234V279.717L650.586 278.837L649.222 279.717V279.234L650.28 278.581L649.222 277.927V277.445L650.586 278.311L651.95 277.445V277.927Z" fill="white"/>
<path id="Line 5_3" d="M649.036 262.036L651.393 264.393" stroke="white" stroke-width="0.66"/>
<path id="Line 5_4" d="M662 256.667L662 260" stroke="white" stroke-width="0.66"/>
<path id="Line 5_5" d="M674.964 262.036L672.607 264.393" stroke="white" stroke-width="0.66"/>
<path id="Line 5_6" d="M680.333 275L677 275" stroke="white" stroke-width="0.66"/>
<path id="Line 5_7" d="M674.964 287.964L672.607 285.607" stroke="white" stroke-width="0.66"/>
</g>
</g>
<g id="pumpSwitch">
<path id="switchBack" d="M685 274.5H731C731.276 274.5 731.5 274.724 731.5 275V293.728C731.5 294.004 731.276 294.228 731 294.228H685C684.724 294.228 684.5 294.004 684.5 293.728V275C684.5 274.724 684.724 274.5 685 274.5Z" fill="#1C1C1C" stroke="black"/>
<rect id="pumpSwitchDown" x="686.182" y="276.182" width="43.6364" height="16.3636" fill="#7B0101"/>
<g id="pumpSwitchOn">
<path d="M688.364 275.091L708 276.215V292.545L688.364 293.636V275.091Z" fill="#D90000"/>
<path d="M686.182 276.215L688.364 275.091V293.636L686.182 292.545V276.215Z" fill="#7B0101"/>
</g>
<g id="pumpSwitchOff">
<path d="M727.636 275.091L708 276.182V292.545L727.636 293.636V275.091Z" fill="#D90000"/>
<path d="M729.818 276.182L727.636 275.091V293.636L729.818 292.545V276.182Z" fill="#7B0101"/>
</g>
<path id="switchSymbol" d="M719.432 278.955C722.389 278.955 724.818 281.271 724.818 284.165C724.818 287.06 722.389 289.376 719.432 289.376C716.475 289.376 714.046 287.06 714.045 284.165C714.045 281.271 716.475 278.955 719.432 278.955Z" stroke="#EED5D5"/>
<line id="switchSymbol_2" x1="696.5" y1="277.273" x2="696.5" y2="290.463" stroke="#EED5D5"/>
</g>
<g id="fanSwitch">
<path id="switchBack_2" d="M231 278.5H277C277.276 278.5 277.5 278.724 277.5 279V297.728C277.5 298.004 277.276 298.228 277 298.228H231C230.724 298.228 230.5 298.004 230.5 297.728V279C230.5 278.724 230.724 278.5 231 278.5Z" fill="#1C1C1C" stroke="black"/>
<rect id="fanSwitchDown" x="232.182" y="280.182" width="43.6364" height="16.3636" fill="#7B0101"/>
<g id="fanSwitchOn">
<path d="M234.364 279.091L254 280.215V296.545L234.364 297.636V279.091Z" fill="#D90000"/>
<path d="M232.182 280.215L234.364 279.091V297.636L232.182 296.545V280.215Z" fill="#7B0101"/>
</g>
<g id="fanSwitchOff">
<path d="M273.636 279.091L254 280.182V296.545L273.636 297.636V279.091Z" fill="#D90000"/>
<path d="M275.818 280.182L273.636 279.091V297.636L275.818 296.545V280.182Z" fill="#7B0101"/>
</g>
<path id="switchSymbol_3" d="M265.432 282.955C268.389 282.955 270.818 285.271 270.818 288.165C270.818 291.06 268.389 293.376 265.432 293.376C262.475 293.376 260.046 291.06 260.045 288.165C260.045 285.271 262.475 282.955 265.432 282.955Z" stroke="#EED5D5"/>
<line id="switchSymbol_4" x1="242.5" y1="281.273" x2="242.5" y2="294.463" stroke="#EED5D5"/>
</g>
</g>
<defs>
<filter id="filter0_i_1_2" x="149.5" y="50.5" width="200" height="3" filterUnits="userSpaceOnUse" color-interpolation-filters="sRGB">
<feFlood flood-opacity="0" result="BackgroundImageFix"/>
<feBlend mode="normal" in="SourceGraphic" in2="BackgroundImageFix" result="shape"/>
<feColorMatrix in="SourceAlpha" type="matrix" values="0 0 0 0 0 0 0 0 0 0 0 0 0 0 0 0 0 0 127 0" result="hardAlpha"/>
<feOffset/>
<feGaussianBlur stdDeviation="1.5"/>
<feComposite in2="hardAlpha" operator="arithmetic" k2="-1" k3="1"/>
<feColorMatrix type="matrix" values="0 0 0 0 0 0 0 0 0 0 0 0 0 0 0 0 0 0 1 0"/>
<feBlend mode="normal" in2="shape" result="effect1_innerShadow_1_2"/>
</filter>
</defs>
</svg>
