<svg width="953" height="364" viewBox="0 0 953 364" fill="none" xmlns="http://www.w3.org/2000/svg" xmlns:xlink="http://www.w3.org/1999/xlink">
<g id="crossExchanger">
<rect width="953" height="364" fill="white"/>
<g id="pump">
<path id="pumpBack" d="M525.5 216.5H734.5C739.747 216.5 744 220.753 744 226V254C744 259.247 739.747 263.5 734.5 263.5H525.5C520.253 263.5 516 259.247 516 254V226C516 220.917 519.991 216.767 525.011 216.513L525.5 216.5Z" fill="#474747" stroke="black"/>
<path id="pumpFace" d="M525.5 241.5H734.5C739.747 241.5 744 245.753 744 251V303C744 308.247 739.747 312.5 734.5 312.5H525.5C520.253 312.5 516 308.247 516 303V251C516 245.917 519.991 241.767 525.011 241.513L525.5 241.5Z" fill="#656565" stroke="black"/>
<g id="pumpBody">
<rect id="Rectangle 8" x="740.5" y="306.5" width="221" height="60" rx="9.5" transform="rotate(180 740.5 306.5)" fill="#3F3E3E" stroke="black"/>
<rect id="Rectangle 9" x="739" y="301" width="104" height="49" rx="10" transform="rotate(180 739 301)" fill="#5B5B5B"/>
<rect id="displayScreen" x="527.5" y="260.5" width="102" height="33" rx="1.5" fill="#3C412C" stroke="black"/>
</g>
<g id="pumpCtrl">
<g id="ctrlBase">
<rect id="Rectangle 5" x="639.5" y="254.5" width="95.3557" height="44.4999" rx="3.5" fill="#7D7D7D" stroke="black"/>
<rect id="Rectangle 6" x="642.569" y="259.056" width="89.2182" height="35.3888" rx="4" fill="#989898"/>
</g>
<g id="pumpLabel">
<rect id="Rectangle 7" x="689" y="257.592" width="40.0165" height="15.5658" fill="#F6F6F6"/>
<path id="Pump" d="M692.011 267.197V258.47H695.122C695.801 258.47 696.363 258.594 696.809 258.841C697.255 259.088 697.589 259.426 697.811 259.855C698.032 260.281 698.143 260.761 698.143 261.295C698.143 261.832 698.031 262.315 697.806 262.744C697.585 263.17 697.25 263.508 696.801 263.758C696.355 264.006 695.794 264.129 695.117 264.129H692.978V263.013H694.998C695.427 263.013 695.775 262.939 696.042 262.791C696.309 262.641 696.505 262.436 696.63 262.177C696.755 261.919 696.818 261.625 696.818 261.295C696.818 260.966 696.755 260.673 696.63 260.418C696.505 260.162 696.308 259.962 696.038 259.817C695.771 259.672 695.419 259.599 694.981 259.599H693.328V267.197H692.011ZM703.731 264.483V260.652H705.009V267.197H703.756V266.064H703.688C703.538 266.413 703.296 266.704 702.964 266.937C702.634 267.168 702.224 267.283 701.732 267.283C701.312 267.283 700.94 267.19 700.616 267.006C700.295 266.818 700.042 266.541 699.857 266.175C699.675 265.808 699.584 265.355 699.584 264.815V260.652H700.859V264.662C700.859 265.108 700.982 265.463 701.229 265.727C701.476 265.991 701.798 266.123 702.192 266.123C702.431 266.123 702.668 266.064 702.904 265.945C703.143 265.825 703.34 265.645 703.496 265.403C703.655 265.162 703.734 264.855 703.731 264.483ZM706.721 267.197V260.652H707.944V261.717H708.025C708.161 261.356 708.385 261.075 708.694 260.873C709.004 260.669 709.375 260.567 709.806 260.567C710.244 260.567 710.61 260.669 710.906 260.873C711.204 261.078 711.424 261.359 711.566 261.717H711.635C711.791 261.368 712.039 261.089 712.38 260.882C712.721 260.672 713.127 260.567 713.599 260.567C714.193 260.567 714.677 260.753 715.052 261.125C715.43 261.497 715.619 262.058 715.619 262.808V267.197H714.345V262.927C714.345 262.484 714.224 262.163 713.983 261.964C713.741 261.766 713.453 261.666 713.117 261.666C712.703 261.666 712.38 261.794 712.15 262.05C711.92 262.302 711.805 262.628 711.805 263.025V267.197H710.535V262.847C710.535 262.491 710.424 262.206 710.203 261.99C709.981 261.774 709.693 261.666 709.338 261.666C709.096 261.666 708.873 261.73 708.669 261.858C708.467 261.983 708.304 262.158 708.179 262.382C708.056 262.606 707.995 262.866 707.995 263.162V267.197H706.721ZM717.327 269.652V260.652H718.571V261.713H718.677C718.751 261.577 718.858 261.419 718.997 261.24C719.136 261.061 719.329 260.905 719.577 260.771C719.824 260.635 720.15 260.567 720.557 260.567C721.085 260.567 721.557 260.7 721.972 260.967C722.386 261.234 722.712 261.619 722.947 262.122C723.186 262.625 723.305 263.23 723.305 263.937C723.305 264.645 723.187 265.251 722.952 265.757C722.716 266.26 722.392 266.648 721.98 266.92C721.568 267.19 721.098 267.325 720.57 267.325C720.172 267.325 719.847 267.258 719.594 267.125C719.344 266.991 719.148 266.835 719.006 266.656C718.864 266.477 718.754 266.318 718.677 266.179H718.601V269.652H717.327ZM718.575 263.925C718.575 264.385 718.642 264.788 718.775 265.135C718.909 265.481 719.102 265.753 719.355 265.949C719.608 266.142 719.918 266.239 720.284 266.239C720.665 266.239 720.983 266.138 721.239 265.936C721.494 265.731 721.687 265.454 721.818 265.105C721.952 264.756 722.018 264.362 722.018 263.925C722.018 263.493 721.953 263.105 721.822 262.761C721.695 262.418 721.501 262.146 721.243 261.947C720.987 261.748 720.668 261.649 720.284 261.649C719.915 261.649 719.602 261.744 719.347 261.935C719.094 262.125 718.902 262.391 718.771 262.731C718.641 263.072 718.575 263.47 718.575 263.925Z" fill="black"/>
</g>
<g id="Switch">
<rect id="switchBack" x="687.5" y="275.5" width="41.8247" height="17.537" rx="0.5" fill="#1C1C1C" stroke="black"/>
<rect id="switchOn" x="688.784" y="276.685" width="19.628" height="15.1666" fill="#D90000"/>
<rect id="switchOff" x="708.412" y="276.685" width="19.628" height="15.1666" fill="#7B0101"/>
<path id="Ellipse 6" d="M720.011 279.556C722.723 279.556 724.972 281.639 724.972 284.268C724.972 286.898 722.723 288.981 720.011 288.981C717.298 288.981 715.05 286.898 715.05 284.268C715.05 281.639 717.298 279.556 720.011 279.556Z" stroke="#EED5D5"/>
<line id="Line 1" x1="696.422" y1="278.37" x2="696.422" y2="290.167" stroke="#EED5D5"/>
</g>
<g id="flowDial">
<circle id="dialBody" cx="664" cy="276.999" r="17.5" fill="#222222" stroke="black"/>
<g id="minorTicks">
<path id="Line 4" d="M647.703 274.418L649.678 274.731" stroke="white" stroke-width="0.25"/>
<path id="Line 4_2" d="M648.307 271.901L650.21 272.519" stroke="white" stroke-width="0.25"/>
<path id="Line 4_3" d="M649.298 269.509L651.08 270.417" stroke="white" stroke-width="0.25"/>
<path id="Line 4_4" d="M650.651 267.301L652.269 268.477" stroke="white" stroke-width="0.25"/>
<path id="Line 4_5" d="M654.301 263.651L655.477 265.269" stroke="white" stroke-width="0.25"/>
<path id="Line 4_6" d="M656.509 262.298L657.417 264.08" stroke="white" stroke-width="0.25"/>
<path id="Line 4_7" d="M658.901 261.307L659.519 263.209" stroke="white" stroke-width="0.25"/>
<path id="Line 4_8" d="M661.419 260.703L661.732 262.678" stroke="white" stroke-width="0.25"/>
<path id="Line 4_9" d="M666.581 260.703L666.268 262.678" stroke="white" stroke-width="0.25"/>
<path id="Line 4_10" d="M669.099 261.307L668.481 263.209" stroke="white" stroke-width="0.25"/>
<path id="Line 4_11" d="M671.491 262.298L670.583 264.08" stroke="white" stroke-width="0.25"/>
<path id="Line 4_12" d="M673.698 263.651L672.523 265.269" stroke="white" stroke-width="0.25"/>
<path id="Line 4_13" d="M677.349 267.301L675.731 268.477" stroke="white" stroke-width="0.25"/>
<path id="Line 4_14" d="M678.701 269.509L676.919 270.417" stroke="white" stroke-width="0.25"/>
<path id="Line 4_15" d="M679.692 271.901L677.79 272.519" stroke="white" stroke-width="0.25"/>
<path id="Line 4_16" d="M680.297 274.418L678.321 274.731" stroke="white" stroke-width="0.25"/>
<path id="Line 4_17" d="M680.297 279.581L678.321 279.268" stroke="white" stroke-width="0.25"/>
<path id="Line 4_18" d="M679.692 282.098L677.79 281.48" stroke="white" stroke-width="0.25"/>
<path id="Line 4_19" d="M678.701 284.49L676.919 283.582" stroke="white" stroke-width="0.25"/>
<path id="Line 4_20" d="M677.349 286.698L675.731 285.522" stroke="white" stroke-width="0.25"/>
<path id="Line 4_21" d="M673.698 290.348L672.523 288.73" stroke="white" stroke-width="0.25"/>
<path id="Line 4_22" d="M671.491 291.701L670.583 289.919" stroke="white" stroke-width="0.25"/>
<path id="Line 4_23" d="M669.099 292.692L668.481 290.79" stroke="white" stroke-width="0.25"/>
<path id="Line 4_24" d="M666.581 293.296L666.268 291.321" stroke="white" stroke-width="0.25"/>
</g>
<g id="majorTicks">
<path id="Line 5" d="M664 293.499V290.499" stroke="white" stroke-width="0.25"/>
<path id="Line 5_2" d="M647.5 276.999L650.5 276.999" stroke="white" stroke-width="0.25"/>
<path id="Line 5_3" d="M652.333 265.332L654.454 267.454" stroke="white" stroke-width="0.25"/>
<path id="Line 5_4" d="M664 260.499L664 263.499" stroke="white" stroke-width="0.25"/>
<path id="Line 5_5" d="M675.667 265.332L673.546 267.454" stroke="white" stroke-width="0.25"/>
<path id="Line 5_6" d="M680.5 276.999L677.5 276.999" stroke="white" stroke-width="0.25"/>
<path id="Line 5_7" d="M675.667 288.667L673.546 286.545" stroke="white" stroke-width="0.25"/>
</g>
</g>
</g>
<path id="pumpNozzle" d="M508.5 266.5H515V287.5H508.5C506.567 287.5 505 285.933 505 284V270C505 268.067 506.567 266.5 508.5 266.5Z" fill="#2F2F2F" stroke="black"/>
</g>
<g id="Tank">
<g id="back">
<g id="tankBackground">
<path id="Ellipse 3" d="M628.5 212.5C656.099 212.5 681.075 214.01 699.144 216.449C708.181 217.669 715.47 219.12 720.489 220.722C723.002 221.524 724.917 222.354 726.193 223.196C727.494 224.054 728 224.834 728 225.5C728 226.166 727.494 226.946 726.193 227.804C724.917 228.646 723.002 229.476 720.489 230.278C715.47 231.88 708.181 233.331 699.144 234.551C681.075 236.99 656.099 238.5 628.5 238.5C600.901 238.5 575.925 236.99 557.856 234.551C548.819 233.331 541.53 231.88 536.511 230.278C533.998 229.476 532.083 228.646 530.807 227.804C529.506 226.946 529 226.166 529 225.5C529 224.834 529.506 224.054 530.807 223.196C532.083 222.354 533.998 221.524 536.511 220.722C541.53 219.12 548.819 217.669 557.856 216.449C575.925 214.01 600.901 212.5 628.5 212.5Z" fill="#B7B7B7" stroke="black"/>
<g id="Rectangle 2">
<mask id="path-49-inside-1_1_2" fill="white">
<path d="M528.5 209H728.5V226H528.5V209Z"/>
</mask>
<path d="M528.5 209H728.5V226H528.5V209Z" fill="#B7B7B7"/>
<path d="M728.5 209H727.5V226H728.5H729.5V209H728.5ZM528.5 226H529.5V209H528.5H527.5V226H528.5Z" fill="black" mask="url(#path-49-inside-1_1_2)"/>
</g>
<path id="Ellipse 2" d="M628.5 197.5C656.099 197.5 681.075 199.01 699.144 201.449C708.181 202.669 715.47 204.12 720.489 205.722C723.002 206.524 724.917 207.354 726.193 208.196C727.494 209.054 728 209.834 728 210.5C728 211.166 727.494 211.946 726.193 212.804C724.917 213.646 723.002 214.476 720.489 215.278C715.47 216.88 708.181 218.331 699.144 219.551C681.075 221.99 656.099 223.5 628.5 223.5C600.901 223.5 575.925 221.99 557.856 219.551C548.819 218.331 541.53 216.88 536.511 215.278C533.998 214.476 532.083 213.646 530.807 212.804C529.506 211.946 529 211.166 529 210.5C529 209.834 529.506 209.054 530.807 208.196C532.083 207.354 533.998 206.524 536.511 205.722C541.53 204.12 548.819 202.669 557.856 201.449C575.925 199.01 600.901 197.5 628.5 197.5Z" fill="#B7B7B7" stroke="black"/>
<g id="Rectangle 1">
<mask id="path-52-inside-2_1_2" fill="white">
<path d="M528.5 99H728.5V211H528.5V99Z"/>
</mask>
<path d="M728.5 99H727.5V211H728.5H729.5V99H728.5ZM528.5 211H529.5V99H528.5H527.5V211H528.5Z" fill="black" mask="url(#path-52-inside-2_1_2)"/>
</g>
<g id="ioHole">
<path id="Ellipse 4" d="M684.5 207.5C686.372 207.5 688.043 207.881 689.227 208.473C690.44 209.079 691 209.825 691 210.5C691 211.175 690.44 211.921 689.227 212.527C688.043 213.119 686.372 213.5 684.5 213.5C682.628 213.5 680.957 213.119 679.773 212.527C678.56 211.921 678 211.175 678 210.5C678 209.825 678.56 209.079 679.773 208.473C680.957 207.881 682.628 207.5 684.5 207.5Z" fill="#707070" stroke="black"/>
<path id="Ellipse 5" d="M684.5 209.5C685.56 209.5 686.499 209.662 687.153 209.907C687.482 210.031 687.713 210.166 687.854 210.29C687.994 210.415 688 210.487 688 210.5C688 210.513 687.994 210.585 687.854 210.71C687.713 210.834 687.482 210.969 687.153 211.093C686.499 211.338 685.56 211.5 684.5 211.5C683.44 211.5 682.501 211.338 681.847 211.093C681.518 210.969 681.287 210.834 681.146 210.71C681.006 210.585 681 210.513 681 210.5C681 210.487 681.006 210.415 681.146 210.29C681.287 210.166 681.518 210.031 681.847 209.907C682.501 209.662 683.44 209.5 684.5 209.5Z" fill="#222222" stroke="black"/>
</g>
</g>
<path id="tankWaterTopBack" d="M628.5 135C683.728 135 728.5 141.044 728.5 148.5C728.5 148.667 728.476 148.834 728.432 149H528.568C528.524 148.834 528.5 148.667 528.5 148.5C528.5 141.044 573.272 135 628.5 135Z" fill="#2F7CEF" fill-opacity="0.6"/>
<path id="ouletStream" d="M547 101.5C544.333 101.5 541.667 101.5 539 101.5C539.155 102.317 539.355 103.133 539.558 103.95C540.009 105.763 540.474 107.576 540.5 109.389C540.685 122.276 540.817 135.163 540.97 148.05C540.98 148.867 540.99 149.683 541 150.5C542.333 150.5 543.667 150.5 545 150.5C545.01 149.683 545.02 148.867 545.03 148.05C545.183 135.163 545.315 122.276 545.5 109.389C545.526 107.576 545.991 105.763 546.442 103.95C546.645 103.133 546.845 102.317 547 101.5Z" fill="#2F7CEF" fill-opacity="0.6"/>
<path id="tankRimOutlineBack" d="M628.5 86.5C656.099 86.5 681.075 88.01 699.144 90.4492C708.181 91.6693 715.47 93.1197 720.489 94.7217C723.002 95.5238 724.917 96.3544 726.193 97.1963C727.494 98.0542 728 98.834 728 99.5C728 100.166 727.494 100.946 726.193 101.804C724.917 102.646 723.002 103.476 720.489 104.278C715.47 105.88 708.181 107.331 699.144 108.551C681.075 110.99 656.099 112.5 628.5 112.5C600.901 112.5 575.925 110.99 557.856 108.551C548.819 107.331 541.53 105.88 536.511 104.278C533.998 103.476 532.083 102.646 530.807 101.804C529.506 100.946 529 100.166 529 99.5C529 98.834 529.506 98.0542 530.807 97.1963C532.083 96.3544 533.998 95.5238 536.511 94.7217C541.53 93.1197 548.819 91.6693 557.856 90.4492C575.925 88.01 600.901 86.5 628.5 86.5Z" stroke="black"/>
<path id="waterTopOutlineBack" d="M628.5 135.5C656.099 135.5 681.075 137.01 699.144 139.449C708.181 140.669 715.47 142.12 720.489 143.722C723.002 144.524 724.917 145.354 726.193 146.196C727.494 147.054 728 147.834 728 148.5C728 149.166 727.494 149.946 726.193 150.804C724.917 151.646 723.002 152.476 720.489 153.278C715.47 154.88 708.181 156.331 699.144 157.551C681.075 159.99 656.099 161.5 628.5 161.5C600.901 161.5 575.925 159.99 557.856 157.551C548.819 156.331 541.53 154.88 536.511 153.278C533.998 152.476 532.083 151.646 530.807 150.804C529.506 149.946 529 149.166 529 148.5C529 147.834 529.506 147.054 530.807 146.196C532.083 145.354 533.998 144.524 536.511 143.722C541.53 142.12 548.819 140.669 557.856 139.449C575.925 137.01 600.901 135.5 628.5 135.5Z" stroke="black"/>
</g>
<g id="thermStick">
<path id="Rectangle 20" d="M701.5 92.5V210C701.5 210.828 700.828 211.5 700 211.5C699.172 211.5 698.5 210.828 698.5 210V92.5H701.5Z" fill="#D9D9D9" stroke="black"/>
<path id="Rectangle 21" d="M700 32.5C702.485 32.5 704.5 34.5147 704.5 37V90C704.5 90.8284 703.828 91.5 703 91.5H697C696.172 91.5 695.5 90.8284 695.5 90V37C695.5 34.5147 697.515 32.5 700 32.5Z" fill="#636363" stroke="black"/>
</g>
<g id="front">
<path id="waterBottom" d="M727.434 210C727.477 210.166 727.5 210.333 727.5 210.5C727.5 216.5 687.5 223 628.432 223C567 223 529.5 216 529.5 210.5C529.5 210.333 529.523 210.166 529.566 210H727.434Z" fill="#2F7CEF" fill-opacity="0.6"/>
<rect id="tankWaterRect" x="529.5" y="149" width="198" height="61" fill="#2F7CEF" fill-opacity="0.6"/>
<path id="tankTopRim" d="M728.432 99C728.476 99.166 728.5 99.3325 728.5 99.5C728.5 106.956 683.728 113 628.5 113C573.272 113 528.5 106.956 528.5 99.5C528.5 99.3325 528.524 99.166 528.568 99H529.64C529.539 99.1949 529.5 99.362 529.5 99.5C529.5 99.9 529.814 100.549 531.082 101.386C532.302 102.191 534.166 103.005 536.662 103.802C541.64 105.391 548.896 106.836 557.923 108.055C575.963 110.49 600.916 112 628.5 112C656.084 112 681.037 110.49 699.077 108.055C708.104 106.836 715.36 105.391 720.338 103.802C722.834 103.005 724.698 102.191 725.918 101.386C727.186 100.549 727.5 99.9 727.5 99.5C727.5 99.362 727.461 99.1949 727.36 99H728.432Z" fill="black"/>
<path id="waterTopOutlineFront" d="M728.432 148C728.476 148.166 728.5 148.333 728.5 148.5C728.5 155.956 683.728 162 628.5 162C573.272 162 528.5 155.956 528.5 148.5C528.5 148.333 528.524 148.166 528.568 148H529.64C529.539 148.195 529.5 148.362 529.5 148.5C529.5 148.9 529.814 149.549 531.082 150.386C532.302 151.191 534.166 152.005 536.662 152.802C541.64 154.391 548.896 155.836 557.923 157.055C575.963 159.49 600.916 161 628.5 161C656.084 161 681.037 159.49 699.077 157.055C708.104 155.836 715.36 154.391 720.338 152.802C722.834 152.005 724.698 151.191 725.918 150.386C727.186 149.549 727.5 148.9 727.5 148.5C727.5 148.362 727.461 148.195 727.36 148H728.432Z" fill="black"/>
</g>
</g>
<g id="fan">
<g id="fanBackground">
<path id="Subtract" d="M349.5 241H249.5C304.729 241 349.5 196.228 349.5 141C349.5 85.7715 304.729 41 249.5 41C194.272 41 149.5 85.7715 149.5 141C149.5 196.228 194.272 241 249.5 241H149.5V41H349.5V241Z" fill="#121212"/>
<circle id="Ellipse 8" cx="249.5" cy="141" r="80" stroke="#121212" stroke-width="4"/>
<circle id="Ellipse 9" cx="249.5" cy="141" r="50" stroke="#121212" stroke-width="4"/>
<circle id="Ellipse 10" cx="249.5" cy="141" r="25" fill="#121212"/>
</g>
<g id="fanRotate">
<path id="blade" d="M234.991 86.3278C239.376 100.672 242.612 116.369 239.655 118.842L253.361 118.879C257.862 109.66 267.771 96.1741 268.461 76.0948C269.043 59.1858 264.124 45.1222 254.969 42.0521C246.813 39.3172 232.694 41.0196 216.389 46.0046C222.747 52.9491 231.482 74.8521 234.991 86.3278Z" fill="#121212"/>
<path id="blade_2" d="M194.9 126.22C209.516 129.594 224.728 134.641 225.39 138.437L232.276 126.587C226.543 118.079 219.818 102.755 202.774 92.1167C188.421 83.1584 173.782 80.3864 166.546 86.7803C160.099 92.4761 154.514 105.555 150.678 122.168C159.872 120.134 183.208 123.52 194.9 126.22Z" fill="#121212"/>
<path id="blade_3" d="M209.403 180.885C219.633 169.914 231.609 159.264 235.228 160.588L228.408 148.7C218.174 149.411 201.54 147.573 183.805 157.015C168.871 164.965 159.151 176.257 161.07 185.721C162.779 194.152 171.313 205.528 183.783 217.156C186.618 208.178 201.219 189.661 209.403 180.885Z" fill="#121212"/>
<path id="blade_4" d="M263.995 195.658C259.61 181.313 256.374 165.617 259.331 163.144L245.625 163.107C241.124 172.325 231.215 185.812 230.524 205.891C229.943 222.8 234.862 236.864 244.017 239.934C252.173 242.669 266.292 240.966 282.597 235.981C276.239 229.037 267.504 207.134 263.995 195.658Z" fill="#121212"/>
<path id="blade_5" d="M304.085 155.766C289.47 152.392 274.258 147.345 273.595 143.549L266.71 155.399C272.443 163.907 279.168 179.231 296.212 189.869C310.565 198.827 325.204 201.599 332.44 195.206C338.887 189.51 344.472 176.431 348.307 159.818C339.114 161.852 315.778 158.466 304.085 155.766Z" fill="#121212"/>
<path id="blade_6" d="M289.583 101.101C279.353 112.071 267.377 122.722 263.758 121.398L270.578 133.286C280.812 132.574 297.446 134.412 315.181 124.971C330.115 117.02 339.835 105.729 337.916 96.2647C336.207 87.834 327.673 76.4576 315.203 64.8295C312.368 73.8082 297.767 92.3248 289.583 101.101Z" fill="#121212"/>
</g>
</g>
<g id="heatExchanger">
<g id="fins">
<g id="fins_inner" data-figma-trr="l16u1-0f">
<g id="finArray">
<g id="hexTube" filter="url(#filter0_i_1_2)">
<line x1="149.5" y1="52" x2="349.5" y2="52" stroke="#7B7B7B" stroke-width="3"/>
</g>
<g id="fins_2">
<path id="Vector 1" d="M149.5 50C150.5 50 150.5 45 150.5 45.5C150.5 46 150.5 41 151.5 41C152.3 41 152.5 44.8333 152.5 45.5C152.5 46.1667 152.7 50 153.5 50" stroke="#252525" stroke-width="1.5"/>
<path id="Vector 1_2" d="M153.5 50C154.5 50 154.5 45 154.5 45.5C154.5 46 154.5 41 155.5 41C156.3 41 156.5 44.8333 156.5 45.5C156.5 46.1667 156.7 50 157.5 50" stroke="#252525" stroke-width="1.5"/>
<path id="Vector 1_3" d="M157.5 50C158.5 50 158.5 45 158.5 45.5C158.5 46 158.5 41 159.5 41C160.3 41 160.5 44.8333 160.5 45.5C160.5 46.1667 160.7 50 161.5 50" stroke="#252525" stroke-width="1.5"/>
<path id="Vector 1_4" d="M161.5 50C162.5 50 162.5 45 162.5 45.5C162.5 46 162.5 41 163.5 41C164.3 41 164.5 44.8333 164.5 45.5C164.5 46.1667 164.7 50 165.5 50" stroke="#252525" stroke-width="1.5"/>
<path id="Vector 1_5" d="M165.5 50C166.5 50 166.5 45 166.5 45.5C166.5 46 166.5 41 167.5 41C168.3 41 168.5 44.8333 168.5 45.5C168.5 46.1667 168.7 50 169.5 50" stroke="#252525" stroke-width="1.5"/>
<path id="Vector 1_6" d="M169.5 50C170.5 50 170.5 45 170.5 45.5C170.5 46 170.5 41 171.5 41C172.3 41 172.5 44.8333 172.5 45.5C172.5 46.1667 172.7 50 173.5 50" stroke="#252525" stroke-width="1.5"/>
<path id="Vector 1_7" d="M173.5 50C174.5 50 174.5 45 174.5 45.5C174.5 46 174.5 41 175.5 41C176.3 41 176.5 44.8333 176.5 45.5C176.5 46.1667 176.7 50 177.5 50" stroke="#252525" stroke-width="1.5"/>
<path id="Vector 1_8" d="M177.5 50C178.5 50 178.5 45 178.5 45.5C178.5 46 178.5 41 179.5 41C180.3 41 180.5 44.8333 180.5 45.5C180.5 46.1667 180.7 50 181.5 50" stroke="#252525" stroke-width="1.5"/>
<path id="Vector 1_9" d="M181.5 50C182.5 50 182.5 45 182.5 45.5C182.5 46 182.5 41 183.5 41C184.3 41 184.5 44.8333 184.5 45.5C184.5 46.1667 184.7 50 185.5 50" stroke="#252525" stroke-width="1.5"/>
<path id="Vector 1_10" d="M185.5 50C186.5 50 186.5 45 186.5 45.5C186.5 46 186.5 41 187.5 41C188.3 41 188.5 44.8333 188.5 45.5C188.5 46.1667 188.7 50 189.5 50" stroke="#252525" stroke-width="1.5"/>
<path id="Vector 1_11" d="M189.5 50C190.5 50 190.5 45 190.5 45.5C190.5 46 190.5 41 191.5 41C192.3 41 192.5 44.8333 192.5 45.5C192.5 46.1667 192.7 50 193.5 50" stroke="#252525" stroke-width="1.5"/>
<path id="Vector 1_12" d="M193.5 50C194.5 50 194.5 45 194.5 45.5C194.5 46 194.5 41 195.5 41C196.3 41 196.5 44.8333 196.5 45.5C196.5 46.1667 196.7 50 197.5 50" stroke="#252525" stroke-width="1.5"/>
<path id="Vector 1_13" d="M197.5 50C198.5 50 198.5 45 198.5 45.5C198.5 46 198.5 41 199.5 41C200.3 41 200.5 44.8333 200.5 45.5C200.5 46.1667 200.7 50 201.5 50" stroke="#252525" stroke-width="1.5"/>
<path id="Vector 1_14" d="M201.5 50C202.5 50 202.5 45 202.5 45.5C202.5 46 202.5 41 203.5 41C204.3 41 204.5 44.8333 204.5 45.5C204.5 46.1667 204.7 50 205.5 50" stroke="#252525" stroke-width="1.5"/>
<path id="Vector 1_15" d="M205.5 50C206.5 50 206.5 45 206.5 45.5C206.5 46 206.5 41 207.5 41C208.3 41 208.5 44.8333 208.5 45.5C208.5 46.1667 208.7 50 209.5 50" stroke="#252525" stroke-width="1.5"/>
<path id="Vector 1_16" d="M209.5 50C210.5 50 210.5 45 210.5 45.5C210.5 46 210.5 41 211.5 41C212.3 41 212.5 44.8333 212.5 45.5C212.5 46.1667 212.7 50 213.5 50" stroke="#252525" stroke-width="1.5"/>
<path id="Vector 1_17" d="M213.5 50C214.5 50 214.5 45 214.5 45.5C214.5 46 214.5 41 215.5 41C216.3 41 216.5 44.8333 216.5 45.5C216.5 46.1667 216.7 50 217.5 50" stroke="#252525" stroke-width="1.5"/>
<path id="Vector 1_18" d="M217.5 50C218.5 50 218.5 45 218.5 45.5C218.5 46 218.5 41 219.5 41C220.3 41 220.5 44.8333 220.5 45.5C220.5 46.1667 220.7 50 221.5 50" stroke="#252525" stroke-width="1.5"/>
<path id="Vector 1_19" d="M221.5 50C222.5 50 222.5 45 222.5 45.5C222.5 46 222.5 41 223.5 41C224.3 41 224.5 44.8333 224.5 45.5C224.5 46.1667 224.7 50 225.5 50" stroke="#252525" stroke-width="1.5"/>
<path id="Vector 1_20" d="M225.5 50C226.5 50 226.5 45 226.5 45.5C226.5 46 226.5 41 227.5 41C228.3 41 228.5 44.8333 228.5 45.5C228.5 46.1667 228.7 50 229.5 50" stroke="#252525" stroke-width="1.5"/>
<path id="Vector 1_21" d="M229.5 50C230.5 50 230.5 45 230.5 45.5C230.5 46 230.5 41 231.5 41C232.3 41 232.5 44.8333 232.5 45.5C232.5 46.1667 232.7 50 233.5 50" stroke="#252525" stroke-width="1.5"/>
<path id="Vector 1_22" d="M233.5 50C234.5 50 234.5 45 234.5 45.5C234.5 46 234.5 41 235.5 41C236.3 41 236.5 44.8333 236.5 45.5C236.5 46.1667 236.7 50 237.5 50" stroke="#252525" stroke-width="1.5"/>
<path id="Vector 1_23" d="M237.5 50C238.5 50 238.5 45 238.5 45.5C238.5 46 238.5 41 239.5 41C240.3 41 240.5 44.8333 240.5 45.5C240.5 46.1667 240.7 50 241.5 50" stroke="#252525" stroke-width="1.5"/>
<path id="Vector 1_24" d="M241.5 50C242.5 50 242.5 45 242.5 45.5C242.5 46 242.5 41 243.5 41C244.3 41 244.5 44.8333 244.5 45.5C244.5 46.1667 244.7 50 245.5 50" stroke="#252525" stroke-width="1.5"/>
<path id="Vector 1_25" d="M245.5 50C246.5 50 246.5 45 246.5 45.5C246.5 46 246.5 41 247.5 41C248.3 41 248.5 44.8333 248.5 45.5C248.5 46.1667 248.7 50 249.5 50" stroke="#252525" stroke-width="1.5"/>
<path id="Vector 1_26" d="M249.5 50C250.5 50 250.5 45 250.5 45.5C250.5 46 250.5 41 251.5 41C252.3 41 252.5 44.8333 252.5 45.5C252.5 46.1667 252.7 50 253.5 50" stroke="#252525" stroke-width="1.5"/>
<path id="Vector 1_27" d="M253.5 50C254.5 50 254.5 45 254.5 45.5C254.5 46 254.5 41 255.5 41C256.3 41 256.5 44.8333 256.5 45.5C256.5 46.1667 256.7 50 257.5 50" stroke="#252525" stroke-width="1.5"/>
<path id="Vector 1_28" d="M257.5 50C258.5 50 258.5 45 258.5 45.5C258.5 46 258.5 41 259.5 41C260.3 41 260.5 44.8333 260.5 45.5C260.5 46.1667 260.7 50 261.5 50" stroke="#252525" stroke-width="1.5"/>
<path id="Vector 1_29" d="M261.5 50C262.5 50 262.5 45 262.5 45.5C262.5 46 262.5 41 263.5 41C264.3 41 264.5 44.8333 264.5 45.5C264.5 46.1667 264.7 50 265.5 50" stroke="#252525" stroke-width="1.5"/>
<path id="Vector 1_30" d="M265.5 50C266.5 50 266.5 45 266.5 45.5C266.5 46 266.5 41 267.5 41C268.3 41 268.5 44.8333 268.5 45.5C268.5 46.1667 268.7 50 269.5 50" stroke="#252525" stroke-width="1.5"/>
<path id="Vector 1_31" d="M269.5 50C270.5 50 270.5 45 270.5 45.5C270.5 46 270.5 41 271.5 41C272.3 41 272.5 44.8333 272.5 45.5C272.5 46.1667 272.7 50 273.5 50" stroke="#252525" stroke-width="1.5"/>
<path id="Vector 1_32" d="M273.5 50C274.5 50 274.5 45 274.5 45.5C274.5 46 274.5 41 275.5 41C276.3 41 276.5 44.8333 276.5 45.5C276.5 46.1667 276.7 50 277.5 50" stroke="#252525" stroke-width="1.5"/>
<path id="Vector 1_33" d="M277.5 50C278.5 50 278.5 45 278.5 45.5C278.5 46 278.5 41 279.5 41C280.3 41 280.5 44.8333 280.5 45.5C280.5 46.1667 280.7 50 281.5 50" stroke="#252525" stroke-width="1.5"/>
<path id="Vector 1_34" d="M281.5 50C282.5 50 282.5 45 282.5 45.5C282.5 46 282.5 41 283.5 41C284.3 41 284.5 44.8333 284.5 45.5C284.5 46.1667 284.7 50 285.5 50" stroke="#252525" stroke-width="1.5"/>
<path id="Vector 1_35" d="M285.5 50C286.5 50 286.5 45 286.5 45.5C286.5 46 286.5 41 287.5 41C288.3 41 288.5 44.8333 288.5 45.5C288.5 46.1667 288.7 50 289.5 50" stroke="#252525" stroke-width="1.5"/>
<path id="Vector 1_36" d="M289.5 50C290.5 50 290.5 45 290.5 45.5C290.5 46 290.5 41 291.5 41C292.3 41 292.5 44.8333 292.5 45.5C292.5 46.1667 292.7 50 293.5 50" stroke="#252525" stroke-width="1.5"/>
<path id="Vector 1_37" d="M293.5 50C294.5 50 294.5 45 294.5 45.5C294.5 46 294.5 41 295.5 41C296.3 41 296.5 44.8333 296.5 45.5C296.5 46.1667 296.7 50 297.5 50" stroke="#252525" stroke-width="1.5"/>
<path id="Vector 1_38" d="M297.5 50C298.5 50 298.5 45 298.5 45.5C298.5 46 298.5 41 299.5 41C300.3 41 300.5 44.8333 300.5 45.5C300.5 46.1667 300.7 50 301.5 50" stroke="#252525" stroke-width="1.5"/>
<path id="Vector 1_39" d="M301.5 50C302.5 50 302.5 45 302.5 45.5C302.5 46 302.5 41 303.5 41C304.3 41 304.5 44.8333 304.5 45.5C304.5 46.1667 304.7 50 305.5 50" stroke="#252525" stroke-width="1.5"/>
<path id="Vector 1_40" d="M305.5 50C306.5 50 306.5 45 306.5 45.5C306.5 46 306.5 41 307.5 41C308.3 41 308.5 44.8333 308.5 45.5C308.5 46.1667 308.7 50 309.5 50" stroke="#252525" stroke-width="1.5"/>
<g id="Repeat group 1">
<g id="Repeat group 1_inner" data-figma-trr="l10u1-0f">
<path id="Vector 2" d="M309.5 50C310.5 50 310.5 45 310.5 45.5C310.5 46 310.5 41 311.5 41C312.3 41 312.5 44.8333 312.5 45.5C312.5 46.1667 312.7 50 313.5 50" stroke="#252525" stroke-width="1.5"/>
</g>
<use xlink:href="#Repeat%20group%201_inner" transform="translate(4)"/>
<use xlink:href="#Repeat%20group%201_inner" transform="translate(8)"/>
<use xlink:href="#Repeat%20group%201_inner" transform="translate(12)"/>
<use xlink:href="#Repeat%20group%201_inner" transform="translate(16)"/>
<use xlink:href="#Repeat%20group%201_inner" transform="translate(20)"/>
<use xlink:href="#Repeat%20group%201_inner" transform="translate(24)"/>
<use xlink:href="#Repeat%20group%201_inner" transform="translate(28)"/>
<use xlink:href="#Repeat%20group%201_inner" transform="translate(32)"/>
<use xlink:href="#Repeat%20group%201_inner" transform="translate(36)"/>
</g>
</g>
</g>
</g>
<use xlink:href="#fins_inner" transform="translate(0 12.5)"/>
<use xlink:href="#fins_inner" transform="translate(0 25)"/>
<use xlink:href="#fins_inner" transform="translate(0 37.5)"/>
<use xlink:href="#fins_inner" transform="translate(0 50)"/>
<use xlink:href="#fins_inner" transform="translate(0 62.5)"/>
<use xlink:href="#fins_inner" transform="translate(0 75)"/>
<use xlink:href="#fins_inner" transform="translate(0 87.5)"/>
<use xlink:href="#fins_inner" transform="translate(0 100)"/>
<use xlink:href="#fins_inner" transform="translate(0 112.5)"/>
<use xlink:href="#fins_inner" transform="translate(0 125)"/>
<use xlink:href="#fins_inner" transform="translate(0 137.5)"/>
<use xlink:href="#fins_inner" transform="translate(0 150)"/>
<use xlink:href="#fins_inner" transform="translate(0 162.5)"/>
<use xlink:href="#fins_inner" transform="translate(0 175)"/>
<use xlink:href="#fins_inner" transform="translate(0 187.5)"/>
</g>
<path id="hexBase" d="M143.187 241.5H355.587C360.207 241.5 364.156 244.823 364.946 249.375L373.975 301.375C374.983 307.184 370.511 312.5 364.614 312.5H132.715C126.715 312.5 122.217 307.006 123.401 301.124L133.874 249.124C134.767 244.69 138.663 241.5 143.187 241.5Z" fill="#474747" stroke="black"/>
<g id="outerHex">
<mask id="path-119-inside-3_1_2" fill="white">
<path d="M340.5 26C353.755 26 364.5 36.7452 364.5 50V232C364.5 245.255 353.755 256 340.5 256H158.5C145.245 256 134.5 245.255 134.5 232V50C134.5 36.7452 145.245 26 158.5 26H340.5ZM164.5 41C156.216 41 149.5 47.7157 149.5 56V226C149.5 234.284 156.216 241 164.5 241H334.5C342.784 241 349.5 234.284 349.5 226V56C349.5 47.7157 342.784 41 334.5 41H164.5Z"/>
</mask>
<path d="M340.5 26C353.755 26 364.5 36.7452 364.5 50V232C364.5 245.255 353.755 256 340.5 256H158.5C145.245 256 134.5 245.255 134.5 232V50C134.5 36.7452 145.245 26 158.5 26H340.5ZM164.5 41C156.216 41 149.5 47.7157 149.5 56V226C149.5 234.284 156.216 241 164.5 241H334.5C342.784 241 349.5 234.284 349.5 226V56C349.5 47.7157 342.784 41 334.5 41H164.5Z" fill="#2F2F2F"/>
<path d="M164.5 41L164.5 40H164.5L164.5 41ZM349.5 56L350.5 56V56L349.5 56ZM340.5 26V27C353.203 27 363.5 37.2975 363.5 50H364.5H365.5C365.5 36.1929 354.307 25 340.5 25V26ZM364.5 50H363.5V232H364.5H365.5V50H364.5ZM364.5 232H363.5C363.5 244.703 353.203 255 340.5 255V256V257C354.307 257 365.5 245.807 365.5 232H364.5ZM340.5 256V255H158.5V256V257H340.5V256ZM158.5 256V255C145.797 255 135.5 244.703 135.5 232H134.5H133.5C133.5 245.807 144.693 257 158.5 257V256ZM134.5 232H135.5V50H134.5H133.5V232H134.5ZM134.5 50H135.5C135.5 37.2975 145.797 27 158.5 27V26V25C144.693 25 133.5 36.1929 133.5 50H134.5ZM158.5 26V27H340.5V26V25H158.5V26ZM164.5 41L164.5 40C155.663 40 148.5 47.1634 148.5 56H149.5H150.5C150.5 48.268 156.768 42 164.5 42L164.5 41ZM149.5 56H148.5V226H149.5H150.5V56H149.5ZM149.5 226H148.5C148.5 234.837 155.663 242 164.5 242V241V240C156.768 240 150.5 233.732 150.5 226H149.5ZM164.5 241V242H334.5V241V240H164.5V241ZM334.5 241V242C343.337 242 350.5 234.837 350.5 226H349.5H348.5C348.5 233.732 342.232 240 334.5 240V241ZM349.5 226H350.5V56H349.5H348.5V226H349.5ZM349.5 56L350.5 56C350.5 47.1634 343.337 40 334.5 40V41V42C342.232 42 348.5 48.268 348.5 56L349.5 56ZM334.5 41V40H164.5V41V42H334.5V41Z" fill="black" mask="url(#path-119-inside-3_1_2)"/>
</g>
<path id="Rectangle 12" d="M134 221.16L117.022 211.965C113.312 209.955 111 206.073 111 201.853V79.1475C111 74.9271 113.312 71.0453 117.022 69.0352L134 59.8389V221.16Z" fill="#2F2F2F" stroke="black"/>
<path id="Rectangle 13" d="M365 221.16L381.978 211.965C385.688 209.955 388 206.073 388 201.853V79.1475C388 74.9271 385.688 71.0453 381.978 69.0352L365 59.8389V221.16Z" fill="#2F2F2F" stroke="black"/>
<path id="Rectangle 14" d="M99.5 126.5H110V155.5H99.5C97.567 155.5 96 153.933 96 152V130C96 128.067 97.567 126.5 99.5 126.5Z" fill="#2F2F2F" stroke="black"/>
<path id="Rectangle 15" d="M399.5 126.5H389V155.5H399.5C401.433 155.5 403 153.933 403 152V130C403 128.067 401.433 126.5 399.5 126.5Z" fill="#2F2F2F" stroke="black"/>
</g>
<path id="inTubeFill" d="M504.5 277C380.455 277 27 445.291 27 221C27 186.5 45 141 95.5 141" stroke="#2F7CEF" stroke-opacity="0.6" stroke-width="8"/>
<path id="inTube" d="M504.5 277C380.455 277 27 445.291 27 221C27 186.5 45 141 95.5 141" stroke="#AEAEAE" stroke-opacity="0.5" stroke-width="12"/>
<g id="fanCtrl">
<g id="fanCtrlBase">
<rect id="Rectangle 5_2" x="226" y="259.5" width="55" height="42" rx="3.5" fill="#7D7D7D" stroke="black"/>
<rect id="Rectangle 6_2" x="227.574" y="263.778" width="51.8519" height="33.4444" rx="4" fill="#989898"/>
</g>
<g id="fanLabel">
<rect id="Rectangle 7_2" x="238.5" y="262" width="30" height="14" fill="#F6F6F6"/>
<path id="Fan" d="M240.459 273V264.273H245.871V265.406H241.776V268.065H245.483V269.195H241.776V273H240.459ZM249.269 273.145C248.854 273.145 248.479 273.068 248.144 272.915C247.809 272.759 247.543 272.533 247.347 272.237C247.154 271.942 247.058 271.58 247.058 271.151C247.058 270.781 247.129 270.477 247.271 270.239C247.413 270 247.604 269.811 247.846 269.672C248.087 269.533 248.357 269.428 248.656 269.357C248.954 269.286 249.258 269.232 249.568 269.195C249.96 269.149 250.278 269.112 250.522 269.084C250.766 269.053 250.944 269.003 251.055 268.935C251.166 268.866 251.221 268.756 251.221 268.602V268.572C251.221 268.2 251.116 267.912 250.906 267.707C250.698 267.503 250.389 267.401 249.977 267.401C249.548 267.401 249.21 267.496 248.962 267.686C248.718 267.874 248.549 268.082 248.455 268.312L247.258 268.04C247.4 267.642 247.607 267.321 247.88 267.077C248.156 266.83 248.472 266.651 248.83 266.54C249.188 266.426 249.565 266.369 249.96 266.369C250.221 266.369 250.498 266.401 250.791 266.463C251.086 266.523 251.362 266.634 251.617 266.795C251.876 266.957 252.087 267.189 252.252 267.49C252.417 267.788 252.499 268.176 252.499 268.653V273H251.255V272.105H251.204C251.121 272.27 250.998 272.432 250.833 272.591C250.668 272.75 250.457 272.882 250.198 272.987C249.94 273.092 249.63 273.145 249.269 273.145ZM249.546 272.122C249.898 272.122 250.2 272.053 250.45 271.913C250.702 271.774 250.894 271.592 251.025 271.368C251.158 271.141 251.225 270.898 251.225 270.639V269.795C251.18 269.841 251.092 269.884 250.961 269.923C250.833 269.96 250.687 269.993 250.522 270.021C250.357 270.047 250.197 270.071 250.041 270.094C249.884 270.114 249.754 270.131 249.648 270.145C249.401 270.176 249.175 270.229 248.971 270.303C248.769 270.376 248.607 270.483 248.485 270.622C248.366 270.759 248.306 270.94 248.306 271.168C248.306 271.483 248.423 271.722 248.656 271.884C248.889 272.043 249.185 272.122 249.546 272.122ZM255.471 269.114V273H254.196V266.455H255.419V267.52H255.5C255.651 267.173 255.887 266.895 256.208 266.685C256.532 266.474 256.939 266.369 257.431 266.369C257.877 266.369 258.267 266.463 258.603 266.651C258.938 266.835 259.198 267.111 259.382 267.477C259.567 267.844 259.659 268.297 259.659 268.837V273H258.385V268.99C258.385 268.516 258.262 268.145 258.015 267.878C257.767 267.608 257.428 267.473 256.996 267.473C256.701 267.473 256.438 267.537 256.208 267.665C255.98 267.793 255.8 267.98 255.667 268.227C255.536 268.472 255.471 268.767 255.471 269.114Z" fill="black"/>
</g>
<g id="fanSwitch">
<rect id="fanSwitchBack" x="234.333" y="278.611" width="37.2222" height="16.5185" rx="0.5" fill="#1C1C1C" stroke="black"/>
<rect id="fanSwitchOn" x="235.426" y="279.704" width="17.5185" height="14.3333" fill="#D90000"/>
<rect id="fanSwitchOff" x="252.944" y="279.704" width="17.5185" height="14.3333" fill="#7B0101"/>
<circle id="Ellipse 6_2" cx="263.296" cy="286.87" r="4.48148" stroke="#EED5D5"/>
<line id="Line 1_2" x1="242.296" y1="281.296" x2="242.296" y2="292.444" stroke="#EED5D5"/>
</g>
</g>
<path id="outTubeFill" d="M403.5 142.5C473.911 142.5 454.246 80.3542 505.5 79.5C529.5 79.1 543 88.5001 543 101.5" stroke="#2F7CEF" stroke-opacity="0.6" stroke-width="8"/>
<path id="outTube" d="M403.5 142.5C473.911 142.5 454.246 80.3542 505.5 79.5C529.5 79.1 543 88.5001 543 101.5" stroke="#AEAEAE" stroke-opacity="0.5" stroke-width="12"/>
<g id="thermoBody">
<path id="Rectangle 17" d="M857 54.5C884.787 54.5 906.14 56.1893 918.812 57.5469C926.063 58.3236 931.259 64.6337 930.962 71.9463L922.003 292.175C921.702 299.56 917.215 306.003 910.118 307.79C899.659 310.424 882.077 313.5 857 313.5C831.923 313.5 814.341 310.424 803.882 307.79C796.785 306.003 792.298 299.56 791.997 292.175L783.038 71.9463C782.741 64.6337 787.937 58.3236 795.188 57.5469C807.86 56.1893 829.213 54.5 857 54.5Z" fill="#FEC530" stroke="black"/>
<path id="Rectangle 18" d="M855 86.5C887.049 86.5 904.387 89.3114 912.6 91.2803C916.22 92.1483 918.426 95.4728 918.324 99.2695L913.716 271.686C913.596 276.16 910.38 279.899 905.967 280.481C896.514 281.73 879.122 283.5 856.5 283.5C833.878 283.5 816.486 281.73 807.033 280.481C802.62 279.899 799.404 276.16 799.284 271.686L794.658 98.6104C794.566 95.1396 796.438 92.1071 799.701 91.2393C807.083 89.2761 823.153 86.5 855 86.5Z" fill="#636363" stroke="black"/>
<rect id="Rectangle 19" x="801.5" y="95.5" width="111" height="89" rx="3.5" fill="#2A2A24" stroke="black"/>
<rect id="thermScreen" x="807.5" y="100.5" width="99" height="79" rx="3.5" fill="#C3C2BA" stroke="black"/>
<path id="Thermometer" d="M808.4 79V68.872H804.512V67.48H813.984V68.872H810.096V79H808.4ZM815.668 79V67.48H817.332V79H815.668ZM821.46 79V73.752C821.46 73.1867 821.316 72.7653 821.028 72.488C820.751 72.2107 820.335 72.072 819.78 72.072C819.3 72.072 818.873 72.1787 818.5 72.392C818.137 72.6053 817.849 72.8987 817.636 73.272C817.433 73.6453 817.332 74.088 817.332 74.6L817.124 72.648C817.391 72.04 817.801 71.56 818.356 71.208C818.911 70.856 819.556 70.68 820.292 70.68C821.167 70.68 821.855 70.9253 822.356 71.416C822.857 71.9067 823.108 72.5573 823.108 73.368V79H821.46ZM828.891 79.16C828.07 79.16 827.344 78.9787 826.715 78.616C826.096 78.2533 825.611 77.752 825.259 77.112C824.907 76.472 824.731 75.736 824.731 74.904C824.731 74.0613 824.902 73.3253 825.243 72.696C825.595 72.056 826.086 71.56 826.715 71.208C827.344 70.856 828.064 70.68 828.875 70.68C829.664 70.68 830.347 70.8507 830.923 71.192C831.51 71.5227 831.958 71.9867 832.267 72.584C832.587 73.1813 832.747 73.8907 832.747 74.712C832.747 74.84 832.742 74.9627 832.731 75.08C832.731 75.1867 832.72 75.2987 832.699 75.416H825.851V74.168H831.531L831.115 74.664C831.115 73.7893 830.918 73.1227 830.523 72.664C830.128 72.2053 829.579 71.976 828.875 71.976C828.118 71.976 827.515 72.2373 827.067 72.76C826.63 73.272 826.411 73.9867 826.411 74.904C826.411 75.832 826.63 76.5573 827.067 77.08C827.515 77.6027 828.134 77.864 828.923 77.864C829.403 77.864 829.819 77.768 830.171 77.576C830.523 77.3733 830.784 77.08 830.955 76.696H832.523C832.256 77.464 831.803 78.0667 831.163 78.504C830.534 78.9413 829.776 79.16 828.891 79.16ZM834.449 79V70.84H836.033V72.872H836.113V79H834.449ZM836.113 74.744L835.905 72.808C836.097 72.1147 836.428 71.5867 836.897 71.224C837.367 70.8613 837.927 70.68 838.577 70.68C838.823 70.68 838.993 70.7013 839.089 70.744V72.312C839.036 72.2907 838.961 72.28 838.865 72.28C838.769 72.2693 838.652 72.264 838.513 72.264C837.713 72.264 837.111 72.472 836.705 72.888C836.311 73.304 836.113 73.9227 836.113 74.744ZM840.574 79V70.84H842.158V72.76H842.238V79H840.574ZM846.078 79V73.672C846.078 73.1173 845.95 72.712 845.694 72.456C845.438 72.2 845.07 72.072 844.59 72.072C844.142 72.072 843.737 72.1787 843.374 72.392C843.022 72.5947 842.745 72.8827 842.542 73.256C842.34 73.6187 842.238 74.0507 842.238 74.552L842.03 72.648C842.297 72.04 842.697 71.56 843.23 71.208C843.774 70.856 844.382 70.68 845.054 70.68C845.865 70.68 846.51 70.9147 846.99 71.384C847.481 71.8533 847.726 72.472 847.726 73.24V79H846.078ZM851.582 79V73.672C851.582 73.1173 851.449 72.712 851.182 72.456C850.926 72.2 850.558 72.072 850.078 72.072C849.641 72.072 849.241 72.1787 848.878 72.392C848.526 72.5947 848.244 72.8827 848.03 73.256C847.828 73.6187 847.726 74.0507 847.726 74.552L847.39 72.648C847.668 72.04 848.084 71.56 848.638 71.208C849.204 70.856 849.833 70.68 850.526 70.68C851.348 70.68 852.004 70.92 852.494 71.4C852.985 71.8693 853.23 72.4987 853.23 73.288V79H851.582ZM859.017 79.16C858.185 79.16 857.454 78.9787 856.825 78.616C856.196 78.2427 855.705 77.736 855.353 77.096C855.001 76.4453 854.825 75.7093 854.825 74.888C854.825 74.056 855.001 73.3253 855.353 72.696C855.716 72.0667 856.206 71.576 856.825 71.224C857.454 70.8613 858.185 70.68 859.017 70.68C859.86 70.68 860.596 70.8613 861.225 71.224C861.854 71.576 862.34 72.0667 862.681 72.696C863.033 73.3253 863.209 74.056 863.209 74.888C863.209 75.7093 863.033 76.4453 862.681 77.096C862.34 77.736 861.854 78.2427 861.225 78.616C860.596 78.9787 859.86 79.16 859.017 79.16ZM859.017 77.8C859.518 77.8 859.95 77.6773 860.313 77.432C860.686 77.1867 860.98 76.8453 861.193 76.408C861.406 75.9707 861.513 75.4587 861.513 74.872C861.513 73.9973 861.278 73.3093 860.809 72.808C860.35 72.296 859.753 72.04 859.017 72.04C858.292 72.04 857.694 72.296 857.225 72.808C856.766 73.32 856.537 74.008 856.537 74.872C856.537 75.4587 856.638 75.9707 856.841 76.408C857.054 76.8453 857.348 77.1867 857.721 77.432C858.105 77.6773 858.537 77.8 859.017 77.8ZM864.918 79V70.84H866.502V72.76H866.582V79H864.918ZM870.422 79V73.672C870.422 73.1173 870.294 72.712 870.038 72.456C869.782 72.2 869.414 72.072 868.934 72.072C868.486 72.072 868.081 72.1787 867.718 72.392C867.366 72.5947 867.089 72.8827 866.886 73.256C866.683 73.6187 866.582 74.0507 866.582 74.552L866.374 72.648C866.641 72.04 867.041 71.56 867.574 71.208C868.118 70.856 868.726 70.68 869.398 70.68C870.209 70.68 870.854 70.9147 871.334 71.384C871.825 71.8533 872.07 72.472 872.07 73.24V79H870.422ZM875.926 79V73.672C875.926 73.1173 875.793 72.712 875.526 72.456C875.27 72.2 874.902 72.072 874.422 72.072C873.985 72.072 873.585 72.1787 873.222 72.392C872.87 72.5947 872.587 72.8827 872.374 73.256C872.171 73.6187 872.07 74.0507 872.07 74.552L871.734 72.648C872.011 72.04 872.427 71.56 872.982 71.208C873.547 70.856 874.177 70.68 874.87 70.68C875.691 70.68 876.347 70.92 876.838 71.4C877.329 71.8693 877.574 72.4987 877.574 73.288V79H875.926ZM883.329 79.16C882.507 79.16 881.782 78.9787 881.153 78.616C880.534 78.2533 880.049 77.752 879.697 77.112C879.345 76.472 879.169 75.736 879.169 74.904C879.169 74.0613 879.339 73.3253 879.681 72.696C880.033 72.056 880.523 71.56 881.153 71.208C881.782 70.856 882.502 70.68 883.313 70.68C884.102 70.68 884.785 70.8507 885.361 71.192C885.947 71.5227 886.395 71.9867 886.705 72.584C887.025 73.1813 887.185 73.8907 887.185 74.712C887.185 74.84 887.179 74.9627 887.169 75.08C887.169 75.1867 887.158 75.2987 887.137 75.416H880.289V74.168H885.969L885.553 74.664C885.553 73.7893 885.355 73.1227 884.961 72.664C884.566 72.2053 884.017 71.976 883.313 71.976C882.555 71.976 881.953 72.2373 881.505 72.76C881.067 73.272 880.849 73.9867 880.849 74.904C880.849 75.832 881.067 76.5573 881.505 77.08C881.953 77.6027 882.571 77.864 883.361 77.864C883.841 77.864 884.257 77.768 884.609 77.576C884.961 77.3733 885.222 77.08 885.393 76.696H886.961C886.694 77.464 886.241 78.0667 885.601 78.504C884.971 78.9413 884.214 79.16 883.329 79.16ZM892.218 79.16C891.269 79.16 890.57 78.9413 890.122 78.504C889.685 78.056 889.466 77.4 889.466 76.536V68.968L891.114 68.344V76.552C891.114 76.9787 891.226 77.2933 891.45 77.496C891.674 77.6987 892.037 77.8 892.538 77.8C892.73 77.8 892.901 77.784 893.05 77.752C893.199 77.72 893.327 77.6827 893.434 77.64V78.984C893.317 79.0373 893.151 79.08 892.938 79.112C892.725 79.144 892.485 79.16 892.218 79.16ZM887.834 72.168V70.84H893.434V72.168H887.834ZM898.329 79.16C897.507 79.16 896.782 78.9787 896.153 78.616C895.534 78.2533 895.049 77.752 894.697 77.112C894.345 76.472 894.169 75.736 894.169 74.904C894.169 74.0613 894.339 73.3253 894.681 72.696C895.033 72.056 895.523 71.56 896.153 71.208C896.782 70.856 897.502 70.68 898.313 70.68C899.102 70.68 899.785 70.8507 900.361 71.192C900.947 71.5227 901.395 71.9867 901.705 72.584C902.025 73.1813 902.185 73.8907 902.185 74.712C902.185 74.84 902.179 74.9627 902.169 75.08C902.169 75.1867 902.158 75.2987 902.137 75.416H895.289V74.168H900.969L900.553 74.664C900.553 73.7893 900.355 73.1227 899.961 72.664C899.566 72.2053 899.017 71.976 898.313 71.976C897.555 71.976 896.953 72.2373 896.505 72.76C896.067 73.272 895.849 73.9867 895.849 74.904C895.849 75.832 896.067 76.5573 896.505 77.08C896.953 77.6027 897.571 77.864 898.361 77.864C898.841 77.864 899.257 77.768 899.609 77.576C899.961 77.3733 900.222 77.08 900.393 76.696H901.961C901.694 77.464 901.241 78.0667 900.601 78.504C899.971 78.9413 899.214 79.16 898.329 79.16ZM903.887 79V70.84H905.471V72.872H905.551V79H903.887ZM905.551 74.744L905.343 72.808C905.535 72.1147 905.865 71.5867 906.335 71.224C906.804 70.8613 907.364 70.68 908.015 70.68C908.26 70.68 908.431 70.7013 908.527 70.744V72.312C908.473 72.2907 908.399 72.28 908.303 72.28C908.207 72.2693 908.089 72.264 907.951 72.264C907.151 72.264 906.548 72.472 906.143 72.888C905.748 73.304 905.551 73.9227 905.551 74.744Z" fill="black"/>
</g>
</g>
<defs>
<filter id="filter0_i_1_2" x="149.5" y="50.5" width="200" height="3" filterUnits="userSpaceOnUse" color-interpolation-filters="sRGB">
<feFlood flood-opacity="0" result="BackgroundImageFix"/>
<feBlend mode="normal" in="SourceGraphic" in2="BackgroundImageFix" result="shape"/>
<feColorMatrix in="SourceAlpha" type="matrix" values="0 0 0 0 0 0 0 0 0 0 0 0 0 0 0 0 0 0 127 0" result="hardAlpha"/>
<feOffset/>
<feGaussianBlur stdDeviation="1.5"/>
<feComposite in2="hardAlpha" operator="arithmetic" k2="-1" k3="1"/>
<feColorMatrix type="matrix" values="0 0 0 0 0 0 0 0 0 0 0 0 0 0 0 0 0 0 1 0"/>
<feBlend mode="normal" in2="shape" result="effect1_innerShadow_1_2"/>
</filter>
</defs>
</svg>
