<svg width="771" height="364" viewBox="0 0 771 364" fill="none" xmlns="http://www.w3.org/2000/svg" xmlns:xlink="http://www.w3.org/1999/xlink">
<g id="crossExchanger">
<rect width="771" height="364" fill="white"/>
<g id="pump">
<path id="pumpBack" d="M525.5 216.5H734.5C739.747 216.5 744 220.753 744 226V254C744 259.247 739.747 263.5 734.5 263.5H525.5C520.253 263.5 516 259.247 516 254V226C516 220.917 519.991 216.767 525.011 216.513L525.5 216.5Z" fill="#474747" stroke="black"/>
<path id="pumpFace" d="M525.5 241.5H734.5C739.747 241.5 744 245.753 744 251V303C744 308.247 739.747 312.5 734.5 312.5H525.5C520.253 312.5 516 308.247 516 303V251C516 245.917 519.991 241.767 525.011 241.513L525.5 241.5Z" fill="#656565" stroke="black"/>
<g id="pumpBody">
<rect id="Rectangle 8" x="740.5" y="306.5" width="221" height="60" rx="9.5" transform="rotate(180 740.5 306.5)" fill="#3F3E3E" stroke="black"/>
<rect id="Rectangle 9" x="739" y="301" width="104" height="49" rx="10" transform="rotate(180 739 301)" fill="#5B5B5B"/>
<rect id="displayScreen" x="527.5" y="260.5" width="102" height="33" rx="1.5" fill="#3C412C" stroke="black"/>
</g>
<g id="pumpCtrl">
<g id="ctrlBase">
<rect id="Rectangle 5" x="639.5" y="254.5" width="95.3557" height="44.4999" rx="3.5" fill="#7D7D7D" stroke="black"/>
<rect id="Rectangle 6" x="642.569" y="259.056" width="89.2182" height="35.3888" rx="4" fill="#989898"/>
</g>
<g id="pumpLabel">
<rect id="Rectangle 7" x="689" y="257.592" width="40.0165" height="15.5658" fill="#F6F6F6"/>
<path id="Pump" d="M692.109 267.197V258.47H695.058C695.742 258.47 696.302 258.594 696.737 258.841C697.174 259.085 697.498 259.416 697.708 259.834C697.919 260.251 698.024 260.717 698.024 261.231C698.024 261.746 697.919 262.213 697.708 262.633C697.501 263.054 697.18 263.389 696.745 263.639C696.311 263.886 695.754 264.01 695.075 264.01H692.961V263.072H695.041C695.51 263.072 695.886 262.991 696.17 262.829C696.454 262.668 696.66 262.449 696.788 262.173C696.919 261.895 696.984 261.581 696.984 261.231C696.984 260.882 696.919 260.57 696.788 260.294C696.66 260.018 696.453 259.802 696.166 259.646C695.879 259.487 695.498 259.408 695.024 259.408H693.166V267.197H692.109ZM703.715 264.521V260.652H704.72V267.197H703.715V266.089H703.647C703.493 266.422 703.255 266.704 702.931 266.937C702.607 267.168 702.198 267.283 701.703 267.283C701.294 267.283 700.931 267.193 700.612 267.014C700.294 266.832 700.044 266.56 699.862 266.196C699.681 265.829 699.59 265.368 699.59 264.811V260.652H700.595V264.743C700.595 265.22 700.729 265.601 700.996 265.885C701.266 266.169 701.61 266.311 702.027 266.311C702.277 266.311 702.532 266.247 702.79 266.119C703.051 265.991 703.27 265.795 703.446 265.531C703.625 265.267 703.715 264.93 703.715 264.521ZM706.562 267.197V260.652H707.534V261.675H707.619C707.756 261.325 707.976 261.054 708.28 260.861C708.584 260.665 708.949 260.567 709.375 260.567C709.807 260.567 710.166 260.665 710.453 260.861C710.743 261.054 710.969 261.325 711.131 261.675H711.199C711.366 261.337 711.618 261.068 711.953 260.869C712.288 260.668 712.69 260.567 713.159 260.567C713.744 260.567 714.223 260.75 714.595 261.116C714.967 261.48 715.153 262.047 715.153 262.817V267.197H714.148V262.817C714.148 262.334 714.016 261.989 713.751 261.781C713.487 261.574 713.176 261.47 712.818 261.47C712.358 261.47 712.001 261.609 711.749 261.888C711.496 262.163 711.369 262.513 711.369 262.936V267.197H710.347V262.714C710.347 262.342 710.226 262.043 709.984 261.815C709.743 261.585 709.432 261.47 709.051 261.47C708.79 261.47 708.545 261.54 708.318 261.679C708.094 261.818 707.912 262.011 707.773 262.258C707.636 262.503 707.568 262.785 707.568 263.106V267.197H706.562ZM716.992 269.652V260.652H717.964V261.692H718.083C718.157 261.578 718.259 261.433 718.39 261.257C718.523 261.078 718.714 260.919 718.961 260.78C719.211 260.638 719.549 260.567 719.975 260.567C720.526 260.567 721.012 260.704 721.432 260.98C721.853 261.256 722.181 261.646 722.417 262.152C722.653 262.658 722.771 263.254 722.771 263.942C722.771 264.635 722.653 265.236 722.417 265.744C722.181 266.25 721.854 266.642 721.437 266.92C721.019 267.196 720.538 267.334 719.992 267.334C719.572 267.334 719.235 267.264 718.982 267.125C718.729 266.983 718.535 266.822 718.398 266.643C718.262 266.462 718.157 266.311 718.083 266.192H717.998V269.652H716.992ZM717.981 263.925C717.981 264.419 718.053 264.855 718.198 265.233C718.343 265.608 718.555 265.902 718.833 266.115C719.111 266.325 719.452 266.43 719.856 266.43C720.276 266.43 720.627 266.32 720.908 266.098C721.192 265.873 721.405 265.572 721.548 265.195C721.692 264.814 721.765 264.391 721.765 263.925C721.765 263.464 721.694 263.05 721.552 262.68C721.413 262.308 721.201 262.014 720.917 261.798C720.636 261.579 720.282 261.47 719.856 261.47C719.447 261.47 719.103 261.574 718.824 261.781C718.546 261.986 718.336 262.273 718.194 262.642C718.052 263.008 717.981 263.436 717.981 263.925Z" fill="black"/>
</g>
<g id="Switch">
<rect id="switchBack" x="687.5" y="275.5" width="41.8247" height="17.537" rx="0.5" fill="#1C1C1C" stroke="black"/>
<rect id="switchOn" x="688.784" y="276.685" width="19.628" height="15.1666" fill="#D90000"/>
<rect id="switchOff" x="708.412" y="276.685" width="19.628" height="15.1666" fill="#7B0101"/>
<path id="Ellipse 6" d="M720.011 279.556C722.723 279.556 724.972 281.639 724.972 284.268C724.972 286.898 722.723 288.981 720.011 288.981C717.298 288.981 715.05 286.898 715.05 284.268C715.05 281.639 717.298 279.556 720.011 279.556Z" stroke="#EED5D5"/>
<line id="Line 1" x1="696.422" y1="278.37" x2="696.422" y2="290.167" stroke="#EED5D5"/>
</g>
<g id="flowDial">
<circle id="dialBody" cx="664" cy="276.999" r="17.5" fill="#222222" stroke="black"/>
<g id="minorTicks">
<path id="Line 4" d="M647.703 274.418L649.678 274.731" stroke="white" stroke-width="0.25"/>
<path id="Line 4_2" d="M648.307 271.901L650.21 272.519" stroke="white" stroke-width="0.25"/>
<path id="Line 4_3" d="M649.298 269.509L651.08 270.417" stroke="white" stroke-width="0.25"/>
<path id="Line 4_4" d="M650.651 267.301L652.269 268.477" stroke="white" stroke-width="0.25"/>
<path id="Line 4_5" d="M654.301 263.651L655.477 265.269" stroke="white" stroke-width="0.25"/>
<path id="Line 4_6" d="M656.509 262.298L657.417 264.08" stroke="white" stroke-width="0.25"/>
<path id="Line 4_7" d="M658.901 261.307L659.519 263.209" stroke="white" stroke-width="0.25"/>
<path id="Line 4_8" d="M661.419 260.703L661.732 262.678" stroke="white" stroke-width="0.25"/>
<path id="Line 4_9" d="M666.581 260.703L666.268 262.678" stroke="white" stroke-width="0.25"/>
<path id="Line 4_10" d="M669.099 261.307L668.481 263.209" stroke="white" stroke-width="0.25"/>
<path id="Line 4_11" d="M671.491 262.298L670.583 264.08" stroke="white" stroke-width="0.25"/>
<path id="Line 4_12" d="M673.698 263.651L672.523 265.269" stroke="white" stroke-width="0.25"/>
<path id="Line 4_13" d="M677.349 267.301L675.731 268.477" stroke="white" stroke-width="0.25"/>
<path id="Line 4_14" d="M678.701 269.509L676.919 270.417" stroke="white" stroke-width="0.25"/>
<path id="Line 4_15" d="M679.692 271.901L677.79 272.519" stroke="white" stroke-width="0.25"/>
<path id="Line 4_16" d="M680.297 274.418L678.321 274.731" stroke="white" stroke-width="0.25"/>
<path id="Line 4_17" d="M680.297 279.581L678.321 279.268" stroke="white" stroke-width="0.25"/>
<path id="Line 4_18" d="M679.692 282.098L677.79 281.48" stroke="white" stroke-width="0.25"/>
<path id="Line 4_19" d="M678.701 284.49L676.919 283.582" stroke="white" stroke-width="0.25"/>
<path id="Line 4_20" d="M677.349 286.698L675.731 285.522" stroke="white" stroke-width="0.25"/>
<path id="Line 4_21" d="M673.698 290.348L672.523 288.73" stroke="white" stroke-width="0.25"/>
<path id="Line 4_22" d="M671.491 291.701L670.583 289.919" stroke="white" stroke-width="0.25"/>
<path id="Line 4_23" d="M669.099 292.692L668.481 290.79" stroke="white" stroke-width="0.25"/>
<path id="Line 4_24" d="M666.581 293.296L666.268 291.321" stroke="white" stroke-width="0.25"/>
</g>
<g id="majorTicks">
<path id="Line 5" d="M664 293.499V290.499" stroke="white" stroke-width="0.25"/>
<path id="Line 5_2" d="M647.5 276.999L650.5 276.999" stroke="white" stroke-width="0.25"/>
<path id="Line 5_3" d="M652.333 265.332L654.454 267.454" stroke="white" stroke-width="0.25"/>
<path id="Line 5_4" d="M664 260.499L664 263.499" stroke="white" stroke-width="0.25"/>
<path id="Line 5_5" d="M675.667 265.332L673.546 267.454" stroke="white" stroke-width="0.25"/>
<path id="Line 5_6" d="M680.5 276.999L677.5 276.999" stroke="white" stroke-width="0.25"/>
<path id="Line 5_7" d="M675.667 288.667L673.546 286.545" stroke="white" stroke-width="0.25"/>
</g>
</g>
</g>
<path id="pumpNozzle" d="M508.5 266.5H515V287.5H508.5C506.567 287.5 505 285.933 505 284V270C505 268.067 506.567 266.5 508.5 266.5Z" fill="#2F2F2F" stroke="black"/>
</g>
<g id="Tank">
<g id="tankBackground">
<path id="Ellipse 3" d="M628.5 212.5C656.099 212.5 681.075 214.01 699.144 216.449C708.181 217.669 715.47 219.12 720.489 220.722C723.002 221.524 724.917 222.354 726.193 223.196C727.494 224.054 728 224.834 728 225.5C728 226.166 727.494 226.946 726.193 227.804C724.917 228.646 723.002 229.476 720.489 230.278C715.47 231.88 708.181 233.331 699.144 234.551C681.075 236.99 656.099 238.5 628.5 238.5C600.901 238.5 575.925 236.99 557.856 234.551C548.819 233.331 541.53 231.88 536.511 230.278C533.998 229.476 532.083 228.646 530.807 227.804C529.506 226.946 529 226.166 529 225.5C529 224.834 529.506 224.054 530.807 223.196C532.083 222.354 533.998 221.524 536.511 220.722C541.53 219.12 548.819 217.669 557.856 216.449C575.925 214.01 600.901 212.5 628.5 212.5Z" fill="#B7B7B7" stroke="black"/>
<g id="Rectangle 2">
<mask id="path-49-inside-1_1_2" fill="white">
<path d="M528.5 209H728.5V226H528.5V209Z"/>
</mask>
<path d="M528.5 209H728.5V226H528.5V209Z" fill="#B7B7B7"/>
<path d="M728.5 209H727.5V226H728.5H729.5V209H728.5ZM528.5 226H529.5V209H528.5H527.5V226H528.5Z" fill="black" mask="url(#path-49-inside-1_1_2)"/>
</g>
<path id="Ellipse 2" d="M628.5 197.5C656.099 197.5 681.075 199.01 699.144 201.449C708.181 202.669 715.47 204.12 720.489 205.722C723.002 206.524 724.917 207.354 726.193 208.196C727.494 209.054 728 209.834 728 210.5C728 211.166 727.494 211.946 726.193 212.804C724.917 213.646 723.002 214.476 720.489 215.278C715.47 216.88 708.181 218.331 699.144 219.551C681.075 221.99 656.099 223.5 628.5 223.5C600.901 223.5 575.925 221.99 557.856 219.551C548.819 218.331 541.53 216.88 536.511 215.278C533.998 214.476 532.083 213.646 530.807 212.804C529.506 211.946 529 211.166 529 210.5C529 209.834 529.506 209.054 530.807 208.196C532.083 207.354 533.998 206.524 536.511 205.722C541.53 204.12 548.819 202.669 557.856 201.449C575.925 199.01 600.901 197.5 628.5 197.5Z" fill="#B7B7B7" stroke="black"/>
<g id="Rectangle 1">
<mask id="path-52-inside-2_1_2" fill="white">
<path d="M528.5 99H728.5V211H528.5V99Z"/>
</mask>
<path d="M728.5 99H727.5V211H728.5H729.5V99H728.5ZM528.5 211H529.5V99H528.5H527.5V211H528.5Z" fill="black" mask="url(#path-52-inside-2_1_2)"/>
</g>
<g id="ioHole">
<path id="Ellipse 4" d="M684.5 207.5C686.372 207.5 688.043 207.881 689.227 208.473C690.44 209.079 691 209.825 691 210.5C691 211.175 690.44 211.921 689.227 212.527C688.043 213.119 686.372 213.5 684.5 213.5C682.628 213.5 680.957 213.119 679.773 212.527C678.56 211.921 678 211.175 678 210.5C678 209.825 678.56 209.079 679.773 208.473C680.957 207.881 682.628 207.5 684.5 207.5Z" fill="#707070" stroke="black"/>
<path id="Ellipse 5" d="M684.5 209.5C685.56 209.5 686.499 209.662 687.153 209.907C687.482 210.031 687.713 210.166 687.854 210.29C687.994 210.415 688 210.487 688 210.5C688 210.513 687.994 210.585 687.854 210.71C687.713 210.834 687.482 210.969 687.153 211.093C686.499 211.338 685.56 211.5 684.5 211.5C683.44 211.5 682.501 211.338 681.847 211.093C681.518 210.969 681.287 210.834 681.146 210.71C681.006 210.585 681 210.513 681 210.5C681 210.487 681.006 210.415 681.146 210.29C681.287 210.166 681.518 210.031 681.847 209.907C682.501 209.662 683.44 209.5 684.5 209.5Z" fill="#222222" stroke="black"/>
</g>
</g>
<path id="waterBottom" d="M727.434 210C727.477 210.166 727.5 210.333 727.5 210.5C727.5 216.5 687.5 223 628.432 223C567 223 529.5 216 529.5 210.5C529.5 210.333 529.523 210.166 529.566 210H727.434Z" fill="#2F7CEF" fill-opacity="0.6"/>
<path id="waterBody" d="M727.5 210H529.5V151.415C536.391 157.964 578.089 163 628.5 163C678.911 163 720.609 157.964 727.5 151.415V210Z" fill="#2F7CEF" fill-opacity="0.6"/>
<path id="waterTop" d="M628.5 137.5C656.099 137.5 681.075 139.01 699.144 141.449C708.181 142.669 715.47 144.12 720.489 145.722C723.002 146.524 724.917 147.354 726.193 148.196C727.494 149.054 728 149.834 728 150.5C728 151.166 727.494 151.946 726.193 152.804C724.917 153.646 723.002 154.476 720.489 155.278C715.47 156.88 708.181 158.331 699.144 159.551C681.075 161.99 656.099 163.5 628.5 163.5C600.901 163.5 575.925 161.99 557.856 159.551C548.819 158.331 541.53 156.88 536.511 155.278C533.998 154.476 532.083 153.646 530.807 152.804C529.506 151.946 529 151.166 529 150.5C529 149.834 529.506 149.054 530.807 148.196C532.083 147.354 533.998 146.524 536.511 145.722C541.53 144.12 548.819 142.669 557.856 141.449C575.925 139.01 600.901 137.5 628.5 137.5Z" fill="#2F7CEF" fill-opacity="0.6" stroke="black"/>
<path id="ouletStream" d="M547 101.5C544.333 101.5 541.667 101.5 539 101.5C539.155 102.317 539.355 103.133 539.558 103.95C540.009 105.763 540.474 107.576 540.5 109.389C540.685 122.276 540.817 135.163 540.97 148.05C540.98 148.867 540.99 149.683 541 150.5C542.333 150.5 543.667 150.5 545 150.5C545.01 149.683 545.02 148.867 545.03 148.05C545.183 135.163 545.315 122.276 545.5 109.389C545.526 107.576 545.991 105.763 546.442 103.95C546.645 103.133 546.845 102.317 547 101.5Z" fill="#2F7CEF" fill-opacity="0.6"/>
<path id="tankRimOutline" d="M628.5 86.5C656.099 86.5 681.075 88.01 699.144 90.4492C708.181 91.6693 715.47 93.1197 720.489 94.7217C723.002 95.5238 724.917 96.3544 726.193 97.1963C727.494 98.0542 728 98.834 728 99.5C728 100.166 727.494 100.946 726.193 101.804C724.917 102.646 723.002 103.476 720.489 104.278C715.47 105.88 708.181 107.331 699.144 108.551C681.075 110.99 656.099 112.5 628.5 112.5C600.901 112.5 575.925 110.99 557.856 108.551C548.819 107.331 541.53 105.88 536.511 104.278C533.998 103.476 532.083 102.646 530.807 101.804C529.506 100.946 529 100.166 529 99.5C529 98.834 529.506 98.0542 530.807 97.1963C532.083 96.3544 533.998 95.5238 536.511 94.7217C541.53 93.1197 548.819 91.6693 557.856 90.4492C575.925 88.01 600.901 86.5 628.5 86.5Z" stroke="black"/>
</g>
<g id="fan">
<g id="fanBackground">
<path id="Subtract" d="M349.5 241H249.5C304.729 241 349.5 196.228 349.5 141C349.5 85.7715 304.729 41 249.5 41C194.272 41 149.5 85.7715 149.5 141C149.5 196.228 194.272 241 249.5 241H149.5V41H349.5V241Z" fill="#121212"/>
<circle id="Ellipse 8" cx="249.5" cy="141" r="80" stroke="#121212" stroke-width="4"/>
<circle id="Ellipse 9" cx="249.5" cy="141" r="50" stroke="#121212" stroke-width="4"/>
<circle id="Ellipse 10" cx="249.5" cy="141" r="25" fill="#121212"/>
</g>
<g id="fanRotate">
<path id="blade" d="M234.991 86.3278C239.376 100.672 242.612 116.369 239.655 118.842L253.361 118.879C257.862 109.66 267.771 96.1741 268.461 76.0948C269.043 59.1858 264.124 45.1222 254.969 42.0521C246.813 39.3172 232.694 41.0196 216.389 46.0046C222.747 52.9491 231.482 74.8521 234.991 86.3278Z" fill="#121212"/>
<path id="blade_2" d="M194.9 126.22C209.516 129.594 224.728 134.641 225.39 138.437L232.276 126.587C226.543 118.079 219.818 102.755 202.774 92.1167C188.421 83.1584 173.782 80.3864 166.546 86.7803C160.099 92.4761 154.514 105.555 150.678 122.168C159.872 120.134 183.208 123.52 194.9 126.22Z" fill="#121212"/>
<path id="blade_3" d="M209.403 180.885C219.633 169.914 231.609 159.264 235.228 160.588L228.408 148.7C218.174 149.411 201.54 147.573 183.805 157.015C168.871 164.965 159.151 176.257 161.07 185.721C162.779 194.152 171.313 205.528 183.783 217.156C186.618 208.178 201.219 189.661 209.403 180.885Z" fill="#121212"/>
<path id="blade_4" d="M263.995 195.658C259.61 181.313 256.374 165.617 259.331 163.144L245.625 163.107C241.124 172.325 231.215 185.812 230.524 205.891C229.943 222.8 234.862 236.864 244.017 239.934C252.173 242.669 266.292 240.966 282.597 235.981C276.239 229.037 267.504 207.134 263.995 195.658Z" fill="#121212"/>
<path id="blade_5" d="M304.085 155.766C289.47 152.392 274.258 147.345 273.595 143.549L266.71 155.399C272.443 163.907 279.168 179.231 296.212 189.869C310.565 198.827 325.204 201.599 332.44 195.206C338.887 189.51 344.472 176.431 348.307 159.818C339.114 161.852 315.778 158.466 304.085 155.766Z" fill="#121212"/>
<path id="blade_6" d="M289.583 101.101C279.353 112.071 267.377 122.722 263.758 121.398L270.578 133.286C280.812 132.574 297.446 134.412 315.181 124.971C330.115 117.02 339.835 105.729 337.916 96.2647C336.207 87.834 327.673 76.4576 315.203 64.8295C312.368 73.8082 297.767 92.3248 289.583 101.101Z" fill="#121212"/>
</g>
</g>
<g id="heatExchanger">
<g id="fins">
<g id="fins_inner" data-figma-trr="l16u1-0f">
<g id="finArray">
<g id="hexTube" filter="url(#filter0_i_1_2)">
<line x1="149.5" y1="52" x2="349.5" y2="52" stroke="#7B7B7B" stroke-width="3"/>
</g>
<g id="fins_2">
<path id="Vector 1" d="M149.5 50C150.5 50 150.5 45 150.5 45.5C150.5 46 150.5 41 151.5 41C152.3 41 152.5 44.8333 152.5 45.5C152.5 46.1667 152.7 50 153.5 50" stroke="#252525" stroke-width="1.5"/>
<path id="Vector 1_2" d="M153.5 50C154.5 50 154.5 45 154.5 45.5C154.5 46 154.5 41 155.5 41C156.3 41 156.5 44.8333 156.5 45.5C156.5 46.1667 156.7 50 157.5 50" stroke="#252525" stroke-width="1.5"/>
<path id="Vector 1_3" d="M157.5 50C158.5 50 158.5 45 158.5 45.5C158.5 46 158.5 41 159.5 41C160.3 41 160.5 44.8333 160.5 45.5C160.5 46.1667 160.7 50 161.5 50" stroke="#252525" stroke-width="1.5"/>
<path id="Vector 1_4" d="M161.5 50C162.5 50 162.5 45 162.5 45.5C162.5 46 162.5 41 163.5 41C164.3 41 164.5 44.8333 164.5 45.5C164.5 46.1667 164.7 50 165.5 50" stroke="#252525" stroke-width="1.5"/>
<path id="Vector 1_5" d="M165.5 50C166.5 50 166.5 45 166.5 45.5C166.5 46 166.5 41 167.5 41C168.3 41 168.5 44.8333 168.5 45.5C168.5 46.1667 168.7 50 169.5 50" stroke="#252525" stroke-width="1.5"/>
<path id="Vector 1_6" d="M169.5 50C170.5 50 170.5 45 170.5 45.5C170.5 46 170.5 41 171.5 41C172.3 41 172.5 44.8333 172.5 45.5C172.5 46.1667 172.7 50 173.5 50" stroke="#252525" stroke-width="1.5"/>
<path id="Vector 1_7" d="M173.5 50C174.5 50 174.5 45 174.5 45.5C174.5 46 174.5 41 175.5 41C176.3 41 176.5 44.8333 176.5 45.5C176.5 46.1667 176.7 50 177.5 50" stroke="#252525" stroke-width="1.5"/>
<path id="Vector 1_8" d="M177.5 50C178.5 50 178.5 45 178.5 45.5C178.5 46 178.5 41 179.5 41C180.3 41 180.5 44.8333 180.5 45.5C180.5 46.1667 180.7 50 181.5 50" stroke="#252525" stroke-width="1.5"/>
<path id="Vector 1_9" d="M181.5 50C182.5 50 182.5 45 182.5 45.5C182.5 46 182.5 41 183.5 41C184.3 41 184.5 44.8333 184.5 45.5C184.5 46.1667 184.7 50 185.5 50" stroke="#252525" stroke-width="1.5"/>
<path id="Vector 1_10" d="M185.5 50C186.5 50 186.5 45 186.5 45.5C186.5 46 186.5 41 187.5 41C188.3 41 188.5 44.8333 188.5 45.5C188.5 46.1667 188.7 50 189.5 50" stroke="#252525" stroke-width="1.5"/>
<path id="Vector 1_11" d="M189.5 50C190.5 50 190.5 45 190.5 45.5C190.5 46 190.5 41 191.5 41C192.3 41 192.5 44.8333 192.5 45.5C192.5 46.1667 192.7 50 193.5 50" stroke="#252525" stroke-width="1.5"/>
<path id="Vector 1_12" d="M193.5 50C194.5 50 194.5 45 194.5 45.5C194.5 46 194.5 41 195.5 41C196.3 41 196.5 44.8333 196.5 45.5C196.5 46.1667 196.7 50 197.5 50" stroke="#252525" stroke-width="1.5"/>
<path id="Vector 1_13" d="M197.5 50C198.5 50 198.5 45 198.5 45.5C198.5 46 198.5 41 199.5 41C200.3 41 200.5 44.8333 200.5 45.5C200.5 46.1667 200.7 50 201.5 50" stroke="#252525" stroke-width="1.5"/>
<path id="Vector 1_14" d="M201.5 50C202.5 50 202.5 45 202.5 45.5C202.5 46 202.5 41 203.5 41C204.3 41 204.5 44.8333 204.5 45.5C204.5 46.1667 204.7 50 205.5 50" stroke="#252525" stroke-width="1.5"/>
<path id="Vector 1_15" d="M205.5 50C206.5 50 206.5 45 206.5 45.5C206.5 46 206.5 41 207.5 41C208.3 41 208.5 44.8333 208.5 45.5C208.5 46.1667 208.7 50 209.5 50" stroke="#252525" stroke-width="1.5"/>
<path id="Vector 1_16" d="M209.5 50C210.5 50 210.5 45 210.5 45.5C210.5 46 210.5 41 211.5 41C212.3 41 212.5 44.8333 212.5 45.5C212.5 46.1667 212.7 50 213.5 50" stroke="#252525" stroke-width="1.5"/>
<path id="Vector 1_17" d="M213.5 50C214.5 50 214.5 45 214.5 45.5C214.5 46 214.5 41 215.5 41C216.3 41 216.5 44.8333 216.5 45.5C216.5 46.1667 216.7 50 217.5 50" stroke="#252525" stroke-width="1.5"/>
<path id="Vector 1_18" d="M217.5 50C218.5 50 218.5 45 218.5 45.5C218.5 46 218.5 41 219.5 41C220.3 41 220.5 44.8333 220.5 45.5C220.5 46.1667 220.7 50 221.5 50" stroke="#252525" stroke-width="1.5"/>
<path id="Vector 1_19" d="M221.5 50C222.5 50 222.5 45 222.5 45.5C222.5 46 222.5 41 223.5 41C224.3 41 224.5 44.8333 224.5 45.5C224.5 46.1667 224.7 50 225.5 50" stroke="#252525" stroke-width="1.5"/>
<path id="Vector 1_20" d="M225.5 50C226.5 50 226.5 45 226.5 45.5C226.5 46 226.5 41 227.5 41C228.3 41 228.5 44.8333 228.5 45.5C228.5 46.1667 228.7 50 229.5 50" stroke="#252525" stroke-width="1.5"/>
<path id="Vector 1_21" d="M229.5 50C230.5 50 230.5 45 230.5 45.5C230.5 46 230.5 41 231.5 41C232.3 41 232.5 44.8333 232.5 45.5C232.5 46.1667 232.7 50 233.5 50" stroke="#252525" stroke-width="1.5"/>
<path id="Vector 1_22" d="M233.5 50C234.5 50 234.5 45 234.5 45.5C234.5 46 234.5 41 235.5 41C236.3 41 236.5 44.8333 236.5 45.5C236.5 46.1667 236.7 50 237.5 50" stroke="#252525" stroke-width="1.5"/>
<path id="Vector 1_23" d="M237.5 50C238.5 50 238.5 45 238.5 45.5C238.5 46 238.5 41 239.5 41C240.3 41 240.5 44.8333 240.5 45.5C240.5 46.1667 240.7 50 241.5 50" stroke="#252525" stroke-width="1.5"/>
<path id="Vector 1_24" d="M241.5 50C242.5 50 242.5 45 242.5 45.5C242.5 46 242.5 41 243.5 41C244.3 41 244.5 44.8333 244.5 45.5C244.5 46.1667 244.7 50 245.5 50" stroke="#252525" stroke-width="1.5"/>
<path id="Vector 1_25" d="M245.5 50C246.5 50 246.5 45 246.5 45.5C246.5 46 246.5 41 247.5 41C248.3 41 248.5 44.8333 248.5 45.5C248.5 46.1667 248.7 50 249.5 50" stroke="#252525" stroke-width="1.5"/>
<path id="Vector 1_26" d="M249.5 50C250.5 50 250.5 45 250.5 45.5C250.5 46 250.5 41 251.5 41C252.3 41 252.5 44.8333 252.5 45.5C252.5 46.1667 252.7 50 253.5 50" stroke="#252525" stroke-width="1.5"/>
<path id="Vector 1_27" d="M253.5 50C254.5 50 254.5 45 254.5 45.5C254.5 46 254.5 41 255.5 41C256.3 41 256.5 44.8333 256.5 45.5C256.5 46.1667 256.7 50 257.5 50" stroke="#252525" stroke-width="1.5"/>
<path id="Vector 1_28" d="M257.5 50C258.5 50 258.5 45 258.5 45.5C258.5 46 258.5 41 259.5 41C260.3 41 260.5 44.8333 260.5 45.5C260.5 46.1667 260.7 50 261.5 50" stroke="#252525" stroke-width="1.5"/>
<path id="Vector 1_29" d="M261.5 50C262.5 50 262.5 45 262.5 45.5C262.5 46 262.5 41 263.5 41C264.3 41 264.5 44.8333 264.5 45.5C264.5 46.1667 264.7 50 265.5 50" stroke="#252525" stroke-width="1.5"/>
<path id="Vector 1_30" d="M265.5 50C266.5 50 266.5 45 266.5 45.5C266.5 46 266.5 41 267.5 41C268.3 41 268.5 44.8333 268.5 45.5C268.5 46.1667 268.7 50 269.5 50" stroke="#252525" stroke-width="1.5"/>
<path id="Vector 1_31" d="M269.5 50C270.5 50 270.5 45 270.5 45.5C270.5 46 270.5 41 271.5 41C272.3 41 272.5 44.8333 272.5 45.5C272.5 46.1667 272.7 50 273.5 50" stroke="#252525" stroke-width="1.5"/>
<path id="Vector 1_32" d="M273.5 50C274.5 50 274.5 45 274.5 45.5C274.5 46 274.5 41 275.5 41C276.3 41 276.5 44.8333 276.5 45.5C276.5 46.1667 276.7 50 277.5 50" stroke="#252525" stroke-width="1.5"/>
<path id="Vector 1_33" d="M277.5 50C278.5 50 278.5 45 278.5 45.5C278.5 46 278.5 41 279.5 41C280.3 41 280.5 44.8333 280.5 45.5C280.5 46.1667 280.7 50 281.5 50" stroke="#252525" stroke-width="1.5"/>
<path id="Vector 1_34" d="M281.5 50C282.5 50 282.5 45 282.5 45.5C282.5 46 282.5 41 283.5 41C284.3 41 284.5 44.8333 284.5 45.5C284.5 46.1667 284.7 50 285.5 50" stroke="#252525" stroke-width="1.5"/>
<path id="Vector 1_35" d="M285.5 50C286.5 50 286.5 45 286.5 45.5C286.5 46 286.5 41 287.5 41C288.3 41 288.5 44.8333 288.5 45.5C288.5 46.1667 288.7 50 289.5 50" stroke="#252525" stroke-width="1.5"/>
<path id="Vector 1_36" d="M289.5 50C290.5 50 290.5 45 290.5 45.5C290.5 46 290.5 41 291.5 41C292.3 41 292.5 44.8333 292.5 45.5C292.5 46.1667 292.7 50 293.5 50" stroke="#252525" stroke-width="1.5"/>
<path id="Vector 1_37" d="M293.5 50C294.5 50 294.5 45 294.5 45.5C294.5 46 294.5 41 295.5 41C296.3 41 296.5 44.8333 296.5 45.5C296.5 46.1667 296.7 50 297.5 50" stroke="#252525" stroke-width="1.5"/>
<path id="Vector 1_38" d="M297.5 50C298.5 50 298.5 45 298.5 45.5C298.5 46 298.5 41 299.5 41C300.3 41 300.5 44.8333 300.5 45.5C300.5 46.1667 300.7 50 301.5 50" stroke="#252525" stroke-width="1.5"/>
<path id="Vector 1_39" d="M301.5 50C302.5 50 302.5 45 302.5 45.5C302.5 46 302.5 41 303.5 41C304.3 41 304.5 44.8333 304.5 45.5C304.5 46.1667 304.7 50 305.5 50" stroke="#252525" stroke-width="1.5"/>
<path id="Vector 1_40" d="M305.5 50C306.5 50 306.5 45 306.5 45.5C306.5 46 306.5 41 307.5 41C308.3 41 308.5 44.8333 308.5 45.5C308.5 46.1667 308.7 50 309.5 50" stroke="#252525" stroke-width="1.5"/>
<g id="Repeat group 1">
<g id="Repeat group 1_inner" data-figma-trr="l10u1-0f">
<path id="Vector 2" d="M309.5 50C310.5 50 310.5 45 310.5 45.5C310.5 46 310.5 41 311.5 41C312.3 41 312.5 44.8333 312.5 45.5C312.5 46.1667 312.7 50 313.5 50" stroke="#252525" stroke-width="1.5"/>
</g>
<use xlink:href="#Repeat%20group%201_inner" transform="translate(4)"/>
<use xlink:href="#Repeat%20group%201_inner" transform="translate(8)"/>
<use xlink:href="#Repeat%20group%201_inner" transform="translate(12)"/>
<use xlink:href="#Repeat%20group%201_inner" transform="translate(16)"/>
<use xlink:href="#Repeat%20group%201_inner" transform="translate(20)"/>
<use xlink:href="#Repeat%20group%201_inner" transform="translate(24)"/>
<use xlink:href="#Repeat%20group%201_inner" transform="translate(28)"/>
<use xlink:href="#Repeat%20group%201_inner" transform="translate(32)"/>
<use xlink:href="#Repeat%20group%201_inner" transform="translate(36)"/>
</g>
</g>
</g>
</g>
<use xlink:href="#fins_inner" transform="translate(0 12.5)"/>
<use xlink:href="#fins_inner" transform="translate(0 25)"/>
<use xlink:href="#fins_inner" transform="translate(0 37.5)"/>
<use xlink:href="#fins_inner" transform="translate(0 50)"/>
<use xlink:href="#fins_inner" transform="translate(0 62.5)"/>
<use xlink:href="#fins_inner" transform="translate(0 75)"/>
<use xlink:href="#fins_inner" transform="translate(0 87.5)"/>
<use xlink:href="#fins_inner" transform="translate(0 100)"/>
<use xlink:href="#fins_inner" transform="translate(0 112.5)"/>
<use xlink:href="#fins_inner" transform="translate(0 125)"/>
<use xlink:href="#fins_inner" transform="translate(0 137.5)"/>
<use xlink:href="#fins_inner" transform="translate(0 150)"/>
<use xlink:href="#fins_inner" transform="translate(0 162.5)"/>
<use xlink:href="#fins_inner" transform="translate(0 175)"/>
<use xlink:href="#fins_inner" transform="translate(0 187.5)"/>
</g>
<path id="hexBase" d="M143.187 241.5H355.587C360.207 241.5 364.156 244.823 364.946 249.375L373.975 301.375C374.983 307.184 370.511 312.5 364.614 312.5H132.715C126.715 312.5 122.217 307.006 123.401 301.124L133.874 249.124C134.767 244.69 138.663 241.5 143.187 241.5Z" fill="#474747" stroke="black"/>
<g id="outerHex">
<mask id="path-114-inside-3_1_2" fill="white">
<path d="M340.5 26C353.755 26 364.5 36.7452 364.5 50V232C364.5 245.255 353.755 256 340.5 256H158.5C145.245 256 134.5 245.255 134.5 232V50C134.5 36.7452 145.245 26 158.5 26H340.5ZM164.5 41C156.216 41 149.5 47.7157 149.5 56V226C149.5 234.284 156.216 241 164.5 241H334.5C342.784 241 349.5 234.284 349.5 226V56C349.5 47.7157 342.784 41 334.5 41H164.5Z"/>
</mask>
<path d="M340.5 26C353.755 26 364.5 36.7452 364.5 50V232C364.5 245.255 353.755 256 340.5 256H158.5C145.245 256 134.5 245.255 134.5 232V50C134.5 36.7452 145.245 26 158.5 26H340.5ZM164.5 41C156.216 41 149.5 47.7157 149.5 56V226C149.5 234.284 156.216 241 164.5 241H334.5C342.784 241 349.5 234.284 349.5 226V56C349.5 47.7157 342.784 41 334.5 41H164.5Z" fill="#2F2F2F"/>
<path d="M164.5 41L164.5 40H164.5L164.5 41ZM349.5 56L350.5 56V56L349.5 56ZM340.5 26V27C353.203 27 363.5 37.2975 363.5 50H364.5H365.5C365.5 36.1929 354.307 25 340.5 25V26ZM364.5 50H363.5V232H364.5H365.5V50H364.5ZM364.5 232H363.5C363.5 244.703 353.203 255 340.5 255V256V257C354.307 257 365.5 245.807 365.5 232H364.5ZM340.5 256V255H158.5V256V257H340.5V256ZM158.5 256V255C145.797 255 135.5 244.703 135.5 232H134.5H133.5C133.5 245.807 144.693 257 158.5 257V256ZM134.5 232H135.5V50H134.5H133.5V232H134.5ZM134.5 50H135.5C135.5 37.2975 145.797 27 158.5 27V26V25C144.693 25 133.5 36.1929 133.5 50H134.5ZM158.5 26V27H340.5V26V25H158.5V26ZM164.5 41L164.5 40C155.663 40 148.5 47.1634 148.5 56H149.5H150.5C150.5 48.268 156.768 42 164.5 42L164.5 41ZM149.5 56H148.5V226H149.5H150.5V56H149.5ZM149.5 226H148.5C148.5 234.837 155.663 242 164.5 242V241V240C156.768 240 150.5 233.732 150.5 226H149.5ZM164.5 241V242H334.5V241V240H164.5V241ZM334.5 241V242C343.337 242 350.5 234.837 350.5 226H349.5H348.5C348.5 233.732 342.232 240 334.5 240V241ZM349.5 226H350.5V56H349.5H348.5V226H349.5ZM349.5 56L350.5 56C350.5 47.1634 343.337 40 334.5 40V41V42C342.232 42 348.5 48.268 348.5 56L349.5 56ZM334.5 41V40H164.5V41V42H334.5V41Z" fill="black" mask="url(#path-114-inside-3_1_2)"/>
</g>
<path id="Rectangle 12" d="M134 221.16L117.022 211.965C113.312 209.955 111 206.073 111 201.853V79.1475C111 74.9271 113.312 71.0453 117.022 69.0352L134 59.8389V221.16Z" fill="#2F2F2F" stroke="black"/>
<path id="Rectangle 13" d="M365 221.16L381.978 211.965C385.688 209.955 388 206.073 388 201.853V79.1475C388 74.9271 385.688 71.0453 381.978 69.0352L365 59.8389V221.16Z" fill="#2F2F2F" stroke="black"/>
<path id="Rectangle 14" d="M99.5 126.5H110V155.5H99.5C97.567 155.5 96 153.933 96 152V130C96 128.067 97.567 126.5 99.5 126.5Z" fill="#2F2F2F" stroke="black"/>
<path id="Rectangle 15" d="M399.5 126.5H389V155.5H399.5C401.433 155.5 403 153.933 403 152V130C403 128.067 401.433 126.5 399.5 126.5Z" fill="#2F2F2F" stroke="black"/>
</g>
<path id="inTubeFill" d="M504.5 277C380.455 277 27 445.291 27 221C27 186.5 45 141 95.5 141" stroke="#2F7CEF" stroke-opacity="0.6" stroke-width="8"/>
<path id="inTube" d="M504.5 277C380.455 277 27 445.291 27 221C27 186.5 45 141 95.5 141" stroke="#AEAEAE" stroke-opacity="0.5" stroke-width="12"/>
<g id="fanCtrl">
<g id="fanCtrlBase">
<rect id="Rectangle 5_2" x="226" y="259.5" width="55" height="42" rx="3.5" fill="#7D7D7D" stroke="black"/>
<rect id="Rectangle 6_2" x="227.574" y="263.778" width="51.8519" height="33.4444" rx="4" fill="#989898"/>
</g>
<g id="fanLabel">
<rect id="Rectangle 7_2" x="238.5" y="262" width="30" height="14" fill="#F6F6F6"/>
<path id="Fan" d="M240.557 273V264.273H245.79V265.21H241.614V268.159H245.398V269.097H241.614V273H240.557ZM249.39 273.153C248.975 273.153 248.598 273.075 248.26 272.919C247.922 272.76 247.654 272.531 247.455 272.233C247.256 271.932 247.157 271.568 247.157 271.142C247.157 270.767 247.23 270.463 247.378 270.23C247.526 269.994 247.723 269.81 247.971 269.676C248.218 269.543 248.49 269.443 248.789 269.378C249.09 269.31 249.392 269.256 249.696 269.216C250.094 269.165 250.417 269.126 250.664 269.101C250.914 269.072 251.096 269.026 251.209 268.96C251.326 268.895 251.384 268.781 251.384 268.619V268.585C251.384 268.165 251.269 267.838 251.039 267.605C250.811 267.372 250.466 267.256 250.003 267.256C249.523 267.256 249.147 267.361 248.874 267.571C248.601 267.781 248.409 268.006 248.299 268.244L247.344 267.903C247.515 267.506 247.742 267.196 248.026 266.974C248.313 266.75 248.625 266.594 248.963 266.506C249.304 266.415 249.64 266.369 249.969 266.369C250.179 266.369 250.421 266.395 250.694 266.446C250.969 266.494 251.235 266.595 251.49 266.749C251.749 266.902 251.963 267.134 252.134 267.443C252.304 267.753 252.39 268.168 252.39 268.688V273H251.384V272.114H251.333C251.265 272.256 251.151 272.408 250.992 272.57C250.833 272.732 250.621 272.869 250.357 272.983C250.093 273.097 249.77 273.153 249.39 273.153ZM249.543 272.25C249.941 272.25 250.276 272.172 250.549 272.016C250.824 271.859 251.032 271.658 251.171 271.411C251.313 271.163 251.384 270.903 251.384 270.631V269.71C251.341 269.761 251.248 269.808 251.103 269.851C250.961 269.891 250.796 269.926 250.608 269.957C250.424 269.986 250.243 270.011 250.067 270.034C249.894 270.054 249.753 270.071 249.645 270.085C249.384 270.119 249.14 270.175 248.912 270.251C248.688 270.325 248.506 270.437 248.367 270.588C248.23 270.736 248.162 270.937 248.162 271.193C248.162 271.543 248.292 271.807 248.55 271.986C248.811 272.162 249.142 272.25 249.543 272.25ZM255.231 269.062V273H254.225V266.455H255.197V267.477H255.282C255.435 267.145 255.668 266.878 255.981 266.676C256.293 266.472 256.697 266.369 257.191 266.369C257.634 266.369 258.022 266.46 258.354 266.642C258.687 266.821 258.945 267.094 259.13 267.46C259.315 267.824 259.407 268.284 259.407 268.841V273H258.401V268.909C258.401 268.395 258.268 267.994 258.001 267.707C257.734 267.418 257.367 267.273 256.901 267.273C256.58 267.273 256.293 267.342 256.041 267.482C255.791 267.621 255.593 267.824 255.448 268.091C255.303 268.358 255.231 268.682 255.231 269.062Z" fill="black"/>
</g>
<g id="fanSwitch">
<rect id="fanSwitchBack" x="234.333" y="278.611" width="37.2222" height="16.5185" rx="0.5" fill="#1C1C1C" stroke="black"/>
<rect id="fanSwitchOn" x="235.426" y="279.704" width="17.5185" height="14.3333" fill="#D90000"/>
<rect id="fanSwitchOff" x="252.944" y="279.704" width="17.5185" height="14.3333" fill="#7B0101"/>
<circle id="Ellipse 6_2" cx="263.296" cy="286.87" r="4.48148" stroke="#EED5D5"/>
<line id="Line 1_2" x1="242.296" y1="281.296" x2="242.296" y2="292.444" stroke="#EED5D5"/>
</g>
</g>
<path id="outTubeFill" d="M403.5 142.5C473.911 142.5 454.246 80.3542 505.5 79.5C529.5 79.1 543 88.5001 543 101.5" stroke="#2F7CEF" stroke-opacity="0.6" stroke-width="8"/>
<path id="outTube" d="M403.5 142.5C473.911 142.5 454.246 80.3542 505.5 79.5C529.5 79.1 543 88.5001 543 101.5" stroke="#AEAEAE" stroke-opacity="0.5" stroke-width="12"/>
</g>
<defs>
<filter id="filter0_i_1_2" x="149.5" y="50.5" width="200" height="3" filterUnits="userSpaceOnUse" color-interpolation-filters="sRGB">
<feFlood flood-opacity="0" result="BackgroundImageFix"/>
<feBlend mode="normal" in="SourceGraphic" in2="BackgroundImageFix" result="shape"/>
<feColorMatrix in="SourceAlpha" type="matrix" values="0 0 0 0 0 0 0 0 0 0 0 0 0 0 0 0 0 0 127 0" result="hardAlpha"/>
<feOffset/>
<feGaussianBlur stdDeviation="1.5"/>
<feComposite in2="hardAlpha" operator="arithmetic" k2="-1" k3="1"/>
<feColorMatrix type="matrix" values="0 0 0 0 0 0 0 0 0 0 0 0 0 0 0 0 0 0 1 0"/>
<feBlend mode="normal" in2="shape" result="effect1_innerShadow_1_2"/>
</filter>
</defs>
</svg>
