<svg width="583" height="391" viewBox="0 0 583 391" fill="none" xmlns="http://www.w3.org/2000/svg">
<g id="canvas">
<rect width="583" height="391" fill="white"/>
<circle id="Ellipse 1" cx="249.267" cy="206" r="99.5" fill="url(#paint5_radial_1_2)" stroke="black"/>
<g id="Union">
<mask id="path-21-inside-1_1_2" fill="white">
<path d="M86.767 32C93.1183 32 98.267 37.1487 98.267 43.5V328.31C101.944 331.518 104.267 336.237 104.267 341.5C104.267 351.165 96.432 359 86.767 359C77.102 359 69.267 351.165 69.267 341.5C69.267 336.237 71.5905 331.518 75.267 328.31V43.5C75.267 37.1487 80.4158 32 86.767 32Z"/>
</mask>
<path d="M86.767 32C93.1183 32 98.267 37.1487 98.267 43.5V328.31C101.944 331.518 104.267 336.237 104.267 341.5C104.267 351.165 96.432 359 86.767 359C77.102 359 69.267 351.165 69.267 341.5C69.267 336.237 71.5905 331.518 75.267 328.31V43.5C75.267 37.1487 80.4158 32 86.767 32Z" fill="#D9D9D9"/>
<path d="M98.267 328.31H97.267V328.764L97.6096 329.063L98.267 328.31ZM75.267 328.31L75.9245 329.063L76.267 328.764V328.31H75.267ZM75.267 43.5L74.267 43.5V43.5H75.267ZM86.767 32V33C92.566 33 97.267 37.701 97.267 43.5H98.267H99.267C99.267 36.5964 93.6706 31 86.767 31V32ZM98.267 43.5H97.267V328.31H98.267H99.267V43.5H98.267ZM98.267 328.31L97.6096 329.063C101.078 332.089 103.267 336.538 103.267 341.5H104.267H105.267C105.267 335.936 102.809 330.946 98.9245 327.556L98.267 328.31ZM104.267 341.5H103.267C103.267 350.613 95.8797 358 86.767 358V359V360C96.9843 360 105.267 351.717 105.267 341.5H104.267ZM86.767 359V358C77.6543 358 70.267 350.613 70.267 341.5H69.267H68.267C68.267 351.717 76.5498 360 86.767 360V359ZM69.267 341.5H70.267C70.267 336.538 72.4562 332.089 75.9245 329.063L75.267 328.31L74.6096 327.556C70.7247 330.946 68.267 335.936 68.267 341.5H69.267ZM75.267 328.31H76.267V43.5H75.267H74.267V328.31H75.267ZM75.267 43.5L76.267 43.5C76.267 37.701 80.968 33 86.767 33V32V31C79.8635 31 74.267 36.5964 74.267 43.5L75.267 43.5Z" fill="black" mask="url(#path-21-inside-1_1_2)"/>
</g>
<rect id="Rectangle 55" x="79.767" y="36.5" width="14" height="316" rx="7" fill="white" stroke="black"/>
<g id="Union_2">
<mask id="path-24-inside-2_1_2" fill="white">
<path d="M94.267 331.5C97.3029 333.781 99.267 337.411 99.267 341.5C99.267 348.404 93.6706 354 86.767 354C79.8635 354 74.267 348.404 74.267 341.5C74.267 337.411 76.2312 333.781 79.267 331.5V328H94.267V331.5Z"/>
</mask>
<path d="M94.267 331.5C97.3029 333.781 99.267 337.411 99.267 341.5C99.267 348.404 93.6706 354 86.767 354C79.8635 354 74.267 348.404 74.267 341.5C74.267 337.411 76.2312 333.781 79.267 331.5V328H94.267V331.5Z" fill="#FF5151"/>
<path d="M94.267 331.5H93.267V332L93.6664 332.3L94.267 331.5ZM79.267 331.5L79.8676 332.3L80.267 332V331.5H79.267ZM79.267 328V327H78.267V328H79.267ZM94.267 328H95.267V327H94.267V328ZM94.267 331.5L93.6664 332.3C96.4618 334.399 98.267 337.739 98.267 341.5H99.267H100.267C100.267 337.083 98.144 333.162 94.8676 330.7L94.267 331.5ZM99.267 341.5H98.267C98.267 347.851 93.1183 353 86.767 353V354V355C94.2229 355 100.267 348.956 100.267 341.5H99.267ZM86.767 354V353C80.4158 353 75.267 347.851 75.267 341.5H74.267H73.267C73.267 348.956 79.3112 355 86.767 355V354ZM74.267 341.5H75.267C75.267 337.739 77.0723 334.399 79.8676 332.3L79.267 331.5L78.6664 330.7C75.39 333.162 73.267 337.083 73.267 341.5H74.267ZM79.267 331.5H80.267V328H79.267H78.267V331.5H79.267ZM79.267 328V329H94.267V328V327H79.267V328ZM94.267 328H93.267V331.5H94.267H95.267V328H94.267Z" fill="black" mask="url(#path-24-inside-2_1_2)"/>
</g>
<g id="Rectangle 57">
<mask id="path-26-inside-3_1_2" fill="white">
<path d="M80.267 49H93.267V329H80.267V49Z"/>
</mask>
<path d="M80.267 49H93.267V329H80.267V49Z" fill="#FF5151"/>
<path d="M80.267 49V50H93.267V49V48H80.267V49Z" fill="black" mask="url(#path-26-inside-3_1_2)"/>
</g>
<g id="Vector_2">
<path d="M46.2386 45.2727V54H45.1818V46.3807H45.1307L43 47.7955V46.7216L45.1818 45.2727H46.2386Z" fill="black"/>
<path d="M48.7486 54V53.233L51.6293 50.0795C51.9673 49.7102 52.2457 49.3892 52.4645 49.1165C52.6832 48.8409 52.8452 48.5824 52.9503 48.3409C53.0582 48.0966 53.1122 47.8409 53.1122 47.5739C53.1122 47.267 53.0384 47.0014 52.8906 46.777C52.7457 46.5526 52.5469 46.3793 52.294 46.2571C52.0412 46.1349 51.7571 46.0739 51.4418 46.0739C51.1065 46.0739 50.8139 46.1435 50.5639 46.2827C50.3168 46.419 50.125 46.6108 49.9886 46.858C49.8551 47.1051 49.7884 47.3949 49.7884 47.7273H48.7827C48.7827 47.2159 48.9006 46.767 49.1364 46.3807C49.3722 45.9943 49.6932 45.6932 50.0994 45.4773C50.5085 45.2614 50.9673 45.1534 51.4759 45.1534C51.9872 45.1534 52.4403 45.2614 52.8352 45.4773C53.2301 45.6932 53.5398 45.9844 53.7642 46.3509C53.9886 46.7173 54.1009 47.125 54.1009 47.5739C54.1009 47.8949 54.0426 48.2088 53.9261 48.5156C53.8125 48.8196 53.6136 49.1591 53.3295 49.5341C53.0483 49.9063 52.6577 50.3608 52.1577 50.8977L50.1974 52.9943V53.0625H54.2543V54H48.7486Z" fill="black"/>
<path d="M58.8608 54.1193C58.2187 54.1193 57.6719 53.9446 57.2202 53.5952C56.7685 53.2429 56.4233 52.733 56.1847 52.0653C55.946 51.3949 55.8267 50.5852 55.8267 49.6364C55.8267 48.6932 55.946 47.8878 56.1847 47.2202C56.4261 46.5497 56.7727 46.0384 57.2244 45.6861C57.679 45.331 58.2244 45.1534 58.8608 45.1534C59.4972 45.1534 60.0412 45.331 60.4929 45.6861C60.9474 46.0384 61.294 46.5497 61.5327 47.2202C61.7741 47.8878 61.8949 48.6932 61.8949 49.6364C61.8949 50.5852 61.7756 51.3949 61.5369 52.0653C61.2983 52.733 60.9531 53.2429 60.5014 53.5952C60.0497 53.9446 59.5028 54.1193 58.8608 54.1193ZM58.8608 53.1818C59.4972 53.1818 59.9915 52.875 60.3438 52.2614C60.696 51.6477 60.8722 50.7727 60.8722 49.6364C60.8722 48.8807 60.7912 48.2372 60.6293 47.706C60.4702 47.1747 60.2401 46.7699 59.9389 46.4915C59.6406 46.2131 59.2812 46.0739 58.8608 46.0739C58.2301 46.0739 57.7372 46.3849 57.3821 47.0071C57.027 47.6264 56.8494 48.5028 56.8494 49.6364C56.8494 50.392 56.929 51.0341 57.0881 51.5625C57.2472 52.0909 57.4759 52.4929 57.7741 52.7685C58.0753 53.044 58.4375 53.1818 58.8608 53.1818Z" fill="black"/>
<path d="M46.2386 90.2727V99H45.1818V91.3807H45.1307L43 92.7955V91.7216L45.1818 90.2727H46.2386Z" fill="black"/>
<path d="M51.5952 99.1193C50.9531 99.1193 50.4063 98.9446 49.9545 98.5952C49.5028 98.2429 49.1577 97.733 48.919 97.0653C48.6804 96.3949 48.5611 95.5852 48.5611 94.6364C48.5611 93.6932 48.6804 92.8878 48.919 92.2202C49.1605 91.5497 49.5071 91.0384 49.9588 90.6861C50.4134 90.331 50.9588 90.1534 51.5952 90.1534C52.2315 90.1534 52.7756 90.331 53.2273 90.6861C53.6818 91.0384 54.0284 91.5497 54.267 92.2202C54.5085 92.8878 54.6293 93.6932 54.6293 94.6364C54.6293 95.5852 54.5099 96.3949 54.2713 97.0653C54.0327 97.733 53.6875 98.2429 53.2358 98.5952C52.7841 98.9446 52.2372 99.1193 51.5952 99.1193ZM51.5952 98.1818C52.2315 98.1818 52.7259 97.875 53.0781 97.2614C53.4304 96.6477 53.6065 95.7727 53.6065 94.6364C53.6065 93.8807 53.5256 93.2372 53.3636 92.706C53.2045 92.1747 52.9744 91.7699 52.6733 91.4915C52.375 91.2131 52.0156 91.0739 51.5952 91.0739C50.9645 91.0739 50.4716 91.3849 50.1165 92.0071C49.7614 92.6264 49.5838 93.5028 49.5838 94.6364C49.5838 95.392 49.6634 96.0341 49.8224 96.5625C49.9815 97.0909 50.2102 97.4929 50.5085 97.7685C50.8097 98.044 51.1719 98.1818 51.5952 98.1818Z" fill="black"/>
<path d="M59.0952 99.1193C58.4531 99.1193 57.9062 98.9446 57.4545 98.5952C57.0028 98.2429 56.6577 97.733 56.419 97.0653C56.1804 96.3949 56.0611 95.5852 56.0611 94.6364C56.0611 93.6932 56.1804 92.8878 56.419 92.2202C56.6605 91.5497 57.0071 91.0384 57.4588 90.6861C57.9134 90.331 58.4588 90.1534 59.0952 90.1534C59.7315 90.1534 60.2756 90.331 60.7273 90.6861C61.1818 91.0384 61.5284 91.5497 61.767 92.2202C62.0085 92.8878 62.1293 93.6932 62.1293 94.6364C62.1293 95.5852 62.0099 96.3949 61.7713 97.0653C61.5327 97.733 61.1875 98.2429 60.7358 98.5952C60.2841 98.9446 59.7372 99.1193 59.0952 99.1193ZM59.0952 98.1818C59.7315 98.1818 60.2259 97.875 60.5781 97.2614C60.9304 96.6477 61.1065 95.7727 61.1065 94.6364C61.1065 93.8807 61.0256 93.2372 60.8636 92.706C60.7045 92.1747 60.4744 91.7699 60.1733 91.4915C59.875 91.2131 59.5156 91.0739 59.0952 91.0739C58.4645 91.0739 57.9716 91.3849 57.6165 92.0071C57.2614 92.6264 57.0838 93.5028 57.0838 94.6364C57.0838 95.392 57.1634 96.0341 57.3224 96.5625C57.4815 97.0909 57.7102 97.4929 58.0085 97.7685C58.3097 98.044 58.6719 98.1818 59.0952 98.1818Z" fill="black"/>
<path d="M50.9659 144.119C50.3807 144.119 49.8636 144.016 49.4148 143.808C48.9688 143.598 48.6207 143.31 48.3707 142.943C48.1207 142.574 47.9972 142.153 48 141.682C47.9972 141.313 48.0696 140.972 48.2173 140.659C48.3651 140.344 48.5668 140.081 48.8224 139.871C49.081 139.658 49.3693 139.523 49.6875 139.466V139.415C49.2699 139.307 48.9375 139.072 48.6903 138.712C48.4432 138.348 48.321 137.935 48.3239 137.472C48.321 137.028 48.4332 136.632 48.6605 136.283C48.8878 135.933 49.2003 135.658 49.598 135.456C49.9986 135.254 50.4545 135.153 50.9659 135.153C51.4716 135.153 51.9233 135.254 52.321 135.456C52.7188 135.658 53.0313 135.933 53.2585 136.283C53.4886 136.632 53.6051 137.028 53.608 137.472C53.6051 137.935 53.4787 138.348 53.2287 138.712C52.9815 139.072 52.6534 139.307 52.2443 139.415V139.466C52.5597 139.523 52.8438 139.658 53.0966 139.871C53.3494 140.081 53.5511 140.344 53.7017 140.659C53.8523 140.972 53.929 141.313 53.9318 141.682C53.929 142.153 53.8011 142.574 53.5483 142.943C53.2983 143.31 52.9503 143.598 52.5043 143.808C52.0611 144.016 51.5483 144.119 50.9659 144.119ZM50.9659 143.182C51.3608 143.182 51.7017 143.118 51.9886 142.99C52.2756 142.862 52.4972 142.682 52.6534 142.449C52.8097 142.216 52.8892 141.943 52.892 141.631C52.8892 141.301 52.804 141.01 52.6364 140.757C52.4688 140.504 52.2401 140.305 51.9503 140.161C51.6634 140.016 51.3352 139.943 50.9659 139.943C50.5938 139.943 50.2614 140.016 49.9688 140.161C49.679 140.305 49.4503 140.504 49.2827 140.757C49.1179 141.01 49.0369 141.301 49.0398 141.631C49.0369 141.943 49.1122 142.216 49.2656 142.449C49.4219 142.682 49.6449 142.862 49.9347 142.99C50.2244 143.118 50.5682 143.182 50.9659 143.182ZM50.9659 139.04C51.2784 139.04 51.5554 138.977 51.7969 138.852C52.0412 138.727 52.233 138.553 52.3722 138.328C52.5114 138.104 52.5824 137.841 52.5852 137.54C52.5824 137.244 52.5128 136.987 52.3764 136.768C52.2401 136.547 52.0511 136.376 51.8097 136.257C51.5682 136.135 51.2869 136.074 50.9659 136.074C50.6392 136.074 50.3537 136.135 50.1094 136.257C49.8651 136.376 49.6761 136.547 49.5426 136.768C49.4091 136.987 49.3438 137.244 49.3466 137.54C49.3438 137.841 49.4105 138.104 49.5469 138.328C49.6861 138.553 49.8778 138.727 50.1222 138.852C50.3665 138.977 50.6477 139.04 50.9659 139.04Z" fill="black"/>
<path d="M58.4116 144.119C57.7695 144.119 57.2227 143.945 56.771 143.595C56.3192 143.243 55.9741 142.733 55.7354 142.065C55.4968 141.395 55.3775 140.585 55.3775 139.636C55.3775 138.693 55.4968 137.888 55.7354 137.22C55.9769 136.55 56.3235 136.038 56.7752 135.686C57.2298 135.331 57.7752 135.153 58.4116 135.153C59.0479 135.153 59.592 135.331 60.0437 135.686C60.4982 136.038 60.8448 136.55 61.0835 137.22C61.3249 137.888 61.4457 138.693 61.4457 139.636C61.4457 140.585 61.3263 141.395 61.0877 142.065C60.8491 142.733 60.5039 143.243 60.0522 143.595C59.6005 143.945 59.0536 144.119 58.4116 144.119ZM58.4116 143.182C59.0479 143.182 59.5423 142.875 59.8945 142.261C60.2468 141.648 60.4229 140.773 60.4229 139.636C60.4229 138.881 60.342 138.237 60.18 137.706C60.021 137.175 59.7908 136.77 59.4897 136.491C59.1914 136.213 58.832 136.074 58.4116 136.074C57.7809 136.074 57.288 136.385 56.9329 137.007C56.5778 137.626 56.4002 138.503 56.4002 139.636C56.4002 140.392 56.4798 141.034 56.6388 141.562C56.7979 142.091 57.0266 142.493 57.3249 142.768C57.6261 143.044 57.9883 143.182 58.4116 143.182Z" fill="black"/>
<path d="M51.0682 189.119C50.7102 189.114 50.3523 189.045 49.9943 188.915C49.6364 188.784 49.3097 188.564 49.0142 188.254C48.7187 187.942 48.4815 187.52 48.3026 186.989C48.1236 186.455 48.0341 185.784 48.0341 184.977C48.0341 184.205 48.1065 183.52 48.2514 182.923C48.3963 182.324 48.6065 181.82 48.8821 181.411C49.1577 180.999 49.4901 180.686 49.8793 180.473C50.2713 180.26 50.7131 180.153 51.2045 180.153C51.6932 180.153 52.1278 180.251 52.5085 180.447C52.892 180.641 53.2045 180.911 53.446 181.257C53.6875 181.604 53.8438 182.003 53.9148 182.455H52.875C52.7784 182.062 52.5909 181.737 52.3125 181.479C52.0341 181.22 51.6648 181.091 51.2045 181.091C50.5284 181.091 49.9957 181.385 49.6065 181.973C49.2202 182.561 49.0256 183.386 49.0227 184.449H49.0909C49.25 184.207 49.4389 184.001 49.6577 183.831C49.8793 183.658 50.1236 183.524 50.3906 183.43C50.6577 183.337 50.9403 183.29 51.2386 183.29C51.7386 183.29 52.196 183.415 52.6108 183.665C53.0256 183.912 53.358 184.254 53.608 184.692C53.858 185.126 53.983 185.625 53.983 186.188C53.983 186.727 53.8622 187.222 53.6207 187.67C53.3793 188.116 53.0398 188.472 52.6023 188.736C52.1676 188.997 51.6563 189.125 51.0682 189.119ZM51.0682 188.182C51.4261 188.182 51.7472 188.092 52.0312 187.913C52.3182 187.734 52.544 187.494 52.7088 187.193C52.8764 186.892 52.9602 186.557 52.9602 186.188C52.9602 185.827 52.8793 185.499 52.7173 185.203C52.5582 184.905 52.3381 184.668 52.0568 184.491C51.7784 184.315 51.4602 184.227 51.1023 184.227C50.8324 184.227 50.581 184.281 50.348 184.389C50.1151 184.494 49.9105 184.639 49.7344 184.824C49.5611 185.009 49.4247 185.22 49.3253 185.459C49.2259 185.695 49.1761 185.943 49.1761 186.205C49.1761 186.551 49.2571 186.875 49.419 187.176C49.5838 187.477 49.8082 187.72 50.0923 187.905C50.3793 188.089 50.7045 188.182 51.0682 188.182Z" fill="black"/>
<path d="M58.5053 189.119C57.8633 189.119 57.3164 188.945 56.8647 188.595C56.413 188.243 56.0678 187.733 55.8292 187.065C55.5906 186.395 55.4712 185.585 55.4712 184.636C55.4712 183.693 55.5906 182.888 55.8292 182.22C56.0707 181.55 56.4173 181.038 56.869 180.686C57.3235 180.331 57.869 180.153 58.5053 180.153C59.1417 180.153 59.6857 180.331 60.1374 180.686C60.592 181.038 60.9386 181.55 61.1772 182.22C61.4187 182.888 61.5394 183.693 61.5394 184.636C61.5394 185.585 61.4201 186.395 61.1815 187.065C60.9428 187.733 60.5977 188.243 60.146 188.595C59.6942 188.945 59.1474 189.119 58.5053 189.119ZM58.5053 188.182C59.1417 188.182 59.636 187.875 59.9883 187.261C60.3406 186.648 60.5167 185.773 60.5167 184.636C60.5167 183.881 60.4357 183.237 60.2738 182.706C60.1147 182.175 59.8846 181.77 59.5835 181.491C59.2852 181.213 58.9258 181.074 58.5053 181.074C57.8746 181.074 57.3817 181.385 57.0266 182.007C56.6715 182.626 56.494 183.503 56.494 184.636C56.494 185.392 56.5735 186.034 56.7326 186.562C56.8917 187.091 57.1204 187.493 57.4187 187.768C57.7198 188.044 58.082 188.182 58.5053 188.182Z" fill="black"/>
<path d="M47.9659 232.21V231.341L51.8011 225.273H52.4318V226.619H52.0057L49.108 231.205V231.273H54.2727V232.21H47.9659ZM52.0739 234V225.273H53.0795V234H52.0739Z" fill="black"/>
<path d="M58.7163 234.119C58.0742 234.119 57.5273 233.945 57.0756 233.595C56.6239 233.243 56.2788 232.733 56.0401 232.065C55.8015 231.395 55.6822 230.585 55.6822 229.636C55.6822 228.693 55.8015 227.888 56.0401 227.22C56.2816 226.55 56.6282 226.038 57.0799 225.686C57.5344 225.331 58.0799 225.153 58.7163 225.153C59.3526 225.153 59.8967 225.331 60.3484 225.686C60.8029 226.038 61.1495 226.55 61.3881 227.22C61.6296 227.888 61.7504 228.693 61.7504 229.636C61.7504 230.585 61.631 231.395 61.3924 232.065C61.1538 232.733 60.8086 233.243 60.3569 233.595C59.9052 233.945 59.3583 234.119 58.7163 234.119ZM58.7163 233.182C59.3526 233.182 59.8469 232.875 60.1992 232.261C60.5515 231.648 60.7276 230.773 60.7276 229.636C60.7276 228.881 60.6467 228.237 60.4847 227.706C60.3256 227.175 60.0955 226.77 59.7944 226.491C59.4961 226.213 59.1367 226.074 58.7163 226.074C58.0856 226.074 57.5927 226.385 57.2376 227.007C56.8825 227.626 56.7049 228.503 56.7049 229.636C56.7049 230.392 56.7844 231.034 56.9435 231.562C57.1026 232.091 57.3313 232.493 57.6296 232.768C57.9308 233.044 58.293 233.182 58.7163 233.182Z" fill="black"/>
<path d="M48.1705 279V278.233L51.0511 275.08C51.3892 274.71 51.6676 274.389 51.8864 274.116C52.1051 273.841 52.267 273.582 52.3722 273.341C52.4801 273.097 52.5341 272.841 52.5341 272.574C52.5341 272.267 52.4602 272.001 52.3125 271.777C52.1676 271.553 51.9687 271.379 51.7159 271.257C51.4631 271.135 51.179 271.074 50.8636 271.074C50.5284 271.074 50.2358 271.143 49.9858 271.283C49.7386 271.419 49.5469 271.611 49.4105 271.858C49.277 272.105 49.2102 272.395 49.2102 272.727H48.2045C48.2045 272.216 48.3224 271.767 48.5582 271.381C48.794 270.994 49.1151 270.693 49.5213 270.477C49.9304 270.261 50.3892 270.153 50.8977 270.153C51.4091 270.153 51.8622 270.261 52.2571 270.477C52.652 270.693 52.9616 270.984 53.1861 271.351C53.4105 271.717 53.5227 272.125 53.5227 272.574C53.5227 272.895 53.4645 273.209 53.348 273.516C53.2344 273.82 53.0355 274.159 52.7514 274.534C52.4702 274.906 52.0795 275.361 51.5795 275.898L49.6193 277.994V278.062H53.6761V279H48.1705Z" fill="black"/>
<path d="M58.2827 279.119C57.6406 279.119 57.0937 278.945 56.642 278.595C56.1903 278.243 55.8452 277.733 55.6065 277.065C55.3679 276.395 55.2486 275.585 55.2486 274.636C55.2486 273.693 55.3679 272.888 55.6065 272.22C55.848 271.55 56.1946 271.038 56.6463 270.686C57.1009 270.331 57.6463 270.153 58.2827 270.153C58.919 270.153 59.4631 270.331 59.9148 270.686C60.3693 271.038 60.7159 271.55 60.9545 272.22C61.196 272.888 61.3168 273.693 61.3168 274.636C61.3168 275.585 61.1974 276.395 60.9588 277.065C60.7202 277.733 60.375 278.243 59.9233 278.595C59.4716 278.945 58.9247 279.119 58.2827 279.119ZM58.2827 278.182C58.919 278.182 59.4134 277.875 59.7656 277.261C60.1179 276.648 60.294 275.773 60.294 274.636C60.294 273.881 60.2131 273.237 60.0511 272.706C59.892 272.175 59.6619 271.77 59.3608 271.491C59.0625 271.213 58.7031 271.074 58.2827 271.074C57.652 271.074 57.1591 271.385 56.804 272.007C56.4489 272.626 56.2713 273.503 56.2713 274.636C56.2713 275.392 56.3509 276.034 56.5099 276.562C56.669 277.091 56.8977 277.493 57.196 277.768C57.4972 278.044 57.8594 278.182 58.2827 278.182Z" fill="black"/>
<path d="M59.017 323.119C58.375 323.119 57.8281 322.945 57.3764 322.595C56.9247 322.243 56.5795 321.733 56.3409 321.065C56.1023 320.395 55.983 319.585 55.983 318.636C55.983 317.693 56.1023 316.888 56.3409 316.22C56.5824 315.55 56.929 315.038 57.3807 314.686C57.8352 314.331 58.3807 314.153 59.017 314.153C59.6534 314.153 60.1974 314.331 60.6491 314.686C61.1037 315.038 61.4503 315.55 61.6889 316.22C61.9304 316.888 62.0511 317.693 62.0511 318.636C62.0511 319.585 61.9318 320.395 61.6932 321.065C61.4545 321.733 61.1094 322.243 60.6577 322.595C60.206 322.945 59.6591 323.119 59.017 323.119ZM59.017 322.182C59.6534 322.182 60.1477 321.875 60.5 321.261C60.8523 320.648 61.0284 319.773 61.0284 318.636C61.0284 317.881 60.9474 317.237 60.7855 316.706C60.6264 316.175 60.3963 315.77 60.0952 315.491C59.7969 315.213 59.4375 315.074 59.017 315.074C58.3864 315.074 57.8935 315.385 57.5384 316.007C57.1832 316.626 57.0057 317.503 57.0057 318.636C57.0057 319.392 57.0852 320.034 57.2443 320.562C57.4034 321.091 57.6321 321.493 57.9304 321.768C58.2315 322.044 58.5938 322.182 59.017 322.182Z" fill="black"/>
</g>
<path id="Vector_3" d="M72.267 54H68.267M72.267 58.5H68.267M72.267 63H68.267M72.267 67.5H68.267M72.267 71.5H67.267M72.267 76.5H68.267M72.267 81H68.267M72.267 85.5H68.267M72.267 90H68.267M72.267 99H68.267M72.267 103.5H68.267M72.267 108H68.267M72.267 112.5H68.267M72.267 116.5H67.267M72.267 121.5H68.267M72.267 126H68.267M72.267 130.5H68.267M72.267 135H68.267M72.267 144H68.267M72.267 148.5H68.267M72.267 153H68.267M72.267 157.5H68.267M72.267 161.5H67.267M72.267 166.5H68.267M72.267 171H68.267M72.267 175.5H68.267M72.267 180H68.267M72.267 189H68.267M72.267 193.5H68.267M72.267 198H68.267M72.267 202.5H68.267M72.267 206.5H67.267M72.267 211.5H68.267M72.267 216H68.267M72.267 220.5H68.267M72.267 225H68.267M72.267 234H68.267M72.267 238.5H68.267M72.267 243H68.267M72.267 247.5H68.267M72.267 251.5H67.267M72.267 256.5H68.267M72.267 261H68.267M72.267 265.5H68.267M72.267 270H68.267M72.267 279H68.267M72.267 283.5H68.267M72.267 288H68.267M72.267 292.5H68.267M72.267 296.5H67.267M72.267 301.5H68.267M72.267 306H68.267M72.267 310.5H68.267M72.267 315H68.267M72.267 49.5H66.267M72.267 94.5H66.267M72.267 139.5H66.267M72.267 184.5H66.267M72.267 229.5H66.267M72.267 274.5H66.267M72.267 319.5H66.267" stroke="black"/>

</g>
<defs>
<linearGradient id="paint0_linear_1_2" x1="282.267" y1="293.5" x2="302.267" y2="293.5" gradientUnits="userSpaceOnUse">
<stop stop-color="#272727"/>
<stop offset="0.572115" stop-color="#919191"/>
<stop offset="1" stop-color="#272727"/>
</linearGradient>
<linearGradient id="paint1_linear_1_2" x1="196.267" y1="293.5" x2="216.267" y2="293.5" gradientUnits="userSpaceOnUse">
<stop stop-color="#272727"/>
<stop offset="0.572115" stop-color="#919191"/>
<stop offset="1" stop-color="#272727"/>
</linearGradient>
<linearGradient id="paint2_linear_1_2" x1="292.267" y1="316.5" x2="312.267" y2="316.5" gradientUnits="userSpaceOnUse">
<stop stop-color="#474747"/>
<stop offset="0.572115" stop-color="#AEAEAE"/>
<stop offset="1" stop-color="#7B7B7B"/>
</linearGradient>
<linearGradient id="paint3_linear_1_2" x1="186.267" y1="316.5" x2="206.267" y2="316.5" gradientUnits="userSpaceOnUse">
<stop stop-color="#474747"/>
<stop offset="0.572115" stop-color="#AEAEAE"/>
<stop offset="1" stop-color="#7B7B7B"/>
</linearGradient>
<linearGradient id="paint4_linear_1_2" x1="5.01541" y1="16.1003" x2="5.01541" y2="0" gradientUnits="userSpaceOnUse">
<stop stop-color="#585C61"/>
<stop offset="0.697115" stop-color="white"/>
<stop offset="1" stop-color="#8A8A97"/>
</linearGradient>
<radialGradient id="paint5_radial_1_2" cx="0" cy="0" r="1" gradientUnits="userSpaceOnUse" gradientTransform="translate(279.767 172) rotate(135.284) scale(142.837)">
<stop stop-color="#DCDCDC"/>
<stop offset="0.663462" stop-color="#919191"/>
<stop offset="1" stop-color="#4A4A4A"/>
</radialGradient>
</defs>
</svg>
