<?xml version="1.0" encoding="UTF-8" standalone="no"?>
<svg
   xmlns:svg="http://www.w3.org/2000/svg"
   xmlns="http://www.w3.org/2000/svg"
   id="graphic"
   version="1.1"
   viewBox="0 0 110.84235 82.618062">
  <defs
     id="defs2" />
  <g
     transform="translate(-23.468016,-24.478064)"
     id="layer1">
    <rect
       y="33.205418"
       x="66.278336"
       height="65.880836"
       width="26.193333"
       id="furnace"
       style="fill:#ffb380;stroke:#000000;stroke-width:0.265" />
    <g
       transform="translate(0,0.7558148)"
       id="g831">
      <path
         style="fill:none;stroke:#000000;stroke-width:0.264583px;stroke-linecap:butt;stroke-linejoin:miter;stroke-opacity:1"
         d="M 23.886639,46.909905 H 64.896832"
         id="path825" />
      <path
         style="fill:#000000;stroke:none;stroke-width:0.961739"
         id="path827"
         d="M 51.518039,42.736938 41.476113,48.534647 V 36.93923 Z"
         transform="matrix(0.32279954,0,0,0.23520259,48.796,36.858066)" />
    </g>
    <g
       transform="translate(0,40.443315)"
       id="g837">
      <path
         id="path833"
         d="M 23.886639,46.909905 H 64.896832"
         style="fill:none;stroke:#000000;stroke-width:0.264583px;stroke-linecap:butt;stroke-linejoin:miter;stroke-opacity:1" />
      <path
         transform="matrix(0.32279954,0,0,0.23520259,48.796,36.858066)"
         d="M 51.518039,42.736938 41.476113,48.534647 V 36.93923 Z"
         id="path835"
         style="fill:#000000;stroke:none;stroke-width:0.961739" />
    </g>
    <g
       id="g843"
       transform="translate(68.884361,20.599565)">
      <path
         style="fill:none;stroke:#000000;stroke-width:0.264583px;stroke-linecap:butt;stroke-linejoin:miter;stroke-opacity:1"
         d="M 23.886639,46.909905 H 64.896832"
         id="path839" />
      <path
         style="fill:#000000;stroke:none;stroke-width:0.961739"
         id="path841"
         d="M 51.518039,42.736938 41.476113,48.534647 V 36.93923 Z"
         transform="matrix(0.32279954,0,0,0.23520259,48.796,36.858066)" />
    </g>
    <g
       style="font-style:normal;font-weight:normal;font-size:6.14684px;line-height:1.25;font-family:sans-serif;fill:#000000;fill-opacity:1;stroke:none;stroke-width:0.264583"
       id="text847"
       aria-label="furnace">
      <path
         id="path865"
         style="stroke-width:0.264583"
         d="m 70.169759,56.241218 h -0.03001 q -0.09304,-0.02701 -0.243112,-0.05403 -0.15007,-0.03001 -0.264122,-0.03001 -0.363168,0 -0.528244,0.162074 -0.162075,0.159074 -0.162075,0.579268 v 0.114053 h 1.01747 v 0.474219 H 68.9602 v 2.87833 h -0.564261 v -2.87833 h -0.381176 v -0.474219 h 0.381176 v -0.111052 q 0,-0.597276 0.297138,-0.915423 0.297137,-0.321148 0.858396,-0.321148 0.189088,0 0.339157,0.01801 0.153071,0.01801 0.279129,0.04202 z" />
      <path
         id="path867"
         style="stroke-width:0.264583"
         d="m 73.306208,60.365124 h -0.56426 v -0.372172 q -0.285132,0.225104 -0.546253,0.345159 -0.261121,0.120056 -0.576266,0.120056 -0.528244,0 -0.82238,-0.321149 -0.294136,-0.324149 -0.294136,-0.948438 v -2.176005 h 0.564261 v 1.908882 q 0,0.255118 0.02401,0.438202 0.02401,0.180083 0.102047,0.309143 0.08104,0.132061 0.210097,0.192089 0.12906,0.06003 0.375173,0.06003 0.219102,0 0.477221,-0.114053 0.261121,-0.114053 0.486225,-0.291135 v -2.503156 h 0.56426 z" />
      <path
         id="path869"
         style="stroke-width:0.264583"
         d="m 76.508688,57.627859 h -0.03001 q -0.126058,-0.03001 -0.246114,-0.04202 -0.117054,-0.01501 -0.279129,-0.01501 -0.261121,0 -0.504233,0.117054 -0.243112,0.114052 -0.468216,0.297137 v 2.3801 h -0.564261 v -3.352549 h 0.564261 V 57.5078 q 0.336155,-0.270125 0.591273,-0.381177 0.258119,-0.114052 0.525243,-0.114052 0.147068,0 0.213098,0.009 0.06603,0.006 0.198092,0.02701 z" />
      <path
         id="path871"
         style="stroke-width:0.264583"
         d="m 79.849232,60.365124 h -0.564261 v -1.908882 q 0,-0.231107 -0.02701,-0.4322 -0.02701,-0.204094 -0.09905,-0.318147 -0.07503,-0.126058 -0.2161,-0.186086 -0.141065,-0.06303 -0.366169,-0.06303 -0.231107,0 -0.483224,0.114053 -0.252116,0.114052 -0.483223,0.291134 v 2.503157 h -0.564261 v -3.352549 h 0.564261 v 0.372172 q 0.264122,-0.219102 0.546252,-0.342158 0.282131,-0.123057 0.579268,-0.123057 0.543251,0 0.828383,0.327151 0.285132,0.327151 0.285132,0.942435 z" />
      <path
         id="path873"
         style="stroke-width:0.264583"
         d="m 83.540937,60.365124 h -0.561259 v -0.357165 q -0.07504,0.05102 -0.204094,0.144066 -0.126059,0.09004 -0.246114,0.144067 -0.141065,0.06903 -0.32415,0.114053 -0.183084,0.04802 -0.429198,0.04802 -0.45321,0 -0.768355,-0.300139 -0.315146,-0.300139 -0.315146,-0.765354 0,-0.381176 0.162075,-0.615284 0.165076,-0.237109 0.468216,-0.372172 0.306142,-0.135062 0.73534,-0.183084 0.429198,-0.04802 0.921426,-0.07203 v -0.08704 q 0,-0.192089 -0.06903,-0.318147 -0.06603,-0.126058 -0.192089,-0.198091 -0.120055,-0.06903 -0.288133,-0.09304 -0.168078,-0.02401 -0.351162,-0.02401 -0.222103,0 -0.495229,0.06003 -0.273126,0.05703 -0.564261,0.168078 h -0.03001 v -0.573265 q 0.165077,-0.04502 0.477221,-0.09905 0.312144,-0.05403 0.615284,-0.05403 0.354164,0 0.615285,0.06003 0.264122,0.05703 0.45621,0.198092 0.189088,0.138063 0.288133,0.357165 0.09905,0.219101 0.09905,0.543251 z m -0.561259,-0.825382 v -0.933431 q -0.258119,0.01501 -0.609282,0.04502 -0.34816,0.03001 -0.552255,0.08704 -0.243112,0.06903 -0.393181,0.2161 -0.15007,0.144067 -0.15007,0.399184 0,0.288134 0.174081,0.435201 0.17408,0.144067 0.531245,0.144067 0.297137,0 0.543251,-0.114053 0.246114,-0.117054 0.456211,-0.279128 z" />
      <path
         id="path875"
         style="stroke-width:0.264583"
         d="m 87.112588,60.155027 q -0.28213,0.135062 -0.537248,0.210097 -0.252117,0.07503 -0.537248,0.07503 -0.363168,0 -0.666308,-0.105048 -0.30314,-0.10805 -0.51924,-0.32415 -0.219101,-0.2161 -0.339157,-0.546252 -0.120055,-0.330153 -0.120055,-0.771357 0,-0.82238 0.450208,-1.290596 0.453209,-0.468216 1.194552,-0.468216 0.288133,0 0.56426,0.08104 0.279129,0.08104 0.510236,0.198092 v 0.627289 h -0.03001 q -0.258119,-0.201092 -0.534247,-0.309142 -0.273126,-0.10805 -0.534247,-0.10805 -0.480221,0 -0.75935,0.324149 -0.276128,0.321149 -0.276128,0.945437 0,0.60628 0.270125,0.933432 0.273126,0.324149 0.765353,0.324149 0.17108,0 0.348161,-0.04502 0.177082,-0.04502 0.318147,-0.117055 0.123057,-0.06303 0.231107,-0.132061 0.10805,-0.07203 0.171079,-0.123056 h 0.03001 z" />
      <path
         id="path877"
         style="stroke-width:0.264583"
         d="m 90.64522,58.747376 h -2.470142 q 0,0.309143 0.09304,0.54025 0.09304,0.228105 0.255118,0.375173 0.156072,0.144067 0.369171,0.2161 0.2161,0.07203 0.474219,0.07203 0.342158,0 0.687318,-0.135062 0.34816,-0.138064 0.495228,-0.270125 h 0.03001 v 0.615284 q -0.285131,0.120056 -0.582269,0.201093 -0.297137,0.08104 -0.624288,0.08104 -0.834386,0 -1.302602,-0.450208 -0.468216,-0.45321 -0.468216,-1.284594 0,-0.82238 0.447206,-1.305603 0.450208,-0.483223 1.182547,-0.483223 0.678313,0 1.044482,0.396183 0.369171,0.396183 0.369171,1.12552 z m -0.549254,-0.432199 q -0.003,-0.444206 -0.225104,-0.687318 -0.219101,-0.243112 -0.669309,-0.243112 -0.45321,0 -0.723334,0.267123 -0.267124,0.267124 -0.303141,0.663307 z" />
    </g>
    <g
       style="font-style:normal;font-weight:normal;font-size:6.14684px;line-height:1.25;font-family:sans-serif;fill:#000000;fill-opacity:1;stroke:none;stroke-width:0.264583"
       id="text851"
       aria-label="Q=0">
      <path
         id="path880"
         style="stroke-width:0.264583"
         d="m 77.159293,71.208505 q -0.180084,0.04502 -0.357166,0.06303 -0.17408,0.02101 -0.357165,0.02101 -0.522241,0 -0.840388,-0.288133 -0.315145,-0.285132 -0.342158,-0.819379 -0.07203,0.01201 -0.141065,0.01501 -0.06603,0.006 -0.12906,0.006 -0.471217,0 -0.858396,-0.156072 -0.384178,-0.156072 -0.654303,-0.45321 -0.270124,-0.297137 -0.417192,-0.729337 -0.144067,-0.432199 -0.144067,-0.987456 0,-0.546252 0.144067,-0.978452 0.144066,-0.435201 0.420194,-0.744344 0.264122,-0.294136 0.654302,-0.450208 0.393182,-0.156072 0.855395,-0.156072 0.480222,0 0.861398,0.159074 0.384178,0.156072 0.651301,0.447206 0.273126,0.300139 0.417193,0.73534 0.147068,0.435201 0.147068,0.987456 0,0.819379 -0.336155,1.380638 -0.333154,0.561259 -0.897415,0.786363 0.01201,0.342159 0.162075,0.531246 0.150069,0.189087 0.546252,0.189087 0.123057,0 0.291135,-0.03902 0.171079,-0.03602 0.243112,-0.06603 h 0.08104 z m -0.708328,-3.328538 q 0,-0.870402 -0.39018,-1.34162 -0.39018,-0.474219 -1.065492,-0.474219 -0.681315,0 -1.071495,0.474219 -0.387179,0.471218 -0.387179,1.34162 0,0.879407 0.396183,1.347623 0.396183,0.465215 1.062491,0.465215 0.666308,0 1.059489,-0.465215 0.396183,-0.468216 0.396183,-1.347623 z" />
      <path
         id="path882"
         style="stroke-width:0.264583"
         d="m 81.706393,67.765915 h -3.559644 v -0.480222 h 3.559644 z m 0,1.260582 h -3.559644 v -0.480222 h 3.559644 z" />
      <path
         id="path884"
         style="stroke-width:0.264583"
         d="m 85.944351,67.876966 q 0,1.203556 -0.378175,1.767817 -0.375173,0.561259 -1.167539,0.561259 -0.804372,0 -1.176544,-0.570264 -0.369171,-0.570263 -0.369171,-1.752809 0,-1.191551 0.375174,-1.758813 0.375173,-0.570264 1.170541,-0.570264 0.804371,0 1.173542,0.579268 0.372172,0.576266 0.372172,1.743806 z m -0.789365,1.362629 q 0.105049,-0.243112 0.141065,-0.570263 0.03902,-0.330153 0.03902,-0.792366 0,-0.456211 -0.03902,-0.792366 -0.03602,-0.336156 -0.144066,-0.570264 -0.105049,-0.231107 -0.288133,-0.348161 -0.180084,-0.117054 -0.465215,-0.117054 -0.282131,0 -0.468217,0.117054 -0.183084,0.117054 -0.291134,0.354164 -0.102047,0.222103 -0.141065,0.579268 -0.03602,0.357165 -0.03602,0.783362 0,0.468216 0.03302,0.783362 0.03301,0.315145 0.141065,0.56426 0.09905,0.234108 0.279129,0.357165 0.183085,0.123057 0.483224,0.123057 0.28213,0 0.468216,-0.117054 0.186086,-0.117054 0.288133,-0.354164 z" />
    </g>
    <rect
       y="24.478064"
       x="23.468016"
       height="21.82402"
       width="38.716454"
       id="above_inlet1"
       style="fill:none;stroke:none;stroke-width:0.264999" />
    <rect
       style="fill:none;stroke:none;stroke-width:0.264999"
       id="below_inlet1"
       width="38.716454"
       height="18.36454"
       x="23.468016"
       y="49.406673" />
    <rect
       y="67.77121"
       x="23.468016"
       height="18.36454"
       width="38.716454"
       id="above_inlet2"
       style="fill:none;stroke:none;stroke-width:0.264999" />
    <rect
       style="fill:none;stroke:none;stroke-width:0.264999"
       id="below_inlet2"
       width="38.716454"
       height="18.36454"
       x="23.468016"
       y="88.73159" />
    <rect
       y="47.781292"
       x="93.471626"
       height="18.36454"
       width="37.59721"
       id="above_outlet"
       style="fill:none;stroke:none;stroke-width:0.264999" />
    <rect
       style="fill:none;stroke:none;stroke-width:0.264999"
       id="below_outlet"
       width="37.59721"
       height="18.36454"
       x="93.471626"
       y="68.843422" />
  </g>
</svg>
