<svg version="1.1" xmlns="http://www.w3.org/2000/svg" xmlns:xlink="http://www.w3.org/1999/xlink" width="700" height="700" viewBox="370,39.5,700,700"><defs><linearGradient x1="723" y1="342.5" x2="911" y2="378.5" gradientUnits="userSpaceOnUse" id="color-1"><stop offset="0" stop-color="#cfcfcf"/><stop offset="1" stop-color="#000000"/></linearGradient></defs><g id="document" fill="#ffffff" fill-rule="nonzero" stroke="#000000" stroke-width="0" stroke-linecap="butt" stroke-linejoin="miter" stroke-miterlimit="10" stroke-dasharray="" stroke-dashoffset="0" font-family="none" font-weight="none" font-size="none" text-anchor="none" style="mix-blend-mode: normal"><rect x="370" y="28.21429" transform="scale(1,1.4)" width="700" height="500" id="Shape 1 1" vector-effect="non-scaling-stroke"/></g><g fill="none" fill-rule="nonzero" stroke="none" stroke-width="none" stroke-linecap="none" stroke-linejoin="round" stroke-miterlimit="10" stroke-dasharray="" stroke-dashoffset="0" font-family="none" font-weight="none" font-size="none" text-anchor="none" style="mix-blend-mode: normal"><g><g id="stage"><g id="layer1 1"><path d="M635.5,493.5v-291h169v291z" id="Path 1" fill="url(#color-1)" stroke="#000000" stroke-width="1" stroke-linecap="round"/><path d="M1318.42866,4.06427l63.72079,-20.70414l10.81559,33.28698l-63.72079,20.70414z" id="Path 1" fill-opacity="0" fill="#000000" stroke="#000000" stroke-width="1" stroke-linecap="round" visibility="hidden"/><path d="M1875.67727,466.94882l39.38161,54.20414l-28.31559,20.57248l-39.38161,-54.20414z" id="Path 1" fill-opacity="0" fill="#000000" stroke="#000000" stroke-width="1" stroke-linecap="round" visibility="hidden"/><path d="M1607.64719,1139.96293l-39.38161,54.20414l-28.31559,-20.57248l39.38161,-54.20414z" id="Path 1" fill-opacity="0" fill="#000000" stroke="#000000" stroke-width="1" stroke-linecap="round" visibility="hidden"/><path d="M884.74689,1093.02398l-63.72079,-20.70414l10.81559,-33.28698l63.72079,20.70414z" id="Path 1" fill-opacity="0" fill="#000000" stroke="#000000" stroke-width="1" stroke-linecap="round" visibility="hidden"/><path d="M677.5,202.5v-42h84c0.5,0 1,0.5 1,1v41z" id="Path 1" fill="#bfbfbf" stroke="#000000" stroke-width="1" stroke-linecap="round"/><path d="M696,138v23h48v-23z" id="Path 1" fill="#8c8c8c" stroke="#000000" stroke-width="1" stroke-linecap="round"/><path d="M696,140l48,1" id="Path 1" fill="none" stroke="#000000" stroke-width="1" stroke-linecap="round"/><path d="M743.00043,140.97918" id="Path 1" fill="none" stroke="#000000" stroke-width="1" stroke-linecap="round" visibility="hidden"/><path d="M698,171" id="Path 1" fill="none" stroke="#000000" stroke-width="1" stroke-linecap="round" visibility="hidden"/><path d="M744,141l-48,2" id="Path 1" fill="none" stroke="#000000" stroke-width="1" stroke-linecap="round"/><path d="M696,143l47,1" id="Path 1" fill="none" stroke="#000000" stroke-width="1" stroke-linecap="round"/><path d="M743,144l-47,3" id="Path 1" fill="#bfbfbf" stroke="#000000" stroke-width="1" stroke-linecap="round"/><path d="M696,147l47,1" id="Path 1" fill="none" stroke="#000000" stroke-width="1" stroke-linecap="round"/><path d="M743,148l-46.97873,-0.99955" id="Path 1" fill="none" stroke="#000000" stroke-width="1" stroke-linecap="round"/><path d="M696.02127,147.00045l47.97873,3.99955" id="Path 1" fill="none" stroke="#000000" stroke-width="1" stroke-linecap="round"/><path d="M744,151l-48,1" id="Path 1" fill="none" stroke="#000000" stroke-width="1" stroke-linecap="round"/><path d="M639,154" id="Path 1" fill="none" stroke="#000000" stroke-width="1" stroke-linecap="round" visibility="hidden"/><path d="M696.02082,151.99957l46.97918,2.00043" id="Path 1" fill="none" stroke="#000000" stroke-width="1" stroke-linecap="round"/><path d="M743,154l-47,2" id="Path 1" fill="none" stroke="#000000" stroke-width="1" stroke-linecap="round"/><path d="M696,156l48,1" id="Path 1" fill="none" stroke="#000000" stroke-width="1" stroke-linecap="round"/><path d="M742.97961,156.97874l-46.97961,4.02126" id="Path 1" fill="none" stroke="#000000" stroke-width="1" stroke-linecap="round"/><path d="M620,119.55975c23.5253,0.09745 50.82233,-1.25723 60.25276,21.91875c1.98168,4.87013 2.98753,9.83597 3.61524,14.96175" id="Path 1" fill-opacity="0" fill="#bfbfbf" stroke="#bfbfbf" stroke-width="10" stroke-linecap="square"/><path d="M821.0261,124.16958c-23.5253,0.09745 -50.82233,-1.25723 -60.25276,21.91875c-1.98168,4.87013 -2.98753,9.83597 -3.61524,14.96175" id="Path 1" fill-opacity="0" fill="#bfbfbf" stroke="#bfbfbf" stroke-width="10" stroke-linecap="square"/><path d="M600.625,116.5v-25h9.25v25z" id="Path 1" fill="#8c8c8c" stroke="#000000" stroke-width="1" stroke-linecap="round"/><path d="M589,136v-32h32.5v32z" id="Path 1" fill="#000000" stroke="#000000" stroke-width="1" stroke-linecap="round"/><path d="M1405.25,74.5v-17h36v17z" id="Path 1" fill="#5284e7" stroke="#000000" stroke-width="1" stroke-linecap="round" visibility="hidden"/><path d="M831.9,116.5v-25h9.25v25z" id="Path 1" fill="#8c8c8c" stroke="#000000" stroke-width="1" stroke-linecap="round"/><path d="M821.0261,136v-32h32.5v32z" id="Path 1" fill="#000000" stroke="#000000" stroke-width="1" stroke-linecap="round"/><path d="M595,91.5c-4,0 -8,-4 -8,-8v-1c0,-4 4,-8 8,-8h20c4,0 8,4 8,8v1c0,4 -4,8 -8,8z" id="Path 1" fill="#5284e7" stroke="#000000" stroke-width="1" stroke-linecap="round"/><path d="M825.5261,91.5c-4,0 -8,-4 -8,-8v-1c0,-4 4,-8 8,-8h20c4,0 8,4 8,8v1c0,4 -4,8 -8,8z" id="Path 1" fill="#5284e7" stroke="#000000" stroke-width="1" stroke-linecap="round"/></g></g></g></g></svg>