<svg width="20" height="162" viewBox="0 0 20 162" fill="none" xmlns="http://www.w3.org/2000/svg">
<path d="M20 0C13.3333 0 6.66667 0 0 0C0.666667 2.57048 1.74142 5.14097 2 7.71145C2.01303 7.84097 2.02611 7.97048 2.03924 8.1C2.65716 14.1969 3.37604 20.2938 3.5 26.3907C4.36416 68.8938 5.07674 111.397 5.85154 153.9C5.90076 156.6 5.95022 159.3 6 162C8.66667 162 11.3333 162 14 162C14.0498 159.3 14.0992 156.6 14.1485 153.9C14.9233 111.397 15.6358 68.8938 16.5 26.3907C16.624 20.2938 17.3428 14.1969 17.9608 8.1C17.9739 7.97048 17.987 7.84097 18 7.71145C18.2586 5.14097 19.3333 2.57048 20 0Z" fill="#3B8CCF" fill-opacity="0.6"/>
</svg>
