<svg id="svg6" xmlns="http://www.w3.org/2000/svg" viewBox="0 0 1247.244 820.92"><g id="layer1"><rect id="TemperatureGraphArea" y="553.131" width="408.189" height="267.789" style="fill:none"/><rect id="LevelGraphArea" x="422.362" y="553.131" width="405.354" height="267.789" style="fill:none"/><rect id="PressureGraphArea" x="841.89" y="553.131" width="405.354" height="267.789" style="fill:none"/><rect id="InletInputArea" x="0.376" y="0.376" width="253.616" height="222.435" style="fill:none"/><rect id="SpeedInputArea" x="269.668" y="0.376" width="171.411" height="56.693" style="fill:#d7eef4;stroke:#000;stroke-miterlimit:11.338582038879395;stroke-width:0.7511810195258306px"/><rect id="TCInputArea" x="0.376" y="283.84" width="253.616" height="253.616" style="fill:none"/><rect id="PCInputArea" x="709.037" y="0.376" width="253.616" height="253.616" style="fill:none"/><rect id="LCInputArea" x="711.87" y="283.84" width="253.616" height="253.616" style="fill:none"/><g id="CenterImage"><path id="path859" d="M492.388,437.213v62.362c7.147.043,32.766-.426,39.914-.384" transform="translate(-14.173 -14.173)" style="fill:none;stroke:#000;stroke-miterlimit:11.338582038879395;stroke-width:0.7499989890872882px"/><g id="pump"><path id="path895" d="M528.653,509.027h45.622L567.432,502H535.5Z" transform="translate(-14.173 -14.173)" style="fill:#ccc;stroke:#000;stroke-width:0.7421730160713196px"/><rect id="rect863" x="543.108" y="450.101" width="29.318" height="11.063" style="fill:#ccc"/><rect id="rect863-8" x="513.79" y="479.487" width="29.318" height="11.063" style="fill:#ccc"/><ellipse id="path861" cx="543.108" cy="470.325" rx="20.261" ry="20.224" style="fill:#ccc"/><path id="circle885" d="M575.334,475.317a20.225,20.225,0,0,1-18.053,29.406" transform="translate(-14.173 -14.173)" style="fill:#ccc;stroke:#000;stroke-width:0.7421730160713196px"/><path id="path887" d="M539.392,493.993a20.225,20.225,0,0,1,17.889-29.719" transform="translate(-14.173 -14.173)" style="fill:#ccc;stroke:#000;stroke-width:0.7421730160713196px"/><path id="path889" d="M557.281,464.274H586.6v11.063H575.344" transform="translate(-14.173 -14.173)" style="fill:#ccc;stroke:#000;stroke-width:0.7421730160713196px"/><path id="path891" d="M557.281,504.723H527.963V493.66h11.256" transform="translate(-14.173 -14.173)" style="fill:#ccc;stroke:#000;stroke-width:0.7421730160713196px"/></g><g id="column"><path id="path829" d="M544.218,395.82V188.856s.218-41.393-51.676-41.393c-52.159,0-51.676,41.393-51.676,41.393V395.82s-.219,41.393,51.676,41.393C544.172,437.213,544.218,395.82,544.218,395.82Z" transform="translate(-14.173 -14.173)" style="fill:#e6e6e6;stroke:#000;stroke-width:0.36260899901390076px"/><path id="liquidPath" d="M440.866,395.82s-.285,41.393,51.676,41.393,51.676-41.393,51.676-41.393V364.776s-8.4-4.717-12.869-4.14c-5.085.657-7.842,8.283-12.969,8.279s-7.807-8.279-12.919-8.279-7.807,8.271-12.919,8.279c-5.138.008-7.871-8.267-13.009-8.279-5.174-.01-7.962,8.309-13.136,8.279-5.08-.029-7.767-7.621-12.805-8.279-4.423-.577-12.726,4.14-12.726,4.14Z" transform="translate(-14.173 -14.173)" style="fill:#deaa87;stroke:#000;stroke-width:0.36260899901390076px"/></g><path id="arrowIn" d="M264.312,248.3H440.866l-19.037-5.51v11.019l19.037-5.509" transform="translate(-14.173 -14.173)" style="stroke:#000;stroke-miterlimit:11.338582038879395;stroke-width:0.7499989890872882px"/><path id="arrowTop" d="M492.542,147.463V44.049l-5.509,19.037h11.018l-5.509-19.037" transform="translate(-14.173 -14.173)" style="stroke:#000;stroke-miterlimit:11.338582038879395;stroke-width:0.7499989890872882px"/><path id="arrowAfterPump" d="M587.79,469.806h111.3l-19.037-5.51v11.019l19.037-5.509" transform="translate(-14.173 -14.173)" style="stroke:#000;stroke-miterlimit:11.338582038879395;stroke-width:0.7499989890872882px"/><g id="ValveAfterPump"><path id="path935" d="M609.536,456.211V483.4l56.693-27.189V483.4Z" transform="translate(-14.173 -14.173)" style="fill:#f2f2f2;stroke:#000;stroke-miterlimit:11.338582038879395;stroke-width:0.7499962012796502px"/><path id="path937" d="M637.882,469.806V444.294h21.227s-3.058-13.46-21.227-13.46-21.227,13.46-21.227,13.46h21.227" transform="translate(-14.173 -14.173)" style="fill:#f2f2f2;stroke:#000;stroke-miterlimit:11.338582038879395;stroke-width:0.7499989890872882px"/></g><rect id="rect943" x="530.044" y="351.023" width="13.056" height="15.102" style="fill:#e6e6e6;stroke:#000;stroke-miterlimit:11.338582038879395;stroke-width:0.7511810195258306px"/><rect id="rect943-1" x="413.636" y="295.209" width="13.056" height="15.102" style="fill:#e6e6e6;stroke:#000;stroke-miterlimit:11.338582038879395;stroke-width:0.7511782317181925px"/><path id="path957" d="M557.408,372.747h79.453v58.087" transform="translate(-14.173 -14.173)" style="fill:none;stroke:#000;stroke-miterlimit:11.338582038879395;stroke-width:0.7511810195258306px;stroke-dasharray:6.009448051452637,3.0047240257263184"/><circle id="LCcircle" cx="621.23" cy="358.574" r="28.346" style="fill:#f9f9f9;stroke:#000;stroke-miterlimit:11.338582038879395;stroke-width:0.7511782317181925px"/><g id="ValveAfterPump-7"><path id="path935-8" d="M506.136,77.91H478.948L506.136,134.6H478.948Z" transform="translate(-14.173 -14.173)" style="fill:#f2f2f2;stroke:#000;stroke-miterlimit:11.338582038879395;stroke-width:0.7499962012796502px"/><path id="path937-5" d="M492.542,106.256h25.512v21.228s13.46-3.059,13.46-21.228-13.46-21.227-13.46-21.227v21.227" transform="translate(-14.173 -14.173)" style="fill:#f2f2f2;stroke:#000;stroke-miterlimit:11.338582038879395;stroke-width:0.7499989890872882px"/></g><path id="path957-1" d="M531.61,106.256H627.3v90.151H557.274" transform="translate(-14.173 -14.173)" style="fill:none;stroke:#000;stroke-miterlimit:11.338582038879395;stroke-width:0.7511782317181925px;stroke-dasharray:6.009448051452637,3.0047240257263184"/><rect id="rect943-2" x="530.044" y="174.683" width="13.056" height="15.102" style="fill:#e6e6e6;stroke:#000;stroke-miterlimit:11.338582038879395;stroke-width:0.7511782317181925px"/><circle id="PCcircle" cx="613.127" cy="92.083" r="28.346" style="fill:#f9f9f9;stroke:#000;stroke-miterlimit:11.338582038879395;stroke-width:0.7511782317181925px"/><path id="path1047" d="M357.116,353.454h114.25l-17.411,13.422L471.366,380.3H369.286" transform="translate(-14.173 -14.173)" style="fill:none;stroke:#000;stroke-miterlimit:11.338582038879395;stroke-width:1.5023620390516612px"/><path id="path957-11" d="M332.974,339.963v-23.03h94.955" transform="translate(-14.173 -14.173)" style="fill:none;stroke:#000;stroke-miterlimit:11.338582038879395;stroke-width:0.7511782317181925px;stroke-dasharray:6.009448051452637,3.0047240257263184"/><circle id="LCcircle-8" cx="318.801" cy="354.137" r="28.346" style="fill:#f9f9f9;stroke:#000;stroke-miterlimit:11.338582038879395;stroke-width:0.7511782317181925px"/><path id="path1089" d="M359.849,380.3,375.7,375.66v9.276Z" transform="translate(-14.173 -14.173)" style="stroke:#000;stroke-miterlimit:11.338582038879395;stroke-width:0.7499989890872882px"/></g><path id="path1169" d="M723.21,14.549H976.826V268.165H723.21V118.68L673.7,104.506,723.21,90.333Z" transform="translate(-14.173 -14.173)" style="fill:none;stroke:#000;stroke-miterlimit:11.338582038879395;stroke-width:0.7499989890872882px"/><path id="path1171" d="M725.035,298.013H978.651V551.629H725.035V387.971L673.371,373.8l51.664-14.174Z" transform="translate(-14.173 -14.173)" style="fill:none;stroke:#000;stroke-miterlimit:11.338582038879395;stroke-width:0.7499989890872882px"/><path id="path1173" d="M268.165,551.629H14.549V298.013H268.165v55.942l28.5,14.173-28.5,14.174Z" transform="translate(-14.173 -14.173)" style="fill:none;stroke:#000;stroke-miterlimit:11.338582038879395;stroke-width:0.7499989890872882px"/><path id="path894" d="M14.549,14.549H268.165V208.52l29.73,33.117-54.772-4.654H14.549V14.549" transform="translate(-14.173 -14.173)" style="fill:none;stroke:#000;stroke-miterlimit:11.338582038879395;stroke-width:0.7511810195258306px"/><g id="PressureTextWrapper" style="isolation:isolate"><text transform="translate(574.019 53.587)" style="isolation:isolate;font-size:20.000011444091797px;font-family:ArialMT, Arial">70.0 kPa</text></g><g id="TemperatureTextWrapper" style="isolation:isolate"><text transform="translate(291.689 409.26)" style="isolation:isolate;font-size:20.000011444091797px;font-family:ArialMT, Arial">400 K</text></g><g id="LevelTextWrapper" style="isolation:isolate"><text transform="translate(592.687 318.079)" style="isolation:isolate;font-size:20.000011444091797px;font-family:ArialMT, Arial">10.0%</text></g><rect id="csvDownloadArea" x="299.842" y="73.287" width="113.066" height="59.225" style="fill:none"/><g id="functionAreaLabel" style="isolation:isolate"><text transform="translate(997.687 17.297)" style="isolation:isolate;font-size:20.000011444091797px;font-family:ArialMT, Arial">complete the function:</text></g><rect id="CodeBlockWrapper" x="978.328" y="31.557" width="268.54" height="504.216" style="fill:#f2f2f2;stroke:gray;stroke-miterlimit:11.338582038879395;stroke-width:0.7511782317181925px"/><rect id="CodeEntryArea" x="1118.74" y="309.168" width="116.273" height="47.106" style="fill:#f2f2f2"/><g id="text963" style="isolation:isolate"><text transform="translate(1238.586 287.458)" style="isolation:isolate;font-size:15.800003051757812px;font-family:HelveticaNeue-Regular, HelveticaNeue">;</text></g><path d="M610.9,116.24V96.2h7.561a18.2,18.2,0,0,1,3.049.192,6.04,6.04,0,0,1,2.474.936,4.931,4.931,0,0,1,1.607,1.935,6.524,6.524,0,0,1-1.019,7.061q-1.628,1.772-5.879,1.771h-5.14v8.148Zm2.653-10.513h5.181a5.5,5.5,0,0,0,3.651-.957,3.411,3.411,0,0,0,1.08-2.694,3.622,3.622,0,0,0-.636-2.153,2.975,2.975,0,0,0-1.675-1.183,11.369,11.369,0,0,0-2.474-.177h-5.127Z" transform="translate(-14.173 -14.173)"/><path d="M643.876,109.213l2.652.67a8.915,8.915,0,0,1-3,4.983,8.268,8.268,0,0,1-5.3,1.716,9.516,9.516,0,0,1-5.27-1.319,8.237,8.237,0,0,1-3.09-3.822,13.641,13.641,0,0,1-1.059-5.373,11.808,11.808,0,0,1,1.2-5.462,8.2,8.2,0,0,1,3.4-3.541,9.954,9.954,0,0,1,4.861-1.21,8.216,8.216,0,0,1,5.058,1.532,7.96,7.96,0,0,1,2.858,4.306l-2.612.616a6.2,6.2,0,0,0-2.023-3.186,5.394,5.394,0,0,0-3.336-1,6.48,6.48,0,0,0-3.862,1.107,5.849,5.849,0,0,0-2.181,2.974,11.952,11.952,0,0,0-.629,3.849,12.229,12.229,0,0,0,.745,4.464,5.553,5.553,0,0,0,2.317,2.85,6.5,6.5,0,0,0,3.4.944,5.7,5.7,0,0,0,3.773-1.286A6.571,6.571,0,0,0,643.876,109.213Z" transform="translate(-14.173 -14.173)"/><path d="M620.2,381.9V361.859h2.652v17.678h9.872V381.9Z" transform="translate(-14.173 -14.173)"/><path d="M650.186,374.875l2.652.669a8.932,8.932,0,0,1-3,4.984,8.268,8.268,0,0,1-5.3,1.716,9.514,9.514,0,0,1-5.27-1.32,8.229,8.229,0,0,1-3.09-3.821,13.624,13.624,0,0,1-1.06-5.373,11.818,11.818,0,0,1,1.2-5.462,8.2,8.2,0,0,1,3.4-3.541,9.939,9.939,0,0,1,4.86-1.21,8.225,8.225,0,0,1,5.059,1.531,7.956,7.956,0,0,1,2.857,4.307l-2.611.615a6.2,6.2,0,0,0-2.024-3.185,5.392,5.392,0,0,0-3.336-1,6.478,6.478,0,0,0-3.862,1.107,5.845,5.845,0,0,0-2.181,2.974,11.976,11.976,0,0,0-.628,3.848,12.222,12.222,0,0,0,.745,4.464,5.542,5.542,0,0,0,2.317,2.851,6.5,6.5,0,0,0,3.4.943,5.706,5.706,0,0,0,3.774-1.285A6.576,6.576,0,0,0,650.186,374.875Z" transform="translate(-14.173 -14.173)"/><path d="M322.432,377.489V359.812h-6.6v-2.366h15.887v2.366h-6.631v17.677Z" transform="translate(-14.173 -14.173)"/><path d="M348.736,370.462l2.653.67a8.926,8.926,0,0,1-3,4.983,8.27,8.27,0,0,1-5.3,1.716,9.52,9.52,0,0,1-5.271-1.319,8.249,8.249,0,0,1-3.09-3.822,13.641,13.641,0,0,1-1.059-5.373,11.808,11.808,0,0,1,1.2-5.462,8.2,8.2,0,0,1,3.405-3.541,9.948,9.948,0,0,1,4.86-1.21,8.214,8.214,0,0,1,5.058,1.532,7.949,7.949,0,0,1,2.858,4.306l-2.611.616a6.2,6.2,0,0,0-2.024-3.186,5.394,5.394,0,0,0-3.336-1,6.48,6.48,0,0,0-3.862,1.107,5.849,5.849,0,0,0-2.181,2.974,11.979,11.979,0,0,0-.629,3.849,12.229,12.229,0,0,0,.745,4.464,5.55,5.55,0,0,0,2.318,2.85,6.5,6.5,0,0,0,3.4.944,5.709,5.709,0,0,0,3.774-1.286A6.57,6.57,0,0,0,348.736,370.462Z" transform="translate(-14.173 -14.173)"/><path d="M1001.43,66.237V57.9h-1.351V56.563h1.351V56.1a4.629,4.629,0,0,1,1.125-3.389,3.368,3.368,0,0,1,2.351-.893,3.816,3.816,0,0,1,1.5.283l-.232,1.352a2.68,2.68,0,0,0-1.13-.221c-1.486,0-1.876,1.317-1.876,2.811v.524h2.338V57.9h-2.328v8.341Z" transform="translate(-14.173 -14.173)"/><path d="M1015.188,63.589c0,1.015.033,1.883.08,2.648h-1.555l-.094-1.582h-.049a3.612,3.612,0,0,1-3.2,1.8c-1.514,0-3.332-.849-3.332-4.24V56.563h1.751v5.345c0,1.842.574,3.1,2.162,3.1a2.561,2.561,0,0,0,2.328-1.614,2.714,2.714,0,0,0,.161-.9V56.563h1.75Z" transform="translate(-14.173 -14.173)"/><path d="M1018.118,59.175c0-1.009-.033-1.811-.08-2.612h1.555l.1,1.59h.049a3.574,3.574,0,0,1,3.2-1.811c1.329,0,3.409.8,3.409,4.123v5.772H1024.6V60.659c0-1.564-.589-2.874-2.237-2.874a2.533,2.533,0,0,0-2.37,1.806,2.733,2.733,0,0,0-.121.816v5.83h-1.75Z" transform="translate(-14.173 -14.173)"/><path d="M1036.115,65.886a6.661,6.661,0,0,1-2.775.561,4.61,4.61,0,0,1-4.827-4.943,4.927,4.927,0,0,1,5.2-5.158,5.666,5.666,0,0,1,2.445.515l-.39,1.351a4.29,4.29,0,0,0-2.058-.465,3.357,3.357,0,0,0-3.413,3.664,3.321,3.321,0,0,0,3.37,3.62,5.114,5.114,0,0,0,2.153-.465Z" transform="translate(-14.173 -14.173)"/><path d="M1040.549,53.777v2.786h2.527V57.9h-2.527v5.213c0,1.2.347,1.886,1.33,1.886a3.508,3.508,0,0,0,1.019-.127l.081,1.337a4.5,4.5,0,0,1-1.572.242,2.463,2.463,0,0,1-1.9-.745,3.7,3.7,0,0,1-.683-2.524V57.9h-1.5V56.563h1.5V54.232Z" transform="translate(-14.173 -14.173)"/><path d="M1047.023,53.828a1.06,1.06,0,0,1-1.119,1.093,1.049,1.049,0,0,1-1.062-1.093,1.069,1.069,0,0,1,1.094-1.1A1.054,1.054,0,0,1,1047.023,53.828Zm-1.965,12.409V56.563h1.75v9.674Z" transform="translate(-14.173 -14.173)"/><path d="M1058.494,61.307c0,3.583-2.486,5.15-4.811,5.15-2.624,0-4.651-1.913-4.651-4.984,0-3.237,2.128-5.131,4.8-5.131C1056.617,56.342,1058.494,58.36,1058.494,61.307Zm-7.672.112c0,2.123,1.216,3.72,2.933,3.72,1.687,0,2.948-1.576,2.948-3.772,0-1.637-.825-3.706-2.916-3.706C1051.721,57.661,1050.822,59.585,1050.822,61.419Z" transform="translate(-14.173 -14.173)"/><path d="M1060.717,59.175c0-1.009-.033-1.811-.08-2.612h1.554l.1,1.59h.049a3.572,3.572,0,0,1,3.2-1.811c1.329,0,3.409.8,3.409,4.123v5.772h-1.75V60.659c0-1.564-.59-2.874-2.236-2.874a2.533,2.533,0,0,0-2.371,1.806,2.733,2.733,0,0,0-.121.816v5.83h-1.75Z" transform="translate(-14.173 -14.173)"/><path d="M1076.107,52.918a19.148,19.148,0,0,1,3.352-.269,5.532,5.532,0,0,1,3.779,1.121,3.667,3.667,0,0,1,1.186,2.822,3.966,3.966,0,0,1-1.048,2.886,5.577,5.577,0,0,1-4.12,1.476,5.7,5.7,0,0,1-1.408-.125v5.408h-1.741Zm1.741,6.493a5.349,5.349,0,0,0,1.443.152c2.112,0,3.388-1.037,3.388-2.879,0-1.785-1.275-2.657-3.185-2.657a8.393,8.393,0,0,0-1.646.137Z" transform="translate(-14.173 -14.173)" style="fill:red"/><path d="M1088.5,52.754V66.237h-1.75V52.754Z" transform="translate(-14.173 -14.173)" style="fill:red"/><path d="M1095.287,52.344a13.255,13.255,0,0,0-2.51,8.2,13.452,13.452,0,0,0,2.51,8.106h-1.366a12.866,12.866,0,0,1-2.618-8.118,13.119,13.119,0,0,1,2.618-8.185Z" transform="translate(-14.173 -14.173)"/><path d="M1106.76,66.237l-.156-1.222h-.051a3.6,3.6,0,0,1-2.96,1.442,2.76,2.76,0,0,1-2.955-2.776c0-2.344,2.076-3.631,5.814-3.6v-.2a1.993,1.993,0,0,0-2.2-2.232,4.7,4.7,0,0,0-2.52.721l-.4-1.17a6.086,6.086,0,0,1,3.193-.849c2.957,0,3.679,2.022,3.679,3.96v3.62a15.067,15.067,0,0,0,.146,2.315Zm-.274-4.94c-1.9-.041-4.084.3-4.084,2.172a1.549,1.549,0,0,0,1.643,1.685,2.42,2.42,0,0,0,2.357-1.62,1.805,1.805,0,0,0,.084-.555Z" transform="translate(-14.173 -14.173)" style="fill:#060"/><path d="M1111.032,59.576c0-1.143-.028-2.117-.08-3.013h1.542l.068,1.9h.062a2.936,2.936,0,0,1,2.694-2.118,1.989,1.989,0,0,1,.49.05v1.655a2.793,2.793,0,0,0-.6-.051,2.458,2.458,0,0,0-2.355,2.251,4.7,4.7,0,0,0-.072.821v5.169h-1.75Z" transform="translate(-14.173 -14.173)" style="fill:#060"/><path d="M1125.764,56.563c-.048.683-.081,1.469-.081,2.647v5.618c0,2.239-.457,3.581-1.382,4.429a5.2,5.2,0,0,1-3.525,1.16,6.241,6.241,0,0,1-3.229-.8l.44-1.353a5.454,5.454,0,0,0,2.849.774c1.8,0,3.115-.939,3.115-3.39V64.574h-.04a3.429,3.429,0,0,1-3.074,1.63c-2.412,0-4.125-2.052-4.125-4.732,0-3.281,2.134-5.13,4.368-5.13a3.216,3.216,0,0,1,3.019,1.669h.04l.072-1.448Zm-1.83,3.805a2.7,2.7,0,0,0-.1-.787,2.541,2.541,0,0,0-2.471-1.872c-1.678,0-2.882,1.419-2.882,3.667,0,1.894.978,3.485,2.865,3.485a2.577,2.577,0,0,0,2.447-1.814,3.111,3.111,0,0,0,.139-.936Z" transform="translate(-14.173 -14.173)" style="fill:#060"/><path d="M1128.346,64.445a4.8,4.8,0,0,0,2.332.69c1.285,0,1.88-.632,1.88-1.441,0-.846-.512-1.289-1.8-1.771-1.747-.633-2.575-1.585-2.571-2.744,0-1.558,1.266-2.837,3.347-2.837a4.671,4.671,0,0,1,2.369.6l-.436,1.279a3.8,3.8,0,0,0-1.986-.57c-1.038,0-1.6.6-1.6,1.328,0,.8.569,1.158,1.837,1.65,1.668.621,2.534,1.462,2.539,2.907,0,1.715-1.333,2.915-3.619,2.915a5.51,5.51,0,0,1-2.719-.675Z" transform="translate(-14.173 -14.173)" style="fill:#060"/><path d="M1139.694,68.647a13.511,13.511,0,0,0,2.51-8.166,13.337,13.337,0,0,0-2.51-8.137h1.368a12.866,12.866,0,0,1,2.617,8.149,13.069,13.069,0,0,1-2.617,8.154Z" transform="translate(-14.173 -14.173)"/><path d="M1149.771,59.976c1.418,0,1.619-.774,1.619-1.487a12.386,12.386,0,0,0-.153-1.667,10.827,10.827,0,0,1-.164-1.666c0-1.842,1.207-2.628,2.908-2.628h.414v1.1h-.357c-1.179,0-1.594.633-1.594,1.726a9.373,9.373,0,0,0,.15,1.423,9.986,9.986,0,0,1,.148,1.514,1.908,1.908,0,0,1-1.442,2.157v.04a1.942,1.942,0,0,1,1.442,2.185,10.028,10.028,0,0,1-.148,1.519,9.607,9.607,0,0,0-.15,1.436c0,1.124.476,1.745,1.6,1.745h.354v1.1h-.417c-1.657,0-2.9-.728-2.9-2.742a10.294,10.294,0,0,1,.164-1.633,11.915,11.915,0,0,0,.153-1.618c0-.633-.2-1.492-1.619-1.493Z" transform="translate(-14.173 -14.173)"/><path d="M1018.391,89.237V80.9h-1.351V79.563h1.351v-.424a4.354,4.354,0,0,1,1.367-3.348,4.588,4.588,0,0,1,3.1-.977,6.334,6.334,0,0,1,2.9.638V89.237h-1.751v-12.8a3.135,3.135,0,0,0-1.443-.265c-1.827,0-2.44,1.348-2.44,2.89v.5h2.266V80.9h-2.256v8.341Z" transform="translate(-14.173 -14.173)"/><path d="M1037.437,84.307c0,3.583-2.487,5.15-4.812,5.15-2.624,0-4.65-1.913-4.65-4.984,0-3.237,2.128-5.131,4.8-5.131C1035.56,79.342,1037.437,81.36,1037.437,84.307Zm-7.672.112c0,2.123,1.215,3.72,2.932,3.72,1.688,0,2.949-1.576,2.949-3.772,0-1.637-.826-3.706-2.917-3.706C1030.663,80.661,1029.765,82.585,1029.765,84.419Z" transform="translate(-14.173 -14.173)"/><path d="M1045.022,89.237l-.155-1.222h-.052a3.6,3.6,0,0,1-2.96,1.442,2.76,2.76,0,0,1-2.955-2.776c0-2.344,2.077-3.631,5.815-3.6v-.2a1.993,1.993,0,0,0-2.2-2.232,4.705,4.705,0,0,0-2.521.721l-.4-1.17a6.083,6.083,0,0,1,3.193-.849c2.957,0,3.679,2.022,3.679,3.96v3.62a15.2,15.2,0,0,0,.145,2.315Zm-.273-4.94c-1.9-.041-4.084.3-4.084,2.172a1.549,1.549,0,0,0,1.643,1.685,2.42,2.42,0,0,0,2.357-1.62,1.805,1.805,0,0,0,.084-.555Z" transform="translate(-14.173 -14.173)"/><path d="M1051.33,76.777v2.786h2.527V80.9h-2.527v5.213c0,1.2.347,1.886,1.33,1.886a3.521,3.521,0,0,0,1.02-.127l.081,1.337a4.511,4.511,0,0,1-1.573.242,2.463,2.463,0,0,1-1.9-.745,3.707,3.707,0,0,1-.683-2.524V80.9h-1.5V79.563h1.5V77.232Z" transform="translate(-14.173 -14.173)"/><path d="M1060.13,75.754h1.74v6.5h.063c.353-.523.727-.993,1.064-1.433l4.118-5.066h2.156l-4.875,5.731,5.262,7.752h-2.064l-4.431-6.613L1061.87,84.1v5.135h-1.74Z" transform="translate(-14.173 -14.173)" style="fill:#00c"/><path d="M1077.816,88.886a6.657,6.657,0,0,1-2.775.561,4.61,4.61,0,0,1-4.827-4.943,4.927,4.927,0,0,1,5.2-5.158,5.666,5.666,0,0,1,2.445.515l-.39,1.351a4.29,4.29,0,0,0-2.058-.465,3.357,3.357,0,0,0-3.413,3.664,3.322,3.322,0,0,0,3.37,3.62,5.119,5.119,0,0,0,2.154-.465Z" transform="translate(-14.173 -14.173)" style="fill:#00c"/><path d="M1083.455,82.488v-1.2h10.322v1.2Zm0,3.93v-1.2h10.322v1.2Z" transform="translate(-14.173 -14.173)"/><path d="M1105.643,89.237l-.156-1.222h-.051a3.6,3.6,0,0,1-2.96,1.442,2.76,2.76,0,0,1-2.955-2.776c0-2.344,2.076-3.631,5.814-3.6v-.2a1.993,1.993,0,0,0-2.2-2.232,4.705,4.705,0,0,0-2.521.721l-.4-1.17a6.086,6.086,0,0,1,3.193-.849c2.957,0,3.679,2.022,3.679,3.96v3.62a15.2,15.2,0,0,0,.145,2.315Zm-.274-4.94c-1.9-.041-4.084.3-4.084,2.172a1.549,1.549,0,0,0,1.643,1.685,2.42,2.42,0,0,0,2.357-1.62,1.805,1.805,0,0,0,.084-.555Z" transform="translate(-14.173 -14.173)" style="fill:#060"/><path d="M1109.915,82.576c0-1.143-.028-2.117-.08-3.013h1.542l.067,1.9h.063a2.935,2.935,0,0,1,2.694-2.118,1.976,1.976,0,0,1,.489.05v1.655a2.777,2.777,0,0,0-.6-.051,2.46,2.46,0,0,0-2.356,2.251,4.7,4.7,0,0,0-.071.821v5.169h-1.75Z" transform="translate(-14.173 -14.173)" style="fill:#060"/><path d="M1124.646,79.563c-.047.683-.081,1.469-.081,2.647v5.618c0,2.239-.457,3.581-1.381,4.429a5.206,5.206,0,0,1-3.525,1.16,6.241,6.241,0,0,1-3.229-.8l.44-1.353a5.454,5.454,0,0,0,2.849.774c1.8,0,3.115-.939,3.115-3.39V87.574h-.04a3.429,3.429,0,0,1-3.074,1.63c-2.412,0-4.125-2.052-4.125-4.732,0-3.281,2.134-5.13,4.368-5.13a3.213,3.213,0,0,1,3.018,1.669h.04l.073-1.448Zm-1.83,3.8a2.7,2.7,0,0,0-.1-.787,2.541,2.541,0,0,0-2.471-1.872c-1.679,0-2.882,1.419-2.882,3.667,0,1.894.978,3.485,2.864,3.485a2.577,2.577,0,0,0,2.448-1.814,3.142,3.142,0,0,0,.138-.936Z" transform="translate(-14.173 -14.173)" style="fill:#060"/><path d="M1127.229,87.445a4.8,4.8,0,0,0,2.332.69c1.285,0,1.879-.632,1.879-1.441,0-.846-.511-1.289-1.8-1.771-1.747-.633-2.576-1.585-2.571-2.744,0-1.558,1.266-2.837,3.347-2.837a4.674,4.674,0,0,1,2.369.6l-.436,1.279a3.8,3.8,0,0,0-1.986-.57c-1.038,0-1.6.6-1.6,1.328,0,.8.569,1.158,1.837,1.65,1.668.621,2.534,1.462,2.539,2.907,0,1.715-1.333,2.915-3.619,2.915a5.507,5.507,0,0,1-2.719-.675Z" transform="translate(-14.173 -14.173)" style="fill:#060"/><path d="M1134.76,88.2a1.187,1.187,0,0,1,1.193-1.27,1.264,1.264,0,1,1-1.193,1.27Z" transform="translate(-14.173 -14.173)"/><path d="M1139.369,75.754h1.74v6.5h.063c.353-.523.727-.993,1.064-1.433l4.118-5.066h2.157l-4.875,5.731,5.261,7.752h-2.064l-4.431-6.613-1.293,1.478v5.135h-1.74Z" transform="translate(-14.173 -14.173)"/><path d="M1157.056,88.886a6.666,6.666,0,0,1-2.776.561,4.61,4.61,0,0,1-4.827-4.943,4.927,4.927,0,0,1,5.2-5.158,5.671,5.671,0,0,1,2.446.515l-.391,1.351a4.29,4.29,0,0,0-2.058-.465,3.357,3.357,0,0,0-3.413,3.664,3.322,3.322,0,0,0,3.37,3.62,5.111,5.111,0,0,0,2.154-.465Z" transform="translate(-14.173 -14.173)"/><path d="M1157.986,91.706a29.526,29.526,0,0,0,1.2-4.791l1.949-.2a24.9,24.9,0,0,1-1.914,4.861Zm.869-10.559a1.182,1.182,0,0,1,1.189-1.262,1.257,1.257,0,1,1-1.189,1.262Z" transform="translate(-14.173 -14.173)"/><path d="M1018.391,112.237V103.9h-1.351v-1.333h1.351v-.424a4.354,4.354,0,0,1,1.367-3.348,4.588,4.588,0,0,1,3.1-.977,6.334,6.334,0,0,1,2.9.638v13.785h-1.751v-12.8a3.135,3.135,0,0,0-1.443-.265c-1.827,0-2.44,1.348-2.44,2.89v.5h2.266V103.9h-2.256v8.341Z" transform="translate(-14.173 -14.173)"/><path d="M1037.437,107.307c0,3.583-2.487,5.15-4.812,5.15-2.624,0-4.65-1.913-4.65-4.984,0-3.237,2.128-5.131,4.8-5.131C1035.56,102.342,1037.437,104.36,1037.437,107.307Zm-7.672.112c0,2.123,1.215,3.72,2.932,3.72,1.688,0,2.949-1.576,2.949-3.772,0-1.637-.826-3.706-2.917-3.706C1030.663,103.661,1029.765,105.585,1029.765,107.419Z" transform="translate(-14.173 -14.173)"/><path d="M1045.022,112.237l-.155-1.222h-.052a3.6,3.6,0,0,1-2.96,1.442,2.76,2.76,0,0,1-2.955-2.776c0-2.344,2.077-3.631,5.815-3.6v-.2a1.993,1.993,0,0,0-2.2-2.232,4.705,4.705,0,0,0-2.521.721l-.4-1.17a6.083,6.083,0,0,1,3.193-.849c2.957,0,3.679,2.022,3.679,3.96v3.62a15.2,15.2,0,0,0,.145,2.315Zm-.273-4.94c-1.9-.041-4.084.3-4.084,2.172a1.549,1.549,0,0,0,1.643,1.685,2.42,2.42,0,0,0,2.357-1.62,1.805,1.805,0,0,0,.084-.555Z" transform="translate(-14.173 -14.173)"/><path d="M1051.33,99.777v2.786h2.527V103.9h-2.527v5.213c0,1.2.347,1.886,1.33,1.886a3.521,3.521,0,0,0,1.02-.127l.081,1.337a4.511,4.511,0,0,1-1.573.242,2.463,2.463,0,0,1-1.9-.745,3.707,3.707,0,0,1-.683-2.524V103.9h-1.5v-1.333h1.5v-2.331Z" transform="translate(-14.173 -14.173)"/><path d="M1061.884,100.225h-4.107V98.754h9.984v1.471h-4.126v12.012h-1.751Z" transform="translate(-14.173 -14.173)" style="fill:#00c"/><path d="M1070.6,99.828a1.06,1.06,0,0,1-1.119,1.093,1.049,1.049,0,0,1-1.062-1.093,1.069,1.069,0,0,1,1.094-1.1A1.054,1.054,0,0,1,1070.6,99.828Zm-1.965,12.409v-9.674h1.75v9.674Z" transform="translate(-14.173 -14.173)" style="fill:#00c"/><path d="M1076.9,105.488v-1.2h10.322v1.2Zm0,3.93v-1.2h10.322v1.2Z" transform="translate(-14.173 -14.173)"/><path d="M1099.082,112.237l-.155-1.222h-.052a3.6,3.6,0,0,1-2.96,1.442,2.76,2.76,0,0,1-2.955-2.776c0-2.344,2.076-3.631,5.814-3.6v-.2a1.992,1.992,0,0,0-2.2-2.232,4.7,4.7,0,0,0-2.52.721l-.4-1.17a6.087,6.087,0,0,1,3.194-.849c2.957,0,3.678,2.022,3.678,3.96v3.62a15.194,15.194,0,0,0,.146,2.315Zm-.273-4.94c-1.9-.041-4.084.3-4.084,2.172a1.549,1.549,0,0,0,1.642,1.685,2.422,2.422,0,0,0,2.358-1.62,1.836,1.836,0,0,0,.084-.555Z" transform="translate(-14.173 -14.173)" style="fill:#060"/><path d="M1103.354,105.576c0-1.143-.028-2.117-.08-3.013h1.542l.068,1.9h.062a2.937,2.937,0,0,1,2.7-2.118,1.981,1.981,0,0,1,.489.05v1.655a2.793,2.793,0,0,0-.6-.051,2.458,2.458,0,0,0-2.355,2.251,4.7,4.7,0,0,0-.072.821v5.169h-1.75Z" transform="translate(-14.173 -14.173)" style="fill:#060"/><path d="M1118.087,102.563c-.048.683-.081,1.469-.081,2.647v5.618c0,2.239-.457,3.581-1.382,4.429a5.2,5.2,0,0,1-3.524,1.16,6.245,6.245,0,0,1-3.23-.8l.441-1.353a5.447,5.447,0,0,0,2.848.774c1.8,0,3.115-.939,3.115-3.39v-1.078h-.04a3.429,3.429,0,0,1-3.074,1.63c-2.412,0-4.125-2.052-4.125-4.732,0-3.281,2.134-5.13,4.368-5.13a3.216,3.216,0,0,1,3.019,1.669h.04l.072-1.448Zm-1.83,3.8a2.7,2.7,0,0,0-.1-.787,2.541,2.541,0,0,0-2.471-1.872c-1.678,0-2.881,1.419-2.881,3.667,0,1.894.977,3.485,2.864,3.485a2.576,2.576,0,0,0,2.447-1.814,3.111,3.111,0,0,0,.139-.936Z" transform="translate(-14.173 -14.173)" style="fill:#060"/><path d="M1120.669,110.445a4.8,4.8,0,0,0,2.332.69c1.285,0,1.88-.632,1.88-1.441,0-.846-.512-1.289-1.8-1.771-1.747-.633-2.575-1.585-2.57-2.744,0-1.558,1.265-2.837,3.346-2.837a4.678,4.678,0,0,1,2.37.6l-.437,1.279a3.8,3.8,0,0,0-1.985-.57c-1.038,0-1.6.6-1.6,1.328,0,.8.569,1.158,1.837,1.65,1.668.621,2.534,1.462,2.539,2.907,0,1.715-1.333,2.915-3.619,2.915a5.51,5.51,0,0,1-2.719-.675Z" transform="translate(-14.173 -14.173)" style="fill:#060"/><path d="M1128.2,111.2a1.187,1.187,0,0,1,1.194-1.27,1.264,1.264,0,1,1-1.194,1.27Z" transform="translate(-14.173 -14.173)"/><path d="M1135.383,100.225h-4.107V98.754h9.984v1.471h-4.126v12.012h-1.751Z" transform="translate(-14.173 -14.173)"/><path d="M1146.781,112.237l-.155-1.222h-.052a3.6,3.6,0,0,1-2.96,1.442,2.76,2.76,0,0,1-2.955-2.776c0-2.344,2.076-3.631,5.815-3.6v-.2a1.993,1.993,0,0,0-2.2-2.232,4.705,4.705,0,0,0-2.521.721l-.4-1.17a6.081,6.081,0,0,1,3.193-.849c2.957,0,3.679,2.022,3.679,3.96v3.62a15.2,15.2,0,0,0,.145,2.315Zm-.273-4.94c-1.9-.041-4.084.3-4.084,2.172a1.549,1.549,0,0,0,1.642,1.685,2.421,2.421,0,0,0,2.358-1.62,1.836,1.836,0,0,0,.084-.555Z" transform="translate(-14.173 -14.173)"/><path d="M1159.146,109.589c0,1.015.034,1.883.081,2.648h-1.555l-.094-1.582h-.049a3.612,3.612,0,0,1-3.2,1.8c-1.514,0-3.332-.849-3.332-4.24v-5.654h1.751v5.345c0,1.842.574,3.1,2.162,3.1a2.561,2.561,0,0,0,2.328-1.614,2.715,2.715,0,0,0,.16-.9v-5.925h1.75Z" transform="translate(-14.173 -14.173)"/><path d="M1163.878,98.754v13.483h-1.75V98.754Z" transform="translate(-14.173 -14.173)"/><path d="M1165.726,114.706a29.632,29.632,0,0,0,1.2-4.791l1.949-.2a24.9,24.9,0,0,1-1.914,4.861Zm.869-10.559a1.181,1.181,0,0,1,1.188-1.262,1.257,1.257,0,1,1-1.188,1.262Z" transform="translate(-14.173 -14.173)"/><path d="M1018.391,135.237V126.9h-1.351v-1.333h1.351v-.424a4.354,4.354,0,0,1,1.367-3.348,4.588,4.588,0,0,1,3.1-.977,6.334,6.334,0,0,1,2.9.638v13.785h-1.751v-12.8a3.135,3.135,0,0,0-1.443-.265c-1.827,0-2.44,1.348-2.44,2.89v.5h2.266V126.9h-2.256v8.341Z" transform="translate(-14.173 -14.173)"/><path d="M1037.437,130.307c0,3.583-2.487,5.15-4.812,5.15-2.624,0-4.65-1.913-4.65-4.984,0-3.237,2.128-5.131,4.8-5.131C1035.56,125.342,1037.437,127.36,1037.437,130.307Zm-7.672.112c0,2.123,1.215,3.72,2.932,3.72,1.688,0,2.949-1.576,2.949-3.772,0-1.637-.826-3.706-2.917-3.706C1030.663,126.661,1029.765,128.585,1029.765,130.419Z" transform="translate(-14.173 -14.173)"/><path d="M1045.022,135.237l-.155-1.222h-.052a3.6,3.6,0,0,1-2.96,1.442,2.76,2.76,0,0,1-2.955-2.776c0-2.344,2.077-3.631,5.815-3.6v-.2a1.993,1.993,0,0,0-2.2-2.232,4.705,4.705,0,0,0-2.521.721l-.4-1.17a6.083,6.083,0,0,1,3.193-.849c2.957,0,3.679,2.022,3.679,3.96v3.62a15.2,15.2,0,0,0,.145,2.315Zm-.273-4.94c-1.9-.041-4.084.3-4.084,2.172a1.549,1.549,0,0,0,1.643,1.685,2.42,2.42,0,0,0,2.357-1.62,1.805,1.805,0,0,0,.084-.555Z" transform="translate(-14.173 -14.173)"/><path d="M1051.33,122.777v2.786h2.527V126.9h-2.527v5.213c0,1.2.347,1.886,1.33,1.886a3.521,3.521,0,0,0,1.02-.127l.081,1.337a4.511,4.511,0,0,1-1.573.242,2.463,2.463,0,0,1-1.9-.745,3.707,3.707,0,0,1-.683-2.524V126.9h-1.5v-1.333h1.5v-2.331Z" transform="translate(-14.173 -14.173)"/><path d="M1060.079,128.175c0-1.009-.033-1.811-.08-2.612h1.528l.093,1.557h.049a3.341,3.341,0,0,1,3.055-1.778,2.846,2.846,0,0,1,2.726,1.94h.04a3.919,3.919,0,0,1,1.092-1.26,3.3,3.3,0,0,1,2.128-.68c1.292,0,3.194.833,3.194,4.2v5.7h-1.717v-5.471c0-1.875-.691-2.984-2.1-2.984a2.3,2.3,0,0,0-2.093,1.583,2.906,2.906,0,0,0-.143.883v5.989h-1.718v-5.806c0-1.541-.682-2.649-2.011-2.649a2.434,2.434,0,0,0-2.193,1.756,2.817,2.817,0,0,0-.133.867v5.832h-1.717Z" transform="translate(-14.173 -14.173)" style="fill:#00c"/><path d="M1077.176,125.563l1.9,5.424c.326.9.576,1.695.792,2.5h.053c.222-.8.5-1.608.81-2.5l1.893-5.424h1.839l-3.807,9.674h-1.677l-3.684-9.674Z" transform="translate(-14.173 -14.173)" style="fill:#00c"/><path d="M1089.7,128.488v-1.2h10.323v1.2Zm0,3.93v-1.2h10.323v1.2Z" transform="translate(-14.173 -14.173)"/><path d="M1111.883,135.237l-.155-1.222h-.052a3.6,3.6,0,0,1-2.96,1.442,2.76,2.76,0,0,1-2.955-2.776c0-2.344,2.076-3.631,5.814-3.6v-.2a1.992,1.992,0,0,0-2.2-2.232,4.7,4.7,0,0,0-2.52.721l-.4-1.17a6.087,6.087,0,0,1,3.194-.849c2.957,0,3.678,2.022,3.678,3.96v3.62a15.067,15.067,0,0,0,.146,2.315Zm-.274-4.94c-1.9-.041-4.084.3-4.084,2.172a1.549,1.549,0,0,0,1.643,1.685,2.42,2.42,0,0,0,2.357-1.62,1.805,1.805,0,0,0,.084-.555Z" transform="translate(-14.173 -14.173)" style="fill:#060"/><path d="M1116.155,128.576c0-1.143-.028-2.117-.08-3.013h1.542l.068,1.9h.062a2.936,2.936,0,0,1,2.694-2.118,1.984,1.984,0,0,1,.49.05v1.655a2.793,2.793,0,0,0-.6-.051,2.458,2.458,0,0,0-2.355,2.251,4.7,4.7,0,0,0-.072.821v5.169h-1.75Z" transform="translate(-14.173 -14.173)" style="fill:#060"/><path d="M1130.887,125.563c-.048.683-.081,1.469-.081,2.647v5.618c0,2.239-.457,3.581-1.382,4.429a5.2,5.2,0,0,1-3.525,1.16,6.241,6.241,0,0,1-3.229-.8l.44-1.353a5.454,5.454,0,0,0,2.849.774c1.8,0,3.115-.939,3.115-3.39v-1.078h-.04a3.429,3.429,0,0,1-3.074,1.63c-2.412,0-4.125-2.052-4.125-4.732,0-3.281,2.134-5.13,4.368-5.13a3.216,3.216,0,0,1,3.019,1.669h.04l.072-1.448Zm-1.83,3.8a2.7,2.7,0,0,0-.1-.787,2.541,2.541,0,0,0-2.471-1.872c-1.678,0-2.882,1.419-2.882,3.667,0,1.894.978,3.485,2.865,3.485a2.576,2.576,0,0,0,2.447-1.814,3.111,3.111,0,0,0,.139-.936Z" transform="translate(-14.173 -14.173)" style="fill:#060"/><path d="M1133.469,133.445a4.8,4.8,0,0,0,2.332.69c1.285,0,1.88-.632,1.88-1.441,0-.846-.512-1.289-1.8-1.771-1.747-.633-2.575-1.585-2.57-2.744,0-1.558,1.265-2.837,3.346-2.837a4.671,4.671,0,0,1,2.369.6l-.436,1.279a3.8,3.8,0,0,0-1.986-.57c-1.038,0-1.6.6-1.6,1.328,0,.8.569,1.158,1.837,1.65,1.668.621,2.534,1.462,2.539,2.907,0,1.715-1.333,2.915-3.619,2.915a5.51,5.51,0,0,1-2.719-.675Z" transform="translate(-14.173 -14.173)" style="fill:#060"/><path d="M1141,134.2a1.187,1.187,0,0,1,1.193-1.27A1.264,1.264,0,1,1,1141,134.2Z" transform="translate(-14.173 -14.173)"/><path d="M1156.987,129.316c-.1-1.873-.226-4.149-.215-5.815h-.054c-.465,1.564-1.025,3.264-1.7,5.111l-2.381,6.54h-1.315l-2.2-6.42c-.642-1.905-1.165-3.634-1.544-5.231h-.047c-.047,1.68-.134,3.925-.265,5.948l-.358,5.788h-1.654l.938-13.483h2.225l2.3,6.526c.555,1.651,1.008,3.136,1.357,4.542h.053c.354-1.365.825-2.851,1.427-4.541l2.4-6.527h2.227l.835,13.483h-1.711Z" transform="translate(-14.173 -14.173)"/><path d="M1167.122,135.237l-.155-1.222h-.052a3.6,3.6,0,0,1-2.96,1.442,2.76,2.76,0,0,1-2.955-2.776c0-2.344,2.076-3.631,5.814-3.6v-.2a1.992,1.992,0,0,0-2.2-2.232,4.7,4.7,0,0,0-2.52.721l-.4-1.17a6.087,6.087,0,0,1,3.194-.849c2.957,0,3.678,2.022,3.678,3.96v3.62a15.194,15.194,0,0,0,.146,2.315Zm-.273-4.94c-1.9-.041-4.084.3-4.084,2.172a1.549,1.549,0,0,0,1.642,1.685,2.422,2.422,0,0,0,2.358-1.62,1.836,1.836,0,0,0,.084-.555Z" transform="translate(-14.173 -14.173)"/><path d="M1171.4,128.175c0-1.009-.033-1.811-.08-2.612h1.555l.1,1.59h.049a3.571,3.571,0,0,1,3.2-1.811c1.329,0,3.409.8,3.409,4.123v5.772h-1.75v-5.578c0-1.564-.59-2.874-2.236-2.874a2.532,2.532,0,0,0-2.371,1.806,2.7,2.7,0,0,0-.122.816v5.83h-1.75Z" transform="translate(-14.173 -14.173)"/><path d="M1184.464,122.828a1.06,1.06,0,0,1-1.119,1.093,1.05,1.05,0,0,1-1.063-1.093,1.069,1.069,0,0,1,1.094-1.1A1.055,1.055,0,0,1,1184.464,122.828Zm-1.966,12.409v-9.674h1.75v9.674Z" transform="translate(-14.173 -14.173)"/><path d="M1187.174,128.714c0-1.234-.033-2.238-.08-3.151h1.572l.1,1.648h.04a3.778,3.778,0,0,1,3.434-1.869c2.342,0,4.107,1.973,4.107,4.909,0,3.488-2.133,5.206-4.4,5.206a3.377,3.377,0,0,1-2.981-1.524h-.04V139.2h-1.749Zm1.749,2.585a3.261,3.261,0,0,0,.076.716,2.7,2.7,0,0,0,2.631,2.064c1.865,0,2.941-1.531,2.941-3.748,0-1.931-1.011-3.591-2.874-3.591a2.8,2.8,0,0,0-2.661,2.171,3.079,3.079,0,0,0-.113.715Z" transform="translate(-14.173 -14.173)"/><path d="M1201.582,135.237l-4.416-13.483h1.893l2.094,6.647c.579,1.818,1.078,3.461,1.443,5.031h.047c.377-1.558.93-3.255,1.535-5.009l2.28-6.669h1.861l-4.816,13.483Z" transform="translate(-14.173 -14.173)"/><path d="M1214.422,135.237l-.155-1.222h-.052a3.6,3.6,0,0,1-2.96,1.442,2.76,2.76,0,0,1-2.955-2.776c0-2.344,2.076-3.631,5.814-3.6v-.2a1.992,1.992,0,0,0-2.2-2.232,4.7,4.7,0,0,0-2.52.721l-.4-1.17a6.087,6.087,0,0,1,3.194-.849c2.957,0,3.678,2.022,3.678,3.96v3.62a15.067,15.067,0,0,0,.146,2.315Zm-.274-4.94c-1.9-.041-4.084.3-4.084,2.172a1.549,1.549,0,0,0,1.643,1.685,2.42,2.42,0,0,0,2.357-1.62,1.805,1.805,0,0,0,.084-.555Z" transform="translate(-14.173 -14.173)"/><path d="M1218.694,128.576c0-1.143-.028-2.117-.08-3.013h1.542l.068,1.9h.062a2.936,2.936,0,0,1,2.694-2.118,1.984,1.984,0,0,1,.49.05v1.655a2.793,2.793,0,0,0-.6-.051,2.458,2.458,0,0,0-2.355,2.251,4.7,4.7,0,0,0-.072.821v5.169h-1.75Z" transform="translate(-14.173 -14.173)"/><path d="M1224.286,137.706a29.425,29.425,0,0,0,1.2-4.791l1.95-.2a24.9,24.9,0,0,1-1.914,4.861Zm.869-10.559a1.182,1.182,0,0,1,1.189-1.262,1.257,1.257,0,1,1-1.189,1.262Z" transform="translate(-14.173 -14.173)"/><path d="M1018.391,158.237V149.9h-1.351v-1.333h1.351v-.424a4.354,4.354,0,0,1,1.367-3.348,4.588,4.588,0,0,1,3.1-.977,6.334,6.334,0,0,1,2.9.638v13.785h-1.751v-12.8a3.135,3.135,0,0,0-1.443-.265c-1.827,0-2.44,1.348-2.44,2.89v.5h2.266V149.9h-2.256v8.341Z" transform="translate(-14.173 -14.173)"/><path d="M1037.437,153.307c0,3.583-2.487,5.15-4.812,5.15-2.624,0-4.65-1.913-4.65-4.984,0-3.237,2.128-5.131,4.8-5.131C1035.56,148.342,1037.437,150.36,1037.437,153.307Zm-7.672.112c0,2.123,1.215,3.72,2.932,3.72,1.688,0,2.949-1.576,2.949-3.772,0-1.637-.826-3.706-2.917-3.706C1030.663,149.661,1029.765,151.585,1029.765,153.419Z" transform="translate(-14.173 -14.173)"/><path d="M1045.022,158.237l-.155-1.222h-.052a3.6,3.6,0,0,1-2.96,1.442,2.76,2.76,0,0,1-2.955-2.776c0-2.344,2.077-3.631,5.815-3.6v-.2a1.993,1.993,0,0,0-2.2-2.232,4.705,4.705,0,0,0-2.521.721l-.4-1.17a6.083,6.083,0,0,1,3.193-.849c2.957,0,3.679,2.022,3.679,3.96v3.62a15.2,15.2,0,0,0,.145,2.315Zm-.273-4.94c-1.9-.041-4.084.3-4.084,2.172a1.549,1.549,0,0,0,1.643,1.685,2.42,2.42,0,0,0,2.357-1.62,1.805,1.805,0,0,0,.084-.555Z" transform="translate(-14.173 -14.173)"/><path d="M1051.33,145.777v2.786h2.527V149.9h-2.527v5.213c0,1.2.347,1.886,1.33,1.886a3.521,3.521,0,0,0,1.02-.127l.081,1.337a4.511,4.511,0,0,1-1.573.242,2.463,2.463,0,0,1-1.9-.745,3.707,3.707,0,0,1-.683-2.524V149.9h-1.5v-1.333h1.5v-2.331Z" transform="translate(-14.173 -14.173)"/><path d="M1060.075,151.714c0-1.234-.033-2.238-.08-3.151h1.572l.1,1.648h.04a3.779,3.779,0,0,1,3.435-1.869c2.341,0,4.106,1.973,4.106,4.909,0,3.488-2.133,5.206-4.4,5.206a3.379,3.379,0,0,1-2.982-1.524h-.04V162.2h-1.749Zm1.749,2.585a3.322,3.322,0,0,0,.076.716,2.7,2.7,0,0,0,2.631,2.064c1.865,0,2.942-1.531,2.942-3.748,0-1.931-1.012-3.591-2.874-3.591a2.794,2.794,0,0,0-2.661,2.171,3.028,3.028,0,0,0-.114.715Z" transform="translate(-14.173 -14.173)" style="fill:#00c"/><path d="M1072,148.563l1.9,5.424c.326.9.576,1.695.792,2.5h.052c.222-.8.5-1.608.81-2.5l1.893-5.424h1.839l-3.806,9.674H1073.8l-3.684-9.674Z" transform="translate(-14.173 -14.173)" style="fill:#00c"/><path d="M1084.516,151.488v-1.2h10.322v1.2Zm0,3.93v-1.2h10.322v1.2Z" transform="translate(-14.173 -14.173)"/><path d="M1106.7,158.237l-.155-1.222h-.052a3.6,3.6,0,0,1-2.96,1.442,2.76,2.76,0,0,1-2.955-2.776c0-2.344,2.076-3.631,5.815-3.6v-.2a1.993,1.993,0,0,0-2.2-2.232,4.7,4.7,0,0,0-2.52.721l-.4-1.17a6.087,6.087,0,0,1,3.194-.849c2.957,0,3.679,2.022,3.679,3.96v3.62a15.2,15.2,0,0,0,.145,2.315Zm-.273-4.94c-1.9-.041-4.084.3-4.084,2.172a1.549,1.549,0,0,0,1.642,1.685,2.422,2.422,0,0,0,2.358-1.62,1.836,1.836,0,0,0,.084-.555Z" transform="translate(-14.173 -14.173)" style="fill:#060"/><path d="M1110.976,151.576c0-1.143-.029-2.117-.08-3.013h1.542l.067,1.9h.062a2.938,2.938,0,0,1,2.695-2.118,1.981,1.981,0,0,1,.489.05v1.655a2.787,2.787,0,0,0-.6-.051,2.458,2.458,0,0,0-2.355,2.251,4.7,4.7,0,0,0-.071.821v5.169h-1.75Z" transform="translate(-14.173 -14.173)" style="fill:#060"/><path d="M1125.707,148.563c-.048.683-.081,1.469-.081,2.647v5.618c0,2.239-.457,3.581-1.382,4.429a5.2,5.2,0,0,1-3.524,1.16,6.245,6.245,0,0,1-3.23-.8l.441-1.353a5.447,5.447,0,0,0,2.848.774c1.8,0,3.116-.939,3.116-3.39v-1.078h-.041a3.429,3.429,0,0,1-3.074,1.63c-2.412,0-4.125-2.052-4.125-4.732,0-3.281,2.134-5.13,4.368-5.13a3.216,3.216,0,0,1,3.019,1.669h.04l.072-1.448Zm-1.83,3.805a2.669,2.669,0,0,0-.1-.787,2.541,2.541,0,0,0-2.47-1.872c-1.679,0-2.882,1.419-2.882,3.667,0,1.894.977,3.485,2.864,3.485a2.576,2.576,0,0,0,2.447-1.814,3.111,3.111,0,0,0,.139-.936Z" transform="translate(-14.173 -14.173)" style="fill:#060"/><path d="M1128.289,156.445a4.8,4.8,0,0,0,2.332.69c1.285,0,1.88-.632,1.88-1.441,0-.846-.512-1.289-1.8-1.771-1.747-.633-2.575-1.585-2.57-2.744,0-1.558,1.265-2.837,3.346-2.837a4.675,4.675,0,0,1,2.37.6l-.437,1.279a3.8,3.8,0,0,0-1.985-.57c-1.038,0-1.6.6-1.6,1.328,0,.8.57,1.158,1.837,1.65,1.668.621,2.534,1.462,2.539,2.907,0,1.715-1.333,2.915-3.619,2.915a5.51,5.51,0,0,1-2.719-.675Z" transform="translate(-14.173 -14.173)" style="fill:#060"/><path d="M1135.82,157.2a1.187,1.187,0,0,1,1.194-1.27,1.264,1.264,0,1,1-1.194,1.27Z" transform="translate(-14.173 -14.173)"/><path d="M1140.43,144.918a19.135,19.135,0,0,1,3.351-.269,5.537,5.537,0,0,1,3.78,1.121,3.67,3.67,0,0,1,1.185,2.822,3.966,3.966,0,0,1-1.048,2.886,5.576,5.576,0,0,1-4.12,1.476,5.7,5.7,0,0,1-1.408-.125v5.408h-1.74Zm1.74,6.493a5.354,5.354,0,0,0,1.443.152c2.113,0,3.388-1.037,3.388-2.879,0-1.785-1.274-2.657-3.185-2.657a8.4,8.4,0,0,0-1.646.137Z" transform="translate(-14.173 -14.173)"/><path d="M1150.7,151.576c0-1.143-.028-2.117-.08-3.013h1.542l.068,1.9h.062a2.936,2.936,0,0,1,2.694-2.118,1.984,1.984,0,0,1,.49.05v1.655a2.793,2.793,0,0,0-.6-.051,2.458,2.458,0,0,0-2.355,2.251,4.7,4.7,0,0,0-.072.821v5.169h-1.75Z" transform="translate(-14.173 -14.173)"/><path d="M1165.8,153.307c0,3.583-2.486,5.15-4.812,5.15-2.624,0-4.65-1.913-4.65-4.984,0-3.237,2.128-5.131,4.8-5.131C1163.919,148.342,1165.8,150.36,1165.8,153.307Zm-7.672.112c0,2.123,1.216,3.72,2.933,3.72,1.687,0,2.948-1.576,2.948-3.772,0-1.637-.825-3.706-2.916-3.706C1159.022,149.661,1158.124,151.585,1158.124,153.419Z" transform="translate(-14.173 -14.173)"/><path d="M1174.936,157.886a6.666,6.666,0,0,1-2.776.561,4.61,4.61,0,0,1-4.827-4.943,4.927,4.927,0,0,1,5.2-5.158,5.675,5.675,0,0,1,2.446.515l-.391,1.351a4.29,4.29,0,0,0-2.058-.465,3.357,3.357,0,0,0-3.413,3.664,3.322,3.322,0,0,0,3.37,3.62,5.115,5.115,0,0,0,2.154-.465Z" transform="translate(-14.173 -14.173)"/><path d="M1177.863,153.717a3.088,3.088,0,0,0,3.311,3.359,6.526,6.526,0,0,0,2.68-.5l.307,1.249a7.8,7.8,0,0,1-3.227.617,4.51,4.51,0,0,1-4.76-4.883c0-2.932,1.726-5.222,4.552-5.222,3.156,0,3.981,2.77,3.981,4.551a4.21,4.21,0,0,1-.06.824Zm5.15-1.265c.017-1.109-.454-2.848-2.427-2.848a2.889,2.889,0,0,0-2.7,2.848Z" transform="translate(-14.173 -14.173)"/><path d="M1186.648,156.445a4.8,4.8,0,0,0,2.332.69c1.286,0,1.88-.632,1.88-1.441,0-.846-.511-1.289-1.8-1.771-1.748-.633-2.576-1.585-2.571-2.744,0-1.558,1.266-2.837,3.347-2.837a4.674,4.674,0,0,1,2.369.6l-.437,1.279a3.8,3.8,0,0,0-1.985-.57c-1.038,0-1.6.6-1.6,1.328,0,.8.569,1.158,1.837,1.65,1.667.621,2.534,1.462,2.539,2.907,0,1.715-1.333,2.915-3.62,2.915a5.506,5.506,0,0,1-2.718-.675Z" transform="translate(-14.173 -14.173)"/><path d="M1194.568,156.445a4.8,4.8,0,0,0,2.332.69c1.286,0,1.88-.632,1.88-1.441,0-.846-.511-1.289-1.8-1.771-1.747-.633-2.575-1.585-2.57-2.744,0-1.558,1.266-2.837,3.347-2.837a4.674,4.674,0,0,1,2.369.6l-.437,1.279a3.8,3.8,0,0,0-1.985-.57c-1.038,0-1.6.6-1.6,1.328,0,.8.569,1.158,1.836,1.65,1.668.621,2.535,1.462,2.539,2.907,0,1.715-1.333,2.915-3.619,2.915a5.506,5.506,0,0,1-2.718-.675Z" transform="translate(-14.173 -14.173)"/><path d="M1205.763,158.237l-4.416-13.483h1.892l2.1,6.647c.579,1.818,1.078,3.461,1.442,5.031h.047c.377-1.558.931-3.255,1.535-5.009l2.281-6.669h1.861l-4.816,13.483Z" transform="translate(-14.173 -14.173)"/><path d="M1218.6,158.237l-.156-1.222h-.051a3.6,3.6,0,0,1-2.96,1.442,2.76,2.76,0,0,1-2.956-2.776c0-2.344,2.077-3.631,5.815-3.6v-.2a1.993,1.993,0,0,0-2.2-2.232,4.705,4.705,0,0,0-2.521.721l-.4-1.17a6.086,6.086,0,0,1,3.193-.849c2.957,0,3.679,2.022,3.679,3.96v3.62a15.2,15.2,0,0,0,.145,2.315Zm-.274-4.94c-1.9-.041-4.084.3-4.084,2.172a1.549,1.549,0,0,0,1.643,1.685,2.42,2.42,0,0,0,2.357-1.62,1.805,1.805,0,0,0,.084-.555Z" transform="translate(-14.173 -14.173)"/><path d="M1222.878,144.034h1.75v14.2h-1.75Z" transform="translate(-14.173 -14.173)"/><path d="M1226.466,160.706a29.632,29.632,0,0,0,1.2-4.791l1.949-.2a24.775,24.775,0,0,1-1.914,4.861Zm.869-10.559a1.181,1.181,0,0,1,1.188-1.262,1.257,1.257,0,1,1-1.188,1.262Z" transform="translate(-14.173 -14.173)"/><path d="M1018.391,181.237V172.9h-1.351v-1.333h1.351v-.424a4.354,4.354,0,0,1,1.367-3.348,4.588,4.588,0,0,1,3.1-.977,6.334,6.334,0,0,1,2.9.638v13.785h-1.751v-12.8a3.135,3.135,0,0,0-1.443-.265c-1.827,0-2.44,1.348-2.44,2.89v.5h2.266V172.9h-2.256v8.341Z" transform="translate(-14.173 -14.173)"/><path d="M1037.437,176.307c0,3.583-2.487,5.15-4.812,5.15-2.624,0-4.65-1.913-4.65-4.984,0-3.237,2.128-5.131,4.8-5.131C1035.56,171.342,1037.437,173.36,1037.437,176.307Zm-7.672.112c0,2.123,1.215,3.72,2.932,3.72,1.688,0,2.949-1.576,2.949-3.772,0-1.637-.826-3.706-2.917-3.706C1030.663,172.661,1029.765,174.585,1029.765,176.419Z" transform="translate(-14.173 -14.173)"/><path d="M1045.022,181.237l-.155-1.222h-.052a3.6,3.6,0,0,1-2.96,1.442,2.76,2.76,0,0,1-2.955-2.776c0-2.344,2.077-3.631,5.815-3.6v-.2a1.993,1.993,0,0,0-2.2-2.232,4.705,4.705,0,0,0-2.521.721l-.4-1.17a6.083,6.083,0,0,1,3.193-.849c2.957,0,3.679,2.022,3.679,3.96v3.62a15.2,15.2,0,0,0,.145,2.315Zm-.273-4.94c-1.9-.041-4.084.3-4.084,2.172a1.549,1.549,0,0,0,1.643,1.685,2.42,2.42,0,0,0,2.357-1.62,1.805,1.805,0,0,0,.084-.555Z" transform="translate(-14.173 -14.173)"/><path d="M1051.33,168.777v2.786h2.527V172.9h-2.527v5.213c0,1.2.347,1.886,1.33,1.886a3.521,3.521,0,0,0,1.02-.127l.081,1.337a4.511,4.511,0,0,1-1.573.242,2.463,2.463,0,0,1-1.9-.745,3.707,3.707,0,0,1-.683-2.524V172.9h-1.5v-1.333h1.5v-2.331Z" transform="translate(-14.173 -14.173)"/><path d="M1059.829,179.445a4.8,4.8,0,0,0,2.332.69c1.285,0,1.88-.632,1.88-1.441,0-.846-.512-1.289-1.8-1.771-1.747-.633-2.575-1.585-2.57-2.744,0-1.558,1.265-2.837,3.347-2.837a4.674,4.674,0,0,1,2.369.6l-.437,1.279a3.8,3.8,0,0,0-1.985-.57c-1.038,0-1.6.6-1.6,1.328,0,.8.57,1.158,1.837,1.65,1.668.621,2.534,1.462,2.539,2.907,0,1.715-1.333,2.915-3.619,2.915a5.513,5.513,0,0,1-2.719-.675Z" transform="translate(-14.173 -14.173)" style="fill:#00c"/><path d="M1070.11,168.777v2.786h2.528V172.9h-2.528v5.213c0,1.2.347,1.886,1.33,1.886a3.516,3.516,0,0,0,1.02-.127l.081,1.337a4.509,4.509,0,0,1-1.572.242,2.463,2.463,0,0,1-1.9-.745,3.707,3.707,0,0,1-.682-2.524V172.9h-1.5v-1.333h1.5v-2.331Z" transform="translate(-14.173 -14.173)" style="fill:#00c"/><path d="M1074.615,174.714c0-1.234-.033-2.238-.08-3.151h1.572l.1,1.648h.04a3.779,3.779,0,0,1,3.435-1.869c2.342,0,4.106,1.973,4.106,4.909,0,3.488-2.133,5.206-4.4,5.206a3.379,3.379,0,0,1-2.982-1.524h-.04V185.2h-1.749Zm1.749,2.585a3.322,3.322,0,0,0,.076.716,2.7,2.7,0,0,0,2.631,2.064c1.866,0,2.942-1.531,2.942-3.748,0-1.931-1.012-3.591-2.874-3.591a2.794,2.794,0,0,0-2.661,2.171,3.028,3.028,0,0,0-.114.715Z" transform="translate(-14.173 -14.173)" style="fill:#00c"/><path d="M1088.11,168.777v2.786h2.528V172.9h-2.528v5.213c0,1.2.347,1.886,1.33,1.886a3.516,3.516,0,0,0,1.02-.127l.081,1.337a4.509,4.509,0,0,1-1.572.242,2.463,2.463,0,0,1-1.9-.745,3.707,3.707,0,0,1-.682-2.524V172.9h-1.5v-1.333h1.5v-2.331Z" transform="translate(-14.173 -14.173)" style="fill:#00c"/><path d="M1096.2,174.488v-1.2h10.323v1.2Zm0,3.93v-1.2h10.323v1.2Z" transform="translate(-14.173 -14.173)"/><path d="M1118.383,181.237l-.155-1.222h-.052a3.6,3.6,0,0,1-2.96,1.442,2.76,2.76,0,0,1-2.955-2.776c0-2.344,2.076-3.631,5.814-3.6v-.2a1.992,1.992,0,0,0-2.2-2.232,4.7,4.7,0,0,0-2.52.721l-.4-1.17a6.087,6.087,0,0,1,3.194-.849c2.957,0,3.678,2.022,3.678,3.96v3.62a15.067,15.067,0,0,0,.146,2.315Zm-.274-4.94c-1.9-.041-4.084.3-4.084,2.172a1.549,1.549,0,0,0,1.643,1.685,2.42,2.42,0,0,0,2.357-1.62,1.805,1.805,0,0,0,.084-.555Z" transform="translate(-14.173 -14.173)" style="fill:#060"/><path d="M1122.655,174.576c0-1.143-.028-2.117-.08-3.013h1.542l.068,1.9h.062a2.936,2.936,0,0,1,2.694-2.118,1.984,1.984,0,0,1,.49.05v1.655a2.793,2.793,0,0,0-.6-.051,2.458,2.458,0,0,0-2.355,2.251,4.7,4.7,0,0,0-.072.821v5.169h-1.75Z" transform="translate(-14.173 -14.173)" style="fill:#060"/><path d="M1137.387,171.563c-.048.683-.081,1.469-.081,2.647v5.618c0,2.239-.457,3.581-1.382,4.429a5.2,5.2,0,0,1-3.525,1.16,6.241,6.241,0,0,1-3.229-.8l.44-1.353a5.454,5.454,0,0,0,2.849.774c1.8,0,3.115-.939,3.115-3.39v-1.078h-.04a3.429,3.429,0,0,1-3.074,1.63c-2.412,0-4.125-2.052-4.125-4.732,0-3.281,2.134-5.13,4.368-5.13a3.216,3.216,0,0,1,3.019,1.669h.04l.072-1.448Zm-1.83,3.805a2.7,2.7,0,0,0-.1-.787,2.541,2.541,0,0,0-2.471-1.872c-1.678,0-2.882,1.419-2.882,3.667,0,1.894.978,3.485,2.865,3.485a2.576,2.576,0,0,0,2.447-1.814,3.111,3.111,0,0,0,.139-.936Z" transform="translate(-14.173 -14.173)" style="fill:#060"/><path d="M1139.969,179.445a4.8,4.8,0,0,0,2.332.69c1.285,0,1.88-.632,1.88-1.441,0-.846-.512-1.289-1.8-1.771-1.747-.633-2.575-1.585-2.57-2.744,0-1.558,1.265-2.837,3.346-2.837a4.671,4.671,0,0,1,2.369.6l-.436,1.279a3.8,3.8,0,0,0-1.986-.57c-1.038,0-1.6.6-1.6,1.328,0,.8.569,1.158,1.837,1.65,1.668.621,2.534,1.462,2.539,2.907,0,1.715-1.333,2.915-3.619,2.915a5.51,5.51,0,0,1-2.719-.675Z" transform="translate(-14.173 -14.173)" style="fill:#060"/><path d="M1147.5,180.2a1.187,1.187,0,0,1,1.193-1.27,1.264,1.264,0,1,1-1.193,1.27Z" transform="translate(-14.173 -14.173)"/><path d="M1151.884,179.115a6.068,6.068,0,0,0,3.111.873c1.781,0,2.828-.93,2.828-2.295,0-1.251-.731-1.987-2.55-2.668-2.2-.781-3.565-1.938-3.565-3.825,0-2.1,1.744-3.656,4.37-3.656a6.17,6.17,0,0,1,2.975.652l-.487,1.427a5.115,5.115,0,0,0-2.545-.64c-1.852,0-2.551,1.1-2.551,2.016,0,1.252.819,1.87,2.68,2.588,2.288.9,3.44,2,3.44,3.972,0,2.068-1.525,3.888-4.719,3.888a6.9,6.9,0,0,1-3.444-.88Z" transform="translate(-14.173 -14.173)"/><path d="M1163.023,176.717a3.089,3.089,0,0,0,3.311,3.359,6.526,6.526,0,0,0,2.68-.5l.307,1.249a7.8,7.8,0,0,1-3.227.617,4.51,4.51,0,0,1-4.76-4.883c0-2.932,1.727-5.222,4.552-5.222,3.156,0,3.981,2.77,3.981,4.551a4.307,4.307,0,0,1-.059.824Zm5.15-1.265c.017-1.109-.454-2.848-2.427-2.848a2.89,2.89,0,0,0-2.7,2.848Z" transform="translate(-14.173 -14.173)"/><path d="M1174.17,168.777v2.786h2.527V172.9h-2.527v5.213c0,1.2.347,1.886,1.33,1.886a3.521,3.521,0,0,0,1.02-.127l.081,1.337a4.511,4.511,0,0,1-1.573.242,2.463,2.463,0,0,1-1.9-.745,3.707,3.707,0,0,1-.683-2.524V172.9h-1.5v-1.333h1.5v-2.331Z" transform="translate(-14.173 -14.173)"/><path d="M1178.729,167.918a19.148,19.148,0,0,1,3.352-.269,5.532,5.532,0,0,1,3.779,1.121,3.667,3.667,0,0,1,1.186,2.822,3.966,3.966,0,0,1-1.048,2.886,5.577,5.577,0,0,1-4.12,1.476,5.7,5.7,0,0,1-1.408-.125v5.408h-1.741Zm1.741,6.493a5.349,5.349,0,0,0,1.443.152c2.112,0,3.388-1.037,3.388-2.879,0-1.785-1.275-2.657-3.185-2.657a8.393,8.393,0,0,0-1.646.137Z" transform="translate(-14.173 -14.173)"/><path d="M1197.575,176.307c0,3.583-2.486,5.15-4.811,5.15-2.624,0-4.651-1.913-4.651-4.984,0-3.237,2.128-5.131,4.8-5.131C1195.7,171.342,1197.575,173.36,1197.575,176.307Zm-7.672.112c0,2.123,1.216,3.72,2.933,3.72,1.687,0,2.948-1.576,2.948-3.772,0-1.637-.825-3.706-2.916-3.706C1190.8,172.661,1189.9,174.585,1189.9,176.419Z" transform="translate(-14.173 -14.173)"/><path d="M1201.764,168.828a1.06,1.06,0,0,1-1.119,1.093,1.05,1.05,0,0,1-1.063-1.093,1.069,1.069,0,0,1,1.094-1.1A1.055,1.055,0,0,1,1201.764,168.828Zm-1.966,12.409v-9.674h1.75v9.674Z" transform="translate(-14.173 -14.173)"/><path d="M1204.478,174.175c0-1.009-.034-1.811-.081-2.612h1.555l.1,1.59h.049a3.571,3.571,0,0,1,3.2-1.811c1.329,0,3.409.8,3.409,4.123v5.772h-1.751v-5.578c0-1.564-.589-2.874-2.236-2.874a2.531,2.531,0,0,0-2.37,1.806,2.7,2.7,0,0,0-.121.816v5.83h-1.75Z" transform="translate(-14.173 -14.173)"/><path d="M1217.608,168.777v2.786h2.528V172.9h-2.528v5.213c0,1.2.347,1.886,1.33,1.886a3.511,3.511,0,0,0,1.02-.127l.081,1.337a4.509,4.509,0,0,1-1.572.242,2.463,2.463,0,0,1-1.9-.745,3.707,3.707,0,0,1-.682-2.524V172.9h-1.5v-1.333h1.5v-2.331Z" transform="translate(-14.173 -14.173)"/><path d="M1220.985,183.706a29.526,29.526,0,0,0,1.2-4.791l1.949-.2a24.9,24.9,0,0,1-1.914,4.861Zm.869-10.559a1.182,1.182,0,0,1,1.189-1.262,1.257,1.257,0,1,1-1.189,1.262Z" transform="translate(-14.173 -14.173)"/><path d="M1018.391,204.237V195.9h-1.351v-1.333h1.351v-.424a4.354,4.354,0,0,1,1.367-3.348,4.588,4.588,0,0,1,3.1-.977,6.334,6.334,0,0,1,2.9.638v13.785h-1.751v-12.8a3.135,3.135,0,0,0-1.443-.265c-1.827,0-2.44,1.348-2.44,2.89v.5h2.266V195.9h-2.256v8.341Z" transform="translate(-14.173 -14.173)"/><path d="M1037.437,199.307c0,3.583-2.487,5.15-4.812,5.15-2.624,0-4.65-1.913-4.65-4.984,0-3.237,2.128-5.131,4.8-5.131C1035.56,194.342,1037.437,196.36,1037.437,199.307Zm-7.672.112c0,2.123,1.215,3.72,2.932,3.72,1.688,0,2.949-1.576,2.949-3.772,0-1.637-.826-3.706-2.917-3.706C1030.663,195.661,1029.765,197.585,1029.765,199.419Z" transform="translate(-14.173 -14.173)"/><path d="M1045.022,204.237l-.155-1.222h-.052a3.6,3.6,0,0,1-2.96,1.442,2.76,2.76,0,0,1-2.955-2.776c0-2.344,2.077-3.631,5.815-3.6v-.2a1.993,1.993,0,0,0-2.2-2.232,4.705,4.705,0,0,0-2.521.721l-.4-1.17a6.083,6.083,0,0,1,3.193-.849c2.957,0,3.679,2.022,3.679,3.96v3.62a15.2,15.2,0,0,0,.145,2.315Zm-.273-4.94c-1.9-.041-4.084.3-4.084,2.172a1.549,1.549,0,0,0,1.643,1.685,2.42,2.42,0,0,0,2.357-1.62,1.805,1.805,0,0,0,.084-.555Z" transform="translate(-14.173 -14.173)"/><path d="M1051.33,191.777v2.786h2.527V195.9h-2.527v5.213c0,1.2.347,1.886,1.33,1.886a3.521,3.521,0,0,0,1.02-.127l.081,1.337a4.511,4.511,0,0,1-1.573.242,2.463,2.463,0,0,1-1.9-.745,3.707,3.707,0,0,1-.683-2.524V195.9h-1.5v-1.333h1.5v-2.331Z" transform="translate(-14.173 -14.173)"/><path d="M1061.063,199.717a3.089,3.089,0,0,0,3.311,3.359,6.526,6.526,0,0,0,2.68-.5l.307,1.249a7.8,7.8,0,0,1-3.227.617,4.51,4.51,0,0,1-4.76-4.883c0-2.932,1.727-5.222,4.552-5.222,3.156,0,3.981,2.77,3.981,4.551a4.307,4.307,0,0,1-.059.824Zm5.15-1.265c.017-1.109-.454-2.848-2.427-2.848a2.89,2.89,0,0,0-2.7,2.848Z" transform="translate(-14.173 -14.173)" style="fill:#00c"/><path d="M1070.1,197.576c0-1.143-.029-2.117-.08-3.013h1.542l.067,1.9h.063a2.935,2.935,0,0,1,2.694-2.118,1.981,1.981,0,0,1,.489.05v1.655a2.787,2.787,0,0,0-.6-.051,2.458,2.458,0,0,0-2.355,2.251,4.7,4.7,0,0,0-.071.821v5.169h-1.75Z" transform="translate(-14.173 -14.173)" style="fill:#00c"/><path d="M1076.715,197.576c0-1.143-.028-2.117-.08-3.013h1.542l.067,1.9h.063a2.935,2.935,0,0,1,2.694-2.118,1.981,1.981,0,0,1,.489.05v1.655a2.777,2.777,0,0,0-.6-.051,2.458,2.458,0,0,0-2.356,2.251,4.7,4.7,0,0,0-.071.821v5.169h-1.75Z" transform="translate(-14.173 -14.173)" style="fill:#00c"/><path d="M1083.009,202.445a4.8,4.8,0,0,0,2.332.69c1.285,0,1.88-.632,1.88-1.441,0-.846-.512-1.289-1.8-1.771-1.747-.633-2.575-1.585-2.57-2.744,0-1.558,1.265-2.837,3.346-2.837a4.671,4.671,0,0,1,2.369.6l-.436,1.279a3.8,3.8,0,0,0-1.986-.57c-1.038,0-1.6.6-1.6,1.328,0,.8.569,1.158,1.837,1.65,1.668.621,2.534,1.462,2.539,2.907,0,1.715-1.333,2.915-3.619,2.915a5.51,5.51,0,0,1-2.719-.675Z" transform="translate(-14.173 -14.173)" style="fill:#00c"/><path d="M1094.755,197.488v-1.2h10.322v1.2Zm0,3.93v-1.2h10.322v1.2Z" transform="translate(-14.173 -14.173)"/><path d="M1116.942,204.237l-.155-1.222h-.052a3.6,3.6,0,0,1-2.96,1.442,2.76,2.76,0,0,1-2.955-2.776c0-2.344,2.076-3.631,5.815-3.6v-.2a1.993,1.993,0,0,0-2.2-2.232,4.705,4.705,0,0,0-2.521.721l-.4-1.17a6.081,6.081,0,0,1,3.193-.849c2.957,0,3.679,2.022,3.679,3.96v3.62a15.2,15.2,0,0,0,.145,2.315Zm-.273-4.94c-1.9-.041-4.084.3-4.084,2.172a1.549,1.549,0,0,0,1.643,1.685,2.42,2.42,0,0,0,2.357-1.62,1.836,1.836,0,0,0,.084-.555Z" transform="translate(-14.173 -14.173)" style="fill:#060"/><path d="M1121.215,197.576c0-1.143-.028-2.117-.08-3.013h1.542l.067,1.9h.063a2.935,2.935,0,0,1,2.694-2.118,1.981,1.981,0,0,1,.489.05v1.655a2.777,2.777,0,0,0-.6-.051,2.458,2.458,0,0,0-2.356,2.251,4.7,4.7,0,0,0-.071.821v5.169h-1.75Z" transform="translate(-14.173 -14.173)" style="fill:#060"/><path d="M1135.946,194.563c-.048.683-.081,1.469-.081,2.647v5.618c0,2.239-.457,3.581-1.382,4.429a5.2,5.2,0,0,1-3.524,1.16,6.248,6.248,0,0,1-3.23-.8l.441-1.353a5.451,5.451,0,0,0,2.849.774c1.8,0,3.115-.939,3.115-3.39v-1.078h-.04a3.431,3.431,0,0,1-3.074,1.63c-2.413,0-4.125-2.052-4.125-4.732,0-3.281,2.133-5.13,4.368-5.13a3.214,3.214,0,0,1,3.018,1.669h.04l.073-1.448Zm-1.83,3.805a2.7,2.7,0,0,0-.1-.787,2.542,2.542,0,0,0-2.471-1.872c-1.679,0-2.882,1.419-2.882,3.667,0,1.894.978,3.485,2.864,3.485a2.577,2.577,0,0,0,2.448-1.814,3.142,3.142,0,0,0,.138-.936Z" transform="translate(-14.173 -14.173)" style="fill:#060"/><path d="M1138.528,202.445a4.8,4.8,0,0,0,2.332.69c1.286,0,1.88-.632,1.88-1.441,0-.846-.511-1.289-1.8-1.771-1.747-.633-2.575-1.585-2.57-2.744,0-1.558,1.266-2.837,3.347-2.837a4.674,4.674,0,0,1,2.369.6l-.437,1.279a3.8,3.8,0,0,0-1.985-.57c-1.038,0-1.6.6-1.6,1.328,0,.8.57,1.158,1.837,1.65,1.668.621,2.535,1.462,2.539,2.907,0,1.715-1.333,2.915-3.619,2.915a5.506,5.506,0,0,1-2.718-.675Z" transform="translate(-14.173 -14.173)" style="fill:#060"/><path d="M1146.06,203.2a1.187,1.187,0,0,1,1.193-1.27,1.264,1.264,0,1,1-1.193,1.27Z" transform="translate(-14.173 -14.173)"/><path d="M1152.856,200l-1.392,4.238h-1.806l4.586-13.483h2.094l4.6,13.483h-1.862L1157.637,200Zm4.428-1.361-1.335-3.88c-.292-.883-.494-1.686-.694-2.46h-.047c-.193.788-.4,1.612-.669,2.436l-1.328,3.9Z" transform="translate(-14.173 -14.173)"/><path d="M1169.517,203.886a6.666,6.666,0,0,1-2.776.561,4.61,4.61,0,0,1-4.827-4.943,4.927,4.927,0,0,1,5.2-5.158,5.675,5.675,0,0,1,2.446.515l-.391,1.351a4.29,4.29,0,0,0-2.058-.465,3.357,3.357,0,0,0-3.413,3.664,3.322,3.322,0,0,0,3.37,3.62,5.111,5.111,0,0,0,2.154-.465Z" transform="translate(-14.173 -14.173)"/><path d="M1178.356,203.886a6.657,6.657,0,0,1-2.775.561,4.61,4.61,0,0,1-4.827-4.943,4.927,4.927,0,0,1,5.2-5.158,5.666,5.666,0,0,1,2.445.515l-.39,1.351a4.29,4.29,0,0,0-2.058-.465,3.357,3.357,0,0,0-3.413,3.664,3.322,3.322,0,0,0,3.37,3.62,5.111,5.111,0,0,0,2.154-.465Z" transform="translate(-14.173 -14.173)"/><path d="M1188.527,201.589c0,1.015.034,1.883.08,2.648h-1.554l-.094-1.582h-.049a3.614,3.614,0,0,1-3.2,1.8c-1.514,0-3.332-.849-3.332-4.24v-5.654h1.751v5.345c0,1.842.574,3.1,2.162,3.1a2.561,2.561,0,0,0,2.328-1.614,2.715,2.715,0,0,0,.16-.9v-5.925h1.75Z" transform="translate(-14.173 -14.173)"/><path d="M1191.458,197.175c0-1.009-.033-1.811-.08-2.612h1.528l.093,1.557h.049a3.341,3.341,0,0,1,3.055-1.778,2.846,2.846,0,0,1,2.726,1.94h.04a3.919,3.919,0,0,1,1.092-1.26,3.3,3.3,0,0,1,2.128-.68c1.292,0,3.194.833,3.194,4.2v5.7h-1.718v-5.471c0-1.875-.69-2.984-2.1-2.984a2.3,2.3,0,0,0-2.093,1.583,2.906,2.906,0,0,0-.144.883v5.989h-1.717v-5.806c0-1.541-.682-2.649-2.011-2.649a2.434,2.434,0,0,0-2.193,1.756,2.817,2.817,0,0,0-.133.867v5.832h-1.717Z" transform="translate(-14.173 -14.173)"/><path d="M1215.166,197.916h-5.228v4.87h5.847v1.451h-7.6V190.754h7.29v1.451h-5.54v4.27h5.228Z" transform="translate(-14.173 -14.173)"/><path d="M1217.974,197.576c0-1.143-.029-2.117-.08-3.013h1.542l.067,1.9h.062a2.938,2.938,0,0,1,2.695-2.118,1.981,1.981,0,0,1,.489.05v1.655a2.787,2.787,0,0,0-.6-.051,2.458,2.458,0,0,0-2.355,2.251,4.7,4.7,0,0,0-.071.821v5.169h-1.75Z" transform="translate(-14.173 -14.173)"/><path d="M1224.594,197.576c0-1.143-.029-2.117-.08-3.013h1.542l.067,1.9h.063a2.935,2.935,0,0,1,2.694-2.118,1.981,1.981,0,0,1,.489.05v1.655a2.783,2.783,0,0,0-.6-.051,2.458,2.458,0,0,0-2.356,2.251,4.7,4.7,0,0,0-.071.821v5.169h-1.75Z" transform="translate(-14.173 -14.173)"/><path d="M1230.186,206.706a29.632,29.632,0,0,0,1.2-4.791l1.949-.2a24.9,24.9,0,0,1-1.914,4.861Zm.869-10.559a1.181,1.181,0,0,1,1.188-1.262,1.257,1.257,0,1,1-1.188,1.262Z" transform="translate(-14.173 -14.173)"/><path d="M1018.136,227.237c.047-.665.08-1.635.08-2.5V213.034h1.749v6.081h.04a3.579,3.579,0,0,1,3.3-1.773c2.4,0,4.092,2,4.084,4.927,0,3.47-2.2,5.188-4.357,5.188a3.492,3.492,0,0,1-3.242-1.811h-.047l-.089,1.591Zm1.829-3.878a2.779,2.779,0,0,0,.073.638,2.711,2.711,0,0,0,2.639,2.059c1.85,0,2.937-1.5,2.937-3.719,0-1.945-1.005-3.61-2.886-3.61a2.8,2.8,0,0,0-2.663,2.163,2.961,2.961,0,0,0-.1.731Z" transform="translate(-14.173 -14.173)"/><path d="M1038.376,222.307c0,3.583-2.486,5.15-4.812,5.15-2.624,0-4.65-1.913-4.65-4.984,0-3.237,2.128-5.131,4.8-5.131C1036.5,217.342,1038.376,219.36,1038.376,222.307Zm-7.672.112c0,2.123,1.216,3.72,2.933,3.72,1.687,0,2.948-1.576,2.948-3.772,0-1.637-.825-3.706-2.916-3.706C1031.6,218.661,1030.7,220.585,1030.7,222.419Z" transform="translate(-14.173 -14.173)"/><path d="M1049.376,222.307c0,3.583-2.486,5.15-4.812,5.15-2.624,0-4.65-1.913-4.65-4.984,0-3.237,2.128-5.131,4.8-5.131C1047.5,217.342,1049.376,219.36,1049.376,222.307Zm-7.672.112c0,2.123,1.216,3.72,2.933,3.72,1.687,0,2.948-1.576,2.948-3.772,0-1.637-.825-3.706-2.916-3.706C1042.6,218.661,1041.7,220.585,1041.7,222.419Z" transform="translate(-14.173 -14.173)"/><path d="M1051.6,213.034h1.75v14.2h-1.75Z" transform="translate(-14.173 -14.173)"/><path d="M1065.922,227.237l-.155-1.222h-.052a3.6,3.6,0,0,1-2.96,1.442,2.76,2.76,0,0,1-2.955-2.776c0-2.344,2.076-3.631,5.814-3.6v-.2a1.992,1.992,0,0,0-2.2-2.232,4.7,4.7,0,0,0-2.52.721l-.4-1.17a6.087,6.087,0,0,1,3.194-.849c2.957,0,3.678,2.022,3.678,3.96v3.62a15.067,15.067,0,0,0,.146,2.315Zm-.274-4.94c-1.9-.041-4.084.3-4.084,2.172a1.549,1.549,0,0,0,1.643,1.685,2.42,2.42,0,0,0,2.357-1.62,1.805,1.805,0,0,0,.084-.555Z" transform="translate(-14.173 -14.173)" style="fill:#9c0"/><path d="M1078.287,224.589c0,1.015.033,1.883.08,2.648h-1.554l-.094-1.582h-.049a3.614,3.614,0,0,1-3.2,1.8c-1.514,0-3.332-.849-3.332-4.24v-5.654h1.751v5.345c0,1.842.574,3.1,2.162,3.1a2.561,2.561,0,0,0,2.328-1.614,2.715,2.715,0,0,0,.16-.9v-5.925h1.75Z" transform="translate(-14.173 -14.173)" style="fill:#9c0"/><path d="M1083.329,214.777v2.786h2.527V218.9h-2.527v5.213c0,1.2.347,1.886,1.33,1.886a3.521,3.521,0,0,0,1.02-.127l.081,1.337a4.509,4.509,0,0,1-1.572.242,2.463,2.463,0,0,1-1.9-.745,3.707,3.707,0,0,1-.683-2.524V218.9h-1.5v-1.333h1.5v-2.331Z" transform="translate(-14.173 -14.173)" style="fill:#9c0"/><path d="M1096.475,222.307c0,3.583-2.487,5.15-4.812,5.15-2.624,0-4.65-1.913-4.65-4.984,0-3.237,2.128-5.131,4.8-5.131C1094.6,217.342,1096.475,219.36,1096.475,222.307Zm-7.672.112c0,2.123,1.216,3.72,2.932,3.72,1.688,0,2.949-1.576,2.949-3.772,0-1.637-.826-3.706-2.916-3.706C1089.7,218.661,1088.8,220.585,1088.8,222.419Z" transform="translate(-14.173 -14.173)" style="fill:#9c0"/><path d="M1102.273,220.488v-1.2H1112.6v1.2Zm0,3.93v-1.2H1112.6v1.2Z" transform="translate(-14.173 -14.173)"/><path d="M1124.461,227.237l-.155-1.222h-.052a3.6,3.6,0,0,1-2.96,1.442,2.76,2.76,0,0,1-2.955-2.776c0-2.344,2.076-3.631,5.814-3.6v-.2a1.992,1.992,0,0,0-2.2-2.232,4.7,4.7,0,0,0-2.52.721l-.4-1.17a6.087,6.087,0,0,1,3.194-.849c2.957,0,3.678,2.022,3.678,3.96v3.62a15.067,15.067,0,0,0,.146,2.315Zm-.273-4.94c-1.905-.041-4.084.3-4.084,2.172a1.549,1.549,0,0,0,1.642,1.685,2.422,2.422,0,0,0,2.358-1.62,1.836,1.836,0,0,0,.084-.555Z" transform="translate(-14.173 -14.173)" style="fill:#060"/><path d="M1128.733,220.576c0-1.143-.028-2.117-.08-3.013h1.542l.068,1.9h.062a2.937,2.937,0,0,1,2.695-2.118,1.981,1.981,0,0,1,.489.05v1.655a2.793,2.793,0,0,0-.6-.051,2.458,2.458,0,0,0-2.355,2.251,4.7,4.7,0,0,0-.072.821v5.169h-1.75Z" transform="translate(-14.173 -14.173)" style="fill:#060"/><path d="M1143.465,217.563c-.048.683-.081,1.469-.081,2.647v5.618c0,2.239-.457,3.581-1.382,4.429a5.2,5.2,0,0,1-3.524,1.16,6.245,6.245,0,0,1-3.23-.8l.44-1.353a5.454,5.454,0,0,0,2.849.774c1.8,0,3.115-.939,3.115-3.39v-1.078h-.04a3.429,3.429,0,0,1-3.074,1.63c-2.412,0-4.125-2.052-4.125-4.732,0-3.281,2.134-5.13,4.368-5.13a3.216,3.216,0,0,1,3.019,1.669h.04l.072-1.448Zm-1.83,3.805a2.7,2.7,0,0,0-.1-.787,2.541,2.541,0,0,0-2.471-1.872c-1.678,0-2.881,1.419-2.881,3.667,0,1.894.977,3.485,2.864,3.485a2.576,2.576,0,0,0,2.447-1.814,3.111,3.111,0,0,0,.139-.936Z" transform="translate(-14.173 -14.173)" style="fill:#060"/><path d="M1146.047,225.445a4.8,4.8,0,0,0,2.332.69c1.285,0,1.88-.632,1.88-1.441,0-.846-.512-1.289-1.8-1.771-1.747-.633-2.575-1.585-2.57-2.744,0-1.558,1.265-2.837,3.346-2.837a4.671,4.671,0,0,1,2.369.6l-.436,1.279a3.8,3.8,0,0,0-1.985-.57c-1.039,0-1.6.6-1.6,1.328,0,.8.569,1.158,1.837,1.65,1.668.621,2.534,1.462,2.539,2.907,0,1.715-1.333,2.915-3.619,2.915a5.51,5.51,0,0,1-2.719-.675Z" transform="translate(-14.173 -14.173)" style="fill:#060"/><path d="M1153.578,226.2a1.187,1.187,0,0,1,1.193-1.27,1.264,1.264,0,1,1-1.193,1.27Z" transform="translate(-14.173 -14.173)"/><path d="M1160.375,223l-1.393,4.238h-1.805l4.586-13.483h2.093l4.605,13.483H1166.6L1165.155,223Zm4.428-1.361-1.335-3.88c-.292-.883-.5-1.686-.7-2.46h-.046c-.194.788-.4,1.612-.669,2.436l-1.329,3.9Z" transform="translate(-14.173 -14.173)"/><path d="M1178.226,224.589c0,1.015.033,1.883.08,2.648h-1.555l-.094-1.582h-.049a3.612,3.612,0,0,1-3.2,1.8c-1.513,0-3.332-.849-3.332-4.24v-5.654h1.751v5.345c0,1.842.574,3.1,2.162,3.1a2.561,2.561,0,0,0,2.328-1.614,2.714,2.714,0,0,0,.161-.9v-5.925h1.75Z" transform="translate(-14.173 -14.173)"/><path d="M1183.268,214.777v2.786h2.527V218.9h-2.527v5.213c0,1.2.346,1.886,1.33,1.886a3.508,3.508,0,0,0,1.019-.127l.081,1.337a4.5,4.5,0,0,1-1.572.242,2.461,2.461,0,0,1-1.9-.745,3.7,3.7,0,0,1-.683-2.524V218.9h-1.5v-1.333h1.5v-2.331Z" transform="translate(-14.173 -14.173)"/><path d="M1196.414,222.307c0,3.583-2.486,5.15-4.811,5.15-2.624,0-4.651-1.913-4.651-4.984,0-3.237,2.128-5.131,4.8-5.131C1194.537,217.342,1196.414,219.36,1196.414,222.307Zm-7.672.112c0,2.123,1.216,3.72,2.933,3.72,1.687,0,2.948-1.576,2.948-3.772,0-1.637-.825-3.706-2.916-3.706C1189.641,218.661,1188.742,220.585,1188.742,222.419Z" transform="translate(-14.173 -14.173)"/><path d="M1197.505,229.706a29.632,29.632,0,0,0,1.2-4.791l1.949-.2a24.775,24.775,0,0,1-1.914,4.861Zm.869-10.559a1.181,1.181,0,0,1,1.189-1.262,1.257,1.257,0,1,1-1.189,1.262Z" transform="translate(-14.173 -14.173)"/><path d="M1020.186,260.828a1.061,1.061,0,0,1-1.12,1.093,1.049,1.049,0,0,1-1.062-1.093,1.069,1.069,0,0,1,1.094-1.1A1.055,1.055,0,0,1,1020.186,260.828Zm-1.966,12.409v-9.674h1.75v9.674Z" transform="translate(-14.173 -14.173)"/><path d="M1023.07,273.237V264.9h-1.35v-1.333h1.35V263.1a4.633,4.633,0,0,1,1.125-3.389,3.369,3.369,0,0,1,2.352-.893,3.816,3.816,0,0,1,1.5.283l-.233,1.352a2.672,2.672,0,0,0-1.129-.221c-1.487,0-1.876,1.317-1.876,2.811v.524h2.337V264.9h-2.328v8.341Z" transform="translate(-14.173 -14.173)"/><path d="M1032.55,259.344a13.255,13.255,0,0,0-2.51,8.2,13.452,13.452,0,0,0,2.51,8.106h-1.366a12.866,12.866,0,0,1-2.619-8.118,13.119,13.119,0,0,1,2.619-8.185Z" transform="translate(-14.173 -14.173)"/><path d="M1044.022,273.237l-.155-1.222h-.052a3.6,3.6,0,0,1-2.96,1.442,2.76,2.76,0,0,1-2.955-2.776c0-2.344,2.077-3.631,5.815-3.6v-.2a1.993,1.993,0,0,0-2.2-2.232,4.705,4.705,0,0,0-2.521.721l-.4-1.17a6.083,6.083,0,0,1,3.193-.849c2.957,0,3.679,2.022,3.679,3.96v3.62a15.2,15.2,0,0,0,.145,2.315Zm-.273-4.94c-1.9-.041-4.084.3-4.084,2.172a1.549,1.549,0,0,0,1.643,1.685,2.42,2.42,0,0,0,2.357-1.62,1.805,1.805,0,0,0,.084-.555Z" transform="translate(-14.173 -14.173)" style="fill:#9c0"/><path d="M1056.388,270.589c0,1.015.033,1.883.08,2.648h-1.555l-.094-1.582h-.048a3.615,3.615,0,0,1-3.2,1.8c-1.513,0-3.332-.849-3.332-4.24v-5.654h1.751v5.345c0,1.842.575,3.1,2.162,3.1a2.563,2.563,0,0,0,2.329-1.614,2.74,2.74,0,0,0,.16-.9v-5.925h1.75Z" transform="translate(-14.173 -14.173)" style="fill:#9c0"/><path d="M1061.43,260.777v2.786h2.527V264.9h-2.527v5.213c0,1.205.346,1.886,1.33,1.886a3.508,3.508,0,0,0,1.019-.127l.081,1.337a4.5,4.5,0,0,1-1.572.242,2.461,2.461,0,0,1-1.9-.745,3.7,3.7,0,0,1-.683-2.524V264.9h-1.5v-1.333h1.5v-2.331Z" transform="translate(-14.173 -14.173)" style="fill:#9c0"/><path d="M1074.575,268.307c0,3.583-2.486,5.15-4.811,5.15-2.624,0-4.651-1.913-4.651-4.984,0-3.237,2.128-5.131,4.8-5.131C1072.7,263.342,1074.575,265.36,1074.575,268.307Zm-7.672.112c0,2.123,1.216,3.72,2.933,3.72,1.687,0,2.948-1.576,2.948-3.772,0-1.637-.825-3.706-2.916-3.706C1067.8,264.661,1066.9,266.585,1066.9,268.419Z" transform="translate(-14.173 -14.173)" style="fill:#9c0"/><path d="M1079.977,275.647a13.5,13.5,0,0,0,2.509-8.166,13.343,13.343,0,0,0-2.509-8.137h1.367a12.866,12.866,0,0,1,2.617,8.149,13.069,13.069,0,0,1-2.617,8.154Z" transform="translate(-14.173 -14.173)"/><path d="M1090.053,266.976c1.419,0,1.619-.774,1.619-1.487a12.384,12.384,0,0,0-.152-1.667,10.83,10.83,0,0,1-.165-1.666c0-1.842,1.208-2.628,2.909-2.628h.413v1.1h-.357c-1.178,0-1.593.633-1.593,1.726a9.369,9.369,0,0,0,.149,1.423,9.986,9.986,0,0,1,.148,1.514,1.908,1.908,0,0,1-1.442,2.157v.04a1.941,1.941,0,0,1,1.442,2.185,10.028,10.028,0,0,1-.148,1.519,9.6,9.6,0,0,0-.149,1.436c0,1.124.475,1.745,1.6,1.745h.354v1.1h-.417c-1.656,0-2.9-.728-2.9-2.742a10.3,10.3,0,0,1,.165-1.633,11.911,11.911,0,0,0,.152-1.618c0-.633-.2-1.492-1.619-1.493Z" transform="translate(-14.173 -14.173)"/><path d="M1035.352,296.237V287.9H1034v-1.333h1.351v-.424a4.354,4.354,0,0,1,1.367-3.348,4.588,4.588,0,0,1,3.1-.977,6.334,6.334,0,0,1,2.9.638v13.785h-1.751v-12.8a3.135,3.135,0,0,0-1.443-.265c-1.827,0-2.44,1.348-2.44,2.89v.5h2.266V287.9H1037.1v8.341Z" transform="translate(-14.173 -14.173)"/><path d="M1054.4,291.307c0,3.583-2.486,5.15-4.811,5.15-2.624,0-4.65-1.913-4.65-4.984,0-3.237,2.127-5.131,4.8-5.131C1052.521,286.342,1054.4,288.36,1054.4,291.307Zm-7.671.112c0,2.123,1.215,3.72,2.932,3.72,1.688,0,2.948-1.576,2.948-3.772,0-1.637-.825-3.706-2.916-3.706C1047.624,287.661,1046.726,289.585,1046.726,291.419Z" transform="translate(-14.173 -14.173)"/><path d="M1061.983,296.237l-.155-1.222h-.052a3.6,3.6,0,0,1-2.96,1.442,2.76,2.76,0,0,1-2.955-2.776c0-2.344,2.077-3.631,5.815-3.6v-.2a1.993,1.993,0,0,0-2.2-2.232,4.705,4.705,0,0,0-2.521.721l-.4-1.17a6.081,6.081,0,0,1,3.193-.849c2.957,0,3.679,2.022,3.679,3.96v3.62a15.2,15.2,0,0,0,.145,2.315Zm-.273-4.94c-1.9-.041-4.084.3-4.084,2.172a1.549,1.549,0,0,0,1.643,1.685,2.42,2.42,0,0,0,2.357-1.62,1.805,1.805,0,0,0,.084-.555Z" transform="translate(-14.173 -14.173)"/><path d="M1068.291,283.777v2.786h2.527V287.9h-2.527v5.213c0,1.205.347,1.886,1.33,1.886a3.521,3.521,0,0,0,1.02-.127l.081,1.337a4.511,4.511,0,0,1-1.573.242,2.463,2.463,0,0,1-1.9-.745,3.707,3.707,0,0,1-.683-2.524V287.9h-1.5v-1.333h1.5v-2.331Z" transform="translate(-14.173 -14.173)"/><path d="M1078.024,291.717a3.089,3.089,0,0,0,3.311,3.359,6.526,6.526,0,0,0,2.68-.5l.307,1.249a7.8,7.8,0,0,1-3.227.617,4.51,4.51,0,0,1-4.76-4.883c0-2.932,1.727-5.222,4.552-5.222,3.156,0,3.981,2.77,3.981,4.551a4.307,4.307,0,0,1-.059.824Zm5.15-1.265c.017-1.109-.454-2.848-2.427-2.848a2.89,2.89,0,0,0-2.7,2.848Z" transform="translate(-14.173 -14.173)" style="fill:#00c"/><path d="M1087.056,289.576c0-1.143-.029-2.117-.08-3.013h1.542l.067,1.9h.062a2.938,2.938,0,0,1,2.7-2.118,1.981,1.981,0,0,1,.489.05v1.655a2.787,2.787,0,0,0-.6-.051,2.458,2.458,0,0,0-2.355,2.251,4.7,4.7,0,0,0-.071.821v5.169h-1.75Z" transform="translate(-14.173 -14.173)" style="fill:#00c"/><path d="M1093.676,289.576c0-1.143-.029-2.117-.08-3.013h1.542l.067,1.9h.063a2.935,2.935,0,0,1,2.694-2.118,1.981,1.981,0,0,1,.489.05v1.655a2.783,2.783,0,0,0-.6-.051,2.458,2.458,0,0,0-2.356,2.251,4.7,4.7,0,0,0-.071.821v5.169h-1.75Z" transform="translate(-14.173 -14.173)" style="fill:#00c"/><path d="M1103.8,289.488v-1.2h10.322v1.2Zm0,3.93v-1.2h10.322v1.2Z" transform="translate(-14.173 -14.173)"/><path d="M1120.37,294.445a4.8,4.8,0,0,0,2.332.69c1.285,0,1.88-.632,1.88-1.441,0-.846-.512-1.289-1.8-1.771-1.747-.633-2.575-1.585-2.57-2.744,0-1.558,1.265-2.837,3.347-2.837a4.674,4.674,0,0,1,2.369.6l-.437,1.279a3.8,3.8,0,0,0-1.985-.57c-1.038,0-1.6.6-1.6,1.328,0,.8.57,1.158,1.837,1.65,1.668.621,2.534,1.462,2.539,2.907,0,1.715-1.333,2.915-3.619,2.915a5.513,5.513,0,0,1-2.719-.675Z" transform="translate(-14.173 -14.173)" style="fill:#00c"/><path d="M1130.651,283.777v2.786h2.528V287.9h-2.528v5.213c0,1.205.347,1.886,1.33,1.886a3.511,3.511,0,0,0,1.02-.127l.081,1.337a4.509,4.509,0,0,1-1.572.242,2.463,2.463,0,0,1-1.9-.745,3.707,3.707,0,0,1-.682-2.524V287.9h-1.5v-1.333h1.5v-2.331Z" transform="translate(-14.173 -14.173)" style="fill:#00c"/><path d="M1135.156,289.714c0-1.234-.033-2.238-.08-3.151h1.572l.1,1.648h.04a3.779,3.779,0,0,1,3.435-1.869c2.342,0,4.106,1.973,4.106,4.909,0,3.488-2.133,5.206-4.4,5.206a3.379,3.379,0,0,1-2.982-1.524h-.04V300.2h-1.749Zm1.749,2.585a3.322,3.322,0,0,0,.076.716,2.7,2.7,0,0,0,2.631,2.064c1.866,0,2.942-1.531,2.942-3.748,0-1.931-1.012-3.591-2.874-3.591a2.794,2.794,0,0,0-2.661,2.171,3.028,3.028,0,0,0-.114.715Z" transform="translate(-14.173 -14.173)" style="fill:#00c"/><path d="M1148.651,283.777v2.786h2.528V287.9h-2.528v5.213c0,1.205.347,1.886,1.33,1.886a3.511,3.511,0,0,0,1.02-.127l.081,1.337a4.509,4.509,0,0,1-1.572.242,2.463,2.463,0,0,1-1.9-.745,3.707,3.707,0,0,1-.682-2.524V287.9h-1.5v-1.333h1.5v-2.331Z" transform="translate(-14.173 -14.173)" style="fill:#00c"/><path d="M1161.475,290.185v1.29h-4.938v-1.29Z" transform="translate(-14.173 -14.173)"/><path d="M1167.776,289.714c0-1.234-.033-2.238-.08-3.151h1.573l.1,1.648h.04a3.78,3.78,0,0,1,3.435-1.869c2.342,0,4.106,1.973,4.106,4.909,0,3.488-2.133,5.206-4.4,5.206a3.38,3.38,0,0,1-2.982-1.524h-.04V300.2h-1.749Zm1.749,2.585a3.26,3.26,0,0,0,.077.716,2.7,2.7,0,0,0,2.63,2.064c1.866,0,2.942-1.531,2.942-3.748,0-1.931-1.012-3.591-2.874-3.591a2.8,2.8,0,0,0-2.661,2.171,3.028,3.028,0,0,0-.114.715Z" transform="translate(-14.173 -14.173)" style="fill:#00c"/><path d="M1179.7,286.563l1.9,5.424c.326.9.576,1.695.792,2.5h.052c.222-.8.5-1.608.81-2.5l1.894-5.424h1.838l-3.806,9.674H1181.5l-3.684-9.674Z" transform="translate(-14.173 -14.173)" style="fill:#00c"/><path d="M1187.988,298.706a29.526,29.526,0,0,0,1.2-4.791l1.949-.2a24.9,24.9,0,0,1-1.914,4.861Zm.869-10.559a1.182,1.182,0,0,1,1.189-1.262,1.257,1.257,0,1,1-1.189,1.262Z" transform="translate(-14.173 -14.173)"/><path d="M1036.165,314.717a3.088,3.088,0,0,0,3.311,3.359,6.52,6.52,0,0,0,2.679-.5l.308,1.249a7.8,7.8,0,0,1-3.228.617,4.51,4.51,0,0,1-4.759-4.883c0-2.932,1.726-5.222,4.551-5.222,3.157,0,3.982,2.77,3.982,4.551a4.29,4.29,0,0,1-.06.824Zm5.149-1.265c.018-1.109-.454-2.848-2.426-2.848a2.889,2.889,0,0,0-2.7,2.848Z" transform="translate(-14.173 -14.173)" style="fill:#00c"/><path d="M1045.2,312.576c0-1.143-.028-2.117-.08-3.013h1.542l.068,1.9h.062a2.936,2.936,0,0,1,2.694-2.118,1.984,1.984,0,0,1,.49.05v1.655a2.793,2.793,0,0,0-.6-.051,2.458,2.458,0,0,0-2.355,2.251,4.7,4.7,0,0,0-.072.821v5.169h-1.75Z" transform="translate(-14.173 -14.173)" style="fill:#00c"/><path d="M1051.816,312.576c0-1.143-.028-2.117-.08-3.013h1.542l.068,1.9h.062a2.937,2.937,0,0,1,2.7-2.118,1.981,1.981,0,0,1,.489.05v1.655a2.793,2.793,0,0,0-.6-.051,2.458,2.458,0,0,0-2.355,2.251,4.7,4.7,0,0,0-.072.821v5.169h-1.75Z" transform="translate(-14.173 -14.173)" style="fill:#00c"/><path d="M1058.11,317.445a4.8,4.8,0,0,0,2.332.69c1.286,0,1.88-.632,1.88-1.441,0-.846-.511-1.289-1.8-1.771-1.747-.633-2.575-1.585-2.57-2.744,0-1.558,1.266-2.837,3.347-2.837a4.674,4.674,0,0,1,2.369.6l-.437,1.279a3.8,3.8,0,0,0-1.985-.57c-1.038,0-1.6.6-1.6,1.328,0,.8.569,1.158,1.836,1.65,1.668.621,2.535,1.462,2.539,2.907,0,1.715-1.333,2.915-3.619,2.915a5.506,5.506,0,0,1-2.718-.675Z" transform="translate(-14.173 -14.173)" style="fill:#00c"/><path d="M1069.856,312.488v-1.2h10.323v1.2Zm0,3.93v-1.2h10.323v1.2Z" transform="translate(-14.173 -14.173)"/><path d="M1087.665,314.717a3.088,3.088,0,0,0,3.311,3.359,6.52,6.52,0,0,0,2.679-.5l.308,1.249a7.8,7.8,0,0,1-3.228.617,4.51,4.51,0,0,1-4.759-4.883c0-2.932,1.726-5.222,4.551-5.222,3.157,0,3.982,2.77,3.982,4.551a4.29,4.29,0,0,1-.06.824Zm5.149-1.265c.018-1.109-.454-2.848-2.426-2.848a2.889,2.889,0,0,0-2.7,2.848Z" transform="translate(-14.173 -14.173)" style="fill:#00c"/><path d="M1096.7,312.576c0-1.143-.028-2.117-.08-3.013h1.542l.068,1.9h.062a2.936,2.936,0,0,1,2.694-2.118,1.984,1.984,0,0,1,.49.05v1.655a2.793,2.793,0,0,0-.6-.051,2.458,2.458,0,0,0-2.355,2.251,4.7,4.7,0,0,0-.072.821v5.169h-1.75Z" transform="translate(-14.173 -14.173)" style="fill:#00c"/><path d="M1103.316,312.576c0-1.143-.028-2.117-.08-3.013h1.542l.068,1.9h.062a2.937,2.937,0,0,1,2.7-2.118,1.981,1.981,0,0,1,.489.05v1.655a2.793,2.793,0,0,0-.6-.051,2.458,2.458,0,0,0-2.355,2.251,4.7,4.7,0,0,0-.072.821v5.169h-1.75Z" transform="translate(-14.173 -14.173)" style="fill:#00c"/><path d="M1109.61,317.445a4.8,4.8,0,0,0,2.332.69c1.286,0,1.88-.632,1.88-1.441,0-.846-.511-1.289-1.8-1.771-1.747-.633-2.575-1.585-2.57-2.744,0-1.558,1.266-2.837,3.347-2.837a4.674,4.674,0,0,1,2.369.6l-.437,1.279a3.8,3.8,0,0,0-1.985-.57c-1.038,0-1.6.6-1.6,1.328,0,.8.569,1.158,1.836,1.65,1.668.621,2.535,1.462,2.539,2.907,0,1.715-1.333,2.915-3.619,2.915a5.506,5.506,0,0,1-2.718-.675Z" transform="translate(-14.173 -14.173)" style="fill:#00c"/><path d="M1127.157,308.6v4.7h4.522v1.2h-4.522v4.742h-1.278V314.5h-4.523v-1.2h4.523v-4.7Z" transform="translate(-14.173 -14.173)"/><path d="M1139.165,314.717a3.088,3.088,0,0,0,3.311,3.359,6.52,6.52,0,0,0,2.679-.5l.308,1.249a7.8,7.8,0,0,1-3.228.617,4.51,4.51,0,0,1-4.759-4.883c0-2.932,1.726-5.222,4.551-5.222,3.157,0,3.982,2.77,3.982,4.551a4.29,4.29,0,0,1-.06.824Zm5.149-1.265c.018-1.109-.454-2.848-2.426-2.848a2.889,2.889,0,0,0-2.7,2.848Z" transform="translate(-14.173 -14.173)" style="fill:#00c"/><path d="M1148.2,312.576c0-1.143-.028-2.117-.08-3.013h1.542l.068,1.9h.062a2.936,2.936,0,0,1,2.694-2.118,1.984,1.984,0,0,1,.49.05v1.655a2.793,2.793,0,0,0-.6-.051,2.458,2.458,0,0,0-2.355,2.251,4.7,4.7,0,0,0-.072.821v5.169h-1.75Z" transform="translate(-14.173 -14.173)" style="fill:#00c"/><path d="M1154.816,312.576c0-1.143-.028-2.117-.08-3.013h1.542l.068,1.9h.062a2.937,2.937,0,0,1,2.7-2.118,1.981,1.981,0,0,1,.489.05v1.655a2.793,2.793,0,0,0-.6-.051,2.458,2.458,0,0,0-2.355,2.251,4.7,4.7,0,0,0-.072.821v5.169h-1.75Z" transform="translate(-14.173 -14.173)" style="fill:#00c"/><path d="M1160.408,321.706a29.425,29.425,0,0,0,1.2-4.791l1.95-.2a24.9,24.9,0,0,1-1.914,4.861Zm.869-10.559a1.182,1.182,0,0,1,1.189-1.262,1.257,1.257,0,1,1-1.189,1.262Z" transform="translate(-14.173 -14.173)"/><path d="M1035.352,342.237V333.9H1034v-1.333h1.351v-.424a4.354,4.354,0,0,1,1.367-3.348,4.588,4.588,0,0,1,3.1-.977,6.334,6.334,0,0,1,2.9.638v13.785h-1.751v-12.8a3.135,3.135,0,0,0-1.443-.265c-1.827,0-2.44,1.348-2.44,2.89v.5h2.266V333.9H1037.1v8.341Z" transform="translate(-14.173 -14.173)"/><path d="M1054.4,337.307c0,3.583-2.486,5.15-4.811,5.15-2.624,0-4.65-1.913-4.65-4.984,0-3.237,2.127-5.131,4.8-5.131C1052.521,332.342,1054.4,334.36,1054.4,337.307Zm-7.671.112c0,2.123,1.215,3.72,2.932,3.72,1.688,0,2.948-1.576,2.948-3.772,0-1.637-.825-3.706-2.916-3.706C1047.624,333.661,1046.726,335.585,1046.726,337.419Z" transform="translate(-14.173 -14.173)"/><path d="M1061.983,342.237l-.155-1.222h-.052a3.6,3.6,0,0,1-2.96,1.442,2.76,2.76,0,0,1-2.955-2.776c0-2.344,2.077-3.631,5.815-3.6v-.2a1.993,1.993,0,0,0-2.2-2.232,4.705,4.705,0,0,0-2.521.721l-.4-1.17a6.081,6.081,0,0,1,3.193-.849c2.957,0,3.679,2.022,3.679,3.96v3.62a15.2,15.2,0,0,0,.145,2.315Zm-.273-4.94c-1.9-.041-4.084.3-4.084,2.172a1.549,1.549,0,0,0,1.643,1.685,2.42,2.42,0,0,0,2.357-1.62,1.805,1.805,0,0,0,.084-.555Z" transform="translate(-14.173 -14.173)"/><path d="M1068.291,329.777v2.786h2.527V333.9h-2.527v5.213c0,1.205.347,1.886,1.33,1.886a3.521,3.521,0,0,0,1.02-.127l.081,1.337a4.511,4.511,0,0,1-1.573.242,2.463,2.463,0,0,1-1.9-.745,3.707,3.707,0,0,1-.683-2.524V333.9h-1.5v-1.333h1.5v-2.331Z" transform="translate(-14.173 -14.173)"/><path d="M1085.39,328.034v11.708c0,.86.032,1.827.08,2.5h-1.565l-.089-1.673h-.047a3.545,3.545,0,0,1-3.282,1.893c-2.344,0-4.152-1.982-4.152-4.915-.016-3.234,1.991-5.2,4.347-5.2a3.234,3.234,0,0,1,2.919,1.468h.04v-5.776Zm-1.749,8.465a3.633,3.633,0,0,0-.075-.752,2.6,2.6,0,0,0-2.547-2.025c-1.823,0-2.912,1.6-2.912,3.724,0,1.965.978,3.6,2.875,3.6a2.656,2.656,0,0,0,2.572-2.112,2.893,2.893,0,0,0,.087-.755Z" transform="translate(-14.173 -14.173)" style="fill:#00c"/><path d="M1088.32,335.175c0-1.009-.033-1.811-.08-2.612h1.529l.092,1.557h.049a3.342,3.342,0,0,1,3.055-1.778,2.846,2.846,0,0,1,2.726,1.94h.04a3.919,3.919,0,0,1,1.092-1.26,3.3,3.3,0,0,1,2.128-.68c1.292,0,3.195.833,3.195,4.2v5.7h-1.718v-5.471c0-1.875-.691-2.984-2.1-2.984a2.3,2.3,0,0,0-2.093,1.583,2.906,2.906,0,0,0-.143.883v5.989h-1.718v-5.806c0-1.541-.682-2.649-2.011-2.649a2.435,2.435,0,0,0-2.193,1.756,2.817,2.817,0,0,0-.133.867v5.832h-1.717Z" transform="translate(-14.173 -14.173)" style="fill:#00c"/><path d="M1105.417,332.563l1.9,5.424c.327.9.577,1.695.792,2.5h.053c.222-.8.5-1.608.81-2.5l1.893-5.424h1.839l-3.806,9.674h-1.678l-3.684-9.674Z" transform="translate(-14.173 -14.173)" style="fill:#00c"/><path d="M1117.937,335.488v-1.2h10.322v1.2Zm0,3.93v-1.2h10.322v1.2Z" transform="translate(-14.173 -14.173)"/><path d="M1252.115,344.706a29.425,29.425,0,0,0,1.2-4.791l1.95-.2a24.9,24.9,0,0,1-1.914,4.861Zm.869-10.559a1.182,1.182,0,0,1,1.189-1.262,1.257,1.257,0,1,1-1.189,1.262Z" transform="translate(-14.173 -14.173)"/><path d="M1035.181,381.175c0-1.009-.034-1.811-.08-2.612h1.528l.093,1.557h.049a3.341,3.341,0,0,1,3.054-1.778,2.847,2.847,0,0,1,2.727,1.94h.04a3.9,3.9,0,0,1,1.092-1.26,3.3,3.3,0,0,1,2.128-.68c1.292,0,3.194.833,3.194,4.2v5.7h-1.718v-5.471c0-1.875-.69-2.984-2.1-2.984a2.3,2.3,0,0,0-2.092,1.583,2.906,2.906,0,0,0-.144.883v5.989h-1.718v-5.806c0-1.541-.681-2.649-2.01-2.649a2.435,2.435,0,0,0-2.194,1.756,2.817,2.817,0,0,0-.133.867v5.832h-1.716Z" transform="translate(-14.173 -14.173)" style="fill:#00c"/><path d="M1052.277,378.563l1.9,5.424c.326.9.576,1.695.792,2.5h.053c.221-.8.5-1.608.809-2.5l1.894-5.424h1.839l-3.807,9.674h-1.678l-3.683-9.674Z" transform="translate(-14.173 -14.173)" style="fill:#00c"/><path d="M1064.8,381.488v-1.2h10.322v1.2Zm0,3.93v-1.2h10.322v1.2Z" transform="translate(-14.173 -14.173)"/><path d="M1081.621,381.175c0-1.009-.033-1.811-.08-2.612h1.528l.093,1.557h.049a3.341,3.341,0,0,1,3.055-1.778,2.846,2.846,0,0,1,2.726,1.94h.04a3.919,3.919,0,0,1,1.092-1.26,3.3,3.3,0,0,1,2.128-.68c1.292,0,3.194.833,3.194,4.2v5.7h-1.717v-5.471c0-1.875-.691-2.984-2.1-2.984a2.3,2.3,0,0,0-2.093,1.583,2.906,2.906,0,0,0-.143.883v5.989h-1.718v-5.806c0-1.541-.682-2.649-2.011-2.649a2.434,2.434,0,0,0-2.193,1.756,2.817,2.817,0,0,0-.133.867v5.832h-1.717Z" transform="translate(-14.173 -14.173)" style="fill:#00c"/><path d="M1098.718,378.563l1.9,5.424c.326.9.576,1.695.792,2.5h.053c.222-.8.5-1.608.81-2.5l1.893-5.424H1106l-3.807,9.674h-1.677l-3.684-9.674Z" transform="translate(-14.173 -14.173)" style="fill:#00c"/><path d="M1117.038,377.6v4.7h4.522v1.2h-4.522v4.742h-1.278V383.5h-4.523v-1.2h4.523v-4.7Z" transform="translate(-14.173 -14.173)"/><path d="M1136.411,374.034v11.708c0,.86.032,1.827.08,2.5h-1.564l-.089-1.673h-.048a3.542,3.542,0,0,1-3.281,1.893c-2.345,0-4.153-1.982-4.153-4.915-.015-3.234,1.992-5.2,4.347-5.2a3.234,3.234,0,0,1,2.919,1.468h.04v-5.776Zm-1.749,8.465a3.632,3.632,0,0,0-.074-.752,2.6,2.6,0,0,0-2.548-2.025c-1.822,0-2.911,1.6-2.911,3.724,0,1.965.977,3.6,2.875,3.6a2.654,2.654,0,0,0,2.571-2.112,2.851,2.851,0,0,0,.087-.755Z" transform="translate(-14.173 -14.173)" style="fill:#00c"/><path d="M1139.342,381.175c0-1.009-.033-1.811-.08-2.612h1.528l.093,1.557h.049a3.341,3.341,0,0,1,3.054-1.778,2.847,2.847,0,0,1,2.727,1.94h.04a3.907,3.907,0,0,1,1.092-1.26,3.3,3.3,0,0,1,2.128-.68c1.292,0,3.194.833,3.194,4.2v5.7h-1.718v-5.471c0-1.875-.69-2.984-2.1-2.984a2.3,2.3,0,0,0-2.093,1.583,2.906,2.906,0,0,0-.144.883v5.989H1145.4v-5.806c0-1.541-.682-2.649-2.011-2.649a2.435,2.435,0,0,0-2.194,1.756,2.817,2.817,0,0,0-.132.867v5.832h-1.717Z" transform="translate(-14.173 -14.173)" style="fill:#00c"/><path d="M1156.438,378.563l1.9,5.424c.326.9.576,1.695.792,2.5h.053c.221-.8.5-1.608.809-2.5l1.894-5.424h1.839l-3.807,9.674h-1.678l-3.683-9.674Z" transform="translate(-14.173 -14.173)" style="fill:#00c"/><path d="M1164.729,390.706a29.526,29.526,0,0,0,1.2-4.791l1.949-.2a24.9,24.9,0,0,1-1.914,4.861Zm.87-10.559a1.181,1.181,0,0,1,1.188-1.262,1.257,1.257,0,1,1-1.188,1.262Z" transform="translate(-14.173 -14.173)"/><path d="M1021.874,405.992c-1.418,0-1.619.86-1.619,1.493a10.418,10.418,0,0,0,.164,1.618,11.891,11.891,0,0,1,.152,1.633c0,2.014-1.247,2.742-2.9,2.742h-.417v-1.1h.353c1.121-.026,1.6-.621,1.6-1.745a9.87,9.87,0,0,0-.148-1.436,9.771,9.771,0,0,1-.151-1.519,1.944,1.944,0,0,1,1.444-2.185v-.04a1.91,1.91,0,0,1-1.444-2.157,9.731,9.731,0,0,1,.151-1.514,9.628,9.628,0,0,0,.148-1.423c0-1.093-.415-1.7-1.594-1.726h-.356v-1.1h.412c1.7,0,2.908.786,2.908,2.628a12.519,12.519,0,0,1-.152,1.666,10.842,10.842,0,0,0-.164,1.667c0,.713.2,1.485,1.619,1.487Z" transform="translate(-14.173 -14.173)"/><path d="M1029.124,406.717a3.088,3.088,0,0,0,3.311,3.359,6.52,6.52,0,0,0,2.679-.5l.308,1.249a7.8,7.8,0,0,1-3.228.617,4.51,4.51,0,0,1-4.759-4.883c0-2.932,1.726-5.222,4.551-5.222,3.157,0,3.982,2.77,3.982,4.551a4.29,4.29,0,0,1-.06.824Zm5.149-1.265c.018-1.109-.454-2.848-2.426-2.848a2.889,2.889,0,0,0-2.7,2.848Z" transform="translate(-14.173 -14.173)"/><path d="M1038.159,397.034h1.75v14.2h-1.75Z" transform="translate(-14.173 -14.173)"/><path d="M1042.629,409.445a4.8,4.8,0,0,0,2.332.69c1.285,0,1.88-.632,1.88-1.441,0-.846-.512-1.289-1.8-1.771-1.747-.633-2.575-1.585-2.57-2.744,0-1.558,1.265-2.837,3.346-2.837a4.671,4.671,0,0,1,2.369.6l-.436,1.279a3.8,3.8,0,0,0-1.985-.57c-1.038,0-1.6.6-1.6,1.328,0,.8.569,1.158,1.837,1.65,1.668.621,2.534,1.462,2.539,2.907,0,1.715-1.333,2.915-3.619,2.915a5.51,5.51,0,0,1-2.719-.675Z" transform="translate(-14.173 -14.173)"/><path d="M1051.783,406.717a3.088,3.088,0,0,0,3.311,3.359,6.517,6.517,0,0,0,2.679-.5l.308,1.249a7.8,7.8,0,0,1-3.227.617,4.51,4.51,0,0,1-4.76-4.883c0-2.932,1.726-5.222,4.552-5.222,3.156,0,3.981,2.77,3.981,4.551a4.29,4.29,0,0,1-.06.824Zm5.15-1.265c.017-1.109-.454-2.848-2.427-2.848a2.889,2.889,0,0,0-2.7,2.848Z" transform="translate(-14.173 -14.173)"/><path d="M1064.153,404.976c1.419,0,1.619-.774,1.619-1.487a12.384,12.384,0,0,0-.152-1.667,10.827,10.827,0,0,1-.164-1.666c0-1.842,1.207-2.628,2.908-2.628h.413v1.1h-.356c-1.179,0-1.594.633-1.594,1.726a9.247,9.247,0,0,0,.15,1.423,9.986,9.986,0,0,1,.148,1.514,1.908,1.908,0,0,1-1.442,2.157v.04a1.942,1.942,0,0,1,1.442,2.185,10.028,10.028,0,0,1-.148,1.519,9.478,9.478,0,0,0-.15,1.436c0,1.124.476,1.745,1.6,1.745h.353v1.1h-.417c-1.656,0-2.9-.728-2.9-2.742a10.294,10.294,0,0,1,.164-1.633,11.911,11.911,0,0,0,.152-1.618c0-.633-.2-1.492-1.619-1.493Z" transform="translate(-14.173 -14.173)"/><path d="M1035.181,427.176c0-1.01-.034-1.811-.08-2.613h1.528l.093,1.557h.049a3.34,3.34,0,0,1,3.054-1.777,2.847,2.847,0,0,1,2.727,1.939h.04a3.9,3.9,0,0,1,1.092-1.259,3.292,3.292,0,0,1,2.128-.68c1.292,0,3.194.832,3.194,4.2v5.7h-1.718v-5.471c0-1.874-.69-2.983-2.1-2.983a2.3,2.3,0,0,0-2.092,1.583,2.9,2.9,0,0,0-.144.882v5.989h-1.718v-5.805c0-1.541-.681-2.649-2.01-2.649a2.435,2.435,0,0,0-2.194,1.756,2.811,2.811,0,0,0-.133.866v5.832h-1.716Z" transform="translate(-14.173 -14.173)" style="fill:#00c"/><path d="M1052.277,424.563l1.9,5.424c.326.9.576,1.7.792,2.5h.053c.221-.8.5-1.608.809-2.5l1.894-5.424h1.839l-3.807,9.674h-1.678l-3.683-9.674Z" transform="translate(-14.173 -14.173)" style="fill:#00c"/><path d="M1064.8,427.489v-1.2h10.322v1.2Zm0,3.93v-1.2h10.322v1.2Z" transform="translate(-14.173 -14.173)"/><path d="M1081.371,432.446a4.8,4.8,0,0,0,2.332.689c1.285,0,1.88-.631,1.88-1.441,0-.845-.512-1.289-1.8-1.771-1.747-.633-2.575-1.584-2.57-2.743,0-1.558,1.265-2.837,3.347-2.837a4.674,4.674,0,0,1,2.369.595l-.437,1.279a3.807,3.807,0,0,0-1.985-.57c-1.038,0-1.6.6-1.6,1.329,0,.8.57,1.158,1.837,1.649,1.668.622,2.534,1.463,2.539,2.907,0,1.715-1.333,2.915-3.619,2.915a5.521,5.521,0,0,1-2.719-.674Z" transform="translate(-14.173 -14.173)" style="fill:#00c"/><path d="M1091.652,421.778v2.785h2.528V425.9h-2.528v5.213c0,1.205.347,1.887,1.33,1.887a3.509,3.509,0,0,0,1.02-.128l.081,1.337a4.485,4.485,0,0,1-1.572.242,2.46,2.46,0,0,1-1.9-.745,3.7,3.7,0,0,1-.682-2.523V425.9h-1.5v-1.333h1.5v-2.331Z" transform="translate(-14.173 -14.173)" style="fill:#00c"/><path d="M1096.157,427.715c0-1.234-.033-2.239-.08-3.152h1.572l.1,1.649h.04a3.779,3.779,0,0,1,3.435-1.869c2.342,0,4.106,1.972,4.106,4.909,0,3.487-2.133,5.2-4.4,5.2a3.378,3.378,0,0,1-2.982-1.523h-.04V438.2h-1.749Zm1.749,2.585a3.329,3.329,0,0,0,.076.716,2.705,2.705,0,0,0,2.631,2.063c1.866,0,2.942-1.53,2.942-3.748,0-1.93-1.012-3.59-2.874-3.59a2.793,2.793,0,0,0-2.661,2.171,3.028,3.028,0,0,0-.114.715Z" transform="translate(-14.173 -14.173)" style="fill:#00c"/><path d="M1109.652,421.778v2.785h2.528V425.9h-2.528v5.213c0,1.205.347,1.887,1.33,1.887a3.509,3.509,0,0,0,1.02-.128l.081,1.337a4.485,4.485,0,0,1-1.572.242,2.46,2.46,0,0,1-1.9-.745,3.7,3.7,0,0,1-.682-2.523V425.9h-1.5v-1.333h1.5v-2.331Z" transform="translate(-14.173 -14.173)" style="fill:#00c"/><path d="M1113.029,436.707a29.513,29.513,0,0,0,1.2-4.792l1.949-.2a24.85,24.85,0,0,1-1.914,4.861Zm.869-10.56a1.182,1.182,0,0,1,1.189-1.262,1.257,1.257,0,1,1-1.189,1.262Z" transform="translate(-14.173 -14.173)"/><path d="M1036.165,452.718a3.088,3.088,0,0,0,3.311,3.358,6.5,6.5,0,0,0,2.679-.5l.308,1.25a7.807,7.807,0,0,1-3.228.616,4.509,4.509,0,0,1-4.759-4.883c0-2.931,1.726-5.221,4.551-5.221,3.157,0,3.982,2.769,3.982,4.55a4.3,4.3,0,0,1-.06.825Zm5.149-1.266c.018-1.108-.454-2.848-2.426-2.848a2.89,2.89,0,0,0-2.7,2.848Z" transform="translate(-14.173 -14.173)" style="fill:#00c"/><path d="M1045.2,450.576c0-1.142-.028-2.116-.08-3.013h1.542l.068,1.9h.062a2.936,2.936,0,0,1,2.694-2.118,1.984,1.984,0,0,1,.49.05v1.655a2.788,2.788,0,0,0-.6-.052,2.458,2.458,0,0,0-2.355,2.251,4.7,4.7,0,0,0-.072.821v5.169h-1.75Z" transform="translate(-14.173 -14.173)" style="fill:#00c"/><path d="M1051.816,450.576c0-1.142-.028-2.116-.08-3.013h1.542l.068,1.9h.062a2.937,2.937,0,0,1,2.7-2.118,1.981,1.981,0,0,1,.489.05v1.655a2.788,2.788,0,0,0-.6-.052,2.458,2.458,0,0,0-2.355,2.251,4.7,4.7,0,0,0-.072.821v5.169h-1.75Z" transform="translate(-14.173 -14.173)" style="fill:#00c"/><path d="M1058.11,455.446a4.8,4.8,0,0,0,2.332.689c1.286,0,1.88-.631,1.88-1.441,0-.845-.511-1.289-1.8-1.771-1.747-.633-2.575-1.584-2.57-2.743,0-1.559,1.266-2.837,3.347-2.837a4.674,4.674,0,0,1,2.369.595l-.437,1.279a3.8,3.8,0,0,0-1.985-.57c-1.038,0-1.6.6-1.6,1.329,0,.8.569,1.158,1.836,1.649,1.668.622,2.535,1.463,2.539,2.907,0,1.715-1.333,2.915-3.619,2.915a5.517,5.517,0,0,1-2.718-.674Z" transform="translate(-14.173 -14.173)" style="fill:#00c"/><path d="M1069.856,450.489v-1.2h10.323v1.2Zm0,3.93v-1.2h10.323v1.2Z" transform="translate(-14.173 -14.173)"/><path d="M1094.766,450.6c0,4.412-1.651,6.853-4.524,6.853-2.539,0-4.265-2.378-4.307-6.673,0-4.371,1.885-6.769,4.526-6.769C1093.2,444.015,1094.766,446.463,1094.766,450.6Zm-7.061.184c0,3.391,1.04,5.305,2.638,5.305,1.795,0,2.652-2.1,2.652-5.409,0-3.209-.812-5.3-2.639-5.3C1088.825,445.384,1087.7,447.265,1087.705,450.788Z" transform="translate(-14.173 -14.173)"/><path d="M1095.809,459.707a29.618,29.618,0,0,0,1.2-4.792l1.949-.2a24.85,24.85,0,0,1-1.914,4.861Zm.869-10.56a1.18,1.18,0,0,1,1.188-1.261,1.257,1.257,0,1,1-1.188,1.261Z" transform="translate(-14.173 -14.173)"/><path d="M1021.874,474.992c-1.418,0-1.619.861-1.619,1.493a10.418,10.418,0,0,0,.164,1.619,11.877,11.877,0,0,1,.152,1.632c0,2.015-1.247,2.742-2.9,2.742h-.417v-1.1h.353c1.121-.026,1.6-.621,1.6-1.745a9.883,9.883,0,0,0-.148-1.437,9.758,9.758,0,0,1-.151-1.518,1.945,1.945,0,0,1,1.444-2.186v-.04a1.91,1.91,0,0,1-1.444-2.156,9.756,9.756,0,0,1,.151-1.515,9.614,9.614,0,0,0,.148-1.423c0-1.092-.415-1.7-1.594-1.725h-.356v-1.1h.412c1.7,0,2.908.787,2.908,2.628a12.5,12.5,0,0,1-.152,1.666,10.867,10.867,0,0,0-.164,1.667c0,.713.2,1.486,1.619,1.487Z" transform="translate(-14.173 -14.173)"/><path d="M1018.216,496.576c0-1.142-.028-2.116-.08-3.013h1.542l.067,1.9h.063a2.935,2.935,0,0,1,2.694-2.118,1.981,1.981,0,0,1,.489.05v1.655a2.772,2.772,0,0,0-.6-.052,2.458,2.458,0,0,0-2.356,2.251,4.7,4.7,0,0,0-.071.821v5.169h-1.75Z" transform="translate(-14.173 -14.173)" style="fill:#690"/><path d="M1025.544,498.718a3.088,3.088,0,0,0,3.31,3.358,6.506,6.506,0,0,0,2.68-.5l.308,1.25a7.807,7.807,0,0,1-3.228.616,4.51,4.51,0,0,1-4.76-4.883c0-2.931,1.727-5.221,4.552-5.221,3.157,0,3.982,2.769,3.982,4.55a4.3,4.3,0,0,1-.06.825Zm5.149-1.266c.018-1.108-.454-2.848-2.426-2.848a2.892,2.892,0,0,0-2.7,2.848Z" transform="translate(-14.173 -14.173)" style="fill:#690"/><path d="M1036.69,490.778v2.785h2.528V494.9h-2.528v5.213c0,1.205.347,1.887,1.331,1.887a3.5,3.5,0,0,0,1.019-.128l.081,1.337a4.485,4.485,0,0,1-1.572.242,2.46,2.46,0,0,1-1.9-.745,3.7,3.7,0,0,1-.682-2.523V494.9h-1.5v-1.333h1.5v-2.331Z" transform="translate(-14.173 -14.173)" style="fill:#690"/><path d="M1049.288,500.59c0,1.014.033,1.882.08,2.647h-1.555l-.093-1.582h-.049a3.612,3.612,0,0,1-3.2,1.8c-1.514,0-3.332-.849-3.332-4.239v-5.655h1.751v5.345c0,1.843.574,3.1,2.162,3.1a2.56,2.56,0,0,0,2.328-1.615,2.71,2.71,0,0,0,.16-.9v-5.925h1.75Z" transform="translate(-14.173 -14.173)" style="fill:#690"/><path d="M1052.215,496.576c0-1.142-.028-2.116-.08-3.013h1.542l.067,1.9h.063a2.935,2.935,0,0,1,2.694-2.118,1.981,1.981,0,0,1,.489.05v1.655a2.772,2.772,0,0,0-.6-.052,2.458,2.458,0,0,0-2.356,2.251,4.7,4.7,0,0,0-.071.821v5.169h-1.75Z" transform="translate(-14.173 -14.173)" style="fill:#690"/><path d="M1058.839,496.176c0-1.01-.033-1.811-.08-2.613h1.554l.1,1.591h.049a3.572,3.572,0,0,1,3.2-1.811c1.329,0,3.409.8,3.409,4.123v5.771h-1.751v-5.578c0-1.563-.588-2.874-2.236-2.874a2.532,2.532,0,0,0-2.37,1.806,2.743,2.743,0,0,0-.121.816v5.83h-1.75Z" transform="translate(-14.173 -14.173)" style="fill:#690"/><path d="M1074.347,505.482V489.539h3.666v1.1h-2.294v13.747h2.294v1.1Z" transform="translate(-14.173 -14.173)"/><path d="M1084.1,496.176c0-1.01-.034-1.811-.08-2.613h1.528l.093,1.557h.048a3.343,3.343,0,0,1,3.055-1.777,2.847,2.847,0,0,1,2.727,1.939h.04a3.9,3.9,0,0,1,1.092-1.26,3.3,3.3,0,0,1,2.127-.679c1.292,0,3.195.833,3.195,4.2v5.7h-1.718v-5.471c0-1.874-.69-2.984-2.1-2.984a2.3,2.3,0,0,0-2.092,1.584,2.9,2.9,0,0,0-.144.882v5.989h-1.718v-5.805c0-1.541-.681-2.65-2.01-2.65a2.436,2.436,0,0,0-2.194,1.757,2.811,2.811,0,0,0-.133.866v5.832H1084.1Z" transform="translate(-14.173 -14.173)" style="fill:#00c"/><path d="M1101.2,493.563l1.9,5.424c.326.9.576,1.7.792,2.5h.053c.221-.8.5-1.608.809-2.5l1.894-5.424h1.838l-3.806,9.674h-1.678l-3.683-9.674Z" transform="translate(-14.173 -14.173)" style="fill:#00c"/><path d="M1108.226,505.707a29.514,29.514,0,0,0,1.2-4.792l1.957-.2a24.85,24.85,0,0,1-1.914,4.861Z" transform="translate(-14.173 -14.173)"/><path d="M1118.724,498.718a3.088,3.088,0,0,0,3.31,3.358,6.509,6.509,0,0,0,2.68-.5l.307,1.25a7.8,7.8,0,0,1-3.227.616,4.509,4.509,0,0,1-4.76-4.883c0-2.931,1.727-5.221,4.552-5.221,3.156,0,3.981,2.769,3.981,4.55a4.319,4.319,0,0,1-.059.825Zm5.149-1.266c.018-1.108-.454-2.848-2.427-2.848a2.891,2.891,0,0,0-2.7,2.848Z" transform="translate(-14.173 -14.173)" style="fill:#00c"/><path d="M1127.755,496.576c0-1.142-.028-2.116-.08-3.013h1.542l.067,1.9h.063a2.935,2.935,0,0,1,2.694-2.118,1.981,1.981,0,0,1,.489.05v1.655a2.772,2.772,0,0,0-.6-.052,2.458,2.458,0,0,0-2.356,2.251,4.7,4.7,0,0,0-.071.821v5.169h-1.75Z" transform="translate(-14.173 -14.173)" style="fill:#00c"/><path d="M1134.375,496.576c0-1.142-.028-2.116-.08-3.013h1.542l.067,1.9h.063a2.935,2.935,0,0,1,2.694-2.118,1.976,1.976,0,0,1,.489.05v1.655a2.772,2.772,0,0,0-.6-.052,2.46,2.46,0,0,0-2.356,2.251,4.7,4.7,0,0,0-.071.821v5.169h-1.75Z" transform="translate(-14.173 -14.173)" style="fill:#00c"/><path d="M1140.669,501.446a4.8,4.8,0,0,0,2.332.689c1.285,0,1.88-.631,1.88-1.441,0-.845-.512-1.289-1.8-1.771-1.747-.633-2.575-1.584-2.57-2.743,0-1.559,1.265-2.837,3.346-2.837a4.678,4.678,0,0,1,2.37.595l-.437,1.279a3.8,3.8,0,0,0-1.985-.57c-1.038,0-1.6.6-1.6,1.329,0,.8.569,1.158,1.837,1.649,1.668.622,2.534,1.463,2.539,2.907,0,1.715-1.333,2.915-3.619,2.915a5.521,5.521,0,0,1-2.719-.674Z" transform="translate(-14.173 -14.173)" style="fill:#00c"/><path d="M1155.665,489.515v15.963H1152v-1.1h2.289V490.612H1152v-1.1Z" transform="translate(-14.173 -14.173)"/><path d="M1157.627,505.707a29.618,29.618,0,0,0,1.2-4.792l1.949-.2a24.725,24.725,0,0,1-1.914,4.861Zm.869-10.56a1.18,1.18,0,0,1,1.189-1.261,1.257,1.257,0,1,1-1.189,1.261Z" transform="translate(-14.173 -14.173)"/><path d="M1004.913,520.992c-1.418,0-1.619.861-1.619,1.493a10.418,10.418,0,0,0,.164,1.619,11.877,11.877,0,0,1,.152,1.632c0,2.015-1.247,2.742-2.9,2.742h-.417v-1.1h.354c1.12-.026,1.6-.621,1.6-1.745a9.883,9.883,0,0,0-.148-1.437,9.758,9.758,0,0,1-.151-1.518,1.945,1.945,0,0,1,1.444-2.186v-.04a1.91,1.91,0,0,1-1.444-2.156,9.756,9.756,0,0,1,.151-1.515,9.614,9.614,0,0,0,.148-1.423c0-1.092-.415-1.7-1.594-1.725h-.356v-1.105h.412c1.7,0,2.908.787,2.908,2.628a12.5,12.5,0,0,1-.152,1.666,10.867,10.867,0,0,0-.164,1.667c0,.713.2,1.486,1.619,1.487Z" transform="translate(-14.173 -14.173)"/></g></svg>