<?xml version="1.0" encoding="UTF-8"?>
<svg version="1.1" viewBox="0 0 1360.6 858.71" xmlns="http://www.w3.org/2000/svg">
 <g transform="translate(18.898 18.897)">
  <g fill="none">
   <g>
    <rect id="TemperatureGraphArea" y="553.13" width="428.22" height="267.79"/>
    <rect id="LevelGraphArea" x="447.12" y="553.13" width="428.22" height="267.79"/>
    <rect id="PressureGraphArea" x="894.24" y="553.13" width="428.22" height="267.79"/>
   </g>
   <rect id="InletInputArea" x=".376" y=".376" width="253.62" height="222.44"/>
  </g>
  <rect id="SpeedInputArea" x="269.67" y=".376" width="171.41" height="56.693" fill="#d7eef4" stroke="#000" stroke-miterlimit="11.339" stroke-width=".75118px"/>
  <g fill="none">
   <rect id="TCInputArea" x=".376" y="283.84" width="253.62" height="253.62"/>
   <rect id="PCInputArea" x="709.04" y=".376" width="253.62" height="253.62"/>
   <rect id="LCInputArea" x="711.87" y="283.84" width="253.62" height="253.62"/>
  </g>
  <g id="CenterImage">
   <path transform="translate(-14.173,-14.173)" d="m492.39 437.21v62.362c7.147 0.043 32.766-0.426 39.914-0.384" fill="none" stroke="#000" stroke-miterlimit="11.339" stroke-width=".75px"/>
   <g id="pump" fill="#ccc">
    <path transform="translate(-14.173,-14.173)" d="m528.65 509.03h45.622l-6.843-7.027h-31.932z" stroke="#000" stroke-width=".74217px"/>
    <rect x="543.11" y="450.1" width="29.318" height="11.063"/>
    <rect x="513.79" y="479.49" width="29.318" height="11.063"/>
    <ellipse cx="543.11" cy="470.33" rx="20.261" ry="20.224"/>
    <g stroke="#000" stroke-width=".74217px">
     <path transform="translate(-14.173,-14.173)" d="m575.33 475.32a20.225 20.225 0 0 1-18.053 29.406"/>
     <path transform="translate(-14.173,-14.173)" d="m539.39 493.99a20.225 20.225 0 0 1 17.889-29.719"/>
     <path transform="translate(-14.173,-14.173)" d="m557.28 464.27h29.319v11.063h-11.256"/>
     <path transform="translate(-14.173,-14.173)" d="m557.28 504.72h-29.318v-11.063h11.256"/>
    </g>
   </g>
   <g id="column" stroke="#000" stroke-width=".36261px">
    <path transform="translate(-14.173,-14.173)" d="m544.22 395.82v-206.96s0.218-41.393-51.676-41.393c-52.159 0-51.676 41.393-51.676 41.393v206.96s-0.219 41.393 51.676 41.393c51.63 0 51.676-41.393 51.676-41.393z" fill="#e6e6e6"/>
    <path id="liquidPath" transform="translate(-14.173,-14.173)" d="m440.87 395.82s-0.285 41.393 51.676 41.393 51.676-41.393 51.676-41.393v-31.044s-8.4-4.717-12.869-4.14c-5.085 0.657-7.842 8.283-12.969 8.279s-7.807-8.279-12.919-8.279-7.807 8.271-12.919 8.279c-5.138 8e-3 -7.871-8.267-13.009-8.279-5.174-0.01-7.962 8.309-13.136 8.279-5.08-0.029-7.767-7.621-12.805-8.279-4.423-0.577-12.726 4.14-12.726 4.14z" fill="#deaa87"/>
   </g>
   <g stroke="#000" stroke-miterlimit="11.339" stroke-width=".75px">
    <path id="arrowIn" transform="translate(-14.173,-14.173)" d="m264.31 248.3h176.55l-19.037-5.51v11.019l19.037-5.509"/>
    <path id="arrowTop" transform="translate(-14.173,-14.173)" d="m492.54 147.46v-103.41l-5.509 19.037h11.018l-5.509-19.037"/>
    <path id="arrowAfterPump" transform="translate(-14.173,-14.173)" d="m587.79 469.81h111.3l-19.037-5.51v11.019l19.037-5.509"/>
   </g>
   <g id="ValveAfterPump" fill="#f2f2f2" stroke="#000" stroke-miterlimit="11.339">
    <path transform="translate(-14.173,-14.173)" d="m609.54 456.21v27.189l56.693-27.189v27.189z" stroke-width=".75px"/>
    <path transform="translate(-14.173,-14.173)" d="m637.88 469.81v-25.512h21.227s-3.058-13.46-21.227-13.46-21.227 13.46-21.227 13.46h21.227" stroke-width=".75px"/>
   </g>
   <g stroke="#000" stroke-miterlimit="11.339">
    <rect x="530.04" y="351.02" width="13.056" height="15.102" fill="#e6e6e6" stroke-width=".75118px"/>
    <rect x="413.64" y="295.21" width="13.056" height="15.102" fill="#e6e6e6" stroke-width=".75118px"/>
    <path transform="translate(-14.173,-14.173)" d="m557.41 372.75h79.453v58.087" fill="none" stroke-dasharray="6.00945, 3.00472" stroke-width=".75118px"/>
    <circle id="LCcircle" cx="621.23" cy="358.57" r="28.346" fill="#f9f9f9" stroke-width=".75118px"/>
   </g>
   <g fill="#f2f2f2" stroke="#000" stroke-miterlimit="11.339">
    <path transform="translate(-14.173,-14.173)" d="m506.14 77.91h-27.188l27.188 56.69h-27.188z" stroke-width=".75px"/>
    <path transform="translate(-14.173,-14.173)" d="m492.54 106.26h25.512v21.228s13.46-3.059 13.46-21.228-13.46-21.227-13.46-21.227v21.227" stroke-width=".75px"/>
   </g>
   <g stroke="#000" stroke-miterlimit="11.339">
    <g stroke-width=".75118px">
     <path transform="translate(-14.173,-14.173)" d="m531.61 106.26h95.69v90.151h-70.026" fill="none" stroke-dasharray="6.00945, 3.00472"/>
     <rect x="530.04" y="174.68" width="13.056" height="15.102" fill="#e6e6e6"/>
     <circle id="PCcircle" cx="613.13" cy="92.083" r="28.346" fill="#f9f9f9"/>
    </g>
    <path transform="translate(-14.173,-14.173)" d="m357.12 353.45h114.25l-17.411 13.422 17.411 13.424h-102.08" fill="none" stroke-width="1.5024px"/>
    <path transform="translate(-14.173,-14.173)" d="m332.97 339.96v-23.03h94.955" fill="none" stroke-dasharray="6.00945, 3.00472" stroke-width=".75118px"/>
    <circle cx="318.8" cy="354.14" r="28.346" fill="#f9f9f9" stroke-width=".75118px"/>
    <path transform="translate(-14.173,-14.173)" d="m359.85 380.3 15.851-4.64v9.276z" stroke-width=".75px"/>
   </g>
  </g>
  <g fill="none" stroke="#000" stroke-miterlimit="11.339">
   <g stroke-width=".75px">
    <path transform="translate(-14.173,-14.173)" d="m723.21 14.549h253.62v253.62h-253.62v-149.48l-49.51-14.174 49.51-14.173z"/>
    <path transform="translate(-14.173,-14.173)" d="m725.04 298.01h253.62v253.62h-253.62v-163.66l-51.664-14.171 51.664-14.174z"/>
    <path transform="translate(-14.173,-14.173)" d="m268.16 551.63h-253.62v-253.62h253.62v55.942l28.5 14.173-28.5 14.174z"/>
   </g>
   <path transform="translate(-14.173,-14.173)" d="m14.549 14.549h253.62v193.97l29.73 33.117-54.772-4.654h-228.57v-222.43" stroke-width=".75118px"/>
  </g>
  <g id="PressureTextWrapper" style="isolation:isolate">
   <text transform="translate(574.02 53.587)" font-family="ArialMT, Arial" font-size="20px" style="isolation:isolate">70.0 kPa</text>
  </g>
  <g id="TemperatureTextWrapper" style="isolation:isolate">
   <text transform="translate(291.69 409.26)" font-family="ArialMT, Arial" font-size="20px" style="isolation:isolate">400 K</text>
  </g>
  <g id="LevelTextWrapper" style="isolation:isolate">
   <text transform="translate(592.69 318.08)" font-family="ArialMT, Arial" font-size="20px" style="isolation:isolate">10.0%</text>
  </g>
  <rect id="csvDownloadArea" x="299.84" y="73.287" width="113.07" height="59.225" fill="none"/>
  <g id="functionAreaLabel" style="isolation:isolate">
   <text transform="translate(997.69 17.297)" font-family="ArialMT, Arial" font-size="20px" style="isolation:isolate">complete the function:</text>
  </g>
  <rect id="CodeBlockWrapper" x="979.27" y="31.557" width="343.19" height="504.22" fill="#f2f2f2" stroke="#808080" stroke-miterlimit="11.339" stroke-width=".75118px"/>
  <rect id="CodeEntryArea" x="1118.7" y="309.17" width="187.95" height="48.386" fill="#f2f2f2"/>
  <path transform="translate(-14.173,-14.173)" d="m610.9 116.24v-20.04h7.561a18.2 18.2 0 0 1 3.049 0.192 6.04 6.04 0 0 1 2.474 0.936 4.931 4.931 0 0 1 1.607 1.935 6.524 6.524 0 0 1-1.019 7.061q-1.628 1.772-5.879 1.771h-5.14v8.148zm2.653-10.513h5.181a5.5 5.5 0 0 0 3.651-0.957 3.411 3.411 0 0 0 1.08-2.694 3.622 3.622 0 0 0-0.636-2.153 2.975 2.975 0 0 0-1.675-1.183 11.369 11.369 0 0 0-2.474-0.177h-5.127z"/>
  <path transform="translate(-14.173,-14.173)" d="m643.88 109.21 2.652 0.67a8.915 8.915 0 0 1-3 4.983 8.268 8.268 0 0 1-5.3 1.716 9.516 9.516 0 0 1-5.27-1.319 8.237 8.237 0 0 1-3.09-3.822 13.641 13.641 0 0 1-1.059-5.373 11.808 11.808 0 0 1 1.2-5.462 8.2 8.2 0 0 1 3.4-3.541 9.954 9.954 0 0 1 4.861-1.21 8.216 8.216 0 0 1 5.058 1.532 7.96 7.96 0 0 1 2.858 4.306l-2.612 0.616a6.2 6.2 0 0 0-2.023-3.186 5.394 5.394 0 0 0-3.336-1 6.48 6.48 0 0 0-3.862 1.107 5.849 5.849 0 0 0-2.181 2.974 11.952 11.952 0 0 0-0.629 3.849 12.229 12.229 0 0 0 0.745 4.464 5.553 5.553 0 0 0 2.317 2.85 6.5 6.5 0 0 0 3.4 0.944 5.7 5.7 0 0 0 3.773-1.286 6.571 6.571 0 0 0 2.098-3.812z"/>
  <path transform="translate(-14.173,-14.173)" d="m620.2 381.9v-20.041h2.652v17.678h9.872v2.363z"/>
  <path transform="translate(-14.173,-14.173)" d="m650.19 374.88 2.652 0.669a8.932 8.932 0 0 1-3 4.984 8.268 8.268 0 0 1-5.3 1.716 9.514 9.514 0 0 1-5.27-1.32 8.229 8.229 0 0 1-3.09-3.821 13.624 13.624 0 0 1-1.06-5.373 11.818 11.818 0 0 1 1.2-5.462 8.2 8.2 0 0 1 3.4-3.541 9.939 9.939 0 0 1 4.86-1.21 8.225 8.225 0 0 1 5.059 1.531 7.956 7.956 0 0 1 2.857 4.307l-2.611 0.615a6.2 6.2 0 0 0-2.024-3.185 5.392 5.392 0 0 0-3.336-1 6.478 6.478 0 0 0-3.862 1.107 5.845 5.845 0 0 0-2.181 2.974 11.976 11.976 0 0 0-0.628 3.848 12.222 12.222 0 0 0 0.745 4.464 5.542 5.542 0 0 0 2.317 2.851 6.5 6.5 0 0 0 3.4 0.943 5.706 5.706 0 0 0 3.774-1.285 6.576 6.576 0 0 0 2.098-3.812z"/>
  <path transform="translate(-14.173,-14.173)" d="m322.43 377.49v-17.677h-6.6v-2.366h15.887v2.366h-6.631v17.677z"/>
  <path transform="translate(-14.173,-14.173)" d="m348.74 370.46 2.653 0.67a8.926 8.926 0 0 1-3 4.983 8.27 8.27 0 0 1-5.3 1.716 9.52 9.52 0 0 1-5.271-1.319 8.249 8.249 0 0 1-3.09-3.822 13.641 13.641 0 0 1-1.059-5.373 11.808 11.808 0 0 1 1.2-5.462 8.2 8.2 0 0 1 3.405-3.541 9.948 9.948 0 0 1 4.86-1.21 8.214 8.214 0 0 1 5.058 1.532 7.949 7.949 0 0 1 2.858 4.306l-2.611 0.616a6.2 6.2 0 0 0-2.024-3.186 5.394 5.394 0 0 0-3.336-1 6.48 6.48 0 0 0-3.862 1.107 5.849 5.849 0 0 0-2.181 2.974 11.979 11.979 0 0 0-0.629 3.849 12.229 12.229 0 0 0 0.745 4.464 5.55 5.55 0 0 0 2.318 2.85 6.5 6.5 0 0 0 3.4 0.944 5.709 5.709 0 0 0 3.774-1.286 6.57 6.57 0 0 0 2.092-3.812z"/>
  <path transform="translate(-14.173,-14.173)" d="m1001.4 66.237v-8.337h-1.351v-1.337h1.351v-0.463a4.629 4.629 0 0 1 1.125-3.389 3.368 3.368 0 0 1 2.351-0.893 3.816 3.816 0 0 1 1.5 0.283l-0.232 1.352a2.68 2.68 0 0 0-1.13-0.221c-1.486 0-1.876 1.317-1.876 2.811v0.524h2.338v1.333h-2.328v8.341z"/>
  <path transform="translate(-14.173,-14.173)" d="m1015.2 63.589c0 1.015 0.033 1.883 0.08 2.648h-1.555l-0.094-1.582h-0.049a3.612 3.612 0 0 1-3.2 1.8c-1.514 0-3.332-0.849-3.332-4.24v-5.652h1.751v5.345c0 1.842 0.574 3.1 2.162 3.1a2.561 2.561 0 0 0 2.328-1.614 2.714 2.714 0 0 0 0.161-0.9v-5.931h1.75z"/>
  <path transform="translate(-14.173,-14.173)" d="m1018.1 59.175c0-1.009-0.033-1.811-0.08-2.612h1.555l0.1 1.59h0.049a3.574 3.574 0 0 1 3.2-1.811c1.329 0 3.409 0.8 3.409 4.123v5.772h-1.751v-5.578c0-1.564-0.589-2.874-2.237-2.874a2.533 2.533 0 0 0-2.37 1.806 2.733 2.733 0 0 0-0.121 0.816v5.83h-1.75z"/>
  <path transform="translate(-14.173,-14.173)" d="m1036.1 65.886a6.661 6.661 0 0 1-2.775 0.561 4.61 4.61 0 0 1-4.827-4.943 4.927 4.927 0 0 1 5.2-5.158 5.666 5.666 0 0 1 2.445 0.515l-0.39 1.351a4.29 4.29 0 0 0-2.058-0.465 3.357 3.357 0 0 0-3.413 3.664 3.321 3.321 0 0 0 3.37 3.62 5.114 5.114 0 0 0 2.153-0.465z"/>
  <path transform="translate(-14.173,-14.173)" d="m1040.5 53.777v2.786h2.527v1.337h-2.527v5.213c0 1.2 0.347 1.886 1.33 1.886a3.508 3.508 0 0 0 1.019-0.127l0.081 1.337a4.5 4.5 0 0 1-1.572 0.242 2.463 2.463 0 0 1-1.9-0.745 3.7 3.7 0 0 1-0.683-2.524v-5.282h-1.5v-1.337h1.5v-2.331z"/>
  <path transform="translate(-14.173,-14.173)" d="m1047 53.828a1.06 1.06 0 0 1-1.119 1.093 1.049 1.049 0 0 1-1.062-1.093 1.069 1.069 0 0 1 1.094-1.1 1.054 1.054 0 0 1 1.087 1.1zm-1.965 12.409v-9.674h1.75v9.674z"/>
  <path transform="translate(-14.173,-14.173)" d="m1058.5 61.307c0 3.583-2.486 5.15-4.811 5.15-2.624 0-4.651-1.913-4.651-4.984 0-3.237 2.128-5.131 4.8-5.131 2.785 0 4.662 2.018 4.662 4.965zm-7.672 0.112c0 2.123 1.216 3.72 2.933 3.72 1.687 0 2.948-1.576 2.948-3.772 0-1.637-0.825-3.706-2.916-3.706-2.066 0-2.965 1.924-2.965 3.758z"/>
  <path transform="translate(-14.173,-14.173)" d="m1060.7 59.175c0-1.009-0.033-1.811-0.08-2.612h1.554l0.1 1.59h0.049a3.572 3.572 0 0 1 3.2-1.811c1.329 0 3.409 0.8 3.409 4.123v5.772h-1.75v-5.578c0-1.564-0.59-2.874-2.236-2.874a2.533 2.533 0 0 0-2.371 1.806 2.733 2.733 0 0 0-0.121 0.816v5.83h-1.75z"/>
  <path transform="translate(-14.173,-14.173)" d="m1076.1 52.918a19.148 19.148 0 0 1 3.352-0.269 5.532 5.532 0 0 1 3.779 1.121 3.667 3.667 0 0 1 1.186 2.822 3.966 3.966 0 0 1-1.048 2.886 5.577 5.577 0 0 1-4.12 1.476 5.7 5.7 0 0 1-1.408-0.125v5.408h-1.741zm1.741 6.493a5.349 5.349 0 0 0 1.443 0.152c2.112 0 3.388-1.037 3.388-2.879 0-1.785-1.275-2.657-3.185-2.657a8.393 8.393 0 0 0-1.646 0.137z" fill="#f00"/>
  <path transform="translate(-14.173,-14.173)" d="m1088.5 52.754v13.483h-1.75v-13.483z" fill="#f00"/>
  <path transform="translate(-14.173,-14.173)" d="m1095.3 52.344a13.255 13.255 0 0 0-2.51 8.2 13.452 13.452 0 0 0 2.51 8.106h-1.366a12.866 12.866 0 0 1-2.618-8.118 13.119 13.119 0 0 1 2.618-8.185z"/>
  <g fill="#060">
   <path transform="translate(-14.173,-14.173)" d="m1106.8 66.237-0.156-1.222h-0.051a3.6 3.6 0 0 1-2.96 1.442 2.76 2.76 0 0 1-2.955-2.776c0-2.344 2.076-3.631 5.814-3.6v-0.2a1.993 1.993 0 0 0-2.2-2.232 4.7 4.7 0 0 0-2.52 0.721l-0.4-1.17a6.086 6.086 0 0 1 3.193-0.849c2.957 0 3.679 2.022 3.679 3.96v3.62a15.067 15.067 0 0 0 0.146 2.315zm-0.274-4.94c-1.9-0.041-4.084 0.3-4.084 2.172a1.549 1.549 0 0 0 1.643 1.685 2.42 2.42 0 0 0 2.357-1.62 1.805 1.805 0 0 0 0.084-0.555z"/>
   <path transform="translate(-14.173,-14.173)" d="m1111 59.576c0-1.143-0.028-2.117-0.08-3.013h1.542l0.068 1.9h0.062a2.936 2.936 0 0 1 2.694-2.118 1.989 1.989 0 0 1 0.49 0.05v1.655a2.793 2.793 0 0 0-0.6-0.051 2.458 2.458 0 0 0-2.355 2.251 4.7 4.7 0 0 0-0.072 0.821v5.169h-1.75z"/>
   <path transform="translate(-14.173,-14.173)" d="m1125.8 56.563c-0.048 0.683-0.081 1.469-0.081 2.647v5.618c0 2.239-0.457 3.581-1.382 4.429a5.2 5.2 0 0 1-3.525 1.16 6.241 6.241 0 0 1-3.229-0.8l0.44-1.353a5.454 5.454 0 0 0 2.849 0.774c1.8 0 3.115-0.939 3.115-3.39v-1.074h-0.04a3.429 3.429 0 0 1-3.074 1.63c-2.412 0-4.125-2.052-4.125-4.732 0-3.281 2.134-5.13 4.368-5.13a3.216 3.216 0 0 1 3.019 1.669h0.04l0.072-1.448zm-1.83 3.805a2.7 2.7 0 0 0-0.1-0.787 2.541 2.541 0 0 0-2.471-1.872c-1.678 0-2.882 1.419-2.882 3.667 0 1.894 0.978 3.485 2.865 3.485a2.577 2.577 0 0 0 2.447-1.814 3.111 3.111 0 0 0 0.139-0.936z"/>
   <path transform="translate(-14.173,-14.173)" d="m1128.3 64.445a4.8 4.8 0 0 0 2.332 0.69c1.285 0 1.88-0.632 1.88-1.441 0-0.846-0.512-1.289-1.8-1.771-1.747-0.633-2.575-1.585-2.571-2.744 0-1.558 1.266-2.837 3.347-2.837a4.671 4.671 0 0 1 2.369 0.6l-0.436 1.279a3.8 3.8 0 0 0-1.986-0.57c-1.038 0-1.6 0.6-1.6 1.328 0 0.8 0.569 1.158 1.837 1.65 1.668 0.621 2.534 1.462 2.539 2.907 0 1.715-1.333 2.915-3.619 2.915a5.51 5.51 0 0 1-2.719-0.675z"/>
  </g>
  <path transform="translate(-14.173,-14.173)" d="m1139.7 68.647a13.511 13.511 0 0 0 2.51-8.166 13.337 13.337 0 0 0-2.51-8.137h1.368a12.866 12.866 0 0 1 2.617 8.149 13.069 13.069 0 0 1-2.617 8.154z"/>
  <path transform="translate(-14.173,-14.173)" d="m1149.8 59.976c1.418 0 1.619-0.774 1.619-1.487a12.386 12.386 0 0 0-0.153-1.667 10.827 10.827 0 0 1-0.164-1.666c0-1.842 1.207-2.628 2.908-2.628h0.414v1.1h-0.357c-1.179 0-1.594 0.633-1.594 1.726a9.373 9.373 0 0 0 0.15 1.423 9.986 9.986 0 0 1 0.148 1.514 1.908 1.908 0 0 1-1.442 2.157v0.04a1.942 1.942 0 0 1 1.442 2.185 10.028 10.028 0 0 1-0.148 1.519 9.607 9.607 0 0 0-0.15 1.436c0 1.124 0.476 1.745 1.6 1.745h0.354v1.1h-0.417c-1.657 0-2.9-0.728-2.9-2.742a10.294 10.294 0 0 1 0.164-1.633 11.915 11.915 0 0 0 0.153-1.618c0-0.633-0.2-1.492-1.619-1.493z"/>
  <path transform="translate(-14.173,-14.173)" d="m1018.4 89.237v-8.337h-1.351v-1.337h1.351v-0.424a4.354 4.354 0 0 1 1.367-3.348 4.588 4.588 0 0 1 3.1-0.977 6.334 6.334 0 0 1 2.9 0.638v13.785h-1.751v-12.8a3.135 3.135 0 0 0-1.443-0.265c-1.827 0-2.44 1.348-2.44 2.89v0.5h2.266v1.338h-2.256v8.341z"/>
  <path transform="translate(-14.173,-14.173)" d="m1037.4 84.307c0 3.583-2.487 5.15-4.812 5.15-2.624 0-4.65-1.913-4.65-4.984 0-3.237 2.128-5.131 4.8-5.131 2.785 0 4.662 2.018 4.662 4.965zm-7.672 0.112c0 2.123 1.215 3.72 2.932 3.72 1.688 0 2.949-1.576 2.949-3.772 0-1.637-0.826-3.706-2.917-3.706-2.066 0-2.964 1.924-2.964 3.758z"/>
  <path transform="translate(-14.173,-14.173)" d="m1045 89.237-0.155-1.222h-0.052a3.6 3.6 0 0 1-2.96 1.442 2.76 2.76 0 0 1-2.955-2.776c0-2.344 2.077-3.631 5.815-3.6v-0.2a1.993 1.993 0 0 0-2.2-2.232 4.705 4.705 0 0 0-2.521 0.721l-0.4-1.17a6.083 6.083 0 0 1 3.193-0.849c2.957 0 3.679 2.022 3.679 3.96v3.62a15.2 15.2 0 0 0 0.145 2.315zm-0.273-4.94c-1.9-0.041-4.084 0.3-4.084 2.172a1.549 1.549 0 0 0 1.643 1.685 2.42 2.42 0 0 0 2.357-1.62 1.805 1.805 0 0 0 0.084-0.555z"/>
  <path transform="translate(-14.173,-14.173)" d="m1051.3 76.777v2.786h2.527v1.337h-2.527v5.213c0 1.2 0.347 1.886 1.33 1.886a3.521 3.521 0 0 0 1.02-0.127l0.081 1.337a4.511 4.511 0 0 1-1.573 0.242 2.463 2.463 0 0 1-1.9-0.745 3.707 3.707 0 0 1-0.683-2.524v-5.282h-1.5v-1.337h1.5v-2.331z"/>
  <path transform="translate(-14.173,-14.173)" d="m1060.1 75.754h1.74v6.5h0.063c0.353-0.523 0.727-0.993 1.064-1.433l4.118-5.066h2.156l-4.875 5.731 5.262 7.752h-2.064l-4.431-6.613-1.293 1.475v5.135h-1.74z" fill="#00c"/>
  <path transform="translate(-14.173,-14.173)" d="m1077.8 88.886a6.657 6.657 0 0 1-2.775 0.561 4.61 4.61 0 0 1-4.827-4.943 4.927 4.927 0 0 1 5.2-5.158 5.666 5.666 0 0 1 2.445 0.515l-0.39 1.351a4.29 4.29 0 0 0-2.058-0.465 3.357 3.357 0 0 0-3.413 3.664 3.322 3.322 0 0 0 3.37 3.62 5.119 5.119 0 0 0 2.154-0.465z" fill="#00c"/>
  <path transform="translate(-14.173,-14.173)" d="m1083.5 82.488v-1.2h10.322v1.2zm0 3.93v-1.2h10.322v1.2z"/>
  <g fill="#060">
   <path transform="translate(-14.173,-14.173)" d="m1105.6 89.237-0.156-1.222h-0.051a3.6 3.6 0 0 1-2.96 1.442 2.76 2.76 0 0 1-2.955-2.776c0-2.344 2.076-3.631 5.814-3.6v-0.2a1.993 1.993 0 0 0-2.2-2.232 4.705 4.705 0 0 0-2.521 0.721l-0.4-1.17a6.086 6.086 0 0 1 3.193-0.849c2.957 0 3.679 2.022 3.679 3.96v3.62a15.2 15.2 0 0 0 0.145 2.315zm-0.274-4.94c-1.9-0.041-4.084 0.3-4.084 2.172a1.549 1.549 0 0 0 1.643 1.685 2.42 2.42 0 0 0 2.357-1.62 1.805 1.805 0 0 0 0.084-0.555z"/>
   <path transform="translate(-14.173,-14.173)" d="m1109.9 82.576c0-1.143-0.028-2.117-0.08-3.013h1.542l0.067 1.9h0.063a2.935 2.935 0 0 1 2.694-2.118 1.976 1.976 0 0 1 0.489 0.05v1.655a2.777 2.777 0 0 0-0.6-0.051 2.46 2.46 0 0 0-2.356 2.251 4.7 4.7 0 0 0-0.071 0.821v5.169h-1.75z"/>
   <path transform="translate(-14.173,-14.173)" d="m1124.6 79.563c-0.047 0.683-0.081 1.469-0.081 2.647v5.618c0 2.239-0.457 3.581-1.381 4.429a5.206 5.206 0 0 1-3.525 1.16 6.241 6.241 0 0 1-3.229-0.8l0.44-1.353a5.454 5.454 0 0 0 2.849 0.774c1.8 0 3.115-0.939 3.115-3.39v-1.074h-0.04a3.429 3.429 0 0 1-3.074 1.63c-2.412 0-4.125-2.052-4.125-4.732 0-3.281 2.134-5.13 4.368-5.13a3.213 3.213 0 0 1 3.018 1.669h0.04l0.073-1.448zm-1.83 3.8a2.7 2.7 0 0 0-0.1-0.787 2.541 2.541 0 0 0-2.471-1.872c-1.679 0-2.882 1.419-2.882 3.667 0 1.894 0.978 3.485 2.864 3.485a2.577 2.577 0 0 0 2.448-1.814 3.142 3.142 0 0 0 0.138-0.936z"/>
   <path transform="translate(-14.173,-14.173)" d="m1127.2 87.445a4.8 4.8 0 0 0 2.332 0.69c1.285 0 1.879-0.632 1.879-1.441 0-0.846-0.511-1.289-1.8-1.771-1.747-0.633-2.576-1.585-2.571-2.744 0-1.558 1.266-2.837 3.347-2.837a4.674 4.674 0 0 1 2.369 0.6l-0.436 1.279a3.8 3.8 0 0 0-1.986-0.57c-1.038 0-1.6 0.6-1.6 1.328 0 0.8 0.569 1.158 1.837 1.65 1.668 0.621 2.534 1.462 2.539 2.907 0 1.715-1.333 2.915-3.619 2.915a5.507 5.507 0 0 1-2.719-0.675z"/>
  </g>
  <path transform="translate(-14.173,-14.173)" d="m1134.8 88.2a1.187 1.187 0 0 1 1.193-1.27 1.264 1.264 0 1 1-1.193 1.27z"/>
  <path transform="translate(-14.173,-14.173)" d="m1139.4 75.754h1.74v6.5h0.063c0.353-0.523 0.727-0.993 1.064-1.433l4.118-5.066h2.157l-4.875 5.731 5.261 7.752h-2.064l-4.431-6.613-1.293 1.478v5.135h-1.74z"/>
  <path transform="translate(-14.173,-14.173)" d="m1157.1 88.886a6.666 6.666 0 0 1-2.776 0.561 4.61 4.61 0 0 1-4.827-4.943 4.927 4.927 0 0 1 5.2-5.158 5.671 5.671 0 0 1 2.446 0.515l-0.391 1.351a4.29 4.29 0 0 0-2.058-0.465 3.357 3.357 0 0 0-3.413 3.664 3.322 3.322 0 0 0 3.37 3.62 5.111 5.111 0 0 0 2.154-0.465z"/>
  <path transform="translate(-14.173,-14.173)" d="m1158 91.706a29.526 29.526 0 0 0 1.2-4.791l1.949-0.2a24.9 24.9 0 0 1-1.914 4.861zm0.869-10.559a1.182 1.182 0 0 1 1.189-1.262 1.257 1.257 0 1 1-1.189 1.262z"/>
  <path transform="translate(-14.173,-14.173)" d="m1018.4 112.24v-8.337h-1.351v-1.333h1.351v-0.424a4.354 4.354 0 0 1 1.367-3.348 4.588 4.588 0 0 1 3.1-0.977 6.334 6.334 0 0 1 2.9 0.638v13.785h-1.751v-12.8a3.135 3.135 0 0 0-1.443-0.265c-1.827 0-2.44 1.348-2.44 2.89v0.5h2.266v1.334h-2.256v8.341z"/>
  <path transform="translate(-14.173,-14.173)" d="m1037.4 107.31c0 3.583-2.487 5.15-4.812 5.15-2.624 0-4.65-1.913-4.65-4.984 0-3.237 2.128-5.131 4.8-5.131 2.785 0 4.662 2.018 4.662 4.965zm-7.672 0.112c0 2.123 1.215 3.72 2.932 3.72 1.688 0 2.949-1.576 2.949-3.772 0-1.637-0.826-3.706-2.917-3.706-2.066 0-2.964 1.924-2.964 3.758z"/>
  <path transform="translate(-14.173,-14.173)" d="m1045 112.24-0.155-1.222h-0.052a3.6 3.6 0 0 1-2.96 1.442 2.76 2.76 0 0 1-2.955-2.776c0-2.344 2.077-3.631 5.815-3.6v-0.2a1.993 1.993 0 0 0-2.2-2.232 4.705 4.705 0 0 0-2.521 0.721l-0.4-1.17a6.083 6.083 0 0 1 3.193-0.849c2.957 0 3.679 2.022 3.679 3.96v3.62a15.2 15.2 0 0 0 0.145 2.315zm-0.273-4.94c-1.9-0.041-4.084 0.3-4.084 2.172a1.549 1.549 0 0 0 1.643 1.685 2.42 2.42 0 0 0 2.357-1.62 1.805 1.805 0 0 0 0.084-0.555z"/>
  <path transform="translate(-14.173,-14.173)" d="m1051.3 99.777v2.786h2.527v1.337h-2.527v5.213c0 1.2 0.347 1.886 1.33 1.886a3.521 3.521 0 0 0 1.02-0.127l0.081 1.337a4.511 4.511 0 0 1-1.573 0.242 2.463 2.463 0 0 1-1.9-0.745 3.707 3.707 0 0 1-0.683-2.524v-5.282h-1.5v-1.333h1.5v-2.331z"/>
  <path transform="translate(-14.173,-14.173)" d="m1061.9 100.22h-4.107v-1.471h9.984v1.471h-4.126v12.012h-1.751z" fill="#00c"/>
  <path transform="translate(-14.173,-14.173)" d="m1070.6 99.828a1.06 1.06 0 0 1-1.119 1.093 1.049 1.049 0 0 1-1.062-1.093 1.069 1.069 0 0 1 1.094-1.1 1.054 1.054 0 0 1 1.087 1.1zm-1.965 12.409v-9.674h1.75v9.674z" fill="#00c"/>
  <path transform="translate(-14.173,-14.173)" d="m1076.9 105.49v-1.2h10.322v1.2zm0 3.93v-1.2h10.322v1.2z"/>
  <g fill="#060">
   <path transform="translate(-14.173,-14.173)" d="m1099.1 112.24-0.155-1.222h-0.052a3.6 3.6 0 0 1-2.96 1.442 2.76 2.76 0 0 1-2.955-2.776c0-2.344 2.076-3.631 5.814-3.6v-0.2a1.992 1.992 0 0 0-2.2-2.232 4.7 4.7 0 0 0-2.52 0.721l-0.4-1.17a6.087 6.087 0 0 1 3.194-0.849c2.957 0 3.678 2.022 3.678 3.96v3.62a15.194 15.194 0 0 0 0.146 2.315zm-0.273-4.94c-1.9-0.041-4.084 0.3-4.084 2.172a1.549 1.549 0 0 0 1.642 1.685 2.422 2.422 0 0 0 2.358-1.62 1.836 1.836 0 0 0 0.084-0.555z"/>
   <path transform="translate(-14.173,-14.173)" d="m1103.4 105.58c0-1.143-0.028-2.117-0.08-3.013h1.542l0.068 1.9h0.062a2.937 2.937 0 0 1 2.7-2.118 1.981 1.981 0 0 1 0.489 0.05v1.655a2.793 2.793 0 0 0-0.6-0.051 2.458 2.458 0 0 0-2.355 2.251 4.7 4.7 0 0 0-0.072 0.821v5.169h-1.75z"/>
   <path transform="translate(-14.173,-14.173)" d="m1118.1 102.56c-0.048 0.683-0.081 1.469-0.081 2.647v5.618c0 2.239-0.457 3.581-1.382 4.429a5.2 5.2 0 0 1-3.524 1.16 6.245 6.245 0 0 1-3.23-0.8l0.441-1.353a5.447 5.447 0 0 0 2.848 0.774c1.8 0 3.115-0.939 3.115-3.39v-1.078h-0.04a3.429 3.429 0 0 1-3.074 1.63c-2.412 0-4.125-2.052-4.125-4.732 0-3.281 2.134-5.13 4.368-5.13a3.216 3.216 0 0 1 3.019 1.669h0.04l0.072-1.448zm-1.83 3.8a2.7 2.7 0 0 0-0.1-0.787 2.541 2.541 0 0 0-2.471-1.872c-1.678 0-2.881 1.419-2.881 3.667 0 1.894 0.977 3.485 2.864 3.485a2.576 2.576 0 0 0 2.447-1.814 3.111 3.111 0 0 0 0.139-0.936z"/>
   <path transform="translate(-14.173,-14.173)" d="m1120.7 110.44a4.8 4.8 0 0 0 2.332 0.69c1.285 0 1.88-0.632 1.88-1.441 0-0.846-0.512-1.289-1.8-1.771-1.747-0.633-2.575-1.585-2.57-2.744 0-1.558 1.265-2.837 3.346-2.837a4.678 4.678 0 0 1 2.37 0.6l-0.437 1.279a3.8 3.8 0 0 0-1.985-0.57c-1.038 0-1.6 0.6-1.6 1.328 0 0.8 0.569 1.158 1.837 1.65 1.668 0.621 2.534 1.462 2.539 2.907 0 1.715-1.333 2.915-3.619 2.915a5.51 5.51 0 0 1-2.719-0.675z"/>
  </g>
  <path transform="translate(-14.173,-14.173)" d="m1128.2 111.2a1.187 1.187 0 0 1 1.194-1.27 1.264 1.264 0 1 1-1.194 1.27z"/>
  <path transform="translate(-14.173,-14.173)" d="m1135.4 100.22h-4.107v-1.471h9.984v1.471h-4.126v12.012h-1.751z"/>
  <path transform="translate(-14.173,-14.173)" d="m1146.8 112.24-0.155-1.222h-0.052a3.6 3.6 0 0 1-2.96 1.442 2.76 2.76 0 0 1-2.955-2.776c0-2.344 2.076-3.631 5.815-3.6v-0.2a1.993 1.993 0 0 0-2.2-2.232 4.705 4.705 0 0 0-2.521 0.721l-0.4-1.17a6.081 6.081 0 0 1 3.193-0.849c2.957 0 3.679 2.022 3.679 3.96v3.62a15.2 15.2 0 0 0 0.145 2.315zm-0.273-4.94c-1.9-0.041-4.084 0.3-4.084 2.172a1.549 1.549 0 0 0 1.642 1.685 2.421 2.421 0 0 0 2.358-1.62 1.836 1.836 0 0 0 0.084-0.555z"/>
  <path transform="translate(-14.173,-14.173)" d="m1159.1 109.59c0 1.015 0.034 1.883 0.081 2.648h-1.555l-0.094-1.582h-0.049a3.612 3.612 0 0 1-3.2 1.8c-1.514 0-3.332-0.849-3.332-4.24v-5.654h1.751v5.345c0 1.842 0.574 3.1 2.162 3.1a2.561 2.561 0 0 0 2.328-1.614 2.715 2.715 0 0 0 0.16-0.9v-5.925h1.75z"/>
  <path transform="translate(-14.173,-14.173)" d="m1163.9 98.754v13.483h-1.75v-13.483z"/>
  <path transform="translate(-14.173,-14.173)" d="m1165.7 114.71a29.632 29.632 0 0 0 1.2-4.791l1.949-0.2a24.9 24.9 0 0 1-1.914 4.861zm0.869-10.559a1.181 1.181 0 0 1 1.188-1.262 1.257 1.257 0 1 1-1.188 1.262z"/>
  <path transform="translate(-14.173,-14.173)" d="m1018.4 135.24v-8.337h-1.351v-1.333h1.351v-0.424a4.354 4.354 0 0 1 1.367-3.348 4.588 4.588 0 0 1 3.1-0.977 6.334 6.334 0 0 1 2.9 0.638v13.785h-1.751v-12.8a3.135 3.135 0 0 0-1.443-0.265c-1.827 0-2.44 1.348-2.44 2.89v0.5h2.266v1.334h-2.256v8.341z"/>
  <path transform="translate(-14.173,-14.173)" d="m1037.4 130.31c0 3.583-2.487 5.15-4.812 5.15-2.624 0-4.65-1.913-4.65-4.984 0-3.237 2.128-5.131 4.8-5.131 2.785 0 4.662 2.018 4.662 4.965zm-7.672 0.112c0 2.123 1.215 3.72 2.932 3.72 1.688 0 2.949-1.576 2.949-3.772 0-1.637-0.826-3.706-2.917-3.706-2.066 0-2.964 1.924-2.964 3.758z"/>
  <path transform="translate(-14.173,-14.173)" d="m1045 135.24-0.155-1.222h-0.052a3.6 3.6 0 0 1-2.96 1.442 2.76 2.76 0 0 1-2.955-2.776c0-2.344 2.077-3.631 5.815-3.6v-0.2a1.993 1.993 0 0 0-2.2-2.232 4.705 4.705 0 0 0-2.521 0.721l-0.4-1.17a6.083 6.083 0 0 1 3.193-0.849c2.957 0 3.679 2.022 3.679 3.96v3.62a15.2 15.2 0 0 0 0.145 2.315zm-0.273-4.94c-1.9-0.041-4.084 0.3-4.084 2.172a1.549 1.549 0 0 0 1.643 1.685 2.42 2.42 0 0 0 2.357-1.62 1.805 1.805 0 0 0 0.084-0.555z"/>
  <path transform="translate(-14.173,-14.173)" d="m1051.3 122.78v2.786h2.527v1.337h-2.527v5.213c0 1.2 0.347 1.886 1.33 1.886a3.521 3.521 0 0 0 1.02-0.127l0.081 1.337a4.511 4.511 0 0 1-1.573 0.242 2.463 2.463 0 0 1-1.9-0.745 3.707 3.707 0 0 1-0.683-2.524v-5.282h-1.5v-1.333h1.5v-2.331z"/>
  <path transform="translate(-14.173,-14.173)" d="m1060.1 128.18c0-1.009-0.033-1.811-0.08-2.612h1.528l0.093 1.557h0.049a3.341 3.341 0 0 1 3.055-1.778 2.846 2.846 0 0 1 2.726 1.94h0.04a3.919 3.919 0 0 1 1.092-1.26 3.3 3.3 0 0 1 2.128-0.68c1.292 0 3.194 0.833 3.194 4.2v5.7h-1.717v-5.471c0-1.875-0.691-2.984-2.1-2.984a2.3 2.3 0 0 0-2.093 1.583 2.906 2.906 0 0 0-0.143 0.883v5.989h-1.718v-5.806c0-1.541-0.682-2.649-2.011-2.649a2.434 2.434 0 0 0-2.193 1.756 2.817 2.817 0 0 0-0.133 0.867v5.832h-1.717z" fill="#00c"/>
  <path transform="translate(-14.173,-14.173)" d="m1077.2 125.56 1.9 5.424c0.326 0.9 0.576 1.695 0.792 2.5h0.053c0.222-0.8 0.5-1.608 0.81-2.5l1.893-5.424h1.839l-3.807 9.674h-1.677l-3.684-9.674z" fill="#00c"/>
  <path transform="translate(-14.173,-14.173)" d="m1089.7 128.49v-1.2h10.323v1.2zm0 3.93v-1.2h10.323v1.2z"/>
  <g fill="#060">
   <path transform="translate(-14.173,-14.173)" d="m1111.9 135.24-0.155-1.222h-0.052a3.6 3.6 0 0 1-2.96 1.442 2.76 2.76 0 0 1-2.955-2.776c0-2.344 2.076-3.631 5.814-3.6v-0.2a1.992 1.992 0 0 0-2.2-2.232 4.7 4.7 0 0 0-2.52 0.721l-0.4-1.17a6.087 6.087 0 0 1 3.194-0.849c2.957 0 3.678 2.022 3.678 3.96v3.62a15.067 15.067 0 0 0 0.146 2.315zm-0.274-4.94c-1.9-0.041-4.084 0.3-4.084 2.172a1.549 1.549 0 0 0 1.643 1.685 2.42 2.42 0 0 0 2.357-1.62 1.805 1.805 0 0 0 0.084-0.555z"/>
   <path transform="translate(-14.173,-14.173)" d="m1116.2 128.58c0-1.143-0.028-2.117-0.08-3.013h1.542l0.068 1.9h0.062a2.936 2.936 0 0 1 2.694-2.118 1.984 1.984 0 0 1 0.49 0.05v1.655a2.793 2.793 0 0 0-0.6-0.051 2.458 2.458 0 0 0-2.355 2.251 4.7 4.7 0 0 0-0.072 0.821v5.169h-1.75z"/>
   <path transform="translate(-14.173,-14.173)" d="m1130.9 125.56c-0.048 0.683-0.081 1.469-0.081 2.647v5.618c0 2.239-0.457 3.581-1.382 4.429a5.2 5.2 0 0 1-3.525 1.16 6.241 6.241 0 0 1-3.229-0.8l0.44-1.353a5.454 5.454 0 0 0 2.849 0.774c1.8 0 3.115-0.939 3.115-3.39v-1.078h-0.04a3.429 3.429 0 0 1-3.074 1.63c-2.412 0-4.125-2.052-4.125-4.732 0-3.281 2.134-5.13 4.368-5.13a3.216 3.216 0 0 1 3.019 1.669h0.04l0.072-1.448zm-1.83 3.8a2.7 2.7 0 0 0-0.1-0.787 2.541 2.541 0 0 0-2.471-1.872c-1.678 0-2.882 1.419-2.882 3.667 0 1.894 0.978 3.485 2.865 3.485a2.576 2.576 0 0 0 2.447-1.814 3.111 3.111 0 0 0 0.139-0.936z"/>
   <path transform="translate(-14.173,-14.173)" d="m1133.5 133.44a4.8 4.8 0 0 0 2.332 0.69c1.285 0 1.88-0.632 1.88-1.441 0-0.846-0.512-1.289-1.8-1.771-1.747-0.633-2.575-1.585-2.57-2.744 0-1.558 1.265-2.837 3.346-2.837a4.671 4.671 0 0 1 2.369 0.6l-0.436 1.279a3.8 3.8 0 0 0-1.986-0.57c-1.038 0-1.6 0.6-1.6 1.328 0 0.8 0.569 1.158 1.837 1.65 1.668 0.621 2.534 1.462 2.539 2.907 0 1.715-1.333 2.915-3.619 2.915a5.51 5.51 0 0 1-2.719-0.675z"/>
  </g>
  <path transform="translate(-14.173,-14.173)" d="m1141 134.2a1.187 1.187 0 0 1 1.193-1.27 1.264 1.264 0 1 1-1.193 1.27z"/>
  <path transform="translate(-14.173,-14.173)" d="m1157 129.32c-0.1-1.873-0.226-4.149-0.215-5.815h-0.054c-0.465 1.564-1.025 3.264-1.7 5.111l-2.381 6.54h-1.315l-2.2-6.42c-0.642-1.905-1.165-3.634-1.544-5.231h-0.047c-0.047 1.68-0.134 3.925-0.265 5.948l-0.358 5.788h-1.654l0.938-13.483h2.225l2.3 6.526c0.555 1.651 1.008 3.136 1.357 4.542h0.053c0.354-1.365 0.825-2.851 1.427-4.541l2.4-6.527h2.227l0.835 13.483h-1.711z"/>
  <path transform="translate(-14.173,-14.173)" d="m1167.1 135.24-0.155-1.222h-0.052a3.6 3.6 0 0 1-2.96 1.442 2.76 2.76 0 0 1-2.955-2.776c0-2.344 2.076-3.631 5.814-3.6v-0.2a1.992 1.992 0 0 0-2.2-2.232 4.7 4.7 0 0 0-2.52 0.721l-0.4-1.17a6.087 6.087 0 0 1 3.194-0.849c2.957 0 3.678 2.022 3.678 3.96v3.62a15.194 15.194 0 0 0 0.146 2.315zm-0.273-4.94c-1.9-0.041-4.084 0.3-4.084 2.172a1.549 1.549 0 0 0 1.642 1.685 2.422 2.422 0 0 0 2.358-1.62 1.836 1.836 0 0 0 0.084-0.555z"/>
  <path transform="translate(-14.173,-14.173)" d="m1171.4 128.18c0-1.009-0.033-1.811-0.08-2.612h1.555l0.1 1.59h0.049a3.571 3.571 0 0 1 3.2-1.811c1.329 0 3.409 0.8 3.409 4.123v5.772h-1.75v-5.578c0-1.564-0.59-2.874-2.236-2.874a2.532 2.532 0 0 0-2.371 1.806 2.7 2.7 0 0 0-0.122 0.816v5.83h-1.75z"/>
  <path transform="translate(-14.173,-14.173)" d="m1184.5 122.83a1.06 1.06 0 0 1-1.119 1.093 1.05 1.05 0 0 1-1.063-1.093 1.069 1.069 0 0 1 1.094-1.1 1.055 1.055 0 0 1 1.088 1.1zm-1.966 12.409v-9.674h1.75v9.674z"/>
  <path transform="translate(-14.173,-14.173)" d="m1187.2 128.71c0-1.234-0.033-2.238-0.08-3.151h1.572l0.1 1.648h0.04a3.778 3.778 0 0 1 3.434-1.869c2.342 0 4.107 1.973 4.107 4.909 0 3.488-2.133 5.206-4.4 5.206a3.377 3.377 0 0 1-2.981-1.524h-0.04v5.267h-1.749zm1.749 2.585a3.261 3.261 0 0 0 0.076 0.716 2.7 2.7 0 0 0 2.631 2.064c1.865 0 2.941-1.531 2.941-3.748 0-1.931-1.011-3.591-2.874-3.591a2.8 2.8 0 0 0-2.661 2.171 3.079 3.079 0 0 0-0.113 0.715z"/>
  <path transform="translate(-14.173,-14.173)" d="m1201.6 135.24-4.416-13.483h1.893l2.094 6.647c0.579 1.818 1.078 3.461 1.443 5.031h0.047c0.377-1.558 0.93-3.255 1.535-5.009l2.28-6.669h1.861l-4.816 13.483z"/>
  <path transform="translate(-14.173,-14.173)" d="m1214.4 135.24-0.155-1.222h-0.052a3.6 3.6 0 0 1-2.96 1.442 2.76 2.76 0 0 1-2.955-2.776c0-2.344 2.076-3.631 5.814-3.6v-0.2a1.992 1.992 0 0 0-2.2-2.232 4.7 4.7 0 0 0-2.52 0.721l-0.4-1.17a6.087 6.087 0 0 1 3.194-0.849c2.957 0 3.678 2.022 3.678 3.96v3.62a15.067 15.067 0 0 0 0.146 2.315zm-0.274-4.94c-1.9-0.041-4.084 0.3-4.084 2.172a1.549 1.549 0 0 0 1.643 1.685 2.42 2.42 0 0 0 2.357-1.62 1.805 1.805 0 0 0 0.084-0.555z"/>
  <path transform="translate(-14.173,-14.173)" d="m1218.7 128.58c0-1.143-0.028-2.117-0.08-3.013h1.542l0.068 1.9h0.062a2.936 2.936 0 0 1 2.694-2.118 1.984 1.984 0 0 1 0.49 0.05v1.655a2.793 2.793 0 0 0-0.6-0.051 2.458 2.458 0 0 0-2.355 2.251 4.7 4.7 0 0 0-0.072 0.821v5.169h-1.75z"/>
  <path transform="translate(-14.173,-14.173)" d="m1224.3 137.71a29.425 29.425 0 0 0 1.2-4.791l1.95-0.2a24.9 24.9 0 0 1-1.914 4.861zm0.869-10.559a1.182 1.182 0 0 1 1.189-1.262 1.257 1.257 0 1 1-1.189 1.262z"/>
  <path transform="translate(-14.173,-14.173)" d="m1018.4 158.24v-8.337h-1.351v-1.333h1.351v-0.424a4.354 4.354 0 0 1 1.367-3.348 4.588 4.588 0 0 1 3.1-0.977 6.334 6.334 0 0 1 2.9 0.638v13.785h-1.751v-12.8a3.135 3.135 0 0 0-1.443-0.265c-1.827 0-2.44 1.348-2.44 2.89v0.5h2.266v1.334h-2.256v8.341z"/>
  <path transform="translate(-14.173,-14.173)" d="m1037.4 153.31c0 3.583-2.487 5.15-4.812 5.15-2.624 0-4.65-1.913-4.65-4.984 0-3.237 2.128-5.131 4.8-5.131 2.785 0 4.662 2.018 4.662 4.965zm-7.672 0.112c0 2.123 1.215 3.72 2.932 3.72 1.688 0 2.949-1.576 2.949-3.772 0-1.637-0.826-3.706-2.917-3.706-2.066 0-2.964 1.924-2.964 3.758z"/>
  <path transform="translate(-14.173,-14.173)" d="m1045 158.24-0.155-1.222h-0.052a3.6 3.6 0 0 1-2.96 1.442 2.76 2.76 0 0 1-2.955-2.776c0-2.344 2.077-3.631 5.815-3.6v-0.2a1.993 1.993 0 0 0-2.2-2.232 4.705 4.705 0 0 0-2.521 0.721l-0.4-1.17a6.083 6.083 0 0 1 3.193-0.849c2.957 0 3.679 2.022 3.679 3.96v3.62a15.2 15.2 0 0 0 0.145 2.315zm-0.273-4.94c-1.9-0.041-4.084 0.3-4.084 2.172a1.549 1.549 0 0 0 1.643 1.685 2.42 2.42 0 0 0 2.357-1.62 1.805 1.805 0 0 0 0.084-0.555z"/>
  <path transform="translate(-14.173,-14.173)" d="m1051.3 145.78v2.786h2.527v1.337h-2.527v5.213c0 1.2 0.347 1.886 1.33 1.886a3.521 3.521 0 0 0 1.02-0.127l0.081 1.337a4.511 4.511 0 0 1-1.573 0.242 2.463 2.463 0 0 1-1.9-0.745 3.707 3.707 0 0 1-0.683-2.524v-5.282h-1.5v-1.333h1.5v-2.331z"/>
  <path transform="translate(-14.173,-14.173)" d="m1060.1 151.71c0-1.234-0.033-2.238-0.08-3.151h1.572l0.1 1.648h0.04a3.779 3.779 0 0 1 3.435-1.869c2.341 0 4.106 1.973 4.106 4.909 0 3.488-2.133 5.206-4.4 5.206a3.379 3.379 0 0 1-2.982-1.524h-0.04v5.267h-1.749zm1.749 2.585a3.322 3.322 0 0 0 0.076 0.716 2.7 2.7 0 0 0 2.631 2.064c1.865 0 2.942-1.531 2.942-3.748 0-1.931-1.012-3.591-2.874-3.591a2.794 2.794 0 0 0-2.661 2.171 3.028 3.028 0 0 0-0.114 0.715z" fill="#00c"/>
  <path transform="translate(-14.173,-14.173)" d="m1072 148.56 1.9 5.424c0.326 0.9 0.576 1.695 0.792 2.5h0.052c0.222-0.8 0.5-1.608 0.81-2.5l1.893-5.424h1.839l-3.806 9.674h-1.68l-3.684-9.674z" fill="#00c"/>
  <path transform="translate(-14.173,-14.173)" d="m1084.5 151.49v-1.2h10.322v1.2zm0 3.93v-1.2h10.322v1.2z"/>
  <g fill="#060">
   <path transform="translate(-14.173,-14.173)" d="m1106.7 158.24-0.155-1.222h-0.052a3.6 3.6 0 0 1-2.96 1.442 2.76 2.76 0 0 1-2.955-2.776c0-2.344 2.076-3.631 5.815-3.6v-0.2a1.993 1.993 0 0 0-2.2-2.232 4.7 4.7 0 0 0-2.52 0.721l-0.4-1.17a6.087 6.087 0 0 1 3.194-0.849c2.957 0 3.679 2.022 3.679 3.96v3.62a15.2 15.2 0 0 0 0.145 2.315zm-0.273-4.94c-1.9-0.041-4.084 0.3-4.084 2.172a1.549 1.549 0 0 0 1.642 1.685 2.422 2.422 0 0 0 2.358-1.62 1.836 1.836 0 0 0 0.084-0.555z"/>
   <path transform="translate(-14.173,-14.173)" d="m1111 151.58c0-1.143-0.029-2.117-0.08-3.013h1.542l0.067 1.9h0.062a2.938 2.938 0 0 1 2.695-2.118 1.981 1.981 0 0 1 0.489 0.05v1.655a2.787 2.787 0 0 0-0.6-0.051 2.458 2.458 0 0 0-2.355 2.251 4.7 4.7 0 0 0-0.071 0.821v5.169h-1.75z"/>
   <path transform="translate(-14.173,-14.173)" d="m1125.7 148.56c-0.048 0.683-0.081 1.469-0.081 2.647v5.618c0 2.239-0.457 3.581-1.382 4.429a5.2 5.2 0 0 1-3.524 1.16 6.245 6.245 0 0 1-3.23-0.8l0.441-1.353a5.447 5.447 0 0 0 2.848 0.774c1.8 0 3.116-0.939 3.116-3.39v-1.078h-0.041a3.429 3.429 0 0 1-3.074 1.63c-2.412 0-4.125-2.052-4.125-4.732 0-3.281 2.134-5.13 4.368-5.13a3.216 3.216 0 0 1 3.019 1.669h0.04l0.072-1.448zm-1.83 3.805a2.669 2.669 0 0 0-0.1-0.787 2.541 2.541 0 0 0-2.47-1.872c-1.679 0-2.882 1.419-2.882 3.667 0 1.894 0.977 3.485 2.864 3.485a2.576 2.576 0 0 0 2.447-1.814 3.111 3.111 0 0 0 0.139-0.936z"/>
   <path transform="translate(-14.173,-14.173)" d="m1128.3 156.44a4.8 4.8 0 0 0 2.332 0.69c1.285 0 1.88-0.632 1.88-1.441 0-0.846-0.512-1.289-1.8-1.771-1.747-0.633-2.575-1.585-2.57-2.744 0-1.558 1.265-2.837 3.346-2.837a4.675 4.675 0 0 1 2.37 0.6l-0.437 1.279a3.8 3.8 0 0 0-1.985-0.57c-1.038 0-1.6 0.6-1.6 1.328 0 0.8 0.57 1.158 1.837 1.65 1.668 0.621 2.534 1.462 2.539 2.907 0 1.715-1.333 2.915-3.619 2.915a5.51 5.51 0 0 1-2.719-0.675z"/>
  </g>
  <path transform="translate(-14.173,-14.173)" d="m1135.8 157.2a1.187 1.187 0 0 1 1.194-1.27 1.264 1.264 0 1 1-1.194 1.27z"/>
  <path transform="translate(-14.173,-14.173)" d="m1140.4 144.92a19.135 19.135 0 0 1 3.351-0.269 5.537 5.537 0 0 1 3.78 1.121 3.67 3.67 0 0 1 1.185 2.822 3.966 3.966 0 0 1-1.048 2.886 5.576 5.576 0 0 1-4.12 1.476 5.7 5.7 0 0 1-1.408-0.125v5.408h-1.74zm1.74 6.493a5.354 5.354 0 0 0 1.443 0.152c2.113 0 3.388-1.037 3.388-2.879 0-1.785-1.274-2.657-3.185-2.657a8.4 8.4 0 0 0-1.646 0.137z"/>
  <path transform="translate(-14.173,-14.173)" d="m1150.7 151.58c0-1.143-0.028-2.117-0.08-3.013h1.542l0.068 1.9h0.062a2.936 2.936 0 0 1 2.694-2.118 1.984 1.984 0 0 1 0.49 0.05v1.655a2.793 2.793 0 0 0-0.6-0.051 2.458 2.458 0 0 0-2.355 2.251 4.7 4.7 0 0 0-0.072 0.821v5.169h-1.75z"/>
  <path transform="translate(-14.173,-14.173)" d="m1165.8 153.31c0 3.583-2.486 5.15-4.812 5.15-2.624 0-4.65-1.913-4.65-4.984 0-3.237 2.128-5.131 4.8-5.131 2.781 0 4.662 2.018 4.662 4.965zm-7.672 0.112c0 2.123 1.216 3.72 2.933 3.72 1.687 0 2.948-1.576 2.948-3.772 0-1.637-0.825-3.706-2.916-3.706-2.071 0-2.969 1.924-2.969 3.758z"/>
  <path transform="translate(-14.173,-14.173)" d="m1174.9 157.89a6.666 6.666 0 0 1-2.776 0.561 4.61 4.61 0 0 1-4.827-4.943 4.927 4.927 0 0 1 5.2-5.158 5.675 5.675 0 0 1 2.446 0.515l-0.391 1.351a4.29 4.29 0 0 0-2.058-0.465 3.357 3.357 0 0 0-3.413 3.664 3.322 3.322 0 0 0 3.37 3.62 5.115 5.115 0 0 0 2.154-0.465z"/>
  <path transform="translate(-14.173,-14.173)" d="m1177.9 153.72a3.088 3.088 0 0 0 3.311 3.359 6.526 6.526 0 0 0 2.68-0.5l0.307 1.249a7.8 7.8 0 0 1-3.227 0.617 4.51 4.51 0 0 1-4.76-4.883c0-2.932 1.726-5.222 4.552-5.222 3.156 0 3.981 2.77 3.981 4.551a4.21 4.21 0 0 1-0.06 0.824zm5.15-1.265c0.017-1.109-0.454-2.848-2.427-2.848a2.889 2.889 0 0 0-2.7 2.848z"/>
  <path transform="translate(-14.173,-14.173)" d="m1186.6 156.44a4.8 4.8 0 0 0 2.332 0.69c1.286 0 1.88-0.632 1.88-1.441 0-0.846-0.511-1.289-1.8-1.771-1.748-0.633-2.576-1.585-2.571-2.744 0-1.558 1.266-2.837 3.347-2.837a4.674 4.674 0 0 1 2.369 0.6l-0.437 1.279a3.8 3.8 0 0 0-1.985-0.57c-1.038 0-1.6 0.6-1.6 1.328 0 0.8 0.569 1.158 1.837 1.65 1.667 0.621 2.534 1.462 2.539 2.907 0 1.715-1.333 2.915-3.62 2.915a5.506 5.506 0 0 1-2.718-0.675z"/>
  <path transform="translate(-14.173,-14.173)" d="m1194.6 156.44a4.8 4.8 0 0 0 2.332 0.69c1.286 0 1.88-0.632 1.88-1.441 0-0.846-0.511-1.289-1.8-1.771-1.747-0.633-2.575-1.585-2.57-2.744 0-1.558 1.266-2.837 3.347-2.837a4.674 4.674 0 0 1 2.369 0.6l-0.437 1.279a3.8 3.8 0 0 0-1.985-0.57c-1.038 0-1.6 0.6-1.6 1.328 0 0.8 0.569 1.158 1.836 1.65 1.668 0.621 2.535 1.462 2.539 2.907 0 1.715-1.333 2.915-3.619 2.915a5.506 5.506 0 0 1-2.718-0.675z"/>
  <path transform="translate(-14.173,-14.173)" d="m1205.8 158.24-4.416-13.483h1.892l2.1 6.647c0.579 1.818 1.078 3.461 1.442 5.031h0.047c0.377-1.558 0.931-3.255 1.535-5.009l2.281-6.669h1.861l-4.816 13.483z"/>
  <path transform="translate(-14.173,-14.173)" d="m1218.6 158.24-0.156-1.222h-0.051a3.6 3.6 0 0 1-2.96 1.442 2.76 2.76 0 0 1-2.956-2.776c0-2.344 2.077-3.631 5.815-3.6v-0.2a1.993 1.993 0 0 0-2.2-2.232 4.705 4.705 0 0 0-2.521 0.721l-0.4-1.17a6.086 6.086 0 0 1 3.193-0.849c2.957 0 3.679 2.022 3.679 3.96v3.62a15.2 15.2 0 0 0 0.145 2.315zm-0.274-4.94c-1.9-0.041-4.084 0.3-4.084 2.172a1.549 1.549 0 0 0 1.643 1.685 2.42 2.42 0 0 0 2.357-1.62 1.805 1.805 0 0 0 0.084-0.555z"/>
  <path transform="translate(-14.173,-14.173)" d="m1222.9 144.03h1.75v14.2h-1.75z"/>
  <path transform="translate(-14.173,-14.173)" d="m1226.5 160.71a29.632 29.632 0 0 0 1.2-4.791l1.949-0.2a24.775 24.775 0 0 1-1.914 4.861zm0.869-10.559a1.181 1.181 0 0 1 1.188-1.262 1.257 1.257 0 1 1-1.188 1.262z"/>
  <path transform="translate(-14.173,-14.173)" d="m1018.4 181.24v-8.337h-1.351v-1.333h1.351v-0.424a4.354 4.354 0 0 1 1.367-3.348 4.588 4.588 0 0 1 3.1-0.977 6.334 6.334 0 0 1 2.9 0.638v13.785h-1.751v-12.8a3.135 3.135 0 0 0-1.443-0.265c-1.827 0-2.44 1.348-2.44 2.89v0.5h2.266v1.334h-2.256v8.341z"/>
  <path transform="translate(-14.173,-14.173)" d="m1037.4 176.31c0 3.583-2.487 5.15-4.812 5.15-2.624 0-4.65-1.913-4.65-4.984 0-3.237 2.128-5.131 4.8-5.131 2.785 0 4.662 2.018 4.662 4.965zm-7.672 0.112c0 2.123 1.215 3.72 2.932 3.72 1.688 0 2.949-1.576 2.949-3.772 0-1.637-0.826-3.706-2.917-3.706-2.066 0-2.964 1.924-2.964 3.758z"/>
  <path transform="translate(-14.173,-14.173)" d="m1045 181.24-0.155-1.222h-0.052a3.6 3.6 0 0 1-2.96 1.442 2.76 2.76 0 0 1-2.955-2.776c0-2.344 2.077-3.631 5.815-3.6v-0.2a1.993 1.993 0 0 0-2.2-2.232 4.705 4.705 0 0 0-2.521 0.721l-0.4-1.17a6.083 6.083 0 0 1 3.193-0.849c2.957 0 3.679 2.022 3.679 3.96v3.62a15.2 15.2 0 0 0 0.145 2.315zm-0.273-4.94c-1.9-0.041-4.084 0.3-4.084 2.172a1.549 1.549 0 0 0 1.643 1.685 2.42 2.42 0 0 0 2.357-1.62 1.805 1.805 0 0 0 0.084-0.555z"/>
  <path transform="translate(-14.173,-14.173)" d="m1051.3 168.78v2.786h2.527v1.337h-2.527v5.213c0 1.2 0.347 1.886 1.33 1.886a3.521 3.521 0 0 0 1.02-0.127l0.081 1.337a4.511 4.511 0 0 1-1.573 0.242 2.463 2.463 0 0 1-1.9-0.745 3.707 3.707 0 0 1-0.683-2.524v-5.282h-1.5v-1.333h1.5v-2.331z"/>
  <g fill="#00c">
   <path transform="translate(-14.173,-14.173)" d="m1059.8 179.44a4.8 4.8 0 0 0 2.332 0.69c1.285 0 1.88-0.632 1.88-1.441 0-0.846-0.512-1.289-1.8-1.771-1.747-0.633-2.575-1.585-2.57-2.744 0-1.558 1.265-2.837 3.347-2.837a4.674 4.674 0 0 1 2.369 0.6l-0.437 1.279a3.8 3.8 0 0 0-1.985-0.57c-1.038 0-1.6 0.6-1.6 1.328 0 0.8 0.57 1.158 1.837 1.65 1.668 0.621 2.534 1.462 2.539 2.907 0 1.715-1.333 2.915-3.619 2.915a5.513 5.513 0 0 1-2.719-0.675z"/>
   <path transform="translate(-14.173,-14.173)" d="m1070.1 168.78v2.786h2.528v1.337h-2.528v5.213c0 1.2 0.347 1.886 1.33 1.886a3.516 3.516 0 0 0 1.02-0.127l0.081 1.337a4.509 4.509 0 0 1-1.572 0.242 2.463 2.463 0 0 1-1.9-0.745 3.707 3.707 0 0 1-0.682-2.524v-5.282h-1.5v-1.333h1.5v-2.331z"/>
   <path transform="translate(-14.173,-14.173)" d="m1074.6 174.71c0-1.234-0.033-2.238-0.08-3.151h1.572l0.1 1.648h0.04a3.779 3.779 0 0 1 3.435-1.869c2.342 0 4.106 1.973 4.106 4.909 0 3.488-2.133 5.206-4.4 5.206a3.379 3.379 0 0 1-2.982-1.524h-0.04v5.267h-1.749zm1.749 2.585a3.322 3.322 0 0 0 0.076 0.716 2.7 2.7 0 0 0 2.631 2.064c1.866 0 2.942-1.531 2.942-3.748 0-1.931-1.012-3.591-2.874-3.591a2.794 2.794 0 0 0-2.661 2.171 3.028 3.028 0 0 0-0.114 0.715z"/>
   <path transform="translate(-14.173,-14.173)" d="m1088.1 168.78v2.786h2.528v1.337h-2.528v5.213c0 1.2 0.347 1.886 1.33 1.886a3.516 3.516 0 0 0 1.02-0.127l0.081 1.337a4.509 4.509 0 0 1-1.572 0.242 2.463 2.463 0 0 1-1.9-0.745 3.707 3.707 0 0 1-0.682-2.524v-5.282h-1.5v-1.333h1.5v-2.331z"/>
  </g>
  <path transform="translate(-14.173,-14.173)" d="m1096.2 174.49v-1.2h10.323v1.2zm0 3.93v-1.2h10.323v1.2z"/>
  <g fill="#060">
   <path transform="translate(-14.173,-14.173)" d="m1118.4 181.24-0.155-1.222h-0.052a3.6 3.6 0 0 1-2.96 1.442 2.76 2.76 0 0 1-2.955-2.776c0-2.344 2.076-3.631 5.814-3.6v-0.2a1.992 1.992 0 0 0-2.2-2.232 4.7 4.7 0 0 0-2.52 0.721l-0.4-1.17a6.087 6.087 0 0 1 3.194-0.849c2.957 0 3.678 2.022 3.678 3.96v3.62a15.067 15.067 0 0 0 0.146 2.315zm-0.274-4.94c-1.9-0.041-4.084 0.3-4.084 2.172a1.549 1.549 0 0 0 1.643 1.685 2.42 2.42 0 0 0 2.357-1.62 1.805 1.805 0 0 0 0.084-0.555z"/>
   <path transform="translate(-14.173,-14.173)" d="m1122.7 174.58c0-1.143-0.028-2.117-0.08-3.013h1.542l0.068 1.9h0.062a2.936 2.936 0 0 1 2.694-2.118 1.984 1.984 0 0 1 0.49 0.05v1.655a2.793 2.793 0 0 0-0.6-0.051 2.458 2.458 0 0 0-2.355 2.251 4.7 4.7 0 0 0-0.072 0.821v5.169h-1.75z"/>
   <path transform="translate(-14.173,-14.173)" d="m1137.4 171.56c-0.048 0.683-0.081 1.469-0.081 2.647v5.618c0 2.239-0.457 3.581-1.382 4.429a5.2 5.2 0 0 1-3.525 1.16 6.241 6.241 0 0 1-3.229-0.8l0.44-1.353a5.454 5.454 0 0 0 2.849 0.774c1.8 0 3.115-0.939 3.115-3.39v-1.078h-0.04a3.429 3.429 0 0 1-3.074 1.63c-2.412 0-4.125-2.052-4.125-4.732 0-3.281 2.134-5.13 4.368-5.13a3.216 3.216 0 0 1 3.019 1.669h0.04l0.072-1.448zm-1.83 3.805a2.7 2.7 0 0 0-0.1-0.787 2.541 2.541 0 0 0-2.471-1.872c-1.678 0-2.882 1.419-2.882 3.667 0 1.894 0.978 3.485 2.865 3.485a2.576 2.576 0 0 0 2.447-1.814 3.111 3.111 0 0 0 0.139-0.936z"/>
   <path transform="translate(-14.173,-14.173)" d="m1140 179.44a4.8 4.8 0 0 0 2.332 0.69c1.285 0 1.88-0.632 1.88-1.441 0-0.846-0.512-1.289-1.8-1.771-1.747-0.633-2.575-1.585-2.57-2.744 0-1.558 1.265-2.837 3.346-2.837a4.671 4.671 0 0 1 2.369 0.6l-0.436 1.279a3.8 3.8 0 0 0-1.986-0.57c-1.038 0-1.6 0.6-1.6 1.328 0 0.8 0.569 1.158 1.837 1.65 1.668 0.621 2.534 1.462 2.539 2.907 0 1.715-1.333 2.915-3.619 2.915a5.51 5.51 0 0 1-2.719-0.675z"/>
  </g>
  <path transform="translate(-14.173,-14.173)" d="m1147.5 180.2a1.187 1.187 0 0 1 1.193-1.27 1.264 1.264 0 1 1-1.193 1.27z"/>
  <path transform="translate(-14.173,-14.173)" d="m1151.9 179.12a6.068 6.068 0 0 0 3.111 0.873c1.781 0 2.828-0.93 2.828-2.295 0-1.251-0.731-1.987-2.55-2.668-2.2-0.781-3.565-1.938-3.565-3.825 0-2.1 1.744-3.656 4.37-3.656a6.17 6.17 0 0 1 2.975 0.652l-0.487 1.427a5.115 5.115 0 0 0-2.545-0.64c-1.852 0-2.551 1.1-2.551 2.016 0 1.252 0.819 1.87 2.68 2.588 2.288 0.9 3.44 2 3.44 3.972 0 2.068-1.525 3.888-4.719 3.888a6.9 6.9 0 0 1-3.444-0.88z"/>
  <path transform="translate(-14.173,-14.173)" d="m1163 176.72a3.089 3.089 0 0 0 3.311 3.359 6.526 6.526 0 0 0 2.68-0.5l0.307 1.249a7.8 7.8 0 0 1-3.227 0.617 4.51 4.51 0 0 1-4.76-4.883c0-2.932 1.727-5.222 4.552-5.222 3.156 0 3.981 2.77 3.981 4.551a4.307 4.307 0 0 1-0.059 0.824zm5.15-1.265c0.017-1.109-0.454-2.848-2.427-2.848a2.89 2.89 0 0 0-2.7 2.848z"/>
  <path transform="translate(-14.173,-14.173)" d="m1174.2 168.78v2.786h2.527v1.337h-2.527v5.213c0 1.2 0.347 1.886 1.33 1.886a3.521 3.521 0 0 0 1.02-0.127l0.081 1.337a4.511 4.511 0 0 1-1.573 0.242 2.463 2.463 0 0 1-1.9-0.745 3.707 3.707 0 0 1-0.683-2.524v-5.282h-1.5v-1.333h1.5v-2.331z"/>
  <path transform="translate(-14.173,-14.173)" d="m1178.7 167.92a19.148 19.148 0 0 1 3.352-0.269 5.532 5.532 0 0 1 3.779 1.121 3.667 3.667 0 0 1 1.186 2.822 3.966 3.966 0 0 1-1.048 2.886 5.577 5.577 0 0 1-4.12 1.476 5.7 5.7 0 0 1-1.408-0.125v5.408h-1.741zm1.741 6.493a5.349 5.349 0 0 0 1.443 0.152c2.112 0 3.388-1.037 3.388-2.879 0-1.785-1.275-2.657-3.185-2.657a8.393 8.393 0 0 0-1.646 0.137z"/>
  <path transform="translate(-14.173,-14.173)" d="m1197.6 176.31c0 3.583-2.486 5.15-4.811 5.15-2.624 0-4.651-1.913-4.651-4.984 0-3.237 2.128-5.131 4.8-5.131 2.787 0 4.662 2.018 4.662 4.965zm-7.672 0.112c0 2.123 1.216 3.72 2.933 3.72 1.687 0 2.948-1.576 2.948-3.772 0-1.637-0.825-3.706-2.916-3.706-2.068 0-2.968 1.924-2.968 3.758z"/>
  <path transform="translate(-14.173,-14.173)" d="m1201.8 168.83a1.06 1.06 0 0 1-1.119 1.093 1.05 1.05 0 0 1-1.063-1.093 1.069 1.069 0 0 1 1.094-1.1 1.055 1.055 0 0 1 1.088 1.1zm-1.966 12.409v-9.674h1.75v9.674z"/>
  <path transform="translate(-14.173,-14.173)" d="m1204.5 174.18c0-1.009-0.034-1.811-0.081-2.612h1.555l0.1 1.59h0.049a3.571 3.571 0 0 1 3.2-1.811c1.329 0 3.409 0.8 3.409 4.123v5.772h-1.751v-5.578c0-1.564-0.589-2.874-2.236-2.874a2.531 2.531 0 0 0-2.37 1.806 2.7 2.7 0 0 0-0.121 0.816v5.83h-1.75z"/>
  <path transform="translate(-14.173,-14.173)" d="m1217.6 168.78v2.786h2.528v1.337h-2.528v5.213c0 1.2 0.347 1.886 1.33 1.886a3.511 3.511 0 0 0 1.02-0.127l0.081 1.337a4.509 4.509 0 0 1-1.572 0.242 2.463 2.463 0 0 1-1.9-0.745 3.707 3.707 0 0 1-0.682-2.524v-5.282h-1.5v-1.333h1.5v-2.331z"/>
  <path transform="translate(-14.173,-14.173)" d="m1221 183.71a29.526 29.526 0 0 0 1.2-4.791l1.949-0.2a24.9 24.9 0 0 1-1.914 4.861zm0.869-10.559a1.182 1.182 0 0 1 1.189-1.262 1.257 1.257 0 1 1-1.189 1.262z"/>
  <path transform="translate(-14.173,-14.173)" d="m1018.4 204.24v-8.337h-1.351v-1.333h1.351v-0.424a4.354 4.354 0 0 1 1.367-3.348 4.588 4.588 0 0 1 3.1-0.977 6.334 6.334 0 0 1 2.9 0.638v13.785h-1.751v-12.8a3.135 3.135 0 0 0-1.443-0.265c-1.827 0-2.44 1.348-2.44 2.89v0.5h2.266v1.334h-2.256v8.341z"/>
  <path transform="translate(-14.173,-14.173)" d="m1037.4 199.31c0 3.583-2.487 5.15-4.812 5.15-2.624 0-4.65-1.913-4.65-4.984 0-3.237 2.128-5.131 4.8-5.131 2.785 0 4.662 2.018 4.662 4.965zm-7.672 0.112c0 2.123 1.215 3.72 2.932 3.72 1.688 0 2.949-1.576 2.949-3.772 0-1.637-0.826-3.706-2.917-3.706-2.066 0-2.964 1.924-2.964 3.758z"/>
  <path transform="translate(-14.173,-14.173)" d="m1045 204.24-0.155-1.222h-0.052a3.6 3.6 0 0 1-2.96 1.442 2.76 2.76 0 0 1-2.955-2.776c0-2.344 2.077-3.631 5.815-3.6v-0.2a1.993 1.993 0 0 0-2.2-2.232 4.705 4.705 0 0 0-2.521 0.721l-0.4-1.17a6.083 6.083 0 0 1 3.193-0.849c2.957 0 3.679 2.022 3.679 3.96v3.62a15.2 15.2 0 0 0 0.145 2.315zm-0.273-4.94c-1.9-0.041-4.084 0.3-4.084 2.172a1.549 1.549 0 0 0 1.643 1.685 2.42 2.42 0 0 0 2.357-1.62 1.805 1.805 0 0 0 0.084-0.555z"/>
  <path transform="translate(-14.173,-14.173)" d="m1051.3 191.78v2.786h2.527v1.337h-2.527v5.213c0 1.2 0.347 1.886 1.33 1.886a3.521 3.521 0 0 0 1.02-0.127l0.081 1.337a4.511 4.511 0 0 1-1.573 0.242 2.463 2.463 0 0 1-1.9-0.745 3.707 3.707 0 0 1-0.683-2.524v-5.282h-1.5v-1.333h1.5v-2.331z"/>
  <g fill="#00c">
   <path transform="translate(-14.173,-14.173)" d="m1061.1 199.72a3.089 3.089 0 0 0 3.311 3.359 6.526 6.526 0 0 0 2.68-0.5l0.307 1.249a7.8 7.8 0 0 1-3.227 0.617 4.51 4.51 0 0 1-4.76-4.883c0-2.932 1.727-5.222 4.552-5.222 3.156 0 3.981 2.77 3.981 4.551a4.307 4.307 0 0 1-0.059 0.824zm5.15-1.265c0.017-1.109-0.454-2.848-2.427-2.848a2.89 2.89 0 0 0-2.7 2.848z"/>
   <path transform="translate(-14.173,-14.173)" d="m1070.1 197.58c0-1.143-0.029-2.117-0.08-3.013h1.542l0.067 1.9h0.063a2.935 2.935 0 0 1 2.694-2.118 1.981 1.981 0 0 1 0.489 0.05v1.655a2.787 2.787 0 0 0-0.6-0.051 2.458 2.458 0 0 0-2.355 2.251 4.7 4.7 0 0 0-0.071 0.821v5.169h-1.75z"/>
   <path transform="translate(-14.173,-14.173)" d="m1076.7 197.58c0-1.143-0.028-2.117-0.08-3.013h1.542l0.067 1.9h0.063a2.935 2.935 0 0 1 2.694-2.118 1.981 1.981 0 0 1 0.489 0.05v1.655a2.777 2.777 0 0 0-0.6-0.051 2.458 2.458 0 0 0-2.356 2.251 4.7 4.7 0 0 0-0.071 0.821v5.169h-1.75z"/>
   <path transform="translate(-14.173,-14.173)" d="m1083 202.44a4.8 4.8 0 0 0 2.332 0.69c1.285 0 1.88-0.632 1.88-1.441 0-0.846-0.512-1.289-1.8-1.771-1.747-0.633-2.575-1.585-2.57-2.744 0-1.558 1.265-2.837 3.346-2.837a4.671 4.671 0 0 1 2.369 0.6l-0.436 1.279a3.8 3.8 0 0 0-1.986-0.57c-1.038 0-1.6 0.6-1.6 1.328 0 0.8 0.569 1.158 1.837 1.65 1.668 0.621 2.534 1.462 2.539 2.907 0 1.715-1.333 2.915-3.619 2.915a5.51 5.51 0 0 1-2.719-0.675z"/>
  </g>
  <path transform="translate(-14.173,-14.173)" d="m1094.8 197.49v-1.2h10.322v1.2zm0 3.93v-1.2h10.322v1.2z"/>
  <g fill="#060">
   <path transform="translate(-14.173,-14.173)" d="m1116.9 204.24-0.155-1.222h-0.052a3.6 3.6 0 0 1-2.96 1.442 2.76 2.76 0 0 1-2.955-2.776c0-2.344 2.076-3.631 5.815-3.6v-0.2a1.993 1.993 0 0 0-2.2-2.232 4.705 4.705 0 0 0-2.521 0.721l-0.4-1.17a6.081 6.081 0 0 1 3.193-0.849c2.957 0 3.679 2.022 3.679 3.96v3.62a15.2 15.2 0 0 0 0.145 2.315zm-0.273-4.94c-1.9-0.041-4.084 0.3-4.084 2.172a1.549 1.549 0 0 0 1.643 1.685 2.42 2.42 0 0 0 2.357-1.62 1.836 1.836 0 0 0 0.084-0.555z"/>
   <path transform="translate(-14.173,-14.173)" d="m1121.2 197.58c0-1.143-0.028-2.117-0.08-3.013h1.542l0.067 1.9h0.063a2.935 2.935 0 0 1 2.694-2.118 1.981 1.981 0 0 1 0.489 0.05v1.655a2.777 2.777 0 0 0-0.6-0.051 2.458 2.458 0 0 0-2.356 2.251 4.7 4.7 0 0 0-0.071 0.821v5.169h-1.75z"/>
   <path transform="translate(-14.173,-14.173)" d="m1135.9 194.56c-0.048 0.683-0.081 1.469-0.081 2.647v5.618c0 2.239-0.457 3.581-1.382 4.429a5.2 5.2 0 0 1-3.524 1.16 6.248 6.248 0 0 1-3.23-0.8l0.441-1.353a5.451 5.451 0 0 0 2.849 0.774c1.8 0 3.115-0.939 3.115-3.39v-1.078h-0.04a3.431 3.431 0 0 1-3.074 1.63c-2.413 0-4.125-2.052-4.125-4.732 0-3.281 2.133-5.13 4.368-5.13a3.214 3.214 0 0 1 3.018 1.669h0.04l0.073-1.448zm-1.83 3.805a2.7 2.7 0 0 0-0.1-0.787 2.542 2.542 0 0 0-2.471-1.872c-1.679 0-2.882 1.419-2.882 3.667 0 1.894 0.978 3.485 2.864 3.485a2.577 2.577 0 0 0 2.448-1.814 3.142 3.142 0 0 0 0.138-0.936z"/>
   <path transform="translate(-14.173,-14.173)" d="m1138.5 202.44a4.8 4.8 0 0 0 2.332 0.69c1.286 0 1.88-0.632 1.88-1.441 0-0.846-0.511-1.289-1.8-1.771-1.747-0.633-2.575-1.585-2.57-2.744 0-1.558 1.266-2.837 3.347-2.837a4.674 4.674 0 0 1 2.369 0.6l-0.437 1.279a3.8 3.8 0 0 0-1.985-0.57c-1.038 0-1.6 0.6-1.6 1.328 0 0.8 0.57 1.158 1.837 1.65 1.668 0.621 2.535 1.462 2.539 2.907 0 1.715-1.333 2.915-3.619 2.915a5.506 5.506 0 0 1-2.718-0.675z"/>
  </g>
  <path transform="translate(-14.173,-14.173)" d="m1146.1 203.2a1.187 1.187 0 0 1 1.193-1.27 1.264 1.264 0 1 1-1.193 1.27z"/>
  <path transform="translate(-14.173,-14.173)" d="m1152.9 200-1.392 4.238h-1.806l4.586-13.483h2.094l4.6 13.483h-1.862l-1.439-4.238zm4.428-1.361-1.335-3.88c-0.292-0.883-0.494-1.686-0.694-2.46h-0.047c-0.193 0.788-0.4 1.612-0.669 2.436l-1.328 3.9z"/>
  <path transform="translate(-14.173,-14.173)" d="m1169.5 203.89a6.666 6.666 0 0 1-2.776 0.561 4.61 4.61 0 0 1-4.827-4.943 4.927 4.927 0 0 1 5.2-5.158 5.675 5.675 0 0 1 2.446 0.515l-0.391 1.351a4.29 4.29 0 0 0-2.058-0.465 3.357 3.357 0 0 0-3.413 3.664 3.322 3.322 0 0 0 3.37 3.62 5.111 5.111 0 0 0 2.154-0.465z"/>
  <path transform="translate(-14.173,-14.173)" d="m1178.4 203.89a6.657 6.657 0 0 1-2.775 0.561 4.61 4.61 0 0 1-4.827-4.943 4.927 4.927 0 0 1 5.2-5.158 5.666 5.666 0 0 1 2.445 0.515l-0.39 1.351a4.29 4.29 0 0 0-2.058-0.465 3.357 3.357 0 0 0-3.413 3.664 3.322 3.322 0 0 0 3.37 3.62 5.111 5.111 0 0 0 2.154-0.465z"/>
  <path transform="translate(-14.173,-14.173)" d="m1188.5 201.59c0 1.015 0.034 1.883 0.08 2.648h-1.554l-0.094-1.582h-0.049a3.614 3.614 0 0 1-3.2 1.8c-1.514 0-3.332-0.849-3.332-4.24v-5.654h1.751v5.345c0 1.842 0.574 3.1 2.162 3.1a2.561 2.561 0 0 0 2.328-1.614 2.715 2.715 0 0 0 0.16-0.9v-5.925h1.75z"/>
  <path transform="translate(-14.173,-14.173)" d="m1191.5 197.18c0-1.009-0.033-1.811-0.08-2.612h1.528l0.093 1.557h0.049a3.341 3.341 0 0 1 3.055-1.778 2.846 2.846 0 0 1 2.726 1.94h0.04a3.919 3.919 0 0 1 1.092-1.26 3.3 3.3 0 0 1 2.128-0.68c1.292 0 3.194 0.833 3.194 4.2v5.7h-1.718v-5.471c0-1.875-0.69-2.984-2.1-2.984a2.3 2.3 0 0 0-2.093 1.583 2.906 2.906 0 0 0-0.144 0.883v5.989h-1.717v-5.806c0-1.541-0.682-2.649-2.011-2.649a2.434 2.434 0 0 0-2.193 1.756 2.817 2.817 0 0 0-0.133 0.867v5.832h-1.717z"/>
  <path transform="translate(-14.173,-14.173)" d="m1215.2 197.92h-5.228v4.87h5.847v1.451h-7.6v-13.483h7.29v1.451h-5.54v4.27h5.228z"/>
  <path transform="translate(-14.173,-14.173)" d="m1218 197.58c0-1.143-0.029-2.117-0.08-3.013h1.542l0.067 1.9h0.062a2.938 2.938 0 0 1 2.695-2.118 1.981 1.981 0 0 1 0.489 0.05v1.655a2.787 2.787 0 0 0-0.6-0.051 2.458 2.458 0 0 0-2.355 2.251 4.7 4.7 0 0 0-0.071 0.821v5.169h-1.75z"/>
  <path transform="translate(-14.173,-14.173)" d="m1224.6 197.58c0-1.143-0.029-2.117-0.08-3.013h1.542l0.067 1.9h0.063a2.935 2.935 0 0 1 2.694-2.118 1.981 1.981 0 0 1 0.489 0.05v1.655a2.783 2.783 0 0 0-0.6-0.051 2.458 2.458 0 0 0-2.356 2.251 4.7 4.7 0 0 0-0.071 0.821v5.169h-1.75z"/>
  <path transform="translate(-14.173,-14.173)" d="m1230.2 206.71a29.632 29.632 0 0 0 1.2-4.791l1.949-0.2a24.9 24.9 0 0 1-1.914 4.861zm0.869-10.559a1.181 1.181 0 0 1 1.188-1.262 1.257 1.257 0 1 1-1.188 1.262z"/>
  <path transform="translate(-14.173,-14.173)" d="m1018.1 227.24c0.047-0.665 0.08-1.635 0.08-2.5v-11.703h1.749v6.081h0.04a3.579 3.579 0 0 1 3.3-1.773c2.4 0 4.092 2 4.084 4.927 0 3.47-2.2 5.188-4.357 5.188a3.492 3.492 0 0 1-3.242-1.811h-0.047l-0.089 1.591zm1.829-3.878a2.779 2.779 0 0 0 0.073 0.638 2.711 2.711 0 0 0 2.639 2.059c1.85 0 2.937-1.5 2.937-3.719 0-1.945-1.005-3.61-2.886-3.61a2.8 2.8 0 0 0-2.663 2.163 2.961 2.961 0 0 0-0.1 0.731z"/>
  <path transform="translate(-14.173,-14.173)" d="m1038.4 222.31c0 3.583-2.486 5.15-4.812 5.15-2.624 0-4.65-1.913-4.65-4.984 0-3.237 2.128-5.131 4.8-5.131 2.786 0 4.662 2.018 4.662 4.965zm-7.672 0.112c0 2.123 1.216 3.72 2.933 3.72 1.687 0 2.948-1.576 2.948-3.772 0-1.637-0.825-3.706-2.916-3.706-2.069 0-2.969 1.924-2.969 3.758z"/>
  <path transform="translate(-14.173,-14.173)" d="m1049.4 222.31c0 3.583-2.486 5.15-4.812 5.15-2.624 0-4.65-1.913-4.65-4.984 0-3.237 2.128-5.131 4.8-5.131 2.786 0 4.662 2.018 4.662 4.965zm-7.672 0.112c0 2.123 1.216 3.72 2.933 3.72 1.687 0 2.948-1.576 2.948-3.772 0-1.637-0.825-3.706-2.916-3.706-2.069 0-2.969 1.924-2.969 3.758z"/>
  <path transform="translate(-14.173,-14.173)" d="m1051.6 213.03h1.75v14.2h-1.75z"/>
  <g fill="#9c0">
   <path transform="translate(-14.173,-14.173)" d="m1065.9 227.24-0.155-1.222h-0.052a3.6 3.6 0 0 1-2.96 1.442 2.76 2.76 0 0 1-2.955-2.776c0-2.344 2.076-3.631 5.814-3.6v-0.2a1.992 1.992 0 0 0-2.2-2.232 4.7 4.7 0 0 0-2.52 0.721l-0.4-1.17a6.087 6.087 0 0 1 3.194-0.849c2.957 0 3.678 2.022 3.678 3.96v3.62a15.067 15.067 0 0 0 0.146 2.315zm-0.274-4.94c-1.9-0.041-4.084 0.3-4.084 2.172a1.549 1.549 0 0 0 1.643 1.685 2.42 2.42 0 0 0 2.357-1.62 1.805 1.805 0 0 0 0.084-0.555z"/>
   <path transform="translate(-14.173,-14.173)" d="m1078.3 224.59c0 1.015 0.033 1.883 0.08 2.648h-1.554l-0.094-1.582h-0.049a3.614 3.614 0 0 1-3.2 1.8c-1.514 0-3.332-0.849-3.332-4.24v-5.654h1.751v5.345c0 1.842 0.574 3.1 2.162 3.1a2.561 2.561 0 0 0 2.328-1.614 2.715 2.715 0 0 0 0.16-0.9v-5.925h1.75z"/>
   <path transform="translate(-14.173,-14.173)" d="m1083.3 214.78v2.786h2.527v1.337h-2.527v5.213c0 1.2 0.347 1.886 1.33 1.886a3.521 3.521 0 0 0 1.02-0.127l0.081 1.337a4.509 4.509 0 0 1-1.572 0.242 2.463 2.463 0 0 1-1.9-0.745 3.707 3.707 0 0 1-0.683-2.524v-5.282h-1.5v-1.333h1.5v-2.331z"/>
   <path transform="translate(-14.173,-14.173)" d="m1096.5 222.31c0 3.583-2.487 5.15-4.812 5.15-2.624 0-4.65-1.913-4.65-4.984 0-3.237 2.128-5.131 4.8-5.131 2.787 0 4.662 2.018 4.662 4.965zm-7.672 0.112c0 2.123 1.216 3.72 2.932 3.72 1.688 0 2.949-1.576 2.949-3.772 0-1.637-0.826-3.706-2.916-3.706-2.068 0-2.968 1.924-2.968 3.758z"/>
  </g>
  <path transform="translate(-14.173,-14.173)" d="m1102.3 220.49v-1.2h10.327v1.2zm0 3.93v-1.2h10.327v1.2z"/>
  <g fill="#060">
   <path transform="translate(-14.173,-14.173)" d="m1124.5 227.24-0.155-1.222h-0.052a3.6 3.6 0 0 1-2.96 1.442 2.76 2.76 0 0 1-2.955-2.776c0-2.344 2.076-3.631 5.814-3.6v-0.2a1.992 1.992 0 0 0-2.2-2.232 4.7 4.7 0 0 0-2.52 0.721l-0.4-1.17a6.087 6.087 0 0 1 3.194-0.849c2.957 0 3.678 2.022 3.678 3.96v3.62a15.067 15.067 0 0 0 0.146 2.315zm-0.273-4.94c-1.905-0.041-4.084 0.3-4.084 2.172a1.549 1.549 0 0 0 1.642 1.685 2.422 2.422 0 0 0 2.358-1.62 1.836 1.836 0 0 0 0.084-0.555z"/>
   <path transform="translate(-14.173,-14.173)" d="m1128.7 220.58c0-1.143-0.028-2.117-0.08-3.013h1.542l0.068 1.9h0.062a2.937 2.937 0 0 1 2.695-2.118 1.981 1.981 0 0 1 0.489 0.05v1.655a2.793 2.793 0 0 0-0.6-0.051 2.458 2.458 0 0 0-2.355 2.251 4.7 4.7 0 0 0-0.072 0.821v5.169h-1.75z"/>
   <path transform="translate(-14.173,-14.173)" d="m1143.5 217.56c-0.048 0.683-0.081 1.469-0.081 2.647v5.618c0 2.239-0.457 3.581-1.382 4.429a5.2 5.2 0 0 1-3.524 1.16 6.245 6.245 0 0 1-3.23-0.8l0.44-1.353a5.454 5.454 0 0 0 2.849 0.774c1.8 0 3.115-0.939 3.115-3.39v-1.078h-0.04a3.429 3.429 0 0 1-3.074 1.63c-2.412 0-4.125-2.052-4.125-4.732 0-3.281 2.134-5.13 4.368-5.13a3.216 3.216 0 0 1 3.019 1.669h0.04l0.072-1.448zm-1.83 3.805a2.7 2.7 0 0 0-0.1-0.787 2.541 2.541 0 0 0-2.471-1.872c-1.678 0-2.881 1.419-2.881 3.667 0 1.894 0.977 3.485 2.864 3.485a2.576 2.576 0 0 0 2.447-1.814 3.111 3.111 0 0 0 0.139-0.936z"/>
   <path transform="translate(-14.173,-14.173)" d="m1146 225.44a4.8 4.8 0 0 0 2.332 0.69c1.285 0 1.88-0.632 1.88-1.441 0-0.846-0.512-1.289-1.8-1.771-1.747-0.633-2.575-1.585-2.57-2.744 0-1.558 1.265-2.837 3.346-2.837a4.671 4.671 0 0 1 2.369 0.6l-0.436 1.279a3.8 3.8 0 0 0-1.985-0.57c-1.039 0-1.6 0.6-1.6 1.328 0 0.8 0.569 1.158 1.837 1.65 1.668 0.621 2.534 1.462 2.539 2.907 0 1.715-1.333 2.915-3.619 2.915a5.51 5.51 0 0 1-2.719-0.675z"/>
  </g>
  <path transform="translate(-14.173,-14.173)" d="m1153.6 226.2a1.187 1.187 0 0 1 1.193-1.27 1.264 1.264 0 1 1-1.193 1.27z"/>
  <path transform="translate(-14.173,-14.173)" d="m1160.4 223-1.393 4.238h-1.805l4.586-13.483h2.093l4.605 13.483h-1.861l-1.445-4.238zm4.428-1.361-1.335-3.88c-0.292-0.883-0.5-1.686-0.7-2.46h-0.046c-0.194 0.788-0.4 1.612-0.669 2.436l-1.329 3.9z"/>
  <path transform="translate(-14.173,-14.173)" d="m1178.2 224.59c0 1.015 0.033 1.883 0.08 2.648h-1.555l-0.094-1.582h-0.049a3.612 3.612 0 0 1-3.2 1.8c-1.513 0-3.332-0.849-3.332-4.24v-5.654h1.751v5.345c0 1.842 0.574 3.1 2.162 3.1a2.561 2.561 0 0 0 2.328-1.614 2.714 2.714 0 0 0 0.161-0.9v-5.925h1.75z"/>
  <path transform="translate(-14.173,-14.173)" d="m1183.3 214.78v2.786h2.527v1.337h-2.527v5.213c0 1.2 0.346 1.886 1.33 1.886a3.508 3.508 0 0 0 1.019-0.127l0.081 1.337a4.5 4.5 0 0 1-1.572 0.242 2.461 2.461 0 0 1-1.9-0.745 3.7 3.7 0 0 1-0.683-2.524v-5.282h-1.5v-1.333h1.5v-2.331z"/>
  <path transform="translate(-14.173,-14.173)" d="m1196.4 222.31c0 3.583-2.486 5.15-4.811 5.15-2.624 0-4.651-1.913-4.651-4.984 0-3.237 2.128-5.131 4.8-5.131 2.785 0 4.662 2.018 4.662 4.965zm-7.672 0.112c0 2.123 1.216 3.72 2.933 3.72 1.687 0 2.948-1.576 2.948-3.772 0-1.637-0.825-3.706-2.916-3.706-2.066 0-2.965 1.924-2.965 3.758z"/>
  <path transform="translate(-14.173,-14.173)" d="m1197.5 229.71a29.632 29.632 0 0 0 1.2-4.791l1.949-0.2a24.775 24.775 0 0 1-1.914 4.861zm0.869-10.559a1.181 1.181 0 0 1 1.189-1.262 1.257 1.257 0 1 1-1.189 1.262z"/>
  <path transform="translate(-14.173,-14.173)" d="m1020.2 260.83a1.061 1.061 0 0 1-1.12 1.093 1.049 1.049 0 0 1-1.062-1.093 1.069 1.069 0 0 1 1.094-1.1 1.055 1.055 0 0 1 1.088 1.1zm-1.966 12.409v-9.674h1.75v9.674z"/>
  <path transform="translate(-14.173,-14.173)" d="m1023.1 273.24v-8.337h-1.35v-1.333h1.35v-0.467a4.633 4.633 0 0 1 1.125-3.389 3.369 3.369 0 0 1 2.352-0.893 3.816 3.816 0 0 1 1.5 0.283l-0.233 1.352a2.672 2.672 0 0 0-1.129-0.221c-1.487 0-1.876 1.317-1.876 2.811v0.524h2.337v1.333h-2.328v8.341z"/>
  <path transform="translate(-14.173,-14.173)" d="m1032.6 259.34a13.255 13.255 0 0 0-2.51 8.2 13.452 13.452 0 0 0 2.51 8.106h-1.366a12.866 12.866 0 0 1-2.619-8.118 13.119 13.119 0 0 1 2.619-8.185z"/>
  <g fill="#9c0">
   <path transform="translate(-14.173,-14.173)" d="m1044 273.24-0.155-1.222h-0.052a3.6 3.6 0 0 1-2.96 1.442 2.76 2.76 0 0 1-2.955-2.776c0-2.344 2.077-3.631 5.815-3.6v-0.2a1.993 1.993 0 0 0-2.2-2.232 4.705 4.705 0 0 0-2.521 0.721l-0.4-1.17a6.083 6.083 0 0 1 3.193-0.849c2.957 0 3.679 2.022 3.679 3.96v3.62a15.2 15.2 0 0 0 0.145 2.315zm-0.273-4.94c-1.9-0.041-4.084 0.3-4.084 2.172a1.549 1.549 0 0 0 1.643 1.685 2.42 2.42 0 0 0 2.357-1.62 1.805 1.805 0 0 0 0.084-0.555z"/>
   <path transform="translate(-14.173,-14.173)" d="m1056.4 270.59c0 1.015 0.033 1.883 0.08 2.648h-1.555l-0.094-1.582h-0.048a3.615 3.615 0 0 1-3.2 1.8c-1.513 0-3.332-0.849-3.332-4.24v-5.654h1.751v5.345c0 1.842 0.575 3.1 2.162 3.1a2.563 2.563 0 0 0 2.329-1.614 2.74 2.74 0 0 0 0.16-0.9v-5.925h1.75z"/>
   <path transform="translate(-14.173,-14.173)" d="m1061.4 260.78v2.786h2.527v1.337h-2.527v5.213c0 1.205 0.346 1.886 1.33 1.886a3.508 3.508 0 0 0 1.019-0.127l0.081 1.337a4.5 4.5 0 0 1-1.572 0.242 2.461 2.461 0 0 1-1.9-0.745 3.7 3.7 0 0 1-0.683-2.524v-5.282h-1.5v-1.333h1.5v-2.331z"/>
   <path transform="translate(-14.173,-14.173)" d="m1074.6 268.31c0 3.583-2.486 5.15-4.811 5.15-2.624 0-4.651-1.913-4.651-4.984 0-3.237 2.128-5.131 4.8-5.131 2.787 0 4.662 2.018 4.662 4.965zm-7.672 0.112c0 2.123 1.216 3.72 2.933 3.72 1.687 0 2.948-1.576 2.948-3.772 0-1.637-0.825-3.706-2.916-3.706-2.068 0-2.968 1.924-2.968 3.758z"/>
  </g>
  <path transform="translate(-14.173,-14.173)" d="m1080 275.65a13.5 13.5 0 0 0 2.509-8.166 13.343 13.343 0 0 0-2.509-8.137h1.367a12.866 12.866 0 0 1 2.617 8.149 13.069 13.069 0 0 1-2.617 8.154z"/>
  <path transform="translate(-14.173,-14.173)" d="m1090.1 266.98c1.419 0 1.619-0.774 1.619-1.487a12.384 12.384 0 0 0-0.152-1.667 10.83 10.83 0 0 1-0.165-1.666c0-1.842 1.208-2.628 2.909-2.628h0.413v1.1h-0.357c-1.178 0-1.593 0.633-1.593 1.726a9.369 9.369 0 0 0 0.149 1.423 9.986 9.986 0 0 1 0.148 1.514 1.908 1.908 0 0 1-1.442 2.157v0.04a1.941 1.941 0 0 1 1.442 2.185 10.028 10.028 0 0 1-0.148 1.519 9.6 9.6 0 0 0-0.149 1.436c0 1.124 0.475 1.745 1.6 1.745h0.354v1.1h-0.417c-1.656 0-2.9-0.728-2.9-2.742a10.3 10.3 0 0 1 0.165-1.633 11.911 11.911 0 0 0 0.152-1.618c0-0.633-0.2-1.492-1.619-1.493z"/>
  <path transform="translate(-14.173,-14.173)" d="m1035.4 296.24v-8.337h-1.352v-1.333h1.351v-0.424a4.354 4.354 0 0 1 1.367-3.348 4.588 4.588 0 0 1 3.1-0.977 6.334 6.334 0 0 1 2.9 0.638v13.785h-1.751v-12.8a3.135 3.135 0 0 0-1.443-0.265c-1.827 0-2.44 1.348-2.44 2.89v0.5h2.266v1.334h-2.25v8.341z"/>
  <path transform="translate(-14.173,-14.173)" d="m1054.4 291.31c0 3.583-2.486 5.15-4.811 5.15-2.624 0-4.65-1.913-4.65-4.984 0-3.237 2.127-5.131 4.8-5.131 2.782 0 4.661 2.018 4.661 4.965zm-7.671 0.112c0 2.123 1.215 3.72 2.932 3.72 1.688 0 2.948-1.576 2.948-3.772 0-1.637-0.825-3.706-2.916-3.706-2.069 0-2.967 1.924-2.967 3.758z"/>
  <path transform="translate(-14.173,-14.173)" d="m1062 296.24-0.155-1.222h-0.052a3.6 3.6 0 0 1-2.96 1.442 2.76 2.76 0 0 1-2.955-2.776c0-2.344 2.077-3.631 5.815-3.6v-0.2a1.993 1.993 0 0 0-2.2-2.232 4.705 4.705 0 0 0-2.521 0.721l-0.4-1.17a6.081 6.081 0 0 1 3.193-0.849c2.957 0 3.679 2.022 3.679 3.96v3.62a15.2 15.2 0 0 0 0.145 2.315zm-0.273-4.94c-1.9-0.041-4.084 0.3-4.084 2.172a1.549 1.549 0 0 0 1.643 1.685 2.42 2.42 0 0 0 2.357-1.62 1.805 1.805 0 0 0 0.084-0.555z"/>
  <path transform="translate(-14.173,-14.173)" d="m1068.3 283.78v2.786h2.527v1.337h-2.527v5.213c0 1.205 0.347 1.886 1.33 1.886a3.521 3.521 0 0 0 1.02-0.127l0.081 1.337a4.511 4.511 0 0 1-1.573 0.242 2.463 2.463 0 0 1-1.9-0.745 3.707 3.707 0 0 1-0.683-2.524v-5.282h-1.5v-1.333h1.5v-2.331z"/>
  <g fill="#00c">
   <path transform="translate(-14.173,-14.173)" d="m1078 291.72a3.089 3.089 0 0 0 3.311 3.359 6.526 6.526 0 0 0 2.68-0.5l0.307 1.249a7.8 7.8 0 0 1-3.227 0.617 4.51 4.51 0 0 1-4.76-4.883c0-2.932 1.727-5.222 4.552-5.222 3.156 0 3.981 2.77 3.981 4.551a4.307 4.307 0 0 1-0.059 0.824zm5.15-1.265c0.017-1.109-0.454-2.848-2.427-2.848a2.89 2.89 0 0 0-2.7 2.848z"/>
   <path transform="translate(-14.173,-14.173)" d="m1087.1 289.58c0-1.143-0.029-2.117-0.08-3.013h1.542l0.067 1.9h0.062a2.938 2.938 0 0 1 2.7-2.118 1.981 1.981 0 0 1 0.489 0.05v1.655a2.787 2.787 0 0 0-0.6-0.051 2.458 2.458 0 0 0-2.355 2.251 4.7 4.7 0 0 0-0.071 0.821v5.169h-1.75z"/>
   <path transform="translate(-14.173,-14.173)" d="m1093.7 289.58c0-1.143-0.029-2.117-0.08-3.013h1.542l0.067 1.9h0.063a2.935 2.935 0 0 1 2.694-2.118 1.981 1.981 0 0 1 0.489 0.05v1.655a2.783 2.783 0 0 0-0.6-0.051 2.458 2.458 0 0 0-2.356 2.251 4.7 4.7 0 0 0-0.071 0.821v5.169h-1.75z"/>
  </g>
  <path transform="translate(-14.173,-14.173)" d="m1103.8 289.49v-1.2h10.322v1.2zm0 3.93v-1.2h10.322v1.2z"/>
  <g fill="#00c">
   <path transform="translate(-14.173,-14.173)" d="m1120.4 294.44a4.8 4.8 0 0 0 2.332 0.69c1.285 0 1.88-0.632 1.88-1.441 0-0.846-0.512-1.289-1.8-1.771-1.747-0.633-2.575-1.585-2.57-2.744 0-1.558 1.265-2.837 3.347-2.837a4.674 4.674 0 0 1 2.369 0.6l-0.437 1.279a3.8 3.8 0 0 0-1.985-0.57c-1.038 0-1.6 0.6-1.6 1.328 0 0.8 0.57 1.158 1.837 1.65 1.668 0.621 2.534 1.462 2.539 2.907 0 1.715-1.333 2.915-3.619 2.915a5.513 5.513 0 0 1-2.719-0.675z"/>
   <path transform="translate(-14.173,-14.173)" d="m1130.7 283.78v2.786h2.528v1.337h-2.528v5.213c0 1.205 0.347 1.886 1.33 1.886a3.511 3.511 0 0 0 1.02-0.127l0.081 1.337a4.509 4.509 0 0 1-1.572 0.242 2.463 2.463 0 0 1-1.9-0.745 3.707 3.707 0 0 1-0.682-2.524v-5.282h-1.5v-1.333h1.5v-2.331z"/>
   <path transform="translate(-14.173,-14.173)" d="m1135.2 289.71c0-1.234-0.033-2.238-0.08-3.151h1.572l0.1 1.648h0.04a3.779 3.779 0 0 1 3.435-1.869c2.342 0 4.106 1.973 4.106 4.909 0 3.488-2.133 5.206-4.4 5.206a3.379 3.379 0 0 1-2.982-1.524h-0.04v5.267h-1.749zm1.749 2.585a3.322 3.322 0 0 0 0.076 0.716 2.7 2.7 0 0 0 2.631 2.064c1.866 0 2.942-1.531 2.942-3.748 0-1.931-1.012-3.591-2.874-3.591a2.794 2.794 0 0 0-2.661 2.171 3.028 3.028 0 0 0-0.114 0.715z"/>
   <path transform="translate(-14.173,-14.173)" d="m1148.7 283.78v2.786h2.528v1.337h-2.528v5.213c0 1.205 0.347 1.886 1.33 1.886a3.511 3.511 0 0 0 1.02-0.127l0.081 1.337a4.509 4.509 0 0 1-1.572 0.242 2.463 2.463 0 0 1-1.9-0.745 3.707 3.707 0 0 1-0.682-2.524v-5.282h-1.5v-1.333h1.5v-2.331z"/>
  </g>
  <path transform="translate(-14.173,-14.173)" d="m1161.5 290.18v1.29h-4.938v-1.29z"/>
  <path transform="translate(-14.173,-14.173)" d="m1167.8 289.71c0-1.234-0.033-2.238-0.08-3.151h1.573l0.1 1.648h0.04a3.78 3.78 0 0 1 3.435-1.869c2.342 0 4.106 1.973 4.106 4.909 0 3.488-2.133 5.206-4.4 5.206a3.38 3.38 0 0 1-2.982-1.524h-0.04v5.267h-1.749zm1.749 2.585a3.26 3.26 0 0 0 0.077 0.716 2.7 2.7 0 0 0 2.63 2.064c1.866 0 2.942-1.531 2.942-3.748 0-1.931-1.012-3.591-2.874-3.591a2.8 2.8 0 0 0-2.661 2.171 3.028 3.028 0 0 0-0.114 0.715z" fill="#00c"/>
  <path transform="translate(-14.173,-14.173)" d="m1179.7 286.56 1.9 5.424c0.326 0.9 0.576 1.695 0.792 2.5h0.052c0.222-0.8 0.5-1.608 0.81-2.5l1.894-5.424h1.838l-3.806 9.674h-1.68l-3.684-9.674z" fill="#00c"/>
  <path transform="translate(-14.173,-14.173)" d="m1188 298.71a29.526 29.526 0 0 0 1.2-4.791l1.949-0.2a24.9 24.9 0 0 1-1.914 4.861zm0.869-10.559a1.182 1.182 0 0 1 1.189-1.262 1.257 1.257 0 1 1-1.189 1.262z"/>
  <g fill="#00c">
   <path transform="translate(-14.173,-14.173)" d="m1036.2 314.72a3.088 3.088 0 0 0 3.311 3.359 6.52 6.52 0 0 0 2.679-0.5l0.308 1.249a7.8 7.8 0 0 1-3.228 0.617 4.51 4.51 0 0 1-4.759-4.883c0-2.932 1.726-5.222 4.551-5.222 3.157 0 3.982 2.77 3.982 4.551a4.29 4.29 0 0 1-0.06 0.824zm5.149-1.265c0.018-1.109-0.454-2.848-2.426-2.848a2.889 2.889 0 0 0-2.7 2.848z"/>
   <path transform="translate(-14.173,-14.173)" d="m1045.2 312.58c0-1.143-0.028-2.117-0.08-3.013h1.542l0.068 1.9h0.062a2.936 2.936 0 0 1 2.694-2.118 1.984 1.984 0 0 1 0.49 0.05v1.655a2.793 2.793 0 0 0-0.6-0.051 2.458 2.458 0 0 0-2.355 2.251 4.7 4.7 0 0 0-0.072 0.821v5.169h-1.75z"/>
   <path transform="translate(-14.173,-14.173)" d="m1051.8 312.58c0-1.143-0.028-2.117-0.08-3.013h1.542l0.068 1.9h0.062a2.937 2.937 0 0 1 2.7-2.118 1.981 1.981 0 0 1 0.489 0.05v1.655a2.793 2.793 0 0 0-0.6-0.051 2.458 2.458 0 0 0-2.355 2.251 4.7 4.7 0 0 0-0.072 0.821v5.169h-1.75z"/>
   <path transform="translate(-14.173,-14.173)" d="m1058.1 317.44a4.8 4.8 0 0 0 2.332 0.69c1.286 0 1.88-0.632 1.88-1.441 0-0.846-0.511-1.289-1.8-1.771-1.747-0.633-2.575-1.585-2.57-2.744 0-1.558 1.266-2.837 3.347-2.837a4.674 4.674 0 0 1 2.369 0.6l-0.437 1.279a3.8 3.8 0 0 0-1.985-0.57c-1.038 0-1.6 0.6-1.6 1.328 0 0.8 0.569 1.158 1.836 1.65 1.668 0.621 2.535 1.462 2.539 2.907 0 1.715-1.333 2.915-3.619 2.915a5.506 5.506 0 0 1-2.718-0.675z"/>
  </g>
  <path transform="translate(-14.173,-14.173)" d="m1069.9 312.49v-1.2h10.323v1.2zm0 3.93v-1.2h10.323v1.2z"/>
  <g fill="#00c">
   <path transform="translate(-14.173,-14.173)" d="m1087.7 314.72a3.088 3.088 0 0 0 3.311 3.359 6.52 6.52 0 0 0 2.679-0.5l0.308 1.249a7.8 7.8 0 0 1-3.228 0.617 4.51 4.51 0 0 1-4.759-4.883c0-2.932 1.726-5.222 4.551-5.222 3.157 0 3.982 2.77 3.982 4.551a4.29 4.29 0 0 1-0.06 0.824zm5.149-1.265c0.018-1.109-0.454-2.848-2.426-2.848a2.889 2.889 0 0 0-2.7 2.848z"/>
   <path transform="translate(-14.173,-14.173)" d="m1096.7 312.58c0-1.143-0.028-2.117-0.08-3.013h1.542l0.068 1.9h0.062a2.936 2.936 0 0 1 2.694-2.118 1.984 1.984 0 0 1 0.49 0.05v1.655a2.793 2.793 0 0 0-0.6-0.051 2.458 2.458 0 0 0-2.355 2.251 4.7 4.7 0 0 0-0.072 0.821v5.169h-1.75z"/>
   <path transform="translate(-14.173,-14.173)" d="m1103.3 312.58c0-1.143-0.028-2.117-0.08-3.013h1.542l0.068 1.9h0.062a2.937 2.937 0 0 1 2.7-2.118 1.981 1.981 0 0 1 0.489 0.05v1.655a2.793 2.793 0 0 0-0.6-0.051 2.458 2.458 0 0 0-2.355 2.251 4.7 4.7 0 0 0-0.072 0.821v5.169h-1.75z"/>
   <path transform="translate(-14.173,-14.173)" d="m1109.6 317.44a4.8 4.8 0 0 0 2.332 0.69c1.286 0 1.88-0.632 1.88-1.441 0-0.846-0.511-1.289-1.8-1.771-1.747-0.633-2.575-1.585-2.57-2.744 0-1.558 1.266-2.837 3.347-2.837a4.674 4.674 0 0 1 2.369 0.6l-0.437 1.279a3.8 3.8 0 0 0-1.985-0.57c-1.038 0-1.6 0.6-1.6 1.328 0 0.8 0.569 1.158 1.836 1.65 1.668 0.621 2.535 1.462 2.539 2.907 0 1.715-1.333 2.915-3.619 2.915a5.506 5.506 0 0 1-2.718-0.675z"/>
  </g>
  <path transform="translate(-14.173,-14.173)" d="m1127.2 308.6v4.7h4.522v1.2h-4.522v4.742h-1.278v-4.742h-4.523v-1.2h4.523v-4.7z"/>
  <g fill="#00c">
   <path transform="translate(-14.173,-14.173)" d="m1139.2 314.72a3.088 3.088 0 0 0 3.311 3.359 6.52 6.52 0 0 0 2.679-0.5l0.308 1.249a7.8 7.8 0 0 1-3.228 0.617 4.51 4.51 0 0 1-4.759-4.883c0-2.932 1.726-5.222 4.551-5.222 3.157 0 3.982 2.77 3.982 4.551a4.29 4.29 0 0 1-0.06 0.824zm5.149-1.265c0.018-1.109-0.454-2.848-2.426-2.848a2.889 2.889 0 0 0-2.7 2.848z"/>
   <path transform="translate(-14.173,-14.173)" d="m1148.2 312.58c0-1.143-0.028-2.117-0.08-3.013h1.542l0.068 1.9h0.062a2.936 2.936 0 0 1 2.694-2.118 1.984 1.984 0 0 1 0.49 0.05v1.655a2.793 2.793 0 0 0-0.6-0.051 2.458 2.458 0 0 0-2.355 2.251 4.7 4.7 0 0 0-0.072 0.821v5.169h-1.75z"/>
   <path transform="translate(-14.173,-14.173)" d="m1154.8 312.58c0-1.143-0.028-2.117-0.08-3.013h1.542l0.068 1.9h0.062a2.937 2.937 0 0 1 2.7-2.118 1.981 1.981 0 0 1 0.489 0.05v1.655a2.793 2.793 0 0 0-0.6-0.051 2.458 2.458 0 0 0-2.355 2.251 4.7 4.7 0 0 0-0.072 0.821v5.169h-1.75z"/>
  </g>
  <path transform="translate(-14.173,-14.173)" d="m1160.4 321.71a29.425 29.425 0 0 0 1.2-4.791l1.95-0.2a24.9 24.9 0 0 1-1.914 4.861zm0.869-10.559a1.182 1.182 0 0 1 1.189-1.262 1.257 1.257 0 1 1-1.189 1.262z"/>
  <path transform="translate(-14.173,-14.173)" d="m1035.4 342.24v-8.337h-1.352v-1.333h1.351v-0.424a4.354 4.354 0 0 1 1.367-3.348 4.588 4.588 0 0 1 3.1-0.977 6.334 6.334 0 0 1 2.9 0.638v13.785h-1.751v-12.8a3.135 3.135 0 0 0-1.443-0.265c-1.827 0-2.44 1.348-2.44 2.89v0.5h2.266v1.334h-2.25v8.341z"/>
  <path transform="translate(-14.173,-14.173)" d="m1054.4 337.31c0 3.583-2.486 5.15-4.811 5.15-2.624 0-4.65-1.913-4.65-4.984 0-3.237 2.127-5.131 4.8-5.131 2.782 0 4.661 2.018 4.661 4.965zm-7.671 0.112c0 2.123 1.215 3.72 2.932 3.72 1.688 0 2.948-1.576 2.948-3.772 0-1.637-0.825-3.706-2.916-3.706-2.069 0-2.967 1.924-2.967 3.758z"/>
  <path transform="translate(-14.173,-14.173)" d="m1062 342.24-0.155-1.222h-0.052a3.6 3.6 0 0 1-2.96 1.442 2.76 2.76 0 0 1-2.955-2.776c0-2.344 2.077-3.631 5.815-3.6v-0.2a1.993 1.993 0 0 0-2.2-2.232 4.705 4.705 0 0 0-2.521 0.721l-0.4-1.17a6.081 6.081 0 0 1 3.193-0.849c2.957 0 3.679 2.022 3.679 3.96v3.62a15.2 15.2 0 0 0 0.145 2.315zm-0.273-4.94c-1.9-0.041-4.084 0.3-4.084 2.172a1.549 1.549 0 0 0 1.643 1.685 2.42 2.42 0 0 0 2.357-1.62 1.805 1.805 0 0 0 0.084-0.555z"/>
  <path transform="translate(-14.173,-14.173)" d="m1068.3 329.78v2.786h2.527v1.337h-2.527v5.213c0 1.205 0.347 1.886 1.33 1.886a3.521 3.521 0 0 0 1.02-0.127l0.081 1.337a4.511 4.511 0 0 1-1.573 0.242 2.463 2.463 0 0 1-1.9-0.745 3.707 3.707 0 0 1-0.683-2.524v-5.282h-1.5v-1.333h1.5v-2.331z"/>
  <g fill="#00c">
   <path transform="translate(-14.173,-14.173)" d="m1085.4 328.03v11.708c0 0.86 0.032 1.827 0.08 2.5h-1.565l-0.089-1.673h-0.047a3.545 3.545 0 0 1-3.282 1.893c-2.344 0-4.152-1.982-4.152-4.915-0.016-3.234 1.991-5.2 4.347-5.2a3.234 3.234 0 0 1 2.919 1.468h0.04v-5.776zm-1.749 8.465a3.633 3.633 0 0 0-0.075-0.752 2.6 2.6 0 0 0-2.547-2.025c-1.823 0-2.912 1.6-2.912 3.724 0 1.965 0.978 3.6 2.875 3.6a2.656 2.656 0 0 0 2.572-2.112 2.893 2.893 0 0 0 0.087-0.755z"/>
   <path transform="translate(-14.173,-14.173)" d="m1088.3 335.18c0-1.009-0.033-1.811-0.08-2.612h1.529l0.092 1.557h0.049a3.342 3.342 0 0 1 3.055-1.778 2.846 2.846 0 0 1 2.726 1.94h0.04a3.919 3.919 0 0 1 1.092-1.26 3.3 3.3 0 0 1 2.128-0.68c1.292 0 3.195 0.833 3.195 4.2v5.7h-1.718v-5.471c0-1.875-0.691-2.984-2.1-2.984a2.3 2.3 0 0 0-2.093 1.583 2.906 2.906 0 0 0-0.143 0.883v5.989h-1.718v-5.806c0-1.541-0.682-2.649-2.011-2.649a2.435 2.435 0 0 0-2.193 1.756 2.817 2.817 0 0 0-0.133 0.867v5.832h-1.717z"/>
   <path transform="translate(-14.173,-14.173)" d="m1105.4 332.56 1.9 5.424c0.327 0.9 0.577 1.695 0.792 2.5h0.053c0.222-0.8 0.5-1.608 0.81-2.5l1.893-5.424h1.839l-3.806 9.674h-1.678l-3.684-9.674z"/>
  </g>
  <path transform="translate(-14.173,-14.173)" d="m1117.9 335.49v-1.2h10.322v1.2zm0 3.93v-1.2h10.322v1.2z"/>
  <path d="m1311.9 330.53a29.425 29.425 0 0 0 1.2-4.791l1.95-0.2a24.9 24.9 0 0 1-1.914 4.861zm0.869-10.559a1.182 1.182 0 0 1 1.189-1.262 1.257 1.257 0 1 1-1.189 1.262z"/>
  <path transform="translate(-14.173,-14.173)" d="m1035.2 381.18c0-1.009-0.034-1.811-0.08-2.612h1.528l0.093 1.557h0.049a3.341 3.341 0 0 1 3.054-1.778 2.847 2.847 0 0 1 2.727 1.94h0.04a3.9 3.9 0 0 1 1.092-1.26 3.3 3.3 0 0 1 2.128-0.68c1.292 0 3.194 0.833 3.194 4.2v5.7h-1.718v-5.471c0-1.875-0.69-2.984-2.1-2.984a2.3 2.3 0 0 0-2.092 1.583 2.906 2.906 0 0 0-0.144 0.883v5.989h-1.718v-5.806c0-1.541-0.681-2.649-2.01-2.649a2.435 2.435 0 0 0-2.194 1.756 2.817 2.817 0 0 0-0.133 0.867v5.832h-1.716z" fill="#00c"/>
  <path transform="translate(-14.173,-14.173)" d="m1052.3 378.56 1.9 5.424c0.326 0.9 0.576 1.695 0.792 2.5h0.053c0.221-0.8 0.5-1.608 0.809-2.5l1.894-5.424h1.839l-3.807 9.674h-1.678l-3.683-9.674z" fill="#00c"/>
  <path transform="translate(-14.173,-14.173)" d="m1064.8 381.49v-1.2h10.322v1.2zm0 3.93v-1.2h10.322v1.2z"/>
  <path transform="translate(-14.173,-14.173)" d="m1081.6 381.18c0-1.009-0.033-1.811-0.08-2.612h1.528l0.093 1.557h0.049a3.341 3.341 0 0 1 3.055-1.778 2.846 2.846 0 0 1 2.726 1.94h0.04a3.919 3.919 0 0 1 1.092-1.26 3.3 3.3 0 0 1 2.128-0.68c1.292 0 3.194 0.833 3.194 4.2v5.7h-1.717v-5.471c0-1.875-0.691-2.984-2.1-2.984a2.3 2.3 0 0 0-2.093 1.583 2.906 2.906 0 0 0-0.143 0.883v5.989h-1.718v-5.806c0-1.541-0.682-2.649-2.011-2.649a2.434 2.434 0 0 0-2.193 1.756 2.817 2.817 0 0 0-0.133 0.867v5.832h-1.717z" fill="#00c"/>
  <path transform="translate(-14.173,-14.173)" d="m1098.7 378.56 1.9 5.424c0.326 0.9 0.576 1.695 0.792 2.5h0.053c0.222-0.8 0.5-1.608 0.81-2.5l1.893-5.424h1.834l-3.807 9.674h-1.677l-3.684-9.674z" fill="#00c"/>
  <path transform="translate(-14.173,-14.173)" d="m1117 377.6v4.7h4.522v1.2h-4.522v4.742h-1.278v-4.742h-4.523v-1.2h4.523v-4.7z"/>
  <g fill="#00c">
   <path transform="translate(-14.173,-14.173)" d="m1136.4 374.03v11.708c0 0.86 0.032 1.827 0.08 2.5h-1.564l-0.089-1.673h-0.048a3.542 3.542 0 0 1-3.281 1.893c-2.345 0-4.153-1.982-4.153-4.915-0.015-3.234 1.992-5.2 4.347-5.2a3.234 3.234 0 0 1 2.919 1.468h0.04v-5.776zm-1.749 8.465a3.632 3.632 0 0 0-0.074-0.752 2.6 2.6 0 0 0-2.548-2.025c-1.822 0-2.911 1.6-2.911 3.724 0 1.965 0.977 3.6 2.875 3.6a2.654 2.654 0 0 0 2.571-2.112 2.851 2.851 0 0 0 0.087-0.755z"/>
   <path transform="translate(-14.173,-14.173)" d="m1139.3 381.18c0-1.009-0.033-1.811-0.08-2.612h1.528l0.093 1.557h0.049a3.341 3.341 0 0 1 3.054-1.778 2.847 2.847 0 0 1 2.727 1.94h0.04a3.907 3.907 0 0 1 1.092-1.26 3.3 3.3 0 0 1 2.128-0.68c1.292 0 3.194 0.833 3.194 4.2v5.7h-1.718v-5.471c0-1.875-0.69-2.984-2.1-2.984a2.3 2.3 0 0 0-2.093 1.583 2.906 2.906 0 0 0-0.144 0.883v5.989h-1.712v-5.806c0-1.541-0.682-2.649-2.011-2.649a2.435 2.435 0 0 0-2.194 1.756 2.817 2.817 0 0 0-0.132 0.867v5.832h-1.717z"/>
   <path transform="translate(-14.173,-14.173)" d="m1156.4 378.56 1.9 5.424c0.326 0.9 0.576 1.695 0.792 2.5h0.053c0.221-0.8 0.5-1.608 0.809-2.5l1.894-5.424h1.839l-3.807 9.674h-1.678l-3.683-9.674z"/>
  </g>
  <path transform="translate(-14.173,-14.173)" d="m1164.7 390.71a29.526 29.526 0 0 0 1.2-4.791l1.949-0.2a24.9 24.9 0 0 1-1.914 4.861zm0.87-10.559a1.181 1.181 0 0 1 1.188-1.262 1.257 1.257 0 1 1-1.188 1.262z"/>
  <path transform="translate(-14.173,-14.173)" d="m1021.9 405.99c-1.418 0-1.619 0.86-1.619 1.493a10.418 10.418 0 0 0 0.164 1.618 11.891 11.891 0 0 1 0.152 1.633c0 2.014-1.247 2.742-2.9 2.742h-0.417v-1.1h0.353c1.121-0.026 1.6-0.621 1.6-1.745a9.87 9.87 0 0 0-0.148-1.436 9.771 9.771 0 0 1-0.151-1.519 1.944 1.944 0 0 1 1.444-2.185v-0.04a1.91 1.91 0 0 1-1.444-2.157 9.731 9.731 0 0 1 0.151-1.514 9.628 9.628 0 0 0 0.148-1.423c0-1.093-0.415-1.7-1.594-1.726h-0.356v-1.1h0.412c1.7 0 2.908 0.786 2.908 2.628a12.519 12.519 0 0 1-0.152 1.666 10.842 10.842 0 0 0-0.164 1.667c0 0.713 0.2 1.485 1.619 1.487z"/>
  <path transform="translate(-14.173,-14.173)" d="m1029.1 406.72a3.088 3.088 0 0 0 3.311 3.359 6.52 6.52 0 0 0 2.679-0.5l0.308 1.249a7.8 7.8 0 0 1-3.228 0.617 4.51 4.51 0 0 1-4.759-4.883c0-2.932 1.726-5.222 4.551-5.222 3.157 0 3.982 2.77 3.982 4.551a4.29 4.29 0 0 1-0.06 0.824zm5.149-1.265c0.018-1.109-0.454-2.848-2.426-2.848a2.889 2.889 0 0 0-2.7 2.848z"/>
  <path transform="translate(-14.173,-14.173)" d="m1038.2 397.03h1.75v14.2h-1.75z"/>
  <path transform="translate(-14.173,-14.173)" d="m1042.6 409.44a4.8 4.8 0 0 0 2.332 0.69c1.285 0 1.88-0.632 1.88-1.441 0-0.846-0.512-1.289-1.8-1.771-1.747-0.633-2.575-1.585-2.57-2.744 0-1.558 1.265-2.837 3.346-2.837a4.671 4.671 0 0 1 2.369 0.6l-0.436 1.279a3.8 3.8 0 0 0-1.985-0.57c-1.038 0-1.6 0.6-1.6 1.328 0 0.8 0.569 1.158 1.837 1.65 1.668 0.621 2.534 1.462 2.539 2.907 0 1.715-1.333 2.915-3.619 2.915a5.51 5.51 0 0 1-2.719-0.675z"/>
  <path transform="translate(-14.173,-14.173)" d="m1051.8 406.72a3.088 3.088 0 0 0 3.311 3.359 6.517 6.517 0 0 0 2.679-0.5l0.308 1.249a7.8 7.8 0 0 1-3.227 0.617 4.51 4.51 0 0 1-4.76-4.883c0-2.932 1.726-5.222 4.552-5.222 3.156 0 3.981 2.77 3.981 4.551a4.29 4.29 0 0 1-0.06 0.824zm5.15-1.265c0.017-1.109-0.454-2.848-2.427-2.848a2.889 2.889 0 0 0-2.7 2.848z"/>
  <path transform="translate(-14.173,-14.173)" d="m1064.2 404.98c1.419 0 1.619-0.774 1.619-1.487a12.384 12.384 0 0 0-0.152-1.667 10.827 10.827 0 0 1-0.164-1.666c0-1.842 1.207-2.628 2.908-2.628h0.413v1.1h-0.356c-1.179 0-1.594 0.633-1.594 1.726a9.247 9.247 0 0 0 0.15 1.423 9.986 9.986 0 0 1 0.148 1.514 1.908 1.908 0 0 1-1.442 2.157v0.04a1.942 1.942 0 0 1 1.442 2.185 10.028 10.028 0 0 1-0.148 1.519 9.478 9.478 0 0 0-0.15 1.436c0 1.124 0.476 1.745 1.6 1.745h0.353v1.1h-0.417c-1.656 0-2.9-0.728-2.9-2.742a10.294 10.294 0 0 1 0.164-1.633 11.911 11.911 0 0 0 0.152-1.618c0-0.633-0.2-1.492-1.619-1.493z"/>
  <path transform="translate(-14.173,-14.173)" d="m1035.2 427.18c0-1.01-0.034-1.811-0.08-2.613h1.528l0.093 1.557h0.049a3.34 3.34 0 0 1 3.054-1.777 2.847 2.847 0 0 1 2.727 1.939h0.04a3.9 3.9 0 0 1 1.092-1.259 3.292 3.292 0 0 1 2.128-0.68c1.292 0 3.194 0.832 3.194 4.2v5.7h-1.718v-5.471c0-1.874-0.69-2.983-2.1-2.983a2.3 2.3 0 0 0-2.092 1.583 2.9 2.9 0 0 0-0.144 0.882v5.989h-1.718v-5.805c0-1.541-0.681-2.649-2.01-2.649a2.435 2.435 0 0 0-2.194 1.756 2.811 2.811 0 0 0-0.133 0.866v5.832h-1.716z" fill="#00c"/>
  <path transform="translate(-14.173,-14.173)" d="m1052.3 424.56 1.9 5.424c0.326 0.9 0.576 1.7 0.792 2.5h0.053c0.221-0.8 0.5-1.608 0.809-2.5l1.894-5.424h1.839l-3.807 9.674h-1.678l-3.683-9.674z" fill="#00c"/>
  <path transform="translate(-14.173,-14.173)" d="m1064.8 427.49v-1.2h10.322v1.2zm0 3.93v-1.2h10.322v1.2z"/>
  <g fill="#00c">
   <path transform="translate(-14.173,-14.173)" d="m1081.4 432.45a4.8 4.8 0 0 0 2.332 0.689c1.285 0 1.88-0.631 1.88-1.441 0-0.845-0.512-1.289-1.8-1.771-1.747-0.633-2.575-1.584-2.57-2.743 0-1.558 1.265-2.837 3.347-2.837a4.674 4.674 0 0 1 2.369 0.595l-0.437 1.279a3.807 3.807 0 0 0-1.985-0.57c-1.038 0-1.6 0.6-1.6 1.329 0 0.8 0.57 1.158 1.837 1.649 1.668 0.622 2.534 1.463 2.539 2.907 0 1.715-1.333 2.915-3.619 2.915a5.521 5.521 0 0 1-2.719-0.674z"/>
   <path transform="translate(-14.173,-14.173)" d="m1091.7 421.78v2.785h2.528v1.337h-2.528v5.213c0 1.205 0.347 1.887 1.33 1.887a3.509 3.509 0 0 0 1.02-0.128l0.081 1.337a4.485 4.485 0 0 1-1.572 0.242 2.46 2.46 0 0 1-1.9-0.745 3.7 3.7 0 0 1-0.682-2.523v-5.283h-1.5v-1.333h1.5v-2.331z"/>
   <path transform="translate(-14.173,-14.173)" d="m1096.2 427.72c0-1.234-0.033-2.239-0.08-3.152h1.572l0.1 1.649h0.04a3.779 3.779 0 0 1 3.435-1.869c2.342 0 4.106 1.972 4.106 4.909 0 3.487-2.133 5.2-4.4 5.2a3.378 3.378 0 0 1-2.982-1.523h-0.04v5.271h-1.749zm1.749 2.585a3.329 3.329 0 0 0 0.076 0.716 2.705 2.705 0 0 0 2.631 2.063c1.866 0 2.942-1.53 2.942-3.748 0-1.93-1.012-3.59-2.874-3.59a2.793 2.793 0 0 0-2.661 2.171 3.028 3.028 0 0 0-0.114 0.715z"/>
   <path transform="translate(-14.173,-14.173)" d="m1109.7 421.78v2.785h2.528v1.337h-2.528v5.213c0 1.205 0.347 1.887 1.33 1.887a3.509 3.509 0 0 0 1.02-0.128l0.081 1.337a4.485 4.485 0 0 1-1.572 0.242 2.46 2.46 0 0 1-1.9-0.745 3.7 3.7 0 0 1-0.682-2.523v-5.283h-1.5v-1.333h1.5v-2.331z"/>
  </g>
  <path transform="translate(-14.173,-14.173)" d="m1113 436.71a29.513 29.513 0 0 0 1.2-4.792l1.949-0.2a24.85 24.85 0 0 1-1.914 4.861zm0.869-10.56a1.182 1.182 0 0 1 1.189-1.262 1.257 1.257 0 1 1-1.189 1.262z"/>
  <g fill="#00c">
   <path transform="translate(-14.173,-14.173)" d="m1036.2 452.72a3.088 3.088 0 0 0 3.311 3.358 6.5 6.5 0 0 0 2.679-0.5l0.308 1.25a7.807 7.807 0 0 1-3.228 0.616 4.509 4.509 0 0 1-4.759-4.883c0-2.931 1.726-5.221 4.551-5.221 3.157 0 3.982 2.769 3.982 4.55a4.3 4.3 0 0 1-0.06 0.825zm5.149-1.266c0.018-1.108-0.454-2.848-2.426-2.848a2.89 2.89 0 0 0-2.7 2.848z"/>
   <path transform="translate(-14.173,-14.173)" d="m1045.2 450.58c0-1.142-0.028-2.116-0.08-3.013h1.542l0.068 1.9h0.062a2.936 2.936 0 0 1 2.694-2.118 1.984 1.984 0 0 1 0.49 0.05v1.655a2.788 2.788 0 0 0-0.6-0.052 2.458 2.458 0 0 0-2.355 2.251 4.7 4.7 0 0 0-0.072 0.821v5.169h-1.75z"/>
   <path transform="translate(-14.173,-14.173)" d="m1051.8 450.58c0-1.142-0.028-2.116-0.08-3.013h1.542l0.068 1.9h0.062a2.937 2.937 0 0 1 2.7-2.118 1.981 1.981 0 0 1 0.489 0.05v1.655a2.788 2.788 0 0 0-0.6-0.052 2.458 2.458 0 0 0-2.355 2.251 4.7 4.7 0 0 0-0.072 0.821v5.169h-1.75z"/>
   <path transform="translate(-14.173,-14.173)" d="m1058.1 455.45a4.8 4.8 0 0 0 2.332 0.689c1.286 0 1.88-0.631 1.88-1.441 0-0.845-0.511-1.289-1.8-1.771-1.747-0.633-2.575-1.584-2.57-2.743 0-1.559 1.266-2.837 3.347-2.837a4.674 4.674 0 0 1 2.369 0.595l-0.437 1.279a3.8 3.8 0 0 0-1.985-0.57c-1.038 0-1.6 0.6-1.6 1.329 0 0.8 0.569 1.158 1.836 1.649 1.668 0.622 2.535 1.463 2.539 2.907 0 1.715-1.333 2.915-3.619 2.915a5.517 5.517 0 0 1-2.718-0.674z"/>
  </g>
  <path transform="translate(-14.173,-14.173)" d="m1069.9 450.49v-1.2h10.323v1.2zm0 3.93v-1.2h10.323v1.2z"/>
  <path transform="translate(-14.173,-14.173)" d="m1094.8 450.6c0 4.412-1.651 6.853-4.524 6.853-2.539 0-4.265-2.378-4.307-6.673 0-4.371 1.885-6.769 4.526-6.769 2.739 4e-3 4.305 2.452 4.305 6.589zm-7.061 0.184c0 3.391 1.04 5.305 2.638 5.305 1.795 0 2.652-2.1 2.652-5.409 0-3.209-0.812-5.3-2.639-5.3-1.531 4e-3 -2.656 1.885-2.651 5.408z"/>
  <path transform="translate(-14.173,-14.173)" d="m1095.8 459.71a29.618 29.618 0 0 0 1.2-4.792l1.949-0.2a24.85 24.85 0 0 1-1.914 4.861zm0.869-10.56a1.18 1.18 0 0 1 1.188-1.261 1.257 1.257 0 1 1-1.188 1.261z"/>
  <path transform="translate(-14.173,-14.173)" d="m1021.9 474.99c-1.418 0-1.619 0.861-1.619 1.493a10.418 10.418 0 0 0 0.164 1.619 11.877 11.877 0 0 1 0.152 1.632c0 2.015-1.247 2.742-2.9 2.742h-0.417v-1.1h0.353c1.121-0.026 1.6-0.621 1.6-1.745a9.883 9.883 0 0 0-0.148-1.437 9.758 9.758 0 0 1-0.151-1.518 1.945 1.945 0 0 1 1.444-2.186v-0.04a1.91 1.91 0 0 1-1.444-2.156 9.756 9.756 0 0 1 0.151-1.515 9.614 9.614 0 0 0 0.148-1.423c0-1.092-0.415-1.7-1.594-1.725h-0.356v-1.1h0.412c1.7 0 2.908 0.787 2.908 2.628a12.5 12.5 0 0 1-0.152 1.666 10.867 10.867 0 0 0-0.164 1.667c0 0.713 0.2 1.486 1.619 1.487z"/>
  <g fill="#690">
   <path transform="translate(-14.173,-14.173)" d="m1018.2 496.58c0-1.142-0.028-2.116-0.08-3.013h1.542l0.067 1.9h0.063a2.935 2.935 0 0 1 2.694-2.118 1.981 1.981 0 0 1 0.489 0.05v1.655a2.772 2.772 0 0 0-0.6-0.052 2.458 2.458 0 0 0-2.356 2.251 4.7 4.7 0 0 0-0.071 0.821v5.169h-1.75z"/>
   <path transform="translate(-14.173,-14.173)" d="m1025.5 498.72a3.088 3.088 0 0 0 3.31 3.358 6.506 6.506 0 0 0 2.68-0.5l0.308 1.25a7.807 7.807 0 0 1-3.228 0.616 4.51 4.51 0 0 1-4.76-4.883c0-2.931 1.727-5.221 4.552-5.221 3.157 0 3.982 2.769 3.982 4.55a4.3 4.3 0 0 1-0.06 0.825zm5.149-1.266c0.018-1.108-0.454-2.848-2.426-2.848a2.892 2.892 0 0 0-2.7 2.848z"/>
   <path transform="translate(-14.173,-14.173)" d="m1036.7 490.78v2.785h2.528v1.337h-2.528v5.213c0 1.205 0.347 1.887 1.331 1.887a3.5 3.5 0 0 0 1.019-0.128l0.081 1.337a4.485 4.485 0 0 1-1.572 0.242 2.46 2.46 0 0 1-1.9-0.745 3.7 3.7 0 0 1-0.682-2.523v-5.283h-1.5v-1.333h1.5v-2.331z"/>
   <path transform="translate(-14.173,-14.173)" d="m1049.3 500.59c0 1.014 0.033 1.882 0.08 2.647h-1.555l-0.093-1.582h-0.049a3.612 3.612 0 0 1-3.2 1.8c-1.514 0-3.332-0.849-3.332-4.239v-5.655h1.751v5.345c0 1.843 0.574 3.1 2.162 3.1a2.56 2.56 0 0 0 2.328-1.615 2.71 2.71 0 0 0 0.16-0.9v-5.925h1.75z"/>
   <path transform="translate(-14.173,-14.173)" d="m1052.2 496.58c0-1.142-0.028-2.116-0.08-3.013h1.542l0.067 1.9h0.063a2.935 2.935 0 0 1 2.694-2.118 1.981 1.981 0 0 1 0.489 0.05v1.655a2.772 2.772 0 0 0-0.6-0.052 2.458 2.458 0 0 0-2.356 2.251 4.7 4.7 0 0 0-0.071 0.821v5.169h-1.75z"/>
   <path transform="translate(-14.173,-14.173)" d="m1058.8 496.18c0-1.01-0.033-1.811-0.08-2.613h1.554l0.1 1.591h0.049a3.572 3.572 0 0 1 3.2-1.811c1.329 0 3.409 0.8 3.409 4.123v5.771h-1.751v-5.578c0-1.563-0.588-2.874-2.236-2.874a2.532 2.532 0 0 0-2.37 1.806 2.743 2.743 0 0 0-0.121 0.816v5.83h-1.75z"/>
  </g>
  <path transform="translate(-14.173,-14.173)" d="m1074.3 505.48v-15.943h3.666v1.1h-2.294v13.747h2.294v1.1z"/>
  <path transform="translate(-14.173,-14.173)" d="m1084.1 496.18c0-1.01-0.034-1.811-0.08-2.613h1.528l0.093 1.557h0.048a3.343 3.343 0 0 1 3.055-1.777 2.847 2.847 0 0 1 2.727 1.939h0.04a3.9 3.9 0 0 1 1.092-1.26 3.3 3.3 0 0 1 2.127-0.679c1.292 0 3.195 0.833 3.195 4.2v5.7h-1.718v-5.471c0-1.874-0.69-2.984-2.1-2.984a2.3 2.3 0 0 0-2.092 1.584 2.9 2.9 0 0 0-0.144 0.882v5.989h-1.718v-5.805c0-1.541-0.681-2.65-2.01-2.65a2.436 2.436 0 0 0-2.194 1.757 2.811 2.811 0 0 0-0.133 0.866v5.832h-1.716z" fill="#00c"/>
  <path transform="translate(-14.173,-14.173)" d="m1101.2 493.56 1.9 5.424c0.326 0.9 0.576 1.7 0.792 2.5h0.053c0.221-0.8 0.5-1.608 0.809-2.5l1.894-5.424h1.838l-3.806 9.674h-1.678l-3.683-9.674z" fill="#00c"/>
  <path transform="translate(-14.173,-14.173)" d="m1108.2 505.71a29.514 29.514 0 0 0 1.2-4.792l1.957-0.2a24.85 24.85 0 0 1-1.914 4.861z"/>
  <g fill="#00c">
   <path transform="translate(-14.173,-14.173)" d="m1118.7 498.72a3.088 3.088 0 0 0 3.31 3.358 6.509 6.509 0 0 0 2.68-0.5l0.307 1.25a7.8 7.8 0 0 1-3.227 0.616 4.509 4.509 0 0 1-4.76-4.883c0-2.931 1.727-5.221 4.552-5.221 3.156 0 3.981 2.769 3.981 4.55a4.319 4.319 0 0 1-0.059 0.825zm5.149-1.266c0.018-1.108-0.454-2.848-2.427-2.848a2.891 2.891 0 0 0-2.7 2.848z"/>
   <path transform="translate(-14.173,-14.173)" d="m1127.8 496.58c0-1.142-0.028-2.116-0.08-3.013h1.542l0.067 1.9h0.063a2.935 2.935 0 0 1 2.694-2.118 1.981 1.981 0 0 1 0.489 0.05v1.655a2.772 2.772 0 0 0-0.6-0.052 2.458 2.458 0 0 0-2.356 2.251 4.7 4.7 0 0 0-0.071 0.821v5.169h-1.75z"/>
   <path transform="translate(-14.173,-14.173)" d="m1134.4 496.58c0-1.142-0.028-2.116-0.08-3.013h1.542l0.067 1.9h0.063a2.935 2.935 0 0 1 2.694-2.118 1.976 1.976 0 0 1 0.489 0.05v1.655a2.772 2.772 0 0 0-0.6-0.052 2.46 2.46 0 0 0-2.356 2.251 4.7 4.7 0 0 0-0.071 0.821v5.169h-1.75z"/>
   <path transform="translate(-14.173,-14.173)" d="m1140.7 501.45a4.8 4.8 0 0 0 2.332 0.689c1.285 0 1.88-0.631 1.88-1.441 0-0.845-0.512-1.289-1.8-1.771-1.747-0.633-2.575-1.584-2.57-2.743 0-1.559 1.265-2.837 3.346-2.837a4.678 4.678 0 0 1 2.37 0.595l-0.437 1.279a3.8 3.8 0 0 0-1.985-0.57c-1.038 0-1.6 0.6-1.6 1.329 0 0.8 0.569 1.158 1.837 1.649 1.668 0.622 2.534 1.463 2.539 2.907 0 1.715-1.333 2.915-3.619 2.915a5.521 5.521 0 0 1-2.719-0.674z"/>
  </g>
  <path transform="translate(-14.173,-14.173)" d="m1155.7 489.52v15.963h-3.665v-1.1h2.289v-13.766h-2.289v-1.1z"/>
  <path transform="translate(-14.173,-14.173)" d="m1157.6 505.71a29.618 29.618 0 0 0 1.2-4.792l1.949-0.2a24.725 24.725 0 0 1-1.914 4.861zm0.869-10.56a1.18 1.18 0 0 1 1.189-1.261 1.257 1.257 0 1 1-1.189 1.261z"/>
  <path transform="translate(-14.173,-14.173)" d="m1004.9 520.99c-1.418 0-1.619 0.861-1.619 1.493a10.418 10.418 0 0 0 0.164 1.619 11.877 11.877 0 0 1 0.152 1.632c0 2.015-1.247 2.742-2.9 2.742h-0.417v-1.1h0.354c1.12-0.026 1.6-0.621 1.6-1.745a9.883 9.883 0 0 0-0.148-1.437 9.758 9.758 0 0 1-0.151-1.518 1.945 1.945 0 0 1 1.444-2.186v-0.04a1.91 1.91 0 0 1-1.444-2.156 9.756 9.756 0 0 1 0.151-1.515 9.614 9.614 0 0 0 0.148-1.423c0-1.092-0.415-1.7-1.594-1.725h-0.356v-1.105h0.412c1.7 0 2.908 0.787 2.908 2.628a12.5 12.5 0 0 1-0.152 1.666 10.867 10.867 0 0 0-0.164 1.667c0 0.713 0.2 1.486 1.619 1.487z"/>
 </g>
</svg>
