<?xml version="1.0" encoding="UTF-8" standalone="no"?>
<svg xmlns:rdf="http://www.w3.org/1999/02/22-rdf-syntax-ns#" xmlns="http://www.w3.org/2000/svg" height="43.7mm" width="30.222mm" version="1.1" xmlns:cc="http://creativecommons.org/ns#" xmlns:dc="http://purl.org/dc/elements/1.1/" viewBox="0 0 107.08662 154.84345">
 <g transform="translate(-329.97 -464.55)">
  <path stroke-linejoin="round" d="m384 468.95c-37.568-0.30596-50.13 31.979-49.623 57.303l47.32 87.059c1.6269 2.875 2.5726 1.5487 3.4544 0l47.497-87.059c0.31992-25.058-11.081-56.997-48.648-57.303zm-1.1515 45.603c6.3391-0.18022 12.565 5.6655 15.002 11.7l-14.516 82.365-13.847-82.365c2.0205-6.0184 7.4439-11.531 13.361-11.7zm-31.382 1.9333c5.9098-0.33291 10.653 4.851 14.83 9.7664l15.041 82.365-41.587-82.365c1.7188-5.8787 6.6397-9.4805 11.716-9.7664zm62.984 0c5.3502 0.0699 10.915 3.5178 12.739 9.7664l-41.776 82.365 15.585-82.365c3.6057-4.6079 7.9119-9.8388 13.453-9.7664z" stroke="#000" stroke-linecap="round" stroke-width="1.7071" fill="#fff"/>
 </g>
</svg>
