<svg width="81" height="124" viewBox="0 0 81 124" fill="none" xmlns="http://www.w3.org/2000/svg">
<path d="M21 1C20.3333 2.9358 19.2586 4.87182 19 6.80762C18.987 6.90494 18.974 7.00228 18.9609 7.09961C18.343 11.6911 17.624 16.2835 17.5 20.875C16.6358 52.8833 15.9232 84.8921 15.1484 116.9C15.0992 118.934 15.0498 120.967 15 123H7C6.95023 120.967 6.90078 118.934 6.85156 116.9C6.07677 84.8921 5.36416 52.8833 4.5 20.875C4.37604 16.2835 3.65699 11.6911 3.03906 7.09961C3.02596 7.00228 3.013 6.90494 3 6.80762C2.74142 4.87182 1.66667 2.9358 1 1H21Z" fill="#78AEDD"/>
<path d="M71 1C70.6667 2.9358 70.1293 4.87182 70 6.80762C69.9935 6.90495 69.987 7.00228 69.9805 7.09961C69.6715 11.6911 69.312 16.2835 69.25 20.875C68.8179 52.8833 68.4616 84.8921 68.0742 116.9C68.0496 118.934 68.0249 120.967 68 123H64C63.9751 120.967 63.9504 118.934 63.9258 116.9C63.5384 84.8921 63.1821 52.8833 62.75 20.875C62.688 16.2835 62.3285 11.6911 62.0195 7.09961C62.013 7.00228 62.0065 6.90495 62 6.80762C61.8707 4.87182 61.3333 2.9358 61 1H71Z" fill="#78AEDD"/>
<path d="M80 1C79.8 2.9358 79.478 4.87182 79.4004 6.80762C79.3965 6.90495 79.3926 7.00228 79.3887 7.09961C79.2033 11.6911 78.9874 16.2835 78.9502 20.875C78.6909 52.8833 78.4766 84.8921 78.2441 116.9C78.2294 118.934 78.2151 120.967 78.2002 123H75.7998C75.7849 120.967 75.7706 118.934 75.7559 116.9C75.5234 84.8921 75.3091 52.8833 75.0498 20.875C75.0126 16.2835 74.7967 11.6911 74.6113 7.09961C74.6074 7.00228 74.6035 6.90495 74.5996 6.80762C74.522 4.87182 74.2 2.9358 74 1H80Z" fill="#78AEDD"/>
<path d="M21 1C20.3333 2.9358 19.2586 4.87182 19 6.80762C18.987 6.90494 18.974 7.00228 18.9609 7.09961C18.343 11.6911 17.624 16.2835 17.5 20.875C16.6358 52.8833 15.9232 84.8921 15.1484 116.9C15.0992 118.934 15.0498 120.967 15 123H7C6.95023 120.967 6.90078 118.934 6.85156 116.9C6.07677 84.8921 5.36416 52.8833 4.5 20.875C4.37604 16.2835 3.65699 11.6911 3.03906 7.09961C3.02596 7.00228 3.013 6.90494 3 6.80762C2.74142 4.87182 1.66667 2.9358 1 1H21Z" stroke="black"/>
<path d="M71 1C70.6667 2.9358 70.1293 4.87182 70 6.80762C69.9935 6.90495 69.987 7.00228 69.9805 7.09961C69.6715 11.6911 69.312 16.2835 69.25 20.875C68.8179 52.8833 68.4616 84.8921 68.0742 116.9C68.0496 118.934 68.0249 120.967 68 123H64C63.9751 120.967 63.9504 118.934 63.9258 116.9C63.5384 84.8921 63.1821 52.8833 62.75 20.875C62.688 16.2835 62.3285 11.6911 62.0195 7.09961C62.013 7.00228 62.0065 6.90495 62 6.80762C61.8707 4.87182 61.3333 2.9358 61 1H71Z" stroke="black"/>
<path d="M80 1C79.8 2.9358 79.478 4.87182 79.4004 6.80762C79.3965 6.90495 79.3926 7.00228 79.3887 7.09961C79.2033 11.6911 78.9874 16.2835 78.9502 20.875C78.6909 52.8833 78.4766 84.8921 78.2441 116.9C78.2294 118.934 78.2151 120.967 78.2002 123H75.7998C75.7849 120.967 75.7706 118.934 75.7559 116.9C75.5234 84.8921 75.3091 52.8833 75.0498 20.875C75.0126 16.2835 74.7967 11.6911 74.6113 7.09961C74.6074 7.00228 74.6035 6.90495 74.5996 6.80762C74.522 4.87182 74.2 2.9358 74 1H80Z" stroke="black"/>
</svg>
