<svg width="457" height="498" viewBox="0 0 457 498" fill="none" xmlns="http://www.w3.org/2000/svg">
<path d="M101.074 192.864V182.364H102.207V183.577H102.347C102.433 183.444 102.552 183.275 102.705 183.07C102.86 182.861 103.082 182.675 103.371 182.513C103.662 182.347 104.057 182.264 104.554 182.264C105.197 182.264 105.764 182.425 106.254 182.746C106.745 183.068 107.128 183.524 107.403 184.114C107.678 184.704 107.815 185.4 107.815 186.202C107.815 187.01 107.678 187.711 107.403 188.305C107.128 188.895 106.746 189.352 106.259 189.677C105.772 189.998 105.21 190.159 104.574 190.159C104.083 190.159 103.691 190.078 103.396 189.915C103.101 189.75 102.874 189.562 102.714 189.354C102.555 189.142 102.433 188.966 102.347 188.827H102.247V192.864H101.074ZM102.227 186.182C102.227 186.759 102.312 187.267 102.481 187.708C102.65 188.146 102.897 188.489 103.222 188.737C103.546 188.982 103.944 189.105 104.415 189.105C104.905 189.105 105.315 188.976 105.643 188.717C105.974 188.455 106.223 188.104 106.388 187.663C106.558 187.219 106.642 186.725 106.642 186.182C106.642 185.645 106.559 185.161 106.393 184.73C106.231 184.296 105.984 183.953 105.653 183.701C105.325 183.446 104.912 183.318 104.415 183.318C103.938 183.318 103.536 183.439 103.212 183.681C102.887 183.92 102.642 184.254 102.476 184.685C102.31 185.113 102.227 185.612 102.227 186.182ZM109.605 190V182.364H110.739V183.517H110.818C110.957 183.139 111.209 182.833 111.574 182.597C111.938 182.362 112.349 182.244 112.807 182.244C112.893 182.244 113.001 182.246 113.13 182.249C113.259 182.253 113.357 182.258 113.423 182.264V183.457C113.384 183.447 113.292 183.433 113.15 183.413C113.011 183.389 112.863 183.378 112.707 183.378C112.336 183.378 112.005 183.456 111.713 183.612C111.425 183.764 111.196 183.976 111.027 184.248C110.861 184.516 110.778 184.823 110.778 185.168V190H109.605ZM117.783 190.159C117.048 190.159 116.413 189.997 115.879 189.672C115.349 189.344 114.94 188.886 114.651 188.3C114.366 187.71 114.224 187.024 114.224 186.241C114.224 185.459 114.366 184.77 114.651 184.173C114.94 183.573 115.341 183.106 115.854 182.771C116.371 182.433 116.975 182.264 117.664 182.264C118.062 182.264 118.455 182.33 118.842 182.463C119.23 182.596 119.583 182.811 119.901 183.109C120.219 183.404 120.473 183.795 120.662 184.283C120.851 184.77 120.945 185.37 120.945 186.082V186.58H115.059V185.565H119.752C119.752 185.134 119.666 184.75 119.494 184.412C119.325 184.074 119.083 183.807 118.768 183.612C118.456 183.416 118.088 183.318 117.664 183.318C117.197 183.318 116.792 183.434 116.451 183.666C116.113 183.895 115.853 184.193 115.67 184.561C115.488 184.929 115.397 185.323 115.397 185.744V186.42C115.397 186.997 115.496 187.486 115.695 187.887C115.897 188.285 116.178 188.588 116.536 188.797C116.893 189.002 117.309 189.105 117.783 189.105C118.092 189.105 118.37 189.062 118.619 188.976C118.871 188.886 119.088 188.754 119.27 188.578C119.452 188.399 119.593 188.177 119.692 187.912L120.826 188.23C120.707 188.615 120.506 188.953 120.224 189.244C119.943 189.533 119.595 189.758 119.18 189.92C118.766 190.08 118.3 190.159 117.783 190.159ZM128.139 184.074L127.085 184.372C127.019 184.196 126.921 184.026 126.792 183.86C126.666 183.691 126.494 183.552 126.275 183.442C126.056 183.333 125.776 183.278 125.435 183.278C124.967 183.278 124.578 183.386 124.266 183.602C123.958 183.814 123.804 184.084 123.804 184.412C123.804 184.704 123.91 184.934 124.122 185.103C124.334 185.272 124.666 185.413 125.116 185.526L126.25 185.804C126.933 185.97 127.442 186.223 127.776 186.565C128.111 186.903 128.278 187.339 128.278 187.872C128.278 188.31 128.152 188.701 127.901 189.045C127.652 189.39 127.304 189.662 126.857 189.861C126.409 190.06 125.889 190.159 125.295 190.159C124.517 190.159 123.872 189.99 123.362 189.652C122.851 189.314 122.528 188.82 122.392 188.17L123.506 187.892C123.612 188.303 123.812 188.611 124.107 188.817C124.406 189.022 124.795 189.125 125.276 189.125C125.822 189.125 126.257 189.009 126.578 188.777C126.903 188.542 127.065 188.26 127.065 187.932C127.065 187.667 126.973 187.445 126.787 187.266C126.601 187.083 126.316 186.947 125.932 186.858L124.659 186.56C123.96 186.394 123.446 186.137 123.118 185.789C122.793 185.438 122.631 184.999 122.631 184.472C122.631 184.041 122.752 183.66 122.994 183.328C123.239 182.997 123.572 182.737 123.993 182.548C124.417 182.359 124.898 182.264 125.435 182.264C126.19 182.264 126.784 182.43 127.214 182.761C127.649 183.093 127.957 183.53 128.139 184.074ZM135.454 184.074L134.4 184.372C134.333 184.196 134.236 184.026 134.106 183.86C133.98 183.691 133.808 183.552 133.589 183.442C133.371 183.333 133.09 183.278 132.749 183.278C132.282 183.278 131.892 183.386 131.581 183.602C131.273 183.814 131.118 184.084 131.118 184.412C131.118 184.704 131.224 184.934 131.437 185.103C131.649 185.272 131.98 185.413 132.431 185.526L133.564 185.804C134.247 185.97 134.756 186.223 135.091 186.565C135.425 186.903 135.593 187.339 135.593 187.872C135.593 188.31 135.467 188.701 135.215 189.045C134.966 189.39 134.618 189.662 134.171 189.861C133.724 190.06 133.203 190.159 132.61 190.159C131.831 190.159 131.186 189.99 130.676 189.652C130.166 189.314 129.842 188.82 129.706 188.17L130.82 187.892C130.926 188.303 131.127 188.611 131.422 188.817C131.72 189.022 132.109 189.125 132.59 189.125C133.137 189.125 133.571 189.009 133.893 188.777C134.217 188.542 134.38 188.26 134.38 187.932C134.38 187.667 134.287 187.445 134.101 187.266C133.916 187.083 133.631 186.947 133.246 186.858L131.974 186.56C131.274 186.394 130.76 186.137 130.432 185.789C130.108 185.438 129.945 184.999 129.945 184.472C129.945 184.041 130.066 183.66 130.308 183.328C130.553 182.997 130.886 182.737 131.307 182.548C131.732 182.359 132.212 182.264 132.749 182.264C133.505 182.264 134.098 182.43 134.529 182.761C134.963 183.093 135.271 183.53 135.454 184.074ZM142.172 186.878V182.364H143.345V190H142.172V188.707H142.092C141.913 189.095 141.635 189.425 141.257 189.697C140.879 189.965 140.402 190.099 139.825 190.099C139.348 190.099 138.923 189.995 138.552 189.786C138.181 189.574 137.889 189.256 137.677 188.832C137.465 188.404 137.359 187.866 137.359 187.216V182.364H138.532V187.136C138.532 187.693 138.688 188.137 139 188.469C139.315 188.8 139.716 188.966 140.203 188.966C140.494 188.966 140.791 188.891 141.093 188.742C141.398 188.593 141.653 188.364 141.858 188.056C142.067 187.748 142.172 187.355 142.172 186.878ZM145.494 190V182.364H146.627V183.517H146.707C146.846 183.139 147.098 182.833 147.463 182.597C147.827 182.362 148.238 182.244 148.695 182.244C148.782 182.244 148.889 182.246 149.019 182.249C149.148 182.253 149.246 182.258 149.312 182.264V183.457C149.272 183.447 149.181 183.433 149.039 183.413C148.899 183.389 148.752 183.378 148.596 183.378C148.225 183.378 147.893 183.456 147.602 183.612C147.313 183.764 147.085 183.976 146.916 184.248C146.75 184.516 146.667 184.823 146.667 185.168V190H145.494ZM153.672 190.159C152.936 190.159 152.302 189.997 151.768 189.672C151.238 189.344 150.828 188.886 150.54 188.3C150.255 187.71 150.112 187.024 150.112 186.241C150.112 185.459 150.255 184.77 150.54 184.173C150.828 183.573 151.229 183.106 151.743 182.771C152.26 182.433 152.863 182.264 153.553 182.264C153.95 182.264 154.343 182.33 154.731 182.463C155.119 182.596 155.472 182.811 155.79 183.109C156.108 183.404 156.362 183.795 156.551 184.283C156.74 184.77 156.834 185.37 156.834 186.082V186.58H150.948V185.565H155.641C155.641 185.134 155.555 184.75 155.382 184.412C155.213 184.074 154.971 183.807 154.656 183.612C154.345 183.416 153.977 183.318 153.553 183.318C153.085 183.318 152.681 183.434 152.34 183.666C152.002 183.895 151.741 184.193 151.559 184.561C151.377 184.929 151.286 185.323 151.286 185.744V186.42C151.286 186.997 151.385 187.486 151.584 187.887C151.786 188.285 152.066 188.588 152.424 188.797C152.782 189.002 153.198 189.105 153.672 189.105C153.98 189.105 154.259 189.062 154.507 188.976C154.759 188.886 154.976 188.754 155.159 188.578C155.341 188.399 155.482 188.177 155.581 187.912L156.715 188.23C156.595 188.615 156.395 188.953 156.113 189.244C155.831 189.533 155.483 189.758 155.069 189.92C154.655 190.08 154.189 190.159 153.672 190.159ZM162.556 190V182.364H163.69V183.517H163.769C163.909 183.139 164.16 182.833 164.525 182.597C164.89 182.362 165.301 182.244 165.758 182.244C165.844 182.244 165.952 182.246 166.081 182.249C166.21 182.253 166.308 182.258 166.374 182.264V183.457C166.335 183.447 166.244 183.433 166.101 183.413C165.962 183.389 165.814 183.378 165.659 183.378C165.287 183.378 164.956 183.456 164.664 183.612C164.376 183.764 164.147 183.976 163.978 184.248C163.812 184.516 163.73 184.823 163.73 185.168V190H162.556ZM170.735 190.159C169.999 190.159 169.364 189.997 168.83 189.672C168.3 189.344 167.891 188.886 167.602 188.3C167.317 187.71 167.175 187.024 167.175 186.241C167.175 185.459 167.317 184.77 167.602 184.173C167.891 183.573 168.292 183.106 168.806 182.771C169.323 182.433 169.926 182.264 170.615 182.264C171.013 182.264 171.406 182.33 171.794 182.463C172.181 182.596 172.534 182.811 172.852 183.109C173.171 183.404 173.424 183.795 173.613 184.283C173.802 184.77 173.896 185.37 173.896 186.082V186.58H168.01V185.565H172.703C172.703 185.134 172.617 184.75 172.445 184.412C172.276 184.074 172.034 183.807 171.719 183.612C171.407 183.416 171.039 183.318 170.615 183.318C170.148 183.318 169.744 183.434 169.402 183.666C169.064 183.895 168.804 184.193 168.622 184.561C168.439 184.929 168.348 185.323 168.348 185.744V186.42C168.348 186.997 168.448 187.486 168.646 187.887C168.849 188.285 169.129 188.588 169.487 188.797C169.845 189.002 170.261 189.105 170.735 189.105C171.043 189.105 171.321 189.062 171.57 188.976C171.822 188.886 172.039 188.754 172.221 188.578C172.403 188.399 172.544 188.177 172.644 187.912L173.777 188.23C173.658 188.615 173.457 188.953 173.176 189.244C172.894 189.533 172.546 189.758 172.132 189.92C171.717 190.08 171.252 190.159 170.735 190.159ZM178.764 193.023C178.197 193.023 177.71 192.95 177.302 192.804C176.894 192.661 176.555 192.473 176.283 192.237C176.014 192.005 175.801 191.757 175.642 191.491L176.576 190.835C176.682 190.974 176.816 191.134 176.979 191.312C177.141 191.495 177.363 191.652 177.645 191.785C177.93 191.921 178.303 191.989 178.764 191.989C179.38 191.989 179.889 191.839 180.29 191.541C180.691 191.243 180.892 190.776 180.892 190.139V188.588H180.792C180.706 188.727 180.583 188.9 180.424 189.105C180.268 189.307 180.043 189.488 179.748 189.647C179.456 189.803 179.062 189.881 178.565 189.881C177.948 189.881 177.395 189.735 176.904 189.443C176.417 189.152 176.031 188.727 175.746 188.17C175.464 187.614 175.323 186.937 175.323 186.142C175.323 185.36 175.461 184.679 175.736 184.099C176.011 183.515 176.394 183.065 176.884 182.746C177.375 182.425 177.942 182.264 178.585 182.264C179.082 182.264 179.476 182.347 179.768 182.513C180.063 182.675 180.288 182.861 180.444 183.07C180.603 183.275 180.726 183.444 180.812 183.577H180.931V182.364H182.065V190.219C182.065 190.875 181.916 191.409 181.617 191.82C181.322 192.234 180.925 192.537 180.424 192.729C179.927 192.925 179.374 193.023 178.764 193.023ZM178.724 188.827C179.195 188.827 179.592 188.719 179.917 188.504C180.242 188.288 180.489 187.978 180.658 187.574C180.827 187.17 180.911 186.686 180.911 186.122C180.911 185.572 180.829 185.086 180.663 184.665C180.497 184.245 180.252 183.915 179.927 183.676C179.602 183.437 179.201 183.318 178.724 183.318C178.227 183.318 177.812 183.444 177.481 183.696C177.153 183.948 176.906 184.286 176.74 184.71C176.578 185.134 176.497 185.605 176.497 186.122C176.497 186.652 176.579 187.121 176.745 187.529C176.914 187.933 177.163 188.252 177.491 188.484C177.822 188.712 178.233 188.827 178.724 188.827ZM189.025 186.878V182.364H190.198V190H189.025V188.707H188.945C188.767 189.095 188.488 189.425 188.11 189.697C187.732 189.965 187.255 190.099 186.678 190.099C186.201 190.099 185.777 189.995 185.406 189.786C185.035 189.574 184.743 189.256 184.531 188.832C184.319 188.404 184.213 187.866 184.213 187.216V182.364H185.386V187.136C185.386 187.693 185.542 188.137 185.853 188.469C186.168 188.8 186.569 188.966 187.056 188.966C187.348 188.966 187.645 188.891 187.946 188.742C188.251 188.593 188.506 188.364 188.712 188.056C188.921 187.748 189.025 187.355 189.025 186.878ZM193.521 179.818V190H192.347V179.818H193.521ZM197.917 190.179C197.433 190.179 196.994 190.088 196.599 189.906C196.205 189.72 195.892 189.453 195.66 189.105C195.428 188.754 195.312 188.33 195.312 187.832C195.312 187.395 195.398 187.04 195.57 186.768C195.742 186.493 195.973 186.278 196.261 186.122C196.55 185.966 196.868 185.85 197.216 185.774C197.567 185.695 197.92 185.632 198.275 185.585C198.739 185.526 199.115 185.481 199.403 185.451C199.695 185.418 199.907 185.363 200.04 185.287C200.175 185.211 200.243 185.078 200.243 184.889V184.849C200.243 184.359 200.109 183.978 199.841 183.706C199.576 183.434 199.173 183.298 198.633 183.298C198.073 183.298 197.633 183.421 197.315 183.666C196.997 183.911 196.773 184.173 196.644 184.452L195.53 184.054C195.729 183.59 195.994 183.229 196.326 182.97C196.661 182.708 197.025 182.526 197.42 182.423C197.817 182.317 198.208 182.264 198.593 182.264C198.838 182.264 199.12 182.294 199.438 182.354C199.76 182.41 200.069 182.528 200.368 182.707C200.669 182.886 200.92 183.156 201.118 183.517C201.317 183.878 201.417 184.362 201.417 184.969V190H200.243V188.966H200.184C200.104 189.132 199.972 189.309 199.786 189.498C199.6 189.687 199.354 189.848 199.045 189.98C198.737 190.113 198.361 190.179 197.917 190.179ZM198.096 189.125C198.56 189.125 198.951 189.034 199.269 188.852C199.59 188.669 199.832 188.434 199.995 188.146C200.161 187.857 200.243 187.554 200.243 187.236V186.162C200.194 186.222 200.084 186.276 199.915 186.326C199.75 186.372 199.557 186.414 199.339 186.45C199.123 186.483 198.913 186.513 198.707 186.54C198.505 186.563 198.341 186.583 198.215 186.599C197.91 186.639 197.625 186.704 197.36 186.793C197.098 186.879 196.886 187.01 196.724 187.186C196.564 187.358 196.485 187.594 196.485 187.892C196.485 188.3 196.636 188.608 196.937 188.817C197.242 189.022 197.628 189.125 198.096 189.125ZM206.879 182.364V183.358H202.922V182.364H206.879ZM204.075 180.534H205.249V187.812C205.249 188.144 205.297 188.393 205.393 188.558C205.492 188.721 205.618 188.83 205.771 188.886C205.926 188.939 206.09 188.966 206.263 188.966C206.392 188.966 206.498 188.959 206.581 188.946C206.664 188.929 206.73 188.916 206.78 188.906L207.018 189.96C206.939 189.99 206.828 190.02 206.685 190.05C206.543 190.083 206.362 190.099 206.143 190.099C205.812 190.099 205.487 190.028 205.169 189.886C204.854 189.743 204.592 189.526 204.384 189.234C204.178 188.943 204.075 188.575 204.075 188.131V180.534ZM211.664 190.159C210.975 190.159 210.37 189.995 209.85 189.667C209.333 189.339 208.928 188.88 208.637 188.29C208.348 187.7 208.204 187.01 208.204 186.222C208.204 185.426 208.348 184.732 208.637 184.138C208.928 183.545 209.333 183.085 209.85 182.756C210.37 182.428 210.975 182.264 211.664 182.264C212.354 182.264 212.957 182.428 213.474 182.756C213.994 183.085 214.399 183.545 214.687 184.138C214.979 184.732 215.125 185.426 215.125 186.222C215.125 187.01 214.979 187.7 214.687 188.29C214.399 188.88 213.994 189.339 213.474 189.667C212.957 189.995 212.354 190.159 211.664 190.159ZM211.664 189.105C212.188 189.105 212.619 188.971 212.957 188.702C213.295 188.434 213.545 188.081 213.708 187.643C213.87 187.206 213.951 186.732 213.951 186.222C213.951 185.711 213.87 185.236 213.708 184.795C213.545 184.354 213.295 183.998 212.957 183.726C212.619 183.454 212.188 183.318 211.664 183.318C211.141 183.318 210.71 183.454 210.372 183.726C210.034 183.998 209.783 184.354 209.621 184.795C209.459 185.236 209.377 185.711 209.377 186.222C209.377 186.732 209.459 187.206 209.621 187.643C209.783 188.081 210.034 188.434 210.372 188.702C210.71 188.971 211.141 189.105 211.664 189.105ZM216.916 190V182.364H218.049V183.517H218.129C218.268 183.139 218.52 182.833 218.884 182.597C219.249 182.362 219.66 182.244 220.117 182.244C220.204 182.244 220.311 182.246 220.441 182.249C220.57 182.253 220.668 182.258 220.734 182.264V183.457C220.694 183.447 220.603 183.433 220.46 183.413C220.321 183.389 220.174 183.378 220.018 183.378C219.647 183.378 219.315 183.456 219.024 183.612C218.735 183.764 218.507 183.976 218.338 184.248C218.172 184.516 218.089 184.823 218.089 185.168V190H216.916Z" fill="black"/>
<path d="M6.59917 8.07386L5.54519 8.37216C5.4789 8.1965 5.38113 8.0258 5.25186 7.86009C5.12592 7.69105 4.95357 7.55185 4.73482 7.44247C4.51607 7.3331 4.236 7.27841 3.89462 7.27841C3.42729 7.27841 3.03785 7.38613 2.7263 7.60156C2.41806 7.81368 2.26394 8.08381 2.26394 8.41193C2.26394 8.7036 2.37 8.93395 2.58212 9.10298C2.79424 9.27202 3.12568 9.41288 3.57644 9.52557L4.70996 9.80398C5.39273 9.9697 5.90149 10.2232 6.23624 10.5646C6.57099 10.9027 6.73837 11.3385 6.73837 11.8722C6.73837 12.3097 6.61242 12.7008 6.36053 13.0455C6.11195 13.3902 5.76394 13.6619 5.3165 13.8608C4.86905 14.0597 4.34869 14.1591 3.75542 14.1591C2.97653 14.1591 2.33188 13.9901 1.82147 13.652C1.31105 13.3139 0.987897 12.8201 0.852006 12.1705L1.96564 11.892C2.0717 12.303 2.27222 12.6113 2.56721 12.8168C2.8655 13.0223 3.25494 13.125 3.73553 13.125C4.2824 13.125 4.71659 13.009 5.03809 12.777C5.3629 12.5417 5.5253 12.2599 5.5253 11.9318C5.5253 11.6667 5.4325 11.4446 5.24689 11.2656C5.06129 11.0833 4.77625 10.9474 4.39178 10.858L3.11905 10.5597C2.41971 10.3939 1.90598 10.1371 1.57786 9.78906C1.25305 9.43774 1.09064 8.99858 1.09064 8.47159C1.09064 8.04072 1.21162 7.65956 1.45357 7.32812C1.69883 6.99669 2.03193 6.73651 2.45286 6.54758C2.8771 6.35866 3.35769 6.2642 3.89462 6.2642C4.6503 6.2642 5.24358 6.42992 5.67445 6.76136C6.10864 7.0928 6.41687 7.5303 6.59917 8.07386ZM10.7517 14.179C10.2678 14.179 9.82863 14.0878 9.43422 13.9055C9.0398 13.7199 8.72659 13.4531 8.49458 13.1051C8.26258 12.7538 8.14657 12.3295 8.14657 11.8324C8.14657 11.3949 8.23275 11.0402 8.4051 10.7685C8.57744 10.4934 8.80779 10.2779 9.09615 10.1222C9.3845 9.96638 9.70268 9.85038 10.0507 9.77415C10.402 9.6946 10.755 9.63163 11.1096 9.58523C11.5737 9.52557 11.9498 9.48082 12.2382 9.45099C12.5299 9.41785 12.742 9.36316 12.8746 9.28693C13.0104 9.2107 13.0784 9.07812 13.0784 8.8892V8.84943C13.0784 8.3589 12.9442 7.97775 12.6757 7.70597C12.4105 7.43419 12.0078 7.2983 11.4676 7.2983C10.9075 7.2983 10.4683 7.42093 10.1501 7.66619C9.83194 7.91146 9.60822 8.1733 9.47896 8.4517L8.36532 8.05398C8.56419 7.58996 8.82934 7.22869 9.16078 6.97017C9.49553 6.70833 9.86011 6.52604 10.2545 6.4233C10.6523 6.31723 11.0434 6.2642 11.4278 6.2642C11.6731 6.2642 11.9548 6.29403 12.273 6.35369C12.5945 6.41004 12.9044 6.5277 13.2027 6.70668C13.5043 6.88565 13.7545 7.15578 13.9534 7.51705C14.1523 7.87831 14.2517 8.36222 14.2517 8.96875V14H13.0784V12.9659H13.0187C12.9392 13.1316 12.8066 13.3089 12.621 13.4979C12.4354 13.6868 12.1885 13.8475 11.8802 13.9801C11.572 14.1127 11.1958 14.179 10.7517 14.179ZM10.9307 13.125C11.3947 13.125 11.7858 13.0339 12.104 12.8516C12.4255 12.6693 12.6674 12.4339 12.8298 12.1456C12.9955 11.8572 13.0784 11.554 13.0784 11.2358V10.1619C13.0287 10.2216 12.9193 10.2763 12.7503 10.326C12.5845 10.3724 12.3923 10.4138 12.1736 10.4503C11.9581 10.4834 11.7477 10.5133 11.5422 10.5398C11.34 10.563 11.1759 10.5829 11.05 10.5994C10.7451 10.6392 10.46 10.7038 10.1949 10.7933C9.93303 10.8795 9.72091 11.0104 9.55851 11.1861C9.39941 11.3584 9.31987 11.5937 9.31987 11.892C9.31987 12.2997 9.47067 12.608 9.77228 12.8168C10.0772 13.0223 10.4633 13.125 10.9307 13.125ZM19.7142 6.36364V7.35795H15.7568V6.36364H19.7142ZM16.9102 4.53409H18.0835V11.8125C18.0835 12.1439 18.1316 12.3925 18.2277 12.5582C18.3271 12.7206 18.4531 12.83 18.6056 12.8864C18.7613 12.9394 18.9254 12.9659 19.0977 12.9659C19.227 12.9659 19.3331 12.9593 19.4159 12.946C19.4988 12.9295 19.5651 12.9162 19.6148 12.9062L19.8534 13.9602C19.7739 13.9901 19.6628 14.0199 19.5203 14.0497C19.3778 14.0829 19.1972 14.0994 18.9784 14.0994C18.647 14.0994 18.3222 14.0282 18.004 13.8857C17.6891 13.7431 17.4273 13.526 17.2185 13.2344C17.013 12.9427 16.9102 12.5748 16.9102 12.1307V4.53409ZM26.2916 10.8778V6.36364H27.4649V14H26.2916V12.7074H26.2121C26.0331 13.0952 25.7547 13.425 25.3769 13.6967C24.999 13.9652 24.5218 14.0994 23.945 14.0994C23.4678 14.0994 23.0435 13.995 22.6723 13.7862C22.3011 13.5741 22.0094 13.2559 21.7973 12.8317C21.5852 12.4041 21.4791 11.8655 21.4791 11.2159V6.36364H22.6524V11.1364C22.6524 11.6932 22.8082 12.1373 23.1198 12.4688C23.4346 12.8002 23.8357 12.9659 24.3229 12.9659C24.6146 12.9659 24.9112 12.8913 25.2128 12.7422C25.5177 12.593 25.7729 12.3643 25.9784 12.0561C26.1872 11.7479 26.2916 11.3551 26.2916 10.8778ZM29.6139 14V6.36364H30.7474V7.51705H30.827C30.9662 7.1392 31.2181 6.83262 31.5827 6.5973C31.9472 6.36198 32.3582 6.24432 32.8156 6.24432C32.9018 6.24432 33.0095 6.24597 33.1388 6.24929C33.268 6.2526 33.3658 6.25758 33.4321 6.2642V7.45739C33.3923 7.44744 33.3012 7.43253 33.1586 7.41264C33.0194 7.38944 32.872 7.37784 32.7162 7.37784C32.345 7.37784 32.0135 7.45573 31.7219 7.61151C31.4335 7.76397 31.2048 7.97609 31.0358 8.24787C30.8701 8.51634 30.7872 8.82292 30.7872 9.16761V14H29.6139ZM37.07 14.179C36.5861 14.179 36.147 14.0878 35.7526 13.9055C35.3582 13.7199 35.045 13.4531 34.8129 13.1051C34.5809 12.7538 34.4649 12.3295 34.4649 11.8324C34.4649 11.3949 34.5511 11.0402 34.7235 10.7685C34.8958 10.4934 35.1262 10.2779 35.4145 10.1222C35.7029 9.96638 36.021 9.85038 36.3691 9.77415C36.7204 9.6946 37.0734 9.63163 37.428 9.58523C37.892 9.52557 38.2682 9.48082 38.5566 9.45099C38.8482 9.41785 39.0603 9.36316 39.1929 9.28693C39.3288 9.2107 39.3968 9.07812 39.3968 8.8892V8.84943C39.3968 8.3589 39.2625 7.97775 38.9941 7.70597C38.7289 7.43419 38.3262 7.2983 37.786 7.2983C37.2258 7.2983 36.7867 7.42093 36.4685 7.66619C36.1503 7.91146 35.9266 8.1733 35.7973 8.4517L34.6837 8.05398C34.8825 7.58996 35.1477 7.22869 35.4791 6.97017C35.8139 6.70833 36.1785 6.52604 36.5729 6.4233C36.9706 6.31723 37.3617 6.2642 37.7462 6.2642C37.9914 6.2642 38.2732 6.29403 38.5914 6.35369C38.9128 6.41004 39.2227 6.5277 39.521 6.70668C39.8227 6.88565 40.0729 7.15578 40.2718 7.51705C40.4706 7.87831 40.57 8.36222 40.57 8.96875V14H39.3968V12.9659H39.3371C39.2575 13.1316 39.125 13.3089 38.9394 13.4979C38.7538 13.6868 38.5068 13.8475 38.1986 13.9801C37.8904 14.1127 37.5142 14.179 37.07 14.179ZM37.249 13.125C37.713 13.125 38.1041 13.0339 38.4223 12.8516C38.7438 12.6693 38.9858 12.4339 39.1482 12.1456C39.3139 11.8572 39.3968 11.554 39.3968 11.2358V10.1619C39.347 10.2216 39.2377 10.2763 39.0686 10.326C38.9029 10.3724 38.7107 10.4138 38.4919 10.4503C38.2765 10.4834 38.066 10.5133 37.8605 10.5398C37.6584 10.563 37.4943 10.5829 37.3683 10.5994C37.0634 10.6392 36.7784 10.7038 36.5132 10.7933C36.2514 10.8795 36.0393 11.0104 35.8769 11.1861C35.7178 11.3584 35.6382 11.5937 35.6382 11.892C35.6382 12.2997 35.789 12.608 36.0906 12.8168C36.3956 13.0223 36.7817 13.125 37.249 13.125ZM46.0326 6.36364V7.35795H42.0752V6.36364H46.0326ZM43.2286 4.53409H44.4019V11.8125C44.4019 12.1439 44.45 12.3925 44.5461 12.5582C44.6455 12.7206 44.7715 12.83 44.9239 12.8864C45.0797 12.9394 45.2438 12.9659 45.4161 12.9659C45.5454 12.9659 45.6514 12.9593 45.7343 12.946C45.8171 12.9295 45.8834 12.9162 45.9331 12.9062L46.1718 13.9602C46.0922 13.9901 45.9812 14.0199 45.8387 14.0497C45.6962 14.0829 45.5155 14.0994 45.2968 14.0994C44.9653 14.0994 44.6405 14.0282 44.3224 13.8857C44.0075 13.7431 43.7456 13.526 43.5368 13.2344C43.3314 12.9427 43.2286 12.5748 43.2286 12.1307V4.53409ZM50.9172 14.1591C50.1814 14.1591 49.5467 13.9967 49.0131 13.6719C48.4827 13.3438 48.0734 12.8864 47.7851 12.2997C47.5 11.7098 47.3575 11.0237 47.3575 10.2415C47.3575 9.45928 47.5 8.76989 47.7851 8.1733C48.0734 7.57339 48.4745 7.10606 48.9882 6.77131C49.5052 6.43324 50.1085 6.2642 50.7979 6.2642C51.1956 6.2642 51.5883 6.33049 51.9761 6.46307C52.3639 6.59564 52.7169 6.81108 53.0351 7.10938C53.3532 7.40436 53.6068 7.79545 53.7957 8.28267C53.9846 8.76989 54.0791 9.36979 54.0791 10.0824V10.5795H48.1927V9.56534H52.8859C52.8859 9.13447 52.7997 8.75 52.6274 8.41193C52.4584 8.07386 52.2164 7.80705 51.9015 7.61151C51.59 7.41596 51.2221 7.31818 50.7979 7.31818C50.3305 7.31818 49.9262 7.43419 49.5848 7.66619C49.2467 7.89489 48.9865 8.19318 48.8042 8.56108C48.622 8.92898 48.5308 9.32339 48.5308 9.74432V10.4205C48.5308 10.9972 48.6302 11.486 48.8291 11.8871C49.0313 12.2848 49.3113 12.5881 49.6693 12.7969C50.0273 13.0024 50.4432 13.1051 50.9172 13.1051C51.2254 13.1051 51.5038 13.062 51.7524 12.9759C52.0043 12.8864 52.2214 12.7538 52.4037 12.5781C52.586 12.3991 52.7268 12.1771 52.8263 11.9119L53.9598 12.2301C53.8405 12.6146 53.6399 12.9527 53.3582 13.2443C53.0765 13.5327 52.7285 13.758 52.3142 13.9205C51.8999 14.0795 51.4342 14.1591 50.9172 14.1591ZM58.7474 14.1591C58.1111 14.1591 57.5493 13.9983 57.0621 13.6768C56.5748 13.352 56.1937 12.8946 55.9186 12.3047C55.6435 11.7114 55.5059 11.0104 55.5059 10.2017C55.5059 9.39962 55.6435 8.7036 55.9186 8.11364C56.1937 7.52367 56.5765 7.06794 57.067 6.74645C57.5576 6.42495 58.1243 6.2642 58.7673 6.2642C59.2645 6.2642 59.6572 6.34706 59.9456 6.51278C60.2372 6.67519 60.4593 6.8608 60.6118 7.0696C60.7675 7.27509 60.8885 7.44413 60.9747 7.5767H61.0741V3.81818H62.2474V14H61.1139V12.8267H60.9747C60.8885 12.9659 60.7659 13.1416 60.6068 13.3537C60.4477 13.5625 60.2207 13.7498 59.9257 13.9155C59.6307 14.0779 59.238 14.1591 58.7474 14.1591ZM58.9065 13.1051C59.3772 13.1051 59.7749 12.9825 60.0997 12.7372C60.4245 12.4886 60.6714 12.1456 60.8405 11.7081C61.0095 11.2673 61.094 10.7585 61.094 10.1818C61.094 9.61174 61.0112 9.11293 60.8454 8.68537C60.6797 8.2545 60.4345 7.91974 60.1096 7.68111C59.7848 7.43916 59.3838 7.31818 58.9065 7.31818C58.4094 7.31818 57.9951 7.44579 57.6636 7.70099C57.3355 7.95289 57.0886 8.29593 56.9229 8.73011C56.7604 9.16098 56.6792 9.64489 56.6792 10.1818C56.6792 10.7254 56.7621 11.2192 56.9278 11.6634C57.0969 12.1042 57.3454 12.4555 57.6736 12.7173C58.005 12.9759 58.416 13.1051 58.9065 13.1051ZM73.9058 8.07386L72.8518 8.37216C72.7855 8.1965 72.6878 8.0258 72.5585 7.86009C72.4326 7.69105 72.2602 7.55185 72.0415 7.44247C71.8227 7.3331 71.5426 7.27841 71.2013 7.27841C70.7339 7.27841 70.3445 7.38613 70.0329 7.60156C69.7247 7.81368 69.5706 8.08381 69.5706 8.41193C69.5706 8.7036 69.6766 8.93395 69.8888 9.10298C70.1009 9.27202 70.4323 9.41288 70.8831 9.52557L72.0166 9.80398C72.6994 9.9697 73.2081 10.2232 73.5429 10.5646C73.8776 10.9027 74.045 11.3385 74.045 11.8722C74.045 12.3097 73.9191 12.7008 73.6672 13.0455C73.4186 13.3902 73.0706 13.6619 72.6231 13.8608C72.1757 14.0597 71.6553 14.1591 71.0621 14.1591C70.2832 14.1591 69.6385 13.9901 69.1281 13.652C68.6177 13.3139 68.2945 12.8201 68.1586 12.1705L69.2723 11.892C69.3783 12.303 69.5789 12.6113 69.8738 12.8168C70.1721 13.0223 70.5616 13.125 71.0422 13.125C71.589 13.125 72.0232 13.009 72.3447 12.777C72.6695 12.5417 72.8319 12.2599 72.8319 11.9318C72.8319 11.6667 72.7391 11.4446 72.5535 11.2656C72.3679 11.0833 72.0829 10.9474 71.6984 10.858L70.4257 10.5597C69.7264 10.3939 69.2126 10.1371 68.8845 9.78906C68.5597 9.43774 68.3973 8.99858 68.3973 8.47159C68.3973 8.04072 68.5183 7.65956 68.7602 7.32812C69.0055 6.99669 69.3386 6.73651 69.7595 6.54758C70.1837 6.35866 70.6643 6.2642 71.2013 6.2642C71.9569 6.2642 72.5502 6.42992 72.9811 6.76136C73.4153 7.0928 73.7235 7.5303 73.9058 8.07386ZM79.1322 6.36364V7.35795H75.1748V6.36364H79.1322ZM76.3282 4.53409H77.5015V11.8125C77.5015 12.1439 77.5496 12.3925 77.6457 12.5582C77.7451 12.7206 77.8711 12.83 78.0235 12.8864C78.1793 12.9394 78.3434 12.9659 78.5157 12.9659C78.645 12.9659 78.751 12.9593 78.8339 12.946C78.9168 12.9295 78.983 12.9162 79.0328 12.9062L79.2714 13.9602C79.1919 13.9901 79.0808 14.0199 78.9383 14.0497C78.7958 14.0829 78.6151 14.0994 78.3964 14.0994C78.065 14.0994 77.7401 14.0282 77.422 13.8857C77.1071 13.7431 76.8453 13.526 76.6365 13.2344C76.431 12.9427 76.3282 12.5748 76.3282 12.1307V4.53409ZM84.0168 14.1591C83.281 14.1591 82.6463 13.9967 82.1127 13.6719C81.5824 13.3438 81.173 12.8864 80.8847 12.2997C80.5996 11.7098 80.4571 11.0237 80.4571 10.2415C80.4571 9.45928 80.5996 8.76989 80.8847 8.1733C81.173 7.57339 81.5741 7.10606 82.0878 6.77131C82.6048 6.43324 83.2081 6.2642 83.8975 6.2642C84.2952 6.2642 84.6879 6.33049 85.0757 6.46307C85.4635 6.59564 85.8165 6.81108 86.1347 7.10938C86.4529 7.40436 86.7064 7.79545 86.8953 8.28267C87.0843 8.76989 87.1787 9.36979 87.1787 10.0824V10.5795H81.2923V9.56534H85.9855C85.9855 9.13447 85.8994 8.75 85.727 8.41193C85.558 8.07386 85.316 7.80705 85.0012 7.61151C84.6896 7.41596 84.3217 7.31818 83.8975 7.31818C83.4301 7.31818 83.0258 7.43419 82.6844 7.66619C82.3463 7.89489 82.0861 8.19318 81.9039 8.56108C81.7216 8.92898 81.6304 9.32339 81.6304 9.74432V10.4205C81.6304 10.9972 81.7298 11.486 81.9287 11.8871C82.1309 12.2848 82.411 12.5881 82.7689 12.7969C83.1269 13.0024 83.5428 13.1051 84.0168 13.1051C84.325 13.1051 84.6034 13.062 84.852 12.9759C85.1039 12.8864 85.321 12.7538 85.5033 12.5781C85.6856 12.3991 85.8264 12.1771 85.9259 11.9119L87.0594 12.2301C86.9401 12.6146 86.7396 12.9527 86.4578 13.2443C86.1761 13.5327 85.8281 13.758 85.4138 13.9205C84.9995 14.0795 84.5338 14.1591 84.0168 14.1591ZM91.2107 14.179C90.7268 14.179 90.2876 14.0878 89.8932 13.9055C89.4988 13.7199 89.1856 13.4531 88.9536 13.1051C88.7216 12.7538 88.6056 12.3295 88.6056 11.8324C88.6056 11.3949 88.6917 11.0402 88.8641 10.7685C89.0364 10.4934 89.2668 10.2779 89.5551 10.1222C89.8435 9.96638 90.1617 9.85038 90.5097 9.77415C90.861 9.6946 91.214 9.63163 91.5686 9.58523C92.0326 9.52557 92.4088 9.48082 92.6972 9.45099C92.9888 9.41785 93.201 9.36316 93.3335 9.28693C93.4694 9.2107 93.5374 9.07812 93.5374 8.8892V8.84943C93.5374 8.3589 93.4031 7.97775 93.1347 7.70597C92.8695 7.43419 92.4668 7.2983 91.9266 7.2983C91.3664 7.2983 90.9273 7.42093 90.6091 7.66619C90.2909 7.91146 90.0672 8.1733 89.9379 8.4517L88.8243 8.05398C89.0232 7.58996 89.2883 7.22869 89.6198 6.97017C89.9545 6.70833 90.3191 6.52604 90.7135 6.4233C91.1112 6.31723 91.5023 6.2642 91.8868 6.2642C92.1321 6.2642 92.4138 6.29403 92.732 6.35369C93.0535 6.41004 93.3634 6.5277 93.6617 6.70668C93.9633 6.88565 94.2135 7.15578 94.4124 7.51705C94.6112 7.87831 94.7107 8.36222 94.7107 8.96875V14H93.5374V12.9659H93.4777C93.3982 13.1316 93.2656 13.3089 93.08 13.4979C92.8944 13.6868 92.6475 13.8475 92.3392 13.9801C92.031 14.1127 91.6548 14.179 91.2107 14.179ZM91.3896 13.125C91.8537 13.125 92.2448 13.0339 92.5629 12.8516C92.8844 12.6693 93.1264 12.4339 93.2888 12.1456C93.4545 11.8572 93.5374 11.554 93.5374 11.2358V10.1619C93.4877 10.2216 93.3783 10.2763 93.2093 10.326C93.0435 10.3724 92.8513 10.4138 92.6325 10.4503C92.4171 10.4834 92.2066 10.5133 92.0012 10.5398C91.799 10.563 91.6349 10.5829 91.509 10.5994C91.204 10.6392 90.919 10.7038 90.6539 10.7933C90.392 10.8795 90.1799 11.0104 90.0175 11.1861C89.8584 11.3584 89.7789 11.5937 89.7789 11.892C89.7789 12.2997 89.9297 12.608 90.2313 12.8168C90.5362 13.0223 90.9223 13.125 91.3896 13.125ZM96.8522 14V6.36364H97.9857V7.55682H98.0851C98.2442 7.14915 98.5011 6.83262 98.8557 6.60724C99.2104 6.37855 99.6363 6.2642 100.133 6.2642C100.637 6.2642 101.056 6.37855 101.391 6.60724C101.729 6.83262 101.993 7.14915 102.182 7.55682H102.261C102.457 7.16241 102.75 6.84919 103.141 6.61719C103.532 6.38187 104.001 6.2642 104.548 6.2642C105.231 6.2642 105.789 6.47798 106.224 6.90554C106.658 7.32978 106.875 7.991 106.875 8.8892V14H105.702V8.8892C105.702 8.32576 105.547 7.92306 105.239 7.68111C104.931 7.43916 104.568 7.31818 104.15 7.31818C103.614 7.31818 103.198 7.48059 102.903 7.8054C102.608 8.12689 102.46 8.53456 102.46 9.02841V14H101.267V8.76989C101.267 8.3357 101.126 7.98603 100.844 7.72088C100.563 7.45241 100.2 7.31818 99.7556 7.31818C99.4507 7.31818 99.1656 7.39938 98.9005 7.56179C98.6386 7.72419 98.4265 7.94957 98.2641 8.23793C98.105 8.52296 98.0255 8.85275 98.0255 9.22727V14H96.8522ZM4.79261 31V23.3636H5.96591V31H4.79261ZM5.3892 22.0909C5.16051 22.0909 4.9633 22.013 4.79759 21.8572C4.63518 21.7015 4.55398 21.5142 4.55398 21.2955C4.55398 21.0767 4.63518 20.8894 4.79759 20.7337C4.9633 20.5779 5.16051 20.5 5.3892 20.5C5.6179 20.5 5.81345 20.5779 5.97585 20.7337C6.14157 20.8894 6.22443 21.0767 6.22443 21.2955C6.22443 21.5142 6.14157 21.7015 5.97585 21.8572C5.81345 22.013 5.6179 22.0909 5.3892 22.0909ZM9.28817 26.4062V31H8.11488V23.3636H9.2484V24.5568H9.34783C9.52681 24.169 9.79859 23.8575 10.1632 23.6222C10.5278 23.3835 10.9984 23.2642 11.5751 23.2642C12.0922 23.2642 12.5446 23.3703 12.9324 23.5824C13.3201 23.7912 13.6217 24.1094 13.8372 24.5369C14.0526 24.9612 14.1603 25.4981 14.1603 26.1477V31H12.987V26.2273C12.987 25.6274 12.8313 25.16 12.5197 24.8253C12.2082 24.4872 11.7806 24.3182 11.237 24.3182C10.8625 24.3182 10.5278 24.3994 10.2328 24.5618C9.94111 24.7242 9.71076 24.9612 9.54173 25.2727C9.37269 25.5843 9.28817 25.9621 9.28817 26.4062ZM17.4776 20.8182V31H16.3043V20.8182H17.4776ZM22.8283 31.1591C22.0925 31.1591 21.4578 30.9967 20.9242 30.6719C20.3939 30.3438 19.9846 29.8864 19.6962 29.2997C19.4112 28.7098 19.2686 28.0237 19.2686 27.2415C19.2686 26.4593 19.4112 25.7699 19.6962 25.1733C19.9846 24.5734 20.3856 24.1061 20.8993 23.7713C21.4164 23.4332 22.0196 23.2642 22.709 23.2642C23.1067 23.2642 23.4995 23.3305 23.8873 23.4631C24.275 23.5956 24.628 23.8111 24.9462 24.1094C25.2644 24.4044 25.5179 24.7955 25.7069 25.2827C25.8958 25.7699 25.9902 26.3698 25.9902 27.0824V27.5795H20.1039V26.5653H24.7971C24.7971 26.1345 24.7109 25.75 24.5385 25.4119C24.3695 25.0739 24.1275 24.8071 23.8127 24.6115C23.5011 24.416 23.1332 24.3182 22.709 24.3182C22.2417 24.3182 21.8373 24.4342 21.4959 24.6662C21.1578 24.8949 20.8977 25.1932 20.7154 25.5611C20.5331 25.929 20.4419 26.3234 20.4419 26.7443V27.4205C20.4419 27.9972 20.5414 28.486 20.7402 28.8871C20.9424 29.2848 21.2225 29.5881 21.5804 29.7969C21.9384 30.0024 22.3543 30.1051 22.8283 30.1051C23.1365 30.1051 23.415 30.062 23.6635 29.9759C23.9154 29.8864 24.1325 29.7538 24.3148 29.5781C24.4971 29.3991 24.638 29.1771 24.7374 28.9119L25.8709 29.2301C25.7516 29.6146 25.5511 29.9527 25.2694 30.2443C24.9876 30.5327 24.6396 30.758 24.2253 30.9205C23.811 31.0795 23.3453 31.1591 22.8283 31.1591ZM31.0961 23.3636V24.358H27.1387V23.3636H31.0961ZM28.2921 21.5341H29.4654V28.8125C29.4654 29.1439 29.5134 29.3925 29.6096 29.5582C29.709 29.7206 29.8349 29.83 29.9874 29.8864C30.1432 29.9394 30.3072 29.9659 30.4796 29.9659C30.6088 29.9659 30.7149 29.9593 30.7978 29.946C30.8806 29.9295 30.9469 29.9162 30.9966 29.9062L31.2353 30.9602C31.1557 30.9901 31.0447 31.0199 30.9022 31.0497C30.7596 31.0829 30.579 31.0994 30.3603 31.0994C30.0288 31.0994 29.704 31.0282 29.3858 30.8857C29.071 30.7431 28.8091 30.526 28.6003 30.2344C28.3948 29.9427 28.2921 29.5748 28.2921 29.1307V21.5341ZM39.0456 31.179C38.5617 31.179 38.1226 31.0878 37.7282 30.9055C37.3337 30.7199 37.0205 30.4531 36.7885 30.1051C36.5565 29.7538 36.4405 29.3295 36.4405 28.8324C36.4405 28.3949 36.5267 28.0402 36.699 27.7685C36.8714 27.4934 37.1017 27.2779 37.3901 27.1222C37.6784 26.9664 37.9966 26.8504 38.3446 26.7741C38.696 26.6946 39.0489 26.6316 39.4036 26.5852C39.8676 26.5256 40.2438 26.4808 40.5321 26.451C40.8238 26.4179 41.0359 26.3632 41.1685 26.2869C41.3044 26.2107 41.3723 26.0781 41.3723 25.8892V25.8494C41.3723 25.3589 41.2381 24.9777 40.9696 24.706C40.7045 24.4342 40.3018 24.2983 39.7615 24.2983C39.2014 24.2983 38.7623 24.4209 38.4441 24.6662C38.1259 24.9115 37.9022 25.1733 37.7729 25.4517L36.6593 25.054C36.8581 24.59 37.1233 24.2287 37.4547 23.9702C37.7895 23.7083 38.1541 23.526 38.5485 23.4233C38.9462 23.3172 39.3373 23.2642 39.7218 23.2642C39.967 23.2642 40.2488 23.294 40.5669 23.3537C40.8884 23.41 41.1983 23.5277 41.4966 23.7067C41.7982 23.8857 42.0485 24.1558 42.2473 24.517C42.4462 24.8783 42.5456 25.3622 42.5456 25.9688V31H41.3723V29.9659H41.3127C41.2331 30.1316 41.1006 30.3089 40.915 30.4979C40.7293 30.6868 40.4824 30.8475 40.1742 30.9801C39.8659 31.1127 39.4898 31.179 39.0456 31.179ZM39.2246 30.125C39.6886 30.125 40.0797 30.0339 40.3979 29.8516C40.7194 29.6693 40.9614 29.4339 41.1238 29.1456C41.2895 28.8572 41.3723 28.554 41.3723 28.2358V27.1619C41.3226 27.2216 41.2132 27.2763 41.0442 27.326C40.8785 27.3724 40.6863 27.4138 40.4675 27.4503C40.2521 27.4834 40.0416 27.5133 39.8361 27.5398C39.6339 27.563 39.4699 27.5829 39.3439 27.5994C39.039 27.6392 38.754 27.7038 38.4888 27.7933C38.227 27.8795 38.0149 28.0104 37.8525 28.1861C37.6934 28.3584 37.6138 28.5937 37.6138 28.892C37.6138 29.2997 37.7646 29.608 38.0662 29.8168C38.3712 30.0223 38.7573 30.125 39.2246 30.125ZM48.0082 23.3636V24.358H44.0508V23.3636H48.0082ZM45.2042 21.5341H46.3775V28.8125C46.3775 29.1439 46.4255 29.3925 46.5217 29.5582C46.6211 29.7206 46.747 29.83 46.8995 29.8864C47.0553 29.9394 47.2193 29.9659 47.3917 29.9659C47.521 29.9659 47.627 29.9593 47.7099 29.946C47.7927 29.9295 47.859 29.9162 47.9087 29.9062L48.1474 30.9602C48.0678 30.9901 47.9568 31.0199 47.8143 31.0497C47.6718 31.0829 47.4911 31.0994 47.2724 31.0994C46.9409 31.0994 46.6161 31.0282 46.2979 30.8857C45.9831 30.7431 45.7212 30.526 45.5124 30.2344C45.3069 29.9427 45.2042 29.5748 45.2042 29.1307V21.5341ZM57.2702 20.8182V31H56.0373V22.1108H55.9776L53.4918 23.7614V22.5085L56.0373 20.8182H57.2702ZM63.5195 31.1392C62.7705 31.1392 62.1325 30.9354 61.6055 30.5277C61.0785 30.1167 60.6758 29.5218 60.3974 28.7429C60.119 27.9607 59.9798 27.0161 59.9798 25.9091C59.9798 24.8087 60.119 23.8691 60.3974 23.0902C60.6791 22.308 61.0835 21.7114 61.6104 21.3004C62.1407 20.8861 62.7771 20.679 63.5195 20.679C64.262 20.679 64.8967 20.8861 65.4237 21.3004C65.954 21.7114 66.3583 22.308 66.6367 23.0902C66.9184 23.8691 67.0593 24.8087 67.0593 25.9091C67.0593 27.0161 66.9201 27.9607 66.6417 28.7429C66.3633 29.5218 65.9606 30.1167 65.4336 30.5277C64.9066 30.9354 64.2686 31.1392 63.5195 31.1392ZM63.5195 30.0455C64.262 30.0455 64.8387 29.6875 65.2496 28.9716C65.6606 28.2557 65.8661 27.2348 65.8661 25.9091C65.8661 25.0275 65.7717 24.2768 65.5827 23.657C65.3971 23.0372 65.1287 22.5649 64.7773 22.2401C64.4293 21.9152 64.0101 21.7528 63.5195 21.7528C62.7837 21.7528 62.2087 22.1158 61.7944 22.8416C61.3801 23.5642 61.1729 24.5866 61.1729 25.9091C61.1729 26.7907 61.2657 27.5398 61.4513 28.1562C61.637 28.7727 61.9038 29.2417 62.2518 29.5632C62.6031 29.8847 63.0257 30.0455 63.5195 30.0455ZM72.2695 31.1392C71.5205 31.1392 70.8825 30.9354 70.3555 30.5277C69.8285 30.1167 69.4258 29.5218 69.1474 28.7429C68.869 27.9607 68.7298 27.0161 68.7298 25.9091C68.7298 24.8087 68.869 23.8691 69.1474 23.0902C69.4291 22.308 69.8335 21.7114 70.3604 21.3004C70.8907 20.8861 71.5271 20.679 72.2695 20.679C73.012 20.679 73.6467 20.8861 74.1737 21.3004C74.704 21.7114 75.1083 22.308 75.3867 23.0902C75.6684 23.8691 75.8093 24.8087 75.8093 25.9091C75.8093 27.0161 75.6701 27.9607 75.3917 28.7429C75.1133 29.5218 74.7106 30.1167 74.1836 30.5277C73.6566 30.9354 73.0186 31.1392 72.2695 31.1392ZM72.2695 30.0455C73.012 30.0455 73.5887 29.6875 73.9996 28.9716C74.4106 28.2557 74.6161 27.2348 74.6161 25.9091C74.6161 25.0275 74.5217 24.2768 74.3327 23.657C74.1471 23.0372 73.8787 22.5649 73.5273 22.2401C73.1793 21.9152 72.7601 21.7528 72.2695 21.7528C71.5337 21.7528 70.9587 22.1158 70.5444 22.8416C70.1301 23.5642 69.9229 24.5866 69.9229 25.9091C69.9229 26.7907 70.0157 27.5398 70.2013 28.1562C70.387 28.7727 70.6538 29.2417 71.0018 29.5632C71.3531 29.8847 71.7757 30.0455 72.2695 30.0455ZM81.6559 33.8636V23.3636H82.7894V24.5767H82.9286C83.0148 24.4441 83.1341 24.2751 83.2866 24.0696C83.4424 23.8608 83.6644 23.6752 83.9528 23.5128C84.2444 23.3471 84.6388 23.2642 85.136 23.2642C85.779 23.2642 86.3458 23.425 86.8363 23.7464C87.3268 24.0679 87.7096 24.5237 87.9847 25.1136C88.2598 25.7036 88.3974 26.3996 88.3974 27.2017C88.3974 28.0104 88.2598 28.7114 87.9847 29.3047C87.7096 29.8946 87.3285 30.352 86.8413 30.6768C86.354 30.9983 85.7923 31.1591 85.1559 31.1591C84.6654 31.1591 84.2726 31.0779 83.9776 30.9155C83.6826 30.7498 83.4556 30.5625 83.2965 30.3537C83.1374 30.1416 83.0148 29.9659 82.9286 29.8267H82.8292V33.8636H81.6559ZM82.8093 27.1818C82.8093 27.7585 82.8938 28.2673 83.0629 28.7081C83.2319 29.1456 83.4788 29.4886 83.8036 29.7372C84.1284 29.9825 84.5262 30.1051 84.9968 30.1051C85.4873 30.1051 85.8967 29.9759 86.2248 29.7173C86.5562 29.4555 86.8048 29.1042 86.9705 28.6634C87.1396 28.2192 87.2241 27.7254 87.2241 27.1818C87.2241 26.6449 87.1412 26.161 86.9755 25.7301C86.8131 25.2959 86.5662 24.9529 86.2347 24.701C85.9066 24.4458 85.494 24.3182 84.9968 24.3182C84.5195 24.3182 84.1185 24.4392 83.7937 24.6811C83.4689 24.9197 83.2236 25.2545 83.0579 25.6854C82.8922 26.1129 82.8093 26.6117 82.8093 27.1818ZM95.5962 25.0739L94.5423 25.3722C94.476 25.1965 94.3782 25.0258 94.2489 24.8601C94.123 24.6911 93.9506 24.5518 93.7319 24.4425C93.5131 24.3331 93.2331 24.2784 92.8917 24.2784C92.4244 24.2784 92.0349 24.3861 91.7234 24.6016C91.4151 24.8137 91.261 25.0838 91.261 25.4119C91.261 25.7036 91.3671 25.9339 91.5792 26.103C91.7913 26.272 92.1228 26.4129 92.5735 26.5256L93.707 26.804C94.3898 26.9697 94.8986 27.2232 95.2333 27.5646C95.5681 27.9027 95.7354 28.3385 95.7354 28.8722C95.7354 29.3097 95.6095 29.7008 95.3576 30.0455C95.109 30.3902 94.761 30.6619 94.3136 30.8608C93.8661 31.0597 93.3458 31.1591 92.7525 31.1591C91.9736 31.1591 91.329 30.9901 90.8185 30.652C90.3081 30.3139 89.985 29.8201 89.8491 29.1705L90.9627 28.892C91.0688 29.303 91.2693 29.6113 91.5643 29.8168C91.8626 30.0223 92.252 30.125 92.7326 30.125C93.2795 30.125 93.7137 30.009 94.0352 29.777C94.36 29.5417 94.5224 29.2599 94.5224 28.9318C94.5224 28.6667 94.4296 28.4446 94.244 28.2656C94.0584 28.0833 93.7733 27.9474 93.3888 27.858L92.1161 27.5597C91.4168 27.3939 90.9031 27.1371 90.5749 26.7891C90.2501 26.4377 90.0877 25.9986 90.0877 25.4716C90.0877 25.0407 90.2087 24.6596 90.4506 24.3281C90.6959 23.9967 91.029 23.7365 91.4499 23.5476C91.8742 23.3587 92.3548 23.2642 92.8917 23.2642C93.6474 23.2642 94.2406 23.4299 94.6715 23.7614C95.1057 24.0928 95.4139 24.5303 95.5962 25.0739ZM97.5016 31V23.3636H98.6749V31H97.5016ZM98.0982 22.0909C97.8695 22.0909 97.6723 22.013 97.5066 21.8572C97.3442 21.7015 97.263 21.5142 97.263 21.2955C97.263 21.0767 97.3442 20.8894 97.5066 20.7337C97.6723 20.5779 97.8695 20.5 98.0982 20.5C98.3269 20.5 98.5224 20.5779 98.6848 20.7337C98.8506 20.8894 98.9334 21.0767 98.9334 21.2955C98.9334 21.5142 98.8506 21.7015 98.6848 21.8572C98.5224 22.013 98.3269 22.0909 98.0982 22.0909ZM103.906 34.0227C103.339 34.0227 102.852 33.9498 102.445 33.804C102.037 33.6615 101.697 33.4725 101.425 33.2372C101.157 33.0052 100.943 32.7566 100.784 32.4915L101.719 31.8352C101.825 31.9744 101.959 32.1335 102.121 32.3125C102.284 32.4948 102.506 32.6522 102.788 32.7848C103.073 32.9207 103.446 32.9886 103.906 32.9886C104.523 32.9886 105.031 32.8395 105.433 32.5412C105.834 32.2429 106.034 31.7756 106.034 31.1392V29.5881H105.935C105.848 29.7273 105.726 29.8996 105.567 30.1051C105.411 30.3073 105.186 30.4879 104.891 30.647C104.599 30.8028 104.205 30.8807 103.707 30.8807C103.091 30.8807 102.537 30.7348 102.047 30.4432C101.56 30.1515 101.174 29.7273 100.888 29.1705C100.607 28.6136 100.466 27.9375 100.466 27.142C100.466 26.3598 100.603 25.6787 100.879 25.0987C101.154 24.5154 101.536 24.0646 102.027 23.7464C102.518 23.425 103.084 23.2642 103.727 23.2642C104.224 23.2642 104.619 23.3471 104.911 23.5128C105.205 23.6752 105.431 23.8608 105.587 24.0696C105.746 24.2751 105.868 24.4441 105.955 24.5767H106.074V23.3636H107.207V31.2188C107.207 31.875 107.058 32.4086 106.76 32.8196C106.465 33.2339 106.067 33.5372 105.567 33.7294C105.07 33.925 104.516 34.0227 103.906 34.0227ZM103.866 29.8267C104.337 29.8267 104.735 29.719 105.06 29.5036C105.384 29.2881 105.631 28.9782 105.8 28.5739C105.969 28.1695 106.054 27.6856 106.054 27.1222C106.054 26.572 105.971 26.0864 105.805 25.6655C105.64 25.2446 105.394 24.9148 105.07 24.6761C104.745 24.4375 104.344 24.3182 103.866 24.3182C103.369 24.3182 102.955 24.4441 102.624 24.696C102.295 24.9479 102.049 25.286 101.883 25.7102C101.72 26.1345 101.639 26.6051 101.639 27.1222C101.639 27.6525 101.722 28.1214 101.888 28.5291C102.057 28.9335 102.305 29.2517 102.634 29.4837C102.965 29.7124 103.376 29.8267 103.866 29.8267Z" fill="black"/>
<path d="M227.895 416.074L226.841 416.372C226.775 416.196 226.677 416.026 226.548 415.86C226.422 415.691 226.249 415.552 226.031 415.442C225.812 415.333 225.532 415.278 225.191 415.278C224.723 415.278 224.334 415.386 224.022 415.602C223.714 415.814 223.56 416.084 223.56 416.412C223.56 416.704 223.666 416.934 223.878 417.103C224.09 417.272 224.422 417.413 224.872 417.526L226.006 417.804C226.689 417.97 227.197 418.223 227.532 418.565C227.867 418.903 228.034 419.339 228.034 419.872C228.034 420.31 227.908 420.701 227.656 421.045C227.408 421.39 227.06 421.662 226.612 421.861C226.165 422.06 225.645 422.159 225.051 422.159C224.272 422.159 223.628 421.99 223.117 421.652C222.607 421.314 222.284 420.82 222.148 420.17L223.262 419.892C223.368 420.303 223.568 420.611 223.863 420.817C224.161 421.022 224.551 421.125 225.031 421.125C225.578 421.125 226.012 421.009 226.334 420.777C226.659 420.542 226.821 420.26 226.821 419.932C226.821 419.667 226.728 419.445 226.543 419.266C226.357 419.083 226.072 418.947 225.688 418.858L224.415 418.56C223.716 418.394 223.202 418.137 222.874 417.789C222.549 417.438 222.387 416.999 222.387 416.472C222.387 416.041 222.508 415.66 222.749 415.328C222.995 414.997 223.328 414.737 223.749 414.548C224.173 414.359 224.654 414.264 225.191 414.264C225.946 414.264 226.539 414.43 226.97 414.761C227.405 415.093 227.713 415.53 227.895 416.074ZM233.121 414.364V415.358H229.164V414.364H233.121ZM230.317 412.534H231.491V419.812C231.491 420.144 231.539 420.393 231.635 420.558C231.734 420.721 231.86 420.83 232.013 420.886C232.169 420.939 232.333 420.966 232.505 420.966C232.634 420.966 232.74 420.959 232.823 420.946C232.906 420.929 232.972 420.916 233.022 420.906L233.261 421.96C233.181 421.99 233.07 422.02 232.928 422.05C232.785 422.083 232.604 422.099 232.386 422.099C232.054 422.099 231.729 422.028 231.411 421.886C231.096 421.743 230.835 421.526 230.626 421.234C230.42 420.943 230.317 420.575 230.317 420.131V412.534ZM238.006 422.159C237.27 422.159 236.636 421.997 236.102 421.672C235.572 421.344 235.162 420.886 234.874 420.3C234.589 419.71 234.446 419.024 234.446 418.241C234.446 417.459 234.589 416.77 234.874 416.173C235.162 415.573 235.563 415.106 236.077 414.771C236.594 414.433 237.197 414.264 237.887 414.264C238.284 414.264 238.677 414.33 239.065 414.463C239.453 414.596 239.806 414.811 240.124 415.109C240.442 415.404 240.696 415.795 240.885 416.283C241.074 416.77 241.168 417.37 241.168 418.082V418.58H235.282V417.565H239.975C239.975 417.134 239.889 416.75 239.716 416.412C239.547 416.074 239.305 415.807 238.99 415.612C238.679 415.416 238.311 415.318 237.887 415.318C237.419 415.318 237.015 415.434 236.674 415.666C236.336 415.895 236.075 416.193 235.893 416.561C235.711 416.929 235.62 417.323 235.62 417.744V418.42C235.62 418.997 235.719 419.486 235.918 419.887C236.12 420.285 236.4 420.588 236.758 420.797C237.116 421.002 237.532 421.105 238.006 421.105C238.314 421.105 238.593 421.062 238.841 420.976C239.093 420.886 239.31 420.754 239.493 420.578C239.675 420.399 239.816 420.177 239.915 419.912L241.049 420.23C240.929 420.615 240.729 420.953 240.447 421.244C240.165 421.533 239.817 421.758 239.403 421.92C238.989 422.08 238.523 422.159 238.006 422.159ZM245.2 422.179C244.716 422.179 244.277 422.088 243.882 421.906C243.488 421.72 243.175 421.453 242.943 421.105C242.711 420.754 242.595 420.33 242.595 419.832C242.595 419.395 242.681 419.04 242.853 418.768C243.026 418.493 243.256 418.278 243.544 418.122C243.833 417.966 244.151 417.85 244.499 417.774C244.85 417.695 245.203 417.632 245.558 417.585C246.022 417.526 246.398 417.481 246.686 417.451C246.978 417.418 247.19 417.363 247.323 417.287C247.459 417.211 247.527 417.078 247.527 416.889V416.849C247.527 416.359 247.392 415.978 247.124 415.706C246.859 415.434 246.456 415.298 245.916 415.298C245.356 415.298 244.917 415.421 244.598 415.666C244.28 415.911 244.056 416.173 243.927 416.452L242.814 416.054C243.012 415.59 243.278 415.229 243.609 414.97C243.944 414.708 244.308 414.526 244.703 414.423C245.1 414.317 245.492 414.264 245.876 414.264C246.121 414.264 246.403 414.294 246.721 414.354C247.043 414.41 247.353 414.528 247.651 414.707C247.953 414.886 248.203 415.156 248.402 415.517C248.6 415.878 248.7 416.362 248.7 416.969V422H247.527V420.966H247.467C247.387 421.132 247.255 421.309 247.069 421.498C246.884 421.687 246.637 421.848 246.328 421.98C246.02 422.113 245.644 422.179 245.2 422.179ZM245.379 421.125C245.843 421.125 246.234 421.034 246.552 420.852C246.874 420.669 247.116 420.434 247.278 420.146C247.444 419.857 247.527 419.554 247.527 419.236V418.162C247.477 418.222 247.368 418.276 247.199 418.326C247.033 418.372 246.841 418.414 246.622 418.45C246.406 418.483 246.196 418.513 245.99 418.54C245.788 418.563 245.624 418.583 245.498 418.599C245.193 418.639 244.908 418.704 244.643 418.793C244.381 418.879 244.169 419.01 244.007 419.186C243.848 419.358 243.768 419.594 243.768 419.892C243.768 420.3 243.919 420.608 244.221 420.817C244.525 421.022 244.912 421.125 245.379 421.125ZM250.841 422V414.364H251.975V415.557H252.074C252.233 415.149 252.49 414.833 252.845 414.607C253.2 414.379 253.626 414.264 254.123 414.264C254.626 414.264 255.046 414.379 255.381 414.607C255.719 414.833 255.982 415.149 256.171 415.557H256.251C256.446 415.162 256.739 414.849 257.131 414.617C257.522 414.382 257.991 414.264 258.537 414.264C259.22 414.264 259.779 414.478 260.213 414.906C260.647 415.33 260.864 415.991 260.864 416.889V422H259.691V416.889C259.691 416.326 259.537 415.923 259.229 415.681C258.92 415.439 258.557 415.318 258.14 415.318C257.603 415.318 257.187 415.481 256.892 415.805C256.597 416.127 256.449 416.535 256.449 417.028V422H255.256V416.77C255.256 416.336 255.115 415.986 254.834 415.721C254.552 415.452 254.189 415.318 253.745 415.318C253.44 415.318 253.155 415.399 252.89 415.562C252.628 415.724 252.416 415.95 252.253 416.238C252.094 416.523 252.015 416.853 252.015 417.227V422H250.841ZM270.268 414.364V415.358H266.311V414.364H270.268ZM267.464 412.534H268.637V419.812C268.637 420.144 268.685 420.393 268.781 420.558C268.881 420.721 269.007 420.83 269.159 420.886C269.315 420.939 269.479 420.966 269.651 420.966C269.781 420.966 269.887 420.959 269.97 420.946C270.052 420.929 270.119 420.916 270.169 420.906L270.407 421.96C270.328 421.99 270.217 422.02 270.074 422.05C269.932 422.083 269.751 422.099 269.532 422.099C269.201 422.099 268.876 422.028 268.558 421.886C268.243 421.743 267.981 421.526 267.772 421.234C267.567 420.943 267.464 420.575 267.464 420.131V412.534ZM272.033 422V414.364H273.166V415.517H273.246C273.385 415.139 273.637 414.833 274.002 414.597C274.366 414.362 274.777 414.244 275.235 414.244C275.321 414.244 275.428 414.246 275.558 414.249C275.687 414.253 275.785 414.258 275.851 414.264V415.457C275.811 415.447 275.72 415.433 275.578 415.413C275.438 415.389 275.291 415.378 275.135 415.378C274.764 415.378 274.432 415.456 274.141 415.612C273.852 415.764 273.624 415.976 273.455 416.248C273.289 416.516 273.206 416.823 273.206 417.168V422H272.033ZM279.489 422.179C279.005 422.179 278.566 422.088 278.172 421.906C277.777 421.72 277.464 421.453 277.232 421.105C277 420.754 276.884 420.33 276.884 419.832C276.884 419.395 276.97 419.04 277.142 418.768C277.315 418.493 277.545 418.278 277.833 418.122C278.122 417.966 278.44 417.85 278.788 417.774C279.139 417.695 279.492 417.632 279.847 417.585C280.311 417.526 280.687 417.481 280.975 417.451C281.267 417.418 281.479 417.363 281.612 417.287C281.748 417.211 281.816 417.078 281.816 416.889V416.849C281.816 416.359 281.681 415.978 281.413 415.706C281.148 415.434 280.745 415.298 280.205 415.298C279.645 415.298 279.206 415.421 278.887 415.666C278.569 415.911 278.346 416.173 278.216 416.452L277.103 416.054C277.301 415.59 277.567 415.229 277.898 414.97C278.233 414.708 278.597 414.526 278.992 414.423C279.39 414.317 279.781 414.264 280.165 414.264C280.41 414.264 280.692 414.294 281.01 414.354C281.332 414.41 281.642 414.528 281.94 414.707C282.242 414.886 282.492 415.156 282.691 415.517C282.89 415.878 282.989 416.362 282.989 416.969V422H281.816V420.966H281.756C281.676 421.132 281.544 421.309 281.358 421.498C281.173 421.687 280.926 421.848 280.618 421.98C280.309 422.113 279.933 422.179 279.489 422.179ZM279.668 421.125C280.132 421.125 280.523 421.034 280.841 420.852C281.163 420.669 281.405 420.434 281.567 420.146C281.733 419.857 281.816 419.554 281.816 419.236V418.162C281.766 418.222 281.657 418.276 281.488 418.326C281.322 418.372 281.13 418.414 280.911 418.45C280.695 418.483 280.485 418.513 280.279 418.54C280.077 418.563 279.913 418.583 279.787 418.599C279.482 418.639 279.197 418.704 278.932 418.793C278.67 418.879 278.458 419.01 278.296 419.186C278.137 419.358 278.057 419.594 278.057 419.892C278.057 420.3 278.208 420.608 278.51 420.817C278.815 421.022 279.201 421.125 279.668 421.125ZM285.131 424.864V414.364H286.264V415.577H286.403C286.489 415.444 286.609 415.275 286.761 415.07C286.917 414.861 287.139 414.675 287.427 414.513C287.719 414.347 288.113 414.264 288.611 414.264C289.254 414.264 289.82 414.425 290.311 414.746C290.801 415.068 291.184 415.524 291.459 416.114C291.734 416.704 291.872 417.4 291.872 418.202C291.872 419.01 291.734 419.711 291.459 420.305C291.184 420.895 290.803 421.352 290.316 421.677C289.829 421.998 289.267 422.159 288.631 422.159C288.14 422.159 287.747 422.078 287.452 421.915C287.157 421.75 286.93 421.562 286.771 421.354C286.612 421.142 286.489 420.966 286.403 420.827H286.304V424.864H285.131ZM286.284 418.182C286.284 418.759 286.368 419.267 286.537 419.708C286.706 420.146 286.953 420.489 287.278 420.737C287.603 420.982 288.001 421.105 288.471 421.105C288.962 421.105 289.371 420.976 289.699 420.717C290.031 420.455 290.279 420.104 290.445 419.663C290.614 419.219 290.699 418.725 290.699 418.182C290.699 417.645 290.616 417.161 290.45 416.73C290.288 416.296 290.041 415.953 289.709 415.701C289.381 415.446 288.969 415.318 288.471 415.318C287.994 415.318 287.593 415.439 287.268 415.681C286.943 415.92 286.698 416.254 286.532 416.685C286.367 417.113 286.284 417.612 286.284 418.182Z" fill="black"/>
<path d="M355.328 478.159C354.612 478.159 353.995 477.99 353.478 477.652C352.961 477.314 352.563 476.848 352.285 476.255C352.006 475.662 351.867 474.984 351.867 474.222C351.867 473.446 352.01 472.762 352.295 472.168C352.583 471.572 352.984 471.106 353.498 470.771C354.015 470.433 354.618 470.264 355.308 470.264C355.845 470.264 356.328 470.364 356.759 470.562C357.19 470.761 357.543 471.04 357.818 471.398C358.093 471.756 358.264 472.173 358.33 472.651H357.157C357.068 472.303 356.869 471.994 356.56 471.726C356.256 471.454 355.845 471.318 355.328 471.318C354.87 471.318 354.469 471.437 354.124 471.676C353.783 471.911 353.516 472.245 353.324 472.675C353.135 473.103 353.041 473.605 353.041 474.182C353.041 474.772 353.133 475.286 353.319 475.723C353.508 476.161 353.773 476.5 354.114 476.742C354.459 476.984 354.863 477.105 355.328 477.105C355.632 477.105 355.909 477.052 356.158 476.946C356.406 476.84 356.617 476.688 356.789 476.489C356.961 476.29 357.084 476.051 357.157 475.773H358.33C358.264 476.223 358.1 476.629 357.838 476.991C357.58 477.349 357.237 477.634 356.809 477.846C356.385 478.055 355.891 478.159 355.328 478.159ZM363.148 478.159C362.458 478.159 361.854 477.995 361.333 477.667C360.816 477.339 360.412 476.88 360.12 476.29C359.832 475.7 359.688 475.01 359.688 474.222C359.688 473.426 359.832 472.732 360.12 472.138C360.412 471.545 360.816 471.085 361.333 470.756C361.854 470.428 362.458 470.264 363.148 470.264C363.837 470.264 364.44 470.428 364.957 470.756C365.478 471.085 365.882 471.545 366.171 472.138C366.462 472.732 366.608 473.426 366.608 474.222C366.608 475.01 366.462 475.7 366.171 476.29C365.882 476.88 365.478 477.339 364.957 477.667C364.44 477.995 363.837 478.159 363.148 478.159ZM363.148 477.105C363.671 477.105 364.102 476.971 364.44 476.702C364.778 476.434 365.029 476.081 365.191 475.643C365.354 475.206 365.435 474.732 365.435 474.222C365.435 473.711 365.354 473.236 365.191 472.795C365.029 472.354 364.778 471.998 364.44 471.726C364.102 471.454 363.671 471.318 363.148 471.318C362.624 471.318 362.193 471.454 361.855 471.726C361.517 471.998 361.267 472.354 361.104 472.795C360.942 473.236 360.861 473.711 360.861 474.222C360.861 474.732 360.942 475.206 361.104 475.643C361.267 476.081 361.517 476.434 361.855 476.702C362.193 476.971 362.624 477.105 363.148 477.105ZM369.572 467.818V478H368.399V467.818H369.572ZM374.605 478.159C373.968 478.159 373.407 477.998 372.919 477.677C372.432 477.352 372.051 476.895 371.776 476.305C371.501 475.711 371.363 475.01 371.363 474.202C371.363 473.4 371.501 472.704 371.776 472.114C372.051 471.524 372.434 471.068 372.924 470.746C373.415 470.425 373.982 470.264 374.625 470.264C375.122 470.264 375.515 470.347 375.803 470.513C376.095 470.675 376.317 470.861 376.469 471.07C376.625 471.275 376.746 471.444 376.832 471.577H376.932V467.818H378.105V478H376.971V476.827H376.832C376.746 476.966 376.623 477.142 376.464 477.354C376.305 477.562 376.078 477.75 375.783 477.915C375.488 478.078 375.095 478.159 374.605 478.159ZM374.764 477.105C375.235 477.105 375.632 476.982 375.957 476.737C376.282 476.489 376.529 476.146 376.698 475.708C376.867 475.267 376.951 474.759 376.951 474.182C376.951 473.612 376.869 473.113 376.703 472.685C376.537 472.254 376.292 471.92 375.967 471.681C375.642 471.439 375.241 471.318 374.764 471.318C374.267 471.318 373.852 471.446 373.521 471.701C373.193 471.953 372.946 472.296 372.78 472.73C372.618 473.161 372.537 473.645 372.537 474.182C372.537 474.725 372.62 475.219 372.785 475.663C372.954 476.104 373.203 476.455 373.531 476.717C373.862 476.976 374.273 477.105 374.764 477.105ZM386.084 478L383.758 470.364H384.991L386.641 476.21H386.721L388.351 470.364H389.604L391.215 476.19H391.294L392.945 470.364H394.178L391.851 478H390.698L389.027 472.134H388.908L387.238 478H386.084ZM397.976 478.179C397.492 478.179 397.053 478.088 396.659 477.906C396.264 477.72 395.951 477.453 395.719 477.105C395.487 476.754 395.371 476.33 395.371 475.832C395.371 475.395 395.457 475.04 395.63 474.768C395.802 474.493 396.032 474.278 396.321 474.122C396.609 473.966 396.927 473.85 397.275 473.774C397.627 473.695 397.98 473.632 398.334 473.585C398.798 473.526 399.174 473.481 399.463 473.451C399.754 473.418 399.967 473.363 400.099 473.287C400.235 473.211 400.303 473.078 400.303 472.889V472.849C400.303 472.359 400.169 471.978 399.9 471.706C399.635 471.434 399.232 471.298 398.692 471.298C398.132 471.298 397.693 471.421 397.375 471.666C397.057 471.911 396.833 472.173 396.704 472.452L395.59 472.054C395.789 471.59 396.054 471.229 396.385 470.97C396.72 470.708 397.085 470.526 397.479 470.423C397.877 470.317 398.268 470.264 398.652 470.264C398.898 470.264 399.179 470.294 399.498 470.354C399.819 470.41 400.129 470.528 400.427 470.707C400.729 470.886 400.979 471.156 401.178 471.517C401.377 471.878 401.476 472.362 401.476 472.969V478H400.303V476.966H400.243C400.164 477.132 400.031 477.309 399.846 477.498C399.66 477.687 399.413 477.848 399.105 477.98C398.797 478.113 398.42 478.179 397.976 478.179ZM398.155 477.125C398.619 477.125 399.01 477.034 399.329 476.852C399.65 476.669 399.892 476.434 400.054 476.146C400.22 475.857 400.303 475.554 400.303 475.236V474.162C400.253 474.222 400.144 474.276 399.975 474.326C399.809 474.372 399.617 474.414 399.398 474.45C399.183 474.483 398.972 474.513 398.767 474.54C398.565 474.563 398.401 474.583 398.275 474.599C397.97 474.639 397.685 474.704 397.419 474.793C397.158 474.879 396.946 475.01 396.783 475.186C396.624 475.358 396.544 475.594 396.544 475.892C396.544 476.3 396.695 476.608 396.997 476.817C397.302 477.022 397.688 477.125 398.155 477.125ZM406.939 470.364V471.358H402.981V470.364H406.939ZM404.135 468.534H405.308V475.812C405.308 476.144 405.356 476.393 405.452 476.558C405.552 476.721 405.678 476.83 405.83 476.886C405.986 476.939 406.15 476.966 406.322 476.966C406.452 476.966 406.558 476.959 406.641 476.946C406.723 476.929 406.79 476.916 406.839 476.906L407.078 477.96C406.998 477.99 406.887 478.02 406.745 478.05C406.602 478.083 406.422 478.099 406.203 478.099C405.872 478.099 405.547 478.028 405.229 477.886C404.914 477.743 404.652 477.526 404.443 477.234C404.238 476.943 404.135 476.575 404.135 476.131V468.534ZM411.823 478.159C411.088 478.159 410.453 477.997 409.919 477.672C409.389 477.344 408.98 476.886 408.691 476.3C408.406 475.71 408.264 475.024 408.264 474.241C408.264 473.459 408.406 472.77 408.691 472.173C408.98 471.573 409.381 471.106 409.894 470.771C410.411 470.433 411.015 470.264 411.704 470.264C412.102 470.264 412.495 470.33 412.882 470.463C413.27 470.596 413.623 470.811 413.941 471.109C414.259 471.404 414.513 471.795 414.702 472.283C414.891 472.77 414.985 473.37 414.985 474.082V474.58H409.099V473.565H413.792C413.792 473.134 413.706 472.75 413.534 472.412C413.365 472.074 413.123 471.807 412.808 471.612C412.496 471.416 412.128 471.318 411.704 471.318C411.237 471.318 410.832 471.434 410.491 471.666C410.153 471.895 409.893 472.193 409.71 472.561C409.528 472.929 409.437 473.323 409.437 473.744V474.42C409.437 474.997 409.536 475.486 409.735 475.887C409.938 476.285 410.218 476.588 410.576 476.797C410.934 477.002 411.349 477.105 411.823 477.105C412.132 477.105 412.41 477.062 412.659 476.976C412.911 476.886 413.128 476.754 413.31 476.578C413.492 476.399 413.633 476.177 413.733 475.912L414.866 476.23C414.747 476.615 414.546 476.953 414.264 477.244C413.983 477.533 413.635 477.758 413.22 477.92C412.806 478.08 412.34 478.159 411.823 478.159ZM416.77 478V470.364H417.904V471.517H417.983C418.122 471.139 418.374 470.833 418.739 470.597C419.103 470.362 419.514 470.244 419.972 470.244C420.058 470.244 420.166 470.246 420.295 470.249C420.424 470.253 420.522 470.258 420.588 470.264V471.457C420.549 471.447 420.457 471.433 420.315 471.413C420.176 471.389 420.028 471.378 419.872 471.378C419.501 471.378 419.17 471.456 418.878 471.612C418.59 471.764 418.361 471.976 418.192 472.248C418.026 472.516 417.943 472.823 417.943 473.168V478H416.77ZM425.917 478V470.364H427.09V478H425.917ZM426.513 469.091C426.285 469.091 426.087 469.013 425.922 468.857C425.759 468.701 425.678 468.514 425.678 468.295C425.678 468.077 425.759 467.889 425.922 467.734C426.087 467.578 426.285 467.5 426.513 467.5C426.742 467.5 426.937 467.578 427.1 467.734C427.266 467.889 427.348 468.077 427.348 468.295C427.348 468.514 427.266 468.701 427.1 468.857C426.937 469.013 426.742 469.091 426.513 469.091ZM430.412 473.406V478H429.239V470.364H430.372V471.557H430.472C430.651 471.169 430.923 470.857 431.287 470.622C431.652 470.384 432.122 470.264 432.699 470.264C433.216 470.264 433.669 470.37 434.056 470.582C434.444 470.791 434.746 471.109 434.961 471.537C435.177 471.961 435.284 472.498 435.284 473.148V478H434.111V473.227C434.111 472.627 433.955 472.16 433.644 471.825C433.332 471.487 432.905 471.318 432.361 471.318C431.987 471.318 431.652 471.399 431.357 471.562C431.065 471.724 430.835 471.961 430.666 472.273C430.497 472.584 430.412 472.962 430.412 473.406ZM438.602 467.818V478H437.428V467.818H438.602ZM443.952 478.159C443.217 478.159 442.582 477.997 442.048 477.672C441.518 477.344 441.109 476.886 440.82 476.3C440.535 475.71 440.393 475.024 440.393 474.241C440.393 473.459 440.535 472.77 440.82 472.173C441.109 471.573 441.51 471.106 442.023 470.771C442.54 470.433 443.144 470.264 443.833 470.264C444.231 470.264 444.623 470.33 445.011 470.463C445.399 470.596 445.752 470.811 446.07 471.109C446.388 471.404 446.642 471.795 446.831 472.283C447.02 472.77 447.114 473.37 447.114 474.082V474.58H441.228V473.565H445.921C445.921 473.134 445.835 472.75 445.663 472.412C445.494 472.074 445.252 471.807 444.937 471.612C444.625 471.416 444.257 471.318 443.833 471.318C443.366 471.318 442.961 471.434 442.62 471.666C442.282 471.895 442.022 472.193 441.839 472.561C441.657 472.929 441.566 473.323 441.566 473.744V474.42C441.566 474.997 441.665 475.486 441.864 475.887C442.066 476.285 442.347 476.588 442.704 476.797C443.062 477.002 443.478 477.105 443.952 477.105C444.261 477.105 444.539 477.062 444.788 476.976C445.039 476.886 445.257 476.754 445.439 476.578C445.621 476.399 445.762 476.177 445.861 475.912L446.995 476.23C446.876 476.615 446.675 476.953 446.393 477.244C446.112 477.533 445.764 477.758 445.349 477.92C444.935 478.08 444.469 478.159 443.952 478.159ZM452.22 470.364V471.358H448.263V470.364H452.22ZM449.416 468.534H450.589V475.812C450.589 476.144 450.637 476.393 450.734 476.558C450.833 476.721 450.959 476.83 451.111 476.886C451.267 476.939 451.431 476.966 451.604 476.966C451.733 476.966 451.839 476.959 451.922 476.946C452.005 476.929 452.071 476.916 452.121 476.906L452.359 477.96C452.28 477.99 452.169 478.02 452.026 478.05C451.884 478.083 451.703 478.099 451.484 478.099C451.153 478.099 450.828 478.028 450.51 477.886C450.195 477.743 449.933 477.526 449.724 477.234C449.519 476.943 449.416 476.575 449.416 476.131V468.534ZM369.421 487.364V488.358H365.304V487.364H369.421ZM366.537 495V486.31C366.537 485.872 366.64 485.508 366.845 485.216C367.051 484.924 367.318 484.705 367.646 484.56C367.974 484.414 368.32 484.341 368.685 484.341C368.973 484.341 369.209 484.364 369.391 484.411C369.573 484.457 369.709 484.5 369.799 484.54L369.46 485.554C369.401 485.534 369.318 485.509 369.212 485.479C369.109 485.45 368.973 485.435 368.804 485.435C368.416 485.435 368.136 485.532 367.964 485.728C367.795 485.924 367.71 486.21 367.71 486.588V495H366.537ZM371.065 495V487.364H372.199V488.517H372.278C372.417 488.139 372.669 487.833 373.034 487.597C373.398 487.362 373.809 487.244 374.267 487.244C374.353 487.244 374.461 487.246 374.59 487.249C374.719 487.253 374.817 487.258 374.883 487.264V488.457C374.843 488.447 374.752 488.433 374.61 488.413C374.471 488.389 374.323 488.378 374.167 488.378C373.796 488.378 373.465 488.456 373.173 488.612C372.885 488.764 372.656 488.976 372.487 489.248C372.321 489.516 372.238 489.823 372.238 490.168V495H371.065ZM379.144 495.159C378.455 495.159 377.85 494.995 377.329 494.667C376.812 494.339 376.408 493.88 376.116 493.29C375.828 492.7 375.684 492.01 375.684 491.222C375.684 490.426 375.828 489.732 376.116 489.138C376.408 488.545 376.812 488.085 377.329 487.756C377.85 487.428 378.455 487.264 379.144 487.264C379.833 487.264 380.437 487.428 380.954 487.756C381.474 488.085 381.878 488.545 382.167 489.138C382.458 489.732 382.604 490.426 382.604 491.222C382.604 492.01 382.458 492.7 382.167 493.29C381.878 493.88 381.474 494.339 380.954 494.667C380.437 494.995 379.833 495.159 379.144 495.159ZM379.144 494.105C379.668 494.105 380.098 493.971 380.437 493.702C380.775 493.434 381.025 493.081 381.187 492.643C381.35 492.206 381.431 491.732 381.431 491.222C381.431 490.711 381.35 490.236 381.187 489.795C381.025 489.354 380.775 488.998 380.437 488.726C380.098 488.454 379.668 488.318 379.144 488.318C378.62 488.318 378.189 488.454 377.851 488.726C377.513 488.998 377.263 489.354 377.101 489.795C376.938 490.236 376.857 490.711 376.857 491.222C376.857 491.732 376.938 492.206 377.101 492.643C377.263 493.081 377.513 493.434 377.851 493.702C378.189 493.971 378.62 494.105 379.144 494.105ZM384.395 495V487.364H385.529V488.557H385.628C385.787 488.149 386.044 487.833 386.399 487.607C386.753 487.379 387.179 487.264 387.676 487.264C388.18 487.264 388.599 487.379 388.934 487.607C389.272 487.833 389.536 488.149 389.725 488.557H389.804C390 488.162 390.293 487.849 390.684 487.617C391.075 487.382 391.544 487.264 392.091 487.264C392.774 487.264 393.332 487.478 393.767 487.906C394.201 488.33 394.418 488.991 394.418 489.889V495H393.245V489.889C393.245 489.326 393.09 488.923 392.782 488.681C392.474 488.439 392.111 488.318 391.693 488.318C391.157 488.318 390.741 488.481 390.446 488.805C390.151 489.127 390.003 489.535 390.003 490.028V495H388.81V489.77C388.81 489.336 388.669 488.986 388.387 488.721C388.106 488.452 387.743 488.318 387.299 488.318C386.994 488.318 386.709 488.399 386.443 488.562C386.182 488.724 385.969 488.95 385.807 489.238C385.648 489.523 385.568 489.853 385.568 490.227V495H384.395ZM405.91 489.074L404.856 489.372C404.789 489.196 404.692 489.026 404.562 488.86C404.436 488.691 404.264 488.552 404.045 488.442C403.827 488.333 403.547 488.278 403.205 488.278C402.738 488.278 402.348 488.386 402.037 488.602C401.729 488.814 401.574 489.084 401.574 489.412C401.574 489.704 401.681 489.934 401.893 490.103C402.105 490.272 402.436 490.413 402.887 490.526L404.021 490.804C404.703 490.97 405.212 491.223 405.547 491.565C405.882 491.903 406.049 492.339 406.049 492.872C406.049 493.31 405.923 493.701 405.671 494.045C405.422 494.39 405.074 494.662 404.627 494.861C404.18 495.06 403.659 495.159 403.066 495.159C402.287 495.159 401.642 494.99 401.132 494.652C400.622 494.314 400.298 493.82 400.163 493.17L401.276 492.892C401.382 493.303 401.583 493.611 401.878 493.817C402.176 494.022 402.565 494.125 403.046 494.125C403.593 494.125 404.027 494.009 404.349 493.777C404.673 493.542 404.836 493.26 404.836 492.932C404.836 492.667 404.743 492.445 404.557 492.266C404.372 492.083 404.087 491.947 403.702 491.858L402.43 491.56C401.73 491.394 401.217 491.137 400.888 490.789C400.564 490.438 400.401 489.999 400.401 489.472C400.401 489.041 400.522 488.66 400.764 488.328C401.009 487.997 401.342 487.737 401.763 487.548C402.188 487.359 402.668 487.264 403.205 487.264C403.961 487.264 404.554 487.43 404.985 487.761C405.419 488.093 405.727 488.53 405.91 489.074ZM412.628 491.878V487.364H413.801V495H412.628V493.707H412.548C412.369 494.095 412.091 494.425 411.713 494.697C411.335 494.965 410.858 495.099 410.281 495.099C409.804 495.099 409.379 494.995 409.008 494.786C408.637 494.574 408.345 494.256 408.133 493.832C407.921 493.404 407.815 492.866 407.815 492.216V487.364H408.988V492.136C408.988 492.693 409.144 493.137 409.456 493.469C409.771 493.8 410.172 493.966 410.659 493.966C410.95 493.966 411.247 493.891 411.549 493.742C411.854 493.593 412.109 493.364 412.314 493.056C412.523 492.748 412.628 492.355 412.628 491.878ZM415.95 497.864V487.364H417.083V488.577H417.223C417.309 488.444 417.428 488.275 417.581 488.07C417.736 487.861 417.958 487.675 418.247 487.513C418.538 487.347 418.933 487.264 419.43 487.264C420.073 487.264 420.64 487.425 421.13 487.746C421.621 488.068 422.004 488.524 422.279 489.114C422.554 489.704 422.691 490.4 422.691 491.202C422.691 492.01 422.554 492.711 422.279 493.305C422.004 493.895 421.622 494.352 421.135 494.677C420.648 494.998 420.086 495.159 419.45 495.159C418.959 495.159 418.567 495.078 418.272 494.915C417.977 494.75 417.75 494.562 417.59 494.354C417.431 494.142 417.309 493.966 417.223 493.827H417.123V497.864H415.95ZM417.103 491.182C417.103 491.759 417.188 492.267 417.357 492.708C417.526 493.146 417.773 493.489 418.098 493.737C418.422 493.982 418.82 494.105 419.291 494.105C419.781 494.105 420.191 493.976 420.519 493.717C420.85 493.455 421.099 493.104 421.264 492.663C421.434 492.219 421.518 491.725 421.518 491.182C421.518 490.645 421.435 490.161 421.269 489.73C421.107 489.296 420.86 488.953 420.529 488.701C420.201 488.446 419.788 488.318 419.291 488.318C418.813 488.318 418.412 488.439 418.088 488.681C417.763 488.92 417.518 489.254 417.352 489.685C417.186 490.113 417.103 490.612 417.103 491.182ZM424.481 497.864V487.364H425.615V488.577H425.754C425.84 488.444 425.959 488.275 426.112 488.07C426.268 487.861 426.49 487.675 426.778 487.513C427.07 487.347 427.464 487.264 427.961 487.264C428.604 487.264 429.171 487.425 429.661 487.746C430.152 488.068 430.535 488.524 430.81 489.114C431.085 489.704 431.223 490.4 431.223 491.202C431.223 492.01 431.085 492.711 430.81 493.305C430.535 493.895 430.154 494.352 429.666 494.677C429.179 494.998 428.617 495.159 427.981 495.159C427.491 495.159 427.098 495.078 426.803 494.915C426.508 494.75 426.281 494.562 426.122 494.354C425.963 494.142 425.84 493.966 425.754 493.827H425.654V497.864H424.481ZM425.634 491.182C425.634 491.759 425.719 492.267 425.888 492.708C426.057 493.146 426.304 493.489 426.629 493.737C426.954 493.982 427.351 494.105 427.822 494.105C428.313 494.105 428.722 493.976 429.05 493.717C429.381 493.455 429.63 493.104 429.796 492.663C429.965 492.219 430.049 491.725 430.049 491.182C430.049 490.645 429.966 490.161 429.801 489.73C429.638 489.296 429.391 488.953 429.06 488.701C428.732 488.446 428.319 488.318 427.822 488.318C427.345 488.318 426.944 488.439 426.619 488.681C426.294 488.92 426.049 489.254 425.883 489.685C425.717 490.113 425.634 490.612 425.634 491.182ZM434.186 484.818V495H433.012V484.818H434.186ZM437.09 497.864C436.891 497.864 436.714 497.847 436.558 497.814C436.403 497.784 436.295 497.754 436.235 497.724L436.533 496.69C436.819 496.763 437.07 496.79 437.289 496.77C437.508 496.75 437.702 496.652 437.871 496.477C438.043 496.304 438.201 496.024 438.343 495.636L438.562 495.04L435.738 487.364H437.011L439.119 493.449H439.198L441.306 487.364H442.579L439.337 496.114C439.192 496.508 439.011 496.835 438.796 497.093C438.58 497.355 438.33 497.549 438.045 497.675C437.763 497.801 437.445 497.864 437.09 497.864Z" fill="black"/>
</svg>
