<?xml version="1.0" encoding="UTF-8" standalone="no"?>
<svg
   xmlns:svg="http://www.w3.org/2000/svg"
   xmlns="http://www.w3.org/2000/svg"
   xmlns:sodipodi="http://sodipodi.sourceforge.net/DTD/sodipodi-0.dtd"
   xmlns:inkscape="http://www.inkscape.org/namespaces/inkscape"
   sodipodi:docname="VLE_Apparatus.svg"
   inkscape:version="1.1-dev (b530929, 2020-05-03)"
   id="svg6"
   version="1.1"
   viewBox="0 0 109.63288 150.44016"
   height="150.44016mm"
   width="109.63288mm">
  <defs
     id="defs2" />
  <sodipodi:namedview
     fit-margin-bottom="1"
     fit-margin-right="1"
     fit-margin-left="1"
     lock-margins="true"
     fit-margin-top="1"
     showgrid="false"
     inkscape:current-layer="layer1"
     inkscape:document-units="mm"
     inkscape:cy="281.71992"
     inkscape:cx="45.986976"
     inkscape:zoom="1.4646891"
     inkscape:pageshadow="2"
     inkscape:pageopacity="0.0"
     borderopacity="1.0"
     bordercolor="#666666"
     pagecolor="#ffffff"
     id="base" />
  <g
     transform="translate(-38.560444,-54.680894)"
     id="layer1"
     inkscape:groupmode="layer"
     inkscape:label="Layer 1">
    <rect
       rx="7.5"
       y="93.359947"
       x="44.484993"
       height="81.068047"
       width="44.484993"
       id="rect823"
       style="fill:#ffffff;stroke:#000000;stroke-width:0.132292" />
    <rect
       y="79.662811"
       x="64.488937"
       height="8.9963713"
       width="1.5354509"
       id="rect845"
       style="fill:#ffffff;stroke:#000000;stroke-width:0.132292" />
    <path
       sodipodi:nodetypes="cccccccccccccccccccccccccccccccccccccccccccc"
       id="path825"
       d="m 49.950757,170.64111 0.103473,-30.05619 c 0.82778,-5.38057 12.13696,-6.85987 12.13696,-6.85987 V 88.67732 l 6.445969,-0.103473 v 6.834756 L 115.3003,107.8045 115.19683,91.3113 c 0,0 -9.46235,-0.379326 -13.21588,-8.463811 -4.308618,-8.558907 0.0903,-15.084823 0.0903,-15.084823 3.81755,-6.942325 9.86202,-7.925399 9.86202,-7.925399 l 2.34176,-0.518465 v -3.505617 h 4.09426 l 0.0715,3.324976 c 0,0 7.3256,0.187951 12.67463,7.589326 4.86544,8.581249 0.56539,15.964574 0.56539,15.964574 -4.42349,7.60832 -12.188,8.56598 -12.188,8.56598 l 0.20695,31.143659 c 0,0 3.84984,0.14583 4.88456,2.83611 l 0.20695,12.31447 19.25149,5.15789 -0.55703,2.64362 -19.75761,-5.20289 h -12.51563 v -14.89053 c 1.55209,-3.31112 4.55975,-2.63257 4.55975,-2.63257 V 111.21248 L 68.704972,98.600846 68.808445,133.59343 c 0,0 10.926564,2.75224 12.271707,7.20156 v 29.82837 H 67.020153 v 10.82858 l 49.488617,12.20886 -0.20695,-57.17571 4.00101,-0.10347 0.31042,61.98855 -53.929885,-13.22413 -0.08702,18.83756 -3.968972,-0.15245 0.01816,-19.04425 -0.103473,-14.28477 z"
       style="fill:#f5f5ff;stroke:#000000;stroke-width:0.264583px;stroke-linecap:butt;stroke-linejoin:miter;stroke-opacity:1" />
    <path
       sodipodi:nodetypes="ccccc"
       id="path861"
       d="m 39.741083,152.28061 h 23.483369 l -6.77405,5.87084 6.680805,5.90011 H 39.560444"
       style="fill:none;stroke:#000000;stroke-width:0.964583px;stroke-linecap:butt;stroke-linejoin:miter;stroke-opacity:1" />
    <rect
       y="193.58575"
       x="62.755104"
       height="10.053791"
       width="3.6768813"
       id="rect859"
       style="fill:#ffffff;stroke-width:0.132292" />
    <path
       sodipodi:nodetypes="cccccc"
       id="path827"
       d="m 113.92322,137.61842 8.48475,-0.10347 v -5.17362 c -0.82778,-2.37987 -3.98827,-2.30263 -3.98827,-2.30263 0,0 -2.97948,-0.60736 -4.53157,2.49682 z"
       style="fill:#ffffff;stroke:#000000;stroke-width:0.264583px;stroke-linecap:butt;stroke-linejoin:miter;stroke-opacity:1" />
    <path
       sodipodi:nodetypes="cccccccc"
       id="path831"
       d="m 111.21248,140.1509 v -5.11929 h 13.36841 l 0.21037,2.52067 7.34512,2.12811 -0.96389,2.46575 -7.44438,-1.99524 z"
       style="opacity:0.3;fill:#0000ff;stroke:none;stroke-width:0.264583px;stroke-linecap:butt;stroke-linejoin:miter;stroke-opacity:1" />
    <path
       sodipodi:nodetypes="cccccccccccccccc"
       id="path833"
       d="m 116.3031,148.27609 h 4.1389 l 0.17126,50.09408 -54.0722,-12.67216 0.01866,7.88775 -3.792602,-0.0496 -0.121575,-8.74921 -0.103474,-14.28477 -12.591303,0.13898 v -22.67549 h 31.171687 l -0.0423,22.65769 h -14.06 v 10.82858 l 49.488617,12.20886 z"
       style="opacity:0.3;fill:#0000ff;stroke:none;stroke-width:0.264583px;stroke-linecap:butt;stroke-linejoin:miter;stroke-opacity:1" />
    <path
       id="path835"
       d="m 60.858552,200.94359 7.855959,0.10348 -8.728843,-8.17433 8.966902,0.10347 z"
       style="fill:#ffffff;stroke:#000000;stroke-width:0.264583px;stroke-linecap:butt;stroke-linejoin:miter;stroke-opacity:1" />
    <path
       id="path839"
       d="m 131.17249,142.14614 12.31323,3.20765 0.55703,-2.64362 -11.90637,-3.02978 z"
       style="opacity:0.3;fill:#0000ff;stroke:none;stroke-width:0.264583px;stroke-linecap:butt;stroke-linejoin:miter;stroke-opacity:1" />
    <path
       id="path837"
       d="m 129.23715,143.20594 1.65556,-6.10488 5.69099,8.58822 1.65556,-6.72571 z"
       style="fill:#ffffff;stroke:#000000;stroke-width:0.264583px;stroke-linecap:butt;stroke-linejoin:miter;stroke-opacity:1" />
    <path
       sodipodi:nodetypes="ccccccc"
       id="path841"
       d="m 141.91101,164.90289 v 12.39007 c 0,0 0.0633,1.80643 3.12884,1.80643 1.91599,0.12773 2.02118,-2.02118 2.02118,-2.02118 v -22.39393 l -5.27775,-0.12773 z"
       style="fill:none;stroke:#000000;stroke-width:0.264583px;stroke-linecap:butt;stroke-linejoin:miter;stroke-opacity:1" />
    <path
       sodipodi:nodetypes="cccccc"
       id="path843"
       d="m 141.78328,171.28953 5.26736,0.1129 v 5.3796 c 0.3387,2.09996 -2.01079,2.31736 -2.01079,2.31736 0,0 -3.15142,-0.0593 -3.12884,-2.31736 z"
       style="opacity:0.3;fill:#0000ff;stroke:none;stroke-width:0.264583px;stroke-linecap:butt;stroke-linejoin:miter;stroke-opacity:1" />
    <ellipse
       cx="65.301826"
       cy="79.030571"
       rx="8.5804615"
       ry="7.2256517"
       id="path848"
       style="fill:#ffffff;stroke:#000000;stroke-width:0.232292" />
    <text
       id="text852"
       y="80.8162"
       x="58.808403"
       style="font-style:normal;font-weight:normal;font-size:5.30853px;line-height:1.25;font-family:sans-serif;fill:#000000;fill-opacity:1;stroke:none;stroke-width:0.264583"
       xml:space="preserve"><tspan
         y="80.8162"
         x="58.808403"
         style="stroke-width:0.264583"
         id="tspan850"
         sodipodi:role="line">77°C</tspan></text>
    <rect
       y="140.28864"
       x="116.41486"
       height="7.9874597"
       width="3.7617629"
       id="rect857"
       style="fill:#ffffff;stroke-width:0.132292" />
  </g>
</svg>
